<?xml version="1.0" encoding="utf-8"?>
<!-- Generator: Adobe Illustrator 27.6.1, SVG Export Plug-In . SVG Version: 6.00 Build 0)  -->
<svg version="1.1" id="Capa_1" xmlns="http://www.w3.org/2000/svg" xmlns:xlink="http://www.w3.org/1999/xlink" x="0px" y="0px"
	 viewBox="0 0 880 281.2" style="enable-background:new 0 0 880 281.2;" xml:space="preserve">
<style type="text/css">
	.st0{fill:#FFFFFF;}
</style>
<g>
	<path class="st0" d="M144.9,73.5c-12.7,38-24.8,74.1-36.8,110.2c-10.2,30.5-20.4,61-30.4,91.6c-1.3,3.9-2.8,5.9-7.5,5.8
		c-21.7-0.3-43.4-0.2-65.1-0.1c-4.2,0-6.2-0.1-4.6-5.5c23.8-78.3,48.9-156.2,76-233.4c8.1-23.2,24.3-34.9,47-39.7
		c20-4.3,39.5-2.9,58.4,4.9c13.7,5.6,23.7,15.1,29.1,29.1c17,43.8,30.8,88.7,45.2,133.4c11.1,34.7,21.8,69.6,33,104.3
		c2,6.2,0.5,7.1-5.4,7c-20.1-0.3-40.2-0.5-60.3,0.1c-6.8,0.2-9.2-2.3-11.2-8.4c-21.3-64-43-127.9-64.6-191.8
		C147.1,79.2,146.4,77.3,144.9,73.5z"/>
	<path class="st0" d="M446.4,281c-19.7,0-39.3-0.2-59,0c-36.6,0.5-63.9-15.6-83.3-46c-12.9-20.2-19.9-42.5-22.4-66.1
		c-4.1-38.1-0.5-75.3,17.3-109.9c13.4-26.1,32.3-46.3,61.8-54.4c8.4-2.3,17.1-3.2,25.7-3.2c43-0.1,85.9,0.1,128.9-0.2
		c5.3,0,7,1.2,6.9,6.8c-0.4,18.3-0.4,36.5,0,54.8c0.1,5.6-1.3,7.3-7.1,7.2c-38.4-0.3-76.8,0.2-115.2-0.3c-16.2-0.2-26.8,7-34,20.8
		c-9.1,17.4-10.9,36.1-10.2,55.2c0.6,16.1,3.8,31.7,11.7,46c7,12.8,16.9,19.7,32.5,19.4c38.4-0.7,76.8-0.1,115.2-0.4
		c5.8,0,7.1,1.7,7,7.3c-0.4,18.5-0.5,37,0,55.5c0.2,6.7-2.2,7.8-8.1,7.7C491.7,280.8,469,281,446.4,281z"/>
	<path class="st0" d="M713.3,77.5c0.7,20.7-1.4,46,1.1,71.3c1.8,18.1,7.6,34.8,20.2,48.4c8.5,9.2,19.2,13.6,31.7,13.6
		c35.4,0,70.8,0.2,106.3-0.2c6.3-0.1,7.5,1.9,7.4,7.6c-0.4,19-0.2,37.9-0.1,56.9c0,4.2-0.8,6-5.6,5.9c-39.3-0.3-78.6,0.3-117.9-0.5
		c-58.9-1.1-101.9-38.9-111.9-97c-3.3-18.8-3-37.6-2.7-56.6c0.6-39.3,0.4-78.6,0-117.9c-0.1-6.8,1.8-8.3,8.3-8.2
		c19,0.5,37.9,0.4,56.9,0c5.3-0.1,6.5,1.5,6.4,6.6C713.2,29.4,713.3,51.1,713.3,77.5z"/>
	<path class="st0" d="M617.8,141.7c0,44.1-0.1,88.2,0.1,132.2c0,5.6-1.3,7.4-7.1,7.3c-19.4-0.4-38.8-0.3-58.3,0
		c-5.3,0.1-6.4-1.6-6.4-6.6c0.1-89.1,0.2-178.1,0-267.2c0-5.5,2-6.3,6.8-6.2c19.4,0.2,38.8,0.3,58.3,0c5.6-0.1,6.8,1.7,6.7,6.9
		C617.7,52.6,617.8,97.1,617.8,141.7z"/>
	<path class="st0" d="M156.6,167.1h-23.4c-2.4,0-4.6,1.3-5.8,3.4l-11.7,20.3c-1.2,2.1-1.2,4.7,0,6.7l11.7,20.3
		c1.2,2.1,3.4,3.4,5.8,3.4h23.4c2.4,0,4.6-1.3,5.8-3.4l11.7-20.3c1.2-2.1,1.2-4.7,0-6.7l-11.7-20.3
		C161.3,168.4,159,167.1,156.6,167.1z"/>
</g>
</svg>
