<?xml version="1.0" encoding="utf-8"?>
<!-- Generator: Adobe Illustrator 27.5.0, SVG Export Plug-In . SVG Version: 6.00 Build 0)  -->
<svg version="1.1" id="Capa_1" xmlns="http://www.w3.org/2000/svg" xmlns:xlink="http://www.w3.org/1999/xlink" x="0px" y="0px"
	 viewBox="0 0 1080 1080" style="enable-background:new 0 0 1080 1080;" xml:space="preserve">
<style type="text/css">
	.st0{fill:#FFFFFF;}
	.st1{enable-background:new    ;}
</style>
<g>
	<g id="MONITOREO_DE_ALARMAS_00000041297217999317256820000006636695782840816042_">
		<g>
			<path class="st0" d="M998.84,501.77c0-146.54,0-293.08,0-439.63c0-30.56-22.82-52.9-54.34-52.9c-57.91,0-115.66,0-173.42,0
				c-108.37,0-216.73,0.15-325.1,0.15c-103.24,0-206.64-0.15-309.88-0.15C103.36,9.24,81,31.59,81,63.81
				c0.16,43.02,0.16,85.74,0.16,128.76c0,58.98,0,117.81,0,176.79c0,47.58,0,95.01,0,142.59c0,16.27,0.62,32.68,0.62,48.95
				S81,593.74,81.47,610c0.16,6.38,1.09,13.07,3.42,19.15c7.76,20.67,27.01,33.14,50.15,33.14c82.59,0,165.03,0,247.78,0
				c2.02,0,4.04,0,6.37,0c-0.47,1.67-0.62,2.74-0.93,3.95c-5.74,16.57-11.64,33.14-16.92,49.86c-1.71,5.17-3.88,6.99-9.47,6.84
				c-29.34-0.3-58.84-0.3-88.18-0.15c-16.46,0-27.48,12.77-25,28.58c2.02,12.01,12.11,19.31,27.17,19.31c92.22,0,184.44,0,276.66,0
				c61.01,0,122.03,0,183.04,0c24.84,0,49.53,0.15,74.37-0.3c12.11-0.15,21.58-10.03,22.36-21.59c0.93-12.16-7.14-22.8-19.25-25.08
				c-3.11-0.61-6.37-0.91-9.47-0.91c-32.14,0-64.43,0-96.72-0.15c-2.02,0-5.43-1.37-6.05-2.89c-6.83-18.7-13.04-37.55-19.87-57.31
				c3.11,0,5.43,0,7.61,0c85.08,0,170,0,254.92,0c33.22,0,55.58-21.89,55.58-54.57C998.84,572.46,998.84,537.19,998.84,501.77z
				 M132.85,57.88c271.53,0,542.45,0,814.14,0c0,154.75,0,308.74,0,463.95c-271.38,0-542.45,0-814.14,0
				C132.85,366.93,132.85,212.64,132.85,57.88z M803.23,739.06c-87.56,0-175.28,0-262.84,0c-86.16,0-172.33,0-258.49,0
				c86.16,0,172.33,0,258.49,0C628.1,739.06,715.51,739.06,803.23,739.06z M981.92,615.48c-1.24,17.18-17.08,30.1-35.09,30.55
				c-13.51,0.3-26.86,0-40.52,0c-116.44,0-232.72,0-349.16,0c-80.73,0-161.46,0-242.19,0c-59.93,0-120.01,0-180.09,0
				c-21.42,0-37.11-15.2-37.11-36.18c-0.16-12.16,0-24.32,0-37.09c294.98,0,589.33,0,884.31,0
				C982.08,587.5,982.85,601.64,981.92,615.48z"/>
			<g>
				<path class="st0" d="M428.45,434.27c-4.5-1.98-6.21-5.32-6.05-10.19c0.16-2.43,0-4.86,0-7.3c0.31-5.17,3.26-8.06,8.54-8.36
					c2.17-0.15,4.19,0,6.05,0c0-4.86-0.16-9.27,0-13.99c0.16-3.95,3.26-6.69,7.3-7.14c0.93,0,1.71,0,2.64,0
					c62.41,0,124.67,0,187.08,0c0.93,0,1.71,0,2.64,0c3.88,0.3,6.99,2.89,7.3,6.69c0.31,4.56,0,9.27,0,14.29c1.55,0,3.57,0,5.43,0
					c5.9,0.15,9.47,3.8,9.47,9.27c0,1.98-0.16,3.95,0,5.93c0.47,4.86-1.24,8.36-5.9,10.49
					C578.11,434.27,503.13,434.27,428.45,434.27z"/>
				<path class="st0" d="M409.98,221.15c1.55-1.98,2.64-4.26,4.66-5.78c2.64-2.13,6.05-2.28,9.32-0.61
					c6.83,3.8,13.82,7.6,21.11,11.86c-2.95,5.32-6.05,10.49-9.32,15.96c-3.88-2.13-7.61-4.26-11.18-6.23
					c-2.79-1.52-5.59-3.34-8.38-4.71c-2.79-1.37-4.66-3.65-6.05-6.38C409.98,223.73,409.98,222.36,409.98,221.15z"/>
				<path class="st0" d="M454.53,378.64c0-0.91-0.16-1.37-0.16-1.82c0-29.64-0.16-59.44,0.16-88.93
					c0.31-33.75,23.13-65.06,55.58-76.31c34.16-11.86,64.74-5.32,91.13,18.85c14.28,13.07,22.2,29.64,24.84,48.49
					c0.62,4.26,0.93,8.66,0.93,12.92c0,27.82,0,55.79,0,83.61c0,0.91,0,2.13,0,3.19C569.11,378.64,511.82,378.64,454.53,378.64z
					 M483.41,261.89c0,28.88,0,57.92,0,86.8c22.36,0.61,45.95-18.55,44.09-47.43C526.1,279.67,503.44,259.3,483.41,261.89z
					 M596.9,261.74c-21.58-0.91-46.11,17.79-44.09,46.52c1.71,24.63,23.75,40.89,44.09,39.98C596.9,319.5,596.9,290.62,596.9,261.74
					z"/>
				<path class="st0" d="M549.39,177.98c-6.05,0-11.49,0-17.08-0.15c-0.62,0-1.71-1.06-1.71-1.82c-0.16-7.14-0.31-14.29,0-21.28
					c0.16-5.93,4.35-9.42,9.94-9.27c5.12,0.15,8.69,4.26,8.69,9.88C549.39,162.77,549.39,170.22,549.39,177.98z"/>
				<path class="st0" d="M589.76,188.47c4.19-7.14,7.92-14.14,12.26-20.67c2.64-4.26,8.69-5.02,13.04-2.43
					c4.04,2.58,5.59,7.3,3.11,11.55c-3.88,6.84-8.07,13.68-12.26,20.67C600.63,194.7,595.35,191.66,589.76,188.47z"/>
				<path class="st0" d="M644.72,241.97c-3.11-5.47-6.05-10.49-9.32-15.96c7.3-4.1,14.28-8.36,21.58-12.01
					c4.35-2.28,9.78,0.15,11.95,4.26c2.33,4.26,0.93,9.27-3.42,11.71C658.84,234.22,652.01,238.02,644.72,241.97z"/>
				<path class="st0" d="M490.24,188.62c-5.28,2.89-10.56,5.93-15.99,8.97c-4.19-7.45-8.38-14.44-12.26-21.74
					c-1.86-3.65-0.31-8.06,3.11-10.49c3.57-2.43,7.92-2.28,11.18,0.61c0.93,0.91,1.71,1.82,2.48,2.74
					c3.73,6.08,7.45,12.31,11.18,18.39C489.78,187.71,489.93,188.01,490.24,188.62z"/>
			</g>
		</g>
	</g>
	<g class="st1">
		<path class="st0" d="M253.79,939.27l-0.16-49.86l-18.79,42.11h-13.04l-18.63-41.96v49.86h-17.7v-76.77h21.74l21.27,45.6
			l21.27-45.6h21.74v76.77h-17.7L253.79,939.27L253.79,939.27z"/>
		<path class="st0" d="M366.51,900.81c0,22.35-18.16,39.37-42.38,39.37c-24.22,0-42.23-16.87-42.23-39.37
			c0-22.35,18.16-38.92,42.23-38.92C348.5,862.04,366.51,878.61,366.51,900.81z M302.23,900.96c0,12.92,10.25,22.8,22.2,22.8
			c12.11,0,21.74-10.03,21.74-22.8c0-12.77-9.63-22.65-21.74-22.65C312.32,878.31,302.23,888.04,302.23,900.96z"/>
		<path class="st0" d="M431.71,939.27l-36.02-47.12v47.12h-18.63v-76.62h17.54l36.17,47.28v-47.28h18.63v76.62H431.71z"/>
		<path class="st0" d="M464.94,939.27v-76.62h19.87v76.62H464.94z"/>
		<path class="st0" d="M536.66,878.31v60.96h-19.87v-60.96H493.5V862.5h66.76v15.81H536.66z"/>
		<path class="st0" d="M644.25,900.81c0,22.35-18.16,39.37-42.38,39.37s-42.23-16.87-42.23-39.37c0-22.35,18.16-38.92,42.23-38.92
			C626.09,862.04,644.25,878.61,644.25,900.81z M579.98,900.96c0,12.92,10.25,22.8,22.2,22.8c12.11,0,21.74-10.03,21.74-22.8
			c0-12.77-9.63-22.65-21.74-22.65C589.91,878.31,579.98,888.04,579.98,900.96z"/>
		<path class="st0" d="M690.21,917.68h-0.62h-15.06v21.59h-19.87v-76.62h34.93c20.65,0,32.6,9.58,32.6,26.75
			c0,11.71-4.97,20.07-14.13,24.63l16.46,25.23H702L690.21,917.68z M689.74,902.48c8.54,0,13.66-4.26,13.66-12.31
			c0-8.06-4.97-12.01-13.66-12.01h-15.06v24.47h15.06V902.48z"/>
		<path class="st0" d="M755.57,878.01v15.2h37.26v15.35h-37.26v15.51h42.54v15.35h-62.41v-76.77h61.32v15.35H755.57z"/>
		<path class="st0" d="M890.48,900.81c0,22.35-18.16,39.37-42.38,39.37c-24.22,0-42.23-16.87-42.23-39.37
			c0-22.35,18.16-38.92,42.23-38.92C872.31,862.04,890.48,878.61,890.48,900.81z M826.21,900.96c0,12.92,10.25,22.8,22.2,22.8
			c12.11,0,21.74-10.03,21.74-22.8c0-12.77-9.63-22.65-21.74-22.65S826.21,888.04,826.21,900.96z"/>
	</g>
	<g class="st1">
		<path class="st0" d="M244.01,993.99c24.53,0,41.61,15.51,41.61,38.31c0,22.65-17.23,38.31-42.38,38.31h-32.91v-76.62H244.01z
			 M230.35,1055.1h14.13c12.11,0,20.96-9.12,20.96-22.65c0-13.53-9.16-22.8-21.74-22.8h-13.35V1055.1z"/>
		<path class="st0" d="M316.05,1009.35v15.2h37.42v15.35h-37.42v15.51h42.54v15.35h-62.57v-76.62h61.32v15.35h-41.3V1009.35z"/>
		<path class="st0" d="M415.26,1056.47l-5.74,14.14h-20.49l33.69-76.62h20.49l32.91,76.62h-21.27l-5.59-14.14H415.26z
			 M432.49,1013.45l-11.33,28.27h22.51L432.49,1013.45z"/>
		<path class="st0" d="M536.66,1054.34v16.27h-53.1v-76.62h19.87v60.35H536.66z"/>
		<path class="st0" d="M564.3,1056.47l-5.74,14.14h-20.49l33.69-76.62h20.49l32.91,76.62h-21.27l-5.59-14.14H564.3z M581.37,1013.45
			l-11.33,28.27h22.51L581.37,1013.45z"/>
		<path class="st0" d="M668,1049.02h-0.62h-15.06v21.59h-19.87v-76.62h34.93c20.65,0,32.6,9.58,32.6,26.75
			c0,11.71-4.97,20.07-14.13,24.63l16.46,25.23H679.8L668,1049.02z M667.54,1033.82c8.54,0,13.66-4.26,13.66-12.31
			s-4.97-12.01-13.66-12.01h-15.06v24.47h15.06V1033.82z"/>
		<path class="st0" d="M781.8,1070.61l-0.16-49.86l-18.79,42.11h-13.04l-18.79-42.11v49.86h-17.7v-76.77h21.74l21.27,45.6
			l21.27-45.6h21.74v76.77H781.8z"/>
		<path class="st0" d="M832.88,1056.47l-5.74,14.14h-20.49l33.69-76.62h20.49l32.91,76.62h-21.27l-5.59-14.14H832.88z
			 M850.11,1013.45l-11.33,28.27h22.51L850.11,1013.45z"/>
	</g>
</g>
</svg>
