<?xml version="1.0" encoding="UTF-8"?>
<svg id="Layer_1" data-name="Layer 1" xmlns="http://www.w3.org/2000/svg" viewBox="0 0 480.16 480.96">
  <defs>
    <style>
      .cls-1 {
        fill: #dd5b19;
      }

      .cls-1, .cls-2, .cls-3 {
        stroke-width: 0px;
      }

      .cls-2 {
        fill: #f19e12;
      }

      .cls-3 {
        fill: #fff;
      }
    </style>
  </defs>
  <rect class="cls-3" width="480.16" height="480.96"/>
  <g>
    <g>
      <path class="cls-1" d="M340.99,393.52c-4.83,0-6.35-2-7.76-6.22-13.43-40.28-27.25-81.17-40.6-120.73l-9.9-29.31c-.32-.94-.67-1.87-1.17-3.16-.29-.75-.63-1.63-1.04-2.72l-.5-1.32-9.34,27.99c-6.74,20.19-13.32,39.88-19.88,59.57l-3.03,9.08c-6.83,20.49-13.9,41.67-20.76,62.54-.94,2.85-1.95,4.21-5.19,4.21h-.17c-7.47-.1-15.54-.15-24.69-.15-8.66,0-17.37.04-26.27.09h-.37c-1.61,0-2.55-.09-2.92-.59-.35-.47-.29-1.48.2-3.07,20.1-66.02,39.53-125.74,59.42-182.57,5.92-16.92,17.5-26.69,36.42-30.76,5.74-1.23,11.47-1.86,17.03-1.86,9.69,0,19.24,1.9,28.37,5.66,11.03,4.53,18.38,11.9,22.49,22.51,11.38,29.38,21.11,59.88,30.53,89.37,1.59,4.99,3.18,9.97,4.79,14.96,4.06,12.64,8.1,25.52,12,37.98,4.49,14.3,9.12,29.09,13.82,43.6.7,2.17.81,3.41.37,4.03-.42.57-1.44.8-3.53.8h-.57c-9.95-.16-17.58-.23-24.75-.23-8.14,0-15.49.09-22.47.29h-.53,0Z"/>
      <path class="cls-3" d="M280.49,175.05c9.63,0,19.11,1.89,28.17,5.62,10.89,4.48,18.16,11.75,22.22,22.23,11.37,29.36,21.1,59.85,30.52,89.34,1.59,4.99,3.19,9.98,4.79,14.97,4.06,12.64,8.1,25.53,12.01,37.99,4.48,14.3,9.12,29.09,13.81,43.59.62,1.92.77,3.12.44,3.58-.39.54-1.97.6-3.13.6h-.56c-9.95-.16-17.59-.23-24.75-.23-8.15,0-15.5.09-22.48.29h-.52c-4.13,0-5.76-1.32-7.28-5.87-13.48-40.43-27.35-81.48-40.76-121.18-3.25-9.62-6.5-19.24-9.74-28.86-.32-.95-.68-1.9-1.18-3.2-.29-.75-.62-1.62-1.02-2.69l-.99-2.64-.89,2.67-8.98,26.89c-6.71,20.11-13.26,39.72-19.8,59.33l-3.15,9.44c-6.79,20.37-13.82,41.44-20.64,62.19-.9,2.73-1.75,3.87-4.72,3.87h-.16c-7.47-.1-15.54-.15-24.69-.15-8.65,0-17.37.04-26.28.09h-.37c-.78,0-2.23,0-2.52-.39-.11-.15-.31-.71.28-2.63,20.09-66.02,39.53-125.73,59.42-182.55,5.86-16.74,17.32-26.41,36.06-30.44,5.71-1.23,11.4-1.85,16.92-1.85M280.49,174.05c-5.66,0-11.38.63-17.13,1.87-17.77,3.82-30.44,12.95-36.79,31.08-21.15,60.43-40.79,121.34-59.43,182.59-1.23,4.03.18,4.31,3.2,4.31h.38c8.76-.05,17.52-.09,26.28-.09,8.22,0,16.45.04,24.67.15h.17c3.54,0,4.68-1.56,5.67-4.56,7.85-23.9,15.83-47.76,23.78-71.62,9.42-28.24,18.85-56.48,28.78-86.22,1.11,2.96,1.7,4.39,2.2,5.86,16.87,50,33.8,99.98,50.5,150.04,1.52,4.55,3.3,6.56,8.23,6.56h.55c7.48-.21,14.97-.29,22.46-.29,8.25,0,16.49.1,24.74.23h.58c4.12,0,5.14-.84,3.64-5.48-8.78-27.14-17.1-54.42-25.82-81.58-11.23-34.97-22.05-70.08-35.32-104.36-4.26-11.01-12.03-18.38-22.77-22.79-9.35-3.84-18.87-5.69-28.55-5.69h-.02Z"/>
    </g>
    <path class="cls-2" d="M200.95,219.35c-.04.46.15,2.35-.39,4-4.69,14.4-9.1,28.91-14.44,43.06-2.98,7.9-9.54,12.82-17.96,14.62-13.26,2.85-26.51,5.74-39.85,8.19-9.22,1.7-17.4-1.03-23.78-8.02-9.02-9.89-17.92-19.91-26.7-30.01-6.19-7.12-8.14-15.51-5.36-24.49,4.11-13.27,8.51-26.46,13.17-39.55,3.1-8.68,9.62-14.16,18.59-16.13,13.24-2.92,26.56-5.49,39.87-8.06,9.57-1.85,17.68,1.23,24.14,8.28,8.57,9.34,16.83,18.97,25.32,28.38,4.75,5.27,7.41,11.27,7.38,19.72h0Z"/>
    <g>
      <path class="cls-1" d="M46.61,337.8c-4.71,0-8.78-1.85-12.1-5.5-5.65-6.21-10.73-11.82-15.62-17.61-3.73-4.41-4.78-9.82-3.05-15.66,2.1-7.05,4.53-14.34,7.43-22.26,2.08-5.68,6.1-9.21,11.95-10.5l3.68-.81c6.33-1.4,12.87-2.85,19.34-4.01,1.14-.21,2.27-.31,3.36-.31,4.71,0,8.8,1.88,12.17,5.59,3.49,3.84,7,7.79,10.4,11.61,1.53,1.72,3.06,3.44,4.59,5.16,3.07,3.44,4.42,7.51,4.37,13.18-.42,3-1.6,6.22-2.86,9.62-1.12,3.04-2.27,6.18-2.98,9.47-2.49,11.54-9.32,17.46-21.49,18.62-3.24.31-6.47,1.06-9.6,1.79-2.02.47-4.1.96-6.17,1.32-1.17.2-2.32.31-3.43.31h0Z"/>
      <path class="cls-3" d="M61.6,261.64h0c4.56,0,8.53,1.83,11.8,5.42,3.49,3.84,7,7.79,10.4,11.61,1.53,1.72,3.06,3.44,4.59,5.15,2.97,3.33,4.28,7.27,4.25,12.78-.43,2.99-1.59,6.16-2.83,9.52-1.12,3.06-2.29,6.22-3,9.54-2.44,11.3-9.13,17.09-21.05,18.23-3.27.31-6.52,1.07-9.67,1.8-2.01.47-4.09.95-6.14,1.31-1.14.2-2.26.3-3.34.3-4.56,0-8.51-1.8-11.73-5.34-5.65-6.21-10.72-11.82-15.61-17.6-3.61-4.28-4.64-9.53-2.95-15.19,2.09-7.04,4.52-14.32,7.42-22.23,2.02-5.51,5.92-8.93,11.59-10.18,1.23-.27,2.46-.54,3.69-.81,6.32-1.4,12.85-2.84,19.31-4,1.11-.2,2.22-.3,3.28-.3M61.6,260.64c-1.12,0-2.28.11-3.45.32-7.72,1.38-15.37,3.14-23.04,4.82-6.06,1.33-10.22,5.09-12.31,10.81-2.69,7.35-5.21,14.79-7.44,22.29-1.72,5.78-.83,11.42,3.15,16.12,5.07,5.99,10.35,11.82,15.63,17.62,3.47,3.81,7.69,5.66,12.47,5.66,1.14,0,2.31-.11,3.51-.31,5.27-.92,10.44-2.6,15.73-3.1,12-1.14,19.34-7.03,21.93-19.01,1.5-6.93,5.04-13.32,5.85-19.19.05-5.92-1.38-10.03-4.5-13.52-4.99-5.59-9.95-11.22-14.99-16.77-3.49-3.84-7.75-5.75-12.54-5.75h0Z"/>
    </g>
    <g>
      <path class="cls-1" d="M105.9,157.11c-2.98,0-5.49-1.32-7.89-4.14-5.01-5.88-10.41-11.94-16.05-18.01-3.19-3.43-3.92-7.18-2.3-11.81,2.63-7.5,5.24-15.36,7.78-23.36,1.26-3.98,3.77-6.21,7.89-7.01,6.73-1.31,13.55-2.75,20.14-4.15l4.5-.95c1.02-.22,2-.33,2.9-.33,3.02,0,5.53,1.21,7.66,3.7,4.43,5.17,9.06,10.31,13.53,15.29l3.18,3.55c2.18,2.43,3.03,4.49,2.84,6.87-.59,4.41-2.13,8.68-3.63,12.81-.47,1.3-.94,2.59-1.38,3.89-.8,2.36-1.46,4.4-2.02,6.16-2.33,7.27-7.27,11.63-14.8,13.08-1.93.37-4.19.81-6.84,1.37-1.38.29-2.77.55-4.16.81-2.61.48-5.32.98-7.92,1.72-1.22.35-2.38.52-3.45.52h.02Z"/>
      <path class="cls-3" d="M122.88,87.83h0c2.86,0,5.25,1.15,7.28,3.53,4.43,5.17,9.06,10.32,13.53,15.3,1.06,1.18,2.13,2.37,3.19,3.55,2.07,2.31,2.89,4.25,2.72,6.47-.59,4.37-2.12,8.6-3.6,12.7-.46,1.28-.94,2.6-1.38,3.91-.8,2.37-1.45,4.39-2.02,6.17-1.74,5.41-2.61,8.12-4.3,9.62s-4.51,2.04-10.12,3.13c-1.97.38-4.19.81-6.85,1.37-1.37.29-2.78.55-4.15.8-2.63.48-5.34.99-7.96,1.73-1.17.33-2.29.5-3.31.5-2.82,0-5.21-1.26-7.51-3.97-5.01-5.89-10.42-11.95-16.07-18.03-3.09-3.32-3.77-6.81-2.19-11.31,2.63-7.51,5.25-15.38,7.78-23.38,1.22-3.84,3.53-5.9,7.51-6.67,6.74-1.31,13.56-2.76,20.16-4.16l4.49-.95c.99-.21,1.93-.31,2.8-.31M122.88,86.83c-.96,0-1.96.12-3.01.34-8.21,1.73-16.4,3.51-24.64,5.11-4.31.84-6.95,3.16-8.28,7.35-2.48,7.82-5.06,15.61-7.78,23.35-1.63,4.66-1.04,8.61,2.4,12.32,5.47,5.88,10.83,11.88,16.04,17.99,2.42,2.84,5.06,4.32,8.27,4.32,1.12,0,2.31-.18,3.58-.54,3.93-1.12,8.03-1.67,12.05-2.52,21.01-4.45,17.28-1.05,24.03-20.95,1.88-5.54,4.25-10.96,5.03-16.82.23-2.94-1.11-5.17-2.97-7.24-5.6-6.25-11.25-12.46-16.71-18.83-2.31-2.7-4.97-3.87-8.04-3.87h.03Z"/>
    </g>
    <g>
      <path class="cls-1" d="M271.03,346.53c-1.78,0-3.45-.96-4.34-2.5l-9.02-15.63c-.89-1.55-.89-3.46,0-5.01l9.02-15.63c.89-1.54,2.56-2.5,4.34-2.5h18.05c1.78,0,3.45.96,4.34,2.5l9.02,15.63c.89,1.54.89,3.46,0,5.01l-9.02,15.63c-.89,1.54-2.56,2.5-4.34,2.5h-18.05Z"/>
      <path class="cls-3" d="M289.07,305.75c1.61,0,3.1.86,3.91,2.26l9.02,15.63c.8,1.39.8,3.12,0,4.51l-9.02,15.63c-.8,1.39-2.3,2.26-3.91,2.26h-18.05c-1.61,0-3.1-.86-3.91-2.26l-9.02-15.63c-.8-1.39-.8-3.12,0-4.51l9.02-15.63c.8-1.39,2.3-2.26,3.91-2.26h18.05M289.07,304.75h-18.05c-1.97,0-3.79,1.05-4.77,2.76l-9.02,15.63c-.98,1.7-.98,3.81,0,5.51l9.02,15.63c.98,1.7,2.8,2.76,4.77,2.76h18.05c1.97,0,3.79-1.05,4.77-2.76l9.02-15.63c.98-1.7.98-3.81,0-5.51l-9.02-15.63c-.98-1.7-2.8-2.76-4.77-2.76h0Z"/>
    </g>
  </g>
  <path class="cls-2" d="M325.6,214.4h-41.42l3.9-45.02-4.01-52.17h-8.03l-4.01,52.17,3.9,45.02h-41.42l-35.34-7.65c8.03,10.12,19.73,22.3,35.34,31.23,44.55,25.48,84.62,3.69,91.1,0,15.66-8.92,27.36-21.07,35.34-31.06l-35.34,7.48h0Z"/>
  <path class="cls-2" d="M291.09,169.38l-3.52,40.72h37.82l35.55-7.16c-2.1-9.49-8.95-36.08-27.93-56.71-19.14-20.81-39.02-22.93-45.94-23.22,1.34,15.46,2.68,30.91,4.02,46.37Z"/>
  <path class="cls-2" d="M269.01,169.38l3.52,40.72h-37.82l-35.55-7.16c2.1-9.49,8.95-36.08,27.93-56.71,19.14-20.81,39.02-22.93,45.94-23.22-1.34,15.46-2.68,30.91-4.02,46.37Z"/>
  <polygon class="cls-2" points="464.74 264.02 464.53 264.79 450.68 268.5 451 268.82 444.57 292.79 420.61 299.21 403.06 281.66 409.48 257.69 433.45 251.27 433.76 251.59 437.48 237.73 438.25 237.53 437.37 236.65 398.77 246.99 388.43 285.58 394.28 291.43 371.66 297.49 365.6 320.11 342.98 326.17 336.92 348.79 314.3 354.85 308.24 377.47 324.8 394.02 347.42 387.96 353.48 365.35 376.1 359.29 382.16 336.67 404.78 330.61 410.84 307.99 416.69 313.84 455.28 303.5 465.62 264.9 464.74 264.02"/>
</svg>