<?xml version="1.0" encoding="UTF-8"?>
<svg id="Layer_1" data-name="Layer 1" xmlns="http://www.w3.org/2000/svg" viewBox="0 0 150.6 39.64">
  <defs>
    <style>
      .cls-1 {
        fill: #ffffff;
        stroke-width: 0px;
      }
    </style>
  </defs>
  <path class="cls-1" d="M45.02.02c.04.09.07.18.12.27,6.81,13.01,13.61,26.02,20.42,39.03.05.09.09.18.15.3-.12,0-.22.01-.31.01-2.82,0-5.64,0-8.46,0-.24,0-.36-.06-.48-.28-3.75-7.21-7.52-14.41-11.28-21.61-.05-.1-.11-.18-.17-.3-1.64,3.14-3.27,6.26-4.92,9.42h4.7c.13,0,.24,0,.31.15,1.1,2.11,2.21,4.22,3.31,6.33.01.02.02.05.04.12h-.33c-3.74,0-7.47,0-11.21,0-.22,0-.32.07-.42.26-.98,1.9-1.98,3.78-2.96,5.68-.09.18-.19.25-.4.25-3.64,0-7.27,0-10.91,0-.23,0-.35-.06-.46-.27-3.41-6.42-6.82-12.83-10.24-19.24-.12-.22-.12-.38,0-.6C14.93,13.12,18.34,6.72,21.75.31c.05-.1.09-.2.13-.3h9.26c-.05.1-.08.2-.13.3-3.36,6.42-6.72,12.84-10.08,19.26-.08.15-.13.27-.03.45,2.24,4.27,4.48,8.53,6.71,12.8.03.06.07.11.12.19.07-.12.11-.21.16-.29C33.55,21.9,39.21,11.07,44.87.24c.04-.07.06-.15.09-.22h.05Z"/>
  <path class="cls-1" d="M127.9.02c0,.12,0,.24,0,.36v39.26h-.31c-4.49,0-8.98,0-13.47,0-.23,0-.34-.08-.43-.28-.98-1.89-1.97-3.77-2.94-5.66-.1-.19-.21-.25-.42-.25-3.72,0-7.44,0-11.16,0h-.37c.04-.1.06-.17.1-.24,1.08-2.05,2.15-4.11,3.22-6.16.09-.17.19-.21.37-.21,1.44,0,2.88,0,4.33,0h.35c-1.64-3.15-3.27-6.26-4.92-9.42-.07.13-.13.22-.17.31-3.77,7.19-7.53,14.38-11.29,21.58-.12.24-.26.31-.52.31-2.8-.01-5.6,0-8.4,0h-.36C88.39,26.43,95.28,13.25,102.2.02c5.75,10.99,11.48,21.94,17.21,32.89.02,0,.04,0,.05-.01V.02h8.43Z"/>
  <path class="cls-1" d="M94.28.02c-.03.08-.06.17-.1.25-6.82,13.03-13.64,26.07-20.45,39.1-.04.07-.08.14-.14.25-.06-.11-.11-.19-.15-.27-6.81-13.02-13.62-26.03-20.43-39.05-.05-.09-.08-.18-.11-.28h9.09s.03.08.06.13c3.81,7.29,7.62,14.58,11.43,21.86.03.06.07.11.12.19.06-.1.1-.18.14-.26,3.44-6.56,6.87-13.13,10.31-19.69.39-.74.76-1.48,1.14-2.22h9.09Z"/>
  <path class="cls-1" d="M150.6,39.63c-2.98,0-5.97,0-8.95,0-.22,0-.32-.07-.42-.26-3.42-6.44-6.84-12.87-10.27-19.31-.1-.18-.1-.32,0-.5,3.43-6.43,6.85-12.85,10.27-19.28.05-.09.08-.18.12-.27,3.02,0,6.04,0,9.07,0,.07,0,.22-.09.19.11-.05.08-.12.15-.16.24-3.35,6.4-6.7,12.79-10.05,19.18-.11.2-.11.35,0,.55,3.35,6.39,6.7,12.79,10.05,19.18.04.08.11.16.16.24v.11Z"/>
  <path class="cls-1" d="M8.43.02c0,13.13,0,26.26,0,39.39v.21H0V.02h8.43Z"/>
</svg>