<?xml version="1.0" encoding="UTF-8"?>
<svg id="Layer_1" data-name="Layer 1" xmlns="http://www.w3.org/2000/svg" viewBox="0 0 154.8 47.06">
  <defs>
    <style>
      .cls-1 {
        fill: #ffffff;
        stroke-width: 0px;
      }
    </style>
  </defs>
  <path class="cls-1" d="M42.34,30.36c.72-.06,1.33-.21,1.93-.43,1.54-.56,2.82-1.51,3.91-2.75,1.35-1.54,2.24-3.31,2.49-5.39.08-.7.1-1.4-.2-2.07-.35-.8-.97-1.13-1.8-.98-.64.12-1.16.43-1.64.85-.78.69-1.37,1.54-1.87,2.45-1.22,2.21-1.96,4.59-2.56,7.04-.1.4-.17.81-.26,1.28M20.82,33.69c-2.24-.4-4.41-.66-6.6-.33-1.49.23-2.9.69-4.12,1.64-1.36,1.06-1.92,2.93-1.32,4.56.44,1.21,1.35,1.97,2.48,2.44.99.41,2.02.53,3.09.45,1.63-.13,3.06-.7,4.21-1.92,1.78-1.9,2.32-4.24,2.26-6.85M132.22,35.17c0,.28,0,.55,0,.83.03.87.12,1.74.42,2.57.3.82.81,1.46,1.7,1.6.46.07.95.08,1.41-.01,1.04-.2,1.86-.82,2.55-1.61.93-1.05,1.47-2.31,1.76-3.68.85-4.08,1.69-8.16,2.54-12.23.35-1.69-.59-3.08-2.26-3.28-.58-.07-1.15.08-1.68.33-1.07.49-1.88,1.31-2.55,2.28-1.1,1.57-1.86,3.32-2.44,5.14-.84,2.62-1.35,5.3-1.45,8.06M143.57,17.77c.13-.58.25-1.07.36-1.56.16-.72.35-.88,1.06-.88,2.26,0,4.52,0,6.78,0,.75,0,.97.28.81,1.04-.66,3.19-1.32,6.37-1.98,9.55-.76,3.66-1.52,7.32-2.27,10.99-.17.85-.07,1.66.45,2.37.54.74,1.26,1.07,2.17.96.95-.12,1.78-.55,2.56-1.08.14-.09.27-.19.41-.29.2-.15.42-.19.64-.05.24.17.28.43.18.68-.28.71-.51,1.44-.87,2.11-1.24,2.35-3.07,3.94-5.66,4.48-1.66.35-3.3.26-4.86-.49-1.64-.79-2.56-2.17-3.03-3.92-.07-.26-.13-.53-.22-.91-.23.31-.4.53-.57.76-1.13,1.55-2.47,2.88-4.19,3.73-2.41,1.2-4.89,1.36-7.39.32-1.78-.74-2.98-2.1-3.74-3.9-.21-.49-.36-1-.55-1.52-.25.07-.31.31-.43.49-.65.99-1.36,1.93-2.2,2.76-1.6,1.58-3.46,2.59-5.72,2.78-1.49.13-2.94-.01-4.32-.59-1.7-.71-2.78-2.02-3.32-3.81-.45-1.5-.4-3.02-.18-4.55.35-2.45.97-4.83,1.52-7.24.42-1.82.82-3.65,1-5.52.07-.7.03-1.4-.18-2.09-.31-1.04-1-1.56-2.05-1.62-1.34-.07-2.23.68-2.94,1.71-.66.96-1.12,2.05-1.37,3.2-.59,2.72-1.15,5.45-1.72,8.17-.76,3.64-1.52,7.28-2.27,10.92-.2.94-.37,1.09-1.29,1.09-2.14,0-4.27,0-6.41,0-.12,0-.25,0-.37,0-.48-.05-.72-.31-.65-.81.08-.55.21-1.08.32-1.63.14-.67.28-1.33.42-2,.02-.12.02-.24.04-.5-.46.54-.84.98-1.22,1.42-1.31,1.46-2.79,2.67-4.62,3.36-1.36.51-2.77.62-4.22.48-1-.1-1.97-.27-2.89-.68-1.72-.76-2.78-2.1-3.26-3.93-.13-.49-.21-.98-.33-1.56-.47.58-.88,1.13-1.33,1.64-1.1,1.29-2.31,2.44-3.77,3.29-1.44.83-2.98,1.25-4.63,1.3-1.02.03-2.03-.04-3.01-.33-2.64-.79-4.14-2.62-4.58-5.38-.11-.69-.11-1.39-.17-2.16-.12.14-.23.24-.33.36-1.58,2-3.39,3.73-5.57,5.02-2.07,1.23-4.3,1.98-6.67,2.28-1.42.18-2.85.25-4.27.08-2.96-.35-5.3-1.72-6.76-4.48-.56-1.06-.92-2.2-1.01-3.39-.08-1.14-.03-2.29-.04-3.44v-.62h-2.16c-.09.45-.18.92-.28,1.39-.54,2.57-1.73,4.79-3.55,6.62-1.8,1.82-3.98,3.04-6.39,3.82-2.62.85-5.31,1.12-8.04.99-2.07-.1-4.12-.36-6.09-1.11-1.97-.75-3.65-1.9-4.92-3.64C.37,40.83-.07,39.16,0,37.36c.13-2.99,1.66-5.09,4.05-6.62,1.76-1.12,3.69-1.7,5.72-1.98,2.49-.35,4.96-.17,7.43.19.86.13,1.71.26,2.67.41-.14-.35-.24-.64-.37-.91-.8-1.58-1.8-3.01-2.95-4.33-1.57-1.81-3.19-3.58-4.74-5.4-1.01-1.19-1.89-2.49-2.45-3.97-1.38-3.6-.89-6.93,1.51-9.92,1.58-1.96,3.66-3.16,5.99-3.95,1.5-.51,3.05-.74,4.63-.84,2.46-.15,4.78.35,6.98,1.41,1.59.77,2.93,1.87,3.65,3.59.67,1.59.76,3.24.1,4.84-.78,1.9-2.29,2.79-4.24,2.91-.66.04-1.33.03-1.96-.22-.67-.27-.77-.64-.3-1.19.93-1.09,1.39-2.34,1.34-3.8-.07-1.88-1.38-4.01-3.71-4.3-1.67-.2-3.17.19-4.45,1.31-.88.77-1.38,1.8-1.55,2.98-.28,1.92.18,3.67,1.17,5.29.86,1.41,1.99,2.56,3.17,3.66,1.33,1.24,2.73,2.42,4.02,3.71,2.15,2.15,3.88,4.6,4.61,7.67.17.72.26,1.46.39,2.19.04.25.08.5.12.77h2.55c.05-.17.11-.35.15-.53.61-2.65,1.52-5.18,2.84-7.54,1.28-2.28,2.9-4.26,5.04-5.74,2.15-1.49,4.54-2.22,7.13-2.25.96-.01,1.9.01,2.83.28,2.23.63,3.7,2.22,3.97,4.61.3,2.61-.35,4.99-1.73,7.16-2.22,3.5-5.43,5.54-9.33,6.49-.66.16-1.35.21-2.02.32-.14.02-.28.05-.46.09-.1,1.33-.25,2.64.11,3.93.56,2,2.14,3.19,4.32,3.11,3.22-.13,5.88-1.56,8.21-3.77,1.48-1.41,2.75-3.01,3.91-4.7.17-.25.31-.56.37-.86.95-4.49,1.88-8.99,2.82-13.48.8-3.81,1.6-7.61,2.4-11.42.09-.44.2-.87.28-1.31.11-.6.44-.92,1.04-1,1.42-.18,2.83-.39,4.24-.58.82-.11,1.64-.23,2.46-.34.1-.01.2-.04.31-.04.69-.04.96.26.83.97-.2,1.04-.43,2.08-.64,3.12-1.07,5.16-2.15,10.32-3.22,15.48-.96,4.6-1.93,9.19-2.88,13.79-.09.43-.13.89-.09,1.33.1,1.27,1.23,2.47,2.81,2.21.82-.13,1.54-.49,2.2-.98,1.27-.95,2.27-2.17,3.23-3.43,1.11-1.45,1.1-1.45,1.46-3.23.63-3.1,1.28-6.2,1.92-9.3.48-2.33.97-4.66,1.45-6.99.16-.78.33-.95,1.07-.95,2.2,0,4.4,0,6.6,0,.2,0,.42.02.6.11.35.16.49.57.39,1.04-1,4.81-2.01,9.61-3.01,14.42-.41,2-.82,4-1.22,6-.12.57-.12,1.14.09,1.7.42,1.13,1.5,1.76,2.67,1.58.63-.1,1.19-.32,1.73-.66,1.17-.73,2.08-1.74,2.93-2.83.53-.68,1.05-1.38,1.53-2.09.19-.27.33-.6.4-.92.77-3.66,1.52-7.32,2.28-10.99.45-2.18.91-4.37,1.37-6.55.12-.58.37-.81.94-.81,2.32,0,4.65,0,6.97,0,.64,0,.88.33.75.99-.08.4-.17.79-.26,1.18-.04.21-.07.41-.02.69.2-.2.39-.4.59-.59,1.4-1.35,3.04-2.22,4.96-2.41,1.03-.1,2.06-.1,3.09.11,2.55.53,4.23,2.36,4.61,5.02.24,1.67.08,3.31-.18,4.95-.48,2.94-1.33,5.8-1.97,8.7-.24,1.08-.43,2.17-.56,3.26-.06.49,0,1.02.11,1.52.15.75.65,1.22,1.38,1.39.69.16,1.35.12,1.99-.21,1.24-.64,2.11-1.69,2.96-2.77.82-1.06,1.24-2.22,1.37-3.6.31-3.36,1.31-6.53,2.8-9.54.92-1.85,2.05-3.56,3.48-5.03,2.16-2.22,4.74-3.64,7.82-3.91.97-.08,1.95-.09,2.9.21,1.15.35,2.09,1,2.76,2.05.07.12.16.23.3.43"/>
  <path class="cls-1" d="M81.15,6.53c-.1-2.42,2.03-4.51,4.38-4.47,2.15.04,4.34,1.76,4.35,4.48.01,2.58-1.99,4.46-4.42,4.45-2.58,0-4.4-2.16-4.31-4.46"/>
</svg>