<?xml version="1.0" encoding="UTF-8"?>
<svg id="Layer_1" data-name="Layer 1" xmlns="http://www.w3.org/2000/svg" viewBox="0 0 142.96 25.05">
  <defs>
    <style>
      .cls-1 {
        fill: #ffffff;
        stroke-width: 0px;
      }
    </style>
  </defs>
  <path class="cls-1" d="M79.61,10.73c2.94,0,5.8.11,8.64-.03,2.62-.14,4.2-3.05,2.94-5.13-.84-1.37-2.12-1.98-3.71-1.99-2.45,0-4.9,0-7.35,0-.16,0-.32.03-.52.04v7.1ZM95.51,24.9c-1.36,0-2.59.02-3.82-.03-.18,0-.42-.33-.52-.56-1.25-2.99-2.51-5.98-3.7-8.99-.31-.78-.72-1.1-1.58-1.07-2.06.06-4.13.02-6.32.02v.85c0,3.01-.02,6.02.01,9.02,0,.59-.17.8-.76.76-.78-.05-1.57-.05-2.35,0-.66.05-.78-.21-.78-.81.02-6.99.01-13.98.01-20.96V.16c.28-.02.46-.05.65-.05,3.9,0,7.8-.03,11.7,0,3.27.04,6.26,2.21,7.18,5.12.98,3.11-.43,6.38-3.52,8-.62.33-.73.56-.45,1.22,1.37,3.22,2.67,6.47,3.99,9.71.08.19.14.39.26.73"/>
  <path class="cls-1" d="M10.87,17.99c1.67,0,3.09,0,4.52,0,.41,0,.66-.06.66-.57-.02-3.38.02-6.77-.02-10.15-.02-1.89-1.64-3.46-3.53-3.5-1.61-.03-3.23-.04-4.84,0-2.3.05-3.77,1.53-3.78,3.83-.01,3.43.02,6.86.07,10.3.03,1.85,1.31,3.33,3.16,3.53,1.39.15,2.8.12,4.2.11.81,0,1.63-.14,2.44-.21.02-.07.04-.14.06-.21-.93-.99-1.85-1.98-2.93-3.13M22.66,25.03c-1.77,0-3.33.05-4.88-.03-.35-.02-.65-.51-1.01-.72-.2-.12-.49-.23-.71-.19-1.36.29-2.7.81-4.07.89-1.96.12-3.95.08-5.89-.18C2.56,24.33.02,21.29,0,17.75c-.01-3.39,0-6.77,0-10.16C0,4.06,2.45.95,5.98.44c2.21-.32,4.5-.2,6.75-.18,3.17.02,6.05,2.24,6.94,5.27.16.56.26,1.16.26,1.74.03,3.39.07,6.77,0,10.16-.02,1.11-.4,2.21-.56,3.33-.04.32.04.75.24.98.93,1.07,1.92,2.09,3.04,3.29"/>
  <path class="cls-1" d="M104.31,3.59c0,2.3,0,4.5,0,6.7,0,.45.26.48.6.48,2.47,0,4.94.03,7.41-.02,1.31-.02,2.47-.47,3.31-1.54.76-.97.98-2.06.51-3.2-.57-1.37-1.65-2.27-3.13-2.36-2.39-.14-4.79-.1-7.19-.13-.47,0-.94.04-1.51.07M100.49.08h.8c3.73,0,7.47,0,11.2,0,2.04,0,3.81.68,5.36,1.98,3.37,2.84,3.26,7.69-.25,10.39-.58.45-1.22.81-1.89,1.25,1.52,3.71,3.04,7.45,4.58,11.22-1.29,0-2.5.04-3.7-.03-.25-.01-.58-.38-.69-.66-1.25-2.96-2.49-5.93-3.68-8.92-.31-.78-.74-1.09-1.59-1.07-2.06.05-4.13.02-6.28.02v10.61h-3.85V.08Z"/>
  <path class="cls-1" d="M60.42,5.86c-1.2,2.92-2.32,5.65-3.47,8.44h6.92c-1.14-2.8-2.26-5.52-3.45-8.44M48.4,24.98c.72-1.78,1.37-3.4,2.03-5.02,2.56-6.29,5.13-12.57,7.67-18.86.29-.71.62-1.09,1.45-1,.7.08,1.43.05,2.14,0,.45-.03.66.13.83.55,2.02,4.97,4.07,9.94,6.11,14.9,1.18,2.87,2.35,5.73,3.53,8.6.1.24.18.48.29.78-1.31,0-2.54.03-3.77-.03-.23-.01-.54-.35-.65-.61-.79-1.85-1.57-3.7-2.29-5.58-.25-.66-.62-.9-1.32-.89-2.66.03-5.33.03-7.99,0-.68,0-1.03.23-1.27.86-.71,1.85-1.49,3.68-2.21,5.53-.21.54-.5.79-1.11.76-1.09-.04-2.18-.01-3.42-.01"/>
  <path class="cls-1" d="M29.81.15v5.4c0,3.88,0,7.77,0,11.65,0,2.76,1.55,4.32,4.33,4.33,1.4,0,2.81.08,4.2-.08,2.27-.25,3.66-1.98,3.63-4.25-.04-3.72-.08-7.43-.09-11.15,0-1.77.04-3.55.06-5.32,0-.16.03-.32.06-.53h3.8c0,1.12,0,2.23,0,3.33,0,4.57,0,9.14.03,13.71.03,4.13-2.7,7.27-6.96,7.64-2.19.19-4.43.14-6.61-.1-3.87-.44-6.37-3.44-6.37-7.31,0-5.49-.01-10.99-.04-16.48,0-.63.16-.89.84-.85,1.01.06,2.03.02,3.13.02"/>
  <path class="cls-1" d="M134.28,24.9c-1.21,0-2.35.03-3.48-.04-.17-.01-.45-.5-.45-.78-.04-1.85-.02-3.69-.02-5.54,0-1.35.05-2.7-.04-4.05-.04-.63-.21-1.33-.55-1.85-2.48-3.92-5.02-7.81-7.55-11.7-.16-.26-.32-.52-.57-.92,1.22,0,2.3.04,3.38-.01.92-.04,1.43.38,1.91,1.14,1.53,2.45,3.14,4.85,4.73,7.27.2.31.42.61.69.99.6-.92,1.15-1.75,1.69-2.58,1.32-2.05,2.66-4.09,3.96-6.16.3-.48.65-.69,1.21-.67,1.2.03,2.4,0,3.77,0-.22.36-.34.58-.47.78-2.54,3.94-5.1,7.87-7.61,11.84-.35.56-.56,1.31-.57,1.98-.06,3.15-.03,6.3-.03,9.45v.84Z"/>
</svg>