<?xml version="1.0" encoding="UTF-8"?>
<svg id="Layer_1" data-name="Layer 1" xmlns="http://www.w3.org/2000/svg" viewBox="0 0 188.18 37.16">
  <defs>
    <style>
      .cls-1 {
        fill: #ffffff;
        stroke-width: 0px;
      }
    </style>
  </defs>
  <path class="cls-1" d="M42.9,37.03c-2.65,0-5.31-.01-7.96,0-.72,0-1.04-.1-.55-.85.53-.82,1.05-1.66,1.5-2.52.33-.63.87-.5,1.38-.5,4.2,0,8.41,0,12.61,0,2.67-.01,5.07-1.58,5.99-3.91,1.04-2.62.51-4.96-1.4-6.99-.95-1.01-2.17-1.58-3.52-1.82-1.22-.22-1.49-.56-1.25-1.83.87-4.64-.46-8.57-4.01-11.64-5.73-4.98-14.53-3.42-18.35,3.16-1.57,2.69-2.61,3.07-5.48,1.99-4.25-1.6-8.78,1.35-9.04,5.89-.08,1.42-.37,1.68-1.8,1.68-3.88-.01-6.99,2.87-6.99,6.49,0,3.85,2.9,6.73,6.84,6.77,1.8.02,3.59.02,5.39,0,.66,0,.85.18.44.76-.05.07-.07.15-.12.21-.71.98-.91,2.73-1.97,2.95-1.91.4-3.99.36-5.96-.03C4.03,35.95.38,31.83.04,27.51c-.5-6.37,3.42-10.16,7.33-11.35,1.15-.35,1.77-.86,2.23-2.02,1.9-4.85,7.54-7.63,12.56-6.17,1.21.35,1.66,0,2.29-.91C28.31,1.58,33.74-.73,40.28.2c6.32.9,10.63,4.67,12.87,10.67.61,1.65.96,3.39.82,5.15-.07.92.28,1.36,1.03,1.8,5.8,3.49,7.04,10.42,2.74,15.6-1.88,2.26-4.39,3.49-7.36,3.57-2.49.06-4.98.01-7.47.01h0Z"/>
  <path class="cls-1" d="M38.27,16.44c2.9,0,5.79.03,8.69-.02.78-.01,1.04.24.9.97-.02.08-.01.16-.02.24-.31,2.55-.64,3.03-3.15,2.75-2.63-.29-4.06.59-5.29,2.97-2.24,4.37-4.93,8.52-7.39,12.78-.37.64-.77.95-1.54.9-.89-.06-1.8-.07-2.69,0-.93.07-.96-.22-.55-.92,2.31-3.97,4.6-7.96,6.9-11.94.57-.99,1.13-1.98,1.7-2.96.3-.52.28-.84-.44-.78-.12,0-.25.01-.37,0-2.68-.53-4.22.54-5.48,3.01-2.26,4.41-4.96,8.59-7.44,12.89-.31.54-.67.74-1.27.71-.85-.04-1.71,0-2.57-.01-1.32,0-1.33,0-.69-1.13,1.64-2.86,3.28-5.72,4.92-8.57,1.89-3.28,3.82-6.54,5.66-9.84.43-.77.88-1.09,1.79-1.07,2.77.07,5.55.03,8.32.03h0Z"/>
  <path class="cls-1" d="M109.88,30.83c-1.51,0-3.02-.04-4.53.01-.82.03-.99-.19-.73-.97,1.94-5.74,3.86-11.5,5.76-17.25.19-.57.49-.74,1.07-.74,3.06.02,6.12.03,9.18,0,.8,0,.85.26.64.93-.79,2.51-.77,2.51-3.46,2.52-1.14,0-2.29.08-3.42-.02-1.03-.1-1.41.35-1.69,1.26-.75,2.5-.79,2.49,1.82,2.49,1.22,0,2.45,0,3.67,0,.51,0,.83.08.52.68-.02.03-.03.08-.04.11q-.76,2.67-3.52,2.67c-1.14,0-2.29.03-3.43,0-.66-.03-1.04.13-1.23.85-.28,1.06-.66,2.1-1.07,3.11-.33.82-.03.98.74.96,1.8-.04,3.59,0,5.39-.03.59,0,.87.12.59.75-.03.07-.06.15-.08.23q-.78,2.46-3.35,2.46c-.94,0-1.88,0-2.82,0h0Z"/>
  <path class="cls-1" d="M84.36,11.88c-2.38,2.63-4.29,5.17-6.63,7.22-3.17,2.78-4.42,6.44-5.49,10.23-.36,1.29-.96,1.63-2.22,1.57-1.96-.1-1.97-.01-1.38-1.83.33-1.01.58-2.05,1.01-3,1.04-2.29,1.11-4.55.31-6.95-.65-1.96-1.02-4.02-1.54-6.02-.21-.8-.22-1.26.88-1.24,2.86.04,2.87-.01,3.53,2.75.22.91.43,1.82.62,2.73.19.88.49,1.18,1.22.35,1.46-1.64,3.01-3.21,4.43-4.88.62-.73,1.29-1.01,2.22-.94.87.07,1.76.01,3.02.01"/>
  <path class="cls-1" d="M99.75,30.87c-1.94,0-2.12.44-1.4-1.79.64-1.97,1.32-3.93,1.93-5.91.4-1.29-.17-1.86-1.49-1.6-1.3.25-1.87,1.24-2.27,2.33-.71,1.95-1.39,3.91-1.99,5.89-.26.87-.69,1.12-1.57,1.09-2.41-.06-2.4-.01-1.62-2.34,1.01-3,2.03-6.01,2.99-9.02.24-.74.58-1.04,1.37-1.01,1.53.05,3.05.02,4.59-.21,2.74-.42,4.49,1.63,3.74,4.31-.73,2.58-1.66,5.1-2.5,7.64-.35,1.07-1.25.43-1.79.62"/>
  <path class="cls-1" d="M133.86,18.65c-1.97,1.72-3.71,3.29-5.52,4.8-.72.6-.98,1.09-.47,2.03.8,1.46,1.38,3.04,2.1,4.54.33.68.14.81-.55.84-3.09.13-3.13.17-4.38-2.82-.42-1.02-.77-1.19-1.51-.33-.34.4-.85.66-1.17,1.07-1.73,2.23-4.06,2.37-6.77,1.92,1.66-1.46,3.23-2.84,4.8-4.22.46-.4.87-.89,1.39-1.19,1.31-.75,1.34-1.66.63-2.88-.57-.98-.9-2.09-1.41-3.11-.33-.65-.11-.78.5-.76.65.02,1.31.07,1.96-.01.93-.12,1.38.25,1.71,1.1.78,1.97.99,2.1,2.31.54,1.76-2.08,3.9-1.64,6.37-1.54"/>
  <path class="cls-1" d="M82.7,31.17c-2.27,0-3.58-.95-3.91-3.16-.12-.83.13-1.61.38-2.38.63-1.97,1.34-3.93,1.92-5.91.26-.89.65-1.23,1.62-1.2,2.36.07,2.37.03,1.63,2.32-.52,1.62-1.13,3.22-1.61,4.86-.22.73-.62,1.63.4,2.14.74.37,2.04-.11,2.57-.93.56-.87.77-1.88,1.11-2.83.52-1.46,1.04-2.91,1.47-4.39.26-.9.7-1.2,1.64-1.17,2.31.07,2.33.02,1.61,2.17-.72,2.16-1.42,4.32-2.24,6.44-1.08,2.78-3.21,4.09-6.59,4.04"/>
  <path class="cls-1" d="M170.72,26.35c.33,1.51.8,1.9,1.71,1.55.4-.16.69-.41.77-.86.08-.48-.16-.75-.54-.98-.6-.35-1.19-.71-1.76-1.1-.85-.59-1.15-1.45-1.01-2.45.39-2.86,3.33-4.81,6.13-4.1.54.13.99.38,1.37.75,1.16,1.15,1.08,1.72-.33,2.47-.57.3-1.14.62-1.72.93-.2-.33-.33-.7-.58-.92-.4-.34-.87-.23-1.19.15-.38.45.06.62.36.81.24.15.5.28.75.41,2.54,1.41,3.02,3.79,1.22,6.1-1.38,1.77-4.2,2.59-6.3,1.82-.54-.2-1.01-.5-1.36-.98-1.11-1.51-.97-2.14.72-2.87.56-.24,1.13-.46,1.76-.72"/>
  <path class="cls-1" d="M185.23,23.38c2.41,1.68,2.07,5.18-.7,6.91-1.45.91-3.05,1.08-4.7.71-.61-.14-1.13-.42-1.55-.91-1.25-1.46-1.08-2.31.64-3.04.3-.13.61-.24.9-.38.57-.27.98-.39,1.04.5.03.55.44.86,1.02.82.63-.04,1.07-.34,1.26-.96.2-.65-.31-.83-.72-1.08-.18-.1-.35-.21-.52-.32-2.44-1.43-2.77-3.61-.86-5.72,1.85-2.05,5.15-2.26,6.57-.42.85,1.11.81,1.31-.42,2-.49.28-.97.58-1.46.87-.6.44-.85-.13-1.2-.42-.17-.13-.39-.18-.54,0-.17.21-.01.38.16.49.4.26.87.44,1.09.93"/>
  <path class="cls-1" d="M25.57,18.01c-1.33,2.33-2.65,4.67-4,6.99-.67,1.15-1.44,1.16-2.11.03-1.39-2.36-2.79-4.72-4.12-7.12-.31-.57-.4-1.41.63-1.42,3.18-.02,6.36.03,9.53.06.57.46.41.95.07,1.46"/>
  <path class="cls-1" d="M151.37,18.55c1.18,0,2.27.17,3.34-.22.33-.12.73-.09,1.09-.05.69.09,1.55.13,1.84.77.31.66-.51,1.05-.89,1.53-.2.25-.37.53-.58.77-.37.44-.59.93-1.42.43-.94-.57-2.26.09-2.93,1.32-1.08,1.97-1.54,4.19-2.33,6.28-.19.51-.09,1.31-.76,1.4-.96.13-1.95.05-2.92-.02-.34-.03-.2-.37-.12-.59,1.22-3.66,2.45-7.33,3.68-10.99.4-1.19,1.42-.35,2-.64"/>
  <path class="cls-1" d="M138.72,27.91c-1.72.35-2.78-.63-2.54-2.36.31-2.29,2.07-4.08,4-4.07,1.3,0,1.96.64,2,1.92.06,1.9-1.66,4.15-3.45,4.51M140.91,18.33c-1.61.26-3.17.26-4.76.2-.85-.03-1.19.27-1.45,1.06-1.67,5.1-3.39,10.18-5.09,15.27-.72,2.18-.71,2.13,1.64,2.18.94.02,1.35-.26,1.61-1.16.55-1.91,1.24-3.78,1.91-5.79,2.1,1.31,4.27,1.53,6.24.42,2.98-1.67,4.67-4.28,4.82-7.71.13-2.92-2.04-4.95-4.92-4.48"/>
  <path class="cls-1" d="M164.13,22.48c-.07.62-.65.31-.99.32-.92.04-1.83.01-3.04.01.96-1.18,1.93-1.56,3.1-1.41.59.08,1.01.47.94,1.07M166.87,19.89c-1.06-1.61-2.77-1.82-4.47-1.55-4.21.67-6.91,3.76-7.24,8.02-.19,2.46,1.24,4.38,3.48,4.72,2.94.44,5.35-.6,7.28-2.82.22-.25.48-.5.04-.79-.64-.43-1.23-1.02-1.94-1.25-.59-.19-.82.66-1.28.96-.91.6-1.86,1.03-2.98.65-.79-.26-1.05-.93-.95-1.65.11-.75.78-.36,1.19-.38.93-.06,1.87-.02,2.81-.02h0c1.1,0,2.2,0,3.3,0,.36,0,.76.05.93-.39.68-1.86.98-3.74-.18-5.5"/>
</svg>