<?xml version="1.0" encoding="UTF-8"?>
<svg id="Layer_1" data-name="Layer 1" xmlns="http://www.w3.org/2000/svg" viewBox="0 0 115.81 95.48">
  <defs>
    <style>
      .cls-1 {
        fill: #ffffff;
        stroke-width: 0px;
      }
    </style>
  </defs>
  <path class="cls-1" d="M53.05,59.36c.33-.61.62-1.15.91-1.68.62-1.16,1.25-2.32,1.88-3.48.62-1.16,1.23-2.33,1.85-3.49.33-.61.66-1.22.98-1.83.49-.91.97-1.82,1.46-2.72.38-.7.79-1.4,1.17-2.11.6-1.12,1.18-2.25,1.77-3.37.08-.16.19-.3.27-.46.44-.82.87-1.65,1.31-2.47.4-.75.82-1.5,1.22-2.25.44-.82.87-1.65,1.32-2.47.17-.31.35-.61.51-.89-2.71-5.04-5.39-10.03-8.09-15.06.76-1.42,1.52-2.83,2.32-4.33,3.49,6.5,6.94,12.92,10.41,19.37-.35.66-.71,1.34-1.08,2.02-.48.89-.95,1.79-1.44,2.68-.39.72-.8,1.43-1.18,2.15-.59,1.11-1.16,2.22-1.75,3.33-.44.84-.92,1.66-1.37,2.49-.65,1.21-1.28,2.42-1.93,3.62-.37.69-.77,1.37-1.15,2.07-.61,1.15-1.21,2.3-1.82,3.45-.09.17-.2.33-.29.5-.81,1.51-1.62,3.03-2.44,4.54-.73,1.36-1.46,2.72-2.19,4.09-.17.33-.36.65-.52.98-.1.22-.29.18-.46.18-1.17,0-2.33,0-3.5,0-.08,0-.16,0-.29-.02-5.72-10.69-11.45-21.38-17.19-32.1.62-1.14,1.23-2.25,1.84-3.37.62-1.16,1.23-2.33,1.85-3.49.64-1.19,1.3-2.37,1.95-3.56.69-1.29,1.36-2.59,2.05-3.88.62-1.16,1.25-2.32,1.88-3.48.62-1.15,1.22-2.3,1.83-3.45.4-.75.83-1.49,1.23-2.24.4-.75.79-1.51,1.19-2.26.4-.74.82-1.46,1.21-2.2.6-1.12,1.18-2.25,1.77-3.37.15-.28.32-.55.48-.82h4.62c-.34.63-.65,1.22-.97,1.82-.39.72-.77,1.45-1.15,2.17-.33.62-.67,1.25-1.01,1.87-.42.78-.83,1.56-1.25,2.34-.45.83-.93,1.66-1.38,2.49-.6,1.13-1.18,2.28-1.78,3.41-.44.82-.9,1.63-1.35,2.45-.61,1.13-1.2,2.27-1.81,3.41-.42.78-.86,1.55-1.28,2.33-.45.84-.88,1.68-1.34,2.52-.62,1.15-1.25,2.28-1.87,3.43-.54.99-1.06,1.98-1.59,2.98-.15.28-.28.58-.45.93.25.47.52.99.8,1.52.41.77.81,1.53,1.23,2.29.4.74.81,1.47,1.21,2.21.39.72.76,1.45,1.15,2.17.44.82.91,1.63,1.35,2.45.71,1.32,1.4,2.64,2.1,3.96.84,1.57,1.7,3.14,2.55,4.71.69,1.29,1.37,2.59,2.06,3.88.6,1.12,1.21,2.23,1.81,3.35.11.21.22.41.36.69"/>
  <path class="cls-1" d="M53.85,51.45c-3.48-6.47-6.93-12.89-10.4-19.35.1-.18.22-.37.33-.57.65-1.18,1.3-2.36,1.94-3.55.85-1.6,1.69-3.21,2.54-4.82.69-1.29,1.41-2.57,2.1-3.86.59-1.11,1.16-2.22,1.75-3.33.44-.82.9-1.63,1.34-2.45.61-1.13,1.21-2.27,1.81-3.4.37-.69.77-1.37,1.14-2.07.4-.74.78-1.48,1.17-2.22.39-.72.78-1.45,1.17-2.17.39-.74.78-1.48,1.17-2.21.26-.48.54-.95.82-1.45h4.08c.56,1.05,1.12,2.1,1.68,3.14.61,1.13,1.22,2.26,1.83,3.4.61,1.15,1.21,2.3,1.83,3.45.68,1.26,1.38,2.51,2.06,3.77.41.76.8,1.54,1.21,2.31.4.75.82,1.49,1.22,2.24.44.82.87,1.64,1.31,2.47.6,1.12,1.21,2.23,1.81,3.35.6,1.14,1.19,2.28,1.8,3.42.4.74.82,1.46,1.22,2.2.42.78.82,1.57,1.25,2.4-.52.95-1.04,1.9-1.56,2.87-.38.71-.73,1.43-1.11,2.13-.43.81-.89,1.61-1.33,2.41-.62,1.16-1.24,2.33-1.86,3.49-.37.69-.76,1.38-1.13,2.08-.43.81-.86,1.62-1.29,2.43-.41.75-.83,1.49-1.23,2.24-.42.78-.82,1.57-1.24,2.34-.85,1.59-1.72,3.16-2.57,4.75-.68,1.26-1.34,2.53-2.01,3.8-.37.69-.76,1.38-1.14,2.07-.22.39-.42.79-.63,1.2-.1.19-.22.29-.46.29-1.38-.01-2.76,0-4.14,0-.04,0-.09-.02-.16-.04.25-.5.49-.99.75-1.46.72-1.35,1.45-2.69,2.17-4.04.41-.75.83-1.49,1.23-2.25.36-.68.71-1.36,1.06-2.04.31-.58.63-1.16.94-1.74.5-.93,1-1.87,1.51-2.8.38-.69.77-1.37,1.15-2.07.39-.72.76-1.45,1.15-2.18.41-.77.84-1.52,1.25-2.29.36-.67.69-1.34,1.04-2.01.41-.77.84-1.52,1.25-2.29.39-.74.77-1.48,1.17-2.21.4-.74.81-1.46,1.21-2.2.44-.82.87-1.65,1.32-2.49-.59-1.08-1.18-2.15-1.75-3.22-.88-1.65-1.75-3.3-2.63-4.95-.38-.71-.79-1.4-1.17-2.11-.61-1.13-1.2-2.28-1.8-3.41-.44-.82-.89-1.64-1.33-2.46-.32-.58-.64-1.15-.95-1.73-.49-.91-.96-1.82-1.45-2.72-.8-1.49-1.62-2.97-2.42-4.46-.33-.61-.63-1.23-.95-1.85-.04-.08-.11-.15-.19-.26-.09.15-.17.26-.24.38-.42.78-.82,1.56-1.24,2.34-.41.76-.84,1.52-1.25,2.28-.43.79-.84,1.59-1.26,2.39-.85,1.59-1.72,3.16-2.57,4.75-.37.69-.72,1.4-1.1,2.1-.43.79-.87,1.58-1.3,2.37-.45.83-.9,1.67-1.34,2.51-.41.78-.81,1.57-1.22,2.34-.43.79-.88,1.57-1.31,2.36-.54,1-1.07,2.02-1.62,3.02-.15.28-.13.51.01.77.63,1.16,1.26,2.31,1.89,3.47.85,1.55,1.69,3.11,2.53,4.67.53.98,1.05,1.95,1.58,2.93.54,1.01,1.06,2.02,1.62,3.01.23.4.19.74,0,1.11-.36.65-.71,1.3-1.07,1.95-.28.51-.55,1.02-.83,1.53-.04.07-.09.13-.17.25"/>
  <path class="cls-1" d="M46.42,89.99v-8.79c.38-.12,2.76-.15,3.7-.07.1.34.13,13.37.04,14.11-.05.01-.12.04-.18.04-1.08,0-2.17,0-3.25,0-.2,0-.34-.06-.47-.2-.4-.44-.82-.87-1.22-1.32-.33-.37-.65-.76-.99-1.13-1.57-1.73-3.14-3.46-4.72-5.19-.33-.36-.67-.72-1.1-1.05v8.86h-3.74v-14.12c.12-.01.25-.03.37-.03,1.02,0,2.04,0,3.05,0,.23,0,.39.07.54.24.7.8,1.42,1.59,2.14,2.38.59.64,1.19,1.27,1.78,1.91,1,1.1,1.98,2.2,2.98,3.3.32.36.65.72.98,1.07.03,0,.06-.01.1-.02"/>
  <path class="cls-1" d="M3.76,87.98c.08.03.09.04.1.04,1.72,0,3.44.02,5.16.01.46,0,.83-.2,1.08-.63.5-.85.48-1.73.11-2.59-.22-.52-.68-.83-1.33-.82-1.58.02-3.15,0-4.73,0-.14,0-.28.02-.41.03v3.95ZM12.1,90.14c1.01,1.7,2.01,3.38,3.04,5.11h-4.35c-.86-1.44-1.71-2.87-2.57-4.31H3.75v4.31H0v-14.15h.5c2.89,0,5.78,0,8.67,0,1.04,0,2.07.17,3,.61,1.45.68,2.28,1.83,2.4,3.42.04.49,0,.99.01,1.49.01.45-.17.84-.37,1.23-.41.8-.99,1.47-1.74,1.99-.11.07-.2.16-.37.29"/>
  <path class="cls-1" d="M61.24,84.06s-.07-.02-.1-.03c-.8,2-1.6,4-2.41,6.01h4.91c-.81-2.02-1.61-4-2.4-5.98M58.64,81.12h5.04c.28.59.56,1.17.82,1.75.49,1.1.98,2.2,1.47,3.3.44.98.88,1.96,1.32,2.94.64,1.41,1.28,2.81,1.91,4.21.28.63.56,1.26.83,1.89-.38.1-3.1.13-4.3.05-.31-.78-.64-1.58-.96-2.37h-7.18c-.32.78-.65,1.56-.98,2.37h-4.28c.04-.11.06-.22.1-.32.63-1.39,1.27-2.77,1.9-4.16.79-1.75,1.58-3.51,2.37-5.26.49-1.08.98-2.16,1.46-3.24.17-.38.32-.77.48-1.16"/>
  <path class="cls-1" d="M18.54,81.12h12.36v2.87h-8.51c-.12.37-.14,1.97-.05,2.71.62.06,1.25.02,1.89.03.64,0,1.28,0,1.92,0h3.86v2.85h-7.61c-.13.38-.14,2.32-.03,2.84h8.66v2.84h-12.47c-.1-.35-.14-13.35-.04-14.14"/>
  <path class="cls-1" d="M71.85,81.13h3.74v.54c0,2.91,0,5.82,0,8.73,0,.54.23.91.64,1.22.57.44,1.25.68,1.94.75.94.1,1.91.16,2.83-.16.46-.16.92-.36,1.33-.61.37-.23.53-.64.58-1.07.01-.13,0-.26,0-.39v-8.96c.38-.1,2.79-.13,3.73-.05.01.11.04.23.04.36,0,3.08,0,6.17,0,9.26,0,.64-.09,1.27-.36,1.87-.45.98-1.2,1.67-2.19,2.08-1.31.55-2.68.82-4.11.78-.7-.02-1.41,0-2.12,0-1.1,0-2.13-.26-3.14-.66-.77-.31-1.45-.73-1.98-1.37-.57-.69-.92-1.49-.93-2.38-.02-3.23,0-6.46,0-9.69,0-.08.02-.15.03-.25"/>
  <path class="cls-1" d="M115.81,81.14v2.85h-5.58c0,.66,0,1.28-.01,1.9,0,.63,0,1.25,0,1.88v7.49h-3.75v-11.26c-1.88,0-3.73,0-5.6,0v-2.82c.35-.1,13.61-.15,14.95-.05"/>
  <path class="cls-1" d="M102.7,92.42v2.83h-11.89c-.09-.35-.12-13.39-.03-14.11h3.71v11.27c1.4.02,2.75,0,4.11,0,1.34,0,2.69,0,4.1,0"/>
</svg>