<?xml version="1.0" encoding="UTF-8"?>
<svg id="Layer_1" data-name="Layer 1" xmlns="http://www.w3.org/2000/svg" viewBox="0 0 125.6 92.1">
  <defs>
    <style>
      .cls-1 {
        fill: #ffffff;
        stroke-width: 0px;
      }
    </style>
  </defs>
  <path class="cls-1" d="M49.52,29.28c-9.92-.06-18.5-9.28-17.86-18.82.17-2.58,1.25-3.25,3.62-2.21,7.33,3.22,13.15,8.4,18.36,14.34.67.76,1.35,1.52,1.97,2.32.92,1.19.65,2.43-.68,3.13-1.79.94-3.72,1.33-5.4,1.25"/>
  <path class="cls-1" d="M76.75,33.48c9.43.08,17.92,8.8,17.74,18.02,0,.53-.04,1.07-.13,1.59-.31,1.75-1.41,2.35-3.07,1.64-4.36-1.85-8.25-4.45-11.82-7.53-3.16-2.73-5.98-5.8-8.67-8.98-1.35-1.59-1.03-2.89.92-3.75,1.67-.73,3.41-1.07,5.03-1"/>
  <path class="cls-1" d="M31.69,51.21c-.01-10.26,10.47-19.27,20.28-17.45,1.01.19,1.97.49,2.88.95,1.42.73,1.76,1.99.74,3.22-5.68,6.81-11.93,12.94-20.22,16.58-2.37,1.04-3.46.41-3.67-2.14-.03-.38,0-.77,0-1.16"/>
  <path class="cls-1" d="M76.73,29.26c-1.92.02-3.76-.35-5.47-1.23-1.29-.66-1.68-1.93-.8-3.01,5.68-6.9,12.01-13.03,20.32-16.74,2.32-1.03,3.55-.36,3.62,2.22.19,7.6-3.52,12.96-9.9,16.68-2.38,1.39-5,2.05-7.77,2.07"/>
  <path class="cls-1" d="M84.85.16c1.58.1,3.01.68,4.34,1.48,1.56.94,1.56,2.78-.07,3.54-7.88,3.67-14.18,9.29-19.81,15.78-.16.18-.33.36-.49.54-.53.59-1.18.84-1.96.63-.83-.22-1.27-.8-1.45-1.63-.61-2.88-.35-5.71.78-8.39,2.75-6.55,7.43-10.82,14.63-11.96,1.34.22,2.68.19,4.02.02"/>
  <path class="cls-1" d="M43.07.02c10.11.02,18.85,9.75,17.75,19.4-.12,1.07-.21,2.16-1.46,2.59-1.27.43-1.97-.41-2.68-1.23-5.09-5.83-10.7-11.03-17.65-14.6-.6-.31-1.21-.61-1.82-.89-.81-.37-1.37-.93-1.38-1.86-.01-.93.55-1.51,1.31-1.93C39.08.44,41.18-.04,43.07.02"/>
  <path class="cls-1" d="M43.07,62.81c-1.81-.02-3.96-.44-5.96-1.56-.79-.45-1.3-1.05-1.26-1.95.04-.83.51-1.38,1.3-1.75,7.42-3.44,13.47-8.64,18.82-14.73.06-.07.12-.15.19-.22.93-.92,1.61-2.41,3.29-1.8,1.64.59,1.44,2.21,1.47,3.49.18,6.67-2.95,11.65-8.2,15.43-2.73,1.96-5.83,2.99-9.66,3.08"/>
  <path class="cls-1" d="M82.27,62.75c-8.79-.27-17.09-8.69-17.1-17.7,0-.82.14-1.63.23-2.45.1-.81.39-1.52,1.24-1.79.91-.29,1.68-.06,2.33.69,2.62,2.98,5.34,5.86,8.35,8.45,3.43,2.94,7.14,5.45,11.22,7.39.86.41,1.64.83,1.67,1.95.03,1.17-.74,1.7-1.64,2.15-1.99,1-4.11,1.36-6.31,1.3"/>
  <path class="cls-1" d="M82.1,82.21c0-2.47,0-4.94,0-7.41,0-.72.07-1.39.83-1.69.79-.3,1.25.25,1.7.77,2.43,2.83,4.86,5.65,7.31,8.46.41.47.72,1.32,1.56,1.03.83-.29.61-1.11.62-1.76.01-2.18.02-4.36,0-6.53-.01-1.11.36-1.98,1.56-2.02,1.31-.04,1.69.89,1.69,2.05,0,4.94,0,9.87,0,14.81,0,.72-.08,1.39-.82,1.7-.78.31-1.26-.21-1.72-.74-2.49-2.9-4.99-5.8-7.49-8.68-.36-.41-.66-1.1-1.37-.84-.74.27-.65.99-.65,1.62,0,2.28,0,4.55,0,6.83,0,1.1-.34,1.95-1.62,1.94-1.27-.01-1.59-.88-1.59-1.97,0-2.52,0-5.03,0-7.55"/>
  <path class="cls-1" d="M67.28,82.5c0-2.42-.02-4.84,0-7.26.02-1.66.53-2.17,2.17-2.18,2.57-.02,5.13,0,7.7,0,1.09,0,1.97.28,1.98,1.56.01,1.28-.84,1.61-1.94,1.61-1.6,0-3.2.05-4.79-.02-1.3-.05-1.9.5-1.87,1.78,0,.48-.02.97.01,1.45.06.98.55,1.49,1.58,1.47,1.31-.03,2.61,0,3.92,0,1.06,0,1.85.38,1.88,1.53.03,1.25-.8,1.64-1.92,1.63-1.26,0-2.52.03-3.78,0-1.18-.04-1.68.54-1.7,1.66,0,.48-.01.97,0,1.45.04,1.05.54,1.58,1.64,1.56,1.69-.04,3.39,0,5.08-.01,1.05,0,1.84.35,1.87,1.53.03,1.28-.8,1.63-1.91,1.63-2.66,0-5.32,0-7.99,0-1.32,0-1.96-.65-1.95-1.96,0-2.47,0-4.94,0-7.4"/>
  <path class="cls-1" d="M9.14,92.1c-3.8-.03-7.18-2.45-8.51-6.11-1.45-4.01-.34-8.37,2.82-11.08,2.83-2.43,6.89-2.83,10.15-.99.64.36,1.28.72,1.38,1.56.08.67-.07,1.26-.63,1.67-.68.51-1.33.31-2.02-.06-3.83-2.07-7.97-.29-8.92,3.89-.6,2.64.21,4.91,2.36,6.57,2,1.54,4.18,1.62,6.38.38,1-.57,1.93-.76,2.63.38.56.91.11,1.92-1.07,2.61-1.41.82-2.94,1.21-4.57,1.19"/>
  <path class="cls-1" d="M37.65,82.46c0-2.37-.01-4.74,0-7.12,0-1.83.42-2.24,2.2-2.25,2.57,0,5.13,0,7.7,0,1.1,0,1.96.31,1.95,1.59-.01,1.29-.88,1.57-1.98,1.55-1.6-.02-3.2.04-4.79-.02-1.31-.04-1.87.56-1.84,1.82.01.49-.03.97.02,1.45.08.89.53,1.41,1.5,1.39,1.36-.03,2.71,0,4.07,0,1.07,0,1.82.43,1.83,1.58,0,1.17-.76,1.58-1.82,1.58-1.21,0-2.42,0-3.63,0-1.61.02-1.93.34-1.95,1.98-.02,1.26-.03,2.52,0,3.78.03,1.18-.33,2.06-1.66,2.04-1.24-.02-1.59-.87-1.58-1.98.02-2.47,0-4.94,0-7.41"/>
  <path class="cls-1" d="M52.47,82.65c0-2.47-.02-4.93,0-7.4.01-1.66.51-2.14,2.19-2.15,2.57-.01,5.13,0,7.69,0,1.09,0,1.96.29,1.95,1.58,0,1.29-.87,1.58-1.96,1.57-1.64-.01-3.29.02-4.93-.01-1.17-.03-1.7.53-1.71,1.65,0,.48-.01.97,0,1.45.03,1.05.51,1.6,1.63,1.56,1.31-.04,2.61,0,3.92,0,1.07,0,1.83.41,1.85,1.56.03,1.16-.72,1.6-1.8,1.61-1.31,0-2.61.03-3.92,0-1.17-.03-1.69.54-1.69,1.66,0,1.4-.02,2.81,0,4.21.02,1.13-.39,1.93-1.63,1.93-1.24,0-1.62-.82-1.62-1.94.02-2.42,0-4.84,0-7.26"/>
  <path class="cls-1" d="M100.92,74.23c.31-.94.99-1.28,1.9-1.06.88.21,1.24.89,1.24,1.74.01,5.03,0,10.06,0,15.09,0,.8-.34,1.47-1.12,1.68-.84.22-1.65.09-2-.91.1-5.51.15-11.02-.03-16.53"/>
  <path class="cls-1" d="M84.85.16c-1.34.38-2.68.42-4.02-.02,1.34-.18,2.68-.2,4.02.02"/>
  <path class="cls-1" d="M116.31,88.73c-3.26,0-5.92-2.81-5.94-6.25-.02-3.48,2.72-6.35,6.03-6.32,3.27.03,5.93,2.84,5.94,6.27.01,3.49-2.69,6.32-6.03,6.31M116.3,72.76c-5.04.02-9.14,4.36-9.15,9.68,0,5.43,4.08,9.69,9.26,9.66,5.09-.03,9.17-4.3,9.18-9.63.02-5.33-4.19-9.73-9.3-9.71"/>
  <path class="cls-1" d="M27.77,85.51c-.57.05-1.16,0-1.73.01q-3.16,0-1.9-2.88c.37-.84.68-1.7,1.11-2.5.49-.9,1.15-.89,1.6.01.66,1.33,1.23,2.71,1.79,4.09.31.77-.09,1.21-.87,1.27M33.99,88.93c-2.11-4.76-4.23-9.53-6.35-14.29-.32-.71-.61-1.5-1.54-1.53-1.02-.03-1.33.8-1.66,1.56-2.05,4.63-4.11,9.27-6.16,13.9-.82,1.85-.77,2.76.29,3.12,1.65.56,1.97-.81,2.38-1.85.42-1.07,1.09-1.46,2.22-1.38,1.21.08,2.42.07,3.63,0,2.18-.12,4.29-.28,4.95,2.59.16.7.94.93,1.69.68.68-.23.99-.73.97-1.47.06-.49-.22-.91-.41-1.34"/>
</svg>