<?xml version="1.0" encoding="UTF-8"?>
<svg id="Layer_1" data-name="Layer 1" xmlns="http://www.w3.org/2000/svg" viewBox="0 0 188.9 34.53">
  <defs>
    <style>
      .cls-1 {
        fill: #ffffff;
        stroke-width: 0px;
      }
    </style>
  </defs>
  <path class="cls-1" d="M0,16.27c.1-.76.18-1.53.31-2.29.42-2.43,1.26-4.71,2.58-6.79.79-1.24,1.72-2.37,2.83-3.34.98-.85,2.01-1.6,3.19-2.16.84-.39,1.7-.66,2.59-.91.88-.25,1.76-.24,2.73-.33-.4.16-.73.25-1.05.35-1.27.41-2.42,1.01-3.49,1.79-1.11.8-2.08,1.74-2.91,2.81-1.36,1.75-2.32,3.69-2.94,5.82-.66,2.27-.89,4.59-.72,6.94.15,2.1.64,4.12,1.48,6.06.57,1.32,1.28,2.56,2.17,3.69.72.91,1.53,1.74,2.46,2.46.95.73,1.96,1.34,3.07,1.81,1.04.45,2.11.68,3.23.83.66.09,1.31.1,1.97.1.16-.12.38,0,.54-.12,1.05-.06,2.05-.35,3.05-.69-.37.38-.83.6-1.27.83-.51.26-1.05.48-1.6.69-.97.37-2,.46-2.99.71h-1.99c-.77-.04-1.54-.16-2.28-.36-.93-.25-1.8-.62-2.64-1.09-.72-.4-1.4-.86-2.04-1.38-1.07-.87-2.02-1.85-2.83-2.97-1.1-1.53-1.94-3.18-2.52-4.96C.38,22.17,0,20.53.04,18.83c0-.05,0-.1-.04-.14v-2.43Z"/>
  <path class="cls-1" d="M175.53,20.36c.37-.63.69-1.17,1.01-1.71.62-1.09,1.24-2.18,1.86-3.26.72-1.27,1.45-2.53,2.18-3.8.71-1.23,1.42-2.46,2.14-3.69.27-.47.56-.94.82-1.42.07-.14.15-.16.28-.16,1.62,0,3.25,0,4.87-.01.23,0,.25.08.21.28-.67,3.56-1.34,7.12-2,10.68-.54,2.91-1.09,5.82-1.62,8.74-.05.26-.15.28-.36.28-1.21,0-2.41,0-3.62.01-.27,0-.29-.1-.25-.31.29-1.52.57-3.03.86-4.55.5-2.7,1-5.39,1.5-8.09.11-.61.23-1.22.27-1.87-.2.33-.41.66-.6.99-.74,1.27-1.47,2.55-2.2,3.82-.71,1.23-1.41,2.47-2.12,3.7-.63,1.08-1.26,2.16-1.89,3.24-.3.51-.61,1.03-.9,1.55-.07.14-.15.17-.28.17-1.09,0-2.19,0-3.28,0-.24,0-.25-.14-.28-.3-.39-2.04-.79-4.09-1.18-6.13-.45-2.36-.9-4.71-1.35-7.07-.02-.09-.06-.18-.11-.31-.83,4.46-1.65,8.88-2.47,13.31-.1.53-.21,1.05-.29,1.59-.03.19-.11.24-.29.24-1.03,0-2.07,0-3.1.01-.3,0-.24-.17-.21-.33.22-1.19.44-2.38.67-3.57.49-2.6.98-5.2,1.46-7.79.5-2.66.99-5.32,1.48-7.98.04-.22.13-.32.38-.31,1.81.01,3.62,0,5.42,0,.25,0,.34.07.38.3.51,2.72,1.03,5.43,1.55,8.15.35,1.83.7,3.65,1.07,5.59"/>
  <path class="cls-1" d="M6.65,13.91c.79-.26,1.59-.5,2.38-.77,1.25-.43,2.47-.93,3.69-1.45.87-.38,1.74-.8,2.57-1.27,1.03-.58,2.04-1.18,2.99-1.89.63-.47,1.26-.95,1.82-1.5.89-.86,1.73-1.77,2.17-2.97.27-.75.2-1.75-.75-2.38-.35-.23-.74-.33-1.16-.53.43-.14.82-.14,1.2-.17,1.04-.08,2.09-.14,3.13.01,1.53.22,2,1.21,1.71,2.56-.1.45-.28.88-.47,1.33.63-.05,1.25-.11,1.87-.16.78-.06,1.55-.03,2.31.16,1.51.38,2.19,1.37,1.96,2.93-.2,1.4-.82,2.61-1.8,3.73.28-.01.52-.02.75-.04.78-.09,1.53.02,2.27.28.74.26,1.26.98,1.33,1.85.07.93-.19,1.77-.62,2.57-.67,1.23-1.59,2.25-2.65,3.17-.96.83-1.98,1.59-3.07,2.24-.04.03-.09.05-.08.14.2.08.43.06.62,0,.81-.25,1.59-.1,2.36.16.4.14.66.64.63,1.18-.04.71-.36,1.31-.77,1.87-.71.97-1.64,1.69-2.67,2.31-1.16.7-2.37,1.3-3.64,1.8-.85.34-1.71.62-2.57.89-.66.21-1.34.27-1.99.46-.6.18-1.2.17-1.79.26.64-.36,1.32-.58,1.98-.89,1.13-.52,2.27-1.01,3.37-1.6.61-.33,1.21-.66,1.81-1,1.31-.75,2.42-1.7,3.14-3.04.43-.8.24-1.52-.72-1.89-.52-.2-.87.06-1.22.26-.38.22-.78.37-1.16.58-.47.26-1,.43-1.51.64-.93.38-1.88.7-2.85,1-.93.29-1.85.56-2.8.8-1.51.39-3.05.65-4.58.92-.92.16-1.83.23-2.75.3.63-.18,1.26-.34,1.88-.56,1.02-.36,2.08-.64,3.08-1.08.33-.15.68-.27,1.02-.39.95-.34,1.87-.75,2.79-1.16,1.18-.52,2.33-1.12,3.45-1.77.91-.53,1.8-1.09,2.63-1.74,1.21-.95,2.37-1.97,3.15-3.33.78-1.37,1.03-2.78.35-4.28-.85.75-1.68,1.5-2.6,2.15-.92.65-1.86,1.26-2.85,1.8-.82.45-1.65.85-2.49,1.24-1.18.54-2.4.98-3.64,1.36-1.1.34-2.22.62-3.34.89-.79.19-1.59.25-2.37.45-1.04.26-2.11.27-3.16.42-.62.08-1.23.18-1.85.19.13-.13.29-.2.48-.23.83-.14,1.62-.46,2.42-.69.87-.25,1.73-.56,2.58-.89,1.1-.42,2.19-.85,3.26-1.32.86-.38,1.71-.79,2.54-1.23,1.02-.54,2.04-1.11,2.99-1.77,1.12-.76,2.19-1.59,3.12-2.58,1.03-1.1,1.91-2.31,2.28-3.81.27-1.1.07-2.11-.7-2.98-.23-.26-.31-.25-.49.06-.44.77-1.02,1.44-1.69,2.04-.86.77-1.8,1.42-2.78,2.01-.63.38-1.27.75-1.95,1.06-1.11.52-2.23,1-3.39,1.4-.86.29-1.72.57-2.6.81-.78.21-1.58.32-2.35.53-.85.23-1.71.26-2.56.41-.54.1-1.07.21-1.63.15"/>
  <path class="cls-1" d="M51.02,13.12c-.21,1.11-.41,2.23-.62,3.34-.48,2.57-.96,5.15-1.44,7.72-.13.72-.27,1.44-.39,2.17-.04.23-.13.29-.36.29-1.02,0-2.04,0-3.06,0-.27,0-.31-.09-.26-.32.53-2.81,1.06-5.63,1.58-8.44.58-3.11,1.16-6.23,1.73-9.35.1-.55.21-1.11.31-1.66.03-.17.11-.22.27-.22,1.21,0,2.41,0,3.62-.01.14,0,.23.04.3.16,1.16,2.08,2.32,4.16,3.49,6.24,1.03,1.82,2.07,3.64,3.09,5.45.29.51.56,1.02.84,1.53.03.05.05.12.16.1.2-1.09.41-2.19.61-3.3.59-3.14,1.17-6.28,1.76-9.42.15-.8.16-.8.98-.8.84,0,1.67,0,2.51,0,.24,0,.33.05.28.3-.48,2.52-.95,5.05-1.42,7.58-.53,2.86-1.07,5.73-1.6,8.59-.2,1.07-.4,2.14-.6,3.21-.04.2-.1.31-.35.3-1.19-.01-2.39,0-3.58,0-.17,0-.25-.05-.33-.2-.79-1.44-1.59-2.87-2.39-4.3-.7-1.25-1.42-2.49-2.12-3.75-.77-1.38-1.53-2.77-2.29-4.15-.21-.37-.42-.73-.64-1.1-.03,0-.06,0-.08.01"/>
  <path class="cls-1" d="M92.36,14.86h6.96q.57,0,.46.56c-.12.6-.25,1.2-.34,1.8-.04.26-.14.31-.37.31-2.26,0-4.53,0-6.79,0-.29,0-.44.03-.5.39-.31,1.81-.66,3.61-1.01,5.41-.06.3.03.36.32.36,3.03-.02,6.05-.03,9.08-.03.13,0,.26,0,.42,0-.16.88-.32,1.72-.46,2.56-.04.23-.18.24-.36.24-1.71,0-3.42,0-5.13.01-1.3,0-2.61-.06-3.91.03-1.59.11-3.19.03-4.78.08-.29.01-.34-.06-.28-.35.8-4.24,1.59-8.49,2.38-12.74.41-2.19.82-4.38,1.21-6.57.05-.28.16-.34.43-.34,4.34,0,8.68,0,13.02-.03.33,0,.38.09.32.38-.15.68-.29,1.37-.39,2.06-.04.26-.14.3-.38.3-2.82,0-5.63,0-8.45,0-.31,0-.43.08-.49.4-.3,1.72-.63,3.44-.95,5.19"/>
  <path class="cls-1" d="M131.67,23.99c.79.05,1.58.08,2.36,0,.88-.1,1.77-.23,2.64-.44.88-.22,1.73-.55,2.59-.83.08-.03.18-.02.23-.1.04-.06.1-.09.15-.06.07.03.04.1.03.16-.17.89-.33,1.78-.5,2.67-.03.18-.14.29-.33.34-.94.25-1.87.53-2.83.73-2.21.45-4.43.47-6.66.35-1.02-.05-2.01-.29-2.96-.64-1.6-.58-2.92-1.56-3.81-3.02-.88-1.43-1.14-3.03-1.06-4.68.1-1.93.53-3.78,1.34-5.53.49-1.05,1.12-2.01,1.91-2.87.82-.9,1.75-1.64,2.81-2.24.61-.34,1.24-.62,1.9-.88,1.59-.62,3.24-.88,4.93-.91.39,0,.78-.15,1.16-.1.78.11,1.56.07,2.34.13.87.07,1.74.11,2.6.27.57.11,1.14.24,1.72.32.14.02.21.08.18.24-.18.92-.36,1.85-.52,2.78-.04.21-.13.22-.3.18-.97-.24-1.92-.53-2.9-.75-1.93-.44-3.86-.55-5.79-.13-1.31.28-2.45.94-3.45,1.87-1.88,1.76-2.65,4.01-2.96,6.48-.15,1.17-.08,2.32.37,3.43.37.91.95,1.64,1.78,2.19.81.55,1.68.84,2.64.93.11.1.28.02.39.13"/>
  <path class="cls-1" d="M67.77,9.34c.15-.83.31-1.62.44-2.42.04-.24.13-.31.37-.31,2.73,0,5.46,0,8.19,0,3.5,0,7.01-.02,10.51-.04.33,0,.42.05.34.4-.16.65-.28,1.32-.37,1.98-.04.3-.16.35-.42.35-2.25,0-4.5.02-6.75.01-.29,0-.41.05-.47.37-.51,2.85-1.05,5.7-1.59,8.55-.5,2.68-1,5.37-1.49,8.05-.04.2-.12.3-.36.29-1.34-.01-2.68-.01-4.02,0-.25,0-.27-.07-.23-.3.73-3.9,1.46-7.79,2.18-11.69.31-1.64.6-3.27.92-4.91.06-.32-.01-.37-.31-.36-2.16.02-4.33.02-6.49.02h-.45"/>
  <path class="cls-1" d="M36.56,26.65c.27-1.48.54-2.92.81-4.36.8-4.31,1.6-8.61,2.41-12.92.15-.81.31-1.61.44-2.42.03-.19.09-.27.3-.27,1.35,0,2.71,0,4.06-.01.27,0,.27.11.23.31-.31,1.65-.62,3.3-.92,4.94-.53,2.85-1.06,5.7-1.59,8.55-.37,1.98-.74,3.97-1.11,5.95-.03.13-.04.23-.21.23-1.46,0-2.92,0-4.41,0"/>
  <path class="cls-1" d="M6.63,8.95c.48-.14.85-.34,1.24-.49,1.17-.46,2.31-1.01,3.45-1.54.8-.37,1.57-.81,2.33-1.25,1.31-.76,2.51-1.65,3.28-3,.1-.17.19-.34.25-.53.27-.85-.12-1.2-.77-1.53-.29-.14-.63-.19-1.04-.3.41-.14.75-.15,1.08-.19.83-.09,1.66-.15,2.5-.08,1.07.09,1.36.92,1.17,1.75-.2.87-.7,1.57-1.31,2.19-.76.78-1.65,1.37-2.6,1.9-.85.47-1.71.9-2.6,1.28-.86.37-1.74.67-2.63.95-1.36.44-2.75.75-4.17.85-.03,0-.07,0-.18-.02"/>
  <path class="cls-1" d="M18.02,32.99c-.14.23-.35.12-.54.12.13-.23.35-.11.54-.12"/>
  <path class="cls-1" d="M131.67,23.99c-.14,0-.31.08-.39-.13.15,0,.31-.08.39.13"/>
  <path class="cls-1" d="M113.37,14.63c-.99.64-2.08.83-3.22.89-.49.03-.98,0-1.47.02-.17,0-.26,0-.21-.23.37-1.93.72-3.87,1.07-5.81.04-.21.13-.25.32-.25.41.01.81,0,1.22,0,.71,0,1.44-.03,2.13.16.67.19,1.35.38,1.74,1.06.19.33.27.69.23,1.05-.14,1.3-.67,2.36-1.8,3.1M115.73,19.26c-.36-.62-.73-1.23-1.09-1.85-.1-.18-.12-.26.13-.39.4-.21.83-.37,1.22-.61,1.02-.6,1.89-1.34,2.6-2.27.92-1.21,1.38-2.57,1.32-4.09-.03-.78-.28-1.48-.82-2.06-.64-.7-1.5-1-2.38-1.23-.55-.14-1.12-.2-1.68-.2-3,0-6,0-9-.01-.2,0-.27.05-.31.25-.15.87-.33,1.73-.49,2.6-.58,3.14-1.17,6.28-1.75,9.42-.46,2.45-.9,4.91-1.37,7.36-.05.28.05.27.25.27.97,0,1.94,0,2.91,0,.36,0,.8.11,1.04-.06.26-.17.18-.65.25-.99.03-.12.05-.24.07-.36.4-2.14.8-4.28,1.19-6.42.04-.2.1-.28.33-.28.67.02,1.35.01,2.03,0,.17,0,.28.04.35.2.43.9.87,1.79,1.31,2.69.8,1.66,1.59,3.31,2.38,4.97.07.16.16.24.36.24,1.76,0,3.52,0,5.35,0-.68-1.16-1.33-2.24-1.97-3.33-.75-1.28-1.5-2.56-2.25-3.83"/>
  <path class="cls-1" d="M148.3,18.37c1.63-2.65,3.24-5.26,4.89-7.94.66,2.7,1.3,5.31,1.94,7.94h-6.83ZM161.7,26c-.26-1.05-.52-2.11-.78-3.17-.62-2.55-1.25-5.11-1.87-7.66-.68-2.81-1.37-5.63-2.05-8.44-.05-.22-.15-.3-.37-.29-1.34.01-2.68.01-4.02,0-.21,0-.35.06-.45.24-.38.63-.78,1.26-1.17,1.89-.67,1.09-1.33,2.18-1.99,3.26-.59.95-1.18,1.9-1.77,2.85-.67,1.09-1.32,2.18-1.99,3.26-.59.95-1.18,1.9-1.77,2.85-.69,1.12-1.37,2.23-2.05,3.35-.44.72-.88,1.44-1.34,2.2,1.08,0,2.11,0,3.14,0,.2,0,.27-.13.35-.27.31-.51.62-1.02.93-1.52.67-1.1,1.36-2.19,2.02-3.29.1-.17.21-.23.4-.23,2.87,0,5.73,0,8.6-.02.18,0,.27.04.32.24.38,1.59.77,3.18,1.16,4.77.05.21.12.3.36.3,1.36-.02,2.73-.02,4.09,0,.3,0,.31-.12.26-.34"/>
</svg>