<?xml version="1.0" encoding="UTF-8"?>
<svg id="Layer_1" data-name="Layer 1" xmlns="http://www.w3.org/2000/svg" viewBox="0 0 184.79 49.05">
  <defs>
    <style>
      .cls-1 {
        fill: #ffffff;
        stroke-width: 0px;
      }
    </style>
  </defs>
  <path class="cls-1" d="M8.57,25.98h32.12c0-.73-.05-1.43.01-2.12.06-.7-.17-.9-.88-.9-10.15.02-20.3.01-30.45.02-.26,0-.52.02-.8.04v2.97ZM0,0h49.18v49.05H0V0Z"/>
  <path class="cls-1" d="M116.22,20.97c.38,0,.69,0,1.01,0,2.41-.02,4.83.08,7.22-.1,1.03-.08,2.14-.55,3.01-1.14,2.04-1.38,2.61-3.52,2.56-5.86-.08-4.07-2.64-6.61-6.71-6.63-1.83-.01-3.65,0-5.48,0h-1.62v13.75ZM112.34,3.7c.62,0,1.2,0,1.78,0,3.34.01,6.68-.08,10.01.05,7.12.3,10.69,5.83,9.82,11.85-.66,4.6-3.83,7.86-8.36,8.76-.62.12-1.26.17-1.89.18-3.63.02-7.26,0-10.89,0-.14,0-.28-.02-.48-.03V3.7Z"/>
  <path class="cls-1" d="M73.27,15.98h7.91c-1.32-2.77-2.6-5.46-3.95-8.29-1.36,2.85-2.65,5.55-3.97,8.29M65.04,24.55c.12-.31.19-.51.28-.7,3.19-6.54,6.39-13.08,9.57-19.62.18-.37.37-.56.81-.54,1.02.04,2.05-.01,3.07.03.23,0,.56.19.66.39,3.3,6.7,6.59,13.42,9.87,20.13.03.06.03.14.05.31-1.31,0-2.58.02-3.86-.02-.18,0-.39-.31-.5-.52-.65-1.33-1.29-2.66-1.9-4.01-.18-.39-.4-.52-.82-.52-3.39.02-6.77.02-10.16,0-.4,0-.6.13-.76.49-.62,1.37-1.29,2.72-1.91,4.09-.18.39-.41.53-.83.51-1.14-.03-2.29,0-3.57,0"/>
  <polygon class="cls-1" points="92.01 24.47 92.01 3.76 95.88 3.76 95.88 21.07 109.78 21.07 109.78 24.47 92.01 24.47"/>
  <path class="cls-1" d="M133.29,48.6h-2.43c0-.78.01-1.53,0-2.27-.03-1.89,0-3.79-.13-5.68-.08-1.25-.92-1.83-2.13-1.51-.74.19-1.43.57-2.1.95-.23.13-.41.53-.42.81-.03,2.29-.02,4.57-.02,6.85v.84h-2.53c0-.29,0-.57,0-.85-.03-2.31,0-4.62-.1-6.92-.06-1.42-.9-2.02-2.27-1.65-.75.2-1.45.63-2.13,1.04-.18.1-.26.49-.27.75-.02,2.26-.01,4.52-.01,6.78v.85h-2.52v-11.46c.62,0,1.22-.03,1.81.02.14.01.32.24.39.4.1.24.12.51.19.86,1.14-.79,2.26-1.5,3.65-1.57,1.45-.07,2.54.49,3.23,1.7.81-.46,1.54-1.03,2.38-1.3.85-.27,1.82-.42,2.7-.31,1.55.18,2.68,1.42,2.74,3.05.1,2.82.05,5.64.05,8.45,0,.04-.04.08-.08.17"/>
  <path class="cls-1" d="M74.51,42.39c-.72-2.08-1.4-4.02-2.13-6.1-.76,2.1-1.46,4.06-2.18,6.07.26.01.46.03.65.03,1.19,0,2.38,0,3.67,0M79.6,48.57c-.11.03-.13.04-.15.05q-2.49.17-3.37-2.15c-.24-.63-.35-1.49-.82-1.8-.47-.32-1.31-.11-1.99-.12-1.07,0-2.14.02-3.21-.01-.49-.02-.73.11-.89.6-.34,1.04-.74,2.05-1.15,3.06-.07.18-.3.41-.47.42-.74.05-1.49.02-2.34.02.58-1.54,1.13-2.98,1.68-4.42,1.4-3.67,2.82-7.33,4.21-11,.18-.48.36-.82.96-.72.57.09,1.18-.22,1.53.67,1.9,4.93,3.87,9.83,5.81,14.75.08.2.13.41.21.66"/>
  <path class="cls-1" d="M138.14,42.83c.27.87.4,1.79.81,2.55,1.02,1.91,3.74,1.89,4.75-.03.85-1.62.83-3.31.04-4.96-.47-.98-1.34-1.47-2.41-1.47-1.04,0-1.94.43-2.38,1.39-.36.77-.52,1.63-.8,2.52M135.64,42.8c.05-3.06,1.72-5.27,4.48-5.87,3.15-.69,6.14,1.34,6.68,4.52.21,1.2.15,2.37-.21,3.52-.78,2.47-2.92,3.98-5.46,3.87-2.68-.11-4.73-1.8-5.28-4.39-.12-.54-.15-1.1-.22-1.65"/>
  <path class="cls-1" d="M105.09,42.8c.29.92.42,1.86.85,2.63,1.02,1.83,3.66,1.8,4.67-.03.91-1.65.91-3.42.03-5.09-.99-1.88-3.67-1.93-4.71-.08-.42.75-.56,1.67-.85,2.56M102.6,42.81c.06-3.07,1.72-5.27,4.48-5.87,3.18-.7,6.26,1.37,6.66,4.6.13,1.1.09,2.3-.19,3.37-.65,2.52-2.88,4.05-5.45,3.94-2.66-.11-4.69-1.77-5.26-4.32-.13-.56-.16-1.15-.23-1.72"/>
  <path class="cls-1" d="M182.15,41.63c-.2-1.94-1.02-2.84-2.47-2.79-1.34.05-2.24,1.13-2.28,2.79h4.75ZM184.76,43.51h-7.32c0,2.98,2.44,3.97,6.26,2.58.24.54.48,1.08.75,1.68-1.27.84-2.65,1.11-4.1,1.08-4.35-.07-5.88-3.52-5.54-6.72.11-1.03.44-2.1.94-3.01,1-1.84,2.74-2.47,4.76-2.25,1.83.2,3.07,1.24,3.73,2.95.45,1.17.6,2.38.51,3.7"/>
  <path class="cls-1" d="M88.72,47.67c-1.07.39-2.05.95-3.09,1.1-2.5.35-4.18-1.08-4.27-3.59-.09-2.64-.02-5.29-.02-8h2.57v.76c0,1.87,0,3.74,0,5.61,0,.34,0,.68.02,1.02.09,1.62,1.08,2.36,2.66,1.98.28-.07.56-.17.82-.29.72-.35,1.15-.79,1.11-1.73-.09-2.43-.03-4.86-.03-7.35h2.64v11.38c-1.57.32-1.95.17-2.41-.89"/>
  <path class="cls-1" d="M100.66,46.24c.25.55.5,1.09.75,1.62-1.14,1.08-3.84,1.33-5.08.51-.96-.64-1.2-1.61-1.2-2.66-.01-1.89,0-3.79,0-5.68v-.85h-1.93v-2.03h1.93c0-.68.05-1.3-.01-1.91-.07-.62.2-.87.75-.99.59-.13,1.16-.33,1.82-.52v3.39h3.48c-.2.65-.34,1.21-.56,1.74-.06.15-.36.29-.55.3-.75.03-1.5.01-2.34.01v3.08c0,1,0,1.99,0,2.99,0,1.36.59,1.8,1.9,1.41.34-.1.67-.25,1.06-.4"/>
  <path class="cls-1" d="M150.25,39.14h-1.96v-2h1.96c0-.77.01-1.47,0-2.17,0-.36.09-.57.49-.66.67-.16,1.33-.39,2.08-.62v3.41h3.45c-.21.67-.36,1.27-.59,1.83-.05.13-.36.2-.55.21-.75.02-1.5,0-2.3,0,0,2.22-.04,4.38.02,6.53.03.87.6,1.22,1.47,1.05.47-.09.92-.29,1.46-.47.11.23.25.51.37.78.13.28.25.57.4.92-1.54.85-3.11,1.21-4.76.58-.94-.36-1.46-1.15-1.49-2.16-.06-2.06-.05-4.13-.06-6.19,0-.31,0-.62,0-1.05"/>
  <path class="cls-1" d="M168.38,45.39c.88-2.45,1.7-4.75,2.52-7.05.43-1.21.43-1.21,1.68-1.21h1.31c-.09.28-.14.51-.23.72-1.35,3.4-2.72,6.79-4.05,10.2-.19.49-.44.74-.95.62-.48-.11-1.14.36-1.42-.32-1.51-3.7-2.98-7.41-4.51-11.22.84,0,1.58-.03,2.32.02.17.01.4.3.47.51.88,2.34,1.73,4.68,2.59,7.02.07.18.13.36.26.71"/>
  <rect class="cls-1" x="158.51" y="37.15" width="2.44" height="11.45"/>
  <path class="cls-1" d="M161.31,33.45c0,.88-.68,1.57-1.56,1.59-.9.02-1.62-.71-1.6-1.62.02-.88.71-1.54,1.6-1.53.91,0,1.56.66,1.56,1.56"/>
</svg>