<?xml version="1.0" encoding="utf-8"?>
<!-- Generator: Adobe Illustrator 27.7.0, SVG Export Plug-In . SVG Version: 6.00 Build 0)  -->
<svg version="1.1" id="Capa_1" xmlns="http://www.w3.org/2000/svg" xmlns:xlink="http://www.w3.org/1999/xlink" x="0px" y="0px"
	 viewBox="0 0 1080 583.2" style="enable-background:new 0 0 1080 583.2;" xml:space="preserve">
<style type="text/css">
	.st0{fill:#E25B19;}
</style>
<g>
	<g>
		<path class="st0" d="M40.4,47.9c37.4-58,172.4-45.2,227.9-46.3C488-3,707.9,2.5,927,17.9c70.8,5,105.2,46.7,103.2,115.7
			c-2.6,88.4-31,194.5-130.1,219.1c-104.2,25.8-210,41.2-316.3,49.8c-3.7,49.5-1.2,99.1,7.9,148c1,5.4-5,12.2-10.5,8.1
			c-54.7-40.6-101.1-90.8-136.7-148.5c-107.2,3.4-281.4,22.1-359.7-75.1C34.4,272.6-6.6,120.7,40.4,47.9z"/>
	</g>
	<g>
		<path class="st0" d="M611.2,583.2c-2.2,0-4.2-1.6-4.6-4c-9.2-51.6-12-104.6-8.1-157.7c0.2-2.4,2-4.3,4.3-4.5
			c116.3-9.8,220.9-27,319.8-52.5c106.9-27.6,126.3-154,128.3-226.9c0.1-2.7,2.2-4.8,4.7-4.8c0.1,0,0.1,0,0.1,0
			c2.6,0.1,4.6,2.3,4.6,5c-4.9,176.3-87,223.6-135.4,236.1c-98.3,25.4-202.1,42.5-317.3,52.4c-3.3,50.8-0.6,101.6,8.3,151
			c0.5,2.7-1.2,5.2-3.8,5.7C611.7,583.2,611.4,583.2,611.2,583.2z"/>
	</g>
</g>
</svg>
