<?xml version="1.0" encoding="utf-8"?>
<!-- Generator: Adobe Illustrator 27.7.0, SVG Export Plug-In . SVG Version: 6.00 Build 0)  -->
<svg version="1.1" id="Capa_1" xmlns="http://www.w3.org/2000/svg" xmlns:xlink="http://www.w3.org/1999/xlink" x="0px" y="0px"
	 viewBox="0 0 1080 509.9" style="enable-background:new 0 0 1080 509.9;" xml:space="preserve">
<style type="text/css">
	.st0{fill:#E25B19;}
</style>
<g>
	<g>
		<path class="st0" d="M1042.1,160.7C1029.9,100.9,976,56.6,917.8,38C859.6,19.5,797.1,22,736,24.7C596.3,31,456.6,37.2,317,43.5
			c-52.8,2.4-106.2,5-157.5,18.7c-33.9,9-67.3,23.3-94,46.6c-31.5,27.5-44.3,61.9-54.3,101.4c-5.3,21-9.1,42.4-9.1,64.1
			C2,312.4,15.1,352.5,45,376.1c19.6,15.5,44.5,22.6,69,27.1c33.3,6,67.2,7.7,101.1,7.5c0.1,30.6-2.7,61.1-8.4,91.3
			c-0.9,4.6,4.2,10.4,8.9,6.9c39-28.7,73-63.2,100.8-102.4c135.5-7.3,271-14.6,406.4-22c74.2-4,151-8.7,216.7-43.3
			C1005.4,306.8,1057,233.5,1042.1,160.7z"/>
	</g>
	<g>
		<path class="st0" d="M1073.7,154.1c-1.9,0-3.7-1.4-4.1-3.3C1058.3,95.1,1007.8,45.5,941,24.2C879.5,4.5,813.9,7.5,750.4,10.3
			L307.5,30.1c-2.3,0-4.2-1.7-4.3-4c-0.1-2.3,1.7-4.2,4-4.3L750.1,2c61.2-2.7,130.6-5.8,193.5,14.2
			c84.4,26.9,124.7,86.3,134.3,132.8c0.5,2.3-1,4.5-3.2,4.9C1074.3,154,1074,154.1,1073.7,154.1z"/>
	</g>
</g>
</svg>
