<?xml version="1.0" encoding="utf-8"?>
<!-- Generator: Adobe Illustrator 27.7.0, SVG Export Plug-In . SVG Version: 6.00 Build 0)  -->
<svg version="1.1" id="Capa_1" xmlns="http://www.w3.org/2000/svg" xmlns:xlink="http://www.w3.org/1999/xlink" x="0px" y="0px"
	 viewBox="0 0 1080 234" style="enable-background:new 0 0 1080 234;" xml:space="preserve">
<style type="text/css">
	.st0{fill:#FFFFFF;}
</style>
<g>
	<g>
		<g>
			<path class="st0" d="M298.8,42.1c0-17.6,10.6-28,26.1-28c5.2,0,10.9,1.3,14.4,3l-1.1,5.9c-3.3-1.8-8.1-3.3-12.9-3.3
				c-12.7,0-19.8,8.4-19.8,22.3c0,13,8.1,20.8,20.5,20.8c5.1,0,10.2-1.6,13.1-3.4l0.9,5.7c-3.9,2.1-10.2,3.4-15.2,3.4
				C308.8,68.6,298.8,58.4,298.8,42.1z"/>
			<path class="st0" d="M347.5,49c0-11.2,6-19.6,17.7-19.6s17.7,8.4,17.7,19.6c0,12-7,19.6-17.7,19.6S347.5,61,347.5,49z M376.6,49
				c0-9.1-4.5-14.8-11.4-14.8c-7.3,0-11.4,5.7-11.4,14.8c0,8.6,3.9,14.8,11.4,14.8S376.6,57.6,376.6,49z"/>
			<path class="st0" d="M392.3,30.6l5.9-1.2v5.2c3.3-3,7.9-5.2,12.8-5.2c8,0,12.3,5,12.3,12.8v25.3h-5.9V43.1c0-4.8-2.7-8.2-7.9-8.2
				c-4.4,0-8.5,2.6-11.3,5.3v27.3h-5.9V30.6z"/>
			<path class="st0" d="M430.6,30.5h6.3l2-9.8h3.9v9.8h12v4.8h-12v22.6c0,3.6,1.3,5.6,4.7,5.6c2.1,0,5.3-1,6.8-1.7l0.9,4.6
				c-2,1.2-5.8,2.2-8.8,2.2c-6.6,0-9.5-3.4-9.5-10.7V35.4h-6.3V30.5z"/>
			<path class="st0" d="M492.7,67.5c-1.2,0.3-4.1,0.7-6,0.7c-3,0-4.5-1.3-4.7-4.6c-2,2.3-5.9,5.1-10.9,5.1c-5.7,0-10.2-3-10.2-8.8
				c0-9.8,13.3-11.9,21-13.2v-5.2c0-4.1-1-6.8-7-6.8c-4,0-8.4,1.5-11.7,3.1l-0.9-4.5c4.4-2.5,10.5-3.8,14.6-3.8
				c7.6,0,10.9,3.9,10.9,11v21.2c0,2.3,1.3,2.6,3,2.6h1.8v3.2H492.7z M471.5,63.6c3.8,0,8-2.7,10.5-5.7v-7c-8.5,1.6-15,3.7-15,8.7
				C467,62.1,468.9,63.6,471.5,63.6z M470.3,22.5l7.1-13.2l6.8,1.6L473,24L470.3,22.5z"/>
			<path class="st0" d="M497.7,49.8c0-11.4,5.7-20.4,18.7-20.4c3.2,0,7.4,0.9,10.5,2.8l-1.2,4.7c-2.3-1.2-5.9-2.3-9.1-2.3
				c-8.6,0-12.7,6.3-12.7,14.9c0,8.8,4.4,13.8,13.1,13.8c3.8,0,7.4-1.2,9.8-2.5l1,4.7c-2.5,1.6-6.7,3.1-11.6,3.1
				C506.3,68.6,497.7,62.9,497.7,49.8z"/>
			<path class="st0" d="M532.7,30.5h6.3l2-9.8h3.9v9.8h12v4.8h-12v22.6c0,3.6,1.3,5.6,4.7,5.6c2.1,0,5.3-1,6.8-1.7l0.9,4.6
				c-2,1.2-5.8,2.2-8.8,2.2c-6.6,0-9.5-3.4-9.5-10.7V35.4h-6.3L532.7,30.5L532.7,30.5z"/>
			<path class="st0" d="M594.9,67.5c-1.2,0.3-4.1,0.7-6,0.7c-3,0-4.5-1.3-4.7-4.6c-2,2.3-5.9,5.1-10.9,5.1c-5.7,0-10.2-3-10.2-8.8
				c0-9.8,13.3-11.9,21-13.2v-5.2c0-4.1-1-6.8-7-6.8c-4,0-8.4,1.5-11.7,3.1l-0.9-4.5c4.4-2.5,10.5-3.8,14.6-3.8
				c7.6,0,10.9,3.9,10.9,11v21.2c0,2.3,1.3,2.6,3,2.6h1.8v3.2H594.9z M573.7,63.6c3.8,0,8-2.7,10.5-5.7v-7c-8.5,1.6-15,3.7-15,8.7
				C569.1,62.1,571.1,63.6,573.7,63.6z"/>
			<path class="st0" d="M603.6,30.6l5.9-1.2v5.2c3.3-3,7.9-5.2,12.8-5.2c8,0,12.3,5,12.3,12.8v25.3h-5.9V43.1c0-4.8-2.7-8.2-7.9-8.2
				c-4.4,0-8.5,2.6-11.3,5.3v27.3h-5.9L603.6,30.6L603.6,30.6z"/>
			<path class="st0" d="M643.8,49c0-11.2,6-19.6,17.7-19.6s17.7,8.4,17.7,19.6c0,12-7,19.6-17.7,19.6C650.9,68.6,643.8,61,643.8,49z
				 M672.9,49c0-9.1-4.5-14.8-11.4-14.8c-7.3,0-11.4,5.7-11.4,14.8c0,8.6,3.9,14.8,11.4,14.8C669.1,63.8,672.9,57.6,672.9,49z"/>
			<path class="st0" d="M696.6,68.6c-4.1,0-8.4-1.2-11.3-2.8l1.1-5c2.4,1.5,7,3,10.6,3c4.5,0,8-1.8,8-6c0-3.1-2.6-4.5-7.2-6.2
				c-5.4-2.1-11.3-4.4-11.3-11.3c0-7,5.7-10.9,13.2-10.9c3.4,0,7.5,1,9.6,2.3l-1.1,4.9c-1.9-1.1-5.3-2.3-8.8-2.3
				c-4.1,0-7.3,2-7.3,5.3c0,3.8,3.9,4.7,8.5,6.6c4.8,2,10,4.1,10,11C710.7,64.7,704.2,68.6,696.6,68.6z"/>
			<path class="st0" d="M766.6,67.5c-1.2,0.3-4.1,0.7-6,0.7c-3,0-4.5-1.3-4.7-4.6c-2,2.3-5.9,5.1-10.9,5.1c-5.7,0-10.2-3-10.2-8.8
				c0-9.8,13.3-11.9,21-13.2v-5.2c0-4.1-1-6.8-7-6.8c-4,0-8.4,1.5-11.7,3.1l-0.9-4.5c4.4-2.5,10.5-3.8,14.6-3.8
				c7.6,0,10.9,3.9,10.9,11v21.2c0,2.3,1.3,2.6,3,2.6h1.8v3.2H766.6z M745.4,63.6c3.8,0,8-2.7,10.5-5.7v-7c-8.5,1.6-15,3.7-15,8.7
				C740.9,62.1,742.8,63.6,745.4,63.6z"/>
			<path class="st0" d="M775.3,12.2l5.9-1.4v56.7h-5.9V12.2z"/>
		</g>
	</g>
	<g>
		<path class="st0" d="M19.6,155.4c-10.9-8.2-16.1-15.2-16.1-28.9c0-20.4,17-30.6,35.9-30.6c20.7,0,36.7,8.9,36.7,29.5
			c0,14.3-7,23.7-17.8,30.6c12.8,8,20.4,15.7,20.4,30.4c0,20.7-17.8,34.5-38.9,34.5c-25,0-39.8-12.4-39.8-32.6
			C0,173.2,8,161.9,19.6,155.4z M38.2,167.3c-9.6,3.7-15.9,10.9-15.9,20c0,9.1,7.2,13.9,17,13.9c14.8,0,17.2-10.9,17.2-14.3
			C56.5,177.4,50.6,174.7,38.2,167.3z M40.8,145.8c7.8-4.5,12.8-9.8,12.8-18.3c0-8.9-6.3-12-13.1-12c-6.5,0-14.3,2.4-14.3,13
			C26.1,133,29.3,138.3,40.8,145.8z"/>
		<path class="st0" d="M99,158.4c0-37.4,14.6-62.4,42.4-62.4c28.7,0,42.4,26.5,42.4,62.4c0,40.8-16.9,62.4-42.4,62.4
			C116,220.8,99,199.5,99,158.4z M159.6,158.4c0-15.4-0.9-41.9-18.2-41.9c-11.9,0-18.2,11.3-18.2,41.9c0,13.3,0.4,41.9,18.2,41.9
			C153.8,200.2,159.6,187.6,159.6,158.4z"/>
		<path class="st0" d="M200.9,158.4c0-37.4,14.6-62.4,42.4-62.4c28.7,0,42.4,26.5,42.4,62.4c0,40.8-16.9,62.4-42.4,62.4
			C218,220.8,200.9,199.5,200.9,158.4z M261.5,158.4c0-15.4-0.9-41.9-18.2-41.9c-11.9,0-18.2,11.3-18.2,41.9
			c0,13.3,0.4,41.9,18.2,41.9C255.8,200.2,261.5,187.6,261.5,158.4z"/>
		<path class="st0" d="M368.1,155.4c-10.9-8.2-16.1-15.2-16.1-28.9c0-20.4,17-30.6,35.9-30.6c20.7,0,36.7,8.9,36.7,29.5
			c0,14.3-7,23.7-17.8,30.6c12.8,8,20.4,15.7,20.4,30.4c0,20.7-17.8,34.5-38.9,34.5c-25,0-39.8-12.4-39.8-32.6
			C348.5,173.2,356.4,161.9,368.1,155.4z M386.6,167.3c-9.6,3.7-15.9,10.9-15.9,20c0,9.1,7.2,13.9,17,13.9
			c14.8,0,17.2-10.9,17.2-14.3C405,177.4,399,174.7,386.6,167.3z M389.2,145.8c7.8-4.5,12.8-9.8,12.8-18.3c0-8.9-6.3-12-13.1-12
			c-6.5,0-14.3,2.4-14.3,13C374.6,133,377.7,138.3,389.2,145.8z"/>
		<path class="st0" d="M447.4,158.4c0-37.4,14.6-62.4,42.4-62.4c28.7,0,42.4,26.5,42.4,62.4c0,40.8-16.9,62.4-42.4,62.4
			C464.5,220.8,447.4,199.5,447.4,158.4z M508,158.4c0-15.4-0.9-41.9-18.2-41.9c-11.9,0-18.2,11.3-18.2,41.9
			c0,13.3,0.4,41.9,18.2,41.9C502.3,200.2,508,187.6,508,158.4z"/>
		<path class="st0" d="M572,155.4c-10.9-8.2-16.1-15.2-16.1-28.9c0-20.4,17-30.6,35.9-30.6c20.7,0,36.7,8.9,36.7,29.5
			c0,14.3-7,23.7-17.8,30.6c12.8,8,20.4,15.7,20.4,30.4c0,20.7-17.8,34.5-38.9,34.5c-25,0-39.8-12.4-39.8-32.6
			C552.3,173.2,560.3,161.9,572,155.4z M590.5,167.3c-9.6,3.7-15.9,10.9-15.9,20c0,9.1,7.2,13.9,17,13.9c14.8,0,17.2-10.9,17.2-14.3
			C608.8,177.4,602.9,174.7,590.5,167.3z M593.1,145.8c7.8-4.5,12.8-9.8,12.8-18.3c0-8.9-6.3-12-13.1-12c-6.5,0-14.3,2.4-14.3,13
			C578.5,133,581.6,138.3,593.1,145.8z"/>
		<path class="st0" d="M694.3,206.5c28-25.2,54.1-55.2,54.1-74.8c0-10-7-15.2-16.3-15.2c-9.8,0-19.8,6.5-27,13.3l-9.8-17.6
			c8.3-8.9,23.3-16.3,38.5-16.3c22.8,0,37.6,13,37.6,32.8c0,23.2-17.4,46.5-40.8,70.2h44.1l-1.1,19.3h-79.3V206.5z"/>
		<path class="st0" d="M796.3,206.5c28-25.2,54.1-55.2,54.1-74.8c0-10-7-15.2-16.3-15.2c-9.8,0-19.8,6.5-27,13.3l-9.8-17.6
			c8.3-8.9,23.3-16.3,38.5-16.3c22.8,0,37.6,13,37.6,32.8c0,23.2-17.4,46.5-40.8,70.2h44.1l-1.1,19.3h-79.3V206.5z"/>
		<path class="st0" d="M970.8,170.6h13v18.9h-13v28.7H948v-28.7h-53.7v-13l61.1-79.1h15.4V170.6z M924.2,170.6H948v-30.8
			L924.2,170.6z"/>
		<path class="st0" d="M1002.4,206.2l13.3-17c6.5,7.4,14.5,11.9,24.1,11.9c13.2,0,17.8-8,17.8-16.7c0-12.2-7-20.2-32-20.2h-17.2
			l5.6-65.6h58.7l-1.3,19.1h-38.5l-2,27.8h2c26.5,0,47.2,11.3,47.2,37.2c0,22.6-16.3,38.2-41.1,38.2
			C1025.5,220.8,1012.2,215.6,1002.4,206.2z"/>
	</g>
</g>
</svg>
