<?xml version="1.0" encoding="utf-8"?>
<!-- Generator: Adobe Illustrator 27.7.0, SVG Export Plug-In . SVG Version: 6.00 Build 0)  -->
<svg version="1.1" id="Capa_1" xmlns="http://www.w3.org/2000/svg" xmlns:xlink="http://www.w3.org/1999/xlink" x="0px" y="0px"
	 viewBox="0 0 952.2 231.1" style="enable-background:new 0 0 952.2 231.1;" xml:space="preserve">
<style type="text/css">
	.st0{fill:#FFFFFF;}
</style>
<g>
	<g>
		<g>
			<path class="st0" d="M262.7,59c-1.2-15.2,7.3-25,20.8-26c4.5-0.3,9.5,0.4,12.7,1.6l-0.6,5.2c-3-1.3-7.2-2.3-11.4-2
				c-11,0.8-16.6,8.6-15.7,20.6c0.9,11.3,8.4,17.5,19.1,16.7c4.4-0.3,8.7-2.1,11.1-3.8l1.2,4.9c-3.2,2.1-8.6,3.6-12.9,4
				C273.2,81.3,263.8,73.1,262.7,59z"/>
			<path class="st0" d="M305.4,61.8c-0.7-9.7,3.9-17.4,14-18.1c10.1-0.8,15.9,6.1,16.6,15.8c0.8,10.4-4.8,17.4-14,18.1
				C312.7,78.3,306.2,72.2,305.4,61.8z M330.6,59.8c-0.6-7.9-4.9-12.5-10.9-12.1c-6.3,0.5-9.5,5.7-8.9,13.6
				c0.6,7.4,4.4,12.6,10.9,12.1S331.2,67.3,330.6,59.8z"/>
			<path class="st0" d="M343,42.9l5-1.4l0.3,4.5c2.7-2.8,6.5-5,10.7-5.4c6.9-0.5,11,3.5,11.5,10.3l1.7,21.9l-5.1,0.4L365.5,52
				c-0.3-4.2-2.9-6.9-7.4-6.6c-3.8,0.3-7.2,2.8-9.4,5.3l1.8,23.6l-5.1,0.4L343,42.9z"/>
			<path class="st0" d="M376.1,40.3l5.5-0.4l1.1-8.6l3.4-0.3l0.6,8.5l10.4-0.8l0.3,4.2L387,43.6l1.5,19.6c0.2,3.1,1.5,4.8,4.4,4.5
				c1.8-0.1,4.5-1.2,5.8-1.9l1.1,3.9c-1.7,1.2-4.9,2.3-7.5,2.5c-5.7,0.4-8.5-2.3-8.9-8.6l-1.5-19.5l-5.5,0.4L376.1,40.3z"/>
			<path class="st0" d="M432.4,68.2c-1,0.3-3.5,0.9-5.2,1c-2.6,0.2-4-0.8-4.4-3.7c-1.6,2.1-4.8,4.8-9.1,5.1c-4.9,0.4-9-1.9-9.4-6.9
				c-0.6-8.5,10.7-11.2,17.3-12.8l-0.3-4.5c-0.3-3.6-1.3-5.8-6.5-5.4c-3.5,0.3-7.2,1.9-9.9,3.5l-1.1-3.8c3.6-2.5,8.8-4,12.4-4.3
				c6.6-0.5,9.7,2.7,10.2,8.8l1.4,18.4c0.2,2,1.3,2.2,2.8,2.1l1.6-0.1L432.4,68.2L432.4,68.2z M413.8,66.2c3.3-0.3,6.8-2.9,8.7-5.6
				l-0.5-6.1c-7.3,1.9-12.7,4.2-12.4,8.5C409.8,65.2,411.5,66.4,413.8,66.2z M410,30.7l5.3-11.9l6,0.9l-8.8,12.1L410,30.7z"/>
			<path class="st0" d="M435.5,52.5c-0.8-9.9,3.6-18,14.8-18.9c2.8-0.2,6.5,0.3,9.3,1.7l-0.7,4.2c-2.1-0.9-5.3-1.6-8-1.4
				c-7.4,0.6-10.6,6.3-10,13.7c0.6,7.6,4.7,11.7,12.3,11.1c3.3-0.3,6.3-1.5,8.3-2.8l1.2,4c-2.1,1.6-5.6,3.1-9.8,3.5
				C444.2,68.2,436.4,63.9,435.5,52.5z"/>
			<path class="st0" d="M464.6,33.5l5.5-0.4l1.1-8.6l3.4-0.3l0.6,8.5l10.4-0.8l0.3,4.2l-10.4,0.8l1.5,19.6c0.2,3.1,1.5,4.8,4.4,4.5
				c1.8-0.1,4.5-1.2,5.8-1.9l1.1,3.9c-1.7,1.2-4.9,2.3-7.5,2.5c-5.7,0.4-8.5-2.3-8.9-8.6l-1.5-19.5l-5.5,0.4L464.6,33.5L464.6,33.5z
				"/>
			<path class="st0" d="M520.9,61.4c-1,0.3-3.5,0.9-5.2,1c-2.6,0.2-4-0.8-4.4-3.7c-1.6,2.1-4.8,4.8-9.1,5.1c-4.9,0.4-9-1.9-9.4-6.9
				c-0.6-8.5,10.7-11.2,17.3-12.8l-0.3-4.5c-0.3-3.6-1.3-5.8-6.5-5.4c-3.5,0.3-7.2,1.9-9.9,3.5l-1.1-3.8c3.6-2.5,8.8-4,12.4-4.3
				c6.6-0.5,9.7,2.7,10.2,8.8l1.4,18.4c0.2,2,1.3,2.2,2.8,2.1l1.6-0.1L520.9,61.4L520.9,61.4z M502.3,59.5c3.3-0.3,6.8-2.9,8.7-5.6
				l-0.5-6.1c-7.3,1.9-12.7,4.2-12.4,8.5C498.2,58.5,500,59.6,502.3,59.5z"/>
			<path class="st0" d="M526,28.9l5-1.4l0.3,4.5c2.7-2.8,6.5-5,10.7-5.4c6.9-0.5,11,3.5,11.5,10.3l1.7,21.9l-5.1,0.4l-1.6-21.1
				c-0.3-4.2-2.9-6.9-7.4-6.6c-3.8,0.3-7.2,2.8-9.4,5.3l1.8,23.6l-5.1,0.4L526,28.9L526,28.9z"/>
			<path class="st0" d="M562,42.2c-0.7-9.7,3.9-17.4,14-18.1c10.1-0.8,15.9,6.1,16.6,15.8c0.8,10.4-4.8,17.4-14,18.1
				C569.5,58.7,562.8,52.6,562,42.2z M587.2,40.3c-0.6-7.9-4.9-12.5-10.9-12.1c-6.3,0.5-9.5,5.7-8.9,13.6
				c0.6,7.4,4.4,12.6,10.9,12.1C584.9,53.3,587.8,47.7,587.2,40.3z"/>
			<path class="st0" d="M609.1,55.7c-3.6,0.3-7.4-0.5-10-1.7l0.6-4.4c2.2,1.1,6.3,2.1,9.4,1.9c3.9-0.3,6.8-2.1,6.5-5.7
				c-0.2-2.7-2.5-3.7-6.6-4.9c-4.8-1.5-10.1-3.1-10.5-9c-0.5-6.1,4.2-9.8,10.7-10.3c2.9-0.2,6.6,0.4,8.5,1.4l-0.6,4.3
				c-1.7-0.8-4.7-1.6-7.8-1.4c-3.6,0.3-6.2,2.2-6,5.1c0.3,3.3,3.7,3.8,7.8,5.2c4.3,1.4,8.9,2.9,9.4,8.9
				C621,51.4,615.7,55.2,609.1,55.7z"/>
			<path class="st0" d="M669.6,50.1c-1,0.3-3.5,0.9-5.2,1c-2.6,0.2-4-0.8-4.4-3.7c-1.6,2.1-4.8,4.8-9.1,5.1c-4.9,0.4-9-1.9-9.4-6.9
				c-0.6-8.5,10.7-11.2,17.3-12.8l-0.3-4.5c-0.3-3.6-1.3-5.8-6.5-5.4c-3.5,0.3-7.2,1.9-9.9,3.5l-1.1-3.8c3.6-2.5,8.8-4,12.4-4.3
				c6.6-0.5,9.7,2.7,10.2,8.8l1.4,18.4c0.2,2,1.3,2.2,2.8,2.1l1.6-0.1L669.6,50.1L669.6,50.1z M651,48.1c3.3-0.3,6.8-2.9,8.7-5.6
				l-0.5-6.1c-7.3,1.9-12.7,4.2-12.4,8.5C647,47.1,648.8,48.3,651,48.1z"/>
			<path class="st0" d="M673.5,1.6l5-1.6l3.8,49.1l-5.1,0.4L673.5,1.6z"/>
		</g>
	</g>
	<g>
		<path class="st0" d="M28.4,175.6c-10-6.3-15-12.1-15.9-24C11.2,134,25.3,124,41.7,122.8c18-1.4,32.4,5.3,33.7,23.1
			c0.9,12.4-4.5,21-13.4,27.6c11.6,6.1,18.7,12.3,19.7,25c1.4,18-13.1,31-31.4,32.4c-21.7,1.7-35.3-8.1-36.7-25.6
			C12.6,192.3,18.8,182,28.4,175.6z M45.3,184.7c-8.1,3.8-13.1,10.5-12.5,18.4c0.6,7.9,7.2,11.6,15.7,10.9c12.8-1,14.2-10.6,14-13.5
			C61.8,192.3,56.5,190.3,45.3,184.7z M46.1,165.9c6.4-4.4,10.4-9.4,9.9-16.7c-0.6-7.7-6.3-10-12.2-9.6c-5.6,0.4-12.2,3-11.5,12.2
			C32.6,155.8,35.7,160.2,46.1,165.9z"/>
		<path class="st0" d="M97.4,172.9c-2.5-32.4,8.5-55,32.6-56.9c24.9-1.9,38.5,20.2,40.9,51.3c2.7,35.3-10.5,55.2-32.6,56.9
			C116.2,225.9,100.1,208.6,97.4,172.9z M149.8,168.9c-1-13.3-3.6-36.2-18.5-35.1c-10.3,0.8-15,11-13,37.5
			c0.9,11.6,3.1,36.2,18.5,35.1C147.6,205.6,151.8,194.3,149.8,168.9z"/>
		<path class="st0" d="M185.7,166.2c-2.5-32.4,8.5-55,32.6-56.9c24.9-1.9,38.5,20.2,40.9,51.3c2.7,35.3-10.5,55.2-32.6,56.9
			C204.6,219.1,188.4,201.8,185.7,166.2z M238.1,162.2c-1-13.3-3.6-36.2-18.5-35.1c-10.3,0.8-15,11-13,37.5
			c0.9,11.6,3.1,36.2,18.5,35.1C235.9,198.8,240.1,187.5,238.1,162.2z"/>
		<path class="st0" d="M330.3,152.6c-10-6.3-15-12.1-15.9-24c-1.3-17.7,12.7-27.6,29.1-28.9c18-1.4,32.4,5.3,33.7,23.1
			c0.9,12.4-4.5,21-13.4,27.6c11.6,6.1,18.7,12.3,19.7,25c1.4,18-13.1,31-31.4,32.4c-21.7,1.7-35.3-8.1-36.7-25.6
			C314.4,169.3,320.6,159,330.3,152.6z M347.1,161.6c-8.1,3.8-13.1,10.5-12.5,18.4s7.2,11.6,15.7,10.9c12.8-1,14.2-10.6,14-13.5
			C363.7,169.2,358.3,167.2,347.1,161.6z M347.9,142.8c6.4-4.4,10.4-9.4,9.9-16.7c-0.6-7.7-6.3-10-12.2-9.6
			c-5.6,0.4-12.2,3-11.5,12.2C334.4,132.7,337.5,137.2,347.9,142.8z"/>
		<path class="st0" d="M399.2,149.9c-2.5-32.4,8.5-55,32.6-56.9c24.9-1.9,38.5,20.2,40.9,51.3c2.7,35.3-10.5,55.2-32.6,56.9
			C418.1,202.8,401.9,185.5,399.2,149.9z M451.7,145.9c-1-13.3-3.6-36.2-18.5-35.1c-10.3,0.8-15,11-13,37.5
			c0.9,11.6,3.1,36.2,18.5,35.1C449.5,182.5,453.6,171.2,451.7,145.9z"/>
		<path class="st0" d="M506.9,139.1c-10-6.3-15-12.1-15.9-24c-1.3-17.7,12.7-27.6,29.1-28.9c18-1.4,32.4,5.3,33.7,23.1
			c0.9,12.4-4.5,21-13.4,27.6c11.6,6.1,18.7,12.3,19.7,25c1.4,18-13.1,31-31.4,32.4c-21.7,1.7-35.3-8.1-36.7-25.6
			C491,155.8,497.2,145.5,506.9,139.1z M523.7,148.1c-8.1,3.8-13.1,10.5-12.5,18.4s7.2,11.6,15.7,10.9c12.8-1,14.2-10.6,14-13.5
			C540.3,155.7,534.9,153.7,523.7,148.1z M524.5,129.3c6.4-4.4,10.4-9.4,9.9-16.7c-0.6-7.7-6.3-10-12.2-9.6
			c-5.6,0.4-12.2,3-11.5,12.2C511,119.2,514.1,123.7,524.5,129.3z"/>
		<path class="st0" d="M616.2,175.3c22.6-23.7,43.2-51.4,41.9-68.4c-0.7-8.7-7.1-12.7-15.1-12.1c-8.5,0.6-16.7,6.9-22.5,13.3
			l-9.7-14.6c6.6-8.2,19.1-15.7,32.3-16.7c19.7-1.5,33.4,8.7,34.7,25.9c1.5,20.1-12,41.4-30.7,63.5l38.2-2.9l0.3,16.8l-68.7,5.2
			L616.2,175.3z"/>
		<path class="st0" d="M704.5,168.5c22.6-23.7,43.2-51.4,41.9-68.4c-0.7-8.7-7.1-12.7-15.1-12.1c-8.5,0.6-16.7,6.9-22.5,13.3
			l-9.7-14.6c6.6-8.2,19.1-15.7,32.3-16.7c19.7-1.5,33.4,8.7,34.7,25.9c1.5,20.1-12,41.4-30.7,63.5l38.2-2.9l0.3,16.8l-68.7,5.2
			L704.5,168.5z"/>
		<path class="st0" d="M853.4,125.9l11.2-0.9l1.2,16.4l-11.2,0.9l1.9,24.9l-19.7,1.5l-1.9-24.9l-46.5,3.6l-0.9-11.2l47.7-72.6
			l13.3-1L853.4,125.9z M812.9,128.9l20.7-1.6l-2-26.6L812.9,128.9z"/>
		<path class="st0" d="M883,154.6l10.4-15.6c6.1,6,13.3,9.3,21.6,8.7c11.4-0.9,14.9-8.1,14.3-15.6c-0.8-10.6-7.4-17-29.1-15.4
			l-14.9,1.1l0.5-57.2l50.9-3.9l0.1,16.6l-33.4,2.5l0.1,24.2l1.8-0.1c22.9-1.8,41.7,6.7,43.4,29.1c1.5,19.6-11.6,34.1-33.1,35.8
			C904.1,165.7,892.2,162.1,883,154.6z"/>
	</g>
</g>
</svg>
