<?xml version="1.0" encoding="UTF-8"?>
<svg id="Layer_1" data-name="Layer 1" xmlns="http://www.w3.org/2000/svg" xmlns:xlink="http://www.w3.org/1999/xlink" viewBox="0 0 119.09 103.13">
  <defs>
    <style>
      .cls-1 {
        fill: url(#linear-gradient);
      }

      .cls-1, .cls-2, .cls-3 {
        stroke-width: 0px;
      }

      .cls-2 {
        fill: url(#linear-gradient-2);
      }

      .cls-3 {
        fill: #fff;
      }
    </style>
    <linearGradient id="linear-gradient" x1="-4341.69" y1="51.57" x2="-4222.6" y2="51.57" gradientTransform="translate(-4222.6) rotate(-180) scale(1 -1)" gradientUnits="userSpaceOnUse">
      <stop offset="0" stop-color="#f5a214"/>
      <stop offset="1" stop-color="#e05b19"/>
    </linearGradient>
    <linearGradient id="linear-gradient-2" x1="-4332.4" y1="51.57" x2="-4231.89" y2="51.57" gradientTransform="translate(-4222.6) rotate(-180) scale(1 -1)" gradientUnits="userSpaceOnUse">
      <stop offset="0" stop-color="#e05b19"/>
      <stop offset="1" stop-color="#f5a214"/>
    </linearGradient>
  </defs>
  <polygon class="cls-1" points="29.77 0 89.32 0 119.09 51.57 89.32 103.13 29.77 103.13 0 51.57 29.77 0"/>
  <polygon class="cls-2" points="34.42 8.05 84.67 8.05 109.8 51.57 84.67 95.09 34.42 95.09 9.29 51.57 34.42 8.05"/>
  <path class="cls-3" d="M54.04,10.67c3.57,2.17,6.82,4.63,10.01,7.22,3.64,6.56,12.98,22.52,16.84,29.27,0,0,1.44,2.5,1.44,2.5-4.49,7.75-13.91,24.12-18.33,31.75-2.26,1.86-4.91,3.8-7.33,5.52-3.1,2.01-2.71,2.52-2.45-1.41.28-2.97.65-6.21,1.12-9.1,3.56-6.16,13.2-22.87,16.88-29.25,0,0,0,5,0,5-3.99-6.78-12.99-22.7-16.93-29.22-.66-4.06-1.15-8.1-1.25-12.28h0Z"/>
  <path class="cls-3" d="M54.04,34.78c1.98.51,3.59,1.23,5.21,1.95.66,1.27,1.41,2.49,2.12,3.74l4.29,7.44,1.01,1.75-1.01,1.75c-1.42,2.45-5.07,8.78-6.44,11.16-1.64.71-3.25,1.43-5.18,1.97-.5-1.94-.68-3.7-.88-5.47l2.15-3.72,4.29-7.44v3.5l-4.29-7.44c-.73-1.23-1.4-2.5-2.18-3.7.19-1.76.37-3.52.91-5.49h0Z"/>
</svg>