<?xml version="1.0" encoding="UTF-8"?>
<svg id="Layer_1" data-name="Layer 1" xmlns="http://www.w3.org/2000/svg" viewBox="0 0 129.12 111.82">
  <defs>
    <style>
      .cls-1 {
        fill: #f5a214;
      }

      .cls-1, .cls-2 {
        stroke-width: 0px;
      }

      .cls-2 {
        fill: #fff;
      }
    </style>
  </defs>
  <polygon class="cls-2" points="94.14 4.68 34.98 4.68 5.4 55.91 34.98 107.15 94.14 107.15 123.72 55.91 94.14 4.68"/>
  <g>
    <path class="cls-1" d="M96.84,0H32.28L0,55.91l32.28,55.91h64.56l32.28-55.91L96.84,0ZM94.14,107.15h-59.16L5.4,55.91,34.98,4.68h59.16l29.58,51.23-29.58,51.23Z"/>
    <g>
      <path class="cls-1" d="M98.19,72.17h-.47l-.27,1.25h.42c.18,0,.33-.02.45-.06.12-.04.22-.09.3-.16.08-.07.14-.15.18-.24.04-.09.06-.18.06-.28,0-.15-.06-.27-.17-.37s-.28-.15-.5-.15Z"/>
      <path class="cls-1" d="M98.59,70.14h-.44l-.25,1.19h.31c.16,0,.3-.02.42-.06.12-.04.21-.1.29-.17.07-.07.13-.15.16-.23s.05-.18.05-.26c0-.13-.04-.24-.13-.33s-.22-.14-.41-.14Z"/>
      <path class="cls-1" d="M91.4,9.45h-53.68L10.93,55.92l26.79,46.5h53.68l26.84-46.49-26.84-46.49ZM28.16,41.18l.89-2.68c.07-.24.34-.47.58-.52l2.76-.56c.24-.05.58.06.74.24l1.87,2.11c.17.18.24.53.16.77l-.89,2.68c-.07.24-.34.47-.58.52l-2.76.56c-.24.05-.58-.06-.74-.24l-1.87-2.11c-.17-.18-.24-.53-.16-.77ZM29.55,58.22l-.74,2.23c-.16.47-.68.94-1.16,1.03l-2.31.48c-.48.1-1.15-.12-1.48-.49l-1.56-1.76c-.32-.37-.47-1.06-.31-1.52l.74-2.23c.16-.47.68-.94,1.16-1.03l2.31-.48c.48-.1,1.15.12,1.48.49l1.56,1.76c.32.37.47,1.06.31,1.52ZM30.75,56.47l-2.73-3.06c-.49-.55-.71-1.58-.47-2.29l1.3-3.89c.23-.71,1.02-1.4,1.74-1.55l4.01-.83c.73-.14,1.73.18,2.22.73l2.71,3.07c.49.55.71,1.58.47,2.29l-1.28,3.88c-.23.71-1.02,1.4-1.74,1.55l-4.01.83c-.73.14-1.73-.18-2.22-.73ZM50.04,61.03l-.86,1.61c-.07.14-.22.23-.38.24l-1.83.06c-.16,0-.31-.07-.4-.22l-.96-1.55c-.08-.13-.08-.31-.01-.44l.86-1.61c.07-.14.22-.23.38-.24l1.82-.06c.16,0,.31.07.4.22l.96,1.55c.08.13.08.3.01.44ZM53.27,67.43l-5.31-15.73s-.02-.08-.04-.12c-.01-.02-.02-.06-.04-.1-.01.05-.04.11-.05.14-.02.05-.04.08-.05.12l-5.22,15.68h-5.84l.17-.58c.38-1.27.98-3.23,1.8-5.81.91-2.83,1.81-5.6,2.69-8.21,1.31-3.88,1.67-4.65,1.82-4.89.47-.66,1.13-1.15,1.98-1.49.82-.31,1.72-.48,2.68-.48s1.84.16,2.67.48c.85.34,1.51.83,1.96,1.48.18.24.56,1.03,1.86,4.87.67,2.01,1.56,4.77,2.65,8.21.6,1.93,1.21,3.88,1.83,5.82l.18.59h-5.75ZM76.69,67.42h-10.47c-2.56,0-4.6-1.13-6.06-3.34-1.28-1.93-1.95-4.35-1.95-7.17s.66-5.36,1.97-7.38c1.49-2.29,3.52-3.46,6.03-3.46h10.47v5.21h-9.71c-.94,0-1.66.5-2.21,1.54-.53,1-.8,2.25-.8,3.72s.28,2.83.83,3.9c.56,1.1,1.28,1.64,2.2,1.64h9.71v5.33ZM78.55,46.07h5.44v21.36h-5.44v-21.36ZM86.69,70.92c-.11-.18-.28-.34-.5-.47s-.49-.19-.8-.19c-.27,0-.52.05-.74.15-.22.1-.42.23-.58.4s-.29.36-.39.58c-.09.22-.14.46-.14.7,0,.18.03.34.08.49.06.15.13.28.24.39.1.11.23.19.38.25.15.06.32.09.52.09.33,0,.64-.07.93-.22.29-.15.57-.38.85-.69h.02l-.46,1.57c-.22.15-.46.26-.74.34-.28.08-.55.12-.84.12-.34,0-.64-.06-.91-.17-.27-.11-.5-.27-.69-.47-.19-.2-.33-.45-.43-.74-.1-.29-.15-.61-.15-.96,0-.39.08-.76.25-1.11.17-.35.39-.67.67-.94.28-.27.61-.49.99-.65.38-.16.78-.24,1.21-.24.69,0,1.23.15,1.62.46l-.38,1.31h-.02ZM90.42,74.34h-3.37l1.08-5.1h1.16l-.86,4.04h2.22l-.22,1.06ZM88.97,65.37c-1.26-1.07-2.15-2.55-2.67-4.37-.34-1.18-.5-2.49-.5-3.88,0-.26,0-.48.01-.64.01-.14.02-.28.05-.4v-10.01h5.44v10.04c0,1.64.35,3.04,1.02,4.14.76,1.24,1.77,1.84,3.09,1.84h0s8.62.01,8.62.01v5.33h-8.61c-2.68,0-4.84-.7-6.45-2.07ZM95.1,73.3c-.15.26-.34.47-.54.64-.21.17-.44.29-.7.37-.26.08-.52.12-.8.12s-.51-.03-.73-.1c-.22-.06-.42-.16-.58-.29s-.29-.3-.38-.51c-.09-.2-.14-.45-.14-.73,0-.05,0-.11.01-.18,0-.07.02-.13.03-.19l.68-3.2h1.16l-.65,3.06s-.02.11-.03.18-.01.13-.01.19c0,.22.07.37.2.47s.29.15.49.15c.13,0,.26-.02.39-.06s.25-.1.35-.18c.11-.08.2-.18.28-.31.08-.13.14-.27.18-.45l.65-3.06h1.16l-.67,3.13c-.07.36-.19.67-.34.93ZM100.05,71.07c-.16.22-.38.39-.66.52.21.11.37.25.48.44.11.19.16.41.16.66s-.06.46-.17.67c-.11.2-.27.38-.47.52-.2.15-.44.26-.72.34-.28.08-.58.12-.9.12h-1.66l1.08-5.1h1.54c.26,0,.49.03.69.09s.36.14.49.24c.13.1.23.23.29.37.06.14.1.29.1.46,0,.24-.08.46-.23.68ZM102.3,70.77c.02.05.05.11.11.17.05.06.13.13.22.2.09.08.22.17.37.27.14.1.26.2.36.3s.18.2.24.31c.06.11.11.23.13.35.03.13.04.26.04.41,0,.25-.05.48-.16.68-.1.2-.25.38-.43.52-.18.14-.39.25-.64.33-.25.08-.51.12-.79.12-.26,0-.49-.02-.7-.07-.21-.05-.4-.13-.57-.24l.18-1.32h.02c.2.2.4.35.59.45s.41.15.63.15c.21,0,.37-.05.49-.16.11-.1.17-.24.17-.41,0-.07-.01-.13-.03-.19s-.06-.13-.12-.19c-.06-.07-.13-.14-.22-.22-.09-.08-.2-.16-.34-.26-.15-.1-.27-.2-.36-.3-.09-.1-.17-.2-.23-.3-.06-.1-.1-.21-.13-.33-.02-.11-.04-.24-.04-.36,0-.23.05-.44.14-.63.09-.19.21-.35.37-.49.16-.13.34-.24.55-.31.21-.07.43-.11.67-.11.48,0,.93.09,1.33.28l-.25,1.18c-.22-.16-.42-.27-.59-.35-.17-.07-.33-.11-.48-.11-.17,0-.3.05-.4.14-.1.09-.15.2-.15.33,0,.05,0,.1.03.16Z"/>
    </g>
  </g>
</svg>