<?xml version="1.0" encoding="UTF-8"?>
<svg id="Layer_1" data-name="Layer 1" xmlns="http://www.w3.org/2000/svg" viewBox="0 0 129.12 111.82">
  <defs>
    <style>
      .cls-1 {
        fill: #f5a214;
      }

      .cls-1, .cls-2 {
        stroke-width: 0px;
      }

      .cls-2 {
        fill: #fff;
      }
    </style>
  </defs>
  <polygon class="cls-2" points="94.14 4.68 34.98 4.68 5.4 55.91 34.98 107.15 94.14 107.15 123.72 55.91 94.14 4.68"/>
  <path class="cls-1" d="M96.84,0H32.28L0,55.91l32.28,55.91h64.56l32.28-55.91L96.84,0ZM94.14,107.15h-59.16L5.4,55.91,34.98,4.68h59.16l29.58,51.23-29.58,51.23Z"/>
  <g>
    <path class="cls-1" d="M91.4,9.45h-53.68L10.93,55.92l26.79,46.5h53.68l26.84-46.49-26.84-46.49ZM78.55,46.07h5.44v21.36h-5.44v-21.36ZM28.16,41.18l.89-2.68c.07-.24.34-.47.58-.52l2.76-.56c.24-.05.58.06.74.24l1.87,2.11c.17.18.24.53.16.77l-.89,2.68c-.07.24-.34.47-.58.52l-2.76.56c-.24.05-.58-.06-.74-.24l-1.87-2.11c-.17-.18-.24-.53-.16-.77ZM29.55,58.22l-.74,2.23c-.16.47-.68.94-1.16,1.03l-2.31.48c-.48.1-1.15-.12-1.48-.49l-1.56-1.76c-.32-.37-.47-1.06-.31-1.52l.74-2.23c.16-.47.68-.94,1.16-1.03l2.31-.48c.48-.1,1.15.12,1.48.49l1.56,1.76c.32.37.47,1.06.31,1.52ZM30.75,56.47l-2.73-3.06c-.49-.55-.71-1.58-.47-2.29l1.3-3.89c.23-.71,1.02-1.4,1.74-1.55l4.01-.83c.73-.14,1.73.18,2.22.73l2.71,3.07c.49.55.71,1.58.47,2.29l-1.28,3.88c-.23.71-1.02,1.4-1.74,1.55l-4.01.83c-.73.14-1.73-.18-2.22-.73ZM50.04,61.03l-.86,1.61c-.07.14-.22.23-.38.24l-1.83.06c-.16,0-.31-.07-.4-.22l-.96-1.55c-.08-.13-.08-.31-.01-.44l.86-1.61c.07-.14.22-.23.38-.24l1.82-.06c.16,0,.31.07.4.22l.96,1.55c.08.13.08.3.01.44ZM53.27,67.43l-5.31-15.73s-.02-.08-.04-.12c-.01-.02-.02-.06-.04-.1-.01.05-.04.11-.05.14-.02.05-.04.08-.05.12l-5.22,15.68h-5.84l.17-.58c.38-1.27.98-3.23,1.8-5.81.91-2.83,1.81-5.6,2.69-8.21,1.31-3.88,1.67-4.65,1.82-4.89.47-.66,1.13-1.15,1.98-1.49.82-.31,1.72-.48,2.68-.48s1.84.16,2.67.48c.85.34,1.51.83,1.96,1.48.18.24.56,1.03,1.86,4.87.67,2.01,1.56,4.77,2.65,8.21.6,1.93,1.21,3.88,1.83,5.82l.18.59h-5.75ZM60.16,64.08c-1.28-1.93-1.95-4.35-1.95-7.17s.66-5.36,1.97-7.38c1.49-2.29,3.52-3.46,6.03-3.46h10.47v5.21h-9.71c-.94,0-1.66.5-2.21,1.54-.53,1-.8,2.25-.8,3.72s.28,2.83.83,3.9c.56,1.1,1.28,1.64,2.2,1.64h9.71v5.33h-10.47c-2.56,0-4.6-1.13-6.06-3.34ZM80.19,72.49c-.15.37-.36.7-.63.99-.27.29-.58.52-.95.69-.37.17-.76.26-1.18.26-.34,0-.65-.06-.92-.17s-.5-.27-.69-.47c-.19-.2-.33-.44-.44-.71s-.15-.58-.15-.91c0-.42.08-.82.24-1.19.16-.37.38-.69.65-.97s.59-.49.96-.65c.36-.16.75-.24,1.16-.24.33,0,.64.05.91.16.27.11.5.26.69.45.19.19.33.42.43.69.1.27.15.57.15.9,0,.4-.08.78-.23,1.16ZM84.28,72.02c0,.06-.02.13-.03.19l-.46,2.13h-1.09l.4-1.88c.01-.07.02-.13.02-.19,0-.22-.11-.33-.34-.33-.09,0-.17.02-.25.05-.08.03-.15.07-.21.12-.08.07-.14.14-.19.21-.05.08-.09.18-.11.31l-.36,1.72h-1.09l.7-3.3h1.09l-.07.35c.11-.08.2-.15.3-.21.09-.06.18-.1.27-.14s.17-.06.26-.08c.09-.02.18-.02.27-.02.29,0,.51.08.67.25s.23.39.23.67c0,.04,0,.1,0,.16ZM85.8,57.12c0-.26,0-.48.01-.64.01-.14.02-.28.05-.4v-10.01h5.44v10.04c0,1.64.35,3.04,1.02,4.14.76,1.24,1.77,1.84,3.09,1.84h0s8.62.01,8.62.01v5.33h-8.61c-2.68,0-4.84-.7-6.45-2.07-1.26-1.07-2.15-2.55-2.67-4.37-.34-1.18-.5-2.49-.5-3.88ZM88.44,74.34h-1.16l.86-4.04h-1.62l.22-1.06h4.4l-.22,1.06h-1.62l-.86,4.04ZM91.91,74.34h-1.16l1.08-5.1h1.16l-1.08,5.1ZM99.13,74.34h-1.12l.65-3.05-2.28,3.05h-.61l-.98-3.05-.65,3.05h-1.12l1.08-5.1h1.12l1.11,3.48,2.6-3.48h1.27l-1.08,5.1ZM103.65,71.23l-.2.94h-1.58l-.25,1.16h1.88l-.21,1h-3.04l1.08-5.1h3.04l-.21,1.01h-1.88l-.21.98h1.58Z"/>
    <path class="cls-1" d="M78.95,70.54c-.09-.11-.2-.19-.34-.25s-.28-.09-.44-.09c-.23,0-.46.05-.67.15-.21.1-.4.23-.56.4-.16.17-.29.37-.38.59s-.14.47-.14.73c0,.19.03.36.08.53.05.16.12.3.21.42.09.12.21.21.34.27.13.07.29.1.45.1.25,0,.48-.06.69-.17.21-.11.4-.26.55-.45.16-.18.28-.39.37-.62.09-.23.13-.46.13-.7,0-.18-.02-.35-.07-.51-.05-.15-.12-.28-.21-.39Z"/>
  </g>
</svg>