<?xml version="1.0" encoding="UTF-8"?>
<svg id="Layer_1" data-name="Layer 1" xmlns="http://www.w3.org/2000/svg" viewBox="0 0 129.12 111.82">
  <defs>
    <style>
      .cls-1 {
        fill: #dd5b19;
      }

      .cls-1, .cls-2 {
        stroke-width: 0px;
      }

      .cls-2 {
        fill: #fff;
      }
    </style>
  </defs>
  <polygon class="cls-2" points="94.14 4.68 34.98 4.68 5.4 55.91 34.98 107.15 94.14 107.15 123.72 55.91 94.14 4.68"/>
  <path class="cls-1" d="M96.84,0H32.28L0,55.91l32.28,55.91h64.56l32.28-55.91L96.84,0ZM94.14,107.15h-59.16L5.4,55.91,34.98,4.68h59.16l29.58,51.23-29.58,51.23Z"/>
  <g>
    <path class="cls-1" d="M78.49,52.08c-.03-.43-.06-.87-.08-1.3-.03-.2-.06-.41-.09-.61,0-.06,0-.11,0-.17-.03-.12-.05-.23-.08-.35-.02-.08-.03-.16-.05-.23-.07-.36-.15-.72-.22-1.08-.09-.49-.18-.98-.28-1.47-.14-.44-.28-.88-.42-1.32-.17-.44-.34-.87-.51-1.31-.17-.45-.35-.89-.52-1.34-.49-.86-.98-1.72-1.46-2.58-.2-.22-.41-.44-.61-.67-.18-.21-.35-.43-.53-.64-.24-.23-.47-.46-.71-.7-.77-.68-1.67-1.12-2.63-1.46-.46-.03-.92-.06-1.38-.09-.47.02-.94.05-1.4.07-.99.15-1.74.75-2.53,1.3-.32.29-.64.58-.97.87l-.5.53c-.18.23-.36.46-.53.69-.37.59-.76,1.17-1.12,1.76-.18.3-.3.62-.45.94-.18.41-.35.81-.53,1.22-.11.26-.22.53-.33.79,0,.03-.01.05-.01.08-.03.14-.07.29-.1.43-.14.47-.28.94-.42,1.4-.11.38-.23.76-.34,1.14-.01.17-.02.34-.03.51-.08.32-.15.64-.23.97-.06.43-.11.87-.17,1.3-.06.44-.12.88-.18,1.32,0,.43,0,.87,0,1.3,0,.44-.01.87-.02,1.31,0,.43.02.87.03,1.3,0,.44,0,.88,0,1.32.06.43.11.87.17,1.3.06.44.12.87.18,1.31.08.38.15.76.23,1.14,0,.06.02.11.03.17.12.43.23.87.35,1.3.13.44.26.88.39,1.32.22.63.44,1.26.67,1.88.11.28.26.55.39.82.13.28.24.58.4.84.35.57.73,1.11,1.09,1.67.2.26.4.53.61.79.17.17.34.35.51.52.3.29.59.57.89.86.51.32.99.66,1.52.94.34.18.73.25,1.1.37.43.06.87.11,1.3.17.44-.06.88-.13,1.32-.19.99-.27,1.83-.8,2.6-1.47.24-.22.48-.45.71-.67.56-.35.73-1.03,1.25-1.45.33-.26.49-.74.72-1.13.24-.45.48-.9.72-1.36.34-.84.68-1.69,1.02-2.53.12-.43.25-.86.37-1.29.11-.47.22-.94.33-1.4.03-.18.07-.36.1-.54.11-.69.22-1.38.34-2.07.03-.44.06-.88.08-1.31.03-.43.06-.87.09-1.3,0-.44,0-.88,0-1.31,0-.43,0-.87,0-1.3-.03-.44-.06-.88-.08-1.31ZM72.07,56l-.38,1.31c-.09.18-.17.35-.26.53-.15.23-.29.46-.44.69-.58.57-1.15,1.14-1.73,1.71-.11.11-.23.19-.35.29-.38.2-.75.4-1.13.6-.09.03-.17.06-.26.1-.4.12-.81.25-1.21.37-.43.07-.87.13-1.3.2-.38,0-.66-.13-.71-.56l-.26-1.47c-.05-.41-.1-.82-.16-1.23-.06-.84-.13-1.68-.19-2.51,0-.44-.01-.88-.02-1.31,0-.43.01-.87.02-1.3.03-.44.06-.88.09-1.31,0-.17.01-.35.02-.52.02-.26.05-.53.07-.79.06-.43.12-.87.18-1.3.09-.44.17-.87.26-1.31.02-.46.22-.69.7-.62.43.07.87.14,1.3.21.41.14.82.28,1.23.42.08.03.17.07.25.1.35.17.7.34,1.05.51.54.47,1.09.93,1.63,1.41.17.15.3.33.46.49.21.31.41.62.62.94.09.19.17.38.26.57.12.4.25.8.37,1.2l.09,1.31c-.06.43-.11.87-.17,1.3Z"/>
    <path class="cls-1" d="M91.37,9.45h-53.68L10.91,55.92l26.79,46.5h53.68l26.84-46.49-26.84-46.49ZM93.74,41.56l1.31-.78c.23-.12.46-.24.69-.36.21-.11.41-.22.62-.34.19-.09.39-.16.57-.27.36-.22.68-.49,1.05-.69.34-.18.71-.3,1.07-.45.24-.14.45-.14.65.08.41.45.64.98.76,1.57-.06.11-.13.22-.19.33-.87.53-1.74,1.07-2.61,1.6-.32.2-.64.39-.96.59-.11.06-.23.13-.34.19-.72.42-1.45.83-2.17,1.25-.15.09-.3.19-.45.29-.87.49-1.75.99-2.62,1.48-.3.15-.61.29-.9.45-.61.34-1.21.69-1.81,1.04-.4.15-.8.3-1.2.46-.32-.38-.63-.76-.95-1.15-.18-.59-.13-.73.33-1.05.07-.05.13-.11.19-.16.14-.09.29-.18.43-.27.92-.56,1.81-1.16,2.77-1.65.85-.5,1.7-1,2.55-1.49.35-.2.7-.41,1.05-.61.05-.03.11-.05.16-.08ZM45.04,79.52c-.02.44-.04.87-.07,1.31v1.31c-.03.43-.06.87-.09,1.3-.07.43-.13.87-.2,1.3-.3.61-.67,1.15-1.31,1.46-.29.14-.57.31-.86.46h-.44c-.4-.02-.81-.05-1.21-.07-.09,0-.18,0-.28,0-.32.02-.63.05-.95.07h-.78c-.42-.16-.83-.32-1.25-.48l-.03-.02-.03-.02c-.08-.06-.17-.12-.25-.18-.27-.4-.54-.8-.8-1.21l-.15-.62c0-.23-.02-.46-.02-.69l-.08-1.31v-1.3c0-.44,0-.87,0-1.31,0-.43,0-.87,0-1.3v-1.31c-.02-.43-.04-.87-.07-1.3.02-.44.04-.88.06-1.31-.03-.43-.05-.87-.08-1.3,0-.44,0-.88,0-1.31.01-.43.03-.86.04-1.29,0-.44-.01-.88-.02-1.31v-1.31c.03-.22.06-.44.09-.66.43,0,.86,0,1.29,0,.44,0,.88,0,1.32,0,.43,0,.86,0,1.29,0,.44,0,.88,0,1.32,0,.43,0,.86,0,1.29,0,.44,0,.88,0,1.33,0h.94c0,.19,0,.33,0,.47,0,3.87,0,7.73,0,11.6,0,.12,0,.23,0,.35ZM82.26,57.32c-.03.43-.06.87-.09,1.3-.03.44-.06.88-.09,1.31-.14.87-.28,1.74-.43,2.6-.09.38-.18.76-.27,1.14-.09.46-.19.92-.28,1.38-.14.47-.28.94-.42,1.4-.05.17-.1.34-.15.51-.1.26-.19.53-.29.79-.15.4-.3.8-.46,1.2-.28.59-.57,1.18-.85,1.77-.12.25-.24.5-.36.76-.28.47-.54.96-.85,1.42-.32.46-.69.89-1.03,1.34-.43.43-.86.86-1.3,1.29-.75.76-1.61,1.36-2.57,1.83l-1.31.43c-.43.06-.87.12-1.3.18-.44-.03-.88-.06-1.31-.09-.43-.12-.87-.25-1.3-.37-.2-.12-.39-.25-.6-.36-.67-.37-1.35-.73-2.02-1.09l-2.6-1.52c-.16-.08-.32-.16-.47-.24-.25-.15-.49-.29-.74-.44-.47-.28-.94-.57-1.41-.85-.06-.04-.11-.07-.17-.11-.38-.21-.75-.41-1.13-.62-.87-.52-1.75-1.04-2.62-1.56-.1-.08-.19-.17-.3-.23-.29-.14-.6-.24-.87-.4-.5-.29-.97-.62-1.45-.93-.11-.06-.23-.13-.34-.19-.32-.2-.64-.39-.96-.59-.84-.5-1.67-1.01-2.51-1.51-.3-.17-.6-.35-.9-.51-.16-.08-.34-.13-.49-.22-.43-.26-.85-.54-1.28-.81-.16-.09-.32-.18-.47-.27-.29-.02-.58-.04-.88-.07h-1.3c-.44,0-.88,0-1.31,0-.43,0-.87,0-1.3,0-.44-.02-.88-.03-1.32-.05-.43,0-.86-.02-1.3-.03-.87,0-1.74,0-2.61-.01-.43,0-.87-.01-1.3-.02-.44-.05-.87-.1-1.31-.15-.41-.14-.82-.29-1.23-.43-.9-.5-1.79-1.01-2.69-1.51-.11-.09-.22-.17-.33-.26-.32-.31-.65-.62-.97-.93-.12-.13-.23-.25-.35-.38-.53-.9-1.06-1.8-1.59-2.69-.14-.41-.29-.82-.43-1.22-.03-.17-.05-.33-.08-.5-.06-.33-.12-.66-.17-.98v-3.66c.08-.04.21-.07.24-.13.17-.41.32-.84.47-1.26.5-.87.99-1.74,1.49-2.6.14-.14.28-.29.43-.43.26-.26.52-.53.78-.79.18-.15.35-.29.53-.44.06-.02.12-.05.18-.07.03-.04.06-.07.1-.11.05-.03.11-.05.16-.08.03-.03.07-.06.1-.1l.17-.07s.07-.07.1-.11c.05-.03.11-.05.16-.08.06-.03.13-.06.19-.09.19-.12.36-.25.56-.34.29-.14.6-.25.9-.37.44-.14.87-.27,1.31-.41l1.3-.17c.43,0,.87-.02,1.3-.03.44-.02.87-.04,1.31-.07.44,0,.87,0,1.31-.01h5.23c.47,0,.93,0,1.4.01.22.1.44.19.61-.08.23-.12.47-.24.7-.35.27-.15.54-.28.79-.45.21-.15.37-.38.59-.5.4-.23.82-.41,1.24-.62.84-.49,1.68-.98,2.51-1.47.32-.18.63-.36.95-.55.12-.08.24-.15.36-.23.22-.12.45-.23.65-.37.3-.21.56-.48.87-.66.34-.2.72-.32,1.08-.48.91-.54,1.81-1.09,2.72-1.63.31-.18.63-.36.94-.54.12-.08.24-.16.36-.24.19-.1.38-.17.55-.29.3-.2.58-.43.97-.73.37.09.71-.29,1.09-.55.87-.49,1.74-.99,2.61-1.48.37-.21.75-.42,1.12-.63.03-.02.06-.05.09-.07.43-.24.87-.47,1.3-.71.44-.11.87-.23,1.31-.34.43,0,.87,0,1.3,0,.44.06.87.12,1.31.17.43.15.87.31,1.3.46,1,.39,1.81,1.06,2.61,1.74.03.03.06.06.09.09.37.38.74.75,1.11,1.13.04.06.08.11.11.17.61.88,1.21,1.75,1.82,2.63.4.84.81,1.68,1.21,2.52.16.43.33.87.49,1.3.1.29.2.59.29.88.06.17.12.35.18.52.13.46.25.92.38,1.37.09.38.17.76.26,1.14.09.43.17.87.26,1.3.08.35.15.7.23,1.05.01.08.02.17.03.25.06.44.12.88.17,1.31.03.43.06.87.09,1.3.03.44.06.88.09,1.31.03.43.06.87.09,1.3,0,.44,0,.88,0,1.31,0,.43,0,.86,0,1.3l-.1,1.32ZM83.39,37.19c.14-.26.29-.52.43-.78.23-.4.46-.81.7-1.21.04-.1.07-.19.11-.29l.67-1.02c.52-.9,1.03-1.81,1.55-2.71.22-.36.54-.68.49-1.06.17-.19.32-.33.42-.49.21-.32.39-.65.58-.98.07-.11.13-.23.2-.34l.6-1.05c.44-.72.89-1.43,1.32-2.15.16-.27.34-.44.68-.39.4.24.81.47,1.21.71.1.15.2.29.3.44-.18.41-.33.83-.53,1.22-.25.5-.54.98-.81,1.47-.09.14-.18.29-.26.43-.14.26-.29.52-.43.78-.26.44-.51.88-.77,1.32-.04.09-.07.17-.11.26-.22.38-.45.76-.67,1.14-.47.84-.94,1.68-1.41,2.52-.52.9-1.05,1.8-1.57,2.7-.06.11-.11.23-.17.34-.2.29-.4.58-.6.88-.23.07-.46.13-.69.2-.14-.07-.29-.13-.43-.2-.29-.21-.58-.41-.87-.62-.06-.14-.13-.28-.19-.42.09-.23.19-.46.28-.69ZM92.43,83.86c-.4.21-.81.43-1.21.64-.03.02-.07.05-.1.07h0c-.28.04-.46-.04-.62-.31-.41-.72-.87-1.41-1.3-2.12-.22-.35-.45-.71-.67-1.06-.05-.09-.11-.17-.16-.26-.12-.25-.23-.51-.38-.74-.21-.32-.47-.61-.66-.93-.18-.29-.3-.62-.44-.93-.53-.9-1.06-1.8-1.58-2.71-.18-.35-.37-.69-.55-1.04-.03-.05-.06-.11-.09-.16-.24-.43-.49-.87-.73-1.3-.19-.35-.37-.7-.56-1.05-.05-.09-.1-.18-.15-.27-.28-.32.03-.48.18-.69.26-.17.51-.35.77-.52.2-.09.4-.19.6-.28.17.07.34.13.52.2.18.29.36.58.53.87.12.18.23.35.35.53.01.05.02.11.04.16.27.41.56.81.82,1.24.25.41.46.85.69,1.28.47.82.93,1.64,1.4,2.46.23.4.47.79.7,1.19.03.07.06.14.09.2.23.41.45.82.68,1.23.15.26.3.52.44.78.09.17.18.35.26.52.18.34.35.67.54,1,.13.23.3.43.42.66.15.28.26.57.38.86-.07.17-.14.33-.21.5ZM99.53,70.66c-.12.09-.31.11-.46.16-.09-.07-.17-.15-.26-.2-.78-.43-1.57-.86-2.35-1.28-.18-.11-.36-.22-.54-.33-.29-.16-.57-.32-.86-.47-.44-.25-.88-.5-1.32-.75-.06-.03-.11-.07-.17-.1-.33-.19-.66-.38-.99-.57-.89-.51-1.77-1.01-2.66-1.52-.41-.23-.82-.46-1.22-.7-.5-.3-.99-.62-1.49-.93-.11-.06-.23-.13-.34-.19-.35-.33-.93-.54-.6-1.21.23-.4.47-.81.7-1.21.11,0,.23-.02.34-.03l.34.09c.29.14.58.29.88.43.44.25.88.5,1.32.75.03,0,.06,0,.09,0,.4.25.8.5,1.2.75.49.29.98.59,1.47.88.37.22.76.41,1.14.62.35.16.71.28,1.04.48.55.32,1.07.69,1.6,1.04.13.08.27.16.4.23.29.17.59.34.88.51.87.55,1.74,1.1,2.61,1.66.1.11.19.22.29.33-.2.62-.49,1.19-1.03,1.59ZM102.88,55.9c-.43.04-.87.08-1.3.12h-.44c-.26,0-.52-.01-.78-.02-.03,0-.06,0-.09.01-.43,0-.87,0-1.3,0-.44,0-.88,0-1.31.01h-1.3c-.44,0-.88,0-1.31-.01-.43,0-.87,0-1.3,0-.44,0-.87,0-1.31,0-1.31,0-2.61,0-3.92-.01-.03-.02-.06-.04-.09-.06-.77-.03-.94-.22-.95-1.01,0-.07,0-.14-.01-.21,0-.17,0-.34.02-.51.05-.3.09-.63.52-.64.17-.06.34-.12.52-.18.29.03.58.06.87.08.04,0,.07,0,.11,0l1.65-.05c.43,0,.86,0,1.3,0,.44,0,.88,0,1.31,0h5.23c.43,0,.87,0,1.3,0,.44.02.87.04,1.31.06.44,0,.87.01,1.31.02.14.03.29.05.43.08v2.09l-.44.24Z"/>
  </g>
</svg>