<?xml version="1.0" encoding="UTF-8"?>
<svg id="Layer_1" data-name="Layer 1" xmlns="http://www.w3.org/2000/svg" viewBox="0 0 129.12 111.82">
  <defs>
    <style>
      .cls-1 {
        fill: #dd5b19;
      }

      .cls-1, .cls-2 {
        stroke-width: 0px;
      }

      .cls-2 {
        fill: #fff;
      }
    </style>
  </defs>
  <polygon class="cls-2" points="94.14 4.68 34.98 4.68 5.4 55.91 34.98 107.15 94.14 107.15 123.72 55.91 94.14 4.68"/>
  <path class="cls-1" d="M96.84,0H32.28L0,55.91l32.28,55.91h64.56l32.28-55.91L96.84,0ZM94.14,107.15h-59.16L5.4,55.91,34.98,4.68h59.16l29.58,51.23-29.58,51.23Z"/>
  <g>
    <path class="cls-1" d="M70.46,66.76c1.37,1.53,3.01,2.64,4.97,3.24.88.27,1.82.4,2.74.55.59.09.61.04.61-.56v-20.79c0-.85,0-.84-.83-.78-1.25.08-2.44.36-3.59.87-1.62.71-2.99,1.72-4.11,3.08-1.31,1.59-2.18,3.38-2.42,5.43-.16,1.32-.2,2.65.09,3.95.42,1.88,1.25,3.57,2.54,5.02Z"/>
    <path class="cls-1" d="M61.49,57.95c-.67-5.62-5.72-9.68-10.93-9.49v22.18c5.88-.07,11.85-5,10.93-12.69Z"/>
    <path class="cls-1" d="M91.37,9.42h-53.68L10.91,55.9l26.79,46.5h53.68l26.84-46.49-26.84-46.49ZM77.14,29.83c.91-1.62,1.82-3.24,2.78-4.83.54-.91,1.42-1.22,2.45-1.08.78.11,1.35.55,1.68,1.26.11.23.13.5.2.76.03.02.06.03.09.05-.26.59-.47,1.22-.78,1.78-.78,1.38-1.61,2.73-2.4,4.1-.15.27-.3.29-.55.15-1.12-.63-2.24-1.26-3.36-1.9-.07-.04-.13-.22-.09-.29ZM62.33,21.41c.04-1.17.64-1.89,1.85-2.17,1-.23,2.03.21,2.51,1.34.16.38.18.83.19,1.25.03,1.66.02,3.32.02,4.98,0,.48-.06.49-.55.48-.93-.02-1.86.02-2.79.03-.4,0-.81,0-1.25,0,0-2-.04-3.96.02-5.91ZM47.29,23.85c1-.01,1.68.53,2.17,1.38.72,1.25,1.45,2.48,2.17,3.72.21.37.4.75.56,1.08-.62.34-1.15.64-1.68.94-.63.36-1.26.72-1.9,1.06-.09.05-.32,0-.36-.07-.96-1.67-1.93-3.34-2.85-5.03-.76-1.4.34-3.07,1.88-3.09ZM43.42,55.07c0-1.65.32-3.28.75-4.88.73-2.75,1.99-5.25,3.72-7.49.91-1.17,1.93-2.25,3.08-3.2,1.3-1.08,2.68-2.05,4.2-2.78,1.13-.54,2.3-1.03,3.5-1.38,1.15-.34,2.36-.53,3.55-.68,1.11-.14,2.25-.22,3.36-.17,1.79.08,3.56.38,5.29.9,2.27.68,4.37,1.71,6.3,3.09,1.35.97,2.56,2.1,3.66,3.36,1.08,1.25,2.01,2.6,2.78,4.05.78,1.48,1.4,3.03,1.74,4.68.19.9.37,1.8.55,2.69,0,.04,0,.08,0,.12.04,1.29.12,2.58.13,3.87.01,6.5.01,13,0,19.51,0,.44-.05.88-.08,1.34h-42.57v-.46c0-7.52-.02-15.03.02-22.55ZM33.46,40.48c-.6-.41-.99-.96-.93-1.69-.06-1.57,1.67-2.91,3.3-2.05,1.34.71,2.65,1.5,3.97,2.26.27.16.52.36.81.47.31.12.34.28.19.54-.46.79-.91,1.58-1.36,2.36-.16.28-.34.56-.49.85-.13.24-.28.3-.52.16-1.18-.69-2.36-1.37-3.54-2.06-.48-.28-.97-.54-1.43-.85ZM93.94,90.36c-.06.67-.45,1.14-1.03,1.46-.15.09-.28.21-.43.32h-55.33c-.06-.05-.1-.14-.17-.15-.78-.2-1.4-.99-1.39-1.69.01-.93-.02-1.86,0-2.8.02-.85.56-1.53,1.4-1.68.79-.14,1.59-.15,2.3-.21-.04-.31-.13-.72-.15-1.13-.03-.61,0-1.22-.02-1.82-.04-1.42.76-2.36,2.31-2.33.35,0,.7,0,1.05,0,15.11,0,30.22,0,45.33,0,.33,0,.68.02,1,.09.83.19,1.35.77,1.45,1.58.14,1.2.16,2.41-.13,3.64.41,0,.82,0,1.23,0,1.75-.04,2.69,1.13,2.64,2.66-.02.68-.03,1.37-.08,2.05ZM95.65,40.54c-1.59.93-3.17,1.85-4.77,2.76-.1.06-.36.03-.4-.04-.7-1.22-1.38-2.45-2.06-3.69,1.64-.97,3.24-1.94,4.87-2.88.85-.48,1.73-.44,2.56.08.71.44,1.03,1.45.87,2.27-.14.7-.51,1.16-1.08,1.49Z"/>
  </g>
</svg>