<?xml version="1.0" encoding="UTF-8"?>
<svg id="Layer_1" data-name="Layer 1" xmlns="http://www.w3.org/2000/svg" xmlns:xlink="http://www.w3.org/1999/xlink" viewBox="0 0 124.8 108.08">
  <defs>
    <style>
      .cls-1 {
        fill: url(#linear-gradient);
      }

      .cls-1, .cls-2, .cls-3 {
        stroke-width: 0px;
      }

      .cls-2 {
        fill: url(#linear-gradient-2);
      }

      .cls-3 {
        fill: #fff;
      }
    </style>
    <linearGradient id="linear-gradient" x1="-2137.21" y1="54.04" x2="-2012.41" y2="54.04" gradientTransform="translate(-2012.41) rotate(-180) scale(1 -1)" gradientUnits="userSpaceOnUse">
      <stop offset="0" stop-color="#f5a214"/>
      <stop offset="1" stop-color="#e05b19"/>
    </linearGradient>
    <linearGradient id="linear-gradient-2" x1="-2127.48" y1="54.04" x2="-2022.15" y2="54.04" gradientTransform="translate(-2012.41) rotate(-180) scale(1 -1)" gradientUnits="userSpaceOnUse">
      <stop offset="0" stop-color="#e05b19"/>
      <stop offset="1" stop-color="#f5a214"/>
    </linearGradient>
  </defs>
  <polygon class="cls-1" points="31.2 0 93.6 0 124.8 54.04 93.6 108.08 31.2 108.08 0 54.04 31.2 0"/>
  <polygon class="cls-2" points="36.07 8.43 88.73 8.43 115.06 54.04 88.73 99.65 36.07 99.65 9.74 54.04 36.07 8.43"/>
  <path class="cls-3" d="M56.63,11.18c3.66,2.33,7,4.94,10.28,7.69,3.81,6.88,13.61,23.6,17.65,30.67,0,0,1.44,2.5,1.44,2.5-4.68,8.06-14.54,25.22-19.14,33.15-2.32,1.97-5.05,4.04-7.53,5.87-3.17,2.14-2.8,2.66-2.45-1.41.34-3.08.78-6.45,1.32-9.45,3.73-6.46,13.83-23.96,17.69-30.65,0,0,0,5,0,5-4.18-7.1-13.61-23.78-17.74-30.62-.75-4.21-1.33-8.41-1.52-12.74h0Z"/>
  <path class="cls-3" d="M56.63,36.45c1.8.53,3.67,1.31,5.31,2.13,1.45,2.64,5.17,9.01,6.72,11.71,0,0,1.01,1.75,1.01,1.75l-1.01,1.75c-1.48,2.57-5.32,9.21-6.75,11.69-1.67.77-3.32,1.55-5.28,2.15-.47-2-.61-3.82-.78-5.65,1.42-2.45,5.28-9.15,6.75-11.69,0,0,0,3.5,0,3.5-1.6-2.72-5.18-9.07-6.78-11.68.11-1.83.37-3.85.81-5.67h0Z"/>
</svg>