<?xml version="1.0" encoding="UTF-8"?>
<svg id="Layer_1" data-name="Layer 1" xmlns="http://www.w3.org/2000/svg" viewBox="0 0 129.12 111.82">
  <defs>
    <style>
      .cls-1 {
        fill: #dd5b19;
      }

      .cls-1, .cls-2 {
        stroke-width: 0px;
      }

      .cls-2 {
        fill: #fff;
      }
    </style>
  </defs>
  <polygon class="cls-2" points="94.14 4.68 34.98 4.68 5.4 55.91 34.98 107.15 94.14 107.15 123.72 55.91 94.14 4.68"/>
  <path class="cls-1" d="M96.84,0H32.28L0,55.91l32.28,55.91h64.56l32.28-55.91L96.84,0ZM94.14,107.15h-59.16L5.4,55.91,34.98,4.68h59.16l29.58,51.23-29.58,51.23Z"/>
  <path class="cls-1" d="M91.39,9.44h-53.66L10.91,55.91l26.83,46.47h53.66l26.82-46.45-26.82-46.48ZM27.23,44.3c-.07-.05-.15-.19-.13-.22.06-.09.16-.17.26-.19,1.53-.39,3.07-.76,4.6-1.16,1.93-.5,3.86-1.02,5.79-1.52,2.61-.67,5.22-1.33,7.83-2,2.29-.59,4.57-1.19,6.86-1.78,1.98-.51,3.96-1.01,5.94-1.51,1.81-.46,3.63-.93,5.44-1.39,1.9-.49,3.8-.98,5.71-1.47,2.36-.61,4.72-1.23,7.09-1.84,1.81-.46,3.62-.9,5.43-1.36.47-.12.94-.26,1.43-.39,1.43,5.62,2.9,11.16,4.28,16.7-.81.19-1.49.35-2.15.51-1.05.26-2.1.53-3.15.8-1.04.27-2.08.55-3.13.81-1.96.5-3.93.98-5.9,1.49-1.04.27-2.07.58-3.1.84-1.42.36-2.84.68-4.26,1.04-.77.19-1.53.44-2.29.64-1.31.34-2.62.66-3.92,1-1.42.37-2.83.76-4.26,1.12-1.17.3-2.35.55-3.53.85-1.3.33-2.6.68-3.9,1.02-1.05.28-2.09.56-3.14.83-.3.08-.58.04-.87-.18-1.68-1.28-3.39-2.53-5.08-3.79-1.22-.92-2.42-1.86-3.65-2.77-1.79-1.32-3.6-2.61-5.39-3.93-.95-.7-1.88-1.43-2.82-2.15ZM36.21,63.05c-.61.16-1.23.28-1.85.42-.59.14-.57.15-.72-.42-.33-1.28-.68-2.56-1.02-3.84-.48-1.82-.95-3.64-1.44-5.46-.05-.19-.18-.36-.19-.55,0-.12.12-.33.24-.37.54-.17,1.09-.29,1.64-.43.51-.13,1.02-.26,1.53-.39.3-.08.48-.05.57.34.21.96.47,1.9.72,2.85.41,1.61.82,3.23,1.23,4.84.22.85.44,1.69.67,2.58-.46.14-.92.3-1.38.42ZM94.15,81.88c-.02-.15-.04-.31-.06-.47,0-.08,0-.16,0-.25,0-1.85.01-3.7,0-5.55,0-.63-.06-1.27-.09-1.9-.06-.04-.11-.09-.17-.13-2.54,0-5.08-.02-7.62-.01-.13,0-.3.08-.38.18-.95,1.08-2.13,1.75-3.55,2-2.26.4-4.16-.34-5.67-2-.85-.94-1.39-2.08-1.53-3.37-.06-.54,0-1.09-.02-1.64,0-.12-.08-.28-.17-.36-1-.79-2.02-1.57-3.02-2.35-1.39-1.09-2.77-2.18-4.17-3.26-.87-.67-1.86-1.22-2.62-1.99-.65-.65-1.2-.22-1.75-.09-1.55.35-3.08.79-4.62,1.2-2.62.68-5.24,1.37-7.87,2.04-1.99.51-3.99.99-5.98,1.49-.38.09-.75.21-1.12.32-.63.15-1.26.29-1.88.44-.25.06-.5.12-.76.18-1-3.94-1.99-7.79-2.99-11.74.17.09.32.14.43.22,1.72,1.3,3.44,2.61,5.17,3.92.35.26.68.27,1.12.12.96-.31,1.95-.51,2.93-.76,1.42-.36,2.84-.74,4.26-1.1,1.72-.43,3.45-.84,5.17-1.28,1.69-.43,3.38-.89,5.07-1.34,1.75-.46,3.5-.91,5.26-1.36,2.52-.65,5.04-1.29,7.56-1.93,1.89-.48,3.77-.96,5.66-1.44,1.39-.36,2.77-.72,4.16-1.08,1-.26,1.99-.53,2.98-.79.11-.03.24,0,.37,0,.44,1.77.86,3.52,1.29,5.27.06.24.26.58.18.68-.18.19-.49.28-.77.35-1.54.4-3.1.76-4.64,1.16-2.08.54-4.15,1.09-6.23,1.63-.88.23-1.76.43-2.64.66-.59.15-.65.36-.25.81.81.91,1.62,1.83,2.44,2.75.61.68,1.24,1.35,1.8,2.06.36.46.81.4,1.25.35,1-.1,1.96.04,2.89.41,1.61.64,2.71,1.82,3.41,3.39.05.11.03.26.1.34.1.12.25.28.38.28,2.15.02,4.29,0,6.44,0,.04,0,.08-.02.22-.05,0-1.29,0-2.61,0-3.93,0-1.34,0-2.68,0-4.02,0-.25.06-.36.32-.31.04,0,.08,0,.11,0h7.51v22.23h-7.88Z"/>
</svg>