<?xml version="1.0" encoding="UTF-8"?>
<svg id="Layer_1" data-name="Layer 1" xmlns="http://www.w3.org/2000/svg" viewBox="0 0 129.12 111.82">
  <defs>
    <style>
      .cls-1 {
        fill: #dd5b19;
      }

      .cls-1, .cls-2 {
        stroke-width: 0px;
      }

      .cls-2 {
        fill: #fff;
      }
    </style>
  </defs>
  <polygon class="cls-2" points="94.14 4.68 34.98 4.68 5.4 55.91 34.98 107.15 94.14 107.15 123.72 55.91 94.14 4.68"/>
  <path class="cls-1" d="M96.84,0H32.28L0,55.91l32.28,55.91h64.56l32.28-55.91L96.84,0ZM94.14,107.15h-59.16L5.4,55.91,34.98,4.68h59.16l29.58,51.23-29.58,51.23Z"/>
  <g>
    <path class="cls-1" d="M74.76,48.66c-.27,0-.55.34-.8.55-.44.39-.83.83-1.28,1.19-1.34,1.06-2.85,1.68-4.56,2-1.35.25-2.64.2-3.92-.13-2.31-.59-4.19-1.87-5.6-3.79-1.31-1.79-1.94-3.83-1.98-6.03-.01-.8.16-1.63.39-2.4.93-3.23,2.94-5.51,6.1-6.74,1.73-.68,3.5-.64,5.29-.39,2.34.32,4.2,1.54,5.76,3.25.25.27.43.39.77.39,1.18,0,2.36,0,3.54,0h2.63c.01-.22.02-.37.02-.52,0-2.79,0-5.58,0-8.37,0-.9-.17-1.06-1.1-1.06-8.97,0-17.93,0-26.9,0-.84,0-.98.13-.98.95,0,18.73,0,37.45,0,56.18,0,.89.15,1.04,1.03,1.04,8.9,0,17.8,0,26.7,0,1.13,0,1.24-.12,1.24-1.24,0-11.37,0-22.74,0-34.11v-.8c-2.18,0-4.28-.02-6.37.03ZM71.83,69.37c-.89,1.04-1.97,1.72-3.26,2.22,0,1.79,0,3.54,0,5.3,0,.95-.41,1.66-1.26,2.07-1.13.54-2.59-.39-2.6-1.65-.02-1.72-.02-3.43,0-5.15,0-.44-.17-.62-.55-.77-2.3-.93-3.71-2.62-4.22-5.06-.72-3.41,1.44-6.78,4.49-7.74,3.89-1.23,8.1,1.05,8.86,5.23.37,1.99-.06,3.92-1.46,5.55Z"/>
    <path class="cls-1" d="M66.54,62.11c-1.56-.05-2.92,1.47-2.88,2.91.05,1.8,1.41,2.97,2.9,3,1.4.03,3.16-1.33,2.91-2.97.18-1.68-1.28-2.91-2.93-2.95Z"/>
    <path class="cls-1" d="M89.34,40.41c-5.14-.01-10.29-.02-15.43,0-1.02,0-1.72-.33-2.28-1.24-1.22-1.97-4.04-3.05-6.31-2.52-3.44.8-5.28,3.92-4.7,7.05.57,3.09,3.47,5.43,6.84,4.9,1.67-.26,3.05-1.04,4-2.44.68-1,1.51-1.46,2.76-1.42,2.48.08,4.97.02,7.46.02h0c2.66,0,5.32-.03,7.97,0,1.42.02,2.79-1.67,1.87-3.28-.48-.85-1.29-1.09-2.18-1.09Z"/>
    <path class="cls-1" d="M91.37,9.45h-53.68L10.91,55.92l26.79,46.5h53.68l26.84-46.49-26.84-46.49ZM43.18,71.28c-1.48-.07-2.8-.59-4.11-1.15-2.01-.86-3.73-2.15-5.18-3.77-1.94-2.17-3.21-4.71-3.81-7.57-.08-.39-.17-.78-.26-1.17v-3.73c.21-.92.39-1.85.65-2.76.58-2.08,1.62-3.91,2.98-5.58,1.41-1.74,3.12-3.1,5.13-4.06,1.48-.71,3-1.35,4.68-1.37.83,0,1.59.57,1.76,1.32.22.96-.14,1.91-.98,2.24-.84.33-1.74.53-2.6.81-1.42.46-2.65,1.22-3.76,2.23-1.55,1.41-2.68,3.07-3.37,5.05-.72,2.06-.82,4.14-.42,6.27.33,1.75,1.02,3.34,2.09,4.75,1.77,2.34,4.05,3.95,6.94,4.6.79.18,1.57.28,1.99,1.18.59,1.28-.43,2.77-1.73,2.7ZM43.95,59.67c.95.45,1.21,1.04,1.07,2.04-.13.92-.92,1.58-2.35,1.58-.66-.03-1.48-.72-2.27-1.37-1.6-1.31-2.57-3.06-2.81-5.09-.39-3.29.98-6.57,4.15-8.23.66-.35,1.28-.7,2.06-.37.61.26,1.08.63,1.22,1.31.18.84,0,1.54-.77,2.05-.68.46-1.44.75-1.98,1.47-1.6,2.15-.97,5.37,1.69,6.62ZM89.91,48.62c-1.61,0-3.21,0-4.92,0v.78c0,11.41,0,22.82,0,34.23,0,1.08-.17,2.13-.84,3.04-.88,1.2-2.04,1.95-3.54,1.95-9.44.02-18.87.04-28.31-.01-1.77,0-3.46-1.39-3.92-3.54-.1-.45-.08-.93-.08-1.4,0-18.66.01-37.31-.02-55.97,0-2.57,1.43-4.41,3.5-4.86.03,0,.04-.06.06-.1h29.34c.74.38,1.55.66,2.21,1.15,1.22.92,1.6,2.28,1.6,3.75.01,2.89,0,5.79,0,8.69,0,.04,0,.08.03.22.24,0,.48,0,.73,0,1.78.07,3.59,0,5.35.26,2.41.37,4.42,2.89,4.53,5.26.08,1.9-.41,3.51-1.74,4.81-1.08,1.06-2.4,1.74-3.97,1.74Z"/>
  </g>
</svg>