<?xml version="1.0" encoding="UTF-8"?>
<svg id="Layer_1" data-name="Layer 1" xmlns="http://www.w3.org/2000/svg" viewBox="0 0 129.12 111.82">
  <defs>
    <style>
      .cls-1 {
        fill: #dd5b19;
      }

      .cls-1, .cls-2 {
        stroke-width: 0px;
      }

      .cls-2 {
        fill: #fff;
      }
    </style>
  </defs>
  <polygon class="cls-2" points="94.14 4.68 34.98 4.68 5.4 55.91 34.98 107.15 94.14 107.15 123.72 55.91 94.14 4.68"/>
  <path class="cls-1" d="M96.84,0H32.28L0,55.91l32.28,55.91h64.56l32.28-55.91L96.84,0ZM94.14,107.15h-59.16L5.4,55.91,34.98,4.68h59.16l29.58,51.23-29.58,51.23Z"/>
  <g>
    <polygon class="cls-1" points="91.17 9.32 37.51 9.32 10.69 55.79 37.51 102.26 91.17 102.26 118 55.79 91.17 9.32"/>
    <path class="cls-2" d="M69.55,46.06c-1.92-1.12-3.99-1.44-6.13-1.21-1.26.13-2.53.46-3.72.91-.85.32-1.95.73-1.37,2.17,4.06-2.86,8.08-2.73,12.08.04.34-1-.07-1.46-.85-1.91Z"/>
    <path class="cls-2" d="M68.19,48.08c-.83-.24-1.65-.52-2.5-.71-.16-.04-.4.29-.61.46.16.2.32.56.5.57.84.06,1.69.03,2.54.03.02-.12.05-.23.07-.35Z"/>
    <path class="cls-2" d="M69.53,43.24c-3.5-1.29-6.99-1.48-10.47.07-.92.41-.97.49-.69,1.57,4.03-2.13,8.05-2.01,12.04.09.38-.92-.05-1.44-.88-1.74Z"/>
    <path class="cls-2" d="M66.35,54.71c-.99-.89-2.84-.88-3.76-.09-1.28,1.11-1.12,2.99-.47,3.86.29.38.47,1,.41,1.47-.2,1.44-.57,2.86-.83,4.3-.1.55.08,1.01.76,1.02.66,0,1.32,0,1.99,0h0c.6,0,1.21-.03,1.8,0,.63.04.92-.21.81-.84-.2-1.24-.47-2.47-.62-3.72-.09-.78-.49-1.52.3-2.35,1.04-1.09.51-2.85-.39-3.66Z"/>
    <path class="cls-2" d="M63.25,47.96c.02-.19-.18-.51-.36-.58-.52-.21-1.79.4-2.19,1.07.73,0,1.4.03,2.07-.02.18-.02.46-.29.48-.47Z"/>
    <path class="cls-2" d="M42.03,63.94c2.12-1.37,3.33-3.29,3.33-5.86,0-1.07-.12-2.14-.17-3.21-.02-.46.16-1.05-.64-.98-.67.06-.65.57-.62,1.04.05,1.04.1,2.08.18,3.12.19,2.37-1.05,3.92-2.94,5.05-.58.35-.63.67-.27,1.23.39-.13.82-.17,1.14-.38Z"/>
    <path class="cls-2" d="M69.69,41.76c-.42-.84-.89-1.5-1.87-1.66-1.8-.3-3.57-.69-5.44-.36-1.84.32-1.94.27-3.34,2.04,3.67-1.3,7.15-1.2,10.65-.01Z"/>
    <path class="cls-2" d="M42.1,66.51c.25.01.53-.06.76-.18,2.08-1.07,3.65-2.68,4.37-4.9.41-1.27.55-2.65.63-3.99.13-1.98-.08-3.98.18-5.94.29-2.26,1.4-4.26,2.65-6.16.1-.15.15-.32.24-.52-.13-.12-.3-.37-.41-.35-.35.09-.81.19-.97.44-1.94,2.99-3.02,6.27-3.11,9.84-.03,1.25.18,2.51.16,3.76-.04,2.86-1.43,4.96-3.8,6.48-.34.22-.7.42-1.01.68-.11.09-.17.35-.12.49.06.15.26.33.41.34Z"/>
    <path class="cls-2" d="M40.98,61.59c1.42-.8,2.15-2.56,1.84-4.38-.48-2.81-.08-5.57.69-8.25,1.11-3.83,3.12-7.16,6.07-9.89.52-.48,1.08-.93,1.58-1.44.13-.14.19-.45.14-.64-.04-.15-.29-.24-.43-.34-.25.12-.46.17-.61.3-.55.46-1.08.93-1.6,1.42-2.18,2.08-3.94,4.46-5.13,7.25-.89,2.08-1.69,4.18-1.77,6.46-.07,1.96-.05,3.92,0,5.89.03.92-.54,2.08-1.36,2.65-.25.17-.29.64-.42.97.34.01.75.15,1,.01Z"/>
    <path class="cls-2" d="M41.44,47.4c.63-1.9,1.55-3.71,2.39-5.66-.34-.52-.8-.55-1.16.16-.75,1.46-1.61,2.9-2.12,4.44-.62,1.87-1.08,3.83-1.3,5.78-.22,1.91-.06,3.86,0,5.79,0,.22.39.44.6.65.16-.27.43-.53.44-.81.02-.62-.15-1.24-.14-1.86.02-1.13.01-2.28.19-3.4.28-1.72.57-3.47,1.11-5.11Z"/>
    <path class="cls-2" d="M60.29,32.53c-2.6.32-4.96,1.34-7.24,2.57-.21.11-.29.47-.42.72.28.11.56.27.85.31.17.02.37-.15.55-.25,2.43-1.3,5.01-2.24,7.74-2.39,2.34-.13,4.73,0,7.04.36,2.49.38,4.86,1.33,6.95,2.78,1.41.98,2.72,2.11,4.09,3.14.24.18.57.28.87.32.1.01.23-.29.41-.52-.18-.24-.31-.48-.5-.63-1.4-1.13-2.75-2.35-4.25-3.33-3.47-2.25-7.33-3.37-11.47-3.42-1.53-.02-3.08.16-4.61.35Z"/>
    <path class="cls-2" d="M78.2,35.2c.87.75,1.82,1.42,2.68,2.19,2.6,2.33,4.57,5.16,5.8,8.39.81,2.14,1.35,4.43,1.69,6.69.3,2.03.16,4.13.24,6.19.01.35.21.69.32,1.04.38-.13.63-.21,1.01-.33-.09-1.72-.16-3.39-.27-5.06-.09-1.3-.13-2.62-.38-3.89-.58-2.88-1.54-5.63-3.04-8.19-1.88-3.21-4.34-5.86-7.4-7.95-.29-.2-.99-.29-1.14-.11-.45.51.19.76.49,1.02Z"/>
    <path class="cls-2" d="M85.85,67.38c.2.03.66-.44.72-.74.59-2.83.79-5.69.77-8.58,0-.77-.21-1.08-1.04-.86-.08,1.38-.13,2.72-.25,4.05-.16,1.73-.3,3.48-.6,5.19-.1.54,0,.88.4.95Z"/>
    <path class="cls-2" d="M86.61,55.27c.72,0,.53-.69.54-1.17,0-.03,0-.06,0-.09.04,0,.08-.01.12-.02-.28-1.59-.48-3.2-.85-4.77-.64-2.71-1.77-5.22-3.47-7.44-.11-.15-.28-.36-.42-.36-.24,0-.49.13-.73.21.1.32.14.68.32.94,2.5,3.46,3.57,7.41,3.95,11.58.04.47-.07,1.13.56,1.13Z"/>
    <path class="cls-2" d="M81.9,72.78c.28-.23.57-.44.83-.69.07-.07.06-.22.09-.34.32-1.3.65-2.6.96-3.9.6-2.59,1.03-5.21,1.02-7.89-.01-2.09,0-4.19,0-6.28-.04,0-.08,0-.12,0-.08-.62-.19-1.23-.23-1.85-.03-.49-.21-.71-.72-.67-.64.05-.58.48-.54.92.17,1.56.44,3.11.49,4.67.06,1.61-.02,3.23-.17,4.84-.19,1.96-.45,3.92-.81,5.86-.27,1.45-.78,2.86-1.11,4.3-.07.31.2.7.31,1.05Z"/>
    <path class="cls-2" d="M81.48,62.73c.26-.23.59-.41.76-.69.12-.2.03-.53.02-.8-.11-3.13-.02-6.29-.4-9.39-.37-3.02-1.68-5.79-3.7-8.12-.91-1.05-1.94-1.98-2.92-2.97-.07.07-.15.15-.22.22.02.86.3,1.57.97,2.17,1.58,1.41,2.7,3.15,3.57,5.08,1.31,2.89,1.54,5.96,1.6,9.06.03,1.58-.13,3.17-.14,4.75,0,.23.3.46.46.69Z"/>
    <path class="cls-2" d="M80.81,45.21c.65,1.14,1.08,2.41,1.67,3.58.12.24.51.35.78.52.12-.29.4-.63.33-.86-1.91-5.52-5.56-9.5-10.84-11.99-.51-.24-1.05-.39-1.58-.59-.04.07-.07.14-.11.21.98.79,1.9,1.69,2.97,2.34,2.82,1.71,5.15,3.9,6.78,6.77Z"/>
    <path class="cls-2" d="M78.52,68.2c.07.01.14.03.21.04.02-.16.05-.32.07-.48l.17-1.6c.06-.1.18-.19.19-.3.31-3.17.95-6.3.63-9.54-.23-2.32-.3-4.65-1.16-6.83-.43-1.09-1.02-2.11-1.62-3.12-.11-.18-.56-.16-.85-.22-.06.27-.25.62-.15.8.46.79.93,1.59,1.54,2.26.74.82,1.1,1.7,1.1,2.79,0,4.66.02,9.33.03,13.99,0,.6,0,1.2,0,1.8-.05.14-.1.27-.14.41Z"/>
    <path class="cls-2" d="M43.38,68.79c.33-.12.56-.18.77-.28,1.57-.81,2.85-1.98,3.93-3.35.14-.18.02-.58.02-.87-.31.05-.72-.02-.92.16-.67.59-1.22,1.32-1.9,1.89-.62.52-1.37.89-2.03,1.37-.18.13-.34.42-.32.62.02.18.31.32.46.47Z"/>
    <path class="cls-2" d="M73.74,71.96c-1.25,2.28-2.41,4.34-3.52,6.43-.13.25-.04.61-.04.92.35-.1.9-.1,1.03-.33,1.25-2.2,2.42-4.44,3.73-6.88-.65-.08-1.04-.13-1.2-.15Z"/>
    <path class="cls-2" d="M63.51,71.82c-.44.19-1.07.25-1.3.58-1.43,2.12-3,4.12-4.84,5.92-.15.14-.04.54-.05.82.27.01.66.15.81.01,2.21-2.05,4.06-4.38,5.52-7.01-.04-.11-.09-.21-.13-.32Z"/>
    <path class="cls-2" d="M66.4,71.82c-.43.15-1.09.18-1.27.48-1.37,2.33-2.86,4.56-4.76,6.5-.2.2-.15.65-.21.99.34-.07.78-.03,1-.24,2.24-2.15,3.94-4.7,5.37-7.44l-.13-.29Z"/>
    <path class="cls-2" d="M77.62,71.02c-.49.34-1.19.58-1.44,1.05-.85,1.66-1.57,3.39-2.28,5.12-.1.24.1.61.16.91.27-.16.67-.24.8-.48.58-1.02,1.12-2.06,1.6-3.12.49-1.1.88-2.24,1.31-3.37-.05-.04-.1-.07-.16-.11Z"/>
    <path class="cls-2" d="M67.6,72.91c-.21.6-.57,1.17-.93,1.7-1.05,1.52-2.16,3-3.19,4.53-.16.24-.03.68-.03,1.03.27-.08.59-.11.81-.26.29-.2.56-.47.76-.76,1.51-2.32,3-4.66,4.53-7.04-1.14-.35-1.65-.05-1.94.82Z"/>
    <path class="cls-2" d="M71.76,72.41c-.91-.2-1.18.08-1.46.67-.55,1.19-1.22,2.33-1.9,3.46-.52.85-1.16,1.63-1.67,2.49-.15.25,0,.67.02,1.02.29-.11.71-.13.84-.33,1.18-1.81,2.34-3.64,3.45-5.5.31-.53.46-1.15.71-1.8Z"/>
    <path class="cls-2" d="M81.69,65.26c.03-.2-.36-.46-.56-.7-.17.19-.43.36-.49.58-.31,1.25-.49,2.53-.87,3.76-.6,1.97-1.34,3.9-1.99,5.85-.13.4-.15.85-.21,1.28.15.07.31.14.46.21.27-.37.64-.7.8-1.11.73-1.96,1.46-3.93,2.07-5.93.39-1.28.58-2.61.78-3.94Z"/>
    <path class="cls-2" d="M91.97,71.71c-.02,2.62-.05,5.24-.08,7.86-.11.06-.22.12-.33.18.09.06.17.12.26.18-.27,1.27-1.05,2.04-2.3,2.36-.06.04-.13.08-.19.11h-9.6c0,.91-.03,1.75.02,2.58.01.19.33.36.51.54h.19c2.83,0,5.66,0,8.49,0,.06,0,.12,0,.19,0,2.86-.31,5.47-2.25,5.74-5.5.24-2.9.12-5.83.16-8.75,0-.32,0-.63,0-.92h-3.07c0,.48,0,.92,0,1.37Z"/>
    <path class="cls-2" d="M95.09,38.85c-.02-2.46-.07-4.91-.03-7.37.02-1.42-.33-2.73-.83-4.03-1.59-2.38-3.88-3.18-6.65-3.09-2.43.08-4.87,0-7.31-.01-.08-.1-.17-.2-.25-.29-.09.12-.18.24-.27.35h0v3.04h.99c2.53,0,5.06-.02,7.59,0,2.37.03,3.64,1.23,3.64,3.61,0,2.68,0,5.37,0,8.05,0,.2.04.4.07.66.8,0,1.55-.04,2.3.01.59.04.73-.26.74-.74.02-.02.07-.04.07-.05-.01-.05-.04-.09-.06-.13Z"/>
    <path class="cls-2" d="M37.04,38.56c0-2.71-.01-5.41,0-8.12.01-1.59.75-2.57,2.29-2.77,1.53-.2,3.09-.19,4.64-.21,1.7-.03,3.41,0,5.17,0v-3.06c-1.63,0-3.25-.03-4.88,0-1.85.03-3.72-.04-5.55.21-2.49.34-4.7,2.66-4.72,5.29-.02,3.28-.01,6.57-.01,9.85.63,0,1.26.02,1.89.03,1.16,0,1.16,0,1.16-1.2Z"/>
    <path class="cls-2" d="M59.12,74.91c.6-.65,1.08-1.41,1.58-2.15.11-.16.18-.5.09-.61-.12-.14-.43-.23-.63-.18-.24.05-.5.22-.64.42-1.25,1.77-2.57,3.46-4.29,4.82-.29.23-.41.68-.61,1.03l.31.32c.32-.14.72-.2.96-.43,1.1-1.04,2.19-2.1,3.22-3.21Z"/>
    <path class="cls-2" d="M53.29,44.41c-1.57,1.52-2.6,3.21-3.29,5.1-.77,2.1-1.2,4.28-.98,6.51.19,1.97.25,3.89-.45,5.78-.09.23.18.59.28.89.28-.15.77-.26.82-.46.31-1.33.68-2.69.73-4.04.08-2.09-.13-4.19-.12-6.29,0-.67.23-1.4.54-2,.54-1.04,1.14-2.07,1.87-2.97.59-.73.7-1.47.6-2.5Z"/>
    <path class="cls-2" d="M46.92,72.61c.76-.42,1.54-.87,2.19-1.44.65-.57,1.93-.95,1.05-2.25-1.3.92-2.58,1.8-3.82,2.73-.17.13-.26.59-.16.77.09.16.57.28.75.18Z"/>
    <path class="cls-2" d="M58.16,35.71c-.43.08-.68.08-.88.17-.95.43-1.89.89-2.83,1.34-2.78,1.33-4.93,3.45-6.66,5.91-1.66,2.36-2.93,4.96-3.4,7.9-.08.53-.02.92.37.96.23.03.72-.48.78-.8.36-2.1,1.15-4.04,2.21-5.86,1.16-1.98,2.51-3.82,4.38-5.2,1.58-1.16,3.19-2.29,4.78-3.44.35-.25.69-.54,1.25-.98Z"/>
    <path class="cls-2" d="M52.34,71.81c-.39-.29-.68-.52-.98-.75-1.21.96-2.36,1.88-3.54,2.82.21.3.37.53.64.92,1.32-1.01,2.58-1.99,3.88-2.99Z"/>
    <path class="cls-2" d="M51.69,43.15c1.24.07,1.87-.67,2.22-2.66-.74.87-2.24,1.11-2.22,2.66Z"/>
    <path class="cls-2" d="M58.44,71.9c-.6.09-1.26.17-1.67.54-1.36,1.24-2.61,2.6-3.93,3.87-.52.49-.59.86.12,1.3,2.22-1.47,3.98-3.42,5.48-5.71Z"/>
    <path class="cls-2" d="M53.44,72.48c-.48.48-1.01.91-1.54,1.35-.45.37-.98.66-1.37,1.09-.22.24-.2.69-.29,1.04.31-.01.64.04.92-.05.26-.09.49-.32.71-.51,1.03-.9,2.05-1.82,3.15-2.79-.75-.62-1.15-.56-1.58-.13Z"/>
    <path class="cls-2" d="M48.8,82.36c-.07-.12-.14-.25-.21-.37-.05.12-.09.24-.14.36-2.73.02-5.46.03-8.19.05-2.03.01-3.21-1.16-3.21-3.22,0-2.94,0-5.89,0-8.83-.02-.08-.04-.16-.06-.24-.04.06-.08.13-.12.19-.9.02-1.81.04-2.71.06-.06-.03-.11-.03-.17-.01-.02.06-.01.11.02.17,0,3.27-.02,6.55-.02,9.82,0,.19.1.38.15.58.49,1.84,1.6,3.18,3.27,4.07.72.17,1.45.35,2.17.52.06,0,.12,0,.18,0,3.01,0,6.03,0,9.04,0,.05.09.1.19.15.28.07-.1.14-.2.2-.3.02-.89.07-1.79.05-2.68,0-.15-.26-.3-.41-.45Z"/>
    <path class="cls-2" d="M44.16,39.47c.62.86.95.69,1.5.14,1.65-1.63,3.25-3.38,5.15-4.68,3.93-2.7,8.34-4.07,13.17-4.07,3.8,0,7.4.7,10.83,2.34.39.19.96-.01,1.45-.03-.3-.34-.54-.81-.91-1-3.5-1.78-7.28-2.43-11.15-2.51-1.67-.03-3.35.28-5.01.51-2.39.34-4.64,1.17-6.71,2.39-1.76,1.04-3.46,2.2-5.04,3.48-1.21.99-2.19,2.25-3.29,3.41Z"/>
    <path class="cls-2" d="M45.22,70.72c.91-.52,1.87-1.03,2.62-1.74,1.23-1.17,2.94-2.15,2.33-4.35-.84.99-1.58,2.04-2.51,2.9-.92.84-2.03,1.46-3.03,2.22-.18.14-.19.49-.28.74.29.09.68.34.87.23Z"/>
  </g>
</svg>