<?xml version="1.0" encoding="UTF-8"?>
<svg id="Layer_1" data-name="Layer 1" xmlns="http://www.w3.org/2000/svg" viewBox="0 0 129.12 111.82">
  <defs>
    <style>
      .cls-1 {
        fill: #dd5b19;
      }

      .cls-1, .cls-2 {
        stroke-width: 0px;
      }

      .cls-2, .cls-3 {
        fill: #fff;
      }

      .cls-3 {
        stroke: #fff;
        stroke-miterlimit: 10;
      }
    </style>
  </defs>
  <polygon class="cls-2" points="94.14 4.68 34.98 4.68 5.4 55.91 34.98 107.15 94.14 107.15 123.72 55.91 94.14 4.68"/>
  <polygon class="cls-1" points="91.39 9.45 37.73 9.45 10.91 55.91 37.73 102.38 91.39 102.38 118.22 55.91 91.39 9.45"/>
  <path class="cls-1" d="M96.84,0H32.28L0,55.91l32.28,55.91h64.56l32.28-55.91L96.84,0ZM94.14,107.15h-59.16L5.4,55.91,34.98,4.68h59.16l29.58,51.23-29.58,51.23Z"/>
  <g>
    <path class="cls-3" d="M84.84,50.99c-.32.02-.54.17-.56.51-.03.33.14.54.48.59.32.04.6-.2.6-.52,0-.34-.18-.52-.52-.58Z"/>
    <path class="cls-3" d="M84.77,43.35c-.33.01-.52.2-.55.53-.02.3.25.57.56.57.29,0,.54-.25.55-.53,0-.31-.25-.58-.56-.56Z"/>
    <path class="cls-3" d="M84.73,54.57c.34-.02.51-.22.53-.55-.03-.34-.21-.52-.55-.53-.34,0-.52.2-.55.53-.03.31.26.57.57.55Z"/>
    <path class="cls-3" d="M84.8,48.45c-.34,0-.53.2-.55.53-.02.31.26.59.57.56.33-.03.51-.22.53-.52,0-.34-.23-.58-.54-.57Z"/>
    <path class="cls-3" d="M65.88,38.31c.28-.07.55-.16.79-.31,1.81-1.14,2.7-2.82,2.9-4.65,0-2.26-1.52-3.14-3.25-2.16-.07.04-.15.09-.22.14-1.44,1.03-2.27,2.44-2.58,4.17-.09.49-.06.99.08,1.48.3,1.06,1.21,1.59,2.28,1.33ZM66.82,31.88c.13-.08.28-.14.43-.18.71-.23,1.24.07,1.42.8.05.21.06.42.09.64-.2,1.7-.95,3.08-2.37,4.07-.03.02-.07.04-.11.06-1.14.62-2.01.14-1.95-1.15.08-1.82.94-3.25,2.49-4.24Z"/>
    <path class="cls-3" d="M67.43,40.64c-.39.06-.75.17-1.08.38-1.77,1.13-2.66,2.79-2.85,4.85,0,.13,0,.26,0,.38.14,1.66,1.45,2.42,2.95,1.71.83-.4,1.47-1.02,1.98-1.78.79-1.19,1.33-2.46,1.06-3.94-.19-1.09-1.06-1.74-2.06-1.6ZM66.37,47.05c-.45.3-.96.51-1.49.21-.54-.31-.61-.89-.56-1.43.14-1.62.89-2.92,2.17-3.91.07-.05.14-.09.22-.13.46-.25.93-.46,1.45-.18.39.21.58.72.56,1.64-.18,1.46-.91,2.85-2.36,3.82Z"/>
    <path class="cls-3" d="M79.76,56.59c.02.34.21.52.54.52.34,0,.51-.21.55-.53-.04-.33-.2-.54-.54-.56-.32-.02-.57.24-.56.56Z"/>
    <path class="cls-3" d="M75.33,59.13c0,.33.21.51.53.55.34-.04.54-.21.57-.54.02-.31-.27-.59-.57-.56-.33.03-.53.22-.52.56Z"/>
    <path class="cls-3" d="M81.96,55.32c.03.32.21.52.56.52.35,0,.5-.22.54-.54-.04-.32-.2-.53-.54-.55-.3-.02-.59.27-.56.57Z"/>
    <path class="cls-3" d="M92.13,36.32c-.02-3.39-.02-6.78-.04-10.17,0-.58-.28-.73-.8-.44-.91.52-1.83,1.05-2.74,1.58-.41.24-.41.23-.41-.25,0-1.27,0-2.54,0-3.8,0-.67-.26-.83-.84-.49-3.07,1.77-6.14,3.55-9.22,5.31-.32.19-.45.4-.45.78.02,2.11,0,4.22,0,6.33h.02c0,2.05,0,4.1,0,6.15,0,.3-.12.67.2.87.35.22.62-.08.89-.24,1.5-.85,2.99-1.72,4.48-2.59.29-.17.39-.14.38.21-.02.41,0,.83,0,1.24.01.59.28.75.79.46,2.44-1.41,4.88-2.82,7.33-4.23.3-.17.42-.38.42-.72ZM83.96,29.94c-.28.16-.41.36-.4.68.02.54,0,1.08.02,1.62.01.27-.07.44-.32.58-.55.29-1.08.64-1.64.92-.32.16-.4.37-.4.7.02,1.57,0,3.13.02,4.7,0,.29-.09.46-.35.6-.69.37-1.37.77-2.04,1.17-.31.19-.37.11-.37-.22,0-1.94,0-3.87,0-5.81h-.02c0-1.88,0-3.76,0-5.64,0-.32.09-.51.38-.68,2.69-1.54,5.38-3.1,8.07-4.65.39-.22.39-.22.39.24,0,1.17,0,2.34.01,3.5,0,.27-.09.41-.32.53-1.02.57-2.02,1.17-3.04,1.74ZM91.01,36.48c-2.09,1.2-4.17,2.4-6.25,3.61-.31.18-.34.07-.34-.22,0-2.96-.01-5.93-.02-8.89,0-.19.02-.34.22-.46,2.15-1.23,4.3-2.47,6.44-3.71.03-.02.08-.03.22-.07,0,.87,0,1.7,0,2.52,0,2.24,0,4.47.02,6.71,0,.25-.08.39-.29.51Z"/>
    <path class="cls-3" d="M64.46,57.82c.78.46,1.54.24,2.27-.16.16-.09.31-.2.46-.31.93-.72,1.57-1.65,1.99-2.73.36-.92.54-1.86.24-2.84-.29-.93-1.08-1.42-2.04-1.29-.48.07-.91.25-1.29.53-1.59,1.16-2.44,2.74-2.61,4.56.02.98.19,1.77.98,2.24ZM64.4,55.02c.29-1.26.93-2.32,1.93-3.14.21-.17.44-.31.69-.42.91-.39,1.55-.02,1.68.95.02.13.02.26.03.38-.19,1.74-.94,3.15-2.41,4.13-.16.11-.36.18-.55.24-.74.22-1.26-.12-1.42-.87-.09-.43-.06-.86.04-1.27Z"/>
    <path class="cls-3" d="M77.54,57.84c.01.32.18.53.52.55.31.02.57-.24.58-.58-.03-.3-.21-.49-.53-.52-.31-.03-.58.23-.57.54Z"/>
    <path class="cls-3" d="M50.95,50.07c-.28.06-.55.15-.79.3-1.63.98-2.52,2.46-2.88,4.3-.11.55-.08,1.11.1,1.65.32.96,1.16,1.44,2.14,1.25.31-.06.61-.16.88-.32,1.81-1.12,2.69-2.79,2.92-4.69-.01-.51-.04-.85-.14-1.18-.32-1.02-1.18-1.52-2.23-1.29ZM52.43,52.86c-.26,1.38-.94,2.52-2.04,3.39-.1.08-.21.15-.32.21-.46.25-.94.47-1.45.17-.51-.29-.55-.83-.58-1.46.2-1.64.94-3.06,2.44-4.04.18-.11.38-.19.59-.25.67-.18,1.18.14,1.34.82.09.38.09.76.02,1.14Z"/>
    <path class="cls-3" d="M58.53,42.69c1.86-1.1,2.72-2.83,2.94-4.86-.04-.31-.05-.54-.1-.77-.26-1.21-1.18-1.8-2.38-1.51-.25.06-.5.15-.71.28-1.82,1.14-2.83,2.81-2.91,4.94-.08,1.96,1.49,2.9,3.16,1.91ZM58.6,36.62c.18-.12.38-.2.59-.25.66-.18,1.16.1,1.34.77.11.42.11.85.02,1.27-.3,1.4-.99,2.56-2.17,3.41-.05.03-.09.07-.14.1-.46.25-.94.48-1.45.2-.54-.29-.57-.84-.61-1.48.2-1.63.95-3.04,2.43-4.02Z"/>
    <path class="cls-3" d="M52.28,60.07c-.82-.42-1.58-.17-2.31.25-.66.39-1.18.94-1.61,1.57-.79,1.19-1.32,2.46-1.07,3.94.21,1.24,1.22,1.86,2.43,1.53.2-.06.41-.13.59-.24,1.88-1.13,2.79-2.84,3-4.72-.02-1.27-.37-1.99-1.04-2.34Z"/>
    <path class="cls-3" d="M84.8,45.9c-.34.01-.59.27-.57.56.03.33.22.52.55.53.31.01.57-.27.54-.58-.03-.34-.25-.49-.53-.51Z"/>
    <path class="cls-3" d="M38.54,68.18c.32,5.86.64,11.72.97,17.58.05.99.46,1.75,1.37,2.26,2.07,1.17,4.12,2.38,6.17,3.58.62.36,1.26.42,1.93.23.35-.1.66-.27.97-.45,4.23-2.44,8.46-4.88,12.69-7.34.28-.16.49-.19.77,0,.75.48,1.57.55,2.43.36.56-.13,1.08-.37,1.57-.65,6.45-3.73,12.89-7.48,19.36-11.16,2.51-1.43,4.1-3.51,5-6.19.32-.94.47-1.91.4-2.9-.1-1.36-.64-2.46-1.89-3.15-.87-.48-1.73-1-2.59-1.5-.65-.38-1.35-.5-2.1-.38-.64.1-1.23.35-1.79.67-3.64,2.1-7.28,4.2-10.91,6.31-.45.26-.91.52-1.37.78-.1-.19-.05-.35-.04-.5.21-4.7.43-9.39.65-14.09.29-6.29.59-12.58.88-18.87.1-2.11.19-4.21.28-6.32.05-1.18-.37-2.07-1.46-2.68-2.03-1.13-4.02-2.32-6.02-3.5-.68-.4-1.36-.45-2.09-.23-.41.13-.78.35-1.15.57-7.36,4.25-14.73,8.5-22.09,12.76-2.48,1.44-3.68,3.6-3.51,6.49.17,2.9.33,5.8.49,8.71.36,6.54.73,13.09,1.09,19.63ZM45.81,85.29c-1.05-.61-2.03-1.18-3.02-1.75-.67-.39-1.32-.79-2-1.15-.29-.16-.39-.36-.41-.67-.2-3.83-.41-7.65-.63-11.48-.33-6-.67-12.01-1-18.01-.21-3.84-.42-7.68-.63-11.52,0-.13-.09-.32.04-.4.13-.08.26.08.37.15,1.55.9,3.1,1.81,4.66,2.7.24.14.33.3.34.57.2,3.8.42,7.6.63,11.39.32,5.76.63,11.52.95,17.28.22,4.1.45,8.19.68,12.29,0,.17,0,.34,0,.59ZM87.3,61.83c.45-.26.91-.47,1.43-.55,1.04-.15,1.82.32,2.15,1.32.15.45.2.92.21,1.41-.32,3.03-1.58,5.59-4.24,7.18-4.93,2.94-9.93,5.76-14.9,8.63-1.71.99-3.43,1.98-5.14,2.97-.42.24-.86.44-1.34.54-1.02.2-1.84-.25-2.2-1.23-.3-.82-.3-1.66-.12-2.49.59-2.78,2-4.99,4.51-6.44,6.55-3.77,13.1-7.56,19.65-11.34ZM82.29,61.27c.3-.17.52-.19.81,0,.45.29.92.55,1.44.85-.53.31-.99.58-1.45.85-5.41,3.13-10.86,6.21-16.23,9.39-3.06,1.81-4.6,4.64-4.93,8.15-.04.45.06.9.1,1.36-1.21-.41-1.85-1.22-1.92-2.46-.11-1.94.56-3.63,1.6-5.21.77-1.16,1.77-2.06,2.98-2.76,5.88-3.38,11.74-6.78,17.61-10.18ZM56.64,77.45c.51.26.98.58,1.48.85.24.13.21.22,0,.34-.58.35-1.19.62-1.87.7-1.31.16-2.29-.48-2.71-1.77-.18-.55-.23-1.11-.24-1.69.1-2.52,1.1-4.68,2.68-6.61.9-1.1,1.95-2.04,3.3-2.57.22-.09.46-.15.7-.2,1.32-.27,2.43.33,2.9,1.58.26.69.31,1.41.28,2.15-.01.25-.08.3-.31.17-.52-.32-1.07-.59-1.58-.93-.98-.65-1.96-.6-2.88.03-1.87,1.27-2.95,3.06-3.17,5.32-.11,1.17.34,2.08,1.43,2.64ZM56.92,76.3c-.46-.27-.63-.72-.65-1.23-.02-.39.06-.77.18-1.13.4-1.23,1.07-2.29,2.05-3.15.4-.35.85-.63,1.36-.67.25,0,.43.06.61.17.63.36,1.25.74,1.89,1.09.24.13.19.21.02.36-1.63,1.52-2.7,3.37-3.2,5.54-.06.25-.14.26-.34.14-.64-.38-1.28-.75-1.92-1.12ZM71.64,24.97c.55.34.55.93.53,1.49-.21,4.61-.42,9.22-.63,13.83-.22,4.72-.44,9.45-.66,14.17-.19,4.01-.38,8.03-.56,12.04-.01.31-.11.48-.38.64-1.88,1.07-3.75,2.16-5.63,3.24-.09.05-.19.18-.3.1-.1-.07-.03-.21-.03-.32.02-.7-.02-1.4-.22-2.07-.58-1.93-2.33-2.9-4.28-2.37-.9.24-1.69.68-2.39,1.28-2.47,2.1-4.02,4.74-4.53,7.95-.15.92-.11,1.85.16,2.75.59,1.95,2.21,2.87,4.18,2.37.64-.16,1.24-.43,1.79-.79.18-.12.29-.17.31.13.08,1.55.78,2.71,2.22,3.37.21.1.41.24.62.36-.09.19-.25.23-.39.31-4.01,2.32-8.02,4.63-12.03,6.94-.25.14-.49.29-.77.37-.71.21-1.21-.06-1.39-.78-.12-.47-.1-.96-.13-1.44-.5-9.13-1-18.26-1.5-27.4-.31-5.68-.6-11.35-.95-17.02-.09-1.41.01-2.72.79-3.94.51-.79,1.14-1.45,1.96-1.92,7.54-4.35,15.07-8.7,22.61-13.05.5-.29,1.03-.58,1.6-.23ZM41.81,33.86c7.22-4.17,14.45-8.34,21.67-12.52.67-.39,1.28-.45,1.99,0,1.33.83,2.7,1.58,4.06,2.37.12.07.24.15.41.26-2.79,1.61-5.51,3.18-8.24,4.75-4.82,2.78-9.64,5.57-14.46,8.35-.2.11-.35.18-.58.04-1.67-.98-3.34-1.95-5.02-2.93-.04-.02-.06-.05-.1-.09.02-.16.17-.18.27-.24ZM40.07,34.95c.08-.07.18-.13.29-.2.1.05.18.09.27.14,1.64.95,3.27,1.91,4.91,2.85.27.15.32.23.07.47-.99.97-1.65,2.14-1.96,3.49-.07.29-.13.35-.4.19-1.63-.96-3.27-1.91-4.91-2.85-.21-.12-.3-.25-.26-.51.25-1.43.92-2.62,2-3.58Z"/>
    <path class="cls-3" d="M47.26,45.9c.19,1.6,1.47,2.33,2.91,1.59,2-1.03,2.89-2.81,3.14-4.74-.02-1.07-.18-1.87-.98-2.33-.79-.46-1.57-.24-2.31.18-.65.37-1.18.9-1.6,1.52-.79,1.14-1.33,2.37-1.17,3.79Z"/>
    <path class="cls-3" d="M58.6,52.51c.6-.34,1.1-.81,1.51-1.37.9-1.23,1.51-2.56,1.27-4.13-.19-1.3-1.24-1.95-2.5-1.58-.2.06-.41.13-.59.25-1.83,1.13-2.73,2.83-2.94,4.68,0,2.26,1.51,3.14,3.25,2.16Z"/>
    <path class="cls-3" d="M60.43,55.39c-.8-.45-1.58-.21-2.31.23-1.1.67-1.82,1.66-2.32,2.83-.37.85-.56,1.73-.4,2.67.23,1.26,1.23,1.89,2.46,1.55.26-.07.52-.17.74-.32,1.74-1.14,2.63-2.78,2.84-4.68-.03-1.01-.2-1.81-1.02-2.27ZM58.15,61.64c-.18.11-.38.19-.59.24-.65.16-1.12-.13-1.3-.77-.13-.47-.1-.93,0-1.39.29-1.24.9-2.29,1.89-3.11.25-.21.53-.38.84-.49.84-.3,1.39.02,1.56.9.03.17.04.34.06.57-.22,1.68-.97,3.1-2.48,4.07Z"/>
  </g>
</svg>