<?xml version="1.0" encoding="UTF-8"?>
<svg id="Layer_1" data-name="Layer 1" xmlns="http://www.w3.org/2000/svg" viewBox="0 0 129.12 111.82">
  <defs>
    <style>
      .cls-1 {
        fill: #dd5b19;
      }

      .cls-1, .cls-2 {
        stroke-width: 0px;
      }

      .cls-2 {
        fill: #fff;
      }
    </style>
  </defs>
  <polygon class="cls-2" points="94.14 4.68 34.98 4.68 5.4 55.91 34.98 107.15 94.14 107.15 123.72 55.91 94.14 4.68"/>
  <path class="cls-1" d="M96.84,0H32.28L0,55.91l32.28,55.91h64.56l32.28-55.91L96.84,0ZM94.14,107.15h-59.16L5.4,55.91,34.98,4.68h59.16l29.58,51.23-29.58,51.23Z"/>
  <g>
    <path class="cls-1" d="M64.51,39.25c-1.39,0-2.5,1.13-2.49,2.53,0,1.38,1.12,2.49,2.51,2.49,1.38,0,2.5-1.13,2.5-2.5,0-1.39-1.13-2.52-2.52-2.52Z"/>
    <path class="cls-1" d="M71.01,78.23c.46-.02.92,0,1.38,0,1.7,0,3.4-.02,5.11,0,.26,0,.32-.07.32-.32,0-3.43,0-6.87,0-10.3,0-4.13,0-8.27,0-12.4h0c0-1.95,0-3.9,0-5.85,0-5.62,0-11.23,0-16.85,0-.25-.05-.33-.32-.33-2.28.01-4.56,0-6.84,0-5.05,0-10.11.02-15.16-.02-1.28,0-2.55.02-3.83.01-.23,0-.3.06-.3.3.01,1.35,0,2.7,0,4.04,0,5.31,0,10.61,0,15.92,0,5.32,0,10.65,0,15.97,0,3.18,0,6.35,0,9.53,0,.16-.04.3.23.3,2.16-.01,4.33,0,6.49,0,.18,0,.23-.05.22-.22-.01-.56,0-1.12,0-1.67,0-3.42,0-6.83,0-10.25,0-.25-.07-.31-.31-.3-.87.01-1.74-.02-2.61.01-.89.03-1.54-.6-1.53-1.51.03-3.55.01-7.1.01-10.65,0-.7.14-1.38.4-2.02.97-2.34,3.05-3.73,5.59-3.74,3.1,0,6.19,0,9.29,0,.64,0,1.27.08,1.88.29,1.54.53,2.71,1.47,3.46,2.92.47.91.66,1.88.65,2.9,0,2.22,0,4.43-.01,6.65,0,1.22,0,2.45.01,3.67,0,.92-.58,1.48-1.51,1.47-.89,0-1.77,0-2.66,0-.21,0-.27.06-.27.27.01,1.04,0,2.08,0,3.11,0,2.93,0,5.86,0,8.78,0,.23.05.31.29.3ZM64.59,46.95c-2.94.04-5.24-2.32-5.27-5.09-.03-2.98,2.26-5.29,5.21-5.29,2.75-.04,5.1,2.25,5.17,5.05.07,2.95-2.3,5.29-5.11,5.33Z"/>
    <path class="cls-1" d="M87.41,62.52c0,1.2,0,2.39,0,3.59,0,.18.05.24.24.24.8,0,1.6,0,2.39,0,.11,0,.21-.01.31-.06.38-.17.49-.48.48-.87,0-3.96,0-7.93,0-11.89h0c0-2.51,0-5.02,0-7.53,0-1.48,0-2.96,0-4.44,0-.59-.3-.88-.89-.88-.76,0-1.53,0-2.29,0-.21,0-.25.06-.25.25,0,2.59,0,5.17,0,7.76,0,4.61,0,9.22,0,13.83Z"/>
    <path class="cls-1" d="M41.78,44.74c0-1.27,0-2.54,0-3.8,0-.19-.05-.26-.25-.25-.78.01-1.56,0-2.34,0-.35,0-.6.15-.76.44-.09.17-.08.36-.08.55,0,3.93,0,7.86,0,11.79h0c0,1.29,0,2.57,0,3.86,0,2.7,0,5.39-.02,8.09,0,.61.31.95.92.95.74,0,1.47-.01,2.21,0,.26,0,.33-.06.33-.32-.01-1.93,0-3.86,0-5.79,0-5.17,0-10.34,0-15.51Z"/>
    <path class="cls-1" d="M69.8,53.65c.53.17.91.67.92,1.24.01.82,0,1.65,0,2.47,0,1.82,0,3.64,0,5.46,0,.21.05.28.27.27.36-.01.73,0,1.09,0,.42,0,.42,0,.39-.43,0-.11,0-.21,0-.32,0-2.82,0-5.64,0-8.46,0-1.92-1.37-3.31-3.28-3.34-.73-.01-1.45,0-2.18,0-2.38,0-4.75,0-7.13,0-1.93.01-3.31,1.41-3.31,3.34,0,2.98,0,5.96,0,8.94,0,.24.09.29.3.28.4-.02.8-.03,1.19-.01.24.01.29-.06.29-.29-.01-1.99-.02-3.97-.02-5.96,0-.67-.01-1.33,0-2,.02-.79.76-1.38,1.53-1.25.7.12,1.13.64,1.13,1.39,0,1.37,0,2.73,0,4.1,0,5.02,0,10.04,0,15.06,0,1.27,0,2.54,0,3.81,0,.21.06.27.27.27.54-.01,1.08-.02,1.62,0,.25,0,.3-.07.3-.31,0-3.62,0-7.24,0-10.86,0-.12,0-.23.01-.35.09-.78.67-1.26,1.47-1.22.68.04,1.21.64,1.21,1.37,0,1.09,0,2.18,0,3.27,0,2.59,0,5.18,0,7.77,0,.23.04.33.3.31.51-.02,1.03,0,1.54,0q.35,0,.35-.34c0-3.82,0-7.65,0-11.47h0v-.27c0-3.73,0-7.47,0-11.2,0-.3.08-.58.27-.82.36-.47.94-.65,1.5-.47Z"/>
    <path class="cls-1" d="M44.46,51.19h0v15.68c0,3.7,0,7.4,0,11.1,0,.22.08.26.27.26,1.21,0,2.41-.01,3.62,0,.27,0,.33-.06.33-.33,0-7.82,0-15.63,0-23.45s0-15.37,0-23.05c0-1.24,0-2.48,0-3.73,0-.8.6-1.4,1.35-1.39.77,0,1.34.61,1.35,1.42,0,.51.01,1.01,0,1.52,0,.23.05.3.29.3,2.24,0,4.49,0,6.73,0,5.14,0,10.29,0,15.43,0,1.25,0,2.5,0,3.75,0,.19,0,.24-.05.24-.24-.01-.55-.01-1.1,0-1.65.02-.95.96-1.58,1.84-1.24.55.22.86.71.86,1.4,0,3.74,0,7.49,0,11.23,0,8.06,0,16.11,0,24.17,0,4.91,0,9.83,0,14.74,0,.25.07.31.31.3,1.2-.01,2.4-.01,3.59,0,.25,0,.32-.05.32-.32,0-3.84,0-7.68,0-11.52,0-7.98,0-15.95,0-23.93,0-5.98,0-11.96,0-17.94,0-.28-.08-.33-.34-.33-4.4,0-8.8,0-13.2,0-5.39,0-10.79,0-16.18,0-3.41,0-6.81,0-10.22,0-.28,0-.33.08-.33.34,0,3.64,0,7.27,0,10.91,0,5.25,0,10.5,0,15.75Z"/>
    <path class="cls-1" d="M93.31,80.89c-2.52,0-5.03,0-7.55,0-4.42,0-8.84,0-13.25,0-6.23,0-12.47,0-18.7,0-2.5,0-5,0-7.5,0-3.48,0-6.96,0-10.43,0-.23,0-.3.06-.29.29.02.69.02,1.38,0,2.08,0,.27.09.32.33.32,2.87,0,5.75-.01,8.62-.01,3.01,0,6.01,0,9.02.01,3.67,0,7.34,0,11.02,0h0c2.15-.01,4.29-.01,6.44-.01,4.26,0,8.52,0,12.77,0,3.19,0,6.39,0,9.58,0,.19,0,.26-.04.26-.25-.01-.71-.02-1.42,0-2.13,0-.25-.07-.31-.31-.31Z"/>
    <path class="cls-1" d="M91.4,9.45h-53.68L10.93,55.92l26.79,46.5h53.68l26.84-46.49-26.84-46.49ZM94.68,47.29c1-.9,2.01-1.79,3.02-2.68.44-.39.95-.46,1.48-.2.53.26.78.71.75,1.3-.02.36-.18.67-.44.91-1,.89-2,1.78-3,2.66-.25.22-.55.34-.95.34-.49,0-.98-.34-1.18-.85-.2-.5-.07-1.11.32-1.47ZM29.34,45.13c.21-.53.69-.86,1.31-.86.29,0,.59.12.84.34,1,.88,1.99,1.76,2.98,2.65.57.51.62,1.34.12,1.91-.49.56-1.33.6-1.91.09-.99-.88-1.98-1.75-2.96-2.63-.44-.39-.58-.98-.38-1.5ZM27.62,54.86c-1.06-.01-1.69-1.09-1.18-2,.24-.44.64-.67,1.13-.67,2.03,0,4.06,0,6.09,0,.68,0,1.24.61,1.27,1.3.02.69-.51,1.32-1.19,1.36-.66.04-1.33.01-1.99.02-.39,0-.78,0-1.17,0h0c-.98,0-1.97.01-2.95,0ZM31.48,62.44c-.8.67-1.96.29-2.19-.72-.11-.49.02-.92.39-1.26,1-.91,2.02-1.81,3.04-2.7.25-.22.54-.33.84-.31.61,0,1.08.32,1.29.85.21.54.06,1.1-.4,1.51-.63.57-1.27,1.13-1.91,1.69-.35.31-.7.63-1.05.93ZM94.84,86.24c-7.11,0-14.21,0-21.32,0-2.98,0-5.96,0-8.94,0-7.67,0-15.35,0-23.02,0-2.42,0-4.84,0-7.27,0-.81,0-1.38-.56-1.38-1.36,0-1.77,0-3.55,0-5.32,0-.77.58-1.34,1.35-1.34,1.56,0,3.12.01,4.68.01.88,0,1.75-.02,2.63-.01.2,0,.24-.08.24-.25-.01-.27-.03-.53-.03-.8,0-2.61,0-5.22,0-7.82,0-.24-.06-.31-.31-.31-.95,0-1.9.07-2.84-.04-1.57-.18-2.87-1.59-2.94-3.16,0-.18-.01-.35-.01-.53,0-4.28,0-8.55,0-12.83,0-3.62,0-7.24,0-10.86,0-1.36.55-2.41,1.72-3.13.53-.32,1.11-.47,1.72-.47.79,0,1.58,0,2.37,0,.22,0,.31-.03.31-.28-.01-2.28,0-4.56,0-6.84,0-2.64,0-5.28,0-7.92,0-.74.38-1.25,1.03-1.43.16-.04.32-.03.48-.03,4.02,0,8.04,0,12.06,0,6.06,0,12.12,0,18.18,0,4.14,0,8.29,0,12.43,0,.89,0,1.45.54,1.46,1.43,0,2.14.02,4.28,0,6.41-.01.91,0,1.82,0,2.73,0,1.88.01,3.76,0,5.64,0,.21.05.29.28.28.76-.02,1.53,0,2.29,0,1.81,0,3.22,1.18,3.51,2.96.08.46.04.94.04,1.41,0,5.68,0,11.36,0,17.03,0,2.02,0,4.05,0,6.07,0,1.46-.66,2.54-1.96,3.22-.44.23-.92.33-1.41.34-.82.01-1.65.01-2.48,0-.22,0-.26.07-.26.27,0,2.88,0,5.77,0,8.65,0,.22.07.26.27.26,2.39,0,4.77,0,7.16,0,.91,0,1.45.54,1.45,1.46,0,1.71,0,3.42,0,5.14,0,.89-.55,1.44-1.45,1.44ZM99.62,62.31c-.49.57-1.32.64-1.9.14-1.02-.89-2.03-1.79-3.04-2.7-.42-.38-.53-.96-.31-1.49.21-.51.68-.82,1.29-.81.32-.02.61.12.86.34.98.87,1.96,1.74,2.94,2.61.58.52.65,1.34.17,1.9ZM101.6,54.86c-1,.01-2,0-3,0h0c-.98,0-1.97,0-2.95,0-.74,0-1.3-.49-1.38-1.21-.08-.65.36-1.26,1.04-1.44.1-.03.21-.04.31-.04,1.98,0,3.97,0,5.95,0,.76,0,1.35.58,1.36,1.31,0,.77-.54,1.35-1.32,1.36Z"/>
  </g>
</svg>