<svg xmlns="http://www.w3.org/2000/svg" xmlns:xlink="http://www.w3.org/1999/xlink" width="336" zoomAndPan="magnify" viewBox="0 0 252 143.999998" height="192" preserveAspectRatio="xMidYMid meet" version="1.0"><defs><clipPath id="768bf1e768"><path d="M 117.308594 0 L 134.558594 0 L 134.558594 144 L 117.308594 144 Z M 117.308594 0 " clip-rule="nonzero"/></clipPath><clipPath id="9675a39526"><path d="M 126 34 L 134.558594 34 L 134.558594 117 L 126 117 Z M 126 34 " clip-rule="nonzero"/></clipPath></defs><g clip-path="url(#768bf1e768)"><path fill="#e05b19" d="M 134.125 -32.429688 C 133.996094 -23.335938 133.554688 -14.277344 133.125 -5.214844 C 130.695312 12.671875 124.894531 56.898438 122.425781 75.4375 C 124.523438 89.3125 130.902344 139.535156 133.101562 155.445312 C 133.515625 164.503906 133.957031 173.5625 134.125 182.652344 C 131.917969 173.820312 129.984375 164.957031 128.03125 156.09375 C 125.761719 138.941406 119.65625 92.863281 117.308594 75.113281 C 119.832031 56.179688 125.605469 12.507812 128 -5.867188 C 129.945312 -14.734375 131.878906 -23.601562 134.117188 -32.425781 Z M 134.125 -32.429688 " fill-opacity="1" fill-rule="nonzero"/></g><g clip-path="url(#9675a39526)"><path fill="#e05b19" d="M 134.125 34.078125 C 134.410156 37.589844 134.480469 41.078125 134.558594 44.566406 C 133.613281 51.390625 131.417969 68.261719 130.464844 75.339844 C 131.1875 79.359375 133.726562 100.019531 134.539062 105.65625 C 134.453125 109.144531 134.378906 112.632812 134.117188 116.144531 C 132.953125 112.820312 131.980469 109.460938 130.988281 106.117188 C 130.113281 99.507812 127.789062 81.949219 126.886719 75.117188 C 127.851562 67.835938 130.066406 51.1875 130.972656 44.113281 C 131.953125 40.761719 132.933594 37.410156 134.125 34.082031 Z M 134.125 34.078125 " fill-opacity="1" fill-rule="nonzero"/></g></svg>