<?xml version="1.0" encoding="UTF-8"?>
<svg id="Layer_1" data-name="Layer 1" xmlns="http://www.w3.org/2000/svg" viewBox="0 0 33.72 428.04">
  <defs>
    <style>
      .cls-1 {
        fill: #e05b19;
        stroke-width: 0px;
      }
    </style>
  </defs>
  <path class="cls-1" d="M.85,428.04c.25-18.1,1.11-36.13,1.95-54.16,4.75-35.6,16.09-123.61,20.92-160.51C19.62,185.76,7.15,85.81,2.85,54.15,2.04,36.12,1.18,18.09.85,0c4.31,17.58,8.09,35.22,11.91,52.86,4.44,34.13,16.36,125.82,20.95,161.16-4.93,37.68-16.22,124.59-20.9,161.16-3.8,17.64-7.58,35.29-11.96,52.85h0Z"/>
  <path class="cls-1" d="M.85,295.68c-.56-6.99-.7-13.93-.85-20.87,1.85-13.58,6.14-47.16,8-61.24-1.41-8-6.37-49.12-7.96-60.34.17-6.94.31-13.88.82-20.87,2.28,6.62,4.18,13.3,6.12,19.96,1.71,13.15,6.25,48.09,8.02,61.69-1.89,14.49-6.22,47.62-7.99,61.7-1.92,6.67-3.83,13.34-6.16,19.96h0Z"/>
</svg>