<?xml version="1.0" encoding="UTF-8"?>
<svg id="Layer_1" data-name="Layer 1" xmlns="http://www.w3.org/2000/svg" viewBox="0 0 129.12 111.82">
  <defs>
    <style>
      .cls-1 {
        fill: #f5a214;
      }

      .cls-1, .cls-2 {
        stroke-width: 0px;
      }

      .cls-2 {
        fill: #fff;
      }
    </style>
  </defs>
  <polygon class="cls-2" points="94.14 4.68 34.98 4.68 5.4 55.91 34.98 107.15 94.14 107.15 123.72 55.91 94.14 4.68"/>
  <path class="cls-1" d="M96.84,0H32.28L0,55.91l32.28,55.91h64.56l32.28-55.91L96.84,0ZM94.14,107.15h-59.16L5.4,55.91,34.98,4.68h59.16l29.58,51.23-29.58,51.23Z"/>
  <g>
    <path class="cls-1" d="M42.03,32.39v-.87c-2.98.95-5.86,1.88-8.75,2.81-.04.04-.08.07-.11.11,0,.61-.02,1.22-.02,1.83,0,5.83.01,11.66.02,17.49.04.04.08.08.11.12.05,0,.1.03.14.01,2.62-.86,5.22-1.76,7.86-2.54.68-.2.77-.51.77-1.11-.02-5.95-.01-11.89-.01-17.84Z"/>
    <path class="cls-1" d="M43.73,68.01v5.98c0,2.09,0,4.18,0,6.27,0,.31-.09.71.43.72,1.14,0,2.29,0,3.46,0v-13.79h-3.89v.82Z"/>
    <path class="cls-1" d="M60.93,48.86c-1.44,1.6-1.5,4.23-.41,5.73,1.27,2.19,4.17,2.98,6.5,1.55,1.53-.94,2.33-2.36,2.34-4.11,0-1.56-.67-2.89-1.98-3.83-2.41-1.56-4.91-1.05-6.45.66Z"/>
    <path class="cls-1" d="M56.39,56.76c-.12-.24-.26-.43-.33-.65-.23-.77-.69-1.13-1.52-.99-.32.05-.65-.04-.98-.03-2.32,0-4.64.01-6.96.06-.21,0-.54.29-.6.51-.32,1.12-.57,2.25-.83,3.38-.26,1.12-.5,2.25-.78,3.47,1.23,0,2.38-.03,3.52.01.5.02.74-.16.97-.59,1.06-1.99,2.63-3.47,4.74-4.31.89-.35,1.84-.58,2.78-.86Z"/>
    <path class="cls-1" d="M46.73,50.36h0s-.03-.06-.04-.09c0,.03.02.06.04.09Z"/>
    <path class="cls-1" d="M46.76,50.32s-.02.03-.03.04h8.5c.92-4.46,4.54-7.91,9.66-7.74,4.34.14,8.18,3.25,8.95,7.79.22.01.45.04.68.04,2.44,0,4.88,0,7.32,0,.2,0,.41-.05.61-.08,0-.03-.02-.07-.02-.1,0-.01.03-.02.05-.03,0-3.18.02-6.37.02-9.55,0-3.3-.01-6.6-.02-9.91-.04-.04-.08-.07-.11-.11-.16,0-.33-.02-.49-.02-11.52,0-23.04,0-34.56,0-.16,0-.33.01-.49.02-.04.04-.08.07-.11.11,0,.44-.02.89-.02,1.33,0,6.04.01,12.08.02,18.13.02.03.05.06.06.09Z"/>
    <path class="cls-1" d="M95.38,34.16c-.59-.16-1.17-.33-1.75-.52-2.13-.68-4.26-1.37-6.41-2.07-.03.11-.07.17-.07.23,0,6.29,0,12.58.01,18.87,0,.18.25.46.44.52,1.57.54,3.14,1.05,4.72,1.56,1.18.38,2.38.73,3.56,1.1.04-.04.08-.08.11-.11,0-3.54.02-7.09.02-10.63,0-2.68-.02-5.35.02-8.03,0-.56-.18-.79-.67-.92Z"/>
    <path class="cls-1" d="M76.67,65.38c-.62-2.45-2.69-3.88-5.1-3.88-4.65,0-9.31,0-13.96,0-.53,0-1.07.05-1.58.16-1.89.41-3.7,2.51-3.7,4.3,0,4.04.02,8.08.03,12.13,0,.18.02.36.04.56h2.74v-.72c0-2.68,0-5.36,0-8.04,0-1.98,1.84-2.6,3.29-2.01,1.08.44,1.36,1.43,1.36,2.5,0,7.45,0,14.9,0,22.35v.75h2.51c0-3.93,0-7.83,0-11.73,0-1.38,1.59-2.29,2.58-1.99,1.52.45,2.05,1.11,2.05,2.74,0,3.41,0,6.82,0,10.22v.76h2.47v-.8c0-7.59-.01-15.18,0-22.77,0-2.03,1.74-2.6,3.25-2.04,1.06.4,1.39,1.34,1.39,2.4,0,2.54,0,5.08,0,7.62v.77h2.74c.02-.15.04-.25.04-.34,0-3.85,0-7.71,0-11.56,0-.46-.04-.94-.15-1.38Z"/>
    <path class="cls-1" d="M85.45,67.93c0-.23-.02-.46-.03-.71h-3.89v13.77c1.07,0,2.08-.04,3.08.01.71.04.86-.23.86-.89-.03-4.06-.01-8.12-.01-12.18Z"/>
    <path class="cls-1" d="M91.4,9.45h-53.68L10.93,55.93l26.79,46.5h53.68l26.84-46.49-26.84-46.49ZM98.15,59.38c-1.15-.24-2.28-.58-3.4-.92-2.24-.7-4.46-1.43-6.74-2.17.43,1.76.86,3.45,1.26,5.14.29,1.24.74,2.5.76,3.75.08,5.92.02,11.84.05,17.76,0,1.67-1.24,2.76-2.72,2.73-4.18-.08-8.37-.03-12.55-.03h-.76c0,3.25-.03,6.4.02,9.55.02,1.44-.54,2.42-1.86,2.98h-15.37c-1.25-.52-1.76-1.42-1.72-2.81.07-2.98.02-5.97.02-8.95v-.77c-.36,0-.61,0-.87,0-4.32,0-8.65,0-12.97-.02-1.27,0-2.18-.99-2.18-2.25,0-6.22,0-12.45,0-18.67,0-.15.03-.31.07-.46.41-1.73.82-3.45,1.22-5.18.21-.91.41-1.83.63-2.78-3.21,1.02-6.32,2.04-9.44,3-.78.24-1.62.28-2.28-.33-.34-.31-.57-.74-.84-1.12v-25.81c.39-.92,1.09-1.42,2.05-1.71,3.54-1.1,7.05-2.25,10.58-3.39,1.37-.44,2.68-.99,4.18-.98,11.53.08,23.06.11,34.59.16,1.62,0,3.24-.01,4.86.01.47,0,.97.07,1.42.21,4.17,1.33,8.33,2.67,12.49,4.03,1.42.46,2.04,1.1,2.04,2.92,0,7.05,0,14.1,0,21.15,0,.8,0,1.6,0,2.4.02,1.45-1.05,2.86-2.55,2.55Z"/>
    <path class="cls-1" d="M84.69,62.51c-.06-.33-.09-.61-.16-.87-.49-2.03-.97-4.07-1.48-6.1-.04-.17-.32-.39-.49-.39-1.9-.06-3.8-.09-5.69-.09-.98,0-1.97.04-2.95.08-.17,0-.43.07-.49.19-.25.51-.44,1.05-.65,1.58.57.12,1.1.21,1.61.34,2.75.71,4.72,2.39,6.04,4.87.09.17.33.37.51.37,1.24.03,2.48.02,3.76.02Z"/>
  </g>
</svg>