<?xml version="1.0" encoding="UTF-8"?>
<svg id="Layer_1" data-name="Layer 1" xmlns="http://www.w3.org/2000/svg" viewBox="0 0 129.12 111.82">
  <defs>
    <style>
      .cls-1 {
        fill: #f5a214;
      }

      .cls-1, .cls-2 {
        stroke-width: 0px;
      }

      .cls-2 {
        fill: #fff;
      }
    </style>
  </defs>
  <polygon class="cls-2" points="94.14 4.68 34.98 4.68 5.4 55.91 34.98 107.15 94.14 107.15 123.72 55.91 94.14 4.68"/>
  <path class="cls-1" d="M96.84,0H32.28L0,55.91l32.28,55.91h64.56l32.28-55.91L96.84,0ZM94.14,107.15h-59.16L5.4,55.91,34.98,4.68h59.16l29.58,51.23-29.58,51.23Z"/>
  <g>
    <path class="cls-1" d="M91.4,9.45h-53.68L10.93,55.93l26.79,46.5h53.68l26.84-46.49-26.84-46.49ZM43.45,45.52c.02-1.3.15-2.57,1.06-3.61.64-.74,1.41-1.28,2.33-1.6.35-.12.49-.3.48-.69-.03-1.81-.03-3.62-.01-5.43.06-4.45,1.69-8.24,4.9-11.33,2.79-2.68,6.13-4.26,9.97-4.73,6.05-.75,11.27,1.01,15.54,5.4,2.21,2.27,3.5,5.04,4.04,8.16.11.63.14,1.27.15,1.91.02,2.05.01,4.11,0,6.16,0,.27.09.4.32.5.36.15.72.3,1.05.49,1.52.86,2.3,2.22,2.4,3.93.07,1.22.04,2.44.01,3.66-.05,2.92-2.13,4.61-4.51,4.94-.21.03-.42.09-.63.06-.43-.05-.63.16-.82.51-.77,1.43-1.52,2.88-2.36,4.27-1.1,1.81-2.4,3.47-4.03,4.84-2.02,1.7-4.26,2.96-6.9,3.48-1.84.36-3.59.02-5.3-.6-2.53-.91-4.57-2.54-6.37-4.51-1.36-1.49-2.49-3.14-3.5-4.88-.27-.47-.65-.89-1.04-1.27-.53-.52-1.1-1-1.69-1.46-.24-.19-.54-.35-.84-.43-1.42-.37-2.62-1.06-3.46-2.3-.52-.77-.8-1.62-.79-2.57,0-.97-.01-1.94,0-2.92ZM96.1,87.97c-1.24,1.08-2.71,1.75-4.22,2.35-2.16.86-4.41,1.4-6.68,1.85-1.43.29-2.87.52-4.32.74-1.04.15-2.1.24-3.15.34-1.04.1-2.08.19-3.13.27-.97.07-1.93.13-2.9.2-3.38.25-6.77.08-10.16.13-.44,0-.89.02-1.33,0-1.21-.05-2.42-.12-3.63-.19-1.34-.08-2.69-.15-4.03-.27-1.5-.14-3-.31-4.5-.49-.88-.1-1.76-.21-2.63-.38-1.53-.31-3.07-.59-4.56-1.02-1.65-.48-3.28-1.09-4.88-1.72-1.13-.44-2.14-1.12-3.06-1.91-1.39-1.2-1.99-2.77-2.13-4.57-.1-1.25.31-2.38.67-3.53.88-2.8,2.11-5.43,3.93-7.75,2.17-2.76,4.98-4.42,8.45-4.92.97-.14,1.95-.24,2.93-.33.92-.09,1.84-.12,2.76-.21.75-.07,1.49-.18,2.24-.29.18-.03.29,0,.37.18.75,1.75,1.97,3.18,3.18,4.61,1.76,2.1,3.61,4.12,5.41,6.18.23.26.45.52.74.85.23-.85.44-1.61.63-2.37.29-1.11.58-2.23.85-3.35.03-.12-.02-.33-.11-.4-.73-.59-1.03-1.39-1.16-2.28-.04-.27-.05-.55-.08-.82-.01-.16.04-.24.23-.24,1.88,0,3.77,0,5.69,0,.05,1.23-.18,2.36-1.11,3.25-.19.18-.24.33-.17.58.44,1.67.86,3.34,1.29,5.02.04.16.1.31.17.53.13-.11.23-.19.31-.28,2.54-2.79,5.11-5.55,7.4-8.55.64-.84,1.21-1.72,1.57-2.73.09-.25.2-.3.47-.23.89.24,1.8.32,2.72.36,2.5.12,4.98.32,7.4,1.04,2.21.66,4.01,1.94,5.54,3.64,1.78,1.97,3.01,4.27,3.95,6.73.45,1.18.89,2.37,1.15,3.6.53,2.51-.16,4.69-2.12,6.41Z"/>
    <path class="cls-1" d="M60.93,23.9c2.6-.38,5.19-.38,7.77.11,2.6.49,5,1.47,7.21,2.96-1.05-1.46-2.34-2.66-3.85-3.6-2.71-1.7-5.71-2.16-8.84-1.96-3.47.23-6.33,1.76-8.76,4.19-.31.31-.63.62-.86,1,.03.05.06.1.09.15,2.2-1.51,4.6-2.46,7.23-2.85Z"/>
    <path class="cls-1" d="M50.98,50.39c.01.57.2.72.76.65.18-.02.28.02.35.21.39.98.77,1.96,1.2,2.92.11.24.33.5.56.61,2.14,1.08,4.45,1.6,6.82,1.84.11.01.28-.03.35-.12.53-.58,1.18-.91,1.97-.9,1.11.01,2.23-.05,3.31.11,1.46.21,2.18,1.81,1.52,3.13-.43.85-1.18,1.21-2.09,1.24-.92.03-1.84,0-2.76,0-.78,0-1.41-.29-1.93-.88-.13-.15-.35-.28-.55-.31-1.21-.22-2.42-.4-3.62-.61-.36-.06-.72-.17-1.14-.28.07.12.09.17.12.21.97,1.31,2.11,2.46,3.47,3.37,1.9,1.28,3.95,2.08,6.31,1.85,1.27-.13,2.45-.5,3.56-1.09,1.71-.92,3.08-2.22,4.33-3.69,1.82-2.15,3.17-4.56,4.04-7.23.15-.46.15-.47.63-.31.02,0,.05,0,.07,0h0s.03-.05.05-.08c0-.11,0-.21,0-.32v-.08c0-2.01,0-4.02,0-6.02,0-.69.04-1.39-.1-2.06-.42-2.03-1.64-3.47-3.5-4.37-1.45-.7-2.94-.66-4.47-.3-1.3.3-2.62.56-3.95.69-1.25.12-2.52.07-3.76-.22-1.09-.25-2.17-.51-3.31-.44-.93.05-1.83.16-2.68.55-.7.32-1.38.69-2.08,1.04-.13.06-.26.11-.48.19.22-.63.41-1.17.6-1.72-.42.06-.61.19-.92.56-1.18,1.39-1.87,3.02-2.35,4.76-.14.51-.3,1.03-.33,1.55-.05,1.15-.02,2.31-.02,3.46,0,.7,0,1.4,0,2.1Z"/>
  </g>
</svg>