<?xml version="1.0" encoding="UTF-8"?>
<svg id="Layer_1" data-name="Layer 1" xmlns="http://www.w3.org/2000/svg" viewBox="0 0 129.12 111.82">
  <defs>
    <style>
      .cls-1 {
        fill: #f5a214;
      }

      .cls-1, .cls-2 {
        stroke-width: 0px;
      }

      .cls-2 {
        fill: #fff;
      }
    </style>
  </defs>
  <polygon class="cls-2" points="94.14 4.68 34.98 4.68 5.4 55.91 34.98 107.15 94.14 107.15 123.72 55.91 94.14 4.68"/>
  <g>
    <path class="cls-1" d="M96.84,0H32.28L0,55.91l32.28,55.91h64.56l32.28-55.91L96.84,0ZM94.14,107.15h-59.16L5.4,55.91,34.98,4.68h59.16l29.58,51.23-29.58,51.23Z"/>
    <g>
      <path class="cls-1" d="M48.41,48.13h1.25l.31,1.21s1.01,3.82,3.4,7.52c3.04,4.72,6.81,7.11,11.22,7.11s8.18-2.39,11.22-7.11c2.38-3.7,3.39-7.48,3.4-7.52l.31-1.2h1.24c.46,0,1.31-1.54,1.31-4.06s-.85-4.06-1.31-4.06h-1.61v-1.2c-2,2.14-6.22,4.97-14.56,4.97s-12.56-2.83-14.56-4.97v1.2h-1.61c-.46,0-1.31,1.54-1.31,4.06s.85,4.06,1.31,4.06Z"/>
      <path class="cls-1" d="M72.56,29.4c2.42.63,5.53,1.48,6.05,4.34.22-1.48-.74-2.84-1.85-3.72-5.31-3.85-14.47-3.88-20.53-1.95-2.48.84-5.96,2.57-5.67,5.67,1.04-6.17,17.36-5.53,22-4.34Z"/>
      <path class="cls-1" d="M91.4,9.45h-53.68L10.93,55.93l26.79,46.5h53.68l26.84-46.49-26.84-46.49ZM64.59,16.46c33.09,0,22.52,14.94,17.78,19v1.72c1.79.93,2.92,3.47,2.92,6.89,0,3.63-1.27,6.27-3.26,7.04-.48,1.48-1.57,4.43-3.47,7.41-3.62,5.66-8.46,8.66-13.97,8.66s-10.35-2.99-13.97-8.66c-1.9-2.98-2.99-5.93-3.47-7.41-1.99-.77-3.26-3.41-3.26-7.04,0-3.42,1.12-5.96,2.92-6.89v-1.72c-4.74-4.06-15.31-19,17.78-19ZM96.1,89.47c-1.24,1.08-2.71,1.75-4.22,2.35-2.16.86-4.41,1.4-6.68,1.85-1.43.29-2.87.52-4.32.74-1.04.15-2.1.24-3.15.34-1.04.1-2.08.19-3.13.27-.97.07-1.93.13-2.9.2-3.38.25-6.77.08-10.16.13-.44,0-.89.02-1.33,0-1.21-.05-2.42-.12-3.63-.19-1.34-.08-2.69-.15-4.03-.27-1.5-.14-3-.31-4.5-.49-.88-.1-1.76-.21-2.63-.38-1.53-.31-3.07-.59-4.56-1.02-1.65-.48-3.28-1.09-4.88-1.72-1.13-.44-2.14-1.12-3.06-1.91-1.39-1.2-1.99-2.77-2.13-4.57-.1-1.25.31-2.38.67-3.53.88-2.8,2.11-5.43,3.93-7.75,2.17-2.76,4.98-4.42,8.45-4.92.97-.14,1.95-.24,2.93-.33.92-.09,1.84-.12,2.76-.21.75-.07,1.49-.18,2.24-.29.19-.03.29,0,.37.18.75,1.75,1.97,3.18,3.18,4.61,1.76,2.1,3.61,4.12,5.41,6.18.23.26.45.52.74.85.23-.85.44-1.61.63-2.37.29-1.11.58-2.23.85-3.35.03-.12-.02-.33-.11-.4-.73-.59-1.03-1.39-1.16-2.28-.04-.27-.05-.55-.08-.82-.01-.16.04-.24.23-.24,1.88,0,3.77,0,5.69,0,.05,1.23-.18,2.36-1.11,3.25-.19.18-.24.33-.17.58.44,1.67.86,3.34,1.29,5.02.04.16.1.31.17.53.13-.11.23-.19.31-.28,2.54-2.79,5.11-5.55,7.4-8.55.64-.84,1.21-1.72,1.57-2.73.09-.25.2-.3.47-.23.89.24,1.8.32,2.72.36,2.5.12,4.98.32,7.4,1.04,2.21.66,4.01,1.94,5.54,3.64,1.78,1.97,3.01,4.27,3.95,6.73.45,1.18.89,2.37,1.15,3.6.53,2.51-.16,4.69-2.12,6.41Z"/>
    </g>
  </g>
</svg>