<?xml version="1.0" encoding="UTF-8"?>
<svg id="Layer_1" data-name="Layer 1" xmlns="http://www.w3.org/2000/svg" viewBox="0 0 129.12 111.82">
  <defs>
    <style>
      .cls-1 {
        fill: #dd5b19;
      }

      .cls-1, .cls-2 {
        stroke-width: 0px;
      }

      .cls-2 {
        fill: #fff;
      }
    </style>
  </defs>
  <polygon class="cls-2" points="94.14 4.68 34.98 4.68 5.4 55.91 34.98 107.15 94.14 107.15 123.72 55.91 94.14 4.68"/>
  <path class="cls-1" d="M96.84,0H32.28L0,55.91l32.28,55.91h64.56l32.28-55.91L96.84,0ZM94.14,107.15h-59.16L5.4,55.91,34.98,4.68h59.16l29.58,51.23-29.58,51.23Z"/>
  <g>
    <path class="cls-1" d="M88.06,68.32h-1.39c-.43,1.31-1.7,3.94-5.25,6.7v6.88h10.38v-9.83c0-2.07-1.68-3.75-3.75-3.75Z"/>
    <path class="cls-1" d="M80.43,73.26c2.48-1.98,3.6-3.82,4.1-4.94h-1.31c-.66.65-1.65,1.07-2.79,1.07s-2.13-.42-2.79-1.07h-1.31c.5,1.12,1.63,2.96,4.1,4.94Z"/>
    <path class="cls-1" d="M86.91,56.47v1.21h.21c.33,0,.6-.28.6-.6s-.28-.6-.6-.6h-.21Z"/>
    <path class="cls-1" d="M79.56,65.46c-.25,0-.5-.02-.75-.05h0v1.02c0,.45.69.96,1.62.96s1.62-.51,1.62-.96v-1.03s0,0,0,0c-.26.04-.53.06-.81.06h-1.68Z"/>
    <path class="cls-1" d="M74.44,54.16c1.86-.96,1.94-2.93,1.94-3.33v-.07c-.03-.37.16-.73.49-.93.32-.19.73-.18,1.04.03.61.39,1.19.71,1.73.97,4.3,2.06,6.72.47,6.84.39.13-.09.28-.15.43-.17.36-.05.73.1.96.42.31.45.21,1.06-.23,1.38-.04.03-.29.2-.73.39v1.23h.21c.3,0,.59.06.86.16.51-1.58.33-3.55-.55-5.24-.64-1.22-2.19-3.31-5.44-3.54-2.11-.15-3.71.2-4.63,1.01-.78.68-.84,1.48-.84,1.51-.02.27-.14.53-.35.7-.2.18-.47.27-.74.25-.17,0-1.8-.04-2.58,1.93-.53,1.34-.27,2.57.03,3.35.26-.08.53-.13.81-.13h.4c.09-.13.21-.23.35-.31Z"/>
    <path class="cls-1" d="M73.09,57.07c0,.33.27.6.6.6h.21v-1.2h-.21c-.33,0-.6.27-.6.6Z"/>
    <path class="cls-1" d="M54.74,61.82c-.02-.71-.65-.71-.85-.71-.78,0-.96.31-1.01.45v6.64c0,.55-.45,1-1,1s-1-.45-1-1v-6.72s0-.02,0-.02v-5.75c-.03-.34-.22-.81-.97-.81s-.94.47-.97.87v12.63c0,.55-.45,1-1,1s-1-.45-1-1v-14.9c.01-.23-.01-.72-.24-.96-.04-.05-.18-.19-.61-.19-.49,0-.66.17-.71.23-.25.26-.26.72-.26.73v2.28s0,0,0,.01c0,.13,0,.22,0,.25v12.3c0,.55-.45,1-1,1s-1-.45-1-1v-12.36c0-.15-.03-.49-.21-.67-.13-.13-.35-.2-.66-.2-.86,0-.95.85-.95,1.22v16.46c0,.27-.06,1.59-.86,2.3-.39.34-.87.5-1.4.44-1.6-.17-2.25-2.45-2.83-4.99l-.09-.39c-.09-.38-.38-1.56-.83-1.79-.13-.06-.32-.04-.59.07-.58.24-.67.4.12,3.46.22.85.48,1.85.73,3.03.98,4.48,2.7,7.55,2.94,7.96,1.57,2,3.92,3.15,6.45,3.15h2.45c4.06,0,7.36-3.3,7.36-7.36v-16.67Z"/>
    <path class="cls-1" d="M93.64,36.39h-22.49c-1.27,0-2.35.82-2.76,1.95h28.02c-.41-1.13-1.49-1.95-2.76-1.95Z"/>
    <path class="cls-1" d="M79.56,63.46h1.68c2.02,0,3.67-1.64,3.67-3.66v-6.01c-1.41.2-3.33.08-5.68-.96-.34-.14-.69-.31-1.05-.5-.04.16-.09.33-.15.5-.32.94-.94,2-2.13,2.79v4.18c0,2.02,1.64,3.66,3.66,3.66Z"/>
    <path class="cls-1" d="M54.43,31.49c-2.93,0-5.32,2.39-5.32,5.32s2.39,5.32,5.32,5.32,5.32-2.39,5.32-5.32-2.39-5.32-5.32-5.32ZM54.43,40.12c-1.83,0-3.31-1.49-3.31-3.31s1.49-3.31,3.31-3.31,3.31,1.49,3.31,3.31-1.49,3.31-3.31,3.31Z"/>
    <path class="cls-1" d="M54.43,35.49c-.72,0-1.31.59-1.31,1.31s.59,1.31,1.31,1.31,1.31-.59,1.31-1.31-.59-1.31-1.31-1.31Z"/>
    <path class="cls-1" d="M68.2,81.9h11.24v-6.88c-3.55-2.76-4.81-5.38-5.24-6.7h-.35c-1.09,0-2.12.47-2.83,1.29-.2.23-.48.34-.76.34-.23,0-.47-.08-.66-.25-.42-.36-.46-.99-.1-1.41,1.09-1.26,2.67-1.98,4.34-1.98h2.98v-1.56c-1.73-.97-2.91-2.83-2.91-4.95v-.13h-.21c-1.43,0-2.6-1.17-2.6-2.6,0-.38.08-.74.23-1.07-.5-.99-1.27-3.11-.32-5.49.84-2.13,2.48-2.93,3.7-3.14.18-.56.55-1.3,1.29-1.97,1.35-1.22,3.42-1.74,6.15-1.55,3.09.22,5.67,1.9,7.08,4.61,1.3,2.49,1.4,5.42.33,7.65.12.3.19.62.19.96,0,1.43-1.17,2.6-2.6,2.6h-.21v.13c0,2.1-1.15,3.93-2.86,4.91v1.6h4.01c3.17,0,5.75,2.58,5.75,5.75v9.83h2.78v-41.56h-28.39v41.56Z"/>
    <path class="cls-1" d="M91.41,9.46h-53.65L10.93,55.93l26.83,46.47h53.65l26.83-46.47-26.83-46.47ZM37.03,53.82c.42.36.46,1,.09,1.41-.87.99-1.34,2.28-1.34,3.63s.48,2.67,1.36,3.66c.37.41.33,1.04-.08,1.41-.19.17-.43.25-.66.25-.28,0-.55-.11-.75-.34-1.21-1.36-1.87-3.13-1.87-4.98s.65-3.59,1.84-4.95c.36-.41,1-.46,1.41-.09ZM32.82,52.25c.35-.43.98-.5,1.41-.15.43.35.5.98.15,1.41-1.2,1.49-1.86,3.39-1.86,5.35s.67,3.9,1.9,5.4c.35.43.29,1.06-.14,1.41-.19.15-.41.23-.63.23-.29,0-.58-.12-.77-.37-1.51-1.85-2.35-4.22-2.35-6.66s.82-4.76,2.3-6.61ZM93.64,87.85h-22.49c-.55,0-1-.45-1-1s.45-1,1-1h22.49c1.27,0,2.35-.82,2.76-1.95h-28.2v1.24c0,1.5-1.22,2.71-2.71,2.71h-20.75s-.05-.01-.07-.01c-3.07-.08-5.91-1.5-7.81-3.96l-.06-.09c-.08-.14-2.08-3.47-3.21-8.61-.25-1.15-.5-2.13-.72-2.96-.75-2.92-1.24-4.84,1.04-5.81,1.03-.43,1.8-.24,2.26-.01,1.28.65,1.68,2.3,1.87,3.1l.1.41c.46,2,.81,2.9,1.05,3.28.05-.17.09-.41.1-.61v-16.44c0-.14,0-1.5.92-2.42.52-.52,1.22-.8,2.03-.8.34,0,.63.05.89.12.04-.43.2-1.22.81-1.86.37-.38,1.04-.83,2.15-.83s1.73.46,2.08.84c.56.61.72,1.37.76,1.88.29-.09.61-.16.98-.16,2.1,0,2.92,1.66,2.97,2.78v3.57c.3-.08.62-.14,1.01-.14,1.07,0,1.72.43,2.07.79.77.78.78,1.81.78,1.93v16.66c0,2.99-1.41,5.64-3.59,7.36h12.34c.39,0,.71-.32.71-.71V28.28c0-.39-.32-.71-.71-.71h-22.26c-.39,0-.71.33-.71.71v22.73c0,.55-.45,1-1,1s-1-.45-1-1v-22.73c0-1.5,1.22-2.71,2.71-2.71h22.26c1.5,0,2.71,1.22,2.71,2.71v7.11c.83-.62,1.84-1,2.95-1h22.49c2.73,0,4.95,2.22,4.95,4.95v43.56c0,2.73-2.22,4.95-4.95,4.95ZM57.74,55.23c-.36-.42-.32-1.05.09-1.41.42-.37,1.05-.32,1.41.09,1.18,1.35,1.84,3.11,1.84,4.95s-.66,3.63-1.87,4.98c-.2.22-.47.34-.75.34-.24,0-.47-.08-.66-.25-.41-.37-.45-1-.08-1.41.88-.99,1.36-2.29,1.36-3.66s-.48-2.64-1.34-3.63ZM60.45,64.26c1.22-1.5,1.9-3.41,1.9-5.4s-.66-3.86-1.86-5.35c-.35-.43-.28-1.06.15-1.41.43-.35,1.06-.28,1.41.15,1.48,1.84,2.3,4.19,2.3,6.61s-.83,4.81-2.35,6.66c-.2.24-.49.37-.77.37-.22,0-.45-.07-.63-.23-.43-.35-.49-.98-.14-1.41ZM54.43,44.12c-4.04,0-7.32-3.28-7.32-7.32s3.28-7.32,7.32-7.32,7.32,3.28,7.32,7.32-3.28,7.32-7.32,7.32Z"/>
  </g>
</svg>