<?xml version="1.0" encoding="utf-8"?>
<!-- Generator: Adobe Illustrator 27.5.0, SVG Export Plug-In . SVG Version: 6.00 Build 0)  -->
<svg version="1.1" id="Capa_1" xmlns="http://www.w3.org/2000/svg" xmlns:xlink="http://www.w3.org/1999/xlink" x="0px" y="0px"
	 viewBox="0 0 1080 1080" style="enable-background:new 0 0 1080 1080;" xml:space="preserve">
<style type="text/css">
	.st0{fill:url(#SVGID_1_);}
	.st1{fill:url(#SVGID_00000078730835774529272020000007083109808881612980_);}
	.st2{fill:#FFFFFF;}
</style>
<g>
	<g>
		<g>
			<linearGradient id="SVGID_1_" gradientUnits="userSpaceOnUse" x1="540" y1="0" x2="540" y2="1080">
				<stop  offset="0" style="stop-color:#B23C00"/>
				<stop  offset="1" style="stop-color:#D44F00"/>
			</linearGradient>
			<path class="st0" d="M1057.52,1080H22.48C10.07,1080,0,1069.93,0,1057.52V22.48C0,10.07,10.07,0,22.48,0h1035.03
				c12.42,0,22.48,10.07,22.48,22.48v1035.03C1080,1069.93,1069.93,1080,1057.52,1080z"/>
		</g>
		<g>
			
				<linearGradient id="SVGID_00000030449455449815096270000009723284803878245013_" gradientUnits="userSpaceOnUse" x1="540" y1="1042.4111" x2="540" y2="37.5888">
				<stop  offset="0" style="stop-color:#B23C00"/>
				<stop  offset="1" style="stop-color:#D44F00"/>
			</linearGradient>
			<path style="fill:url(#SVGID_00000030449455449815096270000009723284803878245013_);" d="M1019.93,1042.41H60.07
				c-12.42,0-22.48-10.07-22.48-22.48V60.07c0-12.42,10.07-22.48,22.48-22.48h959.85c12.42,0,22.48,10.07,22.48,22.48v959.85
				C1042.41,1032.34,1032.34,1042.41,1019.93,1042.41z"/>
		</g>
	</g>
	<g>
		<g>
			<path class="st2" d="M330.14,147.1C272.09,260.75,211.18,372.87,148.9,484.19v-10.74c32.59,54.8,64.27,110.13,96.29,165.25
				c31.48,55.44,63.31,110.68,94.21,166.46l-9.28-5.39c127.03,1.44,254.07,4.45,380.97,10.77c-128.92,6.43-257.97,9.44-387.01,10.83
				c-33.73-56.57-66.44-113.75-99.51-170.71c-32.51-57.28-65.38-114.35-97.25-171.99C193.05,367.01,260.18,256.16,330.14,147.1
				L330.14,147.1z"/>
			<path class="st2" d="M745.92,788.79c58.04-113.64,118.95-225.76,181.23-337.09v10.74c-32.59-54.8-64.27-110.13-96.29-165.25
				c-31.48-55.44-63.31-110.68-94.21-166.46l9.28,5.39c-127.03-1.44-254.07-4.45-380.97-10.77c128.92-6.43,257.97-9.44,387.01-10.83
				c33.73,56.57,66.43,113.75,99.51,170.71c32.51,57.28,65.38,114.35,97.25,171.99C883,568.88,815.87,679.73,745.92,788.79
				L745.92,788.79z"/>
		</g>
		<g>
			<path class="st2" d="M538.41,257.76c9.51,1.89,11.78,12.53,11.36,20.67c0.51,9.17,0.8,18.34,0.91,27.5
				c-5.21-0.02-20.68,0.11-25.81-0.01c-3.43,0.18-5.03-2.44-5.39-5.23V300l0.18-9.22c1.06-9.31-1.45-19.65,3.52-28.04
				c2.21-2.78,5.15-4.43,8.09-5.69C533.68,257.21,536.08,257.5,538.41,257.76L538.41,257.76z M538.41,257.76l-7.03,0.7
				c-3.84,2.49-8.54,8.05-7.13,13.89c0.51,8.64,0.91,20.06,0.96,27.84l0.18,0.33c-0.05,0.08,0.47,0.27-0.56-0.31
				c-0.09-0.04-0.52-0.18-0.8-0.17c-0.09,0,0.08,0,0.08,0c0.16,0.03,0.68-0.02,0.86,0c2.94-0.08,19.54,0.16,22.84,0.19l-2.82,2.84
				c0.17-8.27,0.51-16.53,1.01-24.78C546.89,270.08,546.85,261.78,538.41,257.76L538.41,257.76z"/>
			<path class="st2" d="M358.53,363.17c2.69-6.34,8.97-14.4,17.26-11.36c11.87,5.28,22.76,11.68,34.09,17.98
				c-4.94,9.15-10.18,18.18-15.42,27.16l-2.39-1.45c-8.99-5.34-18.66-11.71-27.47-17.4c-3.22-2.4-5.51-5.84-6.63-9.43L358.53,363.17
				L358.53,363.17z M358.53,363.17l0.57,5.51c1.25,2,4.16,5.77,7.05,6.96c9.35,4.73,19.64,9.92,28.71,14.97l-3.84,1.06
				c4.06-7.44,8.14-14.87,12.41-22.19l1.07,3.96c-8.13-4.77-16.16-9.7-24.07-14.87c-4.08-2.75-7.47-5.16-11.74-4.03
				C364.37,355.32,361.75,359.72,358.53,363.17L358.53,363.17z"/>
			<g>
				<path class="st2" d="M652.89,583.06c-60.72,1.68-177.91,4.18-238.68,5c-0.93-27.94-0.53-54.84-0.78-82.17
					c0.88-23.45-2.93-55.25,3.51-78.27c32.07-120.69,204.91-121.12,235.59,0.55c5.65,26.23,2.63,52.15,2.5,77.73L652.89,583.06
					L652.89,583.06z M652.89,583.06l-2.21-77.13c-1.32-25.65,0.75-51.84-5.27-75.94c-31.65-109.61-186.56-109.74-217.32,0.6
					c-6.13,20.4-2.91,53.73-3.91,75.38l-0.33,76.68l-4.88-4.51C477.22,578.95,594.59,581.5,652.89,583.06L652.89,583.06z"/>
				<path class="st2" d="M458.16,420.01c2.64,41.42,5.04,80.59,5.7,121.11l-5.52-5.73c29.17,0.54,54.28-25.95,54.68-55.13
					C514.79,450.84,488.63,420.53,458.16,420.01L458.16,420.01z M458.16,420.01c15.84-3.18,32.72,4.11,44.63,15.32
					c45.32,40.83,10.02,117.64-50.41,111.35C452.87,504.62,455.18,461.08,458.16,420.01L458.16,420.01z"/>
				<path class="st2" d="M612.5,419.77c-72.18,6.11-73.29,111.92-0.25,114.99l-5.46,5.73C607.43,500.08,609.93,461.12,612.5,419.77
					L612.5,419.77z M612.5,419.77c2.91,40.89,5.33,84.33,5.78,126.25C527.96,552.07,522.31,417.26,612.5,419.77L612.5,419.77z"/>
			</g>
			<path class="st2" d="M395.82,604.68c0.27-7.46,7.94-10.34,14.31-9.62l19.41-0.09c24.44-0.06,91.1-1.49,116.43-2.06l77.62-1.85
				l38.81-0.93c8.98-1.26,19.15,4.63,19.39,14.59l0.34,19.76l-5.56-5.59c6.48-0.3,17.93-0.77,22.59,7.31
				c4.42,7.16,2.59,14.74,2.98,22.51c0.07,5.86-3.12,13.47-9.2,15.88c-4.86,2.38-10.29,1.75-15.2,1.88
				c-47.06-0.11-94.9-0.68-141.91-2l-103.2-2.48c-8.04-0.22-30.81-0.71-38.7-0.78c-20.27,1.51-19.47-9.13-18.53-25.87
				c1-10.6,12.37-11.86,20.24-10.87C395.65,624.47,395.82,604.68,395.82,604.68L395.82,604.68z M395.82,604.68
				c-0.03,0.11,0.15,19.98-0.08,19.89c-8.27-0.54-18.96,0.35-19.9,10.84c-0.5,15.72-1.7,26.57,18.1,24.38
				c85.35-1.46,185.91-5.17,270.91-5.19l12.9-0.06c5.17-0.49,12.93,2.22,12.73-6.34c0.47-21.31,0.55-17.31-19.53-18.37
				c0.08-3.55,0.2-20.7,0.28-24.59c-0.08-4.7-5.2-5.16-8.84-5.04l-38.81-0.93l-77.62-1.85c-25.56-0.57-91.66-2-116.43-2.06
				l-19.41-0.09C403.82,594.48,396.09,597.23,395.82,604.68L395.82,604.68z"/>
			<path class="st2" d="M602.76,317.73c3.46-7.3,7.12-15.36,11.35-23.49c2.11-3.89,4.19-9.67,8.55-11.7
				c12.72-7.59,29.5,7.7,21.13,20.81c-5.84,9.99-12.03,20-18.42,29.63C617.38,328.09,609.57,322.42,602.76,317.73L602.76,317.73z
				 M602.76,317.73c8.26,3.99,15.9,7.26,22.98,10.93l-2.62,0.7c4.89-9.7,10.15-19.42,15.55-28.85c0.94-1.65,1.32-3.2,1.34-4.85
				c0.26-7.1-8.91-11.71-14.97-8.57C616.52,294.24,610.69,307.84,602.76,317.73L602.76,317.73z"/>
			<path class="st2" d="M664.99,370.38c6.61-4.6,13.74-9.74,21.42-14.67c3.74-2.32,8.42-6.3,13.2-5.86
				c14.98,0.01,21.34,21.19,7.72,28.71c-9.98,5.75-20.27,11.34-30.57,16.5C672.36,386.78,668.48,377.91,664.99,370.38L664.99,370.38
				z M664.99,370.38c5.11,7.64,10.02,14.35,14.27,21.13l-2.64-0.71c9.02-5.98,18.38-11.78,27.7-17.27c1.46-0.94,2.72-2.13,3.5-3.57
				c3.77-6-1.44-14.61-8.42-14.94C688.51,356.92,676.72,365.8,664.99,370.38L664.99,370.38z"/>
			<path class="st2" d="M467.74,317.83c-6.8,4.69-14.61,10.37-22.59,15.26c-5.06-7.92-9.93-15.97-14.63-24.1l-3.23-5.69
				c-8.47-12.79,8.11-28.99,20.75-20.42C458.18,292.13,461.49,306.92,467.74,317.83L467.74,317.83z M467.74,317.83
				c-8.18-10.33-13.4-22.55-22.37-30.53c-6.07-3.73-14.62,1.51-14.39,8.45c2.97,10.61,12.01,22.76,16.45,33.73l-2.63-0.73
				C451.87,325.08,459.49,321.82,467.74,317.83L467.74,317.83z"/>
		</g>
	</g>
	<g>
		<path class="st2" d="M416.31,897.56h-20.58L390,912.63h-6.52l20.89-52.62h4.01l20.66,52.62h-7.07L416.31,897.56z M397.77,892.21
			h16.57l-8.17-21.83L397.77,892.21z"/>
		<path class="st2" d="M438.06,860.01h6.28v47.44h24.35v5.18h-30.63V860.01z"/>
		<path class="st2" d="M507.02,897.56h-20.58l-5.73,15.08h-6.52l20.89-52.62h4.01l20.66,52.62h-7.07L507.02,897.56z M488.48,892.21
			h16.57l-8.17-21.83L488.48,892.21z"/>
		<path class="st2" d="M563.33,913.03c-3.14,0-5.65-1.1-8.09-5.1l-8.33-13.82c-1.73-2.91-2.75-4.71-6.99-4.71h-4.87v23.25h-6.28
			v-52.62h15.55c10.37,0,16.73,4.87,16.73,13.74c0,7.15-3.38,13.12-11.86,15c1.88,1.02,3.46,2.98,4.63,5.03l6.83,11.23
			c1.26,2.12,2.36,2.67,3.85,2.67h1.73v4.95C565.22,912.87,564.35,913.03,563.33,913.03z M535.06,883.89h8.64
			c8.09,0,10.84-4.01,10.84-10.13c0-5.81-4.4-8.48-11.78-8.48h-7.7V883.89z"/>
		<path class="st2" d="M575.66,860.01h7.54l18.61,42.88l18.77-42.88h6.99v52.62h-6.28v-39.82l-17.67,39.82h-3.93l-17.75-40.13v40.13
			h-6.28V860.01z"/>
		<path class="st2" d="M669.43,897.56h-20.58l-5.73,15.08h-6.52l20.89-52.62h4l20.66,52.62h-7.07L669.43,897.56z M650.9,892.21
			h16.57l-8.17-21.83L650.9,892.21z"/>
		<path class="st2" d="M406.37,995.73l15.16-41.47h6.75l-20.34,52.62h-3.53l-20.42-52.62h6.68L406.37,995.73z"/>
		<path class="st2" d="M437.32,954.26h29.61v5.26H443.6v17.04h18.77v5.26H443.6v19.79h23.56v5.26h-29.84V954.26z"/>
		<path class="st2" d="M473.84,981.28c0-17.67,10.68-28.12,26.23-28.12c5.26,0,10.92,1.34,14.45,3.06l-1.1,5.97
			c-3.3-1.81-8.17-3.3-12.96-3.3c-12.8,0-19.95,8.48-19.95,22.38c0,13.04,8.17,20.89,20.66,20.89c5.1,0,10.29-1.57,13.19-3.38
			l0.86,5.73c-3.93,2.12-10.29,3.46-15.24,3.46C483.89,1007.98,473.84,997.69,473.84,981.28z"/>
		<path class="st2" d="M525.83,954.26h6.28v52.62h-6.28V954.26z"/>
		<path class="st2" d="M545.46,954.26h7.15l27.72,38.01v-38.01h6.28v52.62H583L551.75,964v42.88h-6.28V954.26z"/>
		<path class="st2" d="M628.48,991.8H607.9l-5.73,15.08h-6.52l20.89-52.62h4l20.66,52.62h-7.07L628.48,991.8z M609.94,986.46h16.57
			l-8.17-21.83L609.94,986.46z"/>
		<path class="st2" d="M650.23,954.26h6.28v47.44h24.35v5.18h-30.63V954.26z"/>
	</g>
</g>
</svg>
