<?xml version="1.0" encoding="utf-8"?>
<!-- Generator: Adobe Illustrator 27.5.0, SVG Export Plug-In . SVG Version: 6.00 Build 0)  -->
<svg version="1.1" id="Capa_1" xmlns="http://www.w3.org/2000/svg" xmlns:xlink="http://www.w3.org/1999/xlink" x="0px" y="0px"
	 viewBox="0 0 1080 1080" style="enable-background:new 0 0 1080 1080;" xml:space="preserve">
<style type="text/css">
	.st0{fill:url(#SVGID_1_);}
	.st1{fill:url(#SVGID_00000011742403997099821010000003583564839739952539_);}
	.st2{fill:#FFFFFF;}
</style>
<g>
	<g>
		<g>
			<linearGradient id="SVGID_1_" gradientUnits="userSpaceOnUse" x1="540" y1="0" x2="540" y2="1080">
				<stop  offset="0" style="stop-color:#B23C00"/>
				<stop  offset="1" style="stop-color:#D44F00"/>
			</linearGradient>
			<path class="st0" d="M1057.52,1080H22.48C10.07,1080,0,1069.93,0,1057.52V22.48C0,10.07,10.07,0,22.48,0h1035.03
				c12.42,0,22.48,10.07,22.48,22.48v1035.03C1080,1069.93,1069.93,1080,1057.52,1080z"/>
		</g>
		<g>
			
				<linearGradient id="SVGID_00000155825264345338592720000009780165600515906692_" gradientUnits="userSpaceOnUse" x1="540" y1="1042.4111" x2="540" y2="37.5888">
				<stop  offset="0" style="stop-color:#B23C00"/>
				<stop  offset="1" style="stop-color:#D44F00"/>
			</linearGradient>
			<path style="fill:url(#SVGID_00000155825264345338592720000009780165600515906692_);" d="M1019.93,1042.41H60.07
				c-12.42,0-22.48-10.07-22.48-22.48V60.07c0-12.42,10.07-22.48,22.48-22.48h959.85c12.42,0,22.48,10.07,22.48,22.48v959.85
				C1042.41,1032.34,1032.34,1042.41,1019.93,1042.41z"/>
		</g>
	</g>
	<g>
		<g>
			<g>
				<g>
					<path class="st2" d="M627.93,416.79c-11.54-1.28-7.48-12.52-11.04-24.09c-3.88-18.99-9.59-37.7-18.09-55.12
						c-3.76-8.54-9.45-17.8-19.58-18.57c-9.84-1.12-17.2,6.62-25.11,11.97c-7.71,5.94-16.15,10.8-24.66,15.49
						c-51.75,27.17-109.89,39.13-167.15,48.17c-28.26,4.26-58.11,6.68-86.34,8.79c-9.68,0.84-11.05,9.79-11.07,20.09
						c-8.78,2.61-18.7,6.06-18.53,15.92l0.02,9.63l0.23,39.23c0.46,11.95-3.22,27.92,11.74,30.78c3.01,0.44,7.18,4.27,7.52,7.5
						c0.62,3.48,0,5.58,1.29,8.5c1.57,3.62,5.37,5,8.78,7.27c1.99,1.58,3.6,3.27,4.93,5.98l-5.15-3.45
						c14.91,1.13,79.08,3.35,92.47,5.08c66.61,10.51,136.45,24.77,191.75,65.87c25.81,23.9,37.47-6.41,45.73-28.17
						c6.52-17.3,10.48-35.28,13.46-53.59c0.31-3.56,4.21-5.85,7.4-6.08C686.7,516.99,687.87,429.43,627.93,416.79L627.93,416.79z
						 M627.93,416.79c61.01,12.31,60.01,101.29-1.05,113.03c-3.1,0.42-5.41,1.69-5.77,4.72c-3.16,24.5-8.59,49.12-18.76,71.78
						c-8.31,23.09-26.19,31.47-45.92,14.23c-55.18-38.63-124.46-49.81-189.72-59.73c-12.09-1.38-78.05-3.07-91.49-3.9l-3.86-0.15
						c-0.86-2.06-1.26-4.49-3.8-5.4c-8.27-3.58-13.99-12.81-13.3-22.08c0,0,0.43,0.98,0.82,1.22c-8.63-1.33-19.36-11.41-19.71-21.84
						c-0.41-7.85-0.05-13.47-0.11-20.32l0.23-39.35c0.4-6.96-0.89-15.84,3.7-22.01c5-7.49,12.61-10.35,19.14-12.45l-3.67,4.48
						c0.36-31.4,27.35-25.12,49.22-26.98c57.61-3.14,115.22-10.88,170.79-26.85c27.52-8.3,55.08-18.63,78.55-35.62
						c6.86-4.52,17.03-13.73,26.19-11.91c10.56,0.89,16.66,10.65,20.35,19.48c8.33,17.59,13.84,36.4,17.51,55.5
						C620.63,403.91,616.39,415.41,627.93,416.79L627.93,416.79z"/>
					<path class="st2" d="M334.27,530.27c-17.34-0.37-39.31,0.22-56.6-0.65c-0.08-1.01-0.8-23.05-0.9-24.84l4.06,4.08l-19.05,0.7
						l-4.6,0.17c-0.83-24.91-1.29-49.88-1.34-74.79c5.92-0.02,15.03-0.04,20.95-0.05c0.43,0.04,0.63-0.11,0.07,0.08
						c-0.71,0.08-1.97,1.58-1.97,2c-0.12,0.99-0.05-2.75-0.08-2.85c0-5.83,0.04-14.85,0.05-20.67c21.57-1.55,43.21-2.89,64.82-3.92
						C339.01,449.66,336.57,491.03,334.27,530.27L334.27,530.27z M334.27,530.27c-1.82-33.39-4.57-82.43-5.32-115.11l5.71,5.34
						c-17.78,1.72-35.59,3.22-53.39,4.56l5.54-6l0.09,9.8c-0.17,4.16,0.58,7.59-0.55,11.91c-1.99,6.77-9.49,6.37-14.9,6.12
						l-9.68-0.09l5.91-5.94c-0.08,21.3-0.49,42.61-1.16,63.91l-4.75-4.78c3.16,0.14,20.55,0.73,23.26,0.85
						c-0.08,2.36-0.82,22.75-0.93,25.62l-3.05-3.29C295.96,524.99,318.96,528.3,334.27,530.27L334.27,530.27z"/>
					<path class="st2" d="M599.53,533.33c-3.78,25.22-9.5,50.91-22.34,73.16c-14.8-9.89-35.05-23.15-51.34-29.74
						c-35.3-15.77-74.75-24.78-112.99-30.04l-57.9-8.98l-4.3-0.67l-0.04-4.32l-1.04-119.97l-0.05-5.23l5.21-0.79
						c75.99-11.1,157.09-22.71,220.31-69.79l2.52-1.98l1.5,2.77C608.28,397.74,607.53,468.45,599.53,533.33L599.53,533.33z
						 M599.53,533.33c7.08-64.39,6.74-134.99-25.12-192.99l4.02,0.8c-62.08,51.1-144.86,65.97-221.9,77.67l5.16-6.02l-1.04,119.97
						l-4.34-4.99l58.06,11.51c38.32,6.92,77.7,17.7,112.6,35.07c15.7,7.34,36,20.83,50.38,30.78
						C586.85,585.65,596.5,557.65,599.53,533.33L599.53,533.33z"/>
					<path class="st2" d="M625.93,507.79c-2.88-21.15-6.07-49.76-5.96-75.62C666.17,430.95,671.25,502.76,625.93,507.79
						L625.93,507.79z M625.93,507.79c28.28-12.04,28.59-55.36,0-63.48l5.89-5.92C631.55,459.91,628.54,481.2,625.93,507.79
						L625.93,507.79z"/>
				</g>
				<path class="st2" d="M745.73,484.04c-8.94,0.11-17.87,0.28-26.81,0.85c-4.32,0.1-9.13,1.36-14.01-0.83
					c-4.84-1.83-8.5-7.19-8.6-12.73c0.97-24.23,33.61-16.07,49.91-18.15c16.04,1.92,49.96-5.93,49.37,18.78
					c-0.98,12.88-13.34,14.6-23.05,12.93C763.59,484.33,754.66,484.14,745.73,484.04L745.73,484.04z M745.73,484.04
					c12.62-0.88,27.5,1.1,39.21-3.14c8.53-4.73,4.24-18.58-5.37-16.81c-23.8,2.54-47.91,0.29-71.58,0.37
					c-2.92,0.94-5.2,3.48-5.63,7.02c-1.18,9.24,8.68,11.97,16.58,11.73C727.86,483.75,736.79,483.93,745.73,484.04L745.73,484.04z"
					/>
				<path class="st2" d="M753.07,596.98c0.11,10.09-10.78,19.69-21.09,14.16c-8-4.79-15.58-9.47-23.1-14.46
					c-10.91-7.06-22.69-15.3-33.34-22.87c-21.09-12.62-4.49-44.23,17.46-32.05c15.04,10.77,28.52,22.49,42.55,34.42l10.05,9.08
					C749.62,588.39,750.93,593.12,753.07,596.98L753.07,596.98z M753.07,596.98c-5.8-7.83-12.99-11.32-21.04-15.97
					c-7.65-4.74-15.26-9.54-22.73-14.52c-5.47-3.53-11.35-7.61-16.74-11.31c-3.68-2.69-8.41-5.9-11.86-3.46
					c-9.86,8.2,7.16,15.52,12.6,20.57c12.39,9.44,29.62,23.63,41.75,33.75C741.87,611.6,750.77,604.79,753.07,596.98L753.07,596.98z
					"/>
				<path class="st2" d="M753.39,344.91c-1.86,3.96-2.33,9.14-6.62,12.29l-10.09,9.08c-13.64,11.85-27.72,23.15-42,34.21
					c-4.52,3.91-12.65,5.27-18.62,2.13c-13.07-5.9-13.96-25.33-1.71-32.19c10.71-7.61,22.49-15.84,33.46-22.93
					C724.7,338.09,742.44,316.53,753.39,344.91L753.39,344.91z M753.39,344.91c-3.24-3.11-5.94-7.26-9.33-9.13
					c-3.51-1.79-7.23-0.6-9.93,2.07c-6.85,5.88-13.74,11.71-20.77,17.34c-10.08,8.25-21.51,16.99-31.99,24.83
					c-3.32,2.29-3.69,3.73-3.76,6.14c0.22,4.9,5.89,8.6,10.4,4.93c7.45-5.04,14.77-10.25,22.35-15.11
					c7.49-4.98,15.13-9.77,22.81-14.51l11.7-6.87C748.69,352.99,750.4,348.37,753.39,344.91L753.39,344.91z"/>
			</g>
		</g>
		<g>
			<path class="st2" d="M330.74,147.31c-57.89,113.63-118.72,225.72-180.93,336.98v-10.95c32.58,54.76,64.24,110.04,96.25,165.13
				c31.45,55.41,63.27,110.61,94.13,166.36l-9.46-5.49c126.95,1.46,253.91,4.53,380.73,10.98c-128.87,6.55-257.88,9.63-386.89,11.05
				c-33.75-56.57-66.46-113.75-99.54-170.7c-32.5-57.28-65.38-114.35-97.23-172.02C193.53,367.05,260.7,256.26,330.74,147.31
				L330.74,147.31z"/>
			<path class="st2" d="M746.27,788.59c57.89-113.63,118.72-225.72,180.93-336.98v10.95c-32.58-54.76-64.24-110.04-96.25-165.13
				c-31.45-55.41-63.27-110.61-94.13-166.36l9.46,5.49c-126.95-1.47-253.91-4.53-380.73-10.99c128.87-6.55,257.88-9.63,386.89-11.05
				c33.75,56.57,66.46,113.75,99.54,170.7c32.5,57.29,65.38,114.36,97.23,172.02C883.47,568.85,816.3,679.63,746.27,788.59
				L746.27,788.59z"/>
		</g>
	</g>
	<g>
		<path class="st2" d="M422.03,944.68h-20.58l-5.73,15.08h-6.52l20.89-52.62h4.01l20.66,52.62h-7.07L422.03,944.68z M403.5,939.34
			h16.57l-8.17-21.83L403.5,939.34z"/>
		<path class="st2" d="M443.79,907.14h6.28v47.44h24.35v5.18h-30.63V907.14z"/>
		<path class="st2" d="M512.75,944.68h-20.58l-5.73,15.08h-6.52l20.89-52.62h4.01l20.66,52.62h-7.07L512.75,944.68z M494.21,939.34
			h16.57l-8.17-21.83L494.21,939.34z"/>
		<path class="st2" d="M569.06,960.15c-3.14,0-5.65-1.1-8.09-5.1l-8.33-13.82c-1.73-2.91-2.75-4.71-6.99-4.71h-4.87v23.25h-6.28
			v-52.62h15.55c10.37,0,16.73,4.87,16.73,13.74c0,7.15-3.38,13.12-11.86,15c1.88,1.02,3.46,2.98,4.63,5.03l6.83,11.23
			c1.26,2.12,2.36,2.67,3.85,2.67h1.73v4.95C570.94,959.99,570.08,960.15,569.06,960.15z M540.78,931.01h8.64
			c8.09,0,10.84-4.01,10.84-10.13c0-5.81-4.4-8.48-11.78-8.48h-7.7V931.01z"/>
		<path class="st2" d="M581.39,907.14h7.54l18.61,42.88l18.77-42.88h6.99v52.62h-6.28v-39.82l-17.67,39.82h-3.93l-17.75-40.13v40.13
			h-6.28V907.14z"/>
		<path class="st2" d="M675.16,944.68h-20.58l-5.73,15.08h-6.52l20.89-52.62h4l20.66,52.62h-7.07L675.16,944.68z M656.63,939.34
			h16.57l-8.17-21.83L656.63,939.34z"/>
	</g>
</g>
</svg>
