<?xml version="1.0" encoding="utf-8"?>
<!-- Generator: Adobe Illustrator 27.5.0, SVG Export Plug-In . SVG Version: 6.00 Build 0)  -->
<svg version="1.1" id="Capa_1" xmlns="http://www.w3.org/2000/svg" xmlns:xlink="http://www.w3.org/1999/xlink" x="0px" y="0px"
	 viewBox="0 0 1080 1080" style="enable-background:new 0 0 1080 1080;" xml:space="preserve">
<style type="text/css">
	.st0{fill:url(#SVGID_1_);}
	.st1{fill:url(#SVGID_00000016065154637227767230000002414336243019676327_);}
	.st2{fill:#FFFFFF;}
</style>
<g>
	<g>
		<g>
			<linearGradient id="SVGID_1_" gradientUnits="userSpaceOnUse" x1="540" y1="0" x2="540" y2="1080">
				<stop  offset="0" style="stop-color:#B23C00"/>
				<stop  offset="1" style="stop-color:#D44F00"/>
			</linearGradient>
			<path class="st0" d="M1057.52,1080H22.48C10.07,1080,0,1069.93,0,1057.52V22.48C0,10.07,10.07,0,22.48,0h1035.03
				c12.42,0,22.48,10.07,22.48,22.48v1035.03C1080,1069.93,1069.93,1080,1057.52,1080z"/>
		</g>
		<g>
			
				<linearGradient id="SVGID_00000016033892675486952580000016674433818476042893_" gradientUnits="userSpaceOnUse" x1="540" y1="1042.4111" x2="540" y2="37.5888">
				<stop  offset="0" style="stop-color:#B23C00"/>
				<stop  offset="1" style="stop-color:#D44F00"/>
			</linearGradient>
			<path style="fill:url(#SVGID_00000016033892675486952580000016674433818476042893_);" d="M1019.93,1042.41H60.07
				c-12.42,0-22.48-10.07-22.48-22.48V60.07c0-12.42,10.07-22.48,22.48-22.48h959.85c12.42,0,22.48,10.07,22.48,22.48v959.85
				C1042.41,1032.34,1032.34,1042.41,1019.93,1042.41z"/>
		</g>
	</g>
	<g id="_x35__00000165211423209803556790000002199038546963458731_">
		<g>
			<path class="st2" d="M379.75,265.36c109.3,11.44,232.94,26.67,341.61,43.26c6.24,1.08,18.63,2.72,24.83,3.82
				c6.81,0.28,14.49,7.44,14.37,14.63c0.27,5.01-0.72,8.4-1,12.96c0.01,6.17-6.94,10-11.19,13.04
				c-23.41,16.61-70.61,49.71-94.27,65.94c-3.6,2.12-8.11,6.45-12.41,6.91c-4.03,1.04-16.42-1.99-20.74-2.39L592.64,419
				c-75.59-12.56-150.85-25.08-226.19-39.6c-2.39-0.62-6.06-1.05-8.99-4.87c-2.6-3.97-1.76-7.65-1.49-9.89l2.24-14.36
				c1.9-16.72,7.65-40.08,10.52-56.83l2.92-14.13C372.8,274.31,373.24,266.29,379.75,265.36L379.75,265.36z M379.75,265.36
				c-6.12,1.48-5.79,8.91-6.5,14.21l-1.61,14.34c-2.61,22.3-6.35,49.26-7.67,71.48c-0.16,4.95-0.52,4.06,4.07,5.05
				c84.86,12.31,170.74,22.54,255.57,35.7l14.18,2.14l1.64,0.24c-0.72-0.09-0.95-0.02-1.1-0.01c-0.17,0.05-0.49,0.15-0.64,0.28
				l0.64-0.44l5.85-4.09c26.06-18.5,73.45-51.45,99.68-69.66c0.14-0.05,0.07-0.2-0.68,0.85c-0.21,0.31-0.43,0.68-0.68,1.31
				c-0.44,1.26-0.46,2.04-0.3,0.55c0.14-2.37,0.9-6.66,0.94-8.56c-0.03-0.42-0.12-0.38,0.17,0.15c0.28,0.57,1.04,1.1,1.11,1.1
				l-25.72-4.41C613.28,307.4,484.23,286.17,379.75,265.36L379.75,265.36z"/>
			<path class="st2" d="M339.25,619.31c-5.9-19.21-15.04-46.65-21.45-66.01c-0.07-0.04,31.78-10.18,31.8-10.24
				c7.64-1.63,18.67-0.46,22.47,7.39c9.09,23.18,16.53,47.31,25.56,70.42l-1.47-0.53c8.3-4.32,16.55-8.77,24.71-13.41
				c4.24-2.48,14.37-7.96,18.4-10.34c2.11-1.16,2.2-1.63,2.03-4.29c-1.19-14.69,5.85-29.99,18.13-38.43
				c3.87-3.06,9.92-4.13,12.7-5.87c3.13-1.98,4.03-5.91,5.29-10.67c2.36-8.69,8.75-31.91,11.19-40.88
				c4.81-18.1,10.32-36.49,14.55-54.36l3.18,5.13c-13.42-2.25-28.02-4.07-41.97-6.13c-21.09-2.89-63.58-9.14-84.63-12.29
				c-11.19-2.58-32.86-0.26-32.29-17.72c-0.11-6.2,1.1-12.06,3.24-18.24c33.08,4.1,65.98,8.88,98.9,13.62
				c52.1,7.52,145.48,21.24,197.45,29.26c0.45-0.32-2.55,0.74-1.25,0.16l4.76-3.47c23.63-17.15,48.59-35.79,72.99-52.38l-1.91,19.11
				c-3.11,23.22-6,44.92-11.09,67.58c-0.51,1.81-1.21,4.52-3.94,7.76c-2.96,3.64-8.54,4.8-11.05,4.49
				c-48.36-6.69-99.69-15.31-147.96-23.41c-3.37-0.71-0.65,0.13,1.28-1.13c1.21-0.72,1.69-1.57,1.87-1.85
				c0.36-0.7,0.13-0.28,0.08-0.11l-1.53,4.8c-4.38,13.8-26.78,84.32-31.17,98.12c-0.44,1.34-1.28,4.15-1.13,3.48
				c0.02-0.34-0.33-0.9-0.18-0.63c29.78,32.73-0.96,85.61-43.67,74.32c-3.42-0.81-7.6-3.34-7.89-2.71
				c-5.68,3.16-21.11,10.74-26.97,13.95c-5.68,2.89-21.69,11.26-27.26,14.1c-1.12,0.86-0.78-0.02-0.43,1.99l1.53,4.91l12.35,39.3
				l6.26,19.62c2.48,7.17-2.2,14.7-7.41,19.22c-9.1,6.2-28.18,10.37-39.06,14.77C383.85,757.79,339.61,619.46,339.25,619.31
				L339.25,619.31z M339.25,619.31l45.89,137.53l-0.72-0.36c11.04-4.64,28.17-8.61,37.7-14.97c4.45-3.92,8.77-11.09,6.45-17.05
				l-6.61-19.5l-13.4-38.93c-1.12-3.59-4.41-9.35,0.42-11.62c12.86-7.14,31.96-17.82,44.88-24.99l9.35-5.13
				c2.74-1.22,6.09,0.33,7.09,0.78c36.09,14.11,66.88-32.67,39.24-60.73c-3.34-3.09-1.56-9.23-0.66-11.76l2.82-9.89l22.54-79.23
				l2.82-9.91c1.22-3.54,1.28-7.88,5.2-10.34c2.61-1.76,6.2-0.78,7.57-0.59l20.14,2.73c26.09,3.54,94.9,12.8,121.79,16.39
				c1.61,0.21,3.78,0.53,4.09,0.49c0.87-0.15-1.06,0.09-1.78,1.04c-0.52,0.62,0.07,0.02,0.31-1.5c3.97-20.9,7.14-43.68,9.74-64.59
				l13.59,8.37c-17.67,12.57-38.59,28.38-56.53,41.51c-3.46,2.36-5.56,4.85-10.16,6.29c-4.73,1.7-13.72-1.05-18.37-1.44
				c-58.84-8.98-217.36-34.79-278.14-44.72l7.54-4.84c-0.42,0.32-0.68,3.2-0.76,3.84c-0.14,1.58-0.71,5.65-0.43,6.36
				c-0.3-0.35-0.43-0.18,0.59,0.17c46.65,9.02,100.06,17.53,146.79,26.18l4.33,0.86c-7.61,28.17-17.39,57.69-25.72,85.58l-4.13,13.5
				c-1.26,4.04-2.58,10.32-7.86,13.48c-18.06,4.79-31.29,20.54-30.19,39.89c1.08,6.49-5.89,7.91-10.14,10.48
				c-12.02,6.33-25.24,13.62-37.41,19.57l-1.05,0.52l-0.43-1.06c-7.86-20.9-13.85-42.19-21.55-63.12
				c-1.91-5.06-2.81-11.34-8.33-13.34c-5.05-1.91-10.71-3.03-16.01-1.6c0.12-0.26-32.44,10.64-31.49,9.69
				C324.7,572.75,333.49,600.04,339.25,619.31L339.25,619.31z"/>
			<path class="st2" d="M782.9,375.16c0.76,18.98-0.02,38.26-1.57,57.09c-0.49,3.45,0.24,4.33-2.51,8.68
				c-3.8,4.74-8.63,4.13-12.08,3.83c-7.89-0.48-17.52-1.44-25.43-2.36c-2.42-0.46-5.55-0.27-8.18-1.21
				c-1.44-0.46-4.13-1.82-5.77-4.56c-2.84-5.45-1.1-8.34-1.37-8.64c3.65-22.38,7.55-44.9,14.09-67.25
				c14.36,4.04,28.64,8.1,42.66,13.8l0.09,0.04l0.01,0.05L782.9,375.16L782.9,375.16z M782.9,375.16
				c-12.13-0.44-26.75,0.25-39.57-0.87l6.88-4.47c-1.12,18.17-3.68,42.93-6.32,60.94c-0.08,0.58-0.1,0.83-0.06,0.12
				c0.43-2.79-3.31-6.97-5.43-6.94l5.1,0.73c8.28,1.13,19.25,2.75,26.93,4.35c0.15-0.09-2.52,0.28-3.89,2.22
				c-1.5,3.31-0.2,0.28-0.03-1.22C770.98,411.4,775.49,393.09,782.9,375.16L782.9,375.16z"/>
		</g>
		<g>
			<path class="st2" d="M331.18,147.25c-57.94,113.64-118.79,225.73-181.02,337.01v-10.89c32.58,54.77,64.25,110.07,96.26,165.16
				c31.46,55.42,63.28,110.63,94.16,166.39l-9.41-5.46c126.97,1.46,253.95,4.51,380.8,10.92c-128.88,6.52-257.91,9.57-386.92,10.99
				c-33.74-56.57-66.45-113.75-99.53-170.7c-32.51-57.28-65.38-114.35-97.24-172.01C194.01,367.03,261.17,256.23,331.18,147.25
				L331.18,147.25z"/>
			<path class="st2" d="M746.78,788.64c57.93-113.63,118.79-225.73,181.02-337.01v10.89c-32.58-54.77-64.25-110.07-96.26-165.16
				c-31.46-55.42-63.28-110.63-94.16-166.39l9.41,5.46c-126.97-1.46-253.95-4.51-380.8-10.92c128.88-6.52,257.91-9.57,386.92-10.99
				c33.74,56.57,66.45,113.75,99.53,170.7c32.51,57.28,65.38,114.35,97.24,172.01C883.95,568.86,816.79,679.66,746.78,788.64
				L746.78,788.64z"/>
		</g>
	</g>
	<g>
		<path class="st2" d="M428.22,934.15c0-17.67,10.68-28.12,26.23-28.12c5.26,0,10.92,1.34,14.45,3.06l-1.1,5.97
			c-3.3-1.81-8.17-3.3-12.96-3.3c-12.8,0-19.95,8.48-19.95,22.38c0,13.04,8.17,20.89,20.66,20.89c5.1,0,10.29-1.57,13.19-3.38
			l0.86,5.73c-3.93,2.12-10.29,3.46-15.24,3.46C438.27,960.86,428.22,950.57,428.22,934.15z"/>
		<path class="st2" d="M475.5,934.15c0-17.67,10.68-28.12,26.23-28.12c5.26,0,10.92,1.34,14.45,3.06l-1.1,5.97
			c-3.3-1.81-8.17-3.3-12.96-3.3c-12.8,0-19.95,8.48-19.95,22.38c0,13.04,8.17,20.89,20.66,20.89c5.1,0,10.29-1.57,13.19-3.38
			l0.86,5.73c-3.93,2.12-10.29,3.46-15.24,3.46C485.55,960.86,475.5,950.57,475.5,934.15z"/>
		<path class="st2" d="M542.18,912.4h-17.83v-5.26h41.94v5.26h-17.83v47.36h-6.28V912.4z"/>
		<path class="st2" d="M594.56,948.61l15.16-41.47h6.75l-20.34,52.62h-3.53l-20.42-52.62h6.68L594.56,948.61z"/>
	</g>
</g>
</svg>
