<?xml version="1.0" encoding="utf-8"?>
<!-- Generator: Adobe Illustrator 27.5.0, SVG Export Plug-In . SVG Version: 6.00 Build 0)  -->
<svg version="1.1" id="Capa_1" xmlns="http://www.w3.org/2000/svg" xmlns:xlink="http://www.w3.org/1999/xlink" x="0px" y="0px"
	 viewBox="0 0 1080 1080" style="enable-background:new 0 0 1080 1080;" xml:space="preserve">
<style type="text/css">
	.st0{fill:url(#SVGID_1_);}
	.st1{fill:url(#SVGID_00000124140795263106433040000018017921300123773596_);}
	.st2{fill:#FFFFFF;}
</style>
<g>
	<g>
		<g>
			<linearGradient id="SVGID_1_" gradientUnits="userSpaceOnUse" x1="540" y1="5.456968e-12" x2="540" y2="1080">
				<stop  offset="0" style="stop-color:#B23C00"/>
				<stop  offset="1" style="stop-color:#D44F00"/>
			</linearGradient>
			<path class="st0" d="M1057.52,1080H22.48C10.07,1080,0,1069.93,0,1057.52V22.48C0,10.07,10.07,0,22.48,0h1035.03
				c12.42,0,22.48,10.07,22.48,22.48v1035.03C1080,1069.93,1069.93,1080,1057.52,1080z"/>
		</g>
		<g>
			
				<linearGradient id="SVGID_00000116953760494090648130000005466890849261300356_" gradientUnits="userSpaceOnUse" x1="540" y1="1042.4111" x2="540" y2="37.5888">
				<stop  offset="0" style="stop-color:#B23C00"/>
				<stop  offset="1" style="stop-color:#D44F00"/>
			</linearGradient>
			<path style="fill:url(#SVGID_00000116953760494090648130000005466890849261300356_);" d="M1019.93,1042.41H60.07
				c-12.42,0-22.48-10.07-22.48-22.48V60.07c0-12.42,10.07-22.48,22.48-22.48h959.85c12.42,0,22.48,10.07,22.48,22.48v959.85
				C1042.41,1032.34,1032.34,1042.41,1019.93,1042.41z"/>
		</g>
	</g>
	<g>
		<g>
			<g>
				<path class="st2" d="M603.29,695.45c-0.02,1.5-0.01,3.01-0.33,4.49c-1.8,4.5-8.56,1.83-12.35,2.57l-17.93,0.07l-35.87,0.15
					c-23.66,0.11-84.72,0.55-107.62,0.89c-4.14-0.11-12.29,1.67-12.73-4.67c-0.18-2.78-0.43-19.52-0.42-22.7
					c-1.68-101.81-6.79-340.3-8.11-441.92c-0.11-3.89,0.39-11.55,6.33-14.68c3.09-1.71,4.66-1.67,6.03-1.92
					c7.04-0.44,12.61-0.28,19.03-0.41l35.87-0.42c23.77-0.1,84.63-0.4,107.62-0.47c9.6,0.6,23.54-3.01,29.17,6.91
					c2.86,5.34,1.91,8.15,2.17,12.25c-0.27,101.81-1.05,203.62-3.43,305.42c-10.16-0.15-41.84-0.63-52.03-0.79
					c-0.33-6.71,1.67-20.76-0.94-26.27c-2.14-4.14-5.87-5.73-13.84-5.44l-45.34-0.89c-11.85,0.37-30.04-4.72-30,13.12l-0.89,45.58
					l-0.88,45.61c-1.29,12.5,7.59,18.8,19.07,17.75c7.19,0.16,48.57,0.66,56.7,0.73c20.95,1.94,23.19-10.97,22.4-28.62
					c0.01-0.86,0-0.57,0.62-0.62c0.29-0.21,37.57,0.4,37.86,0.24C604.09,628.41,603.12,668.15,603.29,695.45L603.29,695.45z
					 M603.29,695.45c-0.45-27.32,0.22-66.79-0.6-93.64c2.58,0.99-37.87,0.24-37.14,0.58l0.62-0.62c-0.27,7.43,1.48,15.54-2.68,22.78
					c-4.14,7.39-13.49,8.43-20.95,8.14l-45.37,0.55c-17.73,0.67-35.27,2.36-35.46-21.31l-0.88-45.61l-0.88-45.64
					c-0.68-9.09,5.25-19.85,14.7-22.02c7.93-2.07,16.28-0.97,23.89-1.47l45.38-0.89c15.68-2.21,29.37,8.96,28.57,25.52l0.23,11.54
					l-7.04-7.01l37.53-0.9l-7.68,7.72c-2.17-96.18-2.97-192.38-3.22-288.56l-0.04-9.02c0-1.43-0.02-3.01-0.08-3.37
					c0.06-0.15-0.23,0.1,0.88,2.28c1.22,2.42,4.61,3.99,4.99,3.89c-53.31-0.14-122.29-0.44-175.59-1.06
					c-0.1-0.06-0.05,0.18,1.74-0.75c1.92-1,3.24-3.69,3.18-4.04c0.16-1.09-0.08,0.73-0.05,1.91l-0.11,8.95
					c-1.49,106.91-6.75,344.35-8.23,450.88c0.07,2.85-0.39,6.53,1.54,6.6c2.47,0.49,5.71,0.29,8.64,0.39l35.87,0.42l71.75,0.47
					l35.87,0.15l17.93,0.07c3.76-0.58,10.6,1.86,12.31-2.43C603.26,698.47,603.26,696.95,603.29,695.45L603.29,695.45z"/>
				<path class="st2" d="M512.26,585.42c-4.14,0.4-2.6-5.07-2.91-7.57l-0.1-9.42l-0.11-9.42c0.22-1.78-0.71-5.79,0.62-7.23
					c0.81-0.63,1.69-0.61,2.49-0.65c36.48-0.83,76.27-2.78,112.45-5.15c50.22-3.27,99.31-6.23,150.48-6.29
					c3.59-0.05,9.07,2.31,11.13,6.65c2.77,6.49,1.27,7.75,1.6,12.27c-0.14,6.81-0.06,16.82-0.18,23.61
					c-0.22,0.11,0.7,3.26-2.02,7.97c-2.18,3.85-7.14,5.87-10.52,5.86c-13.49,0.05-25.27-0.71-37.99-1.02
					C662.26,591.67,587.26,585.18,512.26,585.42L512.26,585.42z M512.26,585.42c87.1,0.56,174.77-8.76,261.93-10.61
					c-3.15-0.27-7.7,4.28-7.65,7.46c-0.22-4.05-0.23-17.42-0.39-23.57l-0.07-4.7c0.21-1.19-0.63-0.76,1.01,2.93
					c0.95,2.04,3.62,3.98,4.95,4.33c-62.12,2.26-151.44-5.4-222.31-8.18l-37.49-1.1c-3.87-0.42-2.03,3.79-2.49,7.03l-0.09,9.43
					l-0.11,9.42C509.9,580.3,508.06,585.72,512.26,585.42L512.26,585.42z"/>
			</g>
			<path class="st2" d="M527.87,357.9c-1.01-14.91-22.07-13.21-21.49,0.71C506.46,372.42,528.09,372.73,527.87,357.9L527.87,357.9z
				 M527.87,357.9c0.68,17.47-26.28,19.24-26.98,0.86C500.76,340.36,527.2,340.35,527.87,357.9L527.87,357.9z"/>
			<path class="st2" d="M537.99,357.61c-1.87-28.16-42.22-26.3-41.74,1.37C497.04,386.44,538.44,385.62,537.99,357.61L537.99,357.61
				z M537.99,357.61c0.78,30.88-45.85,33.43-47.22,1.51C490.7,327.12,536.31,326.58,537.99,357.61L537.99,357.61z"/>
			<path class="st2" d="M553.9,357.16c-3.6-49.45-74.09-46.64-73.57,2.39C482.02,408.27,554.37,406.34,553.9,357.16L553.9,357.16z
				 M553.9,357.16c1.06,51.97-76.43,55.81-79.05,2.54C475.08,306.2,550.75,304.92,553.9,357.16L553.9,357.16z"/>
		</g>
		<g>
			<path class="st2" d="M330.38,146.31c-58.62,113.68-119.9,225.95-182.42,337.49v-9.9c64.87,110.14,128.53,220.98,190.96,332.52
				l-8.55-4.96c127.33,1.32,254.67,4.09,381.89,9.93c-127.22,5.83-254.56,8.6-381.89,9.93l-5.57,0.05l-2.97-5.02
				C256,704.53,191.39,592,128.09,478.71C193.79,366.87,260.79,255.77,330.38,146.31L330.38,146.31z"/>
			<path class="st2" d="M747.17,789.58c58.62-113.68,119.9-225.96,182.42-337.49v9.9c-64.87-110.14-128.53-220.98-190.96-332.52
				l8.55,4.96c-127.33-1.32-254.67-4.09-381.89-9.93c127.22-5.83,254.56-8.6,381.89-9.93l5.57-0.05l2.97,5.02
				c65.83,111.82,130.45,224.35,193.75,337.64C883.77,569.02,816.77,680.12,747.17,789.58L747.17,789.58z"/>
		</g>
	</g>
	<g>
		<path class="st2" d="M303.53,887.03c0-17.67,10.68-28.12,26.23-28.12c5.26,0,10.92,1.34,14.45,3.06l-1.1,5.97
			c-3.3-1.81-8.17-3.3-12.96-3.3c-12.8,0-19.95,8.48-19.95,22.38c0,13.04,8.17,20.89,20.66,20.89c5.1,0,10.29-1.57,13.19-3.38
			l0.86,5.73c-3.93,2.12-10.29,3.46-15.24,3.46C313.58,913.73,303.53,903.45,303.53,887.03z"/>
		<path class="st2" d="M355.52,860.01h29.61v5.26H361.8v17.04h18.77v5.26H361.8v19.79h23.56v5.26h-29.84V860.01z"/>
		<path class="st2" d="M430.52,913.03c-3.14,0-5.65-1.1-8.09-5.1l-8.32-13.82c-1.73-2.91-2.75-4.71-6.99-4.71h-4.87v23.25h-6.28
			v-52.62h15.55c10.37,0,16.73,4.87,16.73,13.74c0,7.15-3.38,13.12-11.86,15c1.88,1.02,3.46,2.98,4.63,5.03l6.83,11.23
			c1.26,2.12,2.36,2.67,3.85,2.67h1.73v4.95C432.41,912.87,431.54,913.03,430.52,913.03z M402.25,883.89h8.64
			c8.09,0,10.84-4.01,10.84-10.13c0-5.81-4.4-8.48-11.78-8.48h-7.7V883.89z"/>
		<path class="st2" d="M477.41,913.03c-3.14,0-5.65-1.1-8.09-5.1L461,894.1c-1.73-2.91-2.75-4.71-6.99-4.71h-4.87v23.25h-6.28
			v-52.62h15.55c10.37,0,16.73,4.87,16.73,13.74c0,7.15-3.38,13.12-11.86,15c1.88,1.02,3.46,2.98,4.63,5.03l6.83,11.23
			c1.26,2.12,2.36,2.67,3.85,2.67h1.73v4.95C479.29,912.87,478.43,913.03,477.41,913.03z M449.14,883.89h8.64
			c8.09,0,10.84-4.01,10.84-10.13c0-5.81-4.4-8.48-11.78-8.48h-7.7V883.89z"/>
		<path class="st2" d="M518.25,897.56h-20.58l-5.73,15.08h-6.52l20.89-52.62h4.01l20.66,52.62h-7.07L518.25,897.56z M499.71,892.21
			h16.57l-8.17-21.83L499.71,892.21z"/>
		<path class="st2" d="M540,860.01h16.81c19.79,0,26.78,11.39,26.78,26.23c0,13.59-7.54,26.39-26.15,26.39H540V860.01z
			 M546.29,907.37h9.19c15.16,0,21.44-9.58,21.44-21.13c0-12.57-6.13-20.97-20.89-20.97h-9.74V907.37z"/>
		<path class="st2" d="M593.41,895.2v-35.18h6.28v34.16c0,8.95,4.79,13.98,14.06,13.98c9.19,0,13.51-5.03,13.51-13.98v-34.16h6.28
			v35.18c0,11.94-8.32,18.54-20.03,18.54C602.13,913.73,593.41,907.61,593.41,895.2z"/>
		<path class="st2" d="M681.06,913.03c-3.14,0-5.65-1.1-8.09-5.1l-8.33-13.82c-1.73-2.91-2.75-4.71-6.99-4.71h-4.87v23.25h-6.28
			v-52.62h15.55c10.37,0,16.73,4.87,16.73,13.74c0,7.15-3.38,13.12-11.86,15c1.88,1.02,3.46,2.98,4.63,5.03l6.83,11.23
			c1.26,2.12,2.36,2.67,3.85,2.67h1.73v4.95C682.94,912.87,682.08,913.03,681.06,913.03z M652.78,883.89h8.64
			c8.09,0,10.84-4.01,10.84-10.13c0-5.81-4.4-8.48-11.78-8.48h-7.7V883.89z"/>
		<path class="st2" d="M721.9,897.56h-20.58l-5.73,15.08h-6.52l20.89-52.62h4l20.66,52.62h-7.07L721.9,897.56z M703.36,892.21h16.57
			l-8.17-21.83L703.36,892.21z"/>
		<path class="st2" d="M293.83,954.26h6.28v52.62h-6.28V954.26z"/>
		<path class="st2" d="M313.46,954.26h7.15l27.72,38.01v-38.01h6.28v52.62H351L319.75,964v42.88h-6.28V954.26z"/>
		<path class="st2" d="M382.65,959.52h-17.83v-5.26h41.94v5.26h-17.83v47.36h-6.28V959.52z"/>
		<path class="st2" d="M416.97,954.26h29.61v5.26h-23.33v17.04h18.77v5.26h-18.77v19.79h23.56v5.26h-29.84V954.26z"/>
		<path class="st2" d="M457.42,954.26h6.28v47.44h24.35v5.18h-30.63V954.26z"/>
		<path class="st2" d="M497.87,954.26h6.28v52.62h-6.28V954.26z"/>
		<path class="st2" d="M515.15,981.43c0-17.36,9.5-28.27,27.17-28.27c6.75,0,12.09,1.65,15.63,3.46l-1.18,5.81
			c-3.46-1.88-8.72-3.38-13.98-3.38c-13.67,0-20.97,7.78-20.97,22.38c0,13.67,8.72,20.81,20.97,20.81c3.77,0,7.54-0.63,10.05-1.57
			v-14.29h-10.13v-5.26h16.41v23.48c-3.77,1.57-10.05,3.38-17.28,3.38C525.99,1007.98,515.15,998.56,515.15,981.43z"/>
		<path class="st2" d="M571.3,954.26h29.61v5.26h-23.33v17.04h18.77v5.26h-18.77v19.79h23.56v5.26H571.3V954.26z"/>
		<path class="st2" d="M611.75,954.26h7.15l27.72,38.01v-38.01h6.28v52.62h-3.61L618.03,964v42.88h-6.28V954.26z"/>
		<path class="st2" d="M680.94,959.52h-17.83v-5.26h41.94v5.26h-17.83v47.36h-6.28V959.52z"/>
		<path class="st2" d="M715.26,954.26h29.61v5.26h-23.33v17.04h18.77v5.26h-18.77v19.79h23.56v5.26h-29.84V954.26z"/>
	</g>
</g>
</svg>
