<?xml version="1.0" encoding="utf-8"?>
<!-- Generator: Adobe Illustrator 27.5.0, SVG Export Plug-In . SVG Version: 6.00 Build 0)  -->
<svg version="1.1" id="Capa_1" xmlns="http://www.w3.org/2000/svg" xmlns:xlink="http://www.w3.org/1999/xlink" x="0px" y="0px"
	 viewBox="0 0 1080 1080" style="enable-background:new 0 0 1080 1080;" xml:space="preserve">
<style type="text/css">
	.st0{fill:url(#SVGID_1_);}
	.st1{fill:url(#SVGID_00000063599546546573176250000003476353045756219787_);}
	.st2{fill:#FFFFFF;}
</style>
<g>
	<g>
		<g>
			<linearGradient id="SVGID_1_" gradientUnits="userSpaceOnUse" x1="540" y1="5.456968e-12" x2="540" y2="1080">
				<stop  offset="0" style="stop-color:#B23C00"/>
				<stop  offset="1" style="stop-color:#D44F00"/>
			</linearGradient>
			<path class="st0" d="M1057.52,1080H22.48C10.07,1080,0,1069.93,0,1057.52V22.48C0,10.07,10.07,0,22.48,0h1035.03
				c12.42,0,22.48,10.07,22.48,22.48v1035.03C1080,1069.93,1069.93,1080,1057.52,1080z"/>
		</g>
		<g>
			
				<linearGradient id="SVGID_00000002378047061103776970000001768703108481954215_" gradientUnits="userSpaceOnUse" x1="540" y1="1042.4111" x2="540" y2="37.5888">
				<stop  offset="0" style="stop-color:#B23C00"/>
				<stop  offset="1" style="stop-color:#D44F00"/>
			</linearGradient>
			<path style="fill:url(#SVGID_00000002378047061103776970000001768703108481954215_);" d="M1019.93,1042.41H60.07
				c-12.42,0-22.48-10.07-22.48-22.48V60.07c0-12.42,10.07-22.48,22.48-22.48h959.85c12.42,0,22.48,10.07,22.48,22.48v959.85
				C1042.41,1032.34,1032.34,1042.41,1019.93,1042.41z"/>
		</g>
	</g>
	<g>
		<g>
			<path class="st2" d="M329.97,124.3C271.32,237.99,210.03,350.26,147.5,461.81v-9.86c64.87,110.16,128.54,221,190.99,332.56
				l-8.52-4.95c127.34,1.32,254.69,4.08,381.93,9.89c-127.24,5.81-254.58,8.57-381.93,9.9l-5.56,0.05l-2.97-5
				C255.62,682.57,191,570.03,127.69,456.74C193.39,344.89,260.39,233.78,329.97,124.3L329.97,124.3z"/>
			<path class="st2" d="M746.8,767.65c58.65-113.68,119.94-225.96,182.47-337.51V440c-64.87-110.16-128.54-221-190.99-332.56
				l8.52,4.95c-127.34-1.32-254.69-4.08-381.93-9.89c127.24-5.81,254.58-8.57,381.93-9.9l5.56-0.05l2.97,5
				c65.82,111.82,130.44,224.36,193.75,337.65C883.38,547.05,816.38,658.17,746.8,767.65L746.8,767.65z"/>
		</g>
		<g>
			<path class="st2" d="M431.52,215.8l2.17,32.28l0.14,2.03c-16.8,1.15-33.62,1.45-50.42,2.16l4.18-4.2
				c0.71,16.21,0.79,32.42,1.08,48.64l0.1,5.25l-5.35,0.03c-3.69,0.06-34.98,0.2-37.77,0.24c0.13-30.28,0.25-60.57,1.45-90.85
				C369.14,212.18,409.53,214.17,431.52,215.8L431.52,215.8z M431.52,215.8c-20.04,1.37-60.37,3.47-80.39,4.23l4.21-4.23
				c0.99,26.97,1.13,53.94,1.26,80.92l-5.46-5.49l32.28,0.21l-5.26,5.28c0.3-17.66,0.41-35.35,1.27-53.01
				c17.36,0.81,34.74,1.07,52.1,2.19l-2.17,2.18L431.52,215.8L431.52,215.8z"/>
			<path class="st2" d="M721.06,215.8c1.58,22.03,3.6,62.49,4.34,84.58c-13.71,0.7-27.52,0.84-41.24,1.12l-0.13-5.13
				c-0.4-15.98-0.29-31.96-0.46-47.94l5.46,5.49c-16.15-0.13-32.31-0.06-48.45-0.43l-5.14-0.11c0.32-13.96,0.41-28.02,1.13-41.98
				C658.63,212.17,699.06,214.17,721.06,215.8L721.06,215.8z M721.06,215.8c-20.06,1.37-60.44,3.48-80.47,4.24l4.21-4.24
				c0.49,10.87,0.59,21.75,0.82,32.62l-5.03-5.05c17.97-0.4,36-0.29,53.98-0.47c-0.24,17.81-0.07,35.67-0.52,53.48l-5-5.03
				c10.67,0.21,21.34,0.34,32.02,0.83l-4.18,4.2C717.61,276.32,719.74,235.86,721.06,215.8L721.06,215.8z"/>
			<path class="st2" d="M351.04,620.4l32.1-2.19l2.03-0.14c1.14,16.89,1.44,33.8,2.16,50.7l-4.18-4.21
				c15.98-0.7,31.96-0.78,47.94-1.08l5.22-0.1l0.03,5.38c0.06,3.71,0.2,35.27,0.24,38.06c-29.97-0.13-59.96-0.25-89.93-1.45
				C347.43,683.19,349.41,642.53,351.04,620.4L351.04,620.4z M351.04,620.4c1.37,20.17,3.47,60.76,4.21,80.92l-4.21-4.24
				c26.68-0.99,53.36-1.13,80.04-1.25l-5.46,5.49l0.21-32.54l5.26,5.28c-17.42-0.31-34.88-0.41-52.29-1.27
				c0.81-17.46,1.07-34.93,2.18-52.39l2.18,2.19L351.04,620.4L351.04,620.4z"/>
			<path class="st2" d="M720.63,701.05c-21.83,1.59-61.89,3.62-83.77,4.37c-0.69-13.7-0.83-27.5-1.11-41.2l5.1-0.13
				c15.98-0.41,31.96-0.29,47.94-0.46l-5.46,5.49c0.14-16.15,0.06-32.31,0.44-48.46l0.12-5.15c13.67,0.31,27.46,0.41,41.12,1.12
				C724.24,638.68,722.25,679.07,720.63,701.05L720.63,701.05z M720.63,701.05c-1.36-20.04-3.46-60.38-4.21-80.4l4.21,4.23
				c-10.62,0.49-21.23,0.59-31.84,0.82l5.02-5.05c0.42,17.99,0.28,36.03,0.49,54.01c-17.8-0.24-35.65-0.08-53.45-0.52l5-5.03
				c-0.21,10.64-0.34,21.29-0.82,31.93l-4.18-4.21C660.7,697.58,700.77,699.72,720.63,701.05L720.63,701.05z"/>
			<g>
				<path class="st2" d="M455.66,466.83l15.83-0.38c0.52-0.05,0.36,0.02,0.39,0.39l1.27,64.12l-1.65-1.66l16.18-0.29l-1.95,1.96
					l-1.01-64.04l-0.05-2.94l3-0.03c2.38-0.09,17.17-0.15,19.1-0.21l0.04,3.18l0.7,64.12l-3.83-3.85l16.18-0.18l-4.02,4.04
					l-0.63-64.04l-0.05-4.66c1.64,0.15,34.2-0.23,36.97-0.14l4.75-0.02l0.02,4.81l0.24,64.12l-5-5.02l16.01-0.06l-5.06,5.09
					l-0.24-64.12l-0.02-5.3c3.67-0.03,17.61-0.05,21.49-0.08l5.35-0.02v5.4l0.01,64.04l-5.35-5.38l16.18,0.06l-5.29,5.32l0.24-64.12
					l0.02-5.11l5.04,0.02c3.18,0.05,17.77,0.04,20.79,0.08c0.63,19.29,0.17,38.08,0.21,57c-0.56,15.81,1.51,37.69-3.54,52.99
					c-10.41,35.44-45.12,60.98-81.7,60.34c-45.99,0.12-85.51-41.53-81.91-87.46C454.59,528.2,455.36,483.96,455.66,466.83
					L455.66,466.83z M455.66,466.83l1.34,52.29c0.94,14.85-0.84,36.74,4.16,50.8c14.2,50.56,80.45,72.43,120.87,39.29
					c19.77-15.22,30.92-39.34,29.96-64.34l-0.09-25.99c-0.17-17.21,0.13-34.92-0.44-51.7l5,4.76l-15.92,0.06l5.06-5.09l0.24,64.12
					l0.02,5.31l-5.32,0.02c-4.07,0.03-17.78,0.05-21.53,0.08v-5.41l0.01-64.04l5.35,5.38l-16.18-0.06l5.29-5.31l-0.24,64.12
					l-0.02,5.1l-5.03-0.02c-3.74-0.01-17.58-0.07-21.02-0.08l0.02-5.01l0.24-64.12l4.76,4.79l-32.28-0.11l4.65-4.67l-0.63,64.04
					l-0.04,4.08l-3.98-0.05c-2.72-0.04-17.64-0.19-20.06-0.22l0.04-3.82l0.7-64.12l3.13,3.15l-16.01-0.18l2.95-2.97l-1.01,64.04
					l-0.03,2l-1.92-0.04l-16.18-0.29l-1.69-0.03l0.03-1.64l1.27-64.12l0.38,0.38L455.66,466.83L455.66,466.83z"/>
				<path class="st2" d="M471.93,547.57c6.45,79.01,119.1,80.33,122.74,0.41l5.42,5.31l-15.32-0.08l5.29-4.61
					c-7.36,69.78-101.52,68.47-103.65-1.05l1.01,0.96C485.02,548.36,474.17,547.61,471.93,547.57L471.93,547.57z M471.93,547.57
					c2.22-0.26,13.01-0.96,15.49-1.11c1.3-0.13,0.84-0.08,1.01,0.97c6.4,58.86,85.48,60.05,91.05-0.35l0.65-4.59
					c3.33-0.03,16.43-0.08,19.95-0.11l5.29-0.03C609.05,637.31,471.63,642.2,471.93,547.57L471.93,547.57z"/>
				<path class="st2" d="M552.41,547.74c1.07,15.98-18.63,25.43-30.44,13.99c-3.76-3.76-5.63-8.44-6.94-12.89l4.42,3.53l-15.32,0.55
					l5.08-5.31c0.56,7.12,3.43,14,8.43,18.92c15.65,17.24,46.74,5.15,48.13-18.67l1.87,1.74L552.41,547.74L552.41,547.74z
					 M552.41,547.74c4.9-0.7,10.96-1.5,16.74-2.03c4.86,19.74-13.37,38.82-32.95,39.27c-22.52,1.27-39.51-20.95-37.21-42.45
					c5.78,0.21,18.51,0.67,24.32,0.88l0.53,3.4C525.74,565.87,548.29,565.13,552.41,547.74L552.41,547.74z"/>
			</g>
			<g>
				<path class="st2" d="M471.85,450.38l-16.27,0.4l-0.39,0.01l-0.01-0.41c-0.35-17.2-1.25-61.28-1.51-77.92
					c-3.38-45.62,36.3-88.38,82.09-87.53c36-0.65,71.94,24.23,81.71,60.23c4.88,15.16,3.3,37.18,3.7,52.93l0.24,51.95l0.02,5.06
					l-5.07,0.02c-3.94,0.05-17.49,0.04-21.1,0.08l-0.02-5.15L595.01,386l5.34,5.37l-16.01,0.06l5.4-5.43l-0.1,64.12l-0.01,5.35
					c-3.35-0.04-17.81-0.05-21.48-0.08l-5.26-0.02l0.02-5.25l0.24-64.04l5,5.03l-16.18-0.06l4.95-4.98l-0.24,64.04l-0.02,4.76
					c-6.59-0.03-34.73-0.16-41.34-0.19l0.05-4.57l0.71-64.12l3.86,3.88l-16.18-0.18l3.68-3.7l-0.71,64.04l-0.03,3.02l-2.94-0.03
					c-1.73-0.03-17.67-0.19-19.02-0.21l0.05-2.78l1.12-64.12l1.67,1.68l-16.01-0.29l1.38-1.41L471.85,450.38L471.85,450.38z
					 M471.85,450.38l-1.64-64.46l-0.04-1.38c-0.93-0.08,17.47-0.24,17.42-0.32c2.22-0.05,1.54-0.3,1.67,1.68l1.12,64.12l-2.79-2.81
					l16.18-0.18l-2.97,2.99l-0.71-64.04l-0.04-3.66c5.1-0.06,18.62-0.21,23.72-0.27l0.05,3.92l0.71,64.12l-4.56-4.59l32.02-0.15
					l-4.72,4.74l-0.24-64.04l-0.02-4.96l4.97-0.02c3.53-0.01,17.89-0.07,21.17-0.08l0.02,5.05l0.24,64.04l-5.24-5.27l16.18-0.06
					l-5.3,5.33l-0.1-64.12l-0.01-5.45c3.83,0,17.4,0.08,21.42,0.08l5.36,0.02l-0.02,5.35l-0.24,64.04l-5.1-5.13l16.01,0.06
					l-5.05,5.08c0.04-17.25,0.16-61.24,0.2-77.9c2.13-42.41-33.54-79.93-75.82-79.84c-42.55-1.64-79.74,37.7-78.2,80.19
					c-0.27,16.49-1.16,60.86-1.51,77.9l-0.4-0.4L471.85,450.38L471.85,450.38z"/>
				<path class="st2" d="M487.5,369.29c1.33-69.02,96.22-68.79,102.54-0.83l-5.19-4.53l15.66-0.08l-5.32,5.63
					c-0.84-15.9-6.24-31.28-17.38-42c-37.47-38.06-102.32-11.46-105.04,41.78l-1-1.07L487.5,369.29L487.5,369.29z M487.5,369.29
					l-15.77,0.94l-0.98,0.06l-0.03-1.13c0.65-91.86,131.67-91.3,135.11-0.22l0.17,5.66c-3.46-0.03-17.41-0.08-21.16-0.11l-4.58-0.02
					c-1.46-13.09-4.9-26.92-13.63-36.35C539.41,308.87,490.24,329.9,487.5,369.29L487.5,369.29z"/>
				<path class="st2" d="M567.81,369.29c-4.68-35.8-56.3-36.91-58.33,0.02l-5.35-5.41c5.13,0.08,10.27,0.05,15.4,0.29l-4.97,4.13
					c2.4-15.92,19.27-24.87,32.63-14.43c4.15,4.08,5.99,9.86,8.45,14.42l-1.41-0.74L567.81,369.29L567.81,369.29z M567.81,369.29
					c-4.15,0.56-9.24,1.34-14.31,1.78c-3.73-4.19-6.48-9.03-10.51-12.2c-4.43-2.11-11.88-2.13-14.85,2.19
					c-2.74,3.04-3.67,8.76-4.24,13.13c-8.24,0.47-16.79,0.41-25.04,0.57c-2.96-21.77,14.89-43.54,37.16-42.12
					C554.57,333.06,571.09,351.01,567.81,369.29L567.81,369.29z"/>
			</g>
			<g>
				<path class="st2" d="M648.55,466.56c0,0,0.05,0.02,0.09,0.03C648.75,466.58,648.72,466.58,648.55,466.56z"/>
				<path class="st2" d="M648.55,466.64l0.21,0.01c-0.04-0.01-0.08-0.03-0.12-0.05c-0.02,0-0.05,0.01-0.09,0.01L648.55,466.64z"/>
				<path class="st2" d="M648.81,466.64h-0.05C648.79,466.65,648.82,466.66,648.81,466.64z"/>
				<path class="st2" d="M648.55,466.56c0,0.02,0,0.03,0,0.05l0,0V466.56z"/>
				<path class="st2" d="M648.54,466.61c-0.08,0.01-0.17,0.02-0.3,0.02l0.3,0.01C648.54,466.63,648.54,466.61,648.54,466.61z"/>
				<path class="st2" d="M649.83,531.75l-1.28-65.11h-0.01c-0.99,22.4-0.78,75.39-3.08,96.78c-7.27,52.93-56.3,94.8-109.38,93.07
					c-52.72,0.68-99.55-41.46-106.64-93.56c-1.73-20.82-0.08-74.38-0.53-96.36c0,0,1.77,2.78,5.31,4.38c0.07,13.47,0.27,54,0.27,54
					c0.21,19.52-0.24,40.44,7.16,59.22c33.21,85.96,155.08,85.17,186.86-0.82c7.26-18.65,6.21-38.97,5.72-58.43l-1.16-57.84
					c2.32-0.05,12.84-0.31,15.18-0.44l-15.61-0.41l-0.42-0.01l-0.01,0.44l-1.3,58.26c-0.27,19.19,0.04,38.61-7.56,56.45
					c-30.55,78.54-142.99,77.59-172.5-0.7c-6.7-17.64-5.98-36.84-6.06-55.79l0.17-58.23l0.02-5.38c-3.85,0.04-17.38-0.15-21.57-0.08
					h-5.66l0.31,5.38l0.07,0.05c-0.05-0.02-0.08-0.04-0.07-0.05c0,0,0.25,64.82,0.26,64.82c-6.61,70.44,45.62,135.21,117.82,133.64
					C606.64,665.21,659.08,600.91,649.83,531.75z M632.62,467.08L632.62,467.08C632.59,467.08,632.6,467.08,632.62,467.08z"/>
			</g>
			<g>
				<path class="st2" d="M420.07,450.13c0,0-0.05-0.02-0.09-0.03C419.87,450.1,419.89,450.12,420.07,450.13z"/>
				<path class="st2" d="M420.07,450.05l-0.21-0.01c0.04,0.01,0.08,0.03,0.12,0.05c0.02,0,0.05-0.01,0.09-0.01V450.05z"/>
				<path class="st2" d="M419.81,450.04h0.05C419.82,450.03,419.8,450.03,419.81,450.04z"/>
				<path class="st2" d="M420.07,450.13c0-0.02,0-0.03,0-0.05l0,0V450.13z"/>
				<path class="st2" d="M420.07,450.08c0.08-0.01,0.17-0.02,0.3-0.02l-0.3-0.01C420.07,450.06,420.07,450.07,420.07,450.08z"/>
				<path class="st2" d="M418.79,384.94l1.28,65.11h0.01c0.99-22.4,0.78-75.39,3.08-96.78c7.27-52.93,56.3-94.8,109.38-93.07
					c52.72-0.68,99.55,41.46,106.64,93.56c1.73,20.82,0.08,74.38,0.53,96.36c0,0-1.77-2.78-5.31-4.38c-0.07-13.47-0.27-54-0.27-54
					c-0.21-19.52,0.24-40.44-7.16-59.22c-33.21-85.96-155.08-85.17-186.86,0.82c-7.26,18.65-6.21,38.97-5.72,58.43l1.16,57.84
					c-2.32,0.05-12.84,0.31-15.18,0.44l15.61,0.41l0.42,0.01l0.01-0.44l1.3-58.26c0.27-19.19-0.04-38.61,7.56-56.45
					c30.55-78.54,142.99-77.59,172.5,0.7c6.7,17.64,5.98,36.84,6.06,55.79l-0.17,58.23l-0.02,5.38c3.85-0.04,17.38,0.15,21.57,0.08
					h5.66l-0.31-5.38l-0.07-0.05c0.05,0.02,0.08,0.04,0.07,0.05c0,0-0.25-64.82-0.26-64.82c6.61-70.44-45.62-135.21-117.82-133.64
					C461.98,251.47,409.53,315.78,418.79,384.94z M435.99,449.61L435.99,449.61C436.02,449.61,436.01,449.61,435.99,449.61z"/>
			</g>
		</g>
	</g>
	<g>
		<path class="st2" d="M305.62,883.76c0-17.67,10.68-28.12,26.23-28.12c5.26,0,10.92,1.34,14.45,3.06l-1.1,5.97
			c-3.3-1.81-8.17-3.3-12.96-3.3c-12.8,0-19.95,8.48-19.95,22.38c0,13.04,8.17,20.89,20.66,20.89c5.1,0,10.29-1.57,13.19-3.38
			L347,907c-3.93,2.12-10.29,3.46-15.24,3.46C315.67,910.46,305.62,900.17,305.62,883.76z"/>
		<path class="st2" d="M352.9,882.82c0-14.06,7.46-27.17,24.03-27.17c16.65,0,24.19,12.49,24.19,27.1c0,15-7.54,27.72-24.19,27.72
			C360.2,910.46,352.9,897.42,352.9,882.82z M394.28,882.74c0-12.57-5.73-21.52-17.36-21.52c-11.7,0-17.2,9.74-17.2,21.6
			c0,12.49,5.5,22.15,17.2,22.15C388.55,904.96,394.28,895.46,394.28,882.74z"/>
		<path class="st2" d="M412.11,856.74h7.15l27.72,38.01v-38.01h6.28v52.62h-3.61l-31.26-42.88v42.88h-6.28V856.74z"/>
		<path class="st2" d="M481.3,862h-17.83v-5.26h41.94V862h-17.83v47.36h-6.28V862z"/>
		<path class="st2" d="M550.18,909.75c-3.14,0-5.65-1.1-8.09-5.1l-8.32-13.82c-1.73-2.91-2.75-4.71-6.99-4.71h-4.87v23.25h-6.28
			v-52.62h15.55c10.37,0,16.73,4.87,16.73,13.74c0,7.15-3.38,13.12-11.86,15c1.88,1.02,3.46,2.98,4.63,5.03l6.83,11.23
			c1.26,2.12,2.36,2.67,3.85,2.67h1.73v4.95C552.07,909.6,551.2,909.75,550.18,909.75z M521.91,880.62h8.64
			c8.09,0,10.84-4.01,10.84-10.13c0-5.81-4.4-8.48-11.78-8.48h-7.7V880.62z"/>
		<path class="st2" d="M556.62,882.82c0-14.06,7.46-27.17,24.03-27.17c16.65,0,24.19,12.49,24.19,27.1c0,15-7.54,27.72-24.19,27.72
			C563.92,910.46,556.62,897.42,556.62,882.82z M598.01,882.74c0-12.57-5.73-21.52-17.36-21.52c-11.7,0-17.2,9.74-17.2,21.6
			c0,12.49,5.5,22.15,17.2,22.15C592.28,904.96,598.01,895.46,598.01,882.74z"/>
		<path class="st2" d="M615.84,856.74h6.28v47.44h24.35v5.18h-30.63V856.74z"/>
		<path class="st2" d="M674.35,856.74h16.81c19.79,0,26.78,11.39,26.78,26.23c0,13.59-7.54,26.39-26.15,26.39h-17.44V856.74z
			 M680.63,904.1h9.19c15.16,0,21.44-9.58,21.44-21.13c0-12.57-6.13-20.97-20.89-20.97h-9.74V904.1z"/>
		<path class="st2" d="M728.93,856.74h29.61V862h-23.33v17.04h18.77v5.26h-18.77v19.79h23.56v5.26h-29.84V856.74z"/>
		<path class="st2" d="M361.46,988.53h-20.58l-5.73,15.08h-6.52l20.89-52.62h4.01l20.66,52.62h-7.07L361.46,988.53z M342.92,983.19
			h16.57l-8.17-21.83L342.92,983.19z"/>
		<path class="st2" d="M379.91,1001.02l0.86-5.89c4.79,2.83,9.74,4.16,13.98,4.16c6.13,0,10.76-3.22,10.76-9.19
			c0-5.73-5.26-7.62-13.19-11.78c-6.36-3.3-11.31-6.83-11.31-14.29c0-9.27,7.15-14.14,16.34-14.14c5.1,0,9.42,1.02,12.96,3.38
			l-1.02,5.81c-3.38-2.43-7.62-3.77-11.7-3.77c-6.44,0-10.21,3.69-10.21,8.01c0,4.55,3.22,6.83,10.05,10.29
			c6.83,3.46,14.77,7.23,14.77,16.26c0,8.95-7.23,14.84-17.12,14.84C388.24,1004.71,382.82,1002.67,379.91,1001.02z"/>
		<path class="st2" d="M422.64,950.99h6.28v52.62h-6.28V950.99z"/>
		<path class="st2" d="M438.97,1001.02l0.86-5.89c4.79,2.83,9.74,4.16,13.98,4.16c6.13,0,10.76-3.22,10.76-9.19
			c0-5.73-5.26-7.62-13.19-11.78c-6.36-3.3-11.31-6.83-11.31-14.29c0-9.27,7.15-14.14,16.34-14.14c5.1,0,9.42,1.02,12.96,3.38
			l-1.02,5.81c-3.38-2.43-7.62-3.77-11.7-3.77c-6.44,0-10.21,3.69-10.21,8.01c0,4.55,3.22,6.83,10.05,10.29
			c6.83,3.46,14.77,7.23,14.77,16.26c0,8.95-7.23,14.84-17.12,14.84C447.3,1004.71,441.88,1002.67,438.97,1001.02z"/>
		<path class="st2" d="M495.6,956.25h-17.83v-5.26h41.94v5.26h-17.83v47.36h-6.28V956.25z"/>
		<path class="st2" d="M529.92,950.99h29.61v5.26H536.2v17.04h18.77v5.26H536.2v19.79h23.56v5.26h-29.84V950.99z"/>
		<path class="st2" d="M570.37,950.99h7.15L605.24,989v-38.01h6.28v52.62h-3.61l-31.26-42.88v42.88h-6.28V950.99z"/>
		<path class="st2" d="M622.52,978c0-17.67,10.68-28.12,26.23-28.12c5.26,0,10.92,1.34,14.45,3.06l-1.1,5.97
			c-3.3-1.81-8.17-3.3-12.96-3.3c-12.8,0-19.95,8.48-19.95,22.38c0,13.04,8.17,20.89,20.66,20.89c5.1,0,10.29-1.57,13.19-3.38
			l0.86,5.73c-3.93,2.12-10.29,3.46-15.24,3.46C632.57,1004.71,622.52,994.42,622.52,978z"/>
		<path class="st2" d="M674.51,950.99h6.28v52.62h-6.28V950.99z"/>
		<path class="st2" d="M722.65,988.53h-20.58l-5.73,15.08h-6.52l20.89-52.62h4l20.66,52.62h-7.07L722.65,988.53z M704.12,983.19
			h16.57l-8.17-21.83L704.12,983.19z"/>
	</g>
</g>
</svg>
