<?xml version="1.0" encoding="utf-8"?>
<!-- Generator: Adobe Illustrator 27.5.0, SVG Export Plug-In . SVG Version: 6.00 Build 0)  -->
<svg version="1.1" id="Capa_1" xmlns="http://www.w3.org/2000/svg" xmlns:xlink="http://www.w3.org/1999/xlink" x="0px" y="0px"
	 viewBox="0 0 1080 1080" style="enable-background:new 0 0 1080 1080;" xml:space="preserve">
<style type="text/css">
	.st0{fill:url(#SVGID_1_);}
	.st1{fill:url(#SVGID_00000085942714877824915450000010060239715121006226_);}
	.st2{fill:#FFFFFF;}
</style>
<g>
	<g>
		<g>
			<linearGradient id="SVGID_1_" gradientUnits="userSpaceOnUse" x1="540" y1="5.456968e-12" x2="540" y2="1080">
				<stop  offset="0" style="stop-color:#B23C00"/>
				<stop  offset="1" style="stop-color:#D44F00"/>
			</linearGradient>
			<path class="st0" d="M1057.52,1080H22.48C10.07,1080,0,1069.93,0,1057.52V22.48C0,10.07,10.07,0,22.48,0h1035.03
				c12.42,0,22.48,10.07,22.48,22.48v1035.03C1080,1069.93,1069.93,1080,1057.52,1080z"/>
		</g>
		<g>
			
				<linearGradient id="SVGID_00000172441174368153427320000010332119063537785769_" gradientUnits="userSpaceOnUse" x1="540" y1="1042.4111" x2="540" y2="37.5888">
				<stop  offset="0" style="stop-color:#B23C00"/>
				<stop  offset="1" style="stop-color:#D44F00"/>
			</linearGradient>
			<path style="fill:url(#SVGID_00000172441174368153427320000010332119063537785769_);" d="M1019.93,1042.41H60.07
				c-12.42,0-22.48-10.07-22.48-22.48V60.07c0-12.42,10.07-22.48,22.48-22.48h959.85c12.42,0,22.48,10.07,22.48,22.48v959.85
				C1042.41,1032.34,1032.34,1042.41,1019.93,1042.41z"/>
		</g>
	</g>
	<g>
		<path class="st2" d="M286.8,883.76c0-17.67,10.68-28.12,26.23-28.12c5.26,0,10.92,1.34,14.45,3.06l-1.1,5.97
			c-3.3-1.81-8.17-3.3-12.96-3.3c-12.8,0-19.95,8.48-19.95,22.38c0,13.04,8.17,20.89,20.66,20.89c5.1,0,10.29-1.57,13.19-3.38
			l0.86,5.73c-3.93,2.12-10.29,3.46-15.24,3.46C296.85,910.46,286.8,900.17,286.8,883.76z"/>
		<path class="st2" d="M334.08,882.82c0-14.06,7.46-27.17,24.03-27.17c16.65,0,24.19,12.49,24.19,27.1c0,15-7.54,27.72-24.19,27.72
			C341.38,910.46,334.08,897.42,334.08,882.82z M375.47,882.74c0-12.57-5.73-21.52-17.36-21.52c-11.7,0-17.2,9.74-17.2,21.6
			c0,12.49,5.5,22.15,17.2,22.15C369.73,904.96,375.47,895.46,375.47,882.74z"/>
		<path class="st2" d="M393.3,856.74h7.15l27.72,38.01v-38.01h6.28v52.62h-3.61l-31.26-42.88v42.88h-6.28V856.74z"/>
		<path class="st2" d="M462.49,862h-17.83v-5.26h41.94V862h-17.83v47.36h-6.28V862z"/>
		<path class="st2" d="M531.36,909.75c-3.14,0-5.65-1.1-8.09-5.1l-8.32-13.82c-1.73-2.91-2.75-4.71-6.99-4.71h-4.87v23.25h-6.28
			v-52.62h15.55c10.37,0,16.73,4.87,16.73,13.74c0,7.15-3.38,13.12-11.86,15c1.88,1.02,3.46,2.98,4.63,5.03l6.83,11.23
			c1.26,2.12,2.36,2.67,3.85,2.67h1.73v4.95C533.25,909.6,532.39,909.75,531.36,909.75z M503.09,880.62h8.64
			c8.09,0,10.84-4.01,10.84-10.13c0-5.81-4.4-8.48-11.78-8.48h-7.7V880.62z"/>
		<path class="st2" d="M537.8,882.82c0-14.06,7.46-27.17,24.03-27.17c16.65,0,24.19,12.49,24.19,27.1c0,15-7.54,27.72-24.19,27.72
			C545.11,910.46,537.8,897.42,537.8,882.82z M579.19,882.74c0-12.57-5.73-21.52-17.36-21.52c-11.7,0-17.2,9.74-17.2,21.6
			c0,12.49,5.5,22.15,17.2,22.15C573.46,904.96,579.19,895.46,579.19,882.74z"/>
		<path class="st2" d="M597.02,856.74h6.28v47.44h24.35v5.18h-30.63V856.74z"/>
		<path class="st2" d="M655.53,856.74h16.81c19.79,0,26.78,11.39,26.78,26.23c0,13.59-7.54,26.39-26.15,26.39h-17.44V856.74z
			 M661.82,904.1H671c15.16,0,21.44-9.58,21.44-21.13c0-12.57-6.13-20.97-20.89-20.97h-9.74V904.1z"/>
		<path class="st2" d="M710.12,856.74h29.61V862H716.4v17.04h18.77v5.26H716.4v19.79h23.56v5.26h-29.84V856.74z"/>
		<path class="st2" d="M407.59,988.53h-20.58l-5.73,15.08h-6.52l20.89-52.62h4.01l20.66,52.62h-7.07L407.59,988.53z M389.06,983.19
			h16.57l-8.17-21.83L389.06,983.19z"/>
		<path class="st2" d="M424.63,978c0-17.67,10.68-28.12,26.23-28.12c5.26,0,10.92,1.34,14.45,3.06l-1.1,5.97
			c-3.3-1.81-8.17-3.3-12.96-3.3c-12.8,0-19.95,8.48-19.95,22.38c0,13.04,8.17,20.89,20.66,20.89c5.1,0,10.29-1.57,13.19-3.38
			l0.86,5.73c-3.93,2.12-10.29,3.46-15.24,3.46C434.69,1004.71,424.63,994.42,424.63,978z"/>
		<path class="st2" d="M471.91,978c0-17.67,10.68-28.12,26.23-28.12c5.26,0,10.92,1.34,14.45,3.06l-1.1,5.97
			c-3.3-1.81-8.17-3.3-12.96-3.3c-12.8,0-19.95,8.48-19.95,22.38c0,13.04,8.17,20.89,20.66,20.89c5.1,0,10.29-1.57,13.19-3.38
			l0.86,5.73c-3.93,2.12-10.29,3.46-15.24,3.46C481.97,1004.71,471.91,994.42,471.91,978z"/>
		<path class="st2" d="M523.91,950.99h29.61v5.26h-23.33v17.04h18.77v5.26h-18.77v19.79h23.56v5.26h-29.84V950.99z"/>
		<path class="st2" d="M561.05,1001.02l0.86-5.89c4.79,2.83,9.74,4.16,13.98,4.16c6.13,0,10.76-3.22,10.76-9.19
			c0-5.73-5.26-7.62-13.19-11.78c-6.36-3.3-11.31-6.83-11.31-14.29c0-9.27,7.15-14.14,16.34-14.14c5.1,0,9.42,1.02,12.96,3.38
			l-1.02,5.81c-3.38-2.43-7.62-3.77-11.7-3.77c-6.44,0-10.21,3.69-10.21,8.01c0,4.55,3.22,6.83,10.05,10.29
			c6.83,3.46,14.77,7.23,14.77,16.26c0,8.95-7.23,14.84-17.12,14.84C569.38,1004.71,563.96,1002.67,561.05,1001.02z"/>
		<path class="st2" d="M601.42,977.06c0-14.06,7.46-27.17,24.03-27.17c16.65,0,24.19,12.49,24.19,27.1c0,15-7.54,27.72-24.19,27.72
			C608.73,1004.71,601.42,991.67,601.42,977.06z M642.81,976.98c0-12.57-5.73-21.52-17.36-21.52c-11.7,0-17.2,9.74-17.2,21.6
			c0,12.49,5.5,22.15,17.2,22.15C637.08,999.21,642.81,989.71,642.81,976.98z"/>
	</g>
	<g>
		<g>
			<path class="st2" d="M328.2,123.05C268.64,236.8,206.8,349.31,143.88,461.19v-8.55c64.94,110.67,128.86,221.95,191.7,333.85
				l-7.38-4.28c127.82,1.14,255.63,3.53,383.37,8.57c-127.73,5.04-255.56,7.43-383.37,8.57l-4.83,0.04l-2.56-4.33
				c-65.78-112.12-130.5-224.86-194.1-338.25C192.38,344.67,259.17,233.16,328.2,123.05L328.2,123.05z"/>
			<path class="st2" d="M746.6,768.9C806.16,655.16,868,542.64,930.92,430.75v8.55c-64.94-110.68-128.86-221.96-191.7-333.86
				l7.38,4.28c-127.82-1.14-255.63-3.53-383.37-8.57c127.73-5.04,255.56-7.43,383.37-8.57l4.83-0.04l2.56,4.33
				c65.78,112.12,130.5,224.86,194.1,338.25C882.42,547.28,815.63,658.79,746.6,768.9L746.6,768.9z"/>
		</g>
		<g>
			<g>
				<path class="st2" d="M524.08,338.45c44.1,0.55,208.65-2.64,249.78-0.41c12.78,2.65,20.98,16.76,17.13,29.28
					c-5.45,20.06-25.36,17.39-41.5,17.43l-47.55,0.23L700.1,385v-1.86c-0.06-1.02,0.02-16.06-0.03-16.74l1.87-0.01l41.59-0.17
					l20.79-0.09c5.73,0.7,12.61-3.64,7.74-9.08c-1.81-1.99-4.78-1.61-8.37-1.68l-10.4,0.02c-12.85,0.05-49.02,0.08-62.43,0.11
					l-166.46,0.3l2.46-2.47l0.02,14.79l-2.49-2.5l162.2-0.29l2.77-0.01c0.05,3.9,0,16.57,0.04,20.48l-2.81,0.01l-123.55,0.22
					l2.18-5.15l3.87,4.13l0.16,0.15l86.96,87.13l43.48,43.57c6.47,7.08,17.58,15.14,19.8,25.41c4.78,18.36-13.71,36.56-31.87,30.78
					c-5.92-1.46-10.43-5.67-14.09-9.45l-21.7-21.81c-42.01-42.26-88.08-89.24-130-130.89l5.36-2.36l-0.25,142.64
					c-0.02,23.11-0.15,84.63-0.26,107.13c-0.07,3.59-1.23,8.29-5.06,10c-3.82,1.64-6.94,1.28-9.93,1.37l-17.73-0.03
					c-41-0.49-101.8,0.62-142.32-0.71c-8.08-1.19-8.02-11.22-7.67-17.39l0.05-17.83l0.08-35.66c0.11-45.02,0.41-167.32,0.52-213.96
					c1.03-24.88-3.01-83.39,4.94-106.89l7.16-34.9c2.27-7.01,1.1-16.36,6.99-21.81c4.34-2.42,9.26-1.09,13.83-1.39l35.46,0.18
					l70.92,0.37l17.77,0.15c7.57-0.18,8.27,8.24,9.27,13.89c3.8,21.02,10.31,49.31,13.08,70.08
					C524.27,314.65,524.05,326.5,524.08,338.45L524.08,338.45z M524.08,338.45c0.76-23.88-0.93-47.41-7-70.61l-7.17-34.92
					c-1.24-5.25-1.17-12.97-8.28-12.81c-11.93-0.08-75.42,0.4-88.6,0.41l-35.46,0.18c-5.62,0.41-12.99-1.48-14.38,3.95
					c-2.5,10.91-8.02,40.67-10.34,52.25c-2.65,11.76-5.17,22.91-4.41,34.88c0.09,79.61,0.23,205.66,0.32,285.26
					c0.16,11.07-0.06,42.6,0.06,53.48c0.12,6.03-0.75,12.41,3.86,12.6c4.92,0.67,11.49,0.18,17.2,0.31
					c10.85-0.11,41.84-0.01,53.19-0.1l70.92-0.13l17.73-0.03c5.54-0.29,9.53,0.86,9.49-6.2c0.04-22.09-0.09-83.83-0.13-106.83
					l-0.25-142.64l-0.02-7.64l5.38,5.27c42.43,41.83,88.41,88.43,130.71,130.66l21.71,21.83c3.43,3.51,6.72,6.61,10.95,7.62
					c13.17,4.28,26.74-9.04,23.33-22.37c-1.38-7.72-12.8-16.57-17.93-22.27c-32.58-33.21-106.7-106.97-138.94-140.7l7.03,0.02
					l123.55,0.22l-2.8,2.81l0.02-14.87l2.78,2.79l-162.2-0.29l-2.49-0.01c0.01-3.53,0.03-16.24,0.04-19.77l2.46,0.01l166.47,0.3
					c18.88,0.2,54.19-0.02,72.83,0.13c3.09,0.12,8.02-0.55,11.23,2.91c3.15,2.93,3.97,8.8,0.52,12.22
					c-3.19,3.17-7.52,3.82-11.04,3.69l-20.82,0.02l-41.64,0.02l1.87-1.88l-0.02,14.87l-1.84-1.85c15.67-0.22,55.81,0.51,70.96-0.28
					c20.7-4.05,21.48-36.01,0.33-40.45C733.71,338.13,566.82,339.38,524.08,338.45L524.08,338.45z"/>
				<path class="st2" d="M361.65,308.94c1.19,82.97,2.82,200.62,3.11,282.24l-3.1-3.12l147.42-0.44l-3.55,3.57l0.42-141.12
					l1.01-141.12l2.12,2.13L361.65,308.94L361.65,308.94z M361.65,308.94c49.2-0.45,99.13-1.9,149.52-2.15l0.02,2.15l1.01,141.12
					l0.42,141.12l0.01,3.58l-3.56-0.01l-147.42-0.44l-3.11-0.01C358.51,510.84,360.68,393.4,361.65,308.94L361.65,308.94z"/>
				<path class="st2" d="M509.14,606.68c-43.15,1.22-105.05,3.29-147.42,3.27l3.26-3.27l0.3,44.14l-3.55-3.57
					c25.96,0.15,85.45,0.42,110.56,1.12l36.86,0.83l-1.61,1.62L509.14,606.68L509.14,606.68z M509.14,606.68l1.61,44.14l0.06,1.58
					c-22.48,0.41-53.2,1.37-75.38,1.49l-73.7,0.49l-3.57,0.02c0.05-3.96,0.3-46.97,0.34-51.02
					C403.01,603.23,464.21,605.44,509.14,606.68L509.14,606.68z"/>
				<path class="st2" d="M362.98,293.52c42.32-1.14,103.14-3.21,144.68-3.25l-3.16,3.89c-3.95-19.61-8.18-39.17-11.9-58.82
					l3.41,2.82c-35.75-0.11-85.97-0.6-121.2-1.5l1.95-1.6C372.5,254.05,367.6,273.27,362.98,293.52L362.98,293.52z M362.98,293.52
					c3.33-19.45,6.4-40.16,10.15-60.83c35.74-0.97,86.61-1.35,122.87-1.52l2.83-0.02l0.59,2.84c4.31,20.87,8.06,41.87,12.17,62.79
					C467.53,296.94,407.42,294.67,362.98,293.52L362.98,293.52z"/>
				<path class="st2" d="M524.56,383.14l-0.97,1.13c2.55,4.33,6.95,7.65,10.62,11.29c7.03,6.73,26.58,25.42,33.9,32.42
					c26.42,25.71,63.57,61.9,89.2,87.66l22.15,22.05l11.08,11.03c4.11,4.79,9.78,1.09,7-3.74c-47.02-48.53-99.99-101.5-146.3-151.06
					c-2.88-2.51-7.49-9.43-11.17-10.1C540.06,383.8,524.56,383.14,524.56,383.14L524.56,383.14z M524.56,383.14l15.67-0.4
					c4.27,0.54,9.04,7.24,12.34,9.84l22.61,21.6c41.3,40.43,88.41,85.64,128.27,127c7.65,12.08-8.59,23.25-17.83,12.49
					c-24.93-25.47-51.99-52.52-76.63-78.12c-28.64-30.26-58.65-59.37-85.48-91.26l-0.03-0.03l0.03-0.03L524.56,383.14L524.56,383.14
					z"/>
			</g>
			<g>
				<path class="st2" d="M435.28,442.62c-17.99-0.04-35.81,0.83-53.94,0.04c-2.31-0.45-4.49-2.3-5.18-4.66
					c-1.39-4.45-0.79-15.7-1.15-20.44c-0.3-13.5-1-40.65-1.32-54.15c0.38-5.45-1.32-15.72,0.31-21.18
					c2.68-9.06,14.58-6.49,20.97-6.98l13.46-0.13c13.42-0.22,40.43-0.26,53.85-0.01l13.46,0.13c6.37,0.44,18.37-2.01,20.95,7.08
					c1.41,5.38,0.12,15.75,0.27,21.16c-0.36,13.49-0.97,40.66-1.32,54.15c-0.4,4.73,0.29,15.92-1.18,20.44
					c-0.71,2.36-2.93,4.16-5.24,4.6C471.08,443.43,453.26,442.59,435.28,442.62L435.28,442.62z M435.28,442.62
					c17.88-0.37,36.06,0.08,53.69-0.95c4.73-0.86,5.07-6.23,4.75-10.49l-0.33-13.54c-0.36-13.5-0.97-40.65-1.32-54.15
					c-0.52-3.82,0.29-15.98-0.98-19.33c-2.01-4.57-10.4-1.93-15.35-2.54l-13.46,0.13c-13.42,0.25-40.43,0.22-53.85-0.02l-13.46-0.13
					c-5.03,0.6-13.24-2.02-15.43,2.49c-1.13,3.25-0.68,15.53-0.99,19.3c-0.3,13.49-1,40.66-1.32,54.15l-0.33,13.54
					c-0.3,4.27-0.02,9.64,4.69,10.55C399.22,442.72,417.4,442.26,435.28,442.62L435.28,442.62z"/>
			</g>
			<path class="st2" d="M439.42,381.49l-9.9-7.01c-0.65-0.44-0.6-0.28-0.05-0.88l10.06-10.8c0.94-0.94,0.53-1.09,1.65-0.01
				c6.19,5.95,17.51,16.53,23.6,22.36c7.71,8-4.94,15.64-9.58,21.16l-13.05,13.2l-1.63,1.64c-0.61-0.73-11.29-11.33-12.26-12.39
				l-1.77-1.79c1.08-0.92,9.82-8.21,11.13-9.32l-0.62,2.5l-0.54-1.1l2.02,1.38c-10.88-0.11-21.75-0.09-32.63-0.44l-1.78-0.06
				l0.04-1.69c-0.08-0.49,0.47-16.35,0.4-16.28c11.09,0.27,23.04,0.65,33.71,1.35C438.23,383.32,439.42,381.49,439.42,381.49
				L439.42,381.49z M439.42,381.49l-0.99,1.94c-0.02,0.06-0.05,0.07-0.11,0.06c-10.82,0.51-21.64,1.04-32.47,1.26l1.38-1.38
				l0.37,14.87l-1.74-1.75c11.32-0.37,22.63-0.33,33.94-0.46c0.58,1.14,1.38,2.72,1.95,3.85c-0.5,0.41-9.59,8.32-10.4,8.99
				l0.14-3.38l10.67,10.67l-3.27-0.02l13.23-12.96c2.21-2.68,11.39-9.64,10.98-12.57c0.33-2.08-3.23-4.65-4.37-6.09l-6.4-6.69
				l-12.8-13.39l1.65-0.01l-10.91,9.97l-0.05-0.88L439.42,381.49L439.42,381.49z"/>
		</g>
	</g>
</g>
</svg>
