<?xml version="1.0" encoding="utf-8"?>
<!-- Generator: Adobe Illustrator 27.5.0, SVG Export Plug-In . SVG Version: 6.00 Build 0)  -->
<svg version="1.1" id="Capa_1" xmlns="http://www.w3.org/2000/svg" xmlns:xlink="http://www.w3.org/1999/xlink" x="0px" y="0px"
	 viewBox="0 0 1080 1080" style="enable-background:new 0 0 1080 1080;" xml:space="preserve">
<style type="text/css">
	.st0{fill:url(#SVGID_1_);}
	.st1{fill:url(#SVGID_00000115493280189717902370000007990462549309197471_);}
	.st2{fill:#FFFFFF;}
</style>
<g>
	<g>
		<g>
			<linearGradient id="SVGID_1_" gradientUnits="userSpaceOnUse" x1="540" y1="5.456968e-12" x2="540" y2="1080">
				<stop  offset="0" style="stop-color:#B23C00"/>
				<stop  offset="1" style="stop-color:#D44F00"/>
			</linearGradient>
			<path class="st0" d="M1057.52,1080H22.48C10.07,1080,0,1069.93,0,1057.52V22.48C0,10.07,10.07,0,22.48,0h1035.03
				c12.42,0,22.48,10.07,22.48,22.48v1035.03C1080,1069.93,1069.93,1080,1057.52,1080z"/>
		</g>
		<g>
			
				<linearGradient id="SVGID_00000065759847769721897540000014709984129969617814_" gradientUnits="userSpaceOnUse" x1="540" y1="1042.4111" x2="540" y2="37.5888">
				<stop  offset="0" style="stop-color:#B23C00"/>
				<stop  offset="1" style="stop-color:#D44F00"/>
			</linearGradient>
			<path style="fill:url(#SVGID_00000065759847769721897540000014709984129969617814_);" d="M1019.93,1042.41H60.07
				c-12.42,0-22.48-10.07-22.48-22.48V60.07c0-12.42,10.07-22.48,22.48-22.48h959.85c12.42,0,22.48,10.07,22.48,22.48v959.85
				C1042.41,1032.34,1032.34,1042.41,1019.93,1042.41z"/>
		</g>
	</g>
	<g>
		<path class="st2" d="M279.84,894.28h-20.58l-5.73,15.08h-6.52l20.89-52.62h4.01l20.66,52.62h-7.07L279.84,894.28z M261.31,888.94
			h16.57l-8.17-21.83L261.31,888.94z"/>
		<path class="st2" d="M336.15,909.75c-3.14,0-5.65-1.1-8.09-5.1l-8.32-13.82c-1.73-2.91-2.75-4.71-6.99-4.71h-4.87v23.25h-6.28
			v-52.62h15.55c10.37,0,16.73,4.87,16.73,13.74c0,7.15-3.38,13.12-11.86,15c1.88,1.02,3.46,2.98,4.63,5.03l6.83,11.23
			c1.26,2.12,2.36,2.67,3.85,2.67h1.73v4.95C338.04,909.6,337.17,909.75,336.15,909.75z M307.88,880.62h8.64
			c8.09,0,10.84-4.01,10.84-10.13c0-5.81-4.4-8.48-11.78-8.48h-7.7V880.62z"/>
		<path class="st2" d="M342.59,883.76c0-17.67,10.68-28.12,26.23-28.12c5.26,0,10.92,1.34,14.45,3.06l-1.1,5.97
			c-3.3-1.81-8.17-3.3-12.96-3.3c-12.8,0-19.95,8.48-19.95,22.38c0,13.04,8.17,20.89,20.66,20.89c5.1,0,10.29-1.57,13.19-3.38
			l0.86,5.73c-3.93,2.12-10.29,3.46-15.24,3.46C352.64,910.46,342.59,900.17,342.59,883.76z"/>
		<path class="st2" d="M389.87,882.82c0-14.06,7.46-27.17,24.03-27.17c16.65,0,24.19,12.49,24.19,27.1c0,15-7.54,27.72-24.19,27.72
			C397.18,910.46,389.87,897.42,389.87,882.82z M431.26,882.74c0-12.57-5.73-21.52-17.36-21.52c-11.7,0-17.2,9.74-17.2,21.6
			c0,12.49,5.5,22.15,17.2,22.15C425.53,904.96,431.26,895.46,431.26,882.74z"/>
		<path class="st2" d="M467.15,856.74h16.81c19.79,0,26.78,11.39,26.78,26.23c0,13.59-7.54,26.39-26.15,26.39h-17.44V856.74z
			 M473.44,904.1h9.19c15.16,0,21.44-9.58,21.44-21.13c0-12.57-6.13-20.97-20.89-20.97h-9.74V904.1z"/>
		<path class="st2" d="M521.74,856.74h29.61V862h-23.33v17.04h18.77v5.26h-18.77v19.79h23.56v5.26h-29.84V856.74z"/>
		<path class="st2" d="M576.87,862h-17.83v-5.26h41.94V862h-17.83v47.36h-6.28V862z"/>
		<path class="st2" d="M611.19,856.74h29.61V862h-23.33v17.04h18.77v5.26h-18.77v19.79h23.56v5.26h-29.84V856.74z"/>
		<path class="st2" d="M647.71,883.76c0-17.67,10.68-28.12,26.23-28.12c5.26,0,10.92,1.34,14.45,3.06l-1.1,5.97
			c-3.3-1.81-8.17-3.3-12.96-3.3c-12.8,0-19.95,8.48-19.95,22.38c0,13.04,8.17,20.89,20.66,20.89c5.1,0,10.29-1.57,13.19-3.38
			l0.86,5.73c-3.93,2.12-10.29,3.46-15.24,3.46C657.77,910.46,647.71,900.17,647.71,883.76z"/>
		<path class="st2" d="M714.39,862h-17.83v-5.26h41.94V862h-17.83v47.36h-6.28V862z"/>
		<path class="st2" d="M742.82,882.82c0-14.06,7.46-27.17,24.03-27.17c16.65,0,24.19,12.49,24.19,27.1c0,15-7.54,27.72-24.19,27.72
			C750.13,910.46,742.82,897.42,742.82,882.82z M784.21,882.74c0-12.57-5.73-21.52-17.36-21.52c-11.7,0-17.2,9.74-17.2,21.6
			c0,12.49,5.5,22.15,17.2,22.15C778.48,904.96,784.21,895.46,784.21,882.74z"/>
		<path class="st2" d="M836.6,909.75c-3.14,0-5.65-1.1-8.09-5.1l-8.33-13.82c-1.73-2.91-2.75-4.71-6.99-4.71h-4.87v23.25h-6.28
			v-52.62h15.55c10.37,0,16.73,4.87,16.73,13.74c0,7.15-3.38,13.12-11.86,15c1.88,1.02,3.46,2.98,4.63,5.03l6.83,11.23
			c1.26,2.12,2.36,2.67,3.85,2.67h1.73v4.95C838.48,909.6,837.62,909.75,836.6,909.75z M808.32,880.62h8.64
			c8.09,0,10.84-4.01,10.84-10.13c0-5.81-4.4-8.48-11.78-8.48h-7.7V880.62z"/>
		<path class="st2" d="M334.46,950.99h16.81c19.79,0,26.78,11.39,26.78,26.23c0,13.59-7.54,26.39-26.15,26.39h-17.44V950.99z
			 M340.75,998.35h9.19c15.16,0,21.44-9.58,21.44-21.13c0-12.57-6.13-20.97-20.89-20.97h-9.74V998.35z"/>
		<path class="st2" d="M389.05,950.99h29.61v5.26h-23.33v17.04h18.77v5.26h-18.77v19.79h23.56v5.26h-29.84V950.99z"/>
		<path class="st2" d="M447.56,950.99h7.54l18.61,42.88l18.77-42.88h6.99v52.62h-6.28v-39.82l-17.67,39.82h-3.93l-17.75-40.13v40.13
			h-6.28V950.99z"/>
		<path class="st2" d="M512.82,950.99h29.61v5.26H519.1v17.04h18.77v5.26H519.1v19.79h23.56v5.26h-29.84V950.99z"/>
		<path class="st2" d="M567.96,956.25h-17.83v-5.26h41.94v5.26h-17.83v47.36h-6.28V956.25z"/>
		<path class="st2" d="M623.72,988.53h-20.58l-5.73,15.08h-6.52l20.89-52.62h4l20.66,52.62h-7.07L623.72,988.53z M605.18,983.19
			h16.57l-8.17-21.83L605.18,983.19z"/>
		<path class="st2" d="M645.47,950.99h6.28v47.44h24.35v5.18h-30.63V950.99z"/>
		<path class="st2" d="M685.92,950.99h29.61v5.26H692.2v17.04h18.77v5.26H692.2v19.79h23.56v5.26h-29.84V950.99z"/>
		<path class="st2" d="M723.07,1001.02l0.86-5.89c4.79,2.83,9.74,4.16,13.98,4.16c6.13,0,10.76-3.22,10.76-9.19
			c0-5.73-5.26-7.62-13.19-11.78c-6.36-3.3-11.31-6.83-11.31-14.29c0-9.27,7.15-14.14,16.34-14.14c5.1,0,9.42,1.02,12.96,3.38
			l-1.02,5.81c-3.38-2.43-7.62-3.77-11.7-3.77c-6.44,0-10.21,3.69-10.21,8.01c0,4.55,3.22,6.83,10.05,10.29
			c6.83,3.46,14.77,7.23,14.77,16.26c0,8.95-7.23,14.84-17.12,14.84C731.39,1004.71,725.98,1002.67,723.07,1001.02z"/>
	</g>
	<g>
		<g>
			<path class="st2" d="M322.7,123.42c-59.3,113.73-120.98,226.17-183.78,337.95v-8.93c64.92,110.52,128.77,221.67,191.5,333.47
				l-7.71-4.47c127.68,1.19,255.36,3.69,382.95,8.96c-127.59,5.26-255.28,7.76-382.95,8.96l-5.04,0.05l-2.67-4.52
				C249.19,682.84,184.5,570.16,120.98,456.81C186.66,344.74,253.51,233.35,322.7,123.42L322.7,123.42z"/>
			<path class="st2" d="M740.65,768.53c59.3-113.73,120.98-226.17,183.78-337.95v8.93c-64.92-110.53-128.77-221.68-191.5-333.48
				l7.71,4.47c-127.68-1.19-255.36-3.69-382.95-8.96c127.59-5.26,255.28-7.76,382.95-8.96l5.04-0.05l2.67,4.52
				c65.79,112.04,130.49,224.72,194.01,338.07C876.69,547.22,809.83,658.6,740.65,768.53L740.65,768.53z"/>
		</g>
		<g>
			<g>
				<path class="st2" d="M379.32,717.37c-0.21-63.88-0.65-371.42-1.18-428.21c-0.01-13.7-0.33-50.86-0.36-64.23
					c-1.89-19.83,5.08-39.87,28.84-38.3l10.65-0.04c61.1-0.29,151.58-0.47,212.91-0.95l42.58-0.31l10.65-0.08
					c17.23-1.5,28.64,17.3,26.76,32.89c0.84,111.09,1,393.24,1.24,508.04c-6.77-0.06-32.42-0.04-39.21-0.08l0.01-4.8l0.51-234.07
					l1.18-234.07l3.11,3.13l-265.92-1.51l1.61-1.62c-0.56,116.66-1.44,351.58-1.54,468.23c0.08,0.24-31.85-0.07-31.94,0.01
					C379.2,721.38,379.33,717.38,379.32,717.37L379.32,717.37z M379.32,717.37c-0.01-0.01-0.07,4.04-0.08,3.99
					c-0.05,0.02,32.2-0.18,31.78,0.01c-0.08-116.76-0.95-351.52-1.54-468.23l-0.01-1.61l1.63-0.01l265.92-1.51l3.1-0.02l0.02,3.14
					l1.16,234.07l0.51,234.07l-4.78-4.81l29.55-0.07l-4.84,4.87l0.54-342.58c-0.44-48.65,1.52-122.7,0.14-170.5
					c-1.89-9.13-9.22-16.95-18.97-16.18l-10.65-0.04l-42.59-0.17c-61.45-0.15-151.73-1.06-212.94-1.45
					c-27.56-2.29-37.88,5.84-36.4,34.54c-0.04,13.29-0.3,50.4-0.36,64.23C380.05,344.43,379.44,655.31,379.32,717.37L379.32,717.37z
					"/>
				<path class="st2" d="M545.68,237.4c19.9-1.07,18.08-26.05-0.01-25.99C527.16,211.49,526.4,236.65,545.68,237.4L545.68,237.4z
					 M545.68,237.4c-24.82,0.08-25.88-35-0.02-35.94C571.44,202.39,570.47,237.47,545.68,237.4L545.68,237.4z"/>
				<path class="st2" d="M502.5,237.4c19.3-0.54,18.7-25.9,0.2-25.99C484.19,211.39,483.13,236.59,502.5,237.4L502.5,237.4z
					 M502.5,237.4c-24.86,0.01-25.61-35.13,0.21-35.93C528.54,202.47,527.29,237.7,502.5,237.4L502.5,237.4z"/>
				<path class="st2" d="M587.28,237.3c19.4-0.97,18.22-26.17-0.4-25.99C568.45,211.67,567.92,236.94,587.28,237.3L587.28,237.3z
					 M587.28,237.3c-24.85,0.43-26.54-34.51-0.43-35.94C612.65,202.09,612.12,237.11,587.28,237.3L587.28,237.3z"/>
			</g>
			<path class="st2" d="M591.88,438.5l-5.04,0.06c0.03,18.73,0.35,38.24,0.55,57.23c-0.04,9.61,0.5,33.72,0.5,42.97
				c-0.22,4.6,1.04,10.78-2.21,14.76c-1.45,2.26-3.86,1.92-3.48,4.6c0.44,29.34,0.81,77.67,1.14,107.42l0.19,28.65
				c-0.57,7.23,2.65,17.79-5.23,22.65c-5.01,3.04-10.68,1.28-15.73,1.75c-6.35,0.17-12.05-6.08-11.51-12.39l-0.05-7.18
				c-0.12-17.93-0.8-122.88-0.94-143.24l4.11,4.14l-23.45,0.09l4.21-4.23c0.06,26.28,0.27,125.67,0.33,150.29
				c0.83,6.65-5.59,14.4-12.62,14.06l-7.16,0.05c-11.56,1.17-17.17-8.88-15.9-18.96c-0.02-35.02,0.01-86.56-0.15-121.65
				c0.11-4.8-0.15-16.84-0.08-21.47c-0.03-1.74-0.09-0.42,0.45,0.05c0.87,0.63-1.95-1.18-2.93-2.62c-2.63-3.24-2.98-7.3-2.92-9.89
				l0.02-7.16c0.02-20.56,0.12-50.93,0.15-71.57c-0.02-7.51,0.22-20.79-0.08-28.03l4.66,4.14l-4.24-0.01l4.69-4.72l-0.19,88.02
				c0.12,3.92-0.1,13.22-0.17,17.02c-0.58,8.36-8.61,13.18-16.44,12.15c-3.61,0.43-10.53-1.12-13.28-6.34
				c-1.47-2.39-1.94-5.25-1.92-7.52c-0.18-3.53,0.16-12.89,0.04-16.53c0.01-14.45,0.3-93.91,0.36-110.03
				c0.18-6.23-0.97-14.43,5.38-18.61c4.34-3.92,23.84-1.48,29.26-2.03c21.82,0.23,65.73,0.44,87.55,0.67
				c3.51,0.08,13.15,0.03,16.59,0.06c7.62-0.17,12.65,8.43,11.41,14.61c-0.53,33.55-0.24,104.88-1.6,137.76
				c-0.05,7.17-7.32,10.2-13.47,9.23c-3.51,0.37-8.64-0.9-10.66-4.87c-2.11-3.93-1.19-7.9-1.38-11.46l0.13-11l1.03-88.02
				C591.75,441.43,591.87,438.51,591.88,438.5L591.88,438.5z M591.88,438.5l-0.05,2.94c0-0.02,1.03,88.02,1.03,88.02
				c0.49,5.52-0.89,16.65,1.4,21.12c1.67,2.78,4.72,3.63,8.36,3.3c3.76,0.06,7.05,0.08,8.86-2.48c2.99-4.46,1.09-15.2,1.49-20.57
				c-0.24-14.36-0.86-93.97-1-110.03l-0.08-11c0.24-3.55-0.49-6.16-2.4-7.46c-1.68-1.83-6.66-0.8-8.86-1.02
				c-26.91,0.16-71.47,0.46-98.45,0.59l-21.81,0.15c-2.72,0.19-3.9,1.01-4.54,3.18c-0.76,3.08,0.18,92.35,0.01,97.87
				c0.21,7.35-0.08,25.89,0.08,32.98c0.32,1.9-0.56,7.03,0.7,8.52c0.94,2.24,5.36,2.09,8.43,1.98c5.57,0.19,4.91-5.35,4.93-9.25
				l-0.02-11l-0.19-88.02l-0.01-4.71c3.91,0.03,9.22-0.05,13.12-0.03c1.01,6.32,0.68,12.99,0.74,19.04
				c0.02,8.91,0.07,33.67,0.09,42.94c0.13,9.57-0.01,33.71,0.09,42.94c0.27,2-0.59,9.58,0.76,10.79c0.42,0.54-0.15-0.23,2.43,2.06
				c0.97,0.96,1.85,2.7,2.05,4.04c0.24,2.49,0.19,7.51,0.17,9.88c-0.08,9.19,0.03,33.47-0.03,42.94
				c-0.05,18.62-0.24,67.8-0.32,85.89l-0.03,7.16c-0.27,5.58-0.17,10.35,6.15,9.74c12.57,0.34,11.13,0.33,11.25-12.08l0.06-28.63
				l0.25-114.51l0.01-4.24c5.85,0.02,25.93,0.11,31.78,0.13l-0.03,4.12c-0.14,20.79-0.81,124.66-0.94,143.24
				c0.14,4.6-1.69,13.66,5.62,13.48c4.69-0.39,14.31,1.93,14.73-4.49c0.59-43.37,0.81-99.3,1.47-142.75l0.08-7.17
				c0.09-1.11-0.2-3.12,1.89-4.43c5.35-2.75,4.01-9.07,4.29-14.91c0.47-32.62,0.57-67.74,1.34-100.27
				C586.72,438.34,591.82,438.55,591.88,438.5L591.88,438.5z"/>
			<path class="st2" d="M511.79,357.43c1.22-53.82,65.19-53.01,67.05,0.37C576.72,411.08,512.19,411.33,511.79,357.43L511.79,357.43
				z M511.79,357.43c1.25,46.7,55.97,47.58,57.16,0.34C568.21,310.4,513.75,310.68,511.79,357.43L511.79,357.43z"/>
		</g>
	</g>
</g>
</svg>
