<?xml version="1.0" encoding="utf-8"?>
<!-- Generator: Adobe Illustrator 27.5.0, SVG Export Plug-In . SVG Version: 6.00 Build 0)  -->
<svg version="1.1" id="Capa_1" xmlns="http://www.w3.org/2000/svg" xmlns:xlink="http://www.w3.org/1999/xlink" x="0px" y="0px"
	 viewBox="0 0 1080 1080" style="enable-background:new 0 0 1080 1080;" xml:space="preserve">
<style type="text/css">
	.st0{fill:url(#SVGID_1_);}
	.st1{fill:url(#SVGID_00000122692304576315691240000007022609652376147340_);}
	.st2{fill:#FFFFFF;}
</style>
<g>
	<g>
		<g>
			<linearGradient id="SVGID_1_" gradientUnits="userSpaceOnUse" x1="540" y1="5.456968e-12" x2="540" y2="1080">
				<stop  offset="0" style="stop-color:#B23C00"/>
				<stop  offset="1" style="stop-color:#D44F00"/>
			</linearGradient>
			<path class="st0" d="M1057.52,1080H22.48C10.07,1080,0,1069.93,0,1057.52V22.48C0,10.07,10.07,0,22.48,0h1035.03
				c12.42,0,22.48,10.07,22.48,22.48v1035.03C1080,1069.93,1069.93,1080,1057.52,1080z"/>
		</g>
		<g>
			
				<linearGradient id="SVGID_00000157278971653230779700000004028935150156195462_" gradientUnits="userSpaceOnUse" x1="540" y1="1042.4111" x2="540" y2="37.5888">
				<stop  offset="0" style="stop-color:#B23C00"/>
				<stop  offset="1" style="stop-color:#D44F00"/>
			</linearGradient>
			<path style="fill:url(#SVGID_00000157278971653230779700000004028935150156195462_);" d="M1019.93,1042.41H60.07
				c-12.42,0-22.48-10.07-22.48-22.48V60.07c0-12.42,10.07-22.48,22.48-22.48h959.85c12.42,0,22.48,10.07,22.48,22.48v959.85
				C1042.41,1032.34,1032.34,1042.41,1019.93,1042.41z"/>
		</g>
	</g>
	<g>
		<path class="st2" d="M374.12,890.64v21.99h-6.28v-52.62h15.55c10.29,0,17.04,4.32,17.04,14.14c0,9.66-6.05,16.49-20.03,16.49
			H374.12z M374.12,885.38h6.28c8.64,0,13.35-3.61,13.35-11.23c0-6.28-4.56-8.87-11.78-8.87h-7.85V885.38z"/>
		<path class="st2" d="M411.03,895.2v-35.18h6.28v34.16c0,8.95,4.79,13.98,14.06,13.98c9.19,0,13.51-5.03,13.51-13.98v-34.16h6.28
			v35.18c0,11.94-8.33,18.54-20.03,18.54C419.75,913.73,411.03,907.61,411.03,895.2z"/>
		<path class="st2" d="M464.12,860.01h7.15l27.72,38.01v-38.01h6.28v52.62h-3.61l-31.26-42.88v42.88h-6.28V860.01z"/>
		<path class="st2" d="M533.32,865.28h-17.83v-5.26h41.94v5.26H539.6v47.36h-6.28V865.28z"/>
		<path class="st2" d="M561.75,886.09c0-14.06,7.46-27.17,24.03-27.17c16.65,0,24.19,12.49,24.19,27.1c0,15-7.54,27.72-24.19,27.72
			C569.05,913.73,561.75,900.7,561.75,886.09z M603.14,886.01c0-12.57-5.73-21.52-17.36-21.52c-11.7,0-17.2,9.74-17.2,21.6
			c0,12.49,5.5,22.15,17.2,22.15C597.4,908.24,603.14,898.73,603.14,886.01z"/>
		<path class="st2" d="M639.03,860.01h16.81c19.79,0,26.78,11.39,26.78,26.23c0,13.59-7.54,26.39-26.15,26.39h-17.44V860.01z
			 M645.31,907.37h9.19c15.16,0,21.44-9.58,21.44-21.13c0-12.57-6.13-20.97-20.89-20.97h-9.74V907.37z"/>
		<path class="st2" d="M693.61,860.01h29.61v5.26H699.9v17.04h18.77v5.26H699.9v19.79h23.56v5.26h-29.84V860.01z"/>
		<path class="st2" d="M450.93,995.73l15.16-41.47h6.75l-20.34,52.62h-3.53l-20.42-52.62h6.68L450.93,995.73z"/>
		<path class="st2" d="M481.87,954.26h29.61v5.26h-23.33v17.04h18.77v5.26h-18.77v19.79h23.56v5.26h-29.84V954.26z"/>
		<path class="st2" d="M522.32,954.26h7.15l27.72,38.01v-38.01h6.28v52.62h-3.61L528.6,964v42.88h-6.28V954.26z"/>
		<path class="st2" d="M591.51,959.52h-17.83v-5.26h41.94v5.26h-17.83v47.36h-6.28V959.52z"/>
		<path class="st2" d="M647.27,991.8H626.7l-5.73,15.08h-6.52l20.89-52.62h4l20.66,52.62h-7.07L647.27,991.8z M628.74,986.46h16.57
			l-8.17-21.83L628.74,986.46z"/>
	</g>
	<g>
		<g>
			<path class="st2" d="M341.81,126.47c-57.06,113.57-117.38,225.44-179.24,336.4v-12.16c32.57,54.51,64.11,109.6,96.05,164.47
				c31.31,55.23,63.03,110.23,93.69,165.84l-10.5-6.09c126.52,1.63,253.05,5.03,379.42,12.19c-128.63,7.29-257.44,10.7-386.23,12.27
				c-33.87-56.51-66.58-113.71-99.71-170.66c-32.49-57.31-65.38-114.4-97.14-172.14C203.91,345.26,271.27,234.84,341.81,126.47
				L341.81,126.47z"/>
			<path class="st2" d="M755.9,765.47c57.06-113.57,117.37-225.44,179.24-336.4v12.16c-32.57-54.51-64.11-109.6-96.05-164.47
				c-31.31-55.23-63.03-110.23-93.69-165.84l10.5,6.09c-126.52-1.63-253.05-5.03-379.42-12.19c128.63-7.29,257.44-10.7,386.23-12.27
				c33.87,56.52,66.58,113.71,99.71,170.66c32.49,57.31,65.38,114.4,97.14,172.14C893.8,546.68,826.44,657.1,755.9,765.47
				L755.9,765.47z"/>
		</g>
		<g>
			<g>
				<path class="st2" d="M712.16,360.14c1.18-1.61-347.51,5.01-337.28,0.29l-10.07,71.85c-1.51,11.42-6.03,42.74-7.52,53.9
					c-1.04,5.43-0.77,13.45-4.12,18.57c-6.45,10.52-24.62,4.35-22.92-8.06c0.39-5.83,5.07-38.73,5.99-45.3
					c2.74-20.02,11.15-79.87,13.77-98.81c0.31-7.14,3.43-15,11.29-16.17c6.35-0.7,21.05-0.18,27.58-0.36l72.18-0.18l144.37-0.35
					l-3.34,3.36l0.04-42.08l3.29,3.31c-9.67,0.11-34.22-0.18-43.56-0.11l-7.32-0.03c-2.71-0.07-5.67-0.46-8.5-2.06
					c-6.24-3.47-6.8-11.17-6.55-15.64c-0.05-9.46,0.14-34.06,0.11-43.79c0.33-9.04-2.59-26.12,9.9-28.49
					c48.23-1.73,111.96,0.24,160.41-0.26c25-1.42,25.12,5.89,24.45,28.86c0.02,9.9-0.11,34.27-0.11,43.79
					c0.32,4.49-0.51,11.79-6.27,14.83c-2.62,1.48-5.45,1.87-8.11,1.93c-4.37,0.03-17.2-0.06-21.8-0.05l-29.04-0.07l2.16-2.17
					l-0.08,42.07l-2.05-2.06l48.51,0.12c3.83-0.04,9.1-0.08,12.72,3.73c3.45,3.79,3.57,8.65,4.17,12.44
					c2.27,15.89,14.26,103.02,16.72,120.75c0.91,8.2,2.59,15.78,2.87,24.49c-0.62,9.71-13.93,14.44-20.08,6.59
					c-4.38-5.08-3.84-17.64-5.29-24.08l-3.26-24.16L712.16,360.14L712.16,360.14z M712.16,360.14l14.65,96.4l3.6,24.11
					c1.41,5.74,1.27,18.66,5.14,22.96c4.92,6.32,15.96,2.35,16.12-5.49c-0.37-7.48-2.18-15.92-3.2-23.83
					c-2.6-18.27-15.45-104.39-17.7-120.6c-0.6-8.91-3.64-13.77-13.18-12.81l-48.5,0.12c-2.77,0.03-1.93,0.31-2.05-2.07l-0.11-42.08
					l-0.01-2.16l2.17-0.01l29.03-0.07l14.51-0.04c9.8,0.5,18.27,0.03,16.99-12.19c0.03-9.49-0.12-34.05-0.11-43.79
					c0-21.11,2.24-25.01-19.57-23.73c-47.53,0.57-111.65-0.57-158.89,0.84c-7.84,1.24-4.81,13.38-5.4,22.78l0.07,29.19
					c0.65,5.67-2.11,22.39,3.46,24.71c5.42,2.48,20.36,0.64,27.22,1.15c1.76,0.03,31.48-0.1,32.33-0.08v3.33l0.04,42.08v3.36
					l-3.35-0.01l-144.37-0.35l-72.18-0.18l-18.05-0.05c-5.24,0.15-10.96-1.16-13.74,3.87c-1.93,3.47-2.02,12.46-3.04,16.81
					c-1.78,11.95-11.01,76.5-12.95,89.77l-5.16,35.91c-0.65,6.13-2.53,11.83,1.22,15.22c3.29,3.52,9.63,2.97,12.25-1.11
					c2.59-3.22,2.37-12.33,3.45-16.6l2.59-17.95c3.26-22.52,12.21-84.36,15.61-107.72l0.24-1.67l1.67,0.01L712.16,360.14
					L712.16,360.14z"/>
				<path class="st2" d="M633.22,233.33c-8.78,1.1-17.16-0.08-24.12,3.05c-12.34,13.96-26.29,27.94-38.92,41.37l-2.57-5.57
					c2.01-0.19,21.64,0.77,22.95-0.12C604.27,258.96,618.99,245.76,633.22,233.33L633.22,233.33z M633.22,233.33
					c-12.05,15.44-25.42,29.67-39.02,43.76c-1.89,1.72-5.45,1.84-6.62,1.78c-5.29-0.07-22.53,0.17-27.56,0.12
					c14.42-16.34,30.54-30.64,46.43-45.3C614.2,228.99,625.58,234.13,633.22,233.33L633.22,233.33z"/>
				<path class="st2" d="M598.97,275.57c8.35-1.06,17.9,0.21,24.18-2.97c11.98-13.43,26.41-28.62,39.05-41.57l2.46,5.69l-19.79-0.09
					c-3.21-0.4-3.52,0.64-6.49,3.4C625.66,252.22,612.1,264.04,598.97,275.57L598.97,275.57z M598.97,275.57
					c12.21-15.43,25.48-29.92,39.37-43.78c1.77-1.33,4.94-1.71,6.26-1.61c5.58,0.02,22.83-0.33,28.16-0.33
					c-15.12,15.76-30.95,30.9-47.02,45.51C622.89,279.39,606.83,275.65,598.97,275.57L598.97,275.57z"/>
				<path class="st2" d="M630.48,275.57c8.85-1.08,17.15-0.01,24.2-3.06c12.4-14.06,26.19-27.88,38.92-41.46l2.49,5.66
					c-1.65,0.34-22.53-1.12-23.26,0.42C659.13,250.28,644.99,263.28,630.48,275.57L630.48,275.57z M630.48,275.57
					c10.68-13.54,22.72-26.32,34.39-38.99c2.53-2.93,6.47-7.24,10.53-6.53c5.35,0.05,23.23-0.18,28.29-0.14
					c-14.35,16.26-30.57,30.73-46.44,45.37C649.3,279.77,638.13,274.86,630.48,275.57L630.48,275.57z"/>
				<path class="st2" d="M626.75,338.63l20.7-1.12l-1.12,1.12l-2.25-41.78l3.37,3.39l-20.7-1.12l2.25-2.26
					C628.26,310.21,627.27,324.13,626.75,338.63C626.75,338.63,627.27,324.13,626.75,338.63z M626.75,338.63l-2.25-41.78l-0.11-2.13
					c0.58-0.03,21.83-1.19,23.07-1.25l3.56-0.19l-0.19,3.59l-2.25,41.78l-0.06,1.19l-1.06-0.06L626.75,338.63L626.75,338.63z"/>
				<path class="st2" d="M661.99,275.57c7.85-0.29,14.93-1.48,22.44-1.99c0.81-0.06,0.31,0.02,0.56-0.12
					c5.91-6.38,11.61-13.02,17.67-19.25l4.32-4.53l0.53-0.58c0,0-0.18,0.29-0.22,0.8c0.05-2.65-0.05-13.5,0.02-16.33l2.65,3.27
					c-4.39-1.09-6.11,0.8-10.39,5.02C687.48,253.62,674.69,264.69,661.99,275.57L661.99,275.57z M661.99,275.57
					c9.99-13.51,21.74-25.77,33.11-38.1c3.1-4.34,10.31-9.27,16.2-7.19l2.67,0.6l-0.02,2.68l-0.08,12.6c0.05,2.98,0.18,6.3-2.28,8.1
					c-7.26,7.1-15.71,14.97-22.85,21.29c-0.86,1.14-3.23,2.18-4.37,1.84C677.33,277.11,668.69,275.88,661.99,275.57L661.99,275.57z"
					/>
				<path class="st2" d="M600.94,233.33c-7.83,0.31-14.37,1.68-21.77,2.17c-0.8,0.07-0.06-0.02-0.39,0.11
					c-0.16,0.12-0.43,0.39-0.56,0.6c-0.14,0.08-6.82,7.75-6.96,7.86c-1.1,1.52-4.91,4.18-4.49,6.38l0.02,20.61l-5.64-2.34
					C572.86,256.92,586.1,246.99,600.94,233.33L600.94,233.33z M600.94,233.33c-11.33,13.06-25.87,31.47-40.58,45.58
					c-0.3-9.42-0.21-19.29,0.01-28.72c0.02-2.32,1.26-5.15,3.03-6.61c2.33-2.33,8.99-8.23,11.53-10.5c0.3-0.55,3.13-2.25,4.3-1.77
					C586.28,231.56,594.31,232.96,600.94,233.33L600.94,233.33z"/>
			</g>
			<g>
				<path class="st2" d="M542.79,529.02l134.38-0.98c22.57-0.06,44.42-1.03,67.57-0.87c3.22,0.51,6.46,2.37,8.37,5.29
					c3.95,5.5,1.84,19.87,2.59,26.23c0.21,16.84,1,50.71,1.25,67.55c-0.46,7.42,2.23,20.52-2.18,27.42
					c-4.08,6.88-12.85,6.93-19.07,6.87c-5.04,0.04-19.9,0.41-25.2,0.47c-21.06,0.54-144.08,1.34-167.97,1.51
					c-24.47-0.2-146.11-0.92-167.97-1.47c-4.78-0.16-20.38-0.33-25.2-0.47c-6.15,0.11-15.25-0.15-19.06-7.2
					c-4.2-6.92-1.48-19.99-1.97-27.38c0.41-16.83,0.87-50.72,1.25-67.55c0.71-6.53-1.33-20.41,2.76-26.24
					c1.96-3.02,5.48-4.66,8.56-5.03c23.07-0.2,44.98,0.8,67.53,0.87L542.79,529.02L542.79,529.02z M542.79,529.02l-134.38,0.99
					c-22.23,0.3-45.16,0.56-66.83,1.38c-5.05,0.7-7.13,4.86-6.82,10.16c0.37,24.23,1.17,60.11,1.57,84.43l0.31,16.89
					c0.21,5.27,1.38,7.39,5.19,7.96c3.17,0.53,12.06-0.18,15.9-0.07c10.34-0.24,39.6-0.65,50.39-0.82
					c66.97-0.92,201.8-0.91,268.76,0.02l66.38,0.94c3.9-0.55,5.16-2.61,5.4-7.78l0.31-16.89c0.28-24.35,1.23-60.15,1.56-84.41
					c0.65-5.41-1.82-9.53-6.59-10.51c-21.59-0.74-44.57-1.06-66.78-1.32L542.79,529.02L542.79,529.02z"/>
				<path class="st2" d="M731.72,550.22c-120.61,2.92-257.79,6.08-378.24,6.32l6.29-6.32l0.44,84.02l-6.73-6.77
					c62.84,0.26,222.98,1.03,283.68,2.41l94.56,1.88l-2.46,2.48L731.72,550.22L731.72,550.22z M731.72,550.22l2.46,84.02l0.07,2.43
					l-2.54,0.05l-94.56,1.88c-59.99,1.37-221.62,2.16-283.68,2.41l-6.77,0.04l0.04-6.8l0.44-84.02l0.03-6.36
					C470.14,544.08,608.82,547.09,731.72,550.22L731.72,550.22z"/>
			</g>
			<path class="st2" d="M479.46,411.48c-7.7,4.77-11.58,11.8-20.93,13.52c-6.65,0.34-16.62-8.17-22.62-11.06l4.65-2.28l0.78,23.79
				c-0.01,7.73,1.51,18.21-0.65,25.74c-6.64,16.35-31.36,9.59-30.13-7.52l-0.12-6.06c-0.23-13.37-0.72-34.56-0.75-47.94
				c0.18-4.68-0.69-9.1,1.06-14.14c5.19-14,21.44-13.3,29.82-5.54l19.22,13.07c0.14-0.21-2.37-0.55-2.85-0.08
				c2.77-1.94,12.55-8.38,16.21-10.87c3.48-2,5.8-4.7,12.13-6.85c13.8-3.63,22.83,9.77,20.83,21c-0.51,19.36-0.96,40.97-2.18,60.59
				c-1.32,11.32-17.15,16.65-24.38,7.29c-5.59-6.94-1.9-17.78-2.2-25.41C477.99,429.69,478.04,420.48,479.46,411.48L479.46,411.48z
				 M479.46,411.48c0,8.87,1.21,18.17,1.48,27.26c0.82,5.2-0.62,17.88,3.29,21.23c4.21,3.98,11.37,1.61,11.75-4.46
				c-0.18-17.29-1.5-41.52-1.63-59.27c0.08-6.56-0.52-9.26-5.61-8.78c-1.34,0.28-4.99,3.26-8.27,5.39
				c-5.71,3.74-12.46,8.99-18.51,12.4c-2.32,1.32-7,0.69-8.56-0.54l-20.45-13.56c-5.34-3.38-5.15-4.44-8.61-2.65
				c-2.63,2.11-1.21,5.81-1.6,11.16l-0.05,12c-0.02,7.92-0.52,28.32-0.58,35.98c0.2,1.97-0.54,7.84,0.23,9.43
				c1.22,3.95,7.68,4.52,9.63,0.38c2.45-14.99,0.97-30.87,2.66-46.15l0.54-5.38l4.11,3.1c4.91,3.05,14.18,12.4,19.23,12.72
				C465.21,421.28,473.28,414.39,479.46,411.48L479.46,411.48z"/>
			<path class="st2" d="M616.02,423.34c-14.53-0.01-28.78,0.74-43.32,1.29c-6.92,0.15-12.18-7.32-11.93-13.85
				c-0.29-4.34-0.96-13.07-1.25-17.39c-1.43-7.31,4.99-16.88,12.92-17.37c26.32-2.24,51.98-1.96,78.26-0.76
				c3.12,0.18,5.16,0.15,9.34,0.76c7.9,0.57,14.21,10.44,12.59,17.64l-0.62,8.7c-0.8,5.67,0.32,13.32-3.81,18.15
				c-2.24,2.81-5.73,4.17-8.88,4.29C644.78,424.05,630.54,423.4,616.02,423.34L616.02,423.34z M616.02,423.34
				c11.5-0.1,23-0.28,34.5-0.89c5.7-0.26,12.02-0.13,14.23-4.47c2.33-3.71,0.56-9.87,0.48-15.65c-1.13-7.92,1.11-15.52-6.64-15.83
				c-25.6,1.58-51.28,1.77-76.89,0.41c-5.97-0.21-14.14-2.6-14.23,6.57c0.11,7.18-2.89,18.63-0.14,24.34
				c2.15,4.29,8.51,4.37,14.18,4.58C593.02,423.03,604.52,423.22,616.02,423.34L616.02,423.34z"/>
			<path class="st2" d="M458.53,486.78c17.37-0.02,34.47-0.88,51.85-2c7.42-0.67,14.26,4.96,14.46,12.68
				c0.29,5.93-3.53,11.77-9.13,13.92c-3.52,1.54-18.88,1.92-22.86,2.39c-28.89,1.48-57.52,1.23-86.41-1.19
				c-7.6-0.31-15.48-7.3-14.44-15.42c0.3-7.45,7.77-13.56,14.8-12.39C423.5,486.15,441.86,486.92,458.53,486.78L458.53,486.78z
				 M458.53,486.78c-16.63,0.24-35.05,0.96-51.72,2.29c-10.57-0.04-10.6,15.37-0.01,14.21c16.67-1.31,34.94-2.04,51.55-2.07
				c16.6,0.05,34.93,0.82,51.57,2.08c4.34,0.73,7.51-1.84,8.21-5.88c1.51-10.42-14.44-8.59-25.11-9.69
				C481.52,487.09,470.02,486.9,458.53,486.78L458.53,486.78z"/>
			<path class="st2" d="M647.76,444.54c4.2,0.15,9.54-0.96,13.74-0.39c15.99,3.04,12.88,27.26-3.81,27.7
				c-6.29,0.7-14.22,0.71-20.52,0.03c-8.52-0.23-15.81-9.24-14.03-16.97C625.49,441.74,638.42,444,647.76,444.54L647.76,444.54z
				 M647.76,444.54c-4.39,0.3-9.28-0.08-13.23,1.35c-7.37,2.81-5.67,13.69,1.18,13.67c1.6,0.04,3.44-0.44,5.09-0.43
				c3.33-0.24,10.02-0.23,13.35,0.01c2.34,0.11,4.64,0.59,5.27,0.5c6.78,0.34,8.76-10.83,1.54-13.7
				C657.06,444.38,652.14,444.87,647.76,444.54L647.76,444.54z"/>
			<path class="st2" d="M647.68,486.78c4.57,0.1,8.79-0.8,13.68-0.45c12.9,1.58,14.88,22.11,1.27,26.67
				c-7.89,2-14.2,1.43-21.77,1.27c-9.36,0.7-19.55-6.96-17.49-16.98c0.84-6,5.83-10.33,10.62-10.98
				C638.15,485.72,643.51,486.89,647.68,486.78L647.68,486.78z M647.68,486.78c-4.35,0.31-9.28-0.24-13.13,1.35
				c-7.1,2.81-5.49,13.87,1.25,13.59c1.72-0.26,9.33-0.76,11.86-0.75c2.97,0.05,9.04,0.41,11.96,0.8
				c6.52,0.35,8.51-10.93,1.23-13.63C656.93,486.68,652.04,487.09,647.68,486.78L647.68,486.78z"/>
			<path class="st2" d="M584.65,444.54c4.18,0.15,9.51-0.95,13.7-0.41c16,2.91,13.18,27.12-3.6,27.64
				c-8.05,0.62-17.45,1.28-25.28-1.1c-13.34-4.87-11.66-24.91,1.5-26.68C575.13,443.4,580.48,444.62,584.65,444.54L584.65,444.54z
				 M584.65,444.54c-4.35,0.28-9.3-0.33-13.16,1.27c-7.25,2.93-5.48,13.76,1.33,13.68c3.11-0.28,8.56-0.64,11.77-0.67
				c3.22,0.03,8.78,0.41,11.87,0.74c6.77,0.31,8.56-10.81,1.35-13.62C593.92,444.4,589.02,444.87,584.65,444.54L584.65,444.54z"/>
			<path class="st2" d="M584.58,486.78c9.28-0.58,22.29-2.71,24.35,10.47c1.13,5.79-2.35,13.25-9.26,15.71
				c-3.86,1.19-5.83,1.02-8.11,1.29c-7.62,0.15-13.88,0.8-21.84-1.25c-13.59-4.4-11.86-25.06,1.16-26.67
				C575.05,485.83,580.4,486.92,584.58,486.78L584.58,486.78z M584.58,486.78c-4.37,0.31-9.26-0.11-13.16,1.38
				c-7.22,2.82-5.31,13.87,1.35,13.57c6.57-0.91,16.88-0.91,23.81,0.02c6.56,0.32,8.48-10.96,1.18-13.63
				C593.83,486.7,588.95,487.08,584.58,486.78L584.58,486.78z"/>
			<path class="st2" d="M542.41,613.42c-12.64-0.69-24.17,2.49-36.7,0.83c-15.03-5.67-8.81-27.66,6.88-27.17
				c19.96-1.9,40.1-1.91,60.07-0.04c1.99,0.13,5.38,0.64,7.75,2.05c10.62,5.16,9.63,22.08-1.32,25.36
				C566.52,615.86,555.05,612.83,542.41,613.42L542.41,613.42z M542.41,613.42c11.23-0.63,24.65,0.53,35.09-2.73
				c2.87-1.67,4.06-4.84,3.62-7.7c-0.89-4.65-4.3-5.94-8.56-5.29c-19.91,1.87-40.05,1.86-59.96-0.04c-4.41-0.75-7.54,0.47-8.83,5.24
				c-1.19,8.13,7.84,9.55,14.64,9.57C526.4,613.11,534.4,613.31,542.41,613.42L542.41,613.42z"/>
		</g>
	</g>
</g>
</svg>
