<?xml version="1.0" encoding="utf-8"?>
<!-- Generator: Adobe Illustrator 27.5.0, SVG Export Plug-In . SVG Version: 6.00 Build 0)  -->
<svg version="1.1" id="Capa_1" xmlns="http://www.w3.org/2000/svg" xmlns:xlink="http://www.w3.org/1999/xlink" x="0px" y="0px"
	 viewBox="0 0 1080 1080" style="enable-background:new 0 0 1080 1080;" xml:space="preserve">
<style type="text/css">
	.st0{fill:url(#SVGID_1_);}
	.st1{fill:url(#SVGID_00000025438222357092314090000010114527155948731279_);}
</style>
<g>
	<g>
		<linearGradient id="SVGID_1_" gradientUnits="userSpaceOnUse" x1="540" y1="0" x2="540" y2="1080">
			<stop  offset="0" style="stop-color:#FFFFFF"/>
			<stop  offset="1" style="stop-color:#CACACA"/>
		</linearGradient>
		<path class="st0" d="M1057.52,1080H22.48C10.07,1080,0,1069.93,0,1057.52V22.48C0,10.07,10.07,0,22.48,0h1035.03
			c12.42,0,22.48,10.07,22.48,22.48v1035.03C1080,1069.93,1069.93,1080,1057.52,1080z"/>
	</g>
	<g>
		
			<linearGradient id="SVGID_00000029766313235414450020000002896801913942971325_" gradientUnits="userSpaceOnUse" x1="540" y1="1042.4111" x2="540" y2="37.5888">
			<stop  offset="0" style="stop-color:#FFFFFF"/>
			<stop  offset="1" style="stop-color:#CACACA"/>
		</linearGradient>
		<path style="fill:url(#SVGID_00000029766313235414450020000002896801913942971325_);" d="M1019.93,1042.41H60.07
			c-12.42,0-22.48-10.07-22.48-22.48V60.07c0-12.42,10.07-22.48,22.48-22.48h959.85c12.42,0,22.48,10.07,22.48,22.48v959.85
			C1042.41,1032.34,1032.34,1042.41,1019.93,1042.41z"/>
	</g>
</g>
</svg>
