<?xml version="1.0" encoding="utf-8"?>
<!-- Generator: Adobe Illustrator 27.5.0, SVG Export Plug-In . SVG Version: 6.00 Build 0)  -->
<svg version="1.1" id="Capa_1" xmlns="http://www.w3.org/2000/svg" xmlns:xlink="http://www.w3.org/1999/xlink" x="0px" y="0px"
	 viewBox="0 0 1080 1080" style="enable-background:new 0 0 1080 1080;" xml:space="preserve">
<style type="text/css">
	.st0{fill:url(#SVGID_1_);}
	.st1{fill:url(#SVGID_00000011000544606905572790000002221220515364510343_);}
	.st2{fill:#FFFFFF;}
</style>
<g>
	<g>
		<g>
			
				<linearGradient id="SVGID_1_" gradientUnits="userSpaceOnUse" x1="539.995" y1="1080" x2="539.995" y2="0" gradientTransform="matrix(1 0 0 -1 0 1080)">
				<stop  offset="0" style="stop-color:#B23C00"/>
				<stop  offset="1" style="stop-color:#D44F00"/>
			</linearGradient>
			<path class="st0" d="M1057.5,1080H22.5c-12.4,0-22.5-10.1-22.5-22.5V22.5C0,10.1,10.1,0,22.5,0h1035c12.4,0,22.5,10.1,22.5,22.5
				v1035C1080,1069.9,1069.9,1080,1057.5,1080z"/>
		</g>
		<g>
			
				<linearGradient id="SVGID_00000183965162094200962050000008097805998988979843_" gradientUnits="userSpaceOnUse" x1="539.995" y1="37.59" x2="539.995" y2="1042.41" gradientTransform="matrix(1 0 0 -1 0 1080)">
				<stop  offset="0" style="stop-color:#B23C00"/>
				<stop  offset="1" style="stop-color:#D44F00"/>
			</linearGradient>
			<path style="fill:url(#SVGID_00000183965162094200962050000008097805998988979843_);" d="M1019.9,1042.4H60.1
				c-12.4,0-22.5-10.1-22.5-22.5V60.1c0-12.4,10.1-22.5,22.5-22.5h959.8c12.4,0,22.5,10.1,22.5,22.5v959.8
				C1042.4,1032.3,1032.3,1042.4,1019.9,1042.4z"/>
		</g>
	</g>
	<g>
		<g>
			<g>
				<g>
					<g>
						<path class="st2" d="M381.8,424.7c-1.1,0-2.2-0.5-2.9-1.4c-0.4-0.5-0.9-1.4-0.6-2.5c0.2-5.7,0.2-34.5,0.2-57.6
							c0-13.8,0-25.7,0-29.5c0-6.1,0-18,0-29.6c0-9.1,0-17.9,0-23.4c0,6.3,0,16.8,0,27.2c0,10.2,0,20.3,0,25.8c0,2.7,0,26.4,0,47.6
							c0,18.2,0,34,0,34.7c0,0.9,0,1.8,0,2.7c-0.1,2.2-0.2,4,0.7,4.9c0.4,0.4,0.8,0.6,1.4,0.6c0.3,0.1,0.8,0.1,1.2,0.1
							c0.9,0,1.6-0.3,2.2-0.9c0.9-1,1-2.6,0.9-4.7l0-9.1c0-15.4,0-47.2,0-74.2v-54.4c-0.2-7.3,0.1-13.9,6.1-15
							c7.9-0.4,20.2-0.6,38.5-0.6c10.6,0,21.9,0.1,32.5,0.1c9.6,0,18.7,0.1,26.4,0.1c4.4,0,8.4,0,11.7-0.1c1.9,0,3.9,0,5.9,0
							c2.4,0,11.7-0.1,14-0.1c4.5,0,10.4,0.1,16.6,0.5c0.8,0.1,1.6,0.4,2.3,0.9c-0.7-0.4-1.6-0.7-2.6-0.9c-4.4-0.3-9.1-0.5-15.4-0.5
							c-2.6,0-13.2,0.1-15.8,0.1c-1.7,0-3.3,0-5,0c-4.5,0.1-10,0.1-16.3,0.1c-6.9,0-14.7,0-22.8,0c-8.8,0-18-0.1-26.9-0.1
							c-20.8,0-34.5,0.2-42.9,0.6c-6.3,1.1-6.2,8-6.2,13.4l0,20.2l0,37.7c0,26.4,0,56.9,0,72c-0.1,1.1,0,2.9,0,4.7
							c0.1,3.3,0.3,7.4-0.7,9C383.6,424.5,382.5,424.7,381.8,424.7z M543.1,281.4c0-0.5,0-0.9,0-1.4c0.1,3.5,0,7.4,0,10.8
							L543.1,281.4z M378.4,278.4c-0.2-3.6,0.2-6.7,1.2-9.3C378.8,271.6,378.4,274.7,378.4,278.4z M542.7,273.1
							c-0.4-1.8-1-3.4-2.1-4.7c1,1,1.8,2.4,2,3.7C542.6,272.5,542.7,272.8,542.7,273.1z M389.8,260.1c2.3-0.6,5-1,7.9-1
							c0.1,0,0.2,0,0.3,0C395.2,259.2,392.4,259.5,389.8,260.1z M414.9,259.3h2.5c-0.4,0-0.8,0-1.1,0
							C415.8,259.3,415.3,259.3,414.9,259.3z"/>
						<path class="st2" d="M381.8,425.5c-1.3,0-2.7-0.6-3.5-1.7c-0.5-0.6-1.1-1.7-0.8-3.1c0.2-5.7,0.2-35.6,0.2-57.4v-0.9
							c0-13.4,0-24.9,0-28.7c0-5.4,0-15.2,0-25.3v-4.2c0-9.1,0-17.9,0-23.4h1.5c0,6.3,0,16.8,0,27.2c0,10.2,0,20.3,0,25.8
							c0,2.7,0,27.4,0,47.6v9.8c0,13.6,0,24.3,0,24.8c0,0.9,0,1.8,0,2.7c-0.1,2-0.2,3.7,0.5,4.4c0.2,0.2,0.5,0.4,0.9,0.4l0.2,0
							c0.2,0.1,0.6,0.1,1,0.1c0.7,0,1.2-0.2,1.6-0.6c0.8-0.8,0.8-2.2,0.7-4.2l0-9.2c0-13.5,0-39.8,0-64.2v-64.3
							c-0.2-7.3,0.2-14.5,6.7-15.8c8.1-0.4,20.8-0.6,38.7-0.6c10.6,0,21.9,0.1,32.5,0.1l3,0c13.8,0.1,26.5,0.1,35.2,0
							c2,0,3.9,0,5.9,0c1.2,0,4.1,0,7,0c2.9,0,5.8,0,7,0c4.5,0,10.5,0.1,16.7,0.5c0.9,0.1,1.8,0.5,2.6,1l-0.8,1.3
							c-0.7-0.4-1.5-0.6-2.3-0.8c-4.2-0.3-8.8-0.4-15.3-0.4c-1.3,0-4.6,0-7.9,0c-3.3,0-6.6,0-7.9,0c-1.7,0-3.3,0-5,0
							c-8.1,0.1-20,0.1-33,0l-7.3,0c-8.4,0-17.1,0-25.5,0c-20.8,0-34.4,0.2-42.8,0.6c-5.6,1-5.5,7.2-5.5,12.7l0,20.2l0,37.7
							c0,26.4,0,56.9,0,72c-0.1,1.2,0,3,0,4.7c0.1,3.6,0.3,7.6-0.8,9.4C383.9,425.3,382.5,425.5,381.8,425.5z M543.8,290.8l-1.5,0
							l0-9.4c0-0.5,0-0.9,0-1.4h1.5C544,283.3,543.9,287.1,543.8,290.8z M377.7,278.5c-0.2-3.7,0.2-6.9,1.2-9.6l1.4,0.5
							c-0.8,2.5-1.2,5.5-1.1,9.1L377.7,278.5z M542,273.3c-0.4-1.9-1-3.3-2-4.3l1.1-1c1.2,1.2,1.9,2.7,2.2,4.1c0,0.3,0.1,0.6,0.2,1
							L542,273.3z M390,260.8l-0.4-1.4c2.4-0.6,5.1-1,8.1-1h0.3l0,1.5C394.8,260,392.2,260.3,390,260.8z M416.2,260
							c-0.4,0-0.9,0-1.3,0l0-1.5h2.5l0,1.5C417,260,416.6,260,416.2,260z"/>
					</g>
					<g>
						<path class="st2" d="M397.8,257.8c-13,0-21.5,6.1-20.6,21c-0.1,11.2,0,43.4,0,54.9c-0.1,10.2,0.1,78.1-0.2,86.8
							c-0.6,3,2,5.4,4.8,5.4c1.3,0,2.7-0.6,3.8-1.9c1.7-2.9,0.5-10.8,0.9-14.4c0-23.7,0-85.1,0-109.7l0-18.3c0-5.9-0.8-13.1,5-14.1
							c9.8-0.5,25.7-0.6,42.8-0.6c17.1,0,35.3,0.1,49.7,0.1c6.2,0,11.8,0,16.2-0.1c1.6,0,3.3,0,5,0c5.3,0,10.6-0.1,15.9-0.1
							c5.2,0,10.3,0.1,15.2,0.4c6,1,5.9,7.9,5.7,13.9l0,18.3c0.1,90.2,0.2,239.1,0.3,329.1c0.5,10.3-0.1,16.8-10.1,16.8
							c-0.8,0-1.8,0-2.7-0.1c-4.6,0.1-9.5,0.2-14.6,0.2c-14.7,0-31-0.3-45-0.3c-8,0-15.4,0.1-21.2,0.5c33-19,27.2-57.5,27.3-90
							l0-49.5c-0.5-7.3,1.6-18.1-2.4-24.7c-2.8-5.2-8.2-7.4-13.8-7.4c-2.8,0-5.6,0.6-8,1.5c0,0.3,0,0.6,0.1,0.9l-0.8-0.5
							c0.2-0.1,0.5-0.2,0.7-0.3c-0.8-9.7,0.5-19.4-0.9-29.1c-1.6-8.2-8.6-12.3-16-12.3c-2.7,0-5.4,0.5-7.9,1.6
							c0,0.2,0.1,0.5,0.1,0.7l-0.7-0.5c0.2-0.1,0.4-0.2,0.6-0.2c-0.8-4.1-1.9-8.4-4.2-12.1c-3.1-4-7.2-5.8-11.5-5.8
							c-8.5,0-17.2,7.3-17.1,17.8c0.2,0,0.4,0.1,0.5,0.1l-0.5,0.5c0-0.2,0-0.4,0-0.6c-2.7-0.6-5.8-1.3-8.9-1.3
							c-3.1,0-6.2,0.7-8.9,2.7c-5.4,4.1-6.6,11.3-6.3,17.4l0,37.7l0,37.7c0.1,6.3,0,22.2-0.3,28.2c-0.2,3.2-0.9,5.7-3,8.1
							c0.1,0.1,0.2,0.2,0.4,0.2l-0.6,0c0.1-0.1,0.2-0.2,0.2-0.3c-3.5-2.4-3.8-6.7-5.3-10.4c-2.6-6.8-4.9-17-7.3-24
							c-1.8-7.5-8.2-11.4-14.6-11.4c-5.8,0-11.6,3.2-14,9.8c-2.5,6.8,2.6,17.7,3.8,24.7c19.1,89.2,35.3,98.7,100.2,98.7
							c11.4,0,24.3-0.3,39-0.5l49.9,0c2.9,0.1,5.7,0.2,8.2,0.2c15.5,0,22.9-2.6,22.9-20.7c0,18-7.5,20.6-22.6,20.6
							c-2.6,0-5.4-0.1-8.4-0.2c0,0-49.9,0-49.9,0c-14.2,0.2-26.7,0.4-37.8,0.4c-65.8,0-81.9-9.1-100.9-98.5
							c-1-6.8-6.2-17.8-3.7-24.3c2-5.7,7.9-9.5,13.8-9.5c2.2,0,4.4,0.5,6.3,1.7c7.8,4.1,8,13.9,10.8,21.5c2.9,7.1,3.5,18,9.5,22.9
							l0.4,0.2l0,0c4.5-5,3.8-12.2,3.9-18.5l0-18.8c0-18.8,0.1-56.6,0.1-75.4c-0.8-12.3,5.5-19.2,15.2-19.2c2.6,0,5.5,0.5,8.5,1.5
							c0.2,0,0.3,0.1,0.4,0.1c0.1,0,0.1-0.1,0.1-0.6c-0.4-10.5,7.9-17.4,16-17.4c3.9,0,7.8,1.6,10.5,5.3c2.5,3.8,3.4,8.5,4.3,13
							l0.6-0.2c3.8-1.2,7-1.8,9.7-1.8c18.1,0,13,25.5,14.2,41.2l0.1,0.8l0.7-0.2l0,0c2.8-1.3,5.6-1.9,8.2-1.9
							c9.2,0,16.4,7.5,15,18.5l0,12.4l0,49.5c-0.2,32.3,5.5,70.2-26.8,88.6c-0.5,0.6-1,1.7-1.3,2.5c13,0.4,25.9,0.5,38.8,0.5
							c9.7,0,19.5,0,29.2,0c5,0,10.1,0,15.1,0c0.3,0,0.6,0,0.9,0c0.8,0,1.6,0,2.4,0c2,0,4.1-0.1,6.1-1.1c6.6-3.3,5.1-11.4,5.3-17.4
							l0-36.6c0.1-72.9,0.2-219.6,0.3-292.6c-0.2-6.3,0.6-21.7-0.5-27.7c-0.6-3.4-3.7-6.5-7-7c-5.7-0.4-11.3-0.5-16.7-0.5
							c-4.7,0-9.3,0.1-14,0.1c-2,0-3.9,0-5.9,0c-3.4,0-7.4,0.1-11.8,0.1c-16.4,0-38.7-0.2-58.9-0.2c-15.4,0-29.5,0.1-38.8,0.6
							c-7.8,1.5-7.3,10.9-7.1,16.9l-0.1,18.3c0,24.2,0,86.2,0,109.7l0,9.2c0.2,2.9-0.1,4.2-1.8,4.2c-0.3,0-0.7,0-1.1-0.2
							c-1.5,0-0.7-4-0.8-7c0-1.5,0-77.4-0.1-82.3c0-11.7,0-43.7,0-54.9c-0.1-5.9,0.7-12.2,5.3-15.5c3.5-2.6,10.2-3.1,17.1-3.1
							c4.9,0,10,0.3,14,0.3c1.5,0,2.8,0,3.9-0.1c23.3-0.1,85.1-0.1,109.1-0.2c0.8,0,1.5-0.1,2.2-0.1c5.2,0,10.3,1.2,13.5,5.2
							c4.2,4.6,3.4,10.8,3.4,16.7c0.1,12.8-0.4,25.5,0.3,38.3c6.9-4.4,14.6-5.2,22.6-5.2c5.2,0,10.6,0.4,15.8,0.4
							c1.6,0,3.2,0,4.8-0.1c21.5-0.1,64.6-0.1,86.1-0.2c1.6,0,3.2,0.1,5,0.1c6.1,0,13.2-0.3,20-0.3c6.5,0,12.8,0.2,17.7,1.2
							c14.3,3.1,22.9,17.6,21.3,32l0,43.3c0,62.3,0.2,154.2,0.2,216.3c2.1,23-4,44.5-30.1,44.5c-0.5,0-1,0-1.6,0l-21.5,0
							c-0.8,0-1.6,0-2.4,0c-32.5,0-74.4,0.2-107.9,0.2c-2.8,0-5.4,0-8.1,0c-0.7,0-1.5,0.1-2.3,0.1c-2.8,0-5.7-0.5-5.9-3.7
							c0.8-2,2.6-2.3,4.7-2.3c1.3,0,2.8,0.2,4.1,0.2c0.4,0,0.9,0,1.3-0.1c2,0,4.7,0,7.8,0c5.1,0,11.2,0,16.6,0c4,0,7.7,0,10.2,0
							c1.8,0,3.8,0,6,0c21,0,54.1-0.1,76.4-0.1c3.6,0,6.9,0,9.8,0c1-0.1,2.1-0.1,3.2-0.1c2.6,0,5.3,0.1,7.9,0.1c4,0,8-0.3,11.8-1.8
							c7.3-2.9,12.9-9.9,13.7-17.8c-0.1,0-116,0.2-165.2,0.3c28.1,0,78.1,0.1,115.7,0.1c27.8,0,48.7-0.1,49.1-0.3v0c0,0,0,0,0,0
							c-0.9,7.7-6.4,14.4-13.5,17.2c-3.7,1.5-7.6,1.8-11.5,1.8c-2.7,0-5.5-0.2-8.2-0.2c-1,0-2,0-3,0.1c-1.8,0-3.7,0-5.8,0
							c-20.9,0-54.4-0.1-76.7-0.1c-3.5,0-6.8,0-9.7,0c-2.1,0-4.5,0-7.1,0c-5.7,0-12.3,0-18.6,0c-5.5,0-10.7,0-14.7-0.1
							c-0.2,0-0.4,0-0.6,0c-4.8,0-6.2,5.5-1,7.3c2.4,0.1,6.6,0.2,10.3,0.2c2.2,0,4.4,0,5.9,0c7.4,0,15.6,0,24.3,0
							c17,0,35.6,0,52.9,0c10.9,0,21.2,0,30.4,0c0,0,20.3,0,21.5,0c0,0,0,0,0,0c0.6,0,1.2,0,1.8,0c26.7,0,33.1-22.2,31-45.5
							c0.2-62.2,0-153.9,0.3-216.3l0-43.3c1.8-14.7-7.6-30.5-22.6-33.7c-5.2-1-11.5-1.3-18-1.3c-6.6,0-13.3,0.3-19.3,0.3
							c-2.1,0-4,0-5.9-0.1c-3.6,0-7.8,0-12.4,0c-16.8,0-39,0-56.7,0c-6.4,0-12.2,0-17,0c-1.4,0.1-2.8,0.1-4.1,0.1
							c-5.4,0-11-0.4-16.5-0.4c-7.1,0-14.2,0.7-20.7,3.9c0,0.5,0,1,0.1,1.6l-1.5-0.8c0.5-0.3,1-0.5,1.5-0.8
							c-0.5-14.6,0.3-29.4-0.2-44.2c-0.7-9.5-10-15-18.6-15c-0.9,0-1.8,0.1-2.6,0.2c-23.8,0-86.1,0-109.1,0H402
							C400.5,257.9,399.1,257.8,397.8,257.8L397.8,257.8z M560.5,627.2c-7.1,0-11.2,0-11.2,0c0,0,8.4,0,21.6,0
							C566.9,627.2,563.5,627.2,560.5,627.2L560.5,627.2z M549.2,627.2c0.1,1.9,0.2,3.6,0.2,5.3
							C549.4,630.8,549.4,629.1,549.2,627.2L549.2,627.2z"/>
						<path class="st2" d="M429.5,654.2c-64.6,0-81.7-9.2-100.9-99.2c-0.4-2.1-1.1-4.6-1.8-7.2c-1.8-6-3.7-12.8-1.9-17.8
							c2.3-6.3,8-10.2,14.7-10.2c6.2,0,13.3,3.7,15.4,12c1.1,3.1,2.1,6.8,3.2,10.7c1.3,4.7,2.6,9.5,4.1,13.2
							c0.4,1.1,0.8,2.2,1.1,3.2c0.8,2.5,1.5,4.8,3.4,6.4c1.5-2,2.2-4.1,2.4-7.2c0.3-5.8,0.4-21.5,0.3-28.1l-0.1-75.4
							c-0.2-5.7,0.8-13.5,6.6-18c2.5-1.9,5.5-2.9,9.3-2.9c2.8,0,5.7,0.5,8.2,1.1c0.2-4.6,2-8.9,5.2-12.2c3.4-3.5,8-5.4,12.5-5.4
							c4.8,0,9,2.2,12,6.1c2.3,3.6,3.4,7.6,4.2,11.5c2.4-0.9,4.9-1.3,7.4-1.3c8.6,0,15.2,5.1,16.7,12.9c0.8,5.5,0.7,11.1,0.6,16.4
							c-0.1,3.9-0.1,7.9,0.2,11.8c2.4-0.8,4.9-1.3,7.4-1.3c6.5,0,11.7,2.9,14.4,7.8c2.9,4.8,2.7,11.8,2.5,17.9c-0.1,2.5-0.1,4.9,0,7
							l0,49.6c0,4.2,0.1,8.7,0.2,13c0.6,29.1,1.2,59.1-25.3,76.2c4.8-0.2,10.7-0.3,18.4-0.3c7,0,14.5,0.1,22,0.2
							c13.2,0.1,27.2,0.3,37.6,0c1,0.1,1.9,0.1,2.8,0.1c3.3,0,5.6-0.7,7-2.2c2.5-2.7,2.5-7.8,2.3-13.8c0-48.5-0.1-113.9-0.2-178.1
							c0-55.1-0.1-109.3-0.1-151l0-18.3c0.2-6.7,0-12.3-5.1-13.1c-5.3-0.4-10.8-0.4-15.1-0.4c-2.6,0-5.3,0-7.9,0
							c-4.3,0-8.7,0.1-12.9,0c-9.3,0.1-23.6,0.1-39,0c-8.8,0-18-0.1-26.9-0.1c-20.8,0-34.4,0.2-42.8,0.6c-4.4,0.8-4.3,6.2-4.3,11.4
							c0,0.6,0,1.3,0,1.9l0,18.3c0,8.5,0,21.3,0,35.4c0,27,0,58.7,0,74.3c-0.1,1.2,0,2.9,0,4.6c0.1,3.7,0.3,8-1,10.1
							c-1.2,1.5-2.8,2.2-4.4,2.2c-1.7,0-3.4-0.8-4.5-2.1c-1-1.2-1.4-2.7-1.1-4.2c0.2-5.3,0.2-33.8,0.1-56.7c0-14,0-26.1,0-30
							c0-6.1,0-18.3,0-30c0-10,0-19.7,0-24.9c-0.4-6.9,1.1-12.2,4.5-15.9c3.6-3.9,9.3-5.9,16.8-5.9c0.9,0,1.9,0,2.9,0.1l1.3,0h18.2
							c23,0,85.3,0,109.1,0c0.8-0.1,1.7-0.2,2.6-0.2c8.8,0,18.6,5.5,19.3,15.6c0.2,7.2,0.1,14.5,0.1,21.5
							c-0.1,7.1-0.2,14.4,0.1,21.6c6.8-3.1,13.9-3.5,20-3.5c2.8,0,5.6,0.1,8.3,0.2c4.1,0.1,8.2,0.3,12.3,0.1c11.5,0,28.9,0,46.1,0
							c15.2,0,30,0,40,0c1.7,0.1,3.6,0.1,5.9,0.1c2.9,0,6-0.1,9.2-0.1c3.3-0.1,6.8-0.1,10.1-0.1c8,0,13.6,0.4,18.1,1.3
							c14.7,3.1,25,18.6,23.2,34.5l0,43.2c-0.1,33.1-0.2,74.8-0.2,115.1c0,35.4,0,72-0.1,101.2c1,11.5,0.4,27.3-8.7,37.2
							c-5.4,6-13.2,9-23.1,9c-0.6,0-1.2,0-1.8,0l-21.5,0c-16.5-0.1-36.9,0-57.1,0c-18,0-35.8,0-50.5,0c-1.5,0-3.6,0-5.9,0
							c-2.6,0-7.5,0-10.3-0.2l-0.2,0c-3.2-1.1-4.1-3.4-3.8-5.1c0.4-2.3,2.7-4,5.7-3.6c4.3,0.1,10.1,0.1,14.6,0.1c3.2,0,6.5,0,9.7,0
							c5.9,0,11.6,0,16,0c12.1,0,30.9,0,49.2,0c13.5,0,26.8,0,37.2,0h5.8c2.3-0.1,4.7-0.1,7.2,0c1.4,0,2.7,0.1,4.1,0.1
							c3.4,0,7.5-0.2,11.3-1.7c6.7-2.6,11.7-8.9,12.9-15.7c-2.8,0.1-12.5,0.2-48.3,0.2c-25.7,0-57.1,0-83.4-0.1l-32.2,0v0.1l-20.8,0
							c0.1,1.6,0.1,3.1,0.1,4.5l0,0c0,9.1-1.8,14.5-5.9,17.7c-4,3.1-10,3.7-17.7,3.7c-2.5,0-5.2-0.1-8.2-0.2l-49.9,0
							c-4.4,0.1-8.7,0.1-12.8,0.2C446.3,654.1,437.5,654.2,429.5,654.2z M339.9,521.6c-5.7,0-11.2,3.8-13.1,9
							c-1.6,4.3,0.2,10.8,1.9,16.5c0.8,2.7,1.5,5.2,1.9,7.4c19,89.5,34.8,97.9,100.2,97.9c7.7,0,16.2-0.1,25.2-0.2
							c4-0.1,8.2-0.1,12.6-0.2l0.6,0v0c5.4,0,48.9,0,49.4,0c3.1,0.1,5.9,0.2,8.4,0.2c7.3,0,12.9-0.6,16.5-3.4
							c3.7-2.8,5.3-7.9,5.3-16.4l0,0c0-1.4,0-2.9-0.1-4.5H548l0.5-1.1c0.1-0.2,0.1-0.3,0.7-0.3v-0.1h1.4c1.6,0,4.5,0,9.8,0l10.4,0
							v-0.1c47.9-0.1,165-0.3,165.2-0.3h0.8l-0.1,0.8c-0.8,8-6.5,15.3-14.2,18.4c-4.2,1.7-8.5,1.9-12.1,1.9c-1.3,0-2.6,0-4-0.1
							c-2.4-0.1-4.7-0.1-7.1,0c-12.4,0-31,0-49.3,0c-13.5,0-26.7,0-37,0h-6c-2.5,0-6.1,0-10.2,0l-16.6,0c-3.1,0-5.9,0-7.8,0
							c-0.9,0.1-2.2,0-3.4,0c-0.7,0-1.3-0.1-2-0.1c-2.2,0-3.4,0.5-4,1.7c0.2,2,1.8,2.8,5.2,2.8c0.7,0,1.4,0,2-0.1l0.2,0h8.1
							c16.8,0,35.8,0,54.7-0.1c18.6,0,37.1-0.1,53.2-0.1l23.9,0c0.5,0,1.1,0,1.6,0c9.3,0,16.5-2.8,21.5-8.3
							c8.4-9.2,8.9-24.3,7.9-35.4c0-33,0-74.7-0.1-115c0-36.2-0.1-72-0.1-101.4l0-43.3c1.6-14.7-7.5-28.4-20.8-31.3
							c-4.2-0.8-9.8-1.1-17.6-1.1c-3.5,0-7.1,0.1-10.5,0.1c-5.2,0.1-10.3,0.2-14.5,0c-11.5,0.1-29.1,0.1-46.3,0.1
							c-15,0-29.7,0-39.8,0.1c-4,0.2-8.5,0.1-12.8-0.1c-2.6-0.1-5.3-0.2-7.9-0.2c-6.2,0-13.4,0.5-19.8,3.8l0,0.2l-0.2-0.1
							c-0.8,0.4-1.5,0.8-2.2,1.3l-1.1,0.7l-0.1-1.3c0-0.9-0.1-1.7-0.1-2.6l-0.2-0.1l0.2-0.1c-0.3-7.6-0.2-15.2-0.2-22.6
							c0-4.3,0.1-8.6,0-12.9c0-0.8,0-1.6,0-2.4c0.1-5.2,0.2-10-3.3-13.8c-2.7-3.3-7.1-5-13-5c-0.7,0-1.5,0-2.2,0.1
							c-13,0-37.1,0.1-60.1,0.1c-19.5,0-38.4,0.1-49,0.1c-2.3,0.2-6.2,0.1-10.2,0c-2.5-0.1-5.1-0.1-7.7-0.1c-5.4,0-13.1,0.3-16.7,3
							c-3.6,2.5-5.2,7.4-5,14.9c0,6,0,17.9,0,29.5c0,10.1,0,20,0,25.4c0,2.6,0,25.8,0,46.2c0,18.2,0,35.4,0,36c0,0.9,0,1.9,0,2.8
							c0,1.2-0.1,3.2,0.2,3.5c1.4,0.3,1.7,0.1,1.8-0.1c0.5-0.5,0.4-2.1,0.3-3.2l0-9.2c0-15.6,0-48,0-75.2c0-13.8,0-26.3,0-34.5
							l0-18.3l0-0.5c-0.2-6.2-0.4-15.5,7.7-17.1c8.2-0.4,20.6-0.6,38.9-0.6c10.6,0,21.9,0.1,32.5,0.1c15,0.1,28.9,0.2,38.2,0
							c4.4,0.1,8.6,0,12.9,0c2.3,0,4.7,0,7,0c4.5,0,10.5,0.1,16.8,0.5c3.7,0.6,7.1,3.9,7.7,7.6c0.8,4,0.7,12.1,0.6,19.1
							c0,3.4-0.1,6.6,0,8.7c0,39.4-0.1,100.2-0.2,159.3c0,50.5-0.1,99.7-0.1,133.3l0,36.6c0,1,0,2.1,0,3.2
							c0.1,5.6,0.2,11.9-5.7,14.8c-2.2,1.1-4.4,1.2-6.4,1.2l-2.4,0l-0.8,0c-9.9-0.1-19.8,0-29.7,0c-4.9,0-9.7,0-14.6,0
							c-11.4,0-24.9-0.1-38.8-0.5l-1.1,0l0.4-0.8l-0.1,0l0.2-0.2l0.1-0.3c0.3-0.8,0.7-1.7,1.3-2.3l0.2-0.1
							c27.6-15.8,27.1-45.8,26.5-74.8c-0.1-4.4-0.2-8.9-0.1-13.2l0.1-61.9c0.6-5.2-0.6-9.8-3.5-13.1c-4.1-4.6-11.1-6-17.7-3.3l0,0.5
							l-0.5-0.4c-0.2,0.1-0.3,0.1-0.5,0.2l-1.7,0.6l-0.2-1.7c0-0.2,0-0.5,0-0.7l-0.3-0.2l0.3-0.1c-0.2-3.2-0.2-6.6-0.1-10.2
							c0.1-10.4,0.2-21.1-4.9-26.3c-3.4-3.5-8.8-4-16.7-1.7l0.1,0.5l-0.6-0.4c-0.2,0.1-0.4,0.1-0.6,0.2l-1.4,0.5l-0.2-0.8
							c-0.1-0.5-0.2-0.9-0.3-1.4l-0.2-0.1l0.2-0.1c-0.7-3.6-1.8-7.8-3.9-11.1c-2.4-3.2-6-5-9.9-5c-4,0-8,1.8-10.9,4.8
							c-2.8,2.9-4.3,6.7-4.4,10.9l0.2,0.1l-0.2,0.2c0,0.2,0,0.5,0,0.7l0,0.3c0,0.8-0.5,1-0.9,1c-0.2,0-0.3,0-0.5-0.1
							c-0.2-0.1-0.4-0.1-0.6-0.2l-0.5,0.5l0-0.7c-7.8-2.2-13.9-1.1-17.7,3c-3,3.2-4.4,8.1-4,14.3c0,10,0,25.2,0,40.1
							c0,13.4,0,26.5,0,35.3l0,18.8c0,0.8,0,1.7,0,2.6c0,5.1,0,10.8-3,15.2l0.9,0.5l-1.4,0.1c-0.2,0.2-0.3,0.4-0.5,0.6l-0.4,0.5
							l-0.9-0.6c-0.1-0.1-0.2-0.2-0.3-0.3l-1.1,0.1l0.6-0.6c-3.8-3.7-5.2-9.4-6.7-15c-0.7-2.7-1.4-5.2-2.2-7.5
							c-0.7-2-1.3-4.1-1.8-6.2c-1.5-5.9-3.1-12.1-8.6-15C344.1,522.2,342,521.6,339.9,521.6z M530.2,646.5l2.4,0
							c1.9,0,3.9-0.1,5.8-1c5-2.5,5-8,4.9-13.4c0-1.1,0-2.2,0-3.3l0-36.5c0-33.6,0.1-82.8,0.1-133.3c0-59.1,0.1-119.9,0.2-159.3
							c-0.1-2.1,0-5.3,0-8.7c0.1-6.7,0.2-15-0.5-18.9c-0.5-3-3.4-5.9-6.4-6.4c-6.2-0.5-12.1-0.5-16.6-0.5c-2.3,0-4.7,0-7,0
							c-4.3,0-8.6,0.1-12.9,0c-9.3,0.1-23.2,0-38.2,0c-10.6-0.1-21.9-0.1-32.5-0.1c-18.3,0-30.6,0.2-38.7,0.6
							c-6.8,1.3-6.6,9.6-6.4,15.6l0,0.5l0,18.3c0,8.2,0,20.6,0,34.5c0,27.2,0,59.6,0,75.2l0,9.2c0.1,1.9,0.1,3.4-0.7,4.3
							c-0.6,0.7-1.6,0.9-3.1,0.5c-0.2,0-0.6-0.1-0.9-0.4c-0.8-0.8-0.7-2.5-0.6-4.6c0-0.9,0.1-1.8,0-2.7c0-0.7,0-17.1,0-36.1
							c0-20.5,0-43.6,0-46.2c0-5.5,0-15.3,0-25.4c0-11.6,0-23.5,0-29.4c-0.2-8,1.6-13.3,5.6-16.1c3.9-2.9,11.5-3.2,17.6-3.2
							c2.6,0,5.2,0.1,7.7,0.1c4,0.1,7.8,0.2,10.1,0c10.7,0,29.5-0.1,49.1-0.1c23,0,47.1-0.1,60.1-0.1c0.7,0,1.5-0.1,2.2-0.1
							c6.4,0,11.1,1.9,14.1,5.5c3.8,4.2,3.7,9.6,3.6,14.8c0,0.8,0,1.5,0,2.3c0,4.3,0,8.6,0,12.9c-0.1,7.1-0.1,14.5,0.2,21.8
							c0.2-0.1,0.4-0.2,0.6-0.3v0c-0.3-7.4-0.2-15-0.1-22.3c0.1-7,0.2-14.2-0.1-21.4c-0.7-9.2-9.7-14.2-17.9-14.2
							c-0.8,0-1.7,0.1-2.5,0.2c-24,0-86.2,0-109.2,0l-19.5,0c-1,0-1.9-0.1-2.9-0.1c-7.1,0-12.3,1.8-15.7,5.4
							c-3.2,3.4-4.6,8.4-4.1,14.9c0,5.2,0,14.9,0,24.9c0,11.7,0,23.8,0,30c0,3.9,0,16,0,30c0,22.9,0,51.4-0.2,56.9
							c-0.2,1.2,0,2.2,0.8,3.1c0.8,1,2.1,1.6,3.4,1.6c0.9,0,2.1-0.3,3.2-1.6c1-1.7,0.8-5.8,0.7-9.2c-0.1-1.8-0.1-3.5,0-4.8
							c0-15.5,0-47.3,0-74.2c0-14.1,0-27,0-35.4l0-18.3c0-0.6,0-1.3,0-1.9c-0.1-5.6-0.1-11.9,5.6-12.9c8.5-0.4,22.1-0.6,42.9-0.6
							c8.9,0,18.1,0,26.9,0.1c15.4,0,29.7,0.1,39,0c4.3,0.1,8.6,0,12.9,0c2.7,0,5.3,0,8,0c4.3,0,9.8,0,15.3,0.4
							c6.8,1.1,6.5,8.9,6.4,14.6l0,18.3c0,41.7,0.1,95.9,0.1,151c0.1,64.2,0.1,129.7,0.2,178.1c0.3,6.3,0.3,11.7-2.7,14.8
							c-2.1,2.2-5.6,3.1-10.9,2.6c-10.2,0.2-24.4,0.1-37.5,0c-7.6-0.1-15.1-0.2-22-0.2c-6.4,0-11.6,0.1-15.9,0.2
							c11.2,0.2,21.9,0.3,31.2,0.3c4.9,0,9.7,0,14.6,0c9.9,0,19.8,0,29.7,0L530.2,646.5z M448.1,644.9c-0.1,0.1-0.2,0.2-0.2,0.4
							l0.3-0.2c28.3-16.3,27.7-46.8,27.1-76.4c-0.1-4.1-0.2-8.4-0.2-12.5c0,4.2,0.1,8.5,0.1,12.7
							C475.8,598.2,476.3,628.6,448.1,644.9z M475.2,493.8C475.2,493.8,475.2,493.8,475.2,493.8v1.4
							C475.2,494.8,475.2,494.3,475.2,493.8z M469.1,477.6c0.7,0.6,1.4,1.2,2.1,1.9C470.5,478.8,469.8,478.2,469.1,477.6z
							 M448.2,441.8c1.1,2.2,1.8,4.9,2.2,7.8c-0.1-1-0.2-2-0.4-3C449.6,444.8,449,443.2,448.2,441.8z M703,314.2
							c7.9,0,13.6,0.4,17.9,1.2c14,3.1,23.6,17.5,21.9,32.8l0,43.2c0,7.5,0,15.5,0,23.8c0-8.3,0-16.3,0.1-23.8l0-43.3
							c1.8-15.2-8-30-22-32.9c-4.4-0.9-9.9-1.2-17.8-1.2c-3.4,0-6.8,0.1-10.1,0.1c-3.2,0.1-6.3,0.1-9.2,0.1c-2.3,0-4.2,0-5.9-0.1
							c-9.9,0-24.8,0-40,0c-17.2,0-34.7,0-46,0c-4,0.2-8.3,0-12.4-0.1c-2.7-0.1-5.5-0.2-8.2-0.2c-6.1,0-13.2,0.4-20,3.6v0
							c0,0.2,0,0.4,0,0.6c6.6-3.2,13.7-3.6,20-3.6c2.6,0,5.3,0.1,7.9,0.2c4.2,0.1,8.6,0.3,12.7,0.1c10,0,24.8-0.1,39.8-0.1
							c17.2,0,34.8,0,46.3-0.1c4.3,0.1,9.2,0,14.5,0C696,314.3,699.5,314.2,703,314.2z M549.4,318.6c0,0.1,0,0.3,0,0.4
							c0.1-0.1,0.2-0.1,0.4-0.2L549.4,318.6z"/>
					</g>
				</g>
				<g>
					<g>
						<path class="st2" d="M735.9,366.3l-0.1-19.2c-0.4-2.2-0.8-2.6-2.8-3c-8.9-0.1-69.5-0.2-118.3-0.2c-21,0-39.8,0-50.8,0
							c0.2,0,0.4,0,0.5,0l163.6-0.2c0.3,0,0.6,0,1,0c0.4,0,2.6-0.1,2.6-0.1c1.4,0,2.6,0.2,3.7,1.1c0.6,0.6,0.7,1.5,0.8,2.3l0,19.4
							c0,29.6-0.1,66.9-0.1,103.6c0,13.9,0,27.7-0.1,41C736.1,505.5,735.9,366.3,735.9,366.3z M549,349.2l0.1-0.3
							c-0.1,0.5-0.1,1.6-0.1,3.8V349.2z M549.2,346c0.2-0.5,0.4-1,0.9-1.5c0.1-0.1,0.4-0.2,0.8-0.4c-0.4,0.2-0.8,0.4-1.1,0.7
							C549.6,345.2,549.4,345.6,549.2,346z M553.3,343.8c0.7-0.1,1.6-0.1,2.7-0.1c1.2,0,2.5,0,3.8,0.1c0.3,0,0.7,0,1,0
							C558,343.8,553.4,343.8,553.3,343.8z"/>
						<path class="st2" d="M735.4,510.9l-0.3-163.8c-0.3-1.8-0.5-2-2.2-2.2c-8.2-0.1-61.7-0.1-118.1-0.2l-50.8,0l0-1.5
							c0.2,0,0.3,0,0.4,0l163.8-0.2c0.3,0,0.7,0,1,0c0.4,0,2.6-0.1,2.6-0.1l0,0c1.4,0,2.8,0.1,4.1,1.2c0.8,0.9,1,1.9,1.1,2.8l0,19.5
							c0,29.6-0.1,66.9-0.1,103.6v0.5c0,13.7,0,27.3-0.1,40.5L735.4,510.9L735.4,510.9z M549.8,352.6l-1.5,0l0-3.7l1.1-2.8l-0.9-0.3
							c0.2-0.7,0.6-1.3,1.1-1.8c0.2-0.2,0.5-0.3,0.8-0.5l0.2-0.4l0,0.4c0,0,0.1,0,0.2,0l0.5,1.4c-0.3,0.1-0.6,0.3-0.8,0.6
							c0,0,0,0-0.1,0.1l-0.5,3.5C549.8,349.4,549.8,350.4,549.8,352.6z M560.7,344.5c-2.2,0-5.7,0-7,0h-0.5l-0.1-1.5
							c1.5-0.1,3.9-0.1,6.1,0l1.4,0L560.7,344.5z"/>
					</g>
					<g>
						<path class="st2" d="M731.8,342.3c-0.9,0-1.8,0.1-2.6,0.1c-0.3,0-0.7,0-1,0l-9.6,0c0,0-153.6,0.2-154.1,0.2l0,0
							c-0.5,0-1,0.1-1.7,0.1c-1.9,0-4.4-0.2-6.8-0.2c-2.8,0-5.5,0.2-6.7,1.2c-1.9,2-1.4,4-1.5,5.5c0.1,83.8,0.3,182.6,0.4,266.3
							c0.1,1.5-0.5,3.6,1.5,5.3c1.2,0.7,2.2,0.8,3.2,0.8c0.5,0,1,0,1.5,0c0.2,0,0.4,0,0.6,0c0.5,0,1.1,0,1.8,0c2.8,0,7.1,0,10.1,0
							c1,0,1.9,0,2.5,0c10.5,0,43,0,53-0.1c1.5,0,3.9,0,5-2.1c1-7,0.3-13.1,0.5-19.7l0-19.4c0.1-3,0.3-7.1-2.4-9.6
							c-13.5-11.3-26-24.4-32.2-41.2c-0.8-2.9-3.3-3.7-6.1-3.7c-2.6,0-5.4,0.7-7.4,1c-6.4,1.4-12,5.3-17,9.1
							c-0.4,0.3-0.9,0.5-1.3,0.5c-2.2,0-4.1-3.8-1.7-5.3c12.8-10.9,29.4-11.2,45.4-11.3c0.1,0,0.2,0,0.3,0c3.5,0,6.7-0.7,6.5-5
							c0-3.1,1-6.8-1.5-9.4c-12.2-5.8-19.2-17.5-19.9-30.8c0.6,13.3,7.7,25.2,19.7,31c2.4,2.4,1.3,6.1,1.3,9.2c0.2,4-2.8,4.7-6,4.7
							c-0.2,0-0.3,0-0.5,0c-1.1,0-2.2,0-3.3,0c-15.2,0-30.4,0.9-42.7,11.1c-2.9,1.9-0.7,6.7,2.2,6.7c0.5,0,1.1-0.2,1.7-0.6
							c6.8-5.4,14.8-9.8,23.5-9.8c0.9,0,1.7,0,2.6,0.1c1.6,0.5,2.5,1.1,2.9,2.8c5.1,13.8,14.4,25.6,25,35.4l7.2,6.4
							c2.3,2.2,2.1,5.3,2,8.6c-0.2,10.8,0.4,28.1-0.4,38.4c-0.5,1-2,1.2-3.6,1.2c-1.1,0-2.3-0.1-3.5-0.1c-0.4,0-0.8,0-1.2,0l-9.6,0
							c0,0-38.3,0-38.5,0l0,0c-0.8,0-1.6-0.1-2.6-0.1c-2.7,0-5.9,0.1-9,0.1c-2.8,0-5.4-0.1-7.1-0.5c-1.4-0.9-0.4-7-0.7-8.6l0-9.7
							c0-55.7,0.2-137.8,0.2-193.7l0-38.7l0-19.4c-0.3-3.6,0.6-4.1,3.4-4.1c0.3,0,0.7,0,1,0c15,0.1,164.1,0.1,178.1,0.3
							c1.5,0.2,1.5,0.3,1.8,1.7l0.1,19.2l0,38.7c0,55.8,0.2,138.1,0.2,193.7c0,6.4,0.1,13.1-0.1,19.2c0,1.4-1.2,1.7-2.8,1.7
							c-1,0-2.1-0.1-3.1-0.1c-0.4,0-0.8,0-1.2,0l-9.6,0c-0.2,0-0.3,0-0.4,0c-0.2,0-0.3,0-0.4-0.1c0.3,0.8,0.5,1.5,0.8,2.2
							c0,0,9.2,0,9.6,0c0,0,0,0,0,0c0.2,0,0.5,0,0.8,0c1,0,2.2,0.1,3.3,0.1c1.4,0,2.8-0.1,3.7-0.7c3.8-4.5,1-16.2,1.8-22.4l0-38.7
							c0-55.8,0.2-138.1,0.2-193.7l0-19.5c-0.1-0.9-0.3-2.1-1.3-3.1C734.8,342.5,733.3,342.3,731.8,342.3L731.8,342.3z M634.3,375.9
							c-16.3,0-32.7,6.6-38.3,22.6c-0.9,1.5-2.7,1.5-4.5,2c-18,5-25.3,26.6-20,43.3c0.8,3.4,1.6,6.9,1.3,10.4
							c-3.2,12.5,5.8,20,17.5,20.2c-11.6-0.2-20.6-7.9-17.3-20.2c0.3-3.5-0.5-7-1.3-10.5c-5.2-16.6,2.1-37.7,19.9-42.6
							c1.5-0.5,3.7-0.5,4.8-2.2c5.5-15.6,21.4-22,37.3-22c7.3,0,14.5,1.3,20.8,3.8c26.6,9.8,40.9,41.5,31.8,68.4
							c-0.8,3.9,1.3,7.2,0.7,10.5c0,7.1-5.8,12.3-12.5,13.2c-1.5,0.4-3.8-0.1-5.4,2.1c-1.8,8.5-2.9,17.5-10.2,23.2
							c-2.4,2.4-5.8,3.4-8.6,6.1c-2.9,2.7-3.3,7.1-2.8,10.6l0,0.1l-0.1,2.2c-0.4,3.1,2.8,3.5,5.1,3.5c0.6,0,1.1,0,1.5,0l9.6,0
							c1.7-0.2,3.5-0.3,5.2-0.3c17.4,0,34.3,8.8,41.5,25.5c8.5,22-0.5,47.7,5.8,70.6c0-1.2,0.1-2.5,0-3.7c0-5.9,0-23,0-29.1
							c-0.4-12.7,1.7-26.2-3.9-38.6c-7.4-17.2-25.1-26.6-43.1-26.6c-1.8,0-3.6,0.1-5.4,0.3c-0.4,0-1,0-1.7,0c-2.1,0-5.1,0.1-7.7,0.1
							c-2,0-3.7-0.1-4.6-0.3c-0.7-0.1-0.3-1.9-0.5-3.9c-0.5-2.9-0.1-6.8,2.2-9c2.2-2.3,5.8-3.5,8.5-6c7.2-5.7,9.3-15.4,10.5-23.7
							c3.7-2.3,9.4-1,13.9-6.1c6.4-6.1,3.2-13.5,3.4-20.4c9.3-27.3-5.6-60.1-32.9-69.9C648.8,377.2,641.5,375.9,634.3,375.9
							L634.3,375.9z M716.3,616.4c0,1.5,0.1,2.8,0.9,3.1C716.9,618.5,716.5,617.4,716.3,616.4L716.3,616.4z"/>
						<path class="st2" d="M731.8,622.5c-0.6,0-1.3,0-1.9,0c-0.8,0-1.6-0.1-2.1,0l-10.2,0l-0.2-0.5c-0.2-0.4-0.3-0.8-0.4-1.1l0,0.8
							l-0.5-1.8c-0.8-0.7-0.9-2.1-0.9-3.4c-2.9-10.7-2.5-22.2-2.1-33.2c0.4-12.6,0.9-25.5-3.6-37.2c-6.6-15.4-22.2-25-40.8-25
							c-1.7,0-3.4,0.1-5.1,0.2l-9.7,0l-0.4,0c-0.3,0-0.7,0-1.1,0c-1.6,0-3.9-0.2-5.1-1.5c-0.6-0.7-0.9-1.6-0.7-2.8l0-2.1
							c-0.3-2.2-0.7-7.6,3-11.2c1.5-1.5,3.2-2.5,4.7-3.4c1.4-0.8,2.7-1.6,3.8-2.7c6.5-5.1,8-12.9,9.5-20.4c0.2-0.8,0.3-1.6,0.5-2.4
							l0.1-0.3c1.3-1.8,3.2-2,4.6-2.1c0.4,0,0.8-0.1,1.2-0.2c6.9-0.9,12-6.2,12-12.5c0.2-1.5-0.1-3-0.4-4.5
							c-0.4-1.9-0.8-3.9-0.3-6.2c9.2-27-5.2-57.9-31.3-67.6c-6.3-2.4-13.4-3.7-20.5-3.7c-18.2,0-31.8,8-36.6,21.5l-0.1,0.2
							c-1.1,1.5-2.8,1.9-4.2,2.2c-0.4,0.1-0.7,0.2-1,0.2c-7.1,2-12.9,6.6-16.7,13.6c-4.6,8.4-5.6,18.9-2.7,28.1
							c0.8,3.4,1.6,7,1.3,10.7c-1.3,5-0.7,9.4,1.9,12.9c3,4,8.4,6.4,14.8,6.5l0,0l0,0l0,0.7l0.8,0c0.8,13.6,7.9,24.7,19.5,30.2
							l0.2,0.1c2.2,2.2,2,5.1,1.8,7.7c0,0.8-0.1,1.5-0.1,2.2c0.1,1.7-0.4,3.1-1.3,4c-1.5,1.6-4,1.8-6,1.8h-0.3c-15,0-32,0-45,11.1
							c-1,0.7-0.9,1.6-0.7,2.1c0.4,1.4,1.8,2.3,2.8,1.5c4.8-3.7,10.6-7.8,17.2-9.2c0.5-0.1,1-0.2,1.6-0.3c1.8-0.3,3.9-0.8,6-0.8
							c3.7,0,6,1.4,6.8,4.3c6.7,18,20.6,31.3,32,40.8c2.9,2.7,2.8,6.8,2.7,9.8l0,0.4l0,19.3c-0.1,2.3,0,4.6,0,6.8
							c0.1,4.1,0.2,8.3-0.5,13l-0.1,0.2c-1.2,2.6-4,2.6-5.5,2.6c-5.3,0-16.6,0-27.7,0c-10.3,0-20.4,0-25.4,0c-1.6,0-4.7,0-7.8,0
							c-2.7,0-5.3,0-6.7,0c-0.5,0-0.8,0-1.3,0c-1.2,0-2.6,0.1-4.3-0.9c-1.9-1.6-1.8-3.5-1.8-4.8c0-0.4,0-0.7,0-1l-0.4-266.4
							c0-0.4,0-0.7,0-1c0-1.4,0-3.3,1.7-5c1.2-1,3.4-1.4,7.2-1.4c1.3,0,2.6,0,3.8,0.1c1.8,0.1,3.5,0.1,4.5,0
							c0.6,0,154.2-0.2,154.2-0.2l9.6,0c0.9,0.1,1.5,0,2.3,0c0.5,0,0.9,0,1.3,0c1.5,0,3.3,0.2,4.9,1.5c1.1,1.2,1.4,2.4,1.5,3.6
							l0,19.6c0,29.7-0.1,67.1-0.1,103.9c0,32.1-0.1,63.8-0.1,89.8l0,38.7c-0.3,2.2-0.1,5,0,8c0.3,5.8,0.7,11.7-2,14.9l-0.1,0.1
							C735,622.3,733.8,622.5,731.8,622.5z M728.5,621c0.5,0,1,0,1.5,0c0.6,0,1.2,0,1.8,0c0.6,0,2.3,0,3.2-0.5
							c2.2-2.8,1.9-8.6,1.6-13.8c-0.2-3-0.3-5.9,0-8.1l0-38.6c0-26,0.1-57.7,0.1-89.8c0.1-36.9,0.1-74.2,0.1-103.9l0-19.5
							c-0.1-0.8-0.3-1.8-1.1-2.6c-1.6-1.3-3.5-1.2-5.2-1.1c-0.8,0-1.6,0.1-2.4,0l-9.6,0c0,0-153.6,0.2-154.1,0.2
							c-0.9,0.1-2.7,0.1-4.7,0c-1.2,0-2.5-0.1-3.8-0.1c-1.2,0-4.9,0-6.2,1c-1.2,1.3-1.2,2.6-1.2,3.9c0,0.4,0,0.8,0,1.1l0.4,266.3
							c0,0.3,0,0.7,0,1.1c0,1.2,0,2.5,1.2,3.6c1.2,0.7,2.4,0.6,3.4,0.6c0.5,0,0.9,0,1.4,0c1.2,0,3.9,0,6.6,0c3.1,0,6.3,0,7.8,0
							c5,0,15.1,0,25.4,0c11.1,0,22.4,0,27.6,0c1.8,0,3.5-0.1,4.2-1.6c0.6-4.5,0.5-8.6,0.5-12.6c0-0.6,0-1.3,0-1.9
							c0,5.2-0.1,10.2-0.4,14.1l-0.1,0.3c-0.7,1.4-2.6,1.6-4.3,1.6c-0.6,0-1.2,0-1.8,0c-1,0-2-0.1-2.8,0l-9.7,0c0,0-38.3,0-38.5,0
							c-1.9-0.1-4.2,0-6.8,0c-1.6,0-3.2,0.1-4.8,0.1c-3.4,0-5.7-0.2-7.3-0.5l-0.2-0.1c-1.2-0.8-1.2-3.1-1-6.4c0-1.1,0.1-2.2,0-2.7
							V601c0-26.4,0-58.7,0.1-91.3c0-36.3,0.1-73,0.1-102.4l0.1-58.1c-0.2-2,0.1-3.2,0.7-3.9c0.7-0.8,1.8-0.9,3.4-0.9l1,0
							c5.8,0,31.5,0,61.8,0.1c48,0,107.7,0.1,116.3,0.2c1.9,0.3,2.2,0.6,2.5,2.3l0.1,19.3l0,38.7c0,25.9,0.1,57.6,0.1,89.6
							c0.1,36.9,0.1,74.3,0.1,104.1c0,2.3,0,4.6,0,7c0,4.1,0,8.3-0.1,12.2c0,0.6-0.2,1.1-0.6,1.5c-0.7,0.7-1.9,0.8-3,0.8
							c-0.5,0-1,0-1.5,0c-0.9,0-1.9-0.1-2.7,0l-9.5,0c0.1,0.2,0.2,0.5,0.3,0.8l9.1,0C727.9,621,728.1,621,728.5,621z M618.8,619
							c0.6,0,1.2,0,1.8,0c0.6,0,1.2,0,1.7,0c1.6,0,2.5-0.2,2.9-0.7c0.5-6.4,0.4-15.5,0.4-24.3c0-5.1-0.1-9.9,0-13.8l0-0.7
							c0-3,0.1-5.5-1.8-7.4l-7.1-6.4c-12.1-11.1-20.6-23.2-25.2-35.7c-0.4-1.5-1-2-2.4-2.4c-0.7,0-1.6-0.1-2.4-0.1
							c-7.3,0-15.1,3.2-23,9.6c-0.7,0.5-1.4,0.7-2.2,0.7c-2,0-3.6-1.8-4.1-3.5c-0.5-1.9,0-3.6,1.5-4.6
							c12.4-10.4,28.1-11.3,43.1-11.3c1.1,0,2.2,0,3.3,0h0.4c1.6,0,3.5-0.1,4.5-1.2c0.6-0.6,0.8-1.5,0.8-2.7c0-0.8,0-1.5,0.1-2.3
							c0.2-2.4,0.3-4.7-1.2-6.2c-11.7-5.7-19.2-17.2-20-30.9c-6.6-0.3-12.2-2.8-15.3-7c-2.9-3.8-3.6-8.7-2.2-14.1
							c0.2-3.3-0.5-6.8-1.3-10c-3.1-9.6-2.1-20.6,2.7-29.5c4-7.5,10.2-12.5,17.8-14.7c0.4-0.1,0.9-0.2,1.3-0.3
							c1.2-0.3,2.2-0.5,2.8-1.4c4.9-14.3,19.5-23,38.9-23c7.3,0,14.6,1.3,21,3.7c27.3,9.7,42.9,42.7,33.4,70.7
							c0,1.7,0.2,3.4,0.3,5.1c0.5,5.4,1.1,10.9-3.9,15.7c-3,3.3-6.4,4-9.4,4.6c-1.6,0.3-3.1,0.6-4.3,1.3
							c-1.3,9.1-3.6,18.2-10.7,23.8c-1.3,1.3-2.9,2.2-4.4,3.1c-1.5,0.9-2.9,1.8-3.9,2.8c-2.2,2-2.5,5.6-2.1,8.4c0,0.7,0,1.4,0,2
							c0,0.5,0,1.1,0,1.3c0.8,0.2,2.2,0.3,4.3,0.3c1.4,0,2.8,0,4.2-0.1c2.1,0,4.1-0.1,5.2,0c1.6-0.2,3.5-0.3,5.3-0.3
							c19.6,0,36.8,10.6,43.8,27c4.3,9.5,4.1,19.7,4,29.5c0,3.1-0.1,6.3,0,9.4c0,3.1,0,9.2,0,15.1c0,5.6,0,11.1,0,14
							c0.1,0.8,0,1.7,0,2.6c0,0.3,0,0.7,0,1c0.2,0.8,0.5,1.7,0.8,2.5c0.1,0,0.2,0,0.2,0l9.8,0c0.8-0.1,1.9,0,2.8,0c0.5,0,1,0,1.5,0
							c0.4,0,1.6,0,2-0.4c0,0,0.2-0.2,0.1-0.5c0.1-3.9,0.1-8.1,0.1-12.2c0-2.3,0-4.7,0-7c0-29.8-0.1-67.2-0.1-104.1
							c0-32-0.1-63.7-0.1-89.6l-0.1-57.9c0-0.2-0.1-0.7-0.2-0.8c-0.1-0.1-0.6-0.1-0.9-0.2c-8.5-0.1-68.2-0.1-116.2-0.2
							c-30.3,0-56,0-61.8-0.1l-1,0c-1.2,0-2,0.1-2.4,0.5s-0.5,1.3-0.3,2.8l-0.1,58.2c0,29.4,0,66.1-0.1,102.4
							c0,32.6-0.1,64.9-0.1,91.3l0,9.7c0.1,0.5,0.1,1.6,0,2.9c-0.1,1.3-0.2,4.5,0.3,5.1c1.4,0.3,3.6,0.5,6.7,0.5
							c1.6,0,3.2,0,4.8-0.1c2.6,0,5-0.1,6.8,0c0,0,0,0,0,0c1.3,0,38.5,0,38.5,0l9.6,0C617.9,619,618.3,619,618.8,619z M669,519.6
							c19.1,0,35.3,9.9,42.2,25.9c4.6,11.9,4.2,25.1,3.7,37.8c-0.3,8.7-0.6,17.5,0.7,26.1c0-3,0-6.8,0-10.7c0-5.9,0-12,0-15.1
							c-0.1-3.1,0-6.3,0-9.4c0.2-9.7,0.3-19.7-3.8-28.9c-6.8-15.9-23.4-26.1-42.4-26.1c-1.8,0-3.6,0.1-5.3,0.3c-1.4-0.1-3.1,0-5.2,0
							c-1.4,0-2.9,0.1-4.3,0.1c-2.4,0-3.9-0.1-4.8-0.4c-1-0.2-1-1.5-1-2.8c0-0.5,0-1.2,0-1.8c-0.5-3.1-0.1-7.2,2.5-9.6
							c1.1-1.2,2.6-2.1,4.2-3c1.5-0.9,3-1.8,4.2-3c6.8-5.4,9-14.4,10.3-23.2l0-0.3l0.3-0.2c1.5-1,3.3-1.3,5.1-1.7
							c2.9-0.6,6-1.2,8.7-4.2c3.2-3,3.9-6.4,3.8-9.9c0,0.1,0,0.3,0,0.4c0,6.9-5.7,12.9-13.2,13.8c-0.3,0.1-0.8,0.1-1.3,0.2
							c-1.2,0.1-2.5,0.2-3.4,1.4c-0.2,0.8-0.3,1.5-0.5,2.3c-1.5,7.8-3.2,15.9-10,21.2c-1.2,1.1-2.6,2-4,2.9
							c-1.5,0.9-3.1,1.9-4.5,3.2c-3.2,3-2.9,7.9-2.5,9.9l0,0.2l-0.1,2.2c-0.1,0.8,0,1.3,0.4,1.7c0.6,0.7,2,1,4,1c0.4,0,0.8,0,1.1,0
							l0.4,0l9.6,0C665.5,519.7,667.3,519.6,669,519.6z M624.7,571.1c2.3,2.3,2.3,5.4,2.2,8.5l0,0.7c-0.1,3.9,0,8.7,0,13.8
							c0,2.2,0,4.3,0,6.5c0-0.3,0-0.6,0-1l0-19.3l0-0.4C627.1,577,627.1,573.4,624.7,571.1C624.8,571.2,624.8,571.2,624.7,571.1z
							 M650.1,517.8C650.1,517.8,650.1,517.8,650.1,517.8C650.1,517.8,650.1,517.8,650.1,517.8z M688.6,420
							c2.1,9.6,1.8,19.8-1.5,29.5c-0.4,1.9,0,3.7,0.4,5.5c0.1,0.4,0.2,0.9,0.3,1.3c0-0.5-0.1-0.9-0.1-1.4c-0.2-1.8-0.4-3.6-0.3-5.4
							l0-0.2C690.5,439.7,690.8,429.5,688.6,420z"/>
					</g>
				</g>
				<g>
					<g>
						<path class="st2" d="M398.3,535.7c-1.8,0-3.5-1.4-3.5-3c-0.3-6.2-0.2-21.4-0.2-33.6c0-7,0.1-13.3,0-16.9l0-18.3
							c-0.1-1.7,0-3.7,0-5.9c0.1-4.6,0.3-9.3-0.9-12.2c-1.2-3-4.3-4.9-8-4.9c-1.6,0-3,0.4-4.3,1c1.3-0.7,2.7-1.1,4.3-1.1
							c3.5,0,6.7,1.9,8,4.8c1.3,3.4,1.2,7.6,1,11.8c-0.1,2.3-0.1,4.5,0,6.5l0.1,28.3c0,12.4,0.1,31.2,0,35.7c0,3.2-0.1,5.5,1.1,6.6
							c0.5,0.5,1,0.7,1.7,0.7c1.9,0,2.7-0.4,3.2-2.2c0.2-2,0.2-6.1,0.2-9.7c0-1.7,0-3.1,0-4l0.1-50.6l0.1,59.7c0,0.5,0,1,0,1.6
							c0,2,0.1,3.9-1.4,5C399.6,535.5,399,535.7,398.3,535.7z M377,455.1c0-1.2,0-2.5,0-3.6c0,0.7,0,1.4,0,2.1L377,455.1z
							 M401.3,435.8c0-0.8,0-1.5,0.1-2.2c0,0.6-0.1,1.3-0.1,1.9L401.3,435.8z"/>
						<path class="st2" d="M398.3,536.4c-2.2,0-4.2-1.7-4.3-3.7c-0.3-6.1-0.2-21.1-0.2-33.2v-0.4c0-6.8,0.1-13.2,0-16.9l0-18.3
							c-0.1-1.6,0-3.7,0-5.8l0.1,0c0,0,0-0.1,0-0.2H394c0.1-4.5,0.3-9.1-0.9-11.8c-1.1-2.7-4-4.4-7.3-4.4c-1.4,0-2.8,0.3-3.9,0.9
							l-0.7-1.3c1.4-0.8,3-1.2,4.7-1.2c3.8,0,7.2,2,8.7,5.2c1.4,3.5,1.2,7.9,1.1,12.1c-0.1,2.2-0.1,4.4,0,6.4l0.1,28.6
							c0,12.4,0.1,31,0,35.4c0,2.9-0.1,5.2,0.9,6.1c0.3,0.3,0.7,0.5,1.2,0.5c1.7,0,2.1-0.3,2.5-1.7c0.2-1.7,0.2-5.6,0.2-8.9v-0.6
							c0-1.7,0-3.1,0-4l0.1-50.6h1.5l0.1,59.7c0,0.4,0,0.9,0,1.3v0.3c0,2.1,0.1,4.3-1.7,5.6C399.9,536.2,399.1,536.4,398.3,536.4z
							 M376.3,455.1c0-1.4,0-2.6,0-3.7l1.5,0c0,0.7,0,1.4,0,2.1l0,1.6L376.3,455.1z M402,435.8h-1.5c0-0.8,0-1.5,0.1-2.3l1.5,0.2
							c0,0.6-0.1,1.3-0.1,1.9L402,435.8z"/>
					</g>
					<g>
						<path class="st2" d="M410.6,423.7c-5.8,0-11.5,5.6-10.5,13.2c-0.1,22.5-0.1,59.8-0.2,82.3c-0.1,2.8,0.1,10.8-0.2,13.4
							c-0.3,1.2-0.5,1.3-1.8,1.3c-0.1,0-0.1,0-0.2,0c-1.7,0-1.6-3-1.5-6.1c0-6.1,0-38.9-0.1-45.7l-0.1-18.3
							c-0.5-5.8,1-13.1-1.2-18.7c-1.6-3.6-5.4-5.5-9.1-5.5c-3.2,0-6.4,1.4-8.2,4.3c-3.1,5.2-1.4,13.1-1.8,18.7l0,36.6l0,36.6
							c-0.9,9.6,3.5,36.4-9.2,36.4c-0.8,0-1.7-0.1-2.7-0.3c-10.9-8.1-10.7-28.7-16.9-41c-1.4-2.6-4.3-4.7-7.4-4.7
							c-0.3,0-0.5,0-0.8,0c-7.9,0.5-9.1,9.3-6.8,15.2c9.6,30.8,10.9,69.7,35.8,92.7c9.2,8.4,21.9,11.5,33.9,12
							c3.4,0.4,6.9,0.7,10.4,0.7c21.1,0,42.5-8.1,51.5-28.9c5.7-11.1,4.8-23.8,4.7-35.9l-0.1-36.6l0.1-36.6l0-18.3
							c0.1-5.2-4.2-9.7-9.1-9.7c-1.2,0-2.4,0.3-3.6,0.9c-6.3,3-5.3,10.8-5.3,16.5c-0.1,6,0,21.6-0.1,27.4c-0.4,2.9,0.9,6.5-1.4,8.5
							c-0.5,0.6-1.1,1-1.6,1c-0.6,0-1.1-0.3-1.7-1c-2.8-3.6-0.6-8.8-1.2-13.1c-0.1-24.5,0.6-48.7-0.3-73.3c-0.9-4.4-5.2-7.2-9.5-7.2
							c-2.2,0-4.3,0.7-6,2.3c-4.8,4.7-3.2,11.9-3.5,17.9l-0.1,36.6c0,6,0,21.6-0.1,27.4c-0.2,2.2,0.6,7.8-0.5,8.5
							c-0.6,0.7-0.9,1.3-1.5,1.3c-0.3,0-0.6-0.2-1-0.5c-3.1-2.5-0.8-8.6-1.4-12.4l0-18.3l0.1-36.6c-0.5-11.1,1.3-26-1.1-36.9
							C417.3,425.5,413.9,423.7,410.6,423.7L410.6,423.7z M398.3,537c0.9,0,1.8-0.2,2.6-0.8c2.5-1.9,1.7-5.3,1.9-7.7
							c-0.1-26.5-0.2-65-0.2-91.5c0.2-2.9-0.1-5.9,1.8-7.9c1.5-2,3.7-3,6-3c3,0,5.9,1.6,7.1,4.6c2.1,9.5,0.6,25.9,1.1,36l0.1,36.6
							l0,18.3c0.4,4-0.8,8.1,0.4,11.8c1,1.3,2,2.8,3.7,2.8c0.3,0,0.6,0,1-0.2c4.4-2.6,2.4-7.2,2.8-11.3c0-5.9-0.1-21.4-0.1-27.4
							l-0.1-36.6c0.3-5.6-1.2-12.7,3.1-17c1.5-1.4,3.3-2,5.2-2c3.7,0,7.5,2.4,8.3,6.3c0.9,27,0.5,54.8,0.5,82.1
							c-0.4,2.4,1.3,5.1,3.6,5.7c2.5-0.5,4-3.2,3.7-5.6c0-8.3-0.2-23.5-0.1-32c0.1-5.7-1.1-13.2,5-16.2c1.2-0.6,2.4-0.9,3.5-0.9
							c4.7,0,8.8,4.4,8.8,9.4l0.1,18.3l0.1,36.6l0,36.6c0,12.1,0.9,24.7-4.9,35.8c-9,20.5-29.9,28.4-50.7,28.4
							c-3.6,0-7.2-0.2-10.8-0.7c-12-0.6-24.3-3.7-33.3-12c-24.5-22.9-25.6-61.7-35-92.3c-2-5.4-1.3-12.8,5.5-13.3
							c9.8,0.3,8.8,14.2,12.1,21.2c3,8.4,3.6,19.5,12.1,24.6c1.3,0.6,2.5,0.8,3.6,0.8c5.4,0,9.1-5.8,9.8-11
							c1.8-6.1,1.1-21.2,1.2-27.6c0.1-22.6,0.2-59.8,0.3-82.3c0-3.1,0.1-5.9,1.5-8.2c1.2-2.1,3.6-3.1,6-3.1c2.9,0,5.8,1.4,6.8,4.1
							c1.7,4,0.5,12.9,0.8,17.6l0,18.3c0.1,10.1-0.4,40.9,0.1,50.6C393.6,535.1,395.9,537,398.3,537L398.3,537z"/>
						<path class="st2" d="M412.2,647.5c-3.5,0-7-0.2-10.5-0.7c-14.5-0.6-26.1-4.7-34.3-12.2c-18.4-17-24-42.3-29.4-66.8
							c-2-9.2-4-17.9-6.5-26.2c-1.6-4.1-1.4-9,0.6-12.2c1.5-2.4,3.9-3.7,6.9-3.9c0.3,0,0.6,0,0.9,0c3.2,0,6.4,2,8,5.1
							c2.3,4.7,3.8,10.5,5.2,16.2c2.4,9.6,4.8,19.5,11.3,24.4c2.9,0.7,5.2,0.2,7-1.6c4.4-4.5,4.1-16.4,3.9-25
							c-0.1-3.5-0.2-6.6,0-8.8l-0.1-73.1c0.1-1.8,0.1-3.6,0-5.6c-0.2-4.5-0.4-9.6,1.9-13.4c1.8-2.9,5.1-4.7,8.8-4.7
							c4.3,0,8.2,2.3,9.8,6c1.5,3.8,1.4,8.3,1.2,12.7c-0.1,2.2-0.1,4.4,0,6.3l0.1,28c0,12.6,0.1,31.6,0,36.1l0,0.5
							c0,1.8,0,4.1,0.5,4.7c0.1,0.1,0.1,0.1,0.3,0.1l0.2,0c0.9,0,0.9,0,1.1-0.7c0.2-1.6,0.2-5.7,0.1-9.1c0-1.7,0-3.2,0-4.2l0.2-82.3
							c-0.5-3.7,0.5-7.3,2.8-10c2.2-2.5,5.2-4,8.4-4c3.9,0,7.4,2.4,9.5,6.5l0.1,0.2c1.6,7.2,1.4,16,1.2,24.5
							c-0.1,4.5-0.2,8.7,0,12.5l-0.1,54.9c0.2,1.3,0.1,2.9-0.1,4.6c-0.2,2.8-0.5,5.8,1.2,7.2c0.4,0.3,0.5,0.3,0.5,0.3
							c0.1,0,0.5-0.4,0.6-0.6l0.5-0.6c0.4-0.4,0.2-3.2,0.2-4.6c0-1.3-0.1-2.5,0-3.3c0-3,0-8.7,0-14.4c0-5.1,0-10.1,0-13l0.1-36.6
							c0.1-1.4,0.1-2.9,0-4.4c-0.1-5-0.2-10.2,3.7-14c1.7-1.6,4-2.5,6.5-2.5c4.9,0,9.3,3.4,10.2,7.8c0.5,16,0.4,32,0.3,47.5
							c-0.1,8.5-0.1,17.3-0.1,25.9c0.2,1.5,0.1,3.2-0.1,4.9c-0.2,2.9-0.5,5.6,1.1,7.7c0.3,0.3,0.7,0.7,1.1,0.7
							c0.4,0,0.8-0.4,1.1-0.7c1.4-1.2,1.3-3.1,1.2-5.1c0-1-0.1-2,0-3c0-3,0-8.7,0-14.3c0-5.1,0-10.2,0-13c0-0.7,0-1.5,0-2.3
							c-0.1-5.4-0.1-12.1,5.8-14.9c3.5-1.8,7.9-0.9,10.8,2c2,2,3.1,4.7,3,7.5l-0.1,54.9l0.1,36.6c0,1.4,0,2.8,0,4.3
							c0.1,10.8,0.3,22-4.9,32C456.3,636.8,437.3,647.5,412.2,647.5z M339,528.5c-2,0.2-3.6,1-4.6,2.6c-1.5,2.3-1.6,6.1-0.2,9.7
							c2.5,8.4,4.4,17.1,6.4,26.3c5.2,24.2,10.7,49.2,28.3,65.8c7.8,7.1,18.8,11.1,32.9,11.8c3.6,0.5,7.2,0.7,10.8,0.7
							c24,0,42.2-10.2,50.1-27.9c5-9.6,4.9-20.6,4.8-31.2c0-1.4,0-2.9,0-4.3l0-36.6l-0.2-54.9c0-2.3-0.9-4.6-2.6-6.2
							c-2.4-2.4-5.8-3.1-8.7-1.6c-4.8,2.4-4.7,7.8-4.6,13.1c0,0.9,0,1.7,0,2.5c0,4.7,0,11.5,0,18.1c0,5.2,0.1,10.3,0,14
							c0.3,2.5-1.2,5.7-4.3,6.3l-0.2,0l-0.2,0c-2.7-0.7-4.7-3.8-4.2-6.5c0-7.4,0-14.9,0-22.5c0-19.6,0.1-39.9-0.5-59.4
							c-0.8-3.6-4.5-5.6-7.6-5.6c-1.8,0-3.5,0.6-4.7,1.8c-3,3-2.9,7.6-2.8,12.1c0,1.5,0.1,3,0,4.4l0.1,36.5c0,3.3,0,9.2,0,15
							c0,5,0,9.7,0,12.5c-0.1,1.1,0,2.3,0,3.4c0.2,3,0.4,6.4-3.2,8.5c-0.6,0.2-1,0.2-1.4,0.2c-1.9,0-3-1.5-4-2.7l-0.4-0.5
							c-0.8-2.4-0.6-4.8-0.5-7.2c0.1-1.6,0.2-3.2,0-4.7l-0.1-55c-0.2-3.5-0.1-7.7,0-12.2c0.1-8.2,0.3-17.5-1.1-23.6
							c-0.9-2.4-3.4-4.1-6.3-4.1c-2.2,0-4.2,1-5.4,2.7c-1.5,1.5-1.6,3.7-1.6,6.1c0,0.5,0,1-0.1,1.5c0,23.3,0.1,56,0.2,81.6l0,9.8
							c0,0.5,0,1,0,1.6c0,2.2,0.1,4.9-2.1,6.7c-0.9,0.7-1.9,1-3,1c-2.9,0-5.4-2.2-5.5-4.9c-0.3-6.2-0.2-20.8-0.2-33.7
							c0-7.1,0.1-13.3,0-16.9l0-18.3c-0.1-1.6-0.1-3.7,0-6c0.1-4.1,0.3-8.9-0.8-11.3c-1-2.5-3.8-3.6-6.1-3.6c-2.4,0-4.4,1-5.4,2.7
							c-1.4,2.2-1.4,5-1.4,7.8c0,11.3-0.1,26.3-0.2,41.3c0,14.9-0.1,29.8-0.2,41c0,1.6,0,3.6,0,5.9c0.1,7.2,0.1,17.1-1.2,21.8
							c-0.7,5.6-4.9,11.6-10.5,11.6c-1.3,0-2.6-0.3-4-0.9c-6.7-4-8.7-11.3-10.6-18.4c-0.6-2.3-1.2-4.5-2-6.6c-1-2.1-1.6-4.8-2.2-7.6
							C346.8,535.3,345.4,528.8,339,528.5z M354.4,557.6c1.7,6.1,3.7,12.1,9.2,15.3c1.1,0.5,2.2,0.8,3.3,0.8c4.9,0,8.4-5.3,9.1-10.4
							c1.3-4.6,1.3-14.4,1.2-21.5c0-2.3,0-4.4,0-6c0-11.2,0.1-26.1,0.2-41c0-15,0.1-30,0.2-41.3c0-3,0-6,1.6-8.6
							c1.2-2.1,3.7-3.4,6.6-3.4c3.5,0,6.4,1.8,7.5,4.5c1.1,2.8,1,7.6,0.9,11.9c-0.1,2.2-0.1,4.3,0,5.9l0,18.3c0,3.6,0,9.8,0,16.9
							c-0.1,12.2-0.2,27.4,0.2,33.6c0.1,1.9,2,3.5,4.1,3.5c0.8,0,1.5-0.2,2.1-0.7c1.6-1.3,1.6-3.4,1.6-5.4c0-0.6,0-1.1,0-1.7l0-9.8
							c-0.1-25.6-0.1-58.3-0.2-81.6c0-0.5,0-1,0.1-1.5c0.1-2.5,0.2-5.1,2-7c1.4-2,3.8-3.2,6.5-3.2c3.5,0,6.5,2,7.8,5.1
							c1.4,6.4,1.3,15.8,1.1,24.1c-0.1,4.5-0.1,8.7,0,12.1l0.1,54.9c0.2,1.6,0.1,3.3,0,4.9c-0.1,2.3-0.3,4.5,0.4,6.6l0.2,0.2
							c1,1.3,2,2.5,3.6,2c2.6-1.5,2.5-4.1,2.3-7.1c-0.1-1.2-0.2-2.4,0-3.6c0-2.7,0-7.4,0-12.4c0-2.7,0-5.5,0-8c0,1.9,0,3.9,0,6
							c0,5.7,0,11.4,0,14.5c-0.1,0.8,0,1.9,0,3.1c0.1,3.2,0.2,5.2-0.8,5.9l-0.2,0.3c-0.5,0.6-1,1.2-1.8,1.2c-0.5,0-0.9-0.2-1.5-0.7
							c-2.3-1.9-2-5.2-1.7-8.5c0.1-1.6,0.3-3.1,0.1-4.4l0.1-55c-0.2-3.8-0.1-8.1,0-12.6c0.2-8.4,0.4-17-1.1-24
							c-1.9-3.6-4.8-5.6-8.1-5.6c-2.7,0-5.4,1.3-7.2,3.5c-2.1,2.4-3,5.6-2.5,8.9l-0.2,82.4c0,1,0,2.5,0,4.2c0,3.6,0,7.6-0.2,9.4
							c-0.4,1.6-1,1.9-2.5,1.9c0,0-0.1,0-0.2,0c-0.5,0-1-0.2-1.3-0.5c-1-1-1-3.2-1-5.7l0-0.5c0-4.5,0-23.5,0-36l-0.1-28
							c-0.2-2-0.1-4.1,0-6.4c0.1-4.2,0.3-8.5-1.1-12c-1.4-3.1-4.7-5.1-8.5-5.1c-3.2,0-6,1.5-7.5,4c-2.1,3.4-1.9,8.1-1.7,12.6
							c0.1,2,0.1,4,0,5.8l0.1,73.1c-0.2,2.2-0.1,5.2,0,8.7c0.2,9.4,0.5,21.2-4.3,26.1c-2.1,2.2-5.1,2.8-8.5,2l-0.3-0.1
							C359,569.2,356.4,563.7,354.4,557.6z M339,527.1c7.6,0.3,9.2,7.7,10.7,14.3c0.6,2.7,1.2,5.3,2.1,7.3c0.2,0.4,0.3,0.9,0.5,1.3
							c-0.2-0.9-0.5-1.9-0.7-2.8c-1.5-5.9-2.8-11.4-5.1-15.9C345,528.5,342,526.7,339,527.1c-2.5,0.1-4.4,1.1-5.6,3
							C334.6,528.3,336.6,527.3,339,527.1z"/>
					</g>
				</g>
				<g>
					<g>
						<path class="st2" d="M707,553.4c-0.7-2.5-1.6-4.9-2.7-7c-6-12-18.7-20-31.5-20c-0.6,0-1.3,0-1.9,0.1l-0.3,0
							c-1.6,0-2.7,2.1-5.5,8.7c-0.6,1.4-1,2.5-1.2,2.8c-2.6,5.3-6,10.1-9.8,14.5c5.8-7.4,10.2-15.1,13.1-23c0.3-1.2,1.5-3.2,3-3.4
							c0.9-0.1,1.8-0.1,2.7-0.1c12.7,0,25.2,8.2,31.3,20.4C705.6,548.5,706.5,550.8,707,553.4z"/>
						<path class="st2" d="M706.3,553.6c-0.7-2.6-1.6-4.9-2.6-6.9c-6.2-12.3-19.5-20.4-32.7-19.6l-0.4,0c-1.1,0-2.3,2.4-4.7,8.2
							l-0.3,0.7c-0.5,1.3-0.8,1.9-1,2.3c-2.3,4.8-5.5,9.6-9.8,14.6l-1.1-0.9c5.8-7.3,10.1-15,13-22.8c0.3-1.4,1.7-3.7,3.6-3.9
							c1-0.1,1.9-0.1,2.8-0.1c12.9,0,25.8,8.4,31.9,20.8c1.2,2,2.1,4.5,2.7,7.2L706.3,553.6z"/>
					</g>
					<g>
						<path class="st2" d="M673.1,524.6c-1,0-1.9,0-2.9,0.1c-2.2,0.2-3.7,2.8-4,4.2c-5.3,14.3-15.1,26.7-26.3,37
							c-2.1,2.2-5,3.7-6.6,6.9c-1.5,3.5-0.4,6.4-0.7,9.6l0.2,18.6c0.5,5.1-0.7,14.2,1,18.6c1,0.9,2.5,1.1,4,1.1
							c1.4,0,2.9-0.2,4.1-0.2c0.4,0,0.7,0,1,0c0.3,0,0.7,0,1,0c5.9,0,18.2-0.2,24.8-0.2c0.6,0,1.2,0,1.6,0c-8.5-0.1-23.9,0-32.1-0.1
							c-0.5,0.1-0.9,0.1-1.3,0.1c-5,0-3.2-6-3.4-10.1l0.2-9.3c0.5-5-0.4-23.7,1.1-27.4c10.6-10.6,23.3-20.9,30.1-35.1
							c0.8-1.1,4.1-11,5.7-11c0,0,0.1,0,0.2,0c0.7,0,1.4-0.1,2.1-0.1c12.5,0,24.7,8.1,30.3,19.4c7.4,13.9,3.5,38.2,4.9,54.6
							c0,3,0.3,11.1,0.2,14c0,1.5,0.2,3.2-0.9,4.2c-5.7,0.6-11.6,0.7-17.5,0.7c-4.1,0-8.2,0-12.3,0c-2.3,0-4.7,0-7,0.1
							c1.1,0,2.3,0,3.4,0c6.5,0,13,0.3,19.4,0.3c4.7,0,9.5-0.1,14.2-0.6c1.4-1.2,1-3.1,1.1-4.6c0.1-2.9,0-11,0.2-14l0.2-18.6
							c-0.2-11,2.1-27.2-3.8-37.1C699.5,533.8,686.7,524.6,673.1,524.6L673.1,524.6z M670.4,620.5c0.1,0,0.2,0,0.3,0
							C670.6,620.5,670.5,620.5,670.4,620.5L670.4,620.5z"/>
						<path class="st2" d="M637.8,621.5c-1.5,0-3.3-0.2-4.5-1.3l-0.2-0.3c-1.1-3-1-7.7-0.9-12.2c0-2.5,0.1-4.8-0.1-6.6l-0.2-18.7
							c0.1-1.1,0-2.1,0-3.2c-0.1-2.1-0.3-4.2,0.8-6.7c1.1-2.3,2.8-3.7,4.5-5.1c0.8-0.7,1.6-1.3,2.3-2c12.6-11.6,21.4-24,26.1-36.7
							c0.3-1.7,2.2-4.4,4.6-4.7c1-0.1,2-0.1,3-0.1c13.4,0,26.7,8.7,33.1,21.5c4.6,7.9,4.3,19.3,4,29.4c-0.1,2.9-0.2,5.6-0.1,8.1
							l-0.2,18.7c-0.1,1.6-0.1,4.6-0.1,7.4c0,2.7,0,5.2-0.1,6.6c0,0.3,0,0.6,0,0.9c0,1.3,0,3-1.3,4.2l-0.2,0.2l-0.2,0
							c-4.2,0.4-8.7,0.6-14.3,0.6c-3.2,0-6.5-0.1-9.7-0.1c-4.4-0.1-8.7-0.2-13.1-0.1l0-0.7v0.7h-0.3v-1.5l0.3,0
							c4.3-0.1,8.7-0.1,13.2,0c2,0,4.1,0,6.1,0c5.2,0,11.2-0.1,17.2-0.7c0.5-0.6,0.5-1.7,0.5-2.8l0-0.7c0-1.5,0-4.5-0.1-7.4
							c-0.1-2.6-0.1-5.1-0.1-6.6c-0.5-5.2-0.4-11.2-0.3-17.6c0.2-13.5,0.4-27.4-4.5-36.7c-6-12-19-19.9-31.7-18.9l-0.2,0h0
							c-0.9,0.7-2.8,5.4-3.6,7.4c-0.8,1.8-1.2,2.8-1.4,3.2c-5.5,11.5-14.8,20.4-23.9,29.1c-2.1,2-4.2,4-6.2,6
							c-0.9,2.5-0.9,10.9-0.9,17.7c0,4.1,0,7.6-0.2,9.4l-0.2,9.3c0.1,0.9,0,2-0.1,3.1c-0.1,2.2-0.2,4.5,0.7,5.6
							c0.6,0.6,1.6,0.8,3.2,0.6c4.7,0,11.3,0.1,17.8,0.1c5.1,0,10.2,0,14,0c0.2,0,0.4,0,0.4,0l0,0l0,1.5c-0.5,0-1,0-1.6,0
							c-3.4,0-8.3,0.1-13.1,0.1c-4.5,0.1-8.9,0.1-11.8,0.1h-1c-1-0.1-1.8,0-2.9,0C639.3,621.5,638.6,621.5,637.8,621.5z
							 M673.1,525.4c-1,0-1.9,0-2.8,0.1c-1.8,0.2-3.1,2.4-3.4,3.6c-4.8,13.1-13.7,25.6-26.5,37.4c-0.7,0.8-1.5,1.5-2.4,2.1
							c-1.5,1.3-3.1,2.6-4.1,4.6c-0.9,2.1-0.8,4-0.7,6c0,0.2,0,0.3,0,0.5c0.1-2.8,0.4-5.1,0.8-6.3l0.2-0.2c2-2,4.2-4.1,6.3-6.1
							c9-8.6,18.2-17.4,23.7-28.7c0.3-0.4,0.8-1.7,1.3-3c2.5-6.2,3.7-8.4,5-8.4l0.2,0c13.3-0.9,26.7,7.3,33,19.7
							c4,7.6,4.8,17.9,4.8,28.6c0-0.1,0-0.3,0-0.4c0.3-9.9,0.6-21.1-3.8-28.6C698.7,533.7,685.9,525.4,673.1,525.4z"/>
					</g>
				</g>
				<g>
					<g>
						<path class="st2" d="M629.1,501.7c-2.9,0-5.6-0.2-8.1-0.6c0.3,0,0.7,0,1,0c2.2,0.1,4.6,0.2,6.9,0.2c13.3,0,22.6-3.2,28.1-9.8
							c-2.7,3.6-6.4,6.5-11,8C640.2,501,634.4,501.7,629.1,501.7z M661.8,481.7c0.5-3.4,0.9-7,1.1-10.5
							C663.2,474.6,662.8,478.2,661.8,481.7z"/>
						<path class="st2" d="M629.1,502.4c-2.9,0-5.7-0.2-8.2-0.6l0.2-1.5c0.3,0,0.7,0,1,0c2.4,0.2,4.8,0.2,6.9,0.2
							c13.2,0,22.2-3.1,27.5-9.5l1.2,0.9c-3,4-6.8,6.8-11.4,8.3C640.2,501.7,634.5,502.4,629.1,502.4z M662.6,481.9l-1.4-0.3
							c0.5-3.3,0.8-6.7,1.1-10.5l1.5,0C663.9,474.6,663.5,478.4,662.6,481.9z"/>
					</g>
					<g>
						<path class="st2" d="M614,423c11.6,7.2,25,12.8,38.7,12.8c3,0,6-0.3,9-0.9c0-0.4,0-0.7,0-1l1.1,0.8c-0.4,0.1-0.7,0.1-1.1,0.2
							c0,15.4,1.2,32.1-1.2,47c-4.1,14.8-18.1,18.1-31.6,18.1c-2.3,0-4.6-0.1-6.9-0.2c-11.7-0.3-22.2-9.9-23.6-21.6
							c-0.7-6.8-0.1-17.1-0.3-24.1c-0.7-4.8,1.7-6.7,5-9.6C609.4,438.8,611.8,430.7,614,423c-2.5,7.5-5.2,15.3-11.6,20.6
							c-3.7,2.8-6.4,5.2-5.8,10.4c0.5,11.7-2.8,25.8,4.2,36.2c6.2,9.6,17.2,12.7,28.3,12.7c6,0,12-0.9,17.3-2.1
							c12.5-4.2,19-18,17.7-30.5c-0.3-12.2,0.2-25.4-0.7-37.5c-3.9,1-7.9,1.4-11.9,1.4C638.5,434.2,625.5,429.4,614,423L614,423z"/>
						<path class="st2" d="M629.1,503.7c-13.6,0-23.3-4.4-28.9-13.1c-5.3-7.8-4.9-17.6-4.5-27c0.1-3.3,0.3-6.5,0.2-9.5
							c-0.7-5.8,2.7-8.4,6.1-11c6.2-5.1,8.8-12.8,11.4-20.2l0,0c0,0,0,0,0,0l0.7,0.2l0.4-0.6c13.2,7.3,25.8,11,37.2,11
							c3.2,0,6.4-0.3,9.4-0.9v-0.1l0.1,0c0.7-0.1,1.5-0.3,2.2-0.5l0.8-0.2l0.1,0.9c0,0.8,0.1,1.5,0.2,2.3l0.2,0.1l-0.2,0
							c0.4,7,0.4,14.4,0.4,21.5c0,4.5,0,9.2,0.1,13.6c1.7,15.9-7.9,27.8-18.2,31.2C640.5,503,634.6,503.7,629.1,503.7z M597.7,449.7
							c-0.5,1.2-0.7,2.5-0.4,4.2c0.1,3.2,0,6.3-0.2,9.7c-0.4,9.2-0.8,18.7,4.2,26.1c5.3,8.2,14.6,12.4,27.7,12.4
							c5.3,0,11.1-0.7,17.1-2.1c9.4-3.2,18.7-14.7,17.1-29.7c-0.1-4.5-0.1-9.2-0.1-13.7c0-7,0-14.2-0.4-21.2c-0.1,0-0.3,0.1-0.4,0.1
							v0c0,3.7,0.1,7.5,0.1,11.3c0.2,11.8,0.4,24-1.3,35.1c-3.5,12.6-14,18.7-32.3,18.7c-2.2,0-4.4-0.1-6.9-0.2
							c-12.1-0.3-22.8-10.1-24.2-22.3c-0.4-4.2-0.4-9.8-0.3-15.1c0-3.3,0.1-6.4,0-9C597.2,452.3,597.3,450.9,597.7,449.7z
							 M614.4,424.2c-2,6.9-4.5,15.2-10.8,20.8l-0.4,0.4c-3.1,2.8-5,4.4-4.4,8.6c0.1,2.8,0.1,5.9,0,9.2c0,5.3-0.1,10.8,0.3,15
							c1.4,11.5,11.4,20.7,22.9,21c2.5,0.2,4.7,0.2,6.9,0.2c17.5,0,27.6-5.8,30.9-17.6c1.7-10.9,1.5-23.1,1.3-34.8
							c-0.1-3.7-0.1-7.5-0.1-11.1C647,438.3,631.2,434.4,614.4,424.2z M645.6,434.6c5.3,0.7,10.4,0.6,15.3-0.2c0-0.1,0-0.2,0-0.3
							C656.1,435,651,435.2,645.6,434.6z M662.7,433.7l0.1,0.1c0,0,0-0.1,0-0.1C662.7,433.7,662.7,433.7,662.7,433.7z"/>
					</g>
				</g>
				<g>
					<g>
						<path class="st2" d="M579,444.8c-3.6-7.5-3.6-17,0.1-24.9c3-6.5,8.2-11,14.5-12.7c-5.1,1.8-9.5,5.2-12.6,10.2
							c-4.9,7.7-5.7,17.5-2.2,26.2l0.4,0.9l1-0.1c1.1-0.1,2.5-0.2,4-0.4c3.8-0.3,7-0.5,9.2-1.2c-0.4,0.2-0.9,0.4-1.3,0.5
							C590.2,443.5,579,444.8,579,444.8z M596.2,441c1.9-1.5,3.7-3.2,5.1-5c-1.5,2.1-3.3,3.9-5.4,5.3
							C596,441.2,596.1,441.1,596.2,441z M600,405.9c0.8-0.4,1.6-0.9,2.1-1.8c-0.4,0.9-1,1.5-1.8,1.8
							C600.2,405.9,600.1,405.9,600,405.9z M603.1,400.1c0.3-1.5,0.8-2.9,1.5-4.2C604,397.3,603.4,398.7,603.1,400.1z"/>
						<path class="st2" d="M578.5,445.6l-0.2-0.5c-3.7-7.7-3.7-17.5,0.1-25.6c3.1-6.7,8.4-11.3,14.9-13.1l0.4,1.4
							c-5,1.7-9.2,5.1-12.2,9.9c-4.8,7.5-5.6,17.1-2.1,25.5l0.2,0.4l0.4,0c1.1-0.1,2.5-0.2,4-0.4c3.6-0.2,6.9-0.5,9.1-1.2l0.3,0.9
							l2-2.2c0.1-0.1,0.1-0.1,0.2-0.2l0.2-0.2c1.9-1.4,3.6-3.1,5-4.8l1.2,0.9c-1.7,2.3-3.5,4.1-5.6,5.5l-5.2,3.5l1.5-1.6
							c-0.2,0-0.3,0.1-0.4,0.1c-2,0.2-13.2,1.5-13.2,1.5L578.5,445.6z M600,406.7h-3.7l3.4-1.4c0.8-0.3,1.3-0.8,1.7-1.5l1.3,0.7
							c-0.5,1-1.2,1.8-2.2,2.2l-0.2,0C600.2,406.7,600.1,406.7,600,406.7z M603.8,400.3l-1.4-0.3c0.3-1.5,0.9-3,1.6-4.4l1.3,0.7
							C604.6,397.6,604.1,398.9,603.8,400.3z"/>
					</g>
					<g>
						<path class="st2" d="M636.3,381.7c-2.2,0-4.3,0.2-6.5,0.5c-11.3,1.5-25.8,5.4-28,18.6c-0.4,4.9-3.4,4.1-7.4,4.9
							c-17.3,3.7-23.8,25.7-16.1,40.5c3.5-0.4,10.7-1.2,14.2-1.7c7.3-2.3,12.5-9.9,14.7-17.1c1.6-3.9-0.1-9,1.6-12.5
							c6,0.3,12.5,6,18.6,8.4c7.4,3.8,15.7,6.3,24.1,6.3c3.5,0,7-0.4,10.5-1.4c2.9-0.2,6.9-3.6,9.8-3.6c0.7,0,1.2,0.2,1.8,0.6
							c2.6,3.4-1,4-3,6.2c-1.4,2.8-1.7,5.8-1.6,8.8c-0.1,1.3,0.6,3.4,2.3,3.4c0.1,0,0.1,0,0.2,0l9.8,1.3
							C692,415.7,666.5,381.7,636.3,381.7L636.3,381.7z M579.9,443.1c-6.5-16,2.9-35.1,20.9-36c2.6-1.1,3.2-4.1,3.4-5.8
							c0.6-3.6,2.4-6.9,5.1-9.3c8-5.8,16.7-8.3,25.2-8.3c29.1,0,56.6,29.4,46.7,61.2l-9.8-1.7c0,0,0,0-0.1,0c-1.5,0-1.9-1.7-1.9-3.1
							c0-2.8,0.4-5.9,1.8-8.4c0.5-1,2.5-1.3,3.4-2.6c1.2-1.4,0.7-3.5-0.3-4.7c-0.6-0.9-1.6-1.2-2.6-1.2c-0.8,0-1.5,0.2-2.1,0.5
							c-5.7,2.9-11.7,4.1-17.8,4.1c-8.2,0-16.4-2.3-23.7-6.3c-5.2-2.6-10.1-5.7-15.7-8.2c-0.9-0.2-1.8-0.8-3-0.8
							c-0.7,0-1.5,0.2-2.3,0.8c-1.4,1.8-1.4,3.3-1.5,4.9c0.8,8.8-3.5,16.7-10.4,22C593.5,442.7,584.2,442.5,579.9,443.1
							c0.1,0.3,0.3,0.6,0.4,1l-1.4-0.8C579.2,443.2,579.5,443.1,579.9,443.1L579.9,443.1z"/>
						<path class="st2" d="M577.8,447l-0.2-0.5c-4.3-8.2-4.4-18.8-0.3-27.5c3.5-7.5,9.5-12.4,16.9-14c0.8-0.2,1.6-0.2,2.3-0.3
							c2.9-0.3,4.3-0.5,4.5-3.9c1.8-10.6,11.2-16.9,28.7-19.3c2.2-0.4,4.4-0.5,6.6-0.5c15.1,0,29.7,8.2,39.2,22
							c9.1,13.2,11.4,28.5,6.4,42.1c0,0,0,0,0,0l-0.2,0.6l-0.6-0.1l-9.8-1.3c0,0,0,0,0,0c-0.8,0-1.4-0.3-1.9-0.8
							c-0.8-0.9-1.2-2.3-1.1-3.3c-0.2-3.7,0.4-6.6,1.7-9.1l0.1-0.2c0.6-0.6,1.3-1.2,1.9-1.6c0.9-0.7,1.7-1.2,1.8-1.9
							c0.1-0.4-0.2-1-0.7-1.7c-1.3-0.9-3.7,0.2-6,1.4c-1.7,0.9-3.5,1.8-5.1,1.9c-3.2,0.9-6.8,1.4-10.5,1.4c-7.9,0-16.3-2.2-24.5-6.4
							c-2.2-0.9-4.6-2.3-6.9-3.6c-3.6-2.1-7.4-4.3-10.9-4.7c-0.6,1.5-0.6,3.4-0.6,5.4c0,2.2,0,4.5-0.8,6.5
							c-2.1,6.8-7.2,15-15.2,17.6c-2.2,0.3-5.5,0.7-8.6,1c-2.2,0.2-4.2,0.5-5.6,0.7L577.8,447z M577.8,443.5
							c0.2,0.6,0.5,1.2,0.8,1.9c0.6-0.1,1.3-0.1,2-0.2L577.8,443.5z M581,443.7C581,443.7,581,443.7,581,443.7l0.6,1.3
							c0.7-0.1,1.5-0.2,2.2-0.2c3.1-0.4,6.5-0.8,8.5-1c7.3-2.4,12.1-10.1,14.1-16.6c0.7-1.9,0.7-4,0.7-6c0-2.3,0-4.6,0.9-6.5
							l0.2-0.4l0.5,0c4,0.2,8.1,2.6,12,4.9c2.2,1.3,4.6,2.7,6.8,3.5c11.7,6,23.9,7.8,34.1,4.9c0.8,0,1.7-0.3,2.5-0.7
							c-11.3,3.6-24.7,1.9-36.5-4.5c-2.2-1.1-4.3-2.3-6.4-3.4c-3-1.6-6-3.3-9.2-4.8c-0.2,0-0.5-0.2-0.9-0.3
							c-1.1-0.4-2.3-0.7-3.6,0.2c-1.1,1.4-1.1,2.7-1.2,4.1l0,0.3c0.8,8.4-3.1,16.6-10.6,22.4c-1.4,1.9-5.8,2.3-11.7,2.7
							C582.9,443.6,581.9,443.6,581,443.7z M671.7,422.5c1.3,0,2.5,0.5,3.2,1.5c1.2,1.5,1.7,4,0.3,5.6c-0.5,0.8-1.4,1.2-2.1,1.6
							c-0.5,0.3-1,0.6-1.2,0.9c-1.4,2.6-1.7,5.8-1.7,8c0,1.1,0.2,2.3,1.2,2.3l0.2,0l9.1,1.5c4-13.5,1.5-27.3-7.1-39.1
							c-9.3-12.7-24.2-20.5-39.1-20.5c-8.9,0-17.4,2.8-24.8,8.2c-2.4,2.2-4.2,5.3-4.8,8.8c-0.4,3.3-1.7,5.5-3.8,6.3l-0.2,0.1
							c-7.7,0.4-14.1,4.1-18.2,10.6c-4.5,7-5.3,15.9-2.2,23.9c1-0.1,2.2-0.2,3.5-0.3c3.8-0.3,9.6-0.7,10.7-2.2l0.2-0.2
							c7.2-5.5,10.9-13.3,10.1-21.3l0-0.5c0.1-1.6,0.2-3.2,1.6-5l0.2-0.1c0.9-0.6,1.8-1,2.8-1c0.9,0,1.7,0.3,2.3,0.5
							c0.3,0.1,0.6,0.2,0.9,0.3c3.4,1.5,6.5,3.2,9.4,4.9c2.1,1.1,4.2,2.3,6.4,3.4c7.5,4.1,15.5,6.2,23.3,6.2
							c6.3,0,12.2-1.4,17.5-4.1C670,422.7,670.9,422.5,671.7,422.5z M636.3,382.4c-2.1,0-4.3,0.2-6.4,0.5
							c-16.8,2.3-25.8,8.2-27.4,18c-0.3,4.5-3,4.8-5.8,5.2c-0.7,0.1-1.4,0.2-2.2,0.3c-7,1.5-12.6,6.2-15.9,13.2
							c-3.4,7.3-3.8,15.9-1,23.2l1.2-0.3c0,0,0.1,0,0.1,0l0,0h0c-3.1-8.3-2.2-17.5,2.5-24.9c4.3-6.8,11.2-10.9,19.3-11.3
							c1.5-0.7,2.5-2.4,2.8-5.1c0.7-3.9,2.6-7.3,5.3-9.8c7.7-5.6,16.5-8.5,25.7-8.5c13.7,0,27.5,6.5,37.1,17.2
							C662.4,389,649.5,382.4,636.3,382.4z"/>
					</g>
				</g>
				<g>
					<g>
						<path class="st2" d="M556.3,337.2c-3.3,0-5.4-0.5-6.9-1.7c0,0,0-0.1,0-0.1l0,0l-0.1-0.6c0-0.6-0.2-1.4-0.3-2.1
							c-0.3-1.8-0.6-3.4,0.5-5.4c1-1.2,2.2-1.7,3.4-2.2c0.7-0.3,1.3-0.5,1.9-0.9c3.6-2,8.1-3,14.2-3c1.2,0,2.3,0,3.4,0.1l19.1,0.1
							l-19,0.1c-1,0-1.9,0-2.9,0c-5.5,0-10.1,0.5-14.8,3.2c-0.5,0.3-1,0.5-1.5,0.8c-1.6,0.7-2.9,1.4-3.5,2.4
							c-0.9,1.1-0.6,3.3-0.3,5.5c0.1,0.6,0.2,1.2,0.2,1.7l0.1,0.8l0.7,0.3c0.8,0.3,1.8,0.5,2.6,0.7c4.9,0.3,14.6,0.3,23.2,0.3
							c4,0,7.7,0,10.6,0l-21.7,0.1c-0.5-0.1-1.2-0.1-2-0.1c-1.1,0-2.2,0-3.4,0.1C558.6,337.2,557.4,337.2,556.3,337.2z"/>
						<path class="st2" d="M556.3,338c-3.5,0-5.7-0.6-7.4-1.8l-0.2-0.1l-0.2-0.5l0-0.1l-0.1-0.5c0-0.6-0.2-1.4-0.3-2.1
							c-0.3-1.9-0.6-3.6,0.6-5.9c1.2-1.5,2.5-2,3.7-2.6c0.7-0.3,1.3-0.5,1.8-0.9c3.7-2.1,8.3-3.1,14.6-3.1c1.2,0,2.3,0,3.4,0.1
							l19,0.1v1.5l-19,0.1c-1,0-1.9,0-2.9,0c-5.4,0-9.9,0.5-14.4,3.1c-0.4,0.2-0.9,0.5-1.4,0.7l-0.2,0.1c-1.4,0.6-2.7,1.2-3.1,2.1
							c-0.8,1-0.5,3.1-0.2,5.1c0.1,0.6,0.2,1.2,0.2,1.7l0,0.3l0.3,0.1c0.7,0.3,1.6,0.5,2.5,0.7c4.6,0.2,13.7,0.3,21.8,0.3l2.9,0
							c3.3,0,6.4,0,8.9,0v1.5l-21.7,0.1c-1.5-0.2-3.4-0.1-5.3,0l-0.4,0C558.4,337.9,557.3,338,556.3,338z"/>
					</g>
					<g>
						<path class="st2" d="M568.9,319.8c-5,0-10.3,0.6-14.8,3.2c-1.8,1.1-3.8,1.2-5.7,3.6c-1.8,3.3-0.5,5.6-0.4,8.4
							c0.1,0.5-0.2-0.2,0.2,1.3c2.1,1.8,5,2.2,8.1,2.2c2.3,0,4.8-0.2,6.9-0.2c0.7,0,1.3,0,2,0.1l24.2-0.1c47-0.2,98.8-0.4,145.5-1.1
							c-46.7-1.1-98.5-1.1-145.5-1.4c-8-0.1-28.5,0.1-36.1-0.3c-0.8-0.1-1.7-0.4-2.4-0.6c0.1,0.3,0.1,0.4,0.1,0.4
							c-0.1,0-0.5-0.7-0.4-0.7c0,0,0.1,0,0.2,0.1c0.1,0,0.1,0,0.2,0.1v0c-0.2-2-1-5.4,0-6.5c0.5-0.9,2.8-1.7,4.5-2.6
							c4.6-2.6,9.1-3,14.2-3c0.9,0,1.9,0,2.9,0l24.2-0.2c24.2-0.2,72.8-0.5,97-0.6c4.2-0.1,8.7-0.4,13.2-0.4c12.1,0,24,2.1,28,15.7
							c-3.9-15.4-18.8-16.9-32.4-16.9c-3.1,0-6.1,0.1-8.8,0.1c-24.2-0.1-72.9-0.3-97-0.4c0,0-24.1-0.1-24.3-0.1l0,0
							C571.3,319.8,570.1,319.8,568.9,319.8L568.9,319.8z"/>
						<path class="st2" d="M556.3,339.2c-2.7,0-6.1-0.3-8.5-2.4l-0.2-0.1l-0.1-0.2c-0.2-0.9-0.3-1.1-0.2-1.4
							c-0.1-0.8-0.2-1.5-0.3-2.1c-0.3-2-0.7-4.1,0.7-6.7c1.5-1.9,3-2.6,4.3-3.1c0.6-0.2,1.1-0.5,1.6-0.8c3.9-2.2,8.8-3.3,15.2-3.3
							c1.2,0,2.3,0,3.5,0.1c0,0,0,0,0,0c0.5,0,24.2,0.1,24.2,0.1c24.2,0.1,72.9,0.3,97,0.4c1.4,0,2.8,0,4.2,0c1.5,0,3.1,0,4.6,0
							c14.9,0,29.2,2.1,33.1,17.4l-0.7,0.2v0.7c-41.4,0.7-86.2,0.9-129.5,1l-40.3,0.2c-1.7-0.2-3.4-0.1-5.2,0
							C558.7,339.2,557.5,339.2,556.3,339.2z M548.9,335.9c2.1,1.7,5,1.9,7.4,1.9c1.2,0,2.4-0.1,3.6-0.1c1.9-0.1,3.8-0.2,5.4,0
							l40.2-0.2c24.7-0.1,49.8-0.2,74.5-0.4c-18.5-0.2-37.2-0.3-55.5-0.3c-11.9-0.1-23.6-0.1-35-0.2c-3-0.1-7.9-0.1-13.1-0.1
							c-8.6,0-18.3,0-23.1-0.3c-0.5-0.1-1.1-0.2-1.5-0.3v0l-0.1,0c0,0-0.1,0-0.1,0l-0.1,0.2l-0.4,0c-0.7,0-1.2-1.1-1.2-1.4l0-1
							l0.3,0.1c0-0.2,0-0.4-0.1-0.5c-0.3-2.1-0.6-4.2,0.3-5.4c0.3-0.7,1.6-1.3,3.1-2c0.5-0.3,1.1-0.5,1.6-0.8
							c5.4-3,10.8-3.2,17.5-3.1l24.2-0.2c23.2-0.1,69.1-0.5,94.1-0.6c-25-0.1-70.9-0.3-94.1-0.4c0,0-24-0.1-24.2-0.1
							c-1.2-0.1-2.3-0.1-3.4-0.1c-6.2,0-10.8,1-14.5,3.1c-0.6,0.4-1.2,0.6-1.8,0.9c-1.3,0.5-2.5,1-3.7,2.6c-1.1,2.1-0.8,3.8-0.5,5.6
							c0.1,0.7,0.2,1.5,0.3,2.2c0,0.1,0,0.2,0,0.4C548.8,335.4,548.8,335.6,548.9,335.9z M551.6,334.2c0.5,0.2,1.2,0.3,1.8,0.4
							c4.6,0.2,14.3,0.2,22.9,0.2c5.2,0,10.1,0,13.1,0.1c11.4,0.1,23.2,0.1,35,0.2c36.6,0.2,74.4,0.4,109.5,1.2
							c-4.2-12.5-16-14.2-27-14.2c-2.8,0-5.6,0.1-8.3,0.2c-1.7,0.1-3.3,0.1-4.9,0.2c-24.2,0.2-72.8,0.5-97,0.6l-24.2,0.2
							c-6.6-0.1-11.6,0-16.7,2.9c-0.5,0.3-1.1,0.6-1.7,0.8c-1,0.5-2.3,1.1-2.5,1.5c-0.6,0.8-0.3,2.9-0.1,4.3
							C551.5,333.4,551.5,333.8,551.6,334.2z"/>
					</g>
				</g>
				<g>
					<g>
						<path class="st2" d="M630,565.6c-0.2,0-0.4,0-0.6-0.1l0.3-0.1c2.5-1,5.1-2.6,7.7-4.6c-1.9,1.6-3.9,3.2-6,4.7
							C630.9,565.5,630.5,565.6,630,565.6z M628.1,565c0.1,0.1,0.4,0.3,0.4,0.3C628.5,565.3,628.2,565.1,628.1,565z M642.5,556.1
							c7.5-7.8,14.3-18.6,18.6-28.1l0.8-1.8l-7.5,0l-0.6,0c0,0-1.8-0.1-2.2-0.1c-1,0-3.5,0-4.3,2.1c-0.8,1.2-1.8,2.4-2.9,3.4
							c1.1-1.1,2.1-2.3,2.9-3.6c0.7-1.8,3.5-2,5.5-2l1.3,0l8.3-0.1C657.3,537.9,650.8,547.8,642.5,556.1z"/>
						<path class="st2" d="M630,566.4c-0.2,0-0.5,0-0.7-0.1l-2.5-0.5l1-0.4l0.9-1.1l0.4,0.3l-0.2,0.3l0.7-0.3
							c2.4-0.9,4.9-2.5,7.5-4.5l0.9,1.2c-1.9,1.6-4,3.2-6.1,4.7l-0.2,0.1l-0.2,0c-0.2,0-0.3,0-0.5,0.1
							C630.6,566.3,630.3,566.4,630,566.4z M643,556.6l-1-1c6.8-7.1,13.7-17.5,18.5-27.8l0.3-0.8l-6.9,0.1l0,0
							c-0.1,0-1.9-0.1-2.3-0.1c-1.4,0-3,0.2-3.6,1.6c-0.9,1.4-1.9,2.6-3.1,3.6l-1-1.1c1.1-1,2-2.2,2.8-3.4c0.8-2,3.7-2.3,6.1-2.3
							l1.3,0l9.4-0.2l-0.4,1C658,538.3,651.4,548.2,643,556.6z"/>
					</g>
					<g>
						<path class="st2" d="M664.3,524.7c-1.4,0-8.5,0.2-10,0.2c-0.5,0-1,0-1.5,0c-2.6,0-5.7,0.3-6.6,2.6c-3.5,5.6-9.9,8.4-16.3,8.4
							c-6.8,0-13.7-3.1-17.4-9.1c-0.7-0.8-1.8-0.9-2.9-0.9c-1.2,0-2.4,0.2-3.5,0.2c-0.2,0-0.5,0-0.7,0l-6.8,0.1c0,0,7,0.3,7,0.3l0,0
							c1.6,0.3,5.5-0.3,6.2,1c3.7,6.9,11.3,10.5,18.9,10.5c6.8,0,13.7-2.9,17.6-9.1c0.4-1.1,1.8-1.3,3.1-1.3c0.8,0,1.6,0.1,2.2,0.1
							c0.2,0,0.4,0,0.6,0l5.5,0c0.3-0.7,0.6-1.3,0.9-2l1.2,2l-2.1,0c-6,13.1-18.5,32-30.7,36.7c-12.8-10-25.2-22.5-30.6-38.2
							c4.3,16.3,16.5,29.9,29.3,40.4c0.8,0.3,1.5,0.5,2,0.5c0.7,0,1.4-0.2,2.1-0.4C647.2,555.8,657.5,541.5,664.3,524.7L664.3,524.7
							z"/>
						<path class="st2" d="M630,567.6c-0.7,0-1.5-0.2-2.3-0.5l-0.2-0.1c-15.9-12.9-25.8-26.7-29.6-40.8l0.7-0.2l0-0.7l6.8-0.1
							c0.3,0,0.5,0,0.7,0c0.5,0,1,0,1.6-0.1c0.6,0,1.3-0.1,1.9-0.1c1,0,2.5,0.1,3.5,1.2c3.4,5.5,9.8,8.8,16.8,8.8
							c6.7,0,12.6-3,15.7-8.1c1.1-3,5.4-3,8.3-2.9l0.3,0l4.2-0.1c0.7,0,1.5,0,2.2,0l0-0.1l0,0.1c1.6,0,3-0.1,3.6-0.1l1.1,0l-0.4,1
							c-7.3,18-17.9,31.8-32.5,42.2l-0.5,0.2C631.3,567.5,630.7,567.6,630,567.6z M628.3,565.8c1.3,0.5,2.2,0.4,3.3,0.1l0.1,0
							c13.2-9.4,23.1-21.8,30.2-37.6l-1.6,0c-6.7,14.5-19.2,32.1-30.9,36.7l-0.4,0.2l-0.3-0.2c-7.6-5.9-13.8-11.8-18.8-17.8
							C614.7,553.4,620.9,559.7,628.3,565.8z M599.7,526.8c4.7,12.7,14.4,24.7,29.7,36.6c11.7-4.9,23.7-23.2,29.4-35.1l-4.3,0
							c-0.3,0-1,0-1.7,0c-0.4,0-0.8,0-1.2,0c-1.5,0-2.2,0.2-2.4,0.8c-3.9,6-10.7,9.5-18.3,9.5c-8.5,0-16-4.2-19.6-10.9
							c-0.3-0.5-2.4-0.5-3.5-0.5c-0.8,0-1.7,0-2.2-0.1c0,0,0,0,0,0C605.4,527.1,604.5,527.1,599.7,526.8z M618.2,533.3
							c3.5,2.4,7.9,3.8,12.6,3.8c7.1,0,13.5-3.3,17-8.7c0.5-1.4,2.3-1.6,3.7-1.6c0.4,0,0.8,0,1.3,0c0.6,0,1.1,0.1,1.5,0l5.1,0
							c0.2-0.4,0.4-0.9,0.6-1.3c-0.5,0-1,0-1.5,0l-4.2,0.1l-0.4,0c-2.5-0.1-6.2-0.1-7,2.1c-3.5,5.6-9.8,8.9-17,8.9
							C625.6,536.6,621.5,535.4,618.2,533.3z M661.6,525.5l0.9,1.4c0.2-0.5,0.4-1,0.6-1.5C662.7,525.5,662.2,525.5,661.6,525.5z"/>
					</g>
				</g>
				<g>
					<g>
						<path class="st2" d="M630,530.4c-4,0-7.6-1.3-9.7-3.4c-1.4-1.4-2.1-3.1-2-5.1l0.2-10.5c-0.1-0.6,0-1.5,0.4-2.1
							c-0.5,1.1-0.4,2.8-0.3,4.6c0,0.9,0.1,1.8,0,2.7c0,0.9,0,1.7,0,2.5c0,2.8-0.1,5.7,1.8,7.5c2.2,2.2,6.2,3.6,10.5,3.6
							c1.7,0,3.3-0.2,4.7-0.6C633.7,530.1,631.8,530.4,630,530.4z"/>
						<path class="st2" d="M630,531.1c-4.2,0-8-1.4-10.3-3.7c-1.5-1.5-2.3-3.5-2.2-5.7l0.2-10.5c-0.1-0.7,0.1-1.7,0.5-2.5l1.3,0.6
							c-0.4,1-0.3,2.6-0.3,4.2c0,1,0.1,1.9,0,2.8c0,0.8,0,1.7,0,2.5c0,2.6-0.1,5.4,1.6,7c2,2.1,5.9,3.4,10,3.4
							c1.6,0,3.1-0.2,4.5-0.6l0.4,1.4C633.9,530.8,632,531.1,630,531.1z"/>
					</g>
					<g>
						<path class="st2" d="M620.7,506.6c-2.5,0-3.8,3.1-3.5,4.7c0,2.6-0.1,7.8-0.2,10.5c-0.1,6.6,6.5,9.9,13,9.9
							c6,0,12-2.8,12.8-8.3c0-3.4-0.7-12.1-0.9-15.6c-0.2,3.3-0.8,12.3-0.9,15.5c-1.2,4-5.6,5.7-10.1,5.7c-3.8,0-7.6-1.2-9.6-3.3
							c-1.9-1.9-1.3-5.6-1.4-9c0.2-3.2-0.7-7.6,1.2-7.6c0,0,0.1,0,0.2,0c6.6-0.2,13.4-0.8,20.7-1.3c-6.5-0.3-13.5-0.9-20.7-1
							C621,506.7,620.8,506.6,620.7,506.6L620.7,506.6z"/>
						<path class="st2" d="M630,532.4c-4.5,0-8.7-1.5-11.2-4c-1.8-1.8-2.7-4.1-2.6-6.6l0.2-10.5c-0.2-1.2,0.3-2.9,1.3-4
							c1-1.1,2.1-1.7,3.6-1.4c5.1,0.1,10.2,0.4,15.2,0.7c1.8,0.1,3.6,0.2,5.4,0.3v0.7l0.7,0c0.1,0.9,0.2,2.2,0.2,3.6
							c0.3,4,0.7,9.5,0.7,12C642.6,529.7,636.1,532.4,630,532.4z M620.7,507.4c-0.7,0-1.3,0.3-1.9,0.9c-0.8,0.9-1.1,2.2-0.9,2.9
							l-0.2,10.6c0,2.2,0.7,4,2.2,5.5c2.2,2.2,6,3.6,10.1,3.6c5.5,0,11.3-2.4,12.1-7.7c0-1-0.1-2.5-0.2-4.3
							c-0.1,1.8-0.2,3.3-0.2,4.3c-1.3,4.8-6.5,6.4-10.8,6.4c-4.1,0-8.1-1.4-10.2-3.5c-1.7-1.7-1.6-4.3-1.6-7.1c0-0.8,0-1.6,0-2.4
							c0-0.9,0-1.9,0-2.8c-0.1-2.2-0.1-4.2,0.8-5.1c0.3-0.3,0.8-0.5,1.2-0.5l0.3,0c2.8-0.1,5.7-0.3,8.7-0.5
							c-2.9-0.1-5.8-0.3-8.8-0.3C620.9,507.4,620.8,507.4,620.7,507.4z M621,509.7c-0.1,0-0.2,0-0.2,0.1c-0.5,0.5-0.4,2.4-0.3,4
							c0,1,0.1,2,0,2.8c0,0.8,0,1.6,0,2.4c0,2.5-0.1,4.8,1.2,6.1c1.8,1.9,5.4,3,9.1,3c3.8,0,8.3-1.3,9.4-5.2
							c0.1-2.8,0.6-10.7,0.8-14.5c-2.3,0.1-4.5,0.3-6.8,0.5c-4.5,0.3-8.8,0.6-13.1,0.8L621,509.7z"/>
					</g>
				</g>
				<g>
					<g>
						<path class="st2" d="M679,464.5c1.6-1.9,2.3-4,2.1-5.8c0.3-1.6-0.3-3.5-1.8-5.4c-0.3-0.4-0.7-0.8-1.1-1.2
							c2.2,1.6,3.2,4.2,3.2,6.7c0,2.5-1,5-3.1,6.6C678.6,465.1,678.8,464.8,679,464.5z"/>
						<path class="st2" d="M678.8,465.9l-1-1.1c0.2-0.2,0.5-0.5,0.7-0.7c1.4-1.8,2.2-3.7,2-5.2l0-0.1l0-0.1c0.3-1.4-0.3-3.1-1.7-4.8
							c-0.3-0.4-0.7-0.8-1.1-1.2l1-1.1c2.2,1.6,3.5,4.3,3.5,7.3C682.1,461.6,680.8,464.3,678.8,465.9z"/>
					</g>
					<g>
						<path class="st2" d="M672.6,449c-4.4,0-3.4,6-3.3,9.5c0.1,3.9-1.5,9.7,3.9,9.7c0.3,0,0.6,0,0.9,0c11.3-1,11.3-17.9,0.1-18.9
							C673.6,449.1,673.1,449,672.6,449L672.6,449z M669.3,458.5c0.1-2.1,0-4.1,0.4-6.1c0.4-1.5,1.3-2.2,2.5-2.2
							c3.3,0,8.5,5.1,7.7,8.5c0.7,3.5-4,8.3-7.3,8.3c-1.2,0-2.3-0.7-2.8-2.3C669.7,464.7,669.3,458.5,669.3,458.5L669.3,458.5
							L669.3,458.5z"/>
						<path class="st2" d="M673.2,469c-1.5,0-2.7-0.4-3.5-1.3c-1.5-1.6-1.4-4.2-1.2-6.8c0-0.8,0.1-1.6,0.1-2.3v0v0
							c0-0.4,0-0.9-0.1-1.4c-0.2-2.7-0.3-6,1.3-7.7c1-1.1,2.5-1.4,4.6-0.9c6.1,0.5,9,5.7,9,10.2c0,4.5-2.9,9.6-9.2,10.2
							C673.9,468.9,673.5,469,673.2,469z M680.6,458.7c0.2,1.7-0.5,3.6-2,5.5c-1.2,1.5-2.8,2.6-4.3,3.2c5.2-0.6,7.5-4.7,7.5-8.7
							c0-3.9-2.3-8-7.4-8.7c1.7,0.8,3.4,2.2,4.4,3.6C680.3,455.4,680.9,457.2,680.6,458.7z M670.4,464.5c0.4,1.2,1.1,1.7,2.1,1.7
							c1.5,0,3.5-1.2,5-3c1.3-1.5,1.9-3.2,1.7-4.4l0-0.2l0-0.2c0.3-1-0.2-2.5-1.4-4c-1.6-2-4-3.6-5.6-3.6c-0.9,0-1.5,0.5-1.8,1.6
							c-0.2,1.3-0.2,2.6-0.3,4.1c0,0.6,0,1.2-0.1,1.9C670.1,459,670.3,463.8,670.4,464.5z"/>
					</g>
				</g>
				<g>
					<g>
						<path class="st2" d="M581.1,464.5c-1.8-1.6-2.5-3.9-2.5-6.1c0-2.1,0.9-4.3,2.6-5.8c-1.4,1.6-2.3,3.7-2.3,5.9
							C578.7,460.7,579.6,462.8,581.1,464.5z"/>
						<path class="st2" d="M580.6,465.1c-1.8-1.7-2.8-4.1-2.7-6.6c0-2.5,1.1-4.8,2.8-6.4l1,1c-1.4,1.6-2.1,3.5-2.1,5.4
							c-0.1,1.9,0.6,3.8,2.1,5.5L580.6,465.1z"/>
					</g>
					<g>
						<path class="st2" d="M587.3,449.2c-0.3,0-0.7,0-1,0.1c-11.8,0.9-12,17.4-0.3,18.7c0.7,0.2,1.3,0.3,1.9,0.3
							c4.2,0,3.2-5.9,3.1-9.5l0.2-6.2C591.6,450.2,589.3,449.2,587.3,449.2L587.3,449.2z M588.5,467.1c-0.7,0-1.4-0.2-2.2-0.5
							c-3.7-1.2-6.4-4.6-6.2-8c0-3.5,2.7-6.8,6.4-7.8c0.6-0.2,1.3-0.3,2-0.3c1.2,0,2.3,0.5,2.2,2.1l0.2,6.2c-0.1,2.1,0,4.2-0.3,6.2
							C590.4,466.5,589.5,467.1,588.5,467.1L588.5,467.1z M590.9,458.8L590.9,458.8L590.9,458.8L590.9,458.8z M590.9,458.8
							L590.9,458.8L590.9,458.8L590.9,458.8z M590.9,458.8C590.9,458.8,590.9,458.8,590.9,458.8
							C590.9,458.8,590.9,458.8,590.9,458.8L590.9,458.8z M590.9,458.8L590.9,458.8L590.9,458.8L590.9,458.8z M590.9,458.8
							L590.9,458.8L590.9,458.8L590.9,458.8z M590.9,458.8C590.9,458.8,590.9,458.8,590.9,458.8
							C590.9,458.8,590.9,458.8,590.9,458.8L590.9,458.8z M590.9,458.8L590.9,458.8L590.9,458.8L590.9,458.8z M590.9,458.8
							c0,0.7,0,0.9,0,0.9S590.9,459,590.9,458.8L590.9,458.8z"/>
						<path class="st2" d="M587.8,469c-0.6,0-1.3-0.1-2.1-0.3c-6.3-0.7-9.2-5.8-9.1-10.3c0.1-4.4,3.1-9.4,9.6-9.9
							c0.3,0,0.7-0.1,1-0.1c1.7,0,3.2,0.6,4,1.6c0.6,0.7,0.8,1.6,0.6,2.7l-0.2,6.1c0,0.5,0,1,0.1,1.6c0.2,2.7,0.3,5.8-1.2,7.5
							C589.8,468.7,588.9,469,587.8,469z M586.4,450C586.4,450,586.4,450,586.4,450c-5.7,0.5-8.3,4.6-8.4,8.5
							c-0.1,3.9,2.4,8.1,7.9,8.8c0,0,0.1,0,0.2,0c0,0-0.1,0-0.2-0.1c-3.9-1.3-6.8-5-6.6-8.7C579.4,454.7,582.3,451.1,586.4,450
							C586.4,450,586.4,450,586.4,450z M588.5,451.2c-0.5,0-1.1,0.1-1.7,0.3c-3.3,0.9-5.8,3.9-5.9,7.1c-0.2,3.1,2.3,6.2,5.7,7.3
							c2,0.9,3.1,0.7,3.3-0.9c0.2-1.4,0.2-2.7,0.3-4.1c0-0.4,0-0.8,0-1.1h0l0-0.5c0-0.1,0-0.1,0-0.2l-0.2-0.2l0.2-0.2l-0.2-6
							c0-0.5-0.1-0.9-0.3-1.1C589.4,451.2,588.9,451.2,588.5,451.2z"/>
					</g>
				</g>
			</g>
			<g>
				<g>
					<g>
						<path class="st2" d="M465.5,366.1c-10.1-0.6-18-4-23.8-9c5.9,4.8,13.7,8.1,23.8,8.5c10-0.2,17.9-3.2,23.8-7.9
							C483.4,362.5,475.5,365.8,465.5,366.1z"/>
						<path class="st2" d="M465.4,366.8L465.4,366.8c-9.7-0.5-17.9-3.6-24.2-9.2l1-1.1c6.2,5.1,14.1,8,23.3,8.4
							c9.2-0.2,17-2.8,23.3-7.7l0.9,1.2C483.3,363.6,475.1,366.5,465.4,366.8L465.4,366.8L465.4,366.8z"/>
					</g>
					<g>
						<path class="st2" d="M466.2,290.9c-50.2,1-51.3,73.7-0.8,76.4C516,365.8,516.5,292.8,466.2,290.9c48.7,1.9,47.1,72.5-0.7,73.4
							C417.5,362.1,417.4,292.3,466.2,290.9L466.2,290.9z"/>
						<path class="st2" d="M465.5,368.1c-26.6-1.4-38.4-21.6-38.1-39.8c0.3-18,12.6-37.6,38.9-38.1l0,0.7l0-0.7
							c26.2,1,38.1,20.8,38.1,38.8C504.3,347.3,492.1,367.3,465.5,368.1z M428.8,328.1c0,0.1,0,0.1,0,0.2
							c-0.3,17.5,11,36.9,36.6,38.3c25.6-0.8,37.4-20,37.4-37.6c0-1.1,0-2.2-0.1-3.3c0,0.7,0,1.4,0,2c-0.2,17.6-11.9,36.8-37.3,37.3
							C440.5,364,429.1,345.3,428.8,328.1z M466.2,291.7c-17.2,0.5-35.7,11.8-35.9,35.5c-0.1,16.8,10.8,35.3,35.2,36.4
							c24.3-0.5,35.6-18.9,35.8-35.8C501.6,304,483.3,292.4,466.2,291.7z"/>
					</g>
				</g>
			</g>
			<g>
				<g>
					<path class="st2" d="M514.5,493.8c6.3-15,6.7-31.1,1.1-45.4C521.6,462.5,521.2,479.1,514.5,493.8z"/>
					<path class="st2" d="M515.2,494.1l-1.3-0.6c6.2-14.8,6.7-30.7,1.1-44.9l1.4-0.6C522.4,462.5,522,479.2,515.2,494.1z"/>
				</g>
				<g>
					<path class="st2" d="M508.7,427.5c-0.1,0-0.3,0-0.5,0c-2.5,0.5-4.3,3.4-3,5.6c18.5,22.5,16.4,52.2-0.3,75
						c-0.8,2.4,1.4,3.9,3.4,3.9c0.5,0,1-0.1,1.4-0.3c1.1-0.3,1.8-0.5,3-1.1c9.6-11.4,13.8-26.6,13.7-41.3c0-13.7-4-27.8-12.8-38.4
						C512.4,429.6,511.2,427.5,508.7,427.5L508.7,427.5z M508.3,510.4c-1.2,0-2.1-0.4-1.7-1.8c18.4-21.8,20.2-54.7,0.2-76.3
						c-1-1.2,0.4-2.9,1.8-3.4c0.1,0,0.3,0,0.4,0c1.2,0,2.5,1.5,3.7,2.8c9.4,10.1,13.5,24,13.8,37.6c-0.1,14.6-4.5,29.5-14.4,40.2
						C511.2,509.9,509.6,510.4,508.3,510.4L508.3,510.4z"/>
					<path class="st2" d="M508.3,512.8c-1.5,0-2.9-0.7-3.7-1.7c-0.5-0.6-0.9-1.7-0.4-3.1l0.1-0.2c17.6-23.9,17.7-53,0.3-74.1
						c-0.7-1.2-0.8-2.5-0.2-3.8c0.7-1.5,2.1-2.6,3.7-3c0.3,0,0.5,0,0.6,0c2.4,0,3.8,1.7,4.8,3c0.2,0.2,0.4,0.5,0.6,0.7
						c8.4,10.2,13,24,13,38.9c0.1,16.3-4.8,31.2-13.8,41.8l-0.2,0.2c-1.1,0.5-1.8,0.8-2.7,1l-0.4,0.1
						C509.5,512.6,508.9,512.8,508.3,512.8z M505.5,508.4c-0.2,0.6-0.1,1.2,0.3,1.7c0.7,1,2.5,1.4,3.6,0.9l0.1,0
						c-1.5,0.2-2.9,0-3.4-0.7c-0.4-0.5-0.5-1.1-0.2-1.9l0.1-0.3c19.1-22.5,19.2-54.9,0.2-75.3c-0.5-0.6-0.6-1.4-0.4-2.1
						c0.3-1,1.3-2,2.5-2.4c0.1,0,0.1,0,0.2,0c-0.1,0-0.1,0-0.2,0c-1,0.2-2.1,1.1-2.5,2.1c-0.4,0.8-0.4,1.7,0.1,2.4
						C523.5,454.2,523.5,484,505.5,508.4z M507.2,508.9c0,0.2,0,0.4,0,0.5c0.1,0.1,0.4,0.2,1,0.2c1.1,0,2.5-0.4,3.2-0.7
						c9-9.8,14-23.9,14.1-39.6l0,0c-0.2-14.8-5-27.9-13.6-37.1c-0.8-1-2.1-2.5-3.1-2.5c0,0-0.1,0-0.2,0c-0.6,0.2-1.3,0.9-1.5,1.4
						c-0.1,0.3,0,0.5,0.1,0.8C526.8,452.7,526.7,485.8,507.2,508.9z"/>
				</g>
			</g>
			<g>
				<g>
					<path class="st2" d="M325,485c-3.9-13.9-2.2-29.4,4.8-42C323.3,456.4,321.6,471.5,325,485z"/>
					<path class="st2" d="M324.3,485.2c-4-14.2-2.1-30.1,4.9-42.5l1.3,0.7c-6.4,12.9-8.1,28-4.8,41.4L324.3,485.2z"/>
				</g>
				<g>
					<path class="st2" d="M334.5,427.6c-0.7,0-1.3,0.2-2,0.3c-13.1,10.6-15.7,30.4-15.8,46.5c-0.3,13.2,6.4,25.3,14,35.6
						c0.9,1.2,2,1.5,3,1.5c0.6,0,1.2-0.1,1.8-0.1c0.6,0,1.1,0.1,1.6,0.3c-0.6-2.5,0.5-4-0.8-6.9c-17.1-20.5-14.5-51.9,1.4-72
						c-0.1-1.6,0.1-3.1-1.1-4.6C335.8,427.8,335.1,427.6,334.5,427.6L334.5,427.6z M333.4,510.3c-0.8,0-1.5-0.2-1.7-0.8
						c-8.2-9.9-15-21.7-14.9-35c0.1-13.2,2.2-27,9.9-38c2.2-3,4.9-7.1,7.5-7.1c0.4,0,0.7,0.1,1,0.2c0.5,0.6,0.5,2.5,0.5,3.4
						c-18.1,19.2-18.9,53.4-0.6,73.1c0.6,0.9,0.3,3.1,0.4,4.2c0.1,0,0.1,0,0.2,0c0.2,0,0.4,0,0.6,0c-0.3,0.4-0.5,0.6-0.6,0.6
						c-0.1,0-0.2-0.2-0.2-0.6C334.8,510.2,334,510.3,333.4,510.3L333.4,510.3z"/>
					<path class="st2" d="M338.2,513.2l-1.4-0.7c-0.5-0.2-1.3-0.2-2.1-0.2c-0.3,0-0.6,0-0.9,0c-1.1,0-2.5-0.2-3.6-1.8
						c-6.8-9.3-14.5-21.8-14.2-36.1c0,0,0,0,0,0c0.1-23,5.4-38.4,16.1-47l0.2-0.1l0.2,0c0.2,0,0.5-0.1,0.7-0.1
						c1.1-0.2,2.5-0.3,3.9,0.5l0.2,0.2c1.1,1.4,1.2,2.8,1.2,4.2c0,0.3,0,0.6,0,0.9l0,0.3l-0.2,0.2c-16.8,21.3-17.4,51.9-1.4,71.1
						l0.1,0.2c0.9,1.8,0.8,3.2,0.7,4.5c0,0.8-0.1,1.6,0.1,2.6L338.2,513.2z M334.2,430c-2,0-4.4,3.2-6.2,5.8l-0.7,1
						c-6.5,9.3-9.6,21.2-9.8,37.6c-0.1,11.1,4.8,22.4,14.8,34.5l0.1,0.2c0.1,0.1,0.2,0.4,1.1,0.4c0.3,0,0.7,0,1,0c0.1,0,0.2,0,0.3,0
						c0-0.1,0-0.3,0-0.5c0-0.8,0-2.2-0.2-2.6c-18.2-19.5-18-54,0.5-73.8c0-1.4-0.1-2.2-0.2-2.5C334.6,430,334.4,430,334.2,430z
						 M336.2,509.4C336.2,509.4,336.2,509.4,336.2,509.4c0-0.1,0-0.3,0-0.4c0.1-1.2,0.1-2.2-0.5-3.7c-16.4-19.6-15.8-50.8,1.2-72.6
						c0-0.2,0-0.4,0-0.6c0-1.2-0.1-2.2-0.9-3.2c-0.7-0.4-1.2-0.5-1.5-0.5c-0.4,0-0.8,0.1-1.1,0.2c-0.2,0-0.4,0.1-0.6,0.1
						c-0.1,0.1-0.2,0.2-0.4,0.3c1-0.5,2.1-0.6,3.1-0.1l0.2,0.2c0.6,0.7,0.7,2.2,0.6,3.8v0.3l-0.2,0.4c-18.2,19.2-18.5,52.9-0.6,72.1
						c0.6,0.9,0.6,2.3,0.6,3.5C336.2,509.2,336.2,509.3,336.2,509.4z"/>
				</g>
			</g>
			<g>
				<g>
					<path class="st2" d="M493.1,489.6c6.7-10.7,7.5-24.2,2.6-35.9C501.1,464.8,500.3,479.1,493.1,489.6l-0.1,0.2L493.1,489.6z"/>
					<path class="st2" d="M493.6,490.2l-1.3-0.7l0.1-0.3c6.5-10.3,7.4-23.5,2.5-35.2l1.3-0.6c5.6,11.6,4.6,26-2.6,36.6L493.6,490.2z
						"/>
				</g>
				<g>
					<path class="st2" d="M491.4,437.6c-1,0-2.1,0.4-2.8,1.2c-1.6,1.1-1.5,3.9-0.4,5.1c10.7,12.5,12.7,31,3.8,45.1l-4.3,8
						c-1.1,1.6-0.1,4.4,1.5,5.1c0.5,0.5,1.2,0.6,1.9,0.6c1.3,0,2.6-0.7,3.2-1.5c8.6-9.2,11.5-21.9,11.1-33.9
						c-0.2-10.5-4.2-21.5-11.8-29C493,437.9,492.2,437.6,491.4,437.6L491.4,437.6z M491.5,501.1c-1.6,0-3-1.8-2-3.2l4.7-7.7
						c8.8-13,8.5-31.7-1.7-43.9c-1.8-2.4-4.9-4.7-2.9-6.5c0.5-0.6,1.1-0.9,1.7-0.9c1.6,0,3.3,1.9,4.6,3.5c5.8,6.9,9.1,15.9,9.4,24.9
						c0.2,12-3.3,24.7-12.1,32.8C492.7,500.9,492.1,501.1,491.5,501.1L491.5,501.1z"/>
					<path class="st2" d="M491,503.5c-0.9,0-1.6-0.2-2.2-0.7c-0.9-0.4-1.7-1.5-2.1-2.7c-0.4-1.3-0.2-2.5,0.4-3.4l4.3-8
						c8.5-13.5,7-31.7-3.7-44.3c-0.7-0.9-1.1-2.3-0.9-3.6c0.1-1.1,0.6-2,1.4-2.5c1.4-1.5,4.5-1.8,5.9-0.3c7,6.9,11.4,17.4,12,28.3
						c0,0.4,0,0.8,0.1,1.2c0,0.5,0,0.9,0,1.4c0.1,9.8-1.9,23-11.3,33.1C494,502.8,492.5,503.5,491,503.5z M489.4,439
						c-0.1,0.1-0.1,0.1-0.2,0.2l-0.1,0.1c-0.6,0.4-0.8,1.2-0.9,1.6c-0.1,0.9,0.1,1.9,0.6,2.5c11.1,13,12.7,31.9,3.9,46l-4.3,8
						c-0.4,0.6-0.5,1.4-0.2,2.2c0.2,0.9,0.8,1.6,1.4,1.8l0.2,0.1c0.5,0.4,1,0.5,1.4,0.5c0.6,0,1.2-0.2,1.7-0.5
						c-0.4,0.2-0.9,0.3-1.2,0.3c-1.1,0-2.3-0.7-2.8-1.8c-0.4-0.9-0.4-1.9,0.2-2.6l4.7-7.6c8.7-12.9,8-31.4-1.6-43
						c-0.4-0.6-0.9-1.1-1.3-1.6c-1.6-1.8-3.5-4-1.5-5.9C489.2,439.2,489.3,439.1,489.4,439z M493.8,500.7
						C493.8,500.7,493.8,500.7,493.8,500.7C493.7,500.7,493.7,500.8,493.8,500.7C493.7,500.8,493.8,500.7,493.8,500.7z M491.4,439.7
						c-0.3,0-0.6,0.1-1.1,0.6c-0.9,0.9-0.5,1.8,1.5,4c0.5,0.5,1,1.1,1.4,1.7c10,12.1,10.8,31.3,1.7,44.7l-4.7,7.6
						c-0.3,0.5-0.2,0.9-0.1,1.1c0.5,1,1.9,1.3,2.6,0.3c7.6-7,11.9-18.2,12-31c0-0.5,0-0.9,0-1.3c0-0.4,0-0.8,0-1.2
						c-0.5-8.6-3.8-16.9-9.1-23.2C493.3,440.2,492,439.7,491.4,439.7z"/>
				</g>
			</g>
			<g>
				<g>
					<path class="st2" d="M347.2,485.3c-2-4.2-3.3-8.7-3.4-15.3c0.1-6,1.6-12,4.3-17.2C343.4,462.9,343.1,474.9,347.2,485.3z"/>
					<path class="st2" d="M346.5,485.6c-2.3-4.8-3.4-9.6-3.5-15.7c0.1-6.1,1.6-12.2,4.4-17.6l1.3,0.6c-4.6,10-4.9,21.7-0.9,32
						L346.5,485.6z"/>
				</g>
				<g>
					<path class="st2" d="M351.4,437.5c-10.3,6.3-13.5,20.8-13.7,32.2c0.2-11.1,4.2-25.1,13.9-30.7c0,0,0.1,0,0.1,0
						c1,0,2.2,1.1,2.3,2c0.2,0.9-0.8,2.1-1.7,3.2c-6.2,7.1-9.7,16.3-9.8,25.8c0.1,13.7,5.3,18.9,11.6,29.1c-0.5,1.5-1.3,2.1-2.2,2.1
						c-2,0-4.6-3.4-6.1-5.5c-5.5-7.2-8-16.4-8-25.5c-0.3,10.7,3.2,21.5,10,29.7c0.9,1.1,2.1,2.7,4.1,2.8c4.8-0.5,4.7-5.7,2-8.3
						c-11.1-14.1-11.1-35,0-49.1C356.8,442.7,356.5,437.6,351.4,437.5L351.4,437.5z M337.7,469.8c0,0.2,0,0.4,0,0.5
						C337.7,470.1,337.7,469.9,337.7,469.8L337.7,469.8z"/>
					<path class="st2" d="M351.9,503.5c-2.4-0.1-3.7-1.7-4.6-2.8l-0.2-0.2c-6.8-8.2-10.5-19.2-10.2-30.2l0-0.5h1.1l-1.1,0
						c0.1-7.4,1.7-25.3,14.1-32.8l0.2-0.1h0.2c2.3,0,4,1.1,4.7,2.8c0.8,2,0.1,4.6-1.7,6.3c-10.8,13.6-10.8,34.4,0,48.1
						c1.7,1.6,2.5,4.3,1.7,6.4C355.6,502.2,354.1,503.3,351.9,503.5z M349.9,501.2c0.5,0.4,1.2,0.8,2,0.8c1.5-0.2,2.5-0.9,2.9-2.1
						c0.5-1.5-0.1-3.6-1.4-4.9c-11.3-14.3-11.3-35.8,0-50.1c1.4-1.4,2-3.3,1.4-4.8c-0.4-1-1.2-1.6-2.4-1.8c1.1,0.4,2.2,1.5,2.4,2.4
						c0.2,1.2-0.8,2.6-1.9,3.8c-6.1,7-9.5,16-9.6,25.3c0.1,11.1,3.6,16.4,8.3,23.8c1,1.5,2,3.2,3.1,4.9l0.2,0.3l-0.1,0.3
						c-0.8,2.2-2,2.6-2.9,2.6C351.2,502,350.5,501.7,349.9,501.2z M338.5,470.3c0,9.5,2.8,18.4,7.9,25c1.3,1.7,3.9,5.2,5.6,5.2
						c0.5,0,1-0.5,1.4-1.3c-1-1.6-2-3.1-2.9-4.6c-4.7-7.3-8.5-13.1-8.6-24.6c0.1-9.7,3.7-19.1,10-26.3c1.1-1.3,1.6-2.1,1.5-2.5
						c-0.1-0.5-1-1.3-1.5-1.4c-9.6,5.8-13.1,19.7-13.3,30l0,0l0,0h0C338.5,470,338.5,470.1,338.5,470.3z"/>
				</g>
			</g>
			<g>
				<g>
					<g>
						<path class="st2" d="M473.8,319.9c-1.9-1.7-4.4-2.8-7.6-2.9l0,0c-3.3,0-5.9,1.1-7.9,2.7c1.8-1.9,4.4-3.1,7.9-3.2
							C469.6,316.8,472.1,318.1,473.8,319.9z"/>
						<path class="st2" d="M473.3,320.5c-1.9-1.7-4.4-2.6-7.2-2.7c-2.9,0-5.4,0.9-7.4,2.6l-1-1.1c2.1-2.1,5-3.3,8.4-3.4
							c3.4,0.2,6.1,1.4,8.1,3.6L473.3,320.5z"/>
					</g>
					<g>
						<path class="st2" d="M466.2,315.3c-16.1,0.4-16.3,24-0.5,24.3c0.1,0,0.2,0,0.2,0C481.5,339.6,482.3,316.3,466.2,315.3
							L466.2,315.3z M465.7,339.6c-14.5-0.7-13.1-21.3,0.4-21.3C479.8,318.8,480.1,339.4,465.7,339.6L465.7,339.6z"/>
						<path class="st2" d="M465.7,340.3L465.7,340.3c-8.6-0.1-12.5-6.6-12.5-12.6c0-6.4,4.4-13,13-13.2h0.1
							c8.8,0.5,12.6,7.3,12.5,13.4c-0.2,6-4.2,12.4-12.8,12.4L465.7,340.3L465.7,340.3z M466.1,319c-6.4,0-9.9,5-10,9.9
							c-0.1,4.7,2.8,9.6,9.6,9.9c6.8-0.1,10-5,10-9.7C475.8,324.4,472.8,319.3,466.1,319z M466.1,317.5c7,0.3,10.8,5.5,11,10.8
							c0-0.1,0-0.3,0-0.4c0.2-5.4-3.2-11.4-11-11.9c-7.9,0.2-11.5,6.2-11.5,11.7c0,0.1,0,0.2,0,0.3
							C455.2,322.7,459.1,317.5,466.1,317.5z"/>
					</g>
				</g>
			</g>
		</g>
		<g>
			<g>
				<path class="st2" d="M330.9,147.8C273,261.2,212.2,373.1,150.1,484.2v-10.7c32.5,54.7,64.1,109.9,96.1,164.9
					c31.4,55.3,63.2,110.4,94,166.1l-9.3-5.4c126.8,1.4,253.5,4.4,380.2,10.8c-128.6,6.4-257.4,9.4-386.2,10.8
					c-33.7-56.5-66.3-113.5-99.3-170.4c-32.4-57.2-65.2-114.1-97.1-171.6C194.1,367.2,261.1,256.6,330.9,147.8L330.9,147.8z"/>
				<path class="st2" d="M324.5,821.4l-0.2-0.4c-24.7-41.4-49.3-83.9-73-125c-8.8-15.1-17.5-30.3-26.3-45.4
					c-8.6-15.1-17.2-30.2-25.8-45.3c-23.5-41.3-47.9-84-71.3-126.3l-0.2-0.4l0.2-0.4C202.8,351.2,267.1,246,330.3,147.4l1.3,0.7
					C280,249.1,223.5,354.2,154,478.6c22.4,37.8,44.7,76.3,66.3,113.6c8.8,15.2,17.6,30.5,26.5,45.7c8.9,15.7,17.8,31.3,26.7,46.9
					c21.2,37.1,43,75.5,64.2,113.5c142.3,1.7,261.2,5.1,373.5,10.7v1.5c-116.1,5.8-238.9,9.2-386.2,10.8L324.5,821.4z M129.4,478.6
					c23.3,42.2,47.6,84.8,71.1,125.9c8.6,15.1,17.2,30.2,25.8,45.3c8.8,15.1,17.5,30.3,26.3,45.4c23.7,40.9,48.2,83.2,72.8,124.6
					c140.8-1.5,259.1-4.7,370.6-10.1c-107.6-5.2-221.8-8.3-357.4-9.9c0.8,1.4,1.5,2.8,2.3,4.2l1.3,2.3l-14-8.1l2.8,0
					c1.7,0,3.4,0,5,0.1c-21-37.8-42.7-75.9-63.8-112.8c-8.9-15.6-17.8-31.2-26.7-46.9c-8.9-15.2-17.7-30.5-26.5-45.7
					c-21.4-37.1-43.6-75.3-65.9-112.9c-0.8,1.5-1.6,2.9-2.5,4.4l-1.4,2.5v-16.2l1.4,2.3c0.8,1.4,1.6,2.7,2.4,4.1
					c66.2-118.5,120.6-219.5,170.1-316C262.8,255.9,200.9,357.2,129.4,478.6z M333.8,799.8l4.5,2.6c-0.5-0.9-1-1.7-1.4-2.6
					C335.8,799.8,334.8,799.8,333.8,799.8z M150.8,476.1v5.2c0.5-0.9,1-1.8,1.5-2.7C151.8,477.8,151.3,477,150.8,476.1z"/>
			</g>
			<g>
				<path class="st2" d="M745.9,788.1c57.9-113.4,118.7-225.3,180.8-336.4v10.7c-32.5-54.7-64.1-109.9-96.1-164.9
					c-31.4-55.3-63.2-110.4-94-166.1l9.3,5.4c-126.8-1.4-253.5-4.4-380.2-10.8c128.6-6.4,257.4-9.4,386.2-10.8
					c33.7,56.5,66.3,113.5,99.3,170.4c32.5,57.1,65.2,114.1,97,171.6C882.7,568.7,815.7,679.3,745.9,788.1L745.9,788.1z"/>
				<path class="st2" d="M746.5,788.5l-1.3-0.7c51.6-101,108.1-206.2,177.6-330.5c-22.4-37.7-44.7-76.2-66.2-113.5
					c-8.8-15.3-17.7-30.5-26.5-45.8c-8.8-15.6-17.7-31.2-26.6-46.7c-21.2-37.2-43.1-75.6-64.3-113.7
					c-142.3-1.7-261.1-5.1-373.5-10.7v-1.5c116.1-5.8,238.9-9.2,386.2-10.8l0.4,0l0.2,0.4c24.7,41.5,49.3,83.9,73,125
					c8.7,15.1,17.5,30.2,26.3,45.3c8.5,14.9,17,29.9,25.5,44.8c23.6,41.5,48.1,84.4,71.6,126.9l0.2,0.4l-0.2,0.4
					C874,584.8,809.7,689.9,746.5,788.5z M923.7,458.7c-66.2,118.4-120.5,219.4-170.1,316.1C814,680,875.9,578.7,947.4,457.2
					c-23.4-42.4-47.8-85.1-71.4-126.5c-8.5-14.9-17-29.8-25.5-44.8c-8.8-15.1-17.5-30.2-26.2-45.3c-23.7-41-48.2-83.3-72.8-124.6
					c-140.8,1.5-259.1,4.7-370.6,10.1c107.6,5.2,221.9,8.3,357.4,9.9c-0.8-1.4-1.5-2.8-2.3-4.2l-1.3-2.3l14,8.1l-2.8,0
					c-1.7,0-3.4,0-5-0.1c21,37.9,42.8,76,63.9,112.9c8.9,15.6,17.8,31.1,26.6,46.7c8.9,15.2,17.7,30.5,26.5,45.8
					c21.4,37,43.6,75.3,65.8,112.8c0.8-1.5,1.6-2.9,2.5-4.4l1.4-2.5v16.2l-1.4-2.3C925.3,461.5,924.5,460.1,923.7,458.7z
					 M924.5,457.2c0.5,0.8,1,1.7,1.5,2.5v-5.2C925.5,455.5,925,456.4,924.5,457.2z M740,136c1,0,2,0,3.1,0l-4.5-2.6
					C739,134.3,739.5,135.2,740,136z"/>
			</g>
		</g>
	</g>
	<g>
		<path class="st2" d="M260,901.5l15.2-41.5h6.8l-20.3,52.6h-3.5L237.7,860h6.7L260,901.5z"/>
		<path class="st2" d="M291,860h6.3v52.6H291V860z"/>
		<path class="st2" d="M310.6,860h16.8c19.8,0,26.8,11.4,26.8,26.2c0,13.6-7.5,26.4-26.1,26.4h-17.4V860z M316.9,907.4h9.2
			c15.2,0,21.4-9.6,21.4-21.1c0-12.6-6.1-21-20.9-21h-9.7L316.9,907.4L316.9,907.4z"/>
		<path class="st2" d="M365.2,860h29.6v5.3h-23.3v17h18.8v5.3h-18.8v19.8H395v5.3h-29.8V860z"/>
		<path class="st2" d="M401.7,886.1c0-14.1,7.5-27.2,24-27.2c16.6,0,24.2,12.5,24.2,27.1c0,15-7.5,27.7-24.2,27.7
			C409,913.7,401.7,900.7,401.7,886.1z M443.1,886c0-12.6-5.7-21.5-17.4-21.5c-11.7,0-17.2,9.7-17.2,21.6c0,12.5,5.5,22.2,17.2,22.2
			C437.4,908.2,443.1,898.7,443.1,886z"/>
		<path class="st2" d="M467.2,890.6v22h-6.3V860h15.5c10.3,0,17,4.3,17,14.1c0,9.7-6,16.5-20,16.5H467.2z M467.2,885.4h6.3
			c8.6,0,13.4-3.6,13.4-11.2c0-6.3-4.6-8.9-11.8-8.9h-7.9V885.4z"/>
		<path class="st2" d="M502.2,886.1c0-14.1,7.5-27.2,24-27.2c16.7,0,24.2,12.5,24.2,27.1c0,15-7.5,27.7-24.2,27.7
			C509.5,913.7,502.2,900.7,502.2,886.1z M543.6,886c0-12.6-5.7-21.5-17.4-21.5c-11.7,0-17.2,9.7-17.2,21.6
			c0,12.5,5.5,22.2,17.2,22.2C537.8,908.2,543.6,898.7,543.6,886z"/>
		<path class="st2" d="M595.9,913c-3.1,0-5.7-1.1-8.1-5.1l-8.3-13.8c-1.7-2.9-2.8-4.7-7-4.7h-4.9v23.2h-6.3V860h15.5
			c10.4,0,16.7,4.9,16.7,13.7c0,7.2-3.4,13.1-11.9,15c1.9,1,3.5,3,4.6,5l6.8,11.2c1.3,2.1,2.4,2.7,3.8,2.7h1.7v5
			C597.8,912.9,597,913,595.9,913z M567.7,883.9h8.6c8.1,0,10.8-4,10.8-10.1c0-5.8-4.4-8.5-11.8-8.5h-7.7V883.9z"/>
		<path class="st2" d="M618.2,865.3h-17.8V860h41.9v5.3h-17.8v47.4h-6.3L618.2,865.3L618.2,865.3z"/>
		<path class="st2" d="M652.6,860h29.6v5.3h-23.3v17h18.8v5.3h-18.8v19.8h23.6v5.3h-29.8L652.6,860L652.6,860z"/>
		<path class="st2" d="M727.6,913c-3.1,0-5.7-1.1-8.1-5.1l-8.3-13.8c-1.7-2.9-2.8-4.7-7-4.7h-4.9v23.2H693V860h15.5
			c10.4,0,16.7,4.9,16.7,13.7c0,7.2-3.4,13.1-11.9,15c1.9,1,3.5,3,4.6,5l6.8,11.2c1.3,2.1,2.4,2.7,3.8,2.7h1.7v5
			C729.5,912.9,728.6,913,727.6,913z M699.3,883.9h8.6c8.1,0,10.8-4,10.8-10.1c0-5.8-4.4-8.5-11.8-8.5h-7.7V883.9z"/>
		<path class="st2" d="M734,886.1c0-14.1,7.5-27.2,24-27.2c16.7,0,24.2,12.5,24.2,27.1c0,15-7.5,27.7-24.2,27.7
			C741.3,913.7,734,900.7,734,886.1z M775.4,886c0-12.6-5.7-21.5-17.4-21.5c-11.7,0-17.2,9.7-17.2,21.6c0,12.5,5.5,22.2,17.2,22.2
			C769.7,908.2,775.4,898.7,775.4,886z"/>
		<path class="st2" d="M811.3,860h29.6v5.3h-23.3v17h18.8v5.3h-18.8v19.8h23.6v5.3h-29.8L811.3,860L811.3,860z"/>
		<path class="st2" d="M367.4,954.3h6.3v52.6h-6.3V954.3z"/>
		<path class="st2" d="M387,954.3h7.1l27.7,38v-38h6.3v52.6h-3.6L393.3,964v42.9H387L387,954.3L387,954.3z"/>
		<path class="st2" d="M456.2,959.5h-17.8v-5.3h41.9v5.3h-17.8v47.4h-6.3L456.2,959.5L456.2,959.5z"/>
		<path class="st2" d="M490.5,954.3h29.6v5.3h-23.3v17h18.8v5.3h-18.8v19.8h23.6v5.3h-29.8L490.5,954.3L490.5,954.3z"/>
		<path class="st2" d="M565.5,1007.3c-3.1,0-5.7-1.1-8.1-5.1l-8.3-13.8c-1.7-2.9-2.8-4.7-7-4.7h-4.9v23.2h-6.3v-52.6h15.5
			c10.4,0,16.7,4.9,16.7,13.7c0,7.2-3.4,13.1-11.9,15c1.9,1,3.5,3,4.6,5l6.8,11.2c1.3,2.1,2.4,2.7,3.8,2.7h1.7v5
			C567.4,1007.1,566.5,1007.3,565.5,1007.3z M537.2,978.1h8.6c8.1,0,10.8-4,10.8-10.1c0-5.8-4.4-8.5-11.8-8.5h-7.7V978.1z"/>
		<path class="st2" d="M577.8,954.3h29.7v5.3h-23.4v17.4h19.4v5.3h-19.4v24.7h-6.3L577.8,954.3L577.8,954.3z"/>
		<path class="st2" d="M612.6,980.3c0-14.1,7.5-27.2,24-27.2c16.7,0,24.2,12.5,24.2,27.1c0,15-7.5,27.7-24.2,27.7
			C619.9,1008,612.6,994.9,612.6,980.3z M654,980.3c0-12.6-5.7-21.5-17.4-21.5c-11.7,0-17.2,9.7-17.2,21.6
			c0,12.5,5.5,22.2,17.2,22.2C648.3,1002.5,654,993,654,980.3z"/>
		<path class="st2" d="M671.8,954.3h7.2l27.7,38v-38h6.3v52.6h-3.6L678.1,964v42.9h-6.3V954.3z"/>
		<g>
			<path class="st2" d="M636.5,946.6l3.6-10.2l8,1.8l-8.7,9.7L636.5,946.6z"/>
		</g>
	</g>
</g>
</svg>
