<?xml version="1.0" encoding="UTF-8"?>
<svg id="Layer_1" data-name="Layer 1" xmlns="http://www.w3.org/2000/svg" xmlns:xlink="http://www.w3.org/1999/xlink" viewBox="0 0 670.5 433.2">
  <defs>
    <style>
      .cls-1 {
        fill: url(#Degradado_sin_nombre_16);
      }

      .cls-1, .cls-2, .cls-3, .cls-4, .cls-5 {
        stroke-width: 0px;
      }

      .cls-2 {
        fill: #dd5b19;
      }

      .cls-6 {
        filter: url(#drop-shadow-1);
      }

      .cls-3 {
        fill: #f6a312;
      }

      .cls-4 {
        fill: #f5a214;
      }

      .cls-5 {
        fill: #fff;
      }
    </style>
    <filter id="drop-shadow-1" filterUnits="userSpaceOnUse">
      <feOffset dx="6.17" dy="6.17"/>
      <feGaussianBlur result="blur" stdDeviation="4.4"/>
      <feFlood flood-color="#000" flood-opacity=".75"/>
      <feComposite in2="blur" operator="in"/>
      <feComposite in="SourceGraphic"/>
    </filter>
    <linearGradient id="Degradado_sin_nombre_16" data-name="Degradado sin nombre 16" x1="335.66" y1="188.88" x2="335.66" y2="0" gradientUnits="userSpaceOnUse">
      <stop offset="0" stop-color="#f5a214"/>
      <stop offset="1" stop-color="#e05b19"/>
    </linearGradient>
  </defs>
  <g class="cls-6">
    <polygon class="cls-1" points="444.71 94.44 406.82 160.07 390.18 188.88 281.13 188.88 264.49 160.07 226.61 94.44 281.13 0 390.18 0 444.71 94.44"/>
    <g>
      <path class="cls-5" d="M358.27,76.72c-4.08,12.21-7.95,23.81-11.82,35.41-3.27,9.8-6.54,19.6-9.77,29.42-.41,1.25-.89,1.89-2.4,1.87-6.97-.1-13.95-.06-20.93-.02-1.34,0-1.99-.05-1.47-1.77,7.66-25.15,15.72-50.17,24.41-74.99,2.61-7.45,7.81-11.2,15.11-12.77,6.41-1.38,12.68-.93,18.76,1.57,4.41,1.81,7.6,4.84,9.35,9.36,5.45,14.08,9.9,28.5,14.51,42.86,3.58,11.15,7,22.36,10.6,33.51.64,1.99.16,2.28-1.73,2.25-6.46-.1-12.93-.16-19.38.02-2.2.06-2.96-.75-3.61-2.69-6.86-20.56-13.81-41.09-20.74-61.62-.2-.6-.45-1.19-.9-2.41Z"/>
      <path class="cls-5" d="M325.78,71.7c-.02.19.06.97-.16,1.64-1.93,5.91-3.74,11.87-5.93,17.69-1.22,3.24-3.92,5.26-7.38,6.01-5.45,1.17-10.89,2.36-16.36,3.36-3.79.7-7.15-.42-9.77-3.29-3.71-4.06-7.36-8.18-10.97-12.33-2.54-2.92-3.34-6.37-2.2-10.06,1.69-5.45,3.49-10.87,5.41-16.24,1.27-3.57,3.95-5.81,7.63-6.63,5.44-1.2,10.91-2.25,16.37-3.31,3.93-.76,7.26.5,9.92,3.4,3.52,3.84,6.91,7.79,10.4,11.66,1.95,2.16,3.04,4.63,3.03,8.1Z"/>
      <path class="cls-5" d="M281.7,103.46c-.33,2.41-1.79,5.04-2.4,7.88-1.06,4.92-4.08,7.34-9.01,7.81-2.17.21-4.3.9-6.46,1.27-2.56.45-4.8-.26-6.56-2.2-2.17-2.39-4.34-4.78-6.42-7.24-1.63-1.93-2-4.25-1.29-6.62.92-3.08,1.95-6.13,3.05-9.16.86-2.35,2.57-3.89,5.06-4.44,3.15-.69,6.29-1.41,9.46-1.98,2.54-.46,4.8.29,6.57,2.23,2.07,2.28,4.11,4.59,6.16,6.89,1.28,1.43,1.87,3.12,1.85,5.55Z"/>
      <path class="cls-5" d="M305.09,29.57c-.32,2.41-1.3,4.63-2.07,6.91-2.77,8.17-1.24,6.77-9.87,8.6-1.65.35-3.33.57-4.95,1.03-2.03.58-3.53.02-4.87-1.55-2.14-2.51-4.34-4.97-6.59-7.39-1.42-1.52-1.66-3.14-.99-5.06,1.11-3.18,2.18-6.38,3.19-9.59.55-1.72,1.63-2.68,3.4-3.02,3.38-.66,6.75-1.39,10.12-2.1,1.8-.38,3.29,0,4.54,1.45,2.24,2.62,4.56,5.17,6.86,7.73.76.85,1.31,1.77,1.22,2.97Z"/>
      <path class="cls-5" d="M360.09,106.77h-3.66c-1.97,0-3.79,1.05-4.77,2.76l-1.83,3.17c-.98,1.7-.98,3.81,0,5.51l1.83,3.17c.98,1.7,2.8,2.76,4.77,2.76h3.66c1.97,0,3.79-1.05,4.77-2.76l1.83-3.17c.98-1.7.98-3.81,0-5.51l-1.83-3.17c-.98-1.7-2.8-2.76-4.77-2.76Z"/>
    </g>
  </g>
  <g>
    <g>
      <g>
        <path class="cls-2" d="M93.35,292.58c-3.49,10.45-6.81,20.38-10.12,30.31-2.8,8.39-5.6,16.78-8.36,25.18-.35,1.07-.76,1.62-2.05,1.6-5.97-.08-11.94-.05-17.91-.02-1.15,0-1.71-.04-1.26-1.52,6.55-21.53,13.46-42.94,20.89-64.19,2.23-6.37,6.69-9.59,12.93-10.93,5.49-1.18,10.85-.8,16.06,1.34,3.78,1.55,6.51,4.14,8,8.01,4.67,12.05,8.47,24.39,12.42,36.69,3.07,9.55,5.99,19.14,9.08,28.68.55,1.71.14,1.95-1.48,1.93-5.53-.09-11.06-.13-16.59.02-1.88.05-2.53-.64-3.09-2.3-5.87-17.6-11.82-35.17-17.75-52.74-.17-.52-.38-1.02-.77-2.06Z"/>
        <path class="cls-2" d="M176.24,349.63c-5.4,0-10.81-.06-16.21.01-10.07.14-17.57-4.28-22.91-12.66-3.54-5.56-5.48-11.68-6.17-18.18-1.12-10.49-.14-20.69,4.76-30.22,3.69-7.18,8.89-12.74,16.99-14.96,2.31-.63,4.69-.89,7.08-.89,11.81-.02,23.63.02,35.44-.04,1.46,0,1.93.34,1.9,1.86-.1,5.02-.1,10.05,0,15.07.03,1.55-.37,2-1.95,1.99-10.56-.07-21.11.05-31.67-.08-4.45-.06-7.38,1.93-9.35,5.71-2.49,4.78-2.99,9.92-2.79,15.18.16,4.44,1.06,8.71,3.22,12.65,1.93,3.51,4.66,5.42,8.95,5.34,10.55-.18,21.11-.02,31.67-.1,1.6-.01,1.96.46,1.93,2-.1,5.09-.13,10.18.01,15.26.05,1.84-.6,2.13-2.22,2.11-6.22-.08-12.44-.03-18.66-.03Z"/>
        <path class="cls-2" d="M249.63,293.67c.2,5.68-.39,12.66.31,19.61.5,4.98,2.09,9.56,5.55,13.31,2.33,2.54,5.28,3.75,8.73,3.75,9.74,0,19.48.05,29.22-.05,1.74-.02,2.06.51,2.03,2.1-.1,5.21-.06,10.43-.02,15.64.01,1.16-.22,1.64-1.55,1.63-10.81-.08-21.62.08-32.42-.13-16.21-.32-28.01-10.69-30.77-26.66-.9-5.17-.83-10.34-.75-15.56.18-10.8.1-21.61,0-32.41-.02-1.86.5-2.28,2.29-2.24,5.21.13,10.43.1,15.65,0,1.45-.03,1.78.42,1.76,1.8-.08,5.97-.03,11.93-.03,19.19Z"/>
        <path class="cls-2" d="M223.38,311.32c0,12.12-.03,24.24.04,36.36,0,1.55-.36,2.03-1.95,2-5.34-.1-10.68-.09-16.02,0-1.46.03-1.76-.44-1.76-1.81.04-24.49.04-48.98,0-73.47,0-1.52.55-1.72,1.86-1.71,5.34.07,10.68.09,16.02-.01,1.54-.03,1.86.46,1.85,1.91-.05,12.24-.03,24.49-.03,36.74Z"/>
        <path class="cls-4" d="M65.53,288.29c-.01.16.05.83-.14,1.41-1.65,5.06-3.2,10.16-5.08,15.14-1.05,2.78-3.35,4.51-6.31,5.14-4.66,1-9.32,2.02-14.01,2.88-3.24.6-6.12-.36-8.36-2.82-3.17-3.48-6.3-7-9.39-10.55-2.18-2.5-2.86-5.45-1.88-8.61,1.44-4.67,2.99-9.3,4.63-13.9,1.09-3.05,3.38-4.98,6.53-5.67,4.65-1.03,9.34-1.93,14.02-2.83,3.36-.65,6.21.43,8.49,2.91,3.01,3.29,5.92,6.67,8.9,9.98,1.67,1.85,2.61,3.96,2.59,6.93Z"/>
        <path class="cls-2" d="M27.81,315.47c-.29,2.06-1.53,4.31-2.06,6.75-.91,4.21-3.49,6.28-7.71,6.68-1.86.18-3.68.77-5.53,1.09-2.19.38-4.11-.22-5.62-1.88-1.86-2.04-3.71-4.09-5.5-6.2-1.4-1.65-1.71-3.63-1.11-5.67.78-2.64,1.67-5.25,2.61-7.84.74-2.01,2.2-3.33,4.33-3.8,2.69-.59,5.38-1.21,8.1-1.7,2.18-.39,4.11.25,5.62,1.91,1.77,1.95,3.51,3.93,5.27,5.89,1.09,1.23,1.6,2.67,1.58,4.75Z"/>
        <path class="cls-2" d="M47.83,252.23c-.27,2.06-1.11,3.97-1.77,5.91-2.37,6.99-1.06,5.8-8.45,7.36-1.41.3-2.85.49-4.23.89-1.73.49-3.02.02-4.17-1.33-1.83-2.15-3.71-4.26-5.64-6.33-1.21-1.3-1.42-2.69-.84-4.33.95-2.72,1.86-5.46,2.73-8.21.47-1.47,1.4-2.29,2.91-2.58,2.89-.56,5.78-1.19,8.66-1.8,1.54-.33,2.82,0,3.88,1.24,1.92,2.24,3.9,4.42,5.87,6.62.65.73,1.12,1.51,1.04,2.55Z"/>
        <path class="cls-2" d="M95.07,318.31h-3.46c-1.58,0-3.05.85-3.84,2.22l-1.73,3c-.79,1.37-.79,3.06,0,4.43l1.73,3c.79,1.37,2.26,2.22,3.84,2.22h3.46c1.58,0,3.05-.85,3.84-2.22l1.73-3c.79-1.37.79-3.06,0-4.43l-1.73-3c-.79-1.37-2.26-2.22-3.84-2.22Z"/>
      </g>
      <g>
        <path class="cls-2" d="M340.17,292.73h-21.99v-16.06h64.12v16.06h-21.89v55.53h-20.25v-55.53Z"/>
        <path class="cls-2" d="M404.55,344.88c-6.03-3.2-10.77-7.63-14.22-13.29-3.44-5.66-5.16-12.03-5.16-19.12s1.72-13.46,5.16-19.12c3.44-5.66,8.18-10.09,14.22-13.29,6.03-3.2,12.83-4.81,20.4-4.81s14.37,1.6,20.4,4.81c6.03,3.21,10.77,7.64,14.21,13.29,3.44,5.66,5.17,12.03,5.17,19.12s-1.72,13.47-5.17,19.12c-3.44,5.66-8.18,10.09-14.21,13.29-6.03,3.21-12.83,4.81-20.4,4.81s-14.37-1.6-20.4-4.81ZM434.77,330.36c2.93-1.7,5.25-4.11,6.95-7.21,1.7-3.1,2.56-6.66,2.56-10.69s-.85-7.58-2.56-10.69c-1.71-3.1-4.02-5.5-6.95-7.21-2.93-1.7-6.21-2.56-9.82-2.56s-6.89.85-9.82,2.56c-2.93,1.71-5.25,4.11-6.96,7.21-1.7,3.1-2.56,6.67-2.56,10.69s.85,7.59,2.56,10.69c1.7,3.1,4.02,5.51,6.96,7.21,2.93,1.71,6.2,2.56,9.82,2.56s6.89-.85,9.82-2.56Z"/>
        <path class="cls-2" d="M489.58,292.73h-21.99v-16.06h64.12v16.06h-21.89v55.53h-20.25v-55.53Z"/>
        <path class="cls-2" d="M583.67,334.35h-30.27l-5.62,13.91h-20.66l31.6-71.59h19.94l31.7,71.59h-21.07l-5.62-13.91ZM577.74,319.42l-9.2-22.91-9.2,22.91h18.41Z"/>
        <path class="cls-2" d="M616.09,276.67h20.25v55.53h34.16v16.06h-54.41v-71.59Z"/>
      </g>
    </g>
    <g>
      <path class="cls-3" d="M119.81,390.86l-3.93-5.89h-4.34v5.89h-4.71v-21.14h8.82c1.8,0,3.37.31,4.7.94,1.33.62,2.35,1.51,3.07,2.66.72,1.15,1.08,2.51,1.08,4.08s-.36,2.92-1.09,4.06c-.73,1.14-1.76,2.01-3.1,2.61l4.57,6.79h-5.06ZM118.62,374.67c-.74-.63-1.81-.95-3.23-.95h-3.84v7.37h3.84c1.42,0,2.49-.32,3.23-.97.74-.64,1.11-1.55,1.11-2.72s-.37-2.1-1.11-2.73Z"/>
      <path class="cls-3" d="M143.15,384.07h-11.84c.21,1.01.72,1.8,1.51,2.39.79.58,1.78.88,2.97.88.81,0,1.54-.13,2.17-.38.63-.25,1.22-.65,1.76-1.19l2.42,2.72c-1.47,1.75-3.63,2.63-6.46,2.63-1.77,0-3.33-.36-4.69-1.07-1.36-.71-2.41-1.71-3.14-2.97-.74-1.27-1.11-2.71-1.11-4.32s.36-3.02,1.09-4.3,1.73-2.27,3-2.99c1.27-.71,2.69-1.07,4.26-1.07s2.92.34,4.16,1.03c1.24.68,2.22,1.67,2.92,2.94.71,1.28,1.06,2.76,1.06,4.45,0,.06-.03.48-.09,1.27ZM132.53,378.85c-.7.6-1.13,1.43-1.28,2.48h7.71c-.16-1.03-.58-1.85-1.28-2.46-.7-.61-1.55-.92-2.56-.92s-1.89.3-2.59.91Z"/>
      <path class="cls-3" d="M159.49,375.42c1.19.69,2.13,1.67,2.81,2.93.68,1.26,1.02,2.72,1.02,4.39s-.34,3.14-1.02,4.39c-.68,1.26-1.62,2.23-2.81,2.93-1.19.69-2.52,1.04-3.97,1.04-2,0-3.57-.65-4.71-1.96v7.58h-4.54v-22.1h4.34v1.87c1.12-1.41,2.76-2.11,4.92-2.11,1.46,0,2.78.35,3.97,1.04ZM157.6,386.02c.75-.82,1.12-1.91,1.12-3.28s-.37-2.46-1.12-3.28c-.75-.81-1.7-1.22-2.87-1.22s-2.12.41-2.87,1.22c-.75.82-1.12,1.91-1.12,3.28s.37,2.46,1.12,3.28c.75.81,1.7,1.22,2.87,1.22s2.12-.41,2.87-1.22Z"/>
      <path class="cls-3" d="M169.36,390.03c-1.31-.71-2.33-1.71-3.07-2.97-.74-1.27-1.11-2.71-1.11-4.32s.37-3.05,1.11-4.32c.74-1.27,1.76-2.26,3.07-2.97,1.31-.71,2.79-1.07,4.44-1.07s3.12.36,4.42,1.07c1.3.71,2.32,1.71,3.06,2.97.74,1.27,1.11,2.71,1.11,4.32s-.37,3.05-1.11,4.32c-.74,1.27-1.76,2.26-3.06,2.97-1.3.71-2.77,1.07-4.42,1.07s-3.13-.36-4.44-1.07ZM176.66,386.02c.75-.82,1.12-1.91,1.12-3.28s-.37-2.46-1.12-3.28c-.75-.81-1.7-1.22-2.87-1.22s-2.12.41-2.88,1.22c-.76.82-1.13,1.91-1.13,3.28s.38,2.46,1.13,3.28c.76.81,1.72,1.22,2.88,1.22s2.12-.41,2.87-1.22Z"/>
      <path class="cls-3" d="M186.86,390.61c-1.24-.33-2.23-.75-2.97-1.25l1.51-3.38c.7.46,1.54.84,2.53,1.13.99.29,1.96.44,2.91.44,1.92,0,2.88-.49,2.88-1.48,0-.46-.26-.79-.79-1-.52-.2-1.33-.37-2.42-.51-1.28-.2-2.34-.43-3.17-.69s-1.56-.72-2.17-1.39c-.61-.66-.92-1.61-.92-2.84,0-1.03.29-1.94.86-2.73.57-.79,1.41-1.41,2.5-1.86,1.1-.44,2.39-.66,3.88-.66,1.11,0,2.21.13,3.3.38,1.1.25,2,.6,2.72,1.04l-1.51,3.35c-1.38-.8-2.88-1.21-4.51-1.21-.97,0-1.7.14-2.18.42s-.73.64-.73,1.09c0,.5.26.86.79,1.06.52.2,1.36.39,2.5.57,1.28.22,2.33.46,3.14.71.81.25,1.52.71,2.12,1.37s.9,1.59.9,2.78c0,1.01-.29,1.9-.87,2.69s-1.43,1.39-2.55,1.83c-1.12.43-2.44.65-3.97.65-1.3,0-2.57-.17-3.81-.5Z"/>
      <path class="cls-3" d="M201.09,371.6c-.52-.5-.79-1.13-.79-1.87s.26-1.37.79-1.87c.52-.5,1.2-.75,2.04-.75s1.51.24,2.04.72c.52.48.79,1.09.79,1.81,0,.78-.26,1.43-.79,1.95-.52.51-1.2.77-2.04.77s-1.51-.25-2.04-.75ZM200.86,374.62h4.54v16.24h-4.54v-16.24Z"/>
      <path class="cls-3" d="M212.69,390.03c-1.33-.71-2.37-1.71-3.11-2.97-.75-1.27-1.12-2.71-1.12-4.32s.37-3.05,1.12-4.32c.75-1.27,1.78-2.26,3.11-2.97,1.33-.71,2.83-1.07,4.5-1.07s3.09.36,4.32,1.07c1.23.71,2.13,1.74,2.69,3.06l-3.52,1.96c-.81-1.49-1.99-2.23-3.52-2.23-1.18,0-2.16.4-2.94,1.21-.78.81-1.16,1.9-1.16,3.29s.39,2.49,1.16,3.29c.78.81,1.76,1.21,2.94,1.21,1.55,0,2.73-.75,3.52-2.23l3.52,1.99c-.56,1.29-1.46,2.29-2.69,3.02-1.23.72-2.67,1.09-4.32,1.09s-3.17-.36-4.5-1.07Z"/>
      <path class="cls-3" d="M227.05,371.6c-.52-.5-.79-1.13-.79-1.87s.26-1.37.79-1.87c.52-.5,1.2-.75,2.04-.75s1.51.24,2.04.72c.52.48.79,1.09.79,1.81,0,.78-.26,1.43-.79,1.95-.52.51-1.2.77-2.04.77s-1.51-.25-2.04-.75ZM226.82,374.62h4.54v16.24h-4.54v-16.24Z"/>
      <path class="cls-3" d="M238.59,390.03c-1.31-.71-2.33-1.71-3.07-2.97-.74-1.27-1.11-2.71-1.11-4.32s.37-3.05,1.11-4.32c.74-1.27,1.76-2.26,3.07-2.97,1.31-.71,2.79-1.07,4.44-1.07s3.12.36,4.42,1.07c1.3.71,2.32,1.71,3.06,2.97.74,1.27,1.11,2.71,1.11,4.32s-.37,3.05-1.11,4.32c-.74,1.27-1.76,2.26-3.06,2.97-1.3.71-2.77,1.07-4.42,1.07s-3.13-.36-4.44-1.07ZM245.89,386.02c.75-.82,1.12-1.91,1.12-3.28s-.37-2.46-1.12-3.28c-.75-.81-1.7-1.22-2.87-1.22s-2.12.41-2.88,1.22c-.76.82-1.13,1.91-1.13,3.28s.38,2.46,1.13,3.28c.76.81,1.72,1.22,2.88,1.22s2.12-.41,2.87-1.22ZM244.25,368.19h4.89l-5.27,4.35h-3.55l3.93-4.35Z"/>
      <path class="cls-3" d="M268.86,376.19c1.19,1.21,1.79,3,1.79,5.37v9.3h-4.54v-8.58c0-1.29-.27-2.25-.81-2.88-.54-.63-1.33-.95-2.36-.95-1.15,0-2.06.37-2.74,1.1-.68.74-1.02,1.83-1.02,3.28v8.03h-4.54v-16.24h4.34v1.9c.6-.68,1.35-1.21,2.24-1.58.89-.37,1.87-.56,2.94-.56,1.94,0,3.51.6,4.7,1.81Z"/>
      <path class="cls-3" d="M298.93,368.46v22.4h-4.34v-1.87c-1.12,1.41-2.75,2.11-4.89,2.11-1.47,0-2.81-.34-4-1.03-1.19-.68-2.13-1.66-2.81-2.93-.68-1.27-1.02-2.74-1.02-4.41s.34-3.14,1.02-4.41,1.62-2.24,2.81-2.93c1.19-.68,2.53-1.03,4-1.03,2,0,3.56.65,4.69,1.96v-7.88h4.54ZM293.34,386.02c.76-.82,1.13-1.91,1.13-3.28s-.38-2.46-1.13-3.28c-.76-.81-1.71-1.22-2.85-1.22s-2.12.41-2.88,1.22c-.76.82-1.14,1.91-1.14,3.28s.38,2.46,1.14,3.28c.76.81,1.72,1.22,2.88,1.22s2.1-.41,2.85-1.22Z"/>
      <path class="cls-3" d="M318.37,384.07h-11.84c.21,1.01.72,1.8,1.51,2.39.79.58,1.79.88,2.97.88.81,0,1.54-.13,2.17-.38.63-.25,1.22-.65,1.76-1.19l2.42,2.72c-1.47,1.75-3.63,2.63-6.46,2.63-1.77,0-3.33-.36-4.68-1.07-1.36-.71-2.41-1.71-3.14-2.97-.74-1.27-1.11-2.71-1.11-4.32s.36-3.02,1.09-4.3,1.73-2.27,3-2.99c1.27-.71,2.69-1.07,4.26-1.07s2.92.34,4.16,1.03c1.24.68,2.22,1.67,2.92,2.94.71,1.28,1.06,2.76,1.06,4.45,0,.06-.03.48-.09,1.27ZM307.75,378.85c-.7.6-1.12,1.43-1.28,2.48h7.71c-.16-1.03-.58-1.85-1.28-2.46-.7-.61-1.55-.92-2.56-.92s-1.89.3-2.59.91Z"/>
      <path class="cls-3" d="M321.48,368.46h4.54v22.4h-4.54v-22.4Z"/>
      <path class="cls-3" d="M353.73,384.07h-11.84c.21,1.01.72,1.8,1.51,2.39.79.58,1.78.88,2.97.88.82,0,1.54-.13,2.17-.38.63-.25,1.22-.65,1.76-1.19l2.42,2.72c-1.47,1.75-3.63,2.63-6.46,2.63-1.77,0-3.33-.36-4.69-1.07s-2.41-1.71-3.14-2.97c-.74-1.27-1.11-2.71-1.11-4.32s.36-3.02,1.09-4.3c.73-1.28,1.73-2.27,3-2.99,1.27-.71,2.69-1.07,4.26-1.07s2.92.34,4.16,1.03c1.24.68,2.21,1.67,2.92,2.94.71,1.28,1.06,2.76,1.06,4.45,0,.06-.03.48-.09,1.27ZM343.11,378.85c-.7.6-1.13,1.43-1.28,2.48h7.71c-.16-1.03-.58-1.85-1.28-2.46-.7-.61-1.55-.92-2.56-.92s-1.89.3-2.59.91Z"/>
      <path class="cls-3" d="M372.73,374.62v22.1h-4.54v-7.58c-1.13,1.31-2.69,1.96-4.69,1.96-1.47,0-2.81-.34-4-1.03-1.19-.68-2.13-1.66-2.81-2.93-.68-1.27-1.02-2.74-1.02-4.41s.34-3.14,1.02-4.41c.68-1.27,1.61-2.24,2.81-2.93s2.53-1.03,4-1.03c2.13,0,3.76.7,4.89,2.11v-1.87h4.34ZM367.14,386.02c.76-.82,1.13-1.91,1.13-3.28s-.38-2.46-1.13-3.28c-.76-.81-1.71-1.22-2.85-1.22s-2.12.41-2.88,1.22c-.76.82-1.13,1.91-1.13,3.28s.38,2.46,1.13,3.28c.76.81,1.72,1.22,2.88,1.22s2.1-.41,2.85-1.22Z"/>
      <path class="cls-3" d="M392.69,374.62v16.24h-4.31v-1.93c-.6.71-1.32,1.24-2.15,1.62-.83.37-1.74.56-2.71.56-2.06,0-3.69-.61-4.89-1.84-1.2-1.23-1.8-3.05-1.8-5.46v-9.18h4.54v8.48c0,2.62,1.06,3.92,3.17,3.92,1.09,0,1.96-.37,2.62-1.1.66-.73.99-1.83.99-3.28v-8.03h4.54Z"/>
      <path class="cls-3" d="M397.15,371.6c-.52-.5-.79-1.13-.79-1.87s.26-1.37.79-1.87c.52-.5,1.2-.75,2.04-.75s1.51.24,2.04.72c.52.48.79,1.09.79,1.81,0,.78-.26,1.43-.79,1.95-.52.51-1.2.77-2.04.77s-1.51-.25-2.04-.75ZM396.91,374.62h4.54v16.24h-4.54v-16.24Z"/>
      <path class="cls-3" d="M418.9,375.42c1.19.69,2.13,1.67,2.81,2.93.68,1.26,1.02,2.72,1.02,4.39s-.34,3.14-1.02,4.39-1.62,2.23-2.81,2.93c-1.19.69-2.52,1.04-3.97,1.04-2,0-3.57-.65-4.71-1.96v7.58h-4.54v-22.1h4.34v1.87c1.12-1.41,2.76-2.11,4.92-2.11,1.46,0,2.78.35,3.97,1.04ZM417.01,386.02c.75-.82,1.12-1.91,1.12-3.28s-.37-2.46-1.12-3.28c-.75-.81-1.7-1.22-2.87-1.22s-2.12.41-2.87,1.22c-.75.82-1.12,1.91-1.12,3.28s.37,2.46,1.12,3.28c.75.81,1.7,1.22,2.87,1.22s2.12-.41,2.87-1.22Z"/>
      <path class="cls-3" d="M428.76,390.03c-1.31-.71-2.33-1.71-3.07-2.97-.74-1.27-1.11-2.71-1.11-4.32s.37-3.05,1.11-4.32c.74-1.27,1.76-2.26,3.07-2.97,1.31-.71,2.79-1.07,4.44-1.07s3.12.36,4.42,1.07c1.3.71,2.32,1.71,3.06,2.97.74,1.27,1.11,2.71,1.11,4.32s-.37,3.05-1.11,4.32c-.74,1.27-1.76,2.26-3.06,2.97s-2.77,1.07-4.42,1.07-3.13-.36-4.44-1.07ZM436.07,386.02c.75-.82,1.12-1.91,1.12-3.28s-.37-2.46-1.12-3.28c-.75-.81-1.7-1.22-2.87-1.22s-2.12.41-2.88,1.22c-.76.82-1.13,1.91-1.13,3.28s.38,2.46,1.13,3.28c.76.81,1.72,1.22,2.88,1.22s2.12-.41,2.87-1.22Z"/>
      <path class="cls-3" d="M468.3,384.07h-11.84c.21,1.01.72,1.8,1.51,2.39.79.58,1.78.88,2.97.88.82,0,1.54-.13,2.17-.38.63-.25,1.22-.65,1.76-1.19l2.42,2.72c-1.47,1.75-3.63,2.63-6.46,2.63-1.77,0-3.33-.36-4.69-1.07-1.36-.71-2.41-1.71-3.14-2.97-.74-1.27-1.11-2.71-1.11-4.32s.36-3.02,1.09-4.3,1.73-2.27,3-2.99c1.27-.71,2.69-1.07,4.26-1.07s2.92.34,4.16,1.03c1.24.68,2.22,1.67,2.92,2.94.71,1.28,1.06,2.76,1.06,4.45,0,.06-.03.48-.09,1.27ZM457.68,378.85c-.7.6-1.13,1.43-1.28,2.48h7.71c-.16-1.03-.58-1.85-1.28-2.46-.7-.61-1.55-.92-2.56-.92s-1.89.3-2.59.91Z"/>
      <path class="cls-3" d="M485.63,376.19c1.19,1.21,1.79,3,1.79,5.37v9.3h-4.54v-8.58c0-1.29-.27-2.25-.82-2.88-.54-.63-1.33-.95-2.36-.95-1.15,0-2.06.37-2.74,1.1-.68.74-1.02,1.83-1.02,3.28v8.03h-4.54v-16.24h4.34v1.9c.6-.68,1.35-1.21,2.24-1.58s1.87-.56,2.94-.56c1.94,0,3.51.6,4.7,1.81Z"/>
      <path class="cls-3" d="M502.83,390.03c-1.33-.71-2.37-1.71-3.11-2.97-.75-1.27-1.12-2.71-1.12-4.32s.37-3.05,1.12-4.32c.75-1.27,1.78-2.26,3.11-2.97,1.33-.71,2.83-1.07,4.5-1.07s3.09.36,4.32,1.07c1.23.71,2.13,1.74,2.69,3.06l-3.52,1.96c-.82-1.49-1.99-2.23-3.52-2.23-1.18,0-2.16.4-2.94,1.21-.78.81-1.16,1.9-1.16,3.29s.39,2.49,1.16,3.29c.78.81,1.76,1.21,2.94,1.21,1.55,0,2.73-.75,3.52-2.23l3.52,1.99c-.56,1.29-1.46,2.29-2.69,3.02-1.23.72-2.67,1.09-4.32,1.09s-3.17-.36-4.5-1.07Z"/>
      <path class="cls-3" d="M528.86,376.17c1.3,1.2,1.95,3,1.95,5.42v9.27h-4.25v-2.02c-.85,1.51-2.45,2.26-4.77,2.26-1.2,0-2.25-.21-3.13-.63s-1.56-1.01-2.02-1.75-.7-1.59-.7-2.54c0-1.51.55-2.7,1.64-3.56,1.1-.87,2.79-1.3,5.08-1.3h3.61c0-1.03-.3-1.82-.9-2.37-.6-.55-1.5-.83-2.71-.83-.83,0-1.65.14-2.46.41s-1.49.64-2.05,1.1l-1.63-3.29c.85-.62,1.88-1.11,3.07-1.45,1.19-.34,2.42-.51,3.68-.51,2.42,0,4.29.6,5.59,1.8ZM524.99,387.38c.6-.37,1.03-.92,1.28-1.65v-1.66h-3.11c-1.86,0-2.79.63-2.79,1.9,0,.6.23,1.08.68,1.43s1.08.53,1.88.53,1.46-.19,2.07-.56Z"/>
      <path class="cls-3" d="M536.37,390.61c-1.24-.33-2.23-.75-2.97-1.25l1.51-3.38c.7.46,1.54.84,2.53,1.13s1.96.44,2.91.44c1.92,0,2.88-.49,2.88-1.48,0-.46-.26-.79-.79-1-.52-.2-1.33-.37-2.42-.51-1.28-.2-2.34-.43-3.17-.69s-1.56-.72-2.17-1.39-.92-1.61-.92-2.84c0-1.03.29-1.94.86-2.73.57-.79,1.41-1.41,2.5-1.86,1.1-.44,2.39-.66,3.89-.66,1.11,0,2.21.13,3.3.38,1.1.25,2,.6,2.72,1.04l-1.51,3.35c-1.38-.8-2.88-1.21-4.51-1.21-.97,0-1.7.14-2.18.42-.49.28-.73.64-.73,1.09,0,.5.26.86.79,1.06.52.2,1.36.39,2.5.57,1.28.22,2.33.46,3.14.71.82.25,1.52.71,2.12,1.37.6.66.9,1.59.9,2.78,0,1.01-.29,1.9-.87,2.69s-1.43,1.39-2.55,1.83c-1.12.43-2.44.65-3.97.65-1.3,0-2.57-.17-3.81-.5Z"/>
      <path class="cls-3" d="M553.38,390.03c-1.31-.71-2.33-1.71-3.07-2.97-.74-1.27-1.11-2.71-1.11-4.32s.37-3.05,1.11-4.32c.74-1.27,1.76-2.26,3.07-2.97,1.31-.71,2.79-1.07,4.44-1.07s3.12.36,4.42,1.07c1.3.71,2.32,1.71,3.06,2.97.74,1.27,1.11,2.71,1.11,4.32s-.37,3.05-1.11,4.32c-.74,1.27-1.76,2.26-3.06,2.97s-2.77,1.07-4.42,1.07-3.13-.36-4.44-1.07ZM560.68,386.02c.75-.82,1.12-1.91,1.12-3.28s-.37-2.46-1.12-3.28c-.75-.81-1.7-1.22-2.87-1.22s-2.12.41-2.88,1.22c-.76.82-1.13,1.91-1.13,3.28s.38,2.46,1.13,3.28c.76.81,1.72,1.22,2.88,1.22s2.12-.41,2.87-1.22Z"/>
      <path class="cls-3" d="M33.91,404.69v22.4h-4.34v-1.87c-1.12,1.41-2.75,2.11-4.89,2.11-1.47,0-2.81-.34-4-1.03-1.19-.68-2.13-1.66-2.81-2.93-.68-1.27-1.02-2.74-1.02-4.41s.34-3.14,1.02-4.41,1.62-2.24,2.81-2.93c1.19-.68,2.53-1.03,4-1.03,2,0,3.56.65,4.69,1.96v-7.88h4.54ZM28.32,422.25c.76-.82,1.13-1.91,1.13-3.28s-.38-2.46-1.13-3.28c-.76-.81-1.71-1.22-2.85-1.22s-2.12.41-2.88,1.22c-.76.82-1.14,1.91-1.14,3.28s.38,2.46,1.14,3.28c.76.81,1.72,1.22,2.88,1.22s2.1-.41,2.85-1.22Z"/>
      <path class="cls-3" d="M53.35,420.3h-11.84c.21,1.01.72,1.8,1.51,2.39.79.58,1.78.88,2.97.88.81,0,1.54-.13,2.17-.38.63-.25,1.22-.65,1.76-1.19l2.42,2.72c-1.47,1.75-3.63,2.63-6.46,2.63-1.77,0-3.33-.36-4.69-1.07-1.36-.71-2.41-1.71-3.14-2.97-.74-1.27-1.11-2.71-1.11-4.32s.36-3.02,1.09-4.3,1.73-2.27,3-2.99c1.27-.71,2.69-1.07,4.26-1.07s2.92.34,4.16,1.03c1.24.68,2.22,1.67,2.92,2.94.71,1.28,1.06,2.76,1.06,4.45,0,.06-.03.48-.09,1.27ZM42.72,415.08c-.7.6-1.13,1.43-1.28,2.48h7.71c-.16-1.03-.58-1.85-1.28-2.46-.7-.61-1.55-.92-2.56-.92s-1.89.3-2.59.91Z"/>
      <path class="cls-3" d="M71.23,411.21c.92-.4,1.98-.6,3.19-.6v4.35c-.5-.04-.84-.06-1.02-.06-1.3,0-2.32.38-3.06,1.13-.74.75-1.11,1.89-1.11,3.4v7.67h-4.54v-16.24h4.34v2.14c.54-.79,1.28-1.38,2.2-1.78Z"/>
      <path class="cls-3" d="M79.99,426.27c-1.31-.71-2.33-1.71-3.07-2.97-.74-1.27-1.11-2.71-1.11-4.32s.37-3.05,1.11-4.32c.74-1.27,1.76-2.26,3.07-2.97,1.31-.71,2.79-1.07,4.44-1.07s3.12.36,4.42,1.07c1.3.71,2.32,1.71,3.06,2.97.74,1.27,1.11,2.71,1.11,4.32s-.37,3.05-1.11,4.32c-.74,1.27-1.76,2.26-3.06,2.97-1.3.71-2.77,1.07-4.42,1.07s-3.13-.36-4.44-1.07ZM87.29,422.25c.75-.82,1.12-1.91,1.12-3.28s-.37-2.46-1.12-3.28c-.75-.81-1.7-1.22-2.87-1.22s-2.12.41-2.88,1.22c-.76.82-1.13,1.91-1.13,3.28s.38,2.46,1.13,3.28c.76.81,1.72,1.22,2.88,1.22s2.12-.41,2.87-1.22Z"/>
      <path class="cls-3" d="M109.26,411.65c1.19.69,2.13,1.67,2.81,2.93.68,1.26,1.02,2.72,1.02,4.39s-.34,3.14-1.02,4.39c-.68,1.26-1.62,2.23-2.81,2.93-1.19.69-2.52,1.04-3.97,1.04-2.15,0-3.79-.7-4.92-2.11v1.87h-4.34v-22.4h4.54v7.88c1.14-1.31,2.72-1.96,4.71-1.96,1.46,0,2.78.35,3.97,1.04ZM107.37,422.25c.75-.82,1.12-1.91,1.12-3.28s-.37-2.46-1.12-3.28c-.75-.81-1.7-1.22-2.87-1.22s-2.12.41-2.87,1.22c-.75.82-1.12,1.91-1.12,3.28s.37,2.46,1.12,3.28c.75.81,1.7,1.22,2.87,1.22s2.12-.41,2.87-1.22Z"/>
      <path class="cls-3" d="M119.13,426.27c-1.31-.71-2.33-1.71-3.07-2.97-.74-1.27-1.11-2.71-1.11-4.32s.37-3.05,1.11-4.32c.74-1.27,1.76-2.26,3.07-2.97,1.31-.71,2.79-1.07,4.44-1.07s3.12.36,4.42,1.07c1.3.71,2.32,1.71,3.06,2.97.74,1.27,1.11,2.71,1.11,4.32s-.37,3.05-1.11,4.32c-.74,1.27-1.76,2.26-3.06,2.97-1.3.71-2.77,1.07-4.42,1.07s-3.13-.36-4.44-1.07ZM126.43,422.25c.75-.82,1.12-1.91,1.12-3.28s-.37-2.46-1.12-3.28c-.75-.81-1.7-1.22-2.87-1.22s-2.12.41-2.88,1.22c-.76.82-1.13,1.91-1.13,3.28s.38,2.46,1.13,3.28c.76.81,1.72,1.22,2.88,1.22s2.12-.41,2.87-1.22Z"/>
      <path class="cls-3" d="M138.73,422.28c.52.53.79,1.23.79,2.1,0,.4-.05.81-.15,1.21-.1.4-.31,1.01-.64,1.81l-1.66,4.35h-2.88l1.28-4.8c-.48-.2-.87-.53-1.15-.98-.28-.45-.42-.98-.42-1.59,0-.87.27-1.56.8-2.1.53-.53,1.21-.8,2.02-.8s1.48.27,2.01.8Z"/>
      <path class="cls-3" d="M166.38,410.85l-6.61,16.24h-4.69l-6.58-16.24h4.69l4.34,11.05,4.48-11.05h4.37Z"/>
      <path class="cls-3" d="M179.62,412.41c1.3,1.2,1.95,3,1.95,5.42v9.27h-4.25v-2.02c-.85,1.51-2.44,2.26-4.77,2.26-1.2,0-2.25-.21-3.13-.63-.88-.42-1.56-1.01-2.02-1.75-.47-.75-.7-1.59-.7-2.54,0-1.51.55-2.7,1.64-3.56,1.1-.87,2.79-1.3,5.08-1.3h3.61c0-1.03-.3-1.82-.9-2.37s-1.5-.83-2.71-.83c-.83,0-1.65.14-2.46.41-.81.27-1.49.64-2.05,1.1l-1.63-3.29c.85-.62,1.88-1.11,3.07-1.45,1.19-.34,2.42-.51,3.68-.51,2.43,0,4.29.6,5.59,1.8ZM175.75,423.61c.6-.37,1.03-.92,1.28-1.65v-1.66h-3.11c-1.86,0-2.79.63-2.79,1.9,0,.6.23,1.08.68,1.43.46.35,1.08.53,1.88.53s1.46-.19,2.07-.56Z"/>
      <path class="cls-3" d="M199.89,412.42c1.19,1.21,1.79,3,1.79,5.37v9.3h-4.54v-8.58c0-1.29-.27-2.25-.81-2.88-.54-.63-1.33-.95-2.36-.95-1.15,0-2.06.37-2.74,1.1-.68.74-1.02,1.83-1.02,3.28v8.03h-4.54v-16.24h4.34v1.9c.6-.68,1.35-1.21,2.24-1.58.89-.37,1.87-.56,2.94-.56,1.94,0,3.51.6,4.7,1.81Z"/>
      <path class="cls-3" d="M221.9,404.69v22.4h-4.34v-1.87c-1.12,1.41-2.75,2.11-4.89,2.11-1.47,0-2.81-.34-4-1.03-1.19-.68-2.13-1.66-2.81-2.93-.68-1.27-1.02-2.74-1.02-4.41s.34-3.14,1.02-4.41,1.62-2.24,2.81-2.93c1.19-.68,2.53-1.03,4-1.03,2,0,3.56.65,4.69,1.96v-7.88h4.54ZM216.31,422.25c.76-.82,1.13-1.91,1.13-3.28s-.38-2.46-1.13-3.28c-.76-.81-1.71-1.22-2.85-1.22s-2.12.41-2.88,1.22c-.76.82-1.14,1.91-1.14,3.28s.38,2.46,1.14,3.28c.76.81,1.72,1.22,2.88,1.22s2.1-.41,2.85-1.22Z"/>
      <path class="cls-3" d="M237.99,412.41c1.3,1.2,1.95,3,1.95,5.42v9.27h-4.25v-2.02c-.85,1.51-2.44,2.26-4.77,2.26-1.2,0-2.25-.21-3.13-.63-.88-.42-1.56-1.01-2.02-1.75-.47-.75-.7-1.59-.7-2.54,0-1.51.55-2.7,1.64-3.56,1.1-.87,2.79-1.3,5.08-1.3h3.61c0-1.03-.3-1.82-.9-2.37s-1.5-.83-2.71-.83c-.83,0-1.65.14-2.46.41-.81.27-1.49.64-2.05,1.1l-1.63-3.29c.85-.62,1.88-1.11,3.07-1.45,1.19-.34,2.42-.51,3.68-.51,2.43,0,4.29.6,5.59,1.8ZM234.12,423.61c.6-.37,1.03-.92,1.28-1.65v-1.66h-3.11c-1.86,0-2.79.63-2.79,1.9,0,.6.23,1.08.68,1.43.46.35,1.08.53,1.88.53s1.46-.19,2.07-.56Z"/>
      <path class="cls-3" d="M244.05,404.69h4.54v22.4h-4.54v-22.4Z"/>
      <path class="cls-3" d="M253.04,407.83c-.52-.5-.79-1.13-.79-1.87s.26-1.37.79-1.87c.52-.5,1.2-.75,2.04-.75s1.51.24,2.04.72c.52.48.79,1.09.79,1.81,0,.78-.26,1.43-.79,1.95-.52.51-1.2.77-2.04.77s-1.51-.25-2.04-.75ZM252.81,410.85h4.54v16.24h-4.54v-16.24Z"/>
      <path class="cls-3" d="M263.02,426.84c-1.24-.33-2.23-.75-2.97-1.25l1.51-3.38c.7.46,1.54.84,2.53,1.13.99.29,1.96.44,2.91.44,1.92,0,2.88-.49,2.88-1.48,0-.46-.26-.79-.79-1-.52-.2-1.33-.37-2.42-.51-1.28-.2-2.34-.43-3.17-.69s-1.56-.72-2.17-1.39c-.61-.66-.92-1.61-.92-2.84,0-1.03.29-1.94.86-2.73.57-.79,1.41-1.41,2.5-1.86,1.1-.44,2.39-.66,3.88-.66,1.11,0,2.21.13,3.3.38,1.1.25,2,.6,2.72,1.04l-1.51,3.35c-1.38-.8-2.88-1.21-4.51-1.21-.97,0-1.7.14-2.18.42s-.73.64-.73,1.09c0,.5.26.86.79,1.06.52.2,1.36.39,2.5.57,1.28.22,2.33.46,3.14.71.81.25,1.52.71,2.12,1.37s.9,1.59.9,2.78c0,1.01-.29,1.9-.87,2.69s-1.43,1.39-2.55,1.83c-1.12.43-2.44.65-3.97.65-1.3,0-2.57-.17-3.81-.5Z"/>
      <path class="cls-3" d="M301.74,412.41c1.15,1.2,1.73,3,1.73,5.39v9.3h-4.54v-8.58c0-1.29-.26-2.25-.77-2.88-.51-.63-1.25-.95-2.2-.95-1.07,0-1.91.36-2.53,1.07-.62.71-.93,1.78-.93,3.19v8.15h-4.54v-8.58c0-2.56-.99-3.83-2.97-3.83-1.05,0-1.88.36-2.5,1.07-.62.71-.93,1.78-.93,3.19v8.15h-4.54v-16.24h4.34v1.87c.58-.68,1.29-1.21,2.14-1.57.84-.36,1.77-.54,2.78-.54,1.11,0,2.1.23,3,.68.89.45,1.61,1.11,2.15,1.98.64-.84,1.45-1.5,2.43-1.96.98-.46,2.05-.69,3.22-.69,1.96,0,3.52.6,4.67,1.8Z"/>
      <path class="cls-3" d="M310.73,426.27c-1.31-.71-2.33-1.71-3.07-2.97-.74-1.27-1.11-2.71-1.11-4.32s.37-3.05,1.11-4.32c.74-1.27,1.76-2.26,3.07-2.97,1.31-.71,2.79-1.07,4.44-1.07s3.12.36,4.42,1.07c1.3.71,2.32,1.71,3.06,2.97.74,1.27,1.11,2.71,1.11,4.32s-.37,3.05-1.11,4.32c-.74,1.27-1.76,2.26-3.06,2.97-1.3.71-2.78,1.07-4.42,1.07s-3.13-.36-4.44-1.07ZM318.04,422.25c.75-.82,1.12-1.91,1.12-3.28s-.37-2.46-1.12-3.28c-.75-.81-1.7-1.22-2.87-1.22s-2.12.41-2.88,1.22c-.76.82-1.13,1.91-1.13,3.28s.38,2.46,1.13,3.28c.76.81,1.72,1.22,2.88,1.22s2.12-.41,2.87-1.22Z"/>
      <path class="cls-3" d="M350.56,410.85l-7.07,17.24c-.72,1.87-1.61,3.19-2.66,3.96-1.06.76-2.33,1.15-3.83,1.15-.82,0-1.62-.13-2.42-.39-.79-.26-1.45-.62-1.95-1.09l1.66-3.35c.35.32.75.57,1.21.75.46.18.91.27,1.35.27.62,0,1.12-.16,1.51-.47.39-.31.74-.83,1.05-1.56l.06-.15-6.78-16.37h4.69l4.39,11.02,4.42-11.02h4.37Z"/>
      <path class="cls-3" d="M376.6,404.69v22.4h-4.34v-1.87c-1.13,1.41-2.75,2.11-4.89,2.11-1.47,0-2.81-.34-4-1.03-1.19-.68-2.13-1.66-2.81-2.93-.68-1.27-1.02-2.74-1.02-4.41s.34-3.14,1.02-4.41,1.62-2.24,2.81-2.93,2.53-1.03,4-1.03c2,0,3.56.65,4.69,1.96v-7.88h4.54ZM371.01,422.25c.76-.82,1.14-1.91,1.14-3.28s-.38-2.46-1.14-3.28c-.76-.81-1.71-1.22-2.85-1.22s-2.12.41-2.88,1.22c-.76.82-1.13,1.91-1.13,3.28s.38,2.46,1.13,3.28c.76.81,1.72,1.22,2.88,1.22s2.1-.41,2.85-1.22Z"/>
      <path class="cls-3" d="M396.04,420.3h-11.84c.21,1.01.72,1.8,1.51,2.39.79.58,1.78.88,2.97.88.82,0,1.54-.13,2.17-.38.63-.25,1.22-.65,1.76-1.19l2.42,2.72c-1.47,1.75-3.63,2.63-6.46,2.63-1.77,0-3.33-.36-4.69-1.07-1.36-.71-2.41-1.71-3.14-2.97-.74-1.27-1.11-2.71-1.11-4.32s.36-3.02,1.09-4.3,1.73-2.27,3-2.99c1.27-.71,2.69-1.07,4.26-1.07s2.92.34,4.16,1.03c1.24.68,2.22,1.67,2.92,2.94.71,1.28,1.06,2.76,1.06,4.45,0,.06-.03.48-.09,1.27ZM385.42,415.08c-.7.6-1.13,1.43-1.28,2.48h7.71c-.16-1.03-.58-1.85-1.28-2.46-.7-.61-1.55-.92-2.56-.92s-1.89.3-2.59.91Z"/>
      <path class="cls-3" d="M400.61,426.84c-1.24-.33-2.23-.75-2.97-1.25l1.51-3.38c.7.46,1.54.84,2.53,1.13s1.96.44,2.91.44c1.92,0,2.88-.49,2.88-1.48,0-.46-.26-.79-.79-1-.52-.2-1.33-.37-2.42-.51-1.28-.2-2.34-.43-3.17-.69s-1.56-.72-2.17-1.39-.92-1.61-.92-2.84c0-1.03.29-1.94.86-2.73.57-.79,1.41-1.41,2.5-1.86,1.1-.44,2.39-.66,3.89-.66,1.11,0,2.21.13,3.3.38,1.1.25,2,.6,2.72,1.04l-1.51,3.35c-1.38-.8-2.88-1.21-4.51-1.21-.97,0-1.7.14-2.18.42-.49.28-.73.64-.73,1.09,0,.5.26.86.79,1.06.52.2,1.36.39,2.5.57,1.28.22,2.33.46,3.14.71.82.25,1.52.71,2.12,1.37.6.66.9,1.59.9,2.78,0,1.01-.29,1.9-.87,2.69s-1.43,1.39-2.55,1.83c-1.12.43-2.44.65-3.97.65-1.3,0-2.57-.17-3.81-.5Z"/>
      <path class="cls-3" d="M426.51,412.41c1.3,1.2,1.95,3,1.95,5.42v9.27h-4.25v-2.02c-.85,1.51-2.45,2.26-4.77,2.26-1.2,0-2.25-.21-3.13-.63s-1.56-1.01-2.02-1.75-.7-1.59-.7-2.54c0-1.51.55-2.7,1.64-3.56,1.1-.87,2.79-1.3,5.08-1.3h3.61c0-1.03-.3-1.82-.9-2.37-.6-.55-1.5-.83-2.71-.83-.83,0-1.65.14-2.46.41s-1.49.64-2.05,1.1l-1.63-3.29c.85-.62,1.88-1.11,3.07-1.45,1.19-.34,2.42-.51,3.68-.51,2.42,0,4.29.6,5.59,1.8ZM422.64,423.61c.6-.37,1.03-.92,1.28-1.65v-1.66h-3.11c-1.86,0-2.79.63-2.79,1.9,0,.6.23,1.08.68,1.43s1.08.53,1.88.53,1.46-.19,2.07-.56Z"/>
      <path class="cls-3" d="M434.02,426.84c-1.24-.33-2.23-.75-2.97-1.25l1.51-3.38c.7.46,1.54.84,2.53,1.13s1.96.44,2.91.44c1.92,0,2.88-.49,2.88-1.48,0-.46-.26-.79-.79-1-.52-.2-1.33-.37-2.42-.51-1.28-.2-2.34-.43-3.17-.69s-1.56-.72-2.17-1.39-.92-1.61-.92-2.84c0-1.03.29-1.94.86-2.73.57-.79,1.41-1.41,2.5-1.86,1.1-.44,2.39-.66,3.89-.66,1.11,0,2.21.13,3.3.38,1.1.25,2,.6,2.72,1.04l-1.51,3.35c-1.38-.8-2.88-1.21-4.51-1.21-.97,0-1.7.14-2.18.42-.49.28-.73.64-.73,1.09,0,.5.26.86.79,1.06.52.2,1.36.39,2.5.57,1.28.22,2.33.46,3.14.71.82.25,1.52.71,2.12,1.37.6.66.9,1.59.9,2.78,0,1.01-.29,1.9-.87,2.69s-1.43,1.39-2.55,1.83c-1.12.43-2.44.65-3.97.65-1.3,0-2.57-.17-3.81-.5Z"/>
      <path class="cls-3" d="M458.11,426.31c-.45.34-.99.6-1.64.77-.65.17-1.33.26-2.05.26-1.86,0-3.3-.49-4.32-1.48-1.02-.99-1.53-2.43-1.53-4.35v-6.67h-2.42v-3.62h2.42v-3.96h4.54v3.96h3.9v3.62h-3.9v6.61c0,.68.17,1.21.51,1.59.34.37.82.56,1.44.56.72,0,1.33-.2,1.83-.6l1.22,3.32Z"/>
      <path class="cls-3" d="M467.21,411.21c.92-.4,1.98-.6,3.19-.6v4.35c-.5-.04-.84-.06-1.02-.06-1.3,0-2.32.38-3.06,1.13-.74.75-1.11,1.89-1.11,3.4v7.67h-4.54v-16.24h4.34v2.14c.54-.79,1.28-1.38,2.2-1.78Z"/>
      <path class="cls-3" d="M488.21,420.3h-11.84c.21,1.01.72,1.8,1.51,2.39.79.58,1.78.88,2.97.88.82,0,1.54-.13,2.17-.38.63-.25,1.22-.65,1.76-1.19l2.42,2.72c-1.47,1.75-3.63,2.63-6.46,2.63-1.77,0-3.33-.36-4.69-1.07-1.36-.71-2.41-1.71-3.14-2.97-.74-1.27-1.11-2.71-1.11-4.32s.36-3.02,1.09-4.3,1.73-2.27,3-2.99c1.27-.71,2.69-1.07,4.26-1.07s2.92.34,4.16,1.03c1.24.68,2.22,1.67,2.92,2.94.71,1.28,1.06,2.76,1.06,4.45,0,.06-.03.48-.09,1.27ZM477.58,415.08c-.7.6-1.13,1.43-1.28,2.48h7.71c-.16-1.03-.58-1.85-1.28-2.46-.7-.61-1.55-.92-2.56-.92s-1.89.3-2.59.91Z"/>
      <path class="cls-3" d="M492.77,426.84c-1.24-.33-2.23-.75-2.97-1.25l1.51-3.38c.7.46,1.54.84,2.53,1.13s1.96.44,2.91.44c1.92,0,2.88-.49,2.88-1.48,0-.46-.26-.79-.79-1-.52-.2-1.33-.37-2.42-.51-1.28-.2-2.34-.43-3.17-.69s-1.56-.72-2.17-1.39-.92-1.61-.92-2.84c0-1.03.29-1.94.86-2.73.57-.79,1.41-1.41,2.5-1.86,1.1-.44,2.39-.66,3.89-.66,1.11,0,2.21.13,3.3.38,1.1.25,2,.6,2.72,1.04l-1.51,3.35c-1.38-.8-2.88-1.21-4.51-1.21-.97,0-1.7.14-2.18.42-.49.28-.73.64-.73,1.09,0,.5.26.86.79,1.06.52.2,1.36.39,2.5.57,1.28.22,2.33.46,3.14.71.82.25,1.52.71,2.12,1.37.6.66.9,1.59.9,2.78,0,1.01-.29,1.9-.87,2.69s-1.43,1.39-2.55,1.83c-1.12.43-2.44.65-3.97.65-1.3,0-2.57-.17-3.81-.5Z"/>
      <path class="cls-3" d="M529.22,412.42c1.19,1.21,1.79,3,1.79,5.37v9.3h-4.54v-8.58c0-1.29-.27-2.25-.82-2.88-.54-.63-1.33-.95-2.36-.95-1.15,0-2.06.37-2.74,1.1-.68.74-1.02,1.83-1.02,3.28v8.03h-4.54v-16.24h4.34v1.9c.6-.68,1.35-1.21,2.24-1.58s1.87-.56,2.94-.56c1.94,0,3.51.6,4.7,1.81Z"/>
      <path class="cls-3" d="M547.02,412.41c1.3,1.2,1.95,3,1.95,5.42v9.27h-4.25v-2.02c-.85,1.51-2.45,2.26-4.77,2.26-1.2,0-2.25-.21-3.13-.63s-1.56-1.01-2.02-1.75-.7-1.59-.7-2.54c0-1.51.55-2.7,1.64-3.56,1.1-.87,2.79-1.3,5.08-1.3h3.61c0-1.03-.3-1.82-.9-2.37-.6-.55-1.5-.83-2.71-.83-.83,0-1.65.14-2.46.41s-1.49.64-2.05,1.1l-1.63-3.29c.85-.62,1.88-1.11,3.07-1.45,1.19-.34,2.42-.51,3.68-.51,2.42,0,4.29.6,5.59,1.8ZM543.15,423.61c.6-.37,1.03-.92,1.28-1.65v-1.66h-3.11c-1.86,0-2.79.63-2.79,1.9,0,.6.23,1.08.68,1.43s1.08.53,1.88.53,1.46-.19,2.07-.56Z"/>
      <path class="cls-3" d="M563.17,426.31c-.45.34-.99.6-1.64.77-.65.17-1.33.26-2.05.26-1.86,0-3.3-.49-4.32-1.48-1.02-.99-1.53-2.43-1.53-4.35v-6.67h-2.42v-3.62h2.42v-3.96h4.54v3.96h3.9v3.62h-3.9v6.61c0,.68.17,1.21.51,1.59.34.37.82.56,1.44.56.72,0,1.33-.2,1.83-.6l1.22,3.32Z"/>
      <path class="cls-3" d="M581.5,410.85v16.24h-4.31v-1.93c-.6.71-1.32,1.24-2.15,1.62-.83.37-1.74.56-2.71.56-2.06,0-3.69-.61-4.89-1.84-1.2-1.23-1.8-3.05-1.8-5.46v-9.18h4.54v8.48c0,2.62,1.06,3.92,3.17,3.92,1.09,0,1.96-.37,2.62-1.1.66-.73.99-1.83.99-3.28v-8.03h4.54Z"/>
      <path class="cls-3" d="M592.26,411.21c.92-.4,1.98-.6,3.19-.6v4.35c-.5-.04-.84-.06-1.02-.06-1.3,0-2.32.38-3.06,1.13-.74.75-1.11,1.89-1.11,3.4v7.67h-4.54v-16.24h4.34v2.14c.54-.79,1.28-1.38,2.2-1.78Z"/>
      <path class="cls-3" d="M609.96,412.41c1.3,1.2,1.95,3,1.95,5.42v9.27h-4.25v-2.02c-.85,1.51-2.45,2.26-4.77,2.26-1.2,0-2.25-.21-3.13-.63s-1.56-1.01-2.02-1.75-.7-1.59-.7-2.54c0-1.51.55-2.7,1.64-3.56,1.1-.87,2.79-1.3,5.08-1.3h3.61c0-1.03-.3-1.82-.9-2.37-.6-.55-1.5-.83-2.71-.83-.83,0-1.65.14-2.46.41s-1.49.64-2.05,1.1l-1.63-3.29c.85-.62,1.88-1.11,3.07-1.45,1.19-.34,2.42-.51,3.68-.51,2.42,0,4.29.6,5.59,1.8ZM606.09,423.61c.6-.37,1.03-.92,1.28-1.65v-1.66h-3.11c-1.86,0-2.79.63-2.79,1.9,0,.6.23,1.08.68,1.43s1.08.53,1.88.53,1.46-.19,2.07-.56Z"/>
      <path class="cls-3" d="M616.02,404.69h4.54v22.4h-4.54v-22.4Z"/>
      <path class="cls-3" d="M640.03,420.3h-11.84c.21,1.01.72,1.8,1.51,2.39.79.58,1.78.88,2.97.88.82,0,1.54-.13,2.17-.38.63-.25,1.22-.65,1.76-1.19l2.42,2.72c-1.47,1.75-3.63,2.63-6.46,2.63-1.77,0-3.33-.36-4.69-1.07-1.36-.71-2.41-1.71-3.14-2.97-.74-1.27-1.11-2.71-1.11-4.32s.36-3.02,1.09-4.3,1.73-2.27,3-2.99c1.27-.71,2.69-1.07,4.26-1.07s2.92.34,4.16,1.03c1.24.68,2.22,1.67,2.92,2.94.71,1.28,1.06,2.76,1.06,4.45,0,.06-.03.48-.09,1.27ZM629.4,415.08c-.7.6-1.13,1.43-1.28,2.48h7.71c-.16-1.03-.58-1.85-1.28-2.46-.7-.61-1.55-.92-2.56-.92s-1.89.3-2.59.91Z"/>
      <path class="cls-3" d="M644.59,426.84c-1.24-.33-2.23-.75-2.97-1.25l1.51-3.38c.7.46,1.54.84,2.53,1.13s1.96.44,2.91.44c1.92,0,2.88-.49,2.88-1.48,0-.46-.26-.79-.79-1-.52-.2-1.33-.37-2.42-.51-1.28-.2-2.34-.43-3.17-.69s-1.56-.72-2.17-1.39-.92-1.61-.92-2.84c0-1.03.29-1.94.86-2.73.57-.79,1.41-1.41,2.5-1.86,1.1-.44,2.39-.66,3.89-.66,1.11,0,2.21.13,3.3.38,1.1.25,2,.6,2.72,1.04l-1.51,3.35c-1.38-.8-2.88-1.21-4.51-1.21-.97,0-1.7.14-2.18.42-.49.28-.73.64-.73,1.09,0,.5.26.86.79,1.06.52.2,1.36.39,2.5.57,1.28.22,2.33.46,3.14.71.82.25,1.52.71,2.12,1.37.6.66.9,1.59.9,2.78,0,1.01-.29,1.9-.87,2.69s-1.43,1.39-2.55,1.83c-1.12.43-2.44.65-3.97.65-1.3,0-2.57-.17-3.81-.5Z"/>
      <path class="cls-3" d="M658.3,426.49c-.54-.56-.82-1.27-.82-2.11s.27-1.56.82-2.1c.54-.53,1.21-.8,2.01-.8s1.46.27,2.01.8.81,1.23.81,2.1-.27,1.55-.81,2.11-1.21.84-2.01.84-1.46-.28-2.01-.84Z"/>
    </g>
    <g>
      <path class="cls-4" d="M172.48,227.42c2.38,1.07,4.22,2.6,5.51,4.59,1.29,1.99,1.94,4.33,1.94,7.02s-.65,5.02-1.94,6.99c-1.29,1.97-3.13,3.5-5.51,4.57-2.38,1.07-5.19,1.61-8.42,1.61h-6.23v9.34h-10.1v-35.72h16.33c3.23,0,6.04.54,8.42,1.61ZM168.14,242.88c1.05-.9,1.58-2.19,1.58-3.85s-.53-2.96-1.58-3.88c-1.05-.92-2.62-1.38-4.69-1.38h-5.61v10.46h5.61c2.07,0,3.64-.45,4.69-1.35Z"/>
      <path class="cls-4" d="M200.44,252.03h-5.51v9.49h-10.1v-35.72h16.33c3.23,0,6.04.54,8.42,1.61,2.38,1.07,4.22,2.6,5.51,4.59,1.29,1.99,1.94,4.33,1.94,7.02s-.6,4.84-1.81,6.76c-1.21,1.92-2.93,3.43-5.18,4.52l7.7,11.22h-10.82l-6.48-9.49ZM205.24,235.15c-1.05-.92-2.62-1.38-4.69-1.38h-5.61v10.46h5.61c2.07,0,3.64-.45,4.69-1.35,1.05-.9,1.58-2.19,1.58-3.85s-.53-2.96-1.58-3.88Z"/>
      <path class="cls-4" d="M230.42,259.84c-3.01-1.6-5.37-3.81-7.09-6.63-1.72-2.82-2.58-6-2.58-9.54s.86-6.72,2.58-9.54c1.72-2.82,4.08-5.03,7.09-6.63,3.01-1.6,6.4-2.4,10.18-2.4s7.17.8,10.18,2.4c3.01,1.6,5.37,3.81,7.09,6.63,1.72,2.82,2.58,6,2.58,9.54s-.86,6.72-2.58,9.54c-1.72,2.82-4.08,5.03-7.09,6.63s-6.4,2.4-10.18,2.4-7.17-.8-10.18-2.4ZM245.49,252.6c1.46-.85,2.62-2.05,3.47-3.6.85-1.55,1.28-3.32,1.28-5.33s-.43-3.78-1.28-5.33c-.85-1.55-2.01-2.75-3.47-3.6-1.46-.85-3.1-1.28-4.9-1.28s-3.44.43-4.9,1.28c-1.46.85-2.62,2.05-3.47,3.6-.85,1.55-1.28,3.33-1.28,5.33s.42,3.78,1.28,5.33c.85,1.55,2.01,2.75,3.47,3.6,1.46.85,3.09,1.28,4.9,1.28s3.44-.42,4.9-1.28Z"/>
      <path class="cls-4" d="M272.84,233.82h-10.97v-8.01h31.99v8.01h-10.92v27.71h-10.1v-27.71Z"/>
      <path class="cls-4" d="M326.31,253.72v7.81h-28.67v-35.72h28.01v7.81h-18.01v6.02h15.87v7.55h-15.87v6.53h18.67Z"/>
      <path class="cls-4" d="M339.6,259.87c-2.98-1.58-5.32-3.78-7.02-6.61-1.7-2.82-2.55-6.02-2.55-9.59s.85-6.77,2.55-9.59c1.7-2.82,4.04-5.03,7.02-6.61s6.34-2.37,10.08-2.37c3.26,0,6.21.58,8.83,1.73s4.8,2.82,6.53,5l-6.43,5.82c-2.31-2.79-5.12-4.18-8.42-4.18-1.94,0-3.67.43-5.18,1.28-1.51.85-2.69,2.05-3.52,3.6-.83,1.55-1.25,3.33-1.25,5.33s.42,3.78,1.25,5.33c.83,1.55,2.01,2.75,3.52,3.6,1.51.85,3.24,1.28,5.18,1.28,3.3,0,6.11-1.39,8.42-4.18l6.43,5.82c-1.73,2.18-3.91,3.84-6.53,5s-5.56,1.73-8.83,1.73c-3.74,0-7.1-.79-10.08-2.37Z"/>
      <path class="cls-4" d="M376.49,259.87c-2.98-1.58-5.32-3.78-7.02-6.61-1.7-2.82-2.55-6.02-2.55-9.59s.85-6.77,2.55-9.59c1.7-2.82,4.04-5.03,7.02-6.61,2.98-1.58,6.33-2.37,10.08-2.37,3.26,0,6.21.58,8.83,1.73s4.8,2.82,6.53,5l-6.43,5.82c-2.31-2.79-5.12-4.18-8.42-4.18-1.94,0-3.67.43-5.18,1.28-1.51.85-2.69,2.05-3.52,3.6-.83,1.55-1.25,3.33-1.25,5.33s.42,3.78,1.25,5.33c.83,1.55,2.01,2.75,3.52,3.6,1.51.85,3.24,1.28,5.18,1.28,3.3,0,6.11-1.39,8.42-4.18l6.43,5.82c-1.73,2.18-3.91,3.84-6.53,5s-5.56,1.73-8.83,1.73c-3.74,0-7.1-.79-10.08-2.37Z"/>
      <path class="cls-4" d="M406.42,225.81h10.1v35.72h-10.1v-35.72Z"/>
      <path class="cls-4" d="M431.55,259.84c-3.01-1.6-5.38-3.81-7.09-6.63-1.72-2.82-2.58-6-2.58-9.54s.86-6.72,2.58-9.54c1.72-2.82,4.08-5.03,7.09-6.63,3.01-1.6,6.4-2.4,10.18-2.4s7.17.8,10.18,2.4c3.01,1.6,5.37,3.81,7.09,6.63,1.72,2.82,2.58,6,2.58,9.54s-.86,6.72-2.58,9.54-4.08,5.03-7.09,6.63c-3.01,1.6-6.4,2.4-10.18,2.4s-7.17-.8-10.18-2.4ZM446.62,252.6c1.46-.85,2.62-2.05,3.47-3.6.85-1.55,1.28-3.32,1.28-5.33s-.43-3.78-1.28-5.33c-.85-1.55-2.01-2.75-3.47-3.6-1.46-.85-3.1-1.28-4.9-1.28s-3.44.43-4.9,1.28c-1.46.85-2.62,2.05-3.47,3.6-.85,1.55-1.28,3.33-1.28,5.33s.42,3.78,1.28,5.33c.85,1.55,2.01,2.75,3.47,3.6,1.46.85,3.09,1.28,4.9,1.28s3.43-.42,4.9-1.28ZM443.56,215.15h9.69l-9.59,7.76h-6.94l6.84-7.76Z"/>
      <path class="cls-4" d="M500.86,225.81v35.72h-8.32l-15.77-19.03v19.03h-9.9v-35.72h8.32l15.77,19.03v-19.03h9.9Z"/>
    </g>
  </g>
</svg>