<?xml version="1.0" encoding="UTF-8"?>
<svg id="Layer_1" data-name="Layer 1" xmlns="http://www.w3.org/2000/svg" xmlns:xlink="http://www.w3.org/1999/xlink" viewBox="0 0 185.9 161">
  <defs>
    <style>
      .cls-1 {
        fill: url(#linear-gradient);
      }

      .cls-1, .cls-2 {
        stroke-width: 0px;
      }

      .cls-2 {
        fill: #fff;
      }
    </style>
    <linearGradient id="linear-gradient" x1="92.95" y1="-895" x2="92.95" y2="-734" gradientTransform="translate(0 -734) scale(1 -1)" gradientUnits="userSpaceOnUse">
      <stop offset="0" stop-color="#f5a214"/>
      <stop offset="1" stop-color="#e05b19"/>
    </linearGradient>
  </defs>
  <path class="cls-1" d="M139.4,0H46.5L0,80.5l32.3,55.9,14.2,24.6h92.9l14.2-24.6,32.3-55.9L139.4,0Z"/>
  <path class="cls-2" d="M73.5,18h38.8l19.4,33.6-19.4,33.6h-38.8l-7.3-12.6,17.3,4.2c.3.4.7.7,1.2.7h7.7c.8,0,1.5-.7,1.5-1.5v-1.1c0-.8-.7-1.5-1.5-1.5h-7.7c-.6,0-1.1.3-1.3.8l-16.3-4-8.4-12.8-.8.5-3.8-6.6,19.4-33.6h0s0,.3,0,.3Z"/>
  <polygon class="cls-2" points="137.6 154.7 48.3 154.7 34.6 131.1 57 92.4 128.9 92.4 151.2 131.1 137.6 154.7"/>
</svg>