<?xml version="1.0" encoding="UTF-8"?>
<svg id="Layer_1" data-name="Layer 1" xmlns="http://www.w3.org/2000/svg" xmlns:xlink="http://www.w3.org/1999/xlink" viewBox="0 0 185.8 160.9">
  <defs>
    <style>
      .cls-1 {
        fill: url(#linear-gradient);
      }

      .cls-1, .cls-2 {
        stroke-width: 0px;
      }

      .cls-2 {
        fill: #fff;
      }

      .cls-3 {
        fill: none;
        stroke: #fff;
        stroke-miterlimit: 10;
        stroke-width: 1.3px;
      }
    </style>
    <linearGradient id="linear-gradient" x1="92.9" y1="-894.9" x2="92.9" y2="-734" gradientTransform="translate(0 -734) scale(1 -1)" gradientUnits="userSpaceOnUse">
      <stop offset="0" stop-color="#f5a214"/>
      <stop offset="1" stop-color="#e05b19"/>
    </linearGradient>
  </defs>
  <polygon class="cls-1" points="185.8 80.5 153.6 136.4 139.4 160.9 46.5 160.9 32.3 136.4 0 80.5 46.5 0 139.4 0 185.8 80.5"/>
  <g>
    <polygon class="cls-2" points="152.2 90.6 129.9 90.6 118.7 92.2 129.9 93.9 152.2 93.9 163.4 92.2 152.2 90.6"/>
    <polygon class="cls-2" points="118.7 98.8 118.7 102.2 129.9 103.9 152.2 103.9 163.4 102.2 163.4 98.8 152.2 100.5 129.9 100.5 118.7 98.8"/>
    <polygon class="cls-2" points="118.7 104.1 118.7 107.5 129.9 109.2 152.2 109.2 163.4 107.5 163.4 104.1 152.2 105.8 129.9 105.8 118.7 104.1"/>
    <polygon class="cls-2" points="118.7 93.4 118.7 96.8 129.9 98.5 152.2 98.5 163.4 96.8 163.4 93.4 152.2 95.1 129.9 95.1 118.7 93.4"/>
  </g>
  <g>
    <polygon class="cls-2" points="70.4 103.9 70.4 107.3 81.6 109 103.9 109 115.1 107.3 115.1 103.9 103.9 105.6 81.6 105.6 70.4 103.9"/>
    <polygon class="cls-2" points="70.4 98.8 70.4 102.2 81.6 103.9 103.9 103.9 115.1 102.2 115.1 98.8 103.9 100.5 81.6 100.5 70.4 98.8"/>
    <polygon class="cls-2" points="103.9 90.7 81.6 90.7 70.4 92.4 81.6 94.1 103.9 94.1 115.1 92.4 103.9 90.7"/>
    <polygon class="cls-2" points="70.4 93.6 70.4 97 81.6 98.7 103.9 98.7 115.1 97 115.1 93.6 103.9 95.3 81.6 95.3 70.4 93.6"/>
  </g>
  <polyline class="cls-3" points="84.4 76.8 88.5 84.1 96.9 84.1 101.1 76.8 96.9 69.6 88.5 69.6 84.4 62.4 88.5 55.1 96.9 55.1 101.1 62.4"/>
  <line class="cls-3" x1="94.4" y1="87.5" x2="94.4" y2="51.7"/>
  <line class="cls-3" x1="91" y1="51.7" x2="91" y2="87.5"/>
  <polyline class="cls-3" points="132.7 76.8 136.9 84.1 145.2 84.1 149.4 76.8 145.2 69.6 136.9 69.6 132.7 62.4 136.9 55.1 145.2 55.1 149.4 62.4"/>
  <line class="cls-3" x1="142.8" y1="87.5" x2="142.8" y2="51.7"/>
  <line class="cls-3" x1="139.3" y1="51.7" x2="139.3" y2="87.5"/>
  <polyline class="cls-3" points="36 76.8 40.2 84.1 48.5 84.1 52.7 76.8 48.5 69.6 40.2 69.6 36 62.4 40.2 55.1 48.5 55.1 52.7 62.4"/>
  <line class="cls-3" x1="46" y1="87.5" x2="46" y2="51.7"/>
  <line class="cls-3" x1="42.6" y1="51.7" x2="42.6" y2="87.5"/>
  <g>
    <polygon class="cls-2" points="55.5 90.6 33.2 90.6 22 92.2 33.2 93.9 55.5 93.9 66.7 92.2 55.5 90.6"/>
    <polygon class="cls-2" points="22 98.8 22 102.2 33.2 103.9 55.5 103.9 66.7 102.2 66.7 98.8 55.5 100.5 33.2 100.5 22 98.8"/>
    <polygon class="cls-2" points="22 104.1 22 107.5 33.2 109.2 55.5 109.2 66.7 107.5 66.7 104.1 55.5 105.8 33.2 105.8 22 104.1"/>
    <polygon class="cls-2" points="22 93.4 22 96.8 33.2 98.5 55.5 98.5 66.7 96.8 66.7 93.4 55.5 95.1 33.2 95.1 22 93.4"/>
  </g>
</svg>