<?xml version="1.0" encoding="UTF-8"?>
<svg id="Layer_1" data-name="Layer 1" xmlns="http://www.w3.org/2000/svg" xmlns:xlink="http://www.w3.org/1999/xlink" viewBox="0 0 185.9 161">
  <defs>
    <style>
      .cls-1 {
        fill: url(#linear-gradient);
      }

      .cls-1, .cls-2 {
        stroke-width: 0px;
      }

      .cls-2 {
        fill: #fff;
      }
    </style>
    <linearGradient id="linear-gradient" x1="92.95" y1="-895" x2="92.95" y2="-734" gradientTransform="translate(0 -734) scale(1 -1)" gradientUnits="userSpaceOnUse">
      <stop offset="0" stop-color="#f5a214"/>
      <stop offset="1" stop-color="#e05b19"/>
    </linearGradient>
  </defs>
  <g>
    <path class="cls-1" d="M139.4,0H46.5L0,80.5l32.3,55.9,14.2,24.6h92.9l14.2-24.6,32.3-55.9L139.4,0Z"/>
    <g>
      <polygon class="cls-2" points="129.7 122.5 120.7 124.9 118.3 133.9 109.3 136.4 107.2 144.1 112.9 149.7 120.5 147.6 122.9 138.6 132 136.2 134.4 127.2 143.4 124.8 144.7 119.8 139.9 111.4 132.1 113.5 129.7 122.5"/>
      <polygon class="cls-2" points="145.3 126.7 136.3 129.1 133.9 138.1 124.9 140.6 122.5 149.6 112.1 152.3 104.6 144.8 107.3 134.4 116.4 132 118.8 123 127.8 120.6 130.2 111.6 137.9 109.5 136.5 108.2 137 106.5 128.9 92.4 57 92.4 34.6 131.1 48.3 154.7 137.6 154.7 151.2 131.1 146.4 122.8 145.3 126.7"/>
    </g>
  </g>
  <polygon class="cls-2" points="111.1 43.3 94.6 43.3 96.1 30.9 94.5 18 91.3 18 89.7 30.9 91.3 43.3 74.8 43.3 56.6 40.8 74.8 49.9 111.1 49.9 129.2 40.8 111.1 43.3"/>
  <g>
    <polygon class="cls-2" points="63.6 43 75.1 48.7 110.8 48.7 122.2 43 111.1 44.5 93.2 44.5 94.9 30.9 93.5 19.2 92.4 19.2 90.9 30.9 92.6 44.5 74.8 44.5 63.6 43"/>
    <polygon class="cls-2" points="97.3 30.9 95.9 42.2 111 42.2 125.1 40.2 112.3 18 95.7 18 97.3 30.9"/>
    <polygon class="cls-2" points="74.9 42.2 89.9 42.2 88.5 30.9 90.1 18 73.5 18 60.7 40.2 74.9 42.2"/>
    <polygon class="cls-2" points="111.3 51.1 74.5 51.1 58.9 43.3 54.1 51.6 73.5 85.3 112.3 85.3 131.8 51.6 126.9 43.3 111.3 51.1"/>
  </g>
  <polygon class="cls-2" points="168.2 99.2 168.2 99.5 162.6 101 162.8 101.1 160.2 110.7 150.7 113.2 143.7 106.2 146.2 96.7 155.8 94.1 155.9 94.3 157.4 88.7 157.7 88.7 157.4 88.3 142 92.4 137.9 107.8 140.2 110.1 131.2 112.5 128.8 121.6 119.7 124 117.3 133 108.3 135.4 105.9 144.4 112.5 151 121.5 148.6 123.9 139.6 132.9 137.2 135.4 128.1 144.4 125.7 146.8 116.7 149.1 119.1 164.5 114.9 168.6 99.6 168.2 99.2"/>
</svg>