<?xml version="1.0" encoding="UTF-8"?>
<svg id="Layer_1" data-name="Layer 1" xmlns="http://www.w3.org/2000/svg" xmlns:xlink="http://www.w3.org/1999/xlink" viewBox="0 0 185.8 160.9">
  <defs>
    <style>
      .cls-1 {
        fill: url(#linear-gradient);
      }

      .cls-1, .cls-2 {
        stroke-width: 0px;
      }

      .cls-2 {
        fill: #fff;
      }
    </style>
    <linearGradient id="linear-gradient" x1="92.9" y1="-894.9" x2="92.9" y2="-734" gradientTransform="translate(0 -734) scale(1 -1)" gradientUnits="userSpaceOnUse">
      <stop offset="0" stop-color="#f5a214"/>
      <stop offset="1" stop-color="#e05b19"/>
    </linearGradient>
  </defs>
  <polygon class="cls-1" points="185.8 80.5 153.6 136.4 139.4 160.9 46.5 160.9 32.3 136.4 0 80.5 46.5 0 139.4 0 185.8 80.5"/>
  <g>
    <g>
      <polygon class="cls-2" points="96.4 61.7 96.2 61.9 96.2 61.9 96.4 61.7"/>
      <polygon class="cls-2" points="111.8 34.3 93.4 28.2 54.9 28.2 36.5 34.3 50.9 59.6 62.6 48.4 85.6 48.4 97.4 59.8 111.8 34.3"/>
    </g>
    <g>
      <polygon class="cls-2" points="70.6 58.1 67.1 64.2 70.6 70.4 77.7 70.4 81.3 64.2 77.7 58.1 70.6 58.1"/>
      <path class="cls-2" d="M85,50h-21.7l-10.5,10.1,10.7,18.5h21.5l10.7-18.5-10.5-10.1h-.2ZM78.6,71.9h-8.9l-4.4-7.7,4.4-7.7h8.9l4.4,7.7-4.4,7.7Z"/>
    </g>
  </g>
  <g>
    <polygon class="cls-2" points="133 95.2 124.4 95.2 120.1 102.7 124.4 110.2 133 110.2 137.3 102.7 133 95.2"/>
    <polygon class="cls-2" points="118.8 103.5 110.2 103.5 105.8 110.9 110.2 118.4 118.8 118.4 123.1 110.9 118.8 103.5"/>
    <g>
      <polygon class="cls-2" points="152.7 84.1 161.9 84.1 166.5 76.1 161.9 68.2 152.7 68.2 148.1 76.1 152.7 84.1"/>
      <path class="cls-2" d="M138.7,76.1l8.9,15.3h17.7l8.9-15.3-8.9-15.3h-17.7l-8.9,15.3h0ZM162.8,66.6l5.5,9.5-5.5,9.5h-11l-5.5-9.5,5.5-9.5h11Z"/>
      <polygon class="cls-2" points="146.6 93 136.9 76.1 146.6 59.2 165.3 59.2 164.9 58.6 114.6 58.6 104.5 76.1 114.6 93.7 164.9 93.7 165.3 93 146.6 93"/>
    </g>
  </g>
  <g>
    <path class="cls-2" d="M67.1,90.7l-16.8,9.7v35.9l16.8,9.7,16.8-9.7v-35.9l-16.8-9.7h0ZM54.3,102.7l12.8,1,12.8-1v1l-12.8,4.9-12.8-4.9v-1ZM81.6,134.5l-14.5,8.4-14.5-8.4v-13.7l14.5-3.3,14.5,3.3v13.7Z"/>
    <polygon class="cls-2" points="79.9 121.8 79.9 133.8 67.1 141.1 54.3 133.8 54.3 121.8 67.1 118.9 79.9 121.8"/>
  </g>
</svg>