<?xml version="1.0" encoding="utf-8"?>
<!-- Generator: Adobe Illustrator 27.5.0, SVG Export Plug-In . SVG Version: 6.00 Build 0)  -->
<svg version="1.1" id="Capa_1" xmlns="http://www.w3.org/2000/svg" xmlns:xlink="http://www.w3.org/1999/xlink" x="0px" y="0px"
	 viewBox="0 0 1080 1080" style="enable-background:new 0 0 1080 1080;" xml:space="preserve">
<style type="text/css">
	.st0{fill:#FFFFFF;}
</style>
<g>
	<g>
		<g>
			<path class="st0" d="M462.98,605.95c-14.11-44.49-25.58-80.14-34.26-106.03c-16.74-49.6-21.7-59.83-24.03-62.93
				c-5.74-8.37-14.26-14.73-25.27-19.07c-10.7-4.19-22.17-6.2-34.41-6.2c-12.4,0-24.03,2.17-34.57,6.2
				c-11.01,4.34-19.53,10.7-25.58,19.22c-2.02,3.1-6.67,13.02-23.56,63.09c-11.32,33.79-22.94,69.44-34.72,106.03
				c-10.54,33.33-18.29,58.59-23.25,75.02l-2.17,7.44h75.33l67.43-202.44c0.15-0.47,0.31-0.93,0.62-1.55
				c0.15-0.47,0.47-1.24,0.62-1.86c0.16,0.47,0.31,0.93,0.47,1.24c0.16,0.47,0.31,1.09,0.47,1.55l68.51,203.06h74.25l-2.33-7.6
				C478.64,656.02,470.73,630.91,462.98,605.95z"/>
			<path class="st0" d="M503.9,457.61c-16.9,26.2-25.42,58.28-25.42,95.33c0,36.43,8.53,67.58,25.11,92.54
				c18.91,28.52,45.26,43.09,78.28,43.09h135.17v-68.82h-125.4c-11.78,0-21.08-6.98-28.37-21.24c-7.13-13.8-10.7-30.69-10.7-50.38
				c0-19.07,3.57-35.19,10.39-48.05c7.13-13.33,16.43-19.84,28.52-19.84h125.4v-67.27H581.72C549.32,412.97,523.12,428,503.9,457.61
				z"/>
			<rect x="741.07" y="412.97" class="st0" width="70.22" height="275.76"/>
			<path class="st0" d="M958.7,619.75c-17.05,0-30.07-7.75-39.84-23.72c-8.68-14.26-13.18-32.24-13.18-53.48V412.97h-70.22v129.28
				c-0.31,1.55-0.47,3.26-0.62,5.12c-0.15,2.02-0.15,4.81-0.15,8.22c0,17.98,2.17,34.88,6.51,50.07
				c6.67,23.56,18.14,42.63,34.41,56.42c20.77,17.67,48.67,26.66,83.24,26.66H1070V619.9H958.7V619.75z"/>
		</g>
		<g>
			<path class="st0" d="M104.44,550.15c4.19,4.81,6.05,13.64,4.03,19.69l-9.61,28.83c-2.02,6.05-8.84,12.09-15.04,13.33l-29.76,6.2
				c-6.2,1.24-14.88-1.55-19.07-6.36l-20.15-22.79c-4.19-4.81-6.05-13.64-4.03-19.69l9.61-28.83c2.02-6.05,8.84-12.09,15.04-13.33
				l29.76-6.2c6.2-1.24,14.88,1.55,19.07,6.36L104.44,550.15z"/>
			<path class="st0" d="M237.44,446.29c6.36,7.13,9.15,20.46,6.05,29.61l-16.59,50.07c-2.95,9.15-13.18,18.14-22.48,20l-51.77,10.7
				c-9.46,1.86-22.32-2.33-28.68-9.46l-35.19-39.53c-6.36-7.13-9.15-20.46-6.05-29.61l16.74-50.22c2.95-9.15,13.18-18.14,22.48-20
				l51.77-10.7c9.46-1.86,22.32,2.33,28.68,9.46L237.44,446.29z"/>
			<path class="st0" d="M178.85,331.74c2.17,2.33,3.1,6.82,2.02,9.92l-11.47,34.57c-0.93,3.1-4.34,6.05-7.44,6.67l-35.65,7.29
				c-3.1,0.62-7.44-0.78-9.61-3.1L92.51,359.8c-2.17-2.33-3.1-6.82-2.02-9.92l11.47-34.57c0.93-3.1,4.34-6.05,7.44-6.67l35.65-7.29
				c3.1-0.62,7.44,0.78,9.61,3.1L178.85,331.74z"/>
		</g>
		<path class="st0" d="M372.92,606.11l-11.16,20.77c-0.93,1.86-2.79,2.95-4.96,3.1l-23.56,0.78c-2.02,0-4.03-0.93-5.12-2.79
			l-12.4-20c-1.09-1.71-1.09-4.03-0.16-5.74l11.16-20.77c0.93-1.86,2.79-2.95,4.96-3.1l23.56-0.78c2.02,0,4.03,0.93,5.12,2.79
			l12.4,20C373.85,602.08,373.85,604.25,372.92,606.11z"/>
	</g>
	<g>
		<path class="st0" d="M959.21,771.98c-3.75,2.27-7.59,4.01-11.51,5.2c-3.92,1.19-7.82,1.79-11.68,1.79c-4.55,0-8.61-0.67-12.19-2
			c-3.58-1.33-6.64-3.25-9.17-5.75c-2.53-2.5-4.46-5.53-5.8-9.08c-1.34-3.55-2-7.52-2-11.89c0-4.89,0.97-9.68,2.9-14.37
			c1.93-4.69,4.66-8.88,8.18-12.58c3.52-3.69,7.79-6.68,12.79-8.95c5-2.27,10.54-3.41,16.62-3.41c8.24,0,15.29,1.76,21.14,5.29
			l-4.86,16.37h-0.26c-1.36-2.22-3.48-4.11-6.35-5.67c-2.87-1.56-6.3-2.34-10.27-2.34c-3.58,0-6.88,0.64-9.89,1.92
			c-3.01,1.28-5.58,3.07-7.72,5.37c-2.13,2.3-3.79,5.02-4.99,8.14c-1.19,3.13-1.79,6.54-1.79,10.23c0,4.72,1.32,8.47,3.96,11.25
			c2.64,2.79,6.46,4.18,11.47,4.18c3.12,0,5.66-0.65,7.59-1.96l3.75-17.56h15.6L959.21,771.98z"/>
		<path class="st0" d="M969.53,777.86l13.98-65.82h18.16c7.33,0,12.99,1.65,16.97,4.95c3.98,3.3,5.97,7.9,5.97,13.81
			c0,8.07-2.62,14.35-7.84,18.84c-5.23,4.49-12.85,6.74-22.85,6.74h-4.86l-4.6,21.48H969.53z M991.69,743.76h4.01
			c4.6,0,8.14-1.04,10.61-3.11c2.47-2.07,3.71-4.9,3.71-8.48c0-2.39-0.81-4.23-2.43-5.54s-4.05-1.96-7.29-1.96h-4.52L991.69,743.76z
			"/>
		<path class="st0" d="M1034.28,763.88c2.53,1.31,5.24,1.96,8.14,1.96c2.73,0,4.82-0.67,6.27-2c1.45-1.33,2.17-3.08,2.17-5.24
			c0-0.85-0.14-1.68-0.43-2.47c-0.29-0.79-0.78-1.63-1.49-2.51c-0.71-0.88-1.65-1.82-2.81-2.81c-1.17-0.99-2.63-2.12-4.39-3.37
			c-1.88-1.31-3.42-2.6-4.65-3.88c-1.22-1.28-2.22-2.59-2.98-3.92c-0.77-1.33-1.31-2.74-1.62-4.22c-0.31-1.48-0.47-3.04-0.47-4.69
			c0-2.95,0.58-5.67,1.75-8.14c1.16-2.47,2.77-4.57,4.82-6.31c2.05-1.73,4.42-3.08,7.12-4.05c2.7-0.97,5.58-1.45,8.65-1.45
			c6.25,0,11.96,1.22,17.14,3.67l-3.24,15.17c-2.9-2.05-5.43-3.54-7.59-4.48c-2.16-0.94-4.23-1.41-6.22-1.41
			c-2.16,0-3.89,0.6-5.2,1.79c-1.31,1.19-1.96,2.61-1.96,4.26c0,0.68,0.11,1.35,0.34,2c0.23,0.65,0.68,1.36,1.36,2.13
			s1.62,1.65,2.81,2.64c1.19,1,2.78,2.17,4.77,3.54c1.82,1.31,3.37,2.6,4.65,3.88c1.28,1.28,2.32,2.63,3.11,4.05
			c0.8,1.42,1.36,2.94,1.71,4.56c0.34,1.62,0.51,3.37,0.51,5.24c0,3.24-0.67,6.18-2,8.82c-1.34,2.64-3.17,4.89-5.5,6.74
			c-2.33,1.85-5.09,3.28-8.27,4.3c-3.18,1.02-6.59,1.54-10.23,1.54c-3.3,0-6.31-0.31-9.04-0.94c-2.73-0.62-5.2-1.68-7.42-3.16
			l2.3-17.05h0.26C1029.21,760.64,1031.75,762.57,1034.28,763.88z"/>
	</g>
</g>
</svg>
