<?xml version="1.0" encoding="utf-8"?>
<!-- Generator: Adobe Illustrator 27.5.0, SVG Export Plug-In . SVG Version: 6.00 Build 0)  -->
<svg version="1.1" id="Capa_1" xmlns="http://www.w3.org/2000/svg" xmlns:xlink="http://www.w3.org/1999/xlink" x="0px" y="0px"
	 viewBox="0 0 1080 1080" style="enable-background:new 0 0 1080 1080;" xml:space="preserve">
<style type="text/css">
	.st0{fill:#FFFFFF;}
</style>
<g>
	<g>
		<g>
			<path class="st0" d="M463.25,606.84c-14.05-44.32-25.48-79.84-34.13-105.63c-16.68-49.42-21.62-59.61-23.94-62.7
				c-5.71-8.34-14.21-14.67-25.17-18.99c-10.66-4.17-22.08-6.18-34.28-6.18c-12.35,0-23.94,2.16-34.44,6.18
				c-10.96,4.32-19.46,10.66-25.48,19.15c-2.01,3.09-6.64,12.97-23.47,62.85c-11.27,33.66-22.85,69.18-34.59,105.63
				c-10.5,33.2-18.22,58.37-23.16,74.74l-2.16,7.41h75.05l67.17-201.68c0.15-0.46,0.31-0.93,0.62-1.54
				c0.15-0.46,0.46-1.24,0.62-1.85c0.15,0.46,0.31,0.93,0.46,1.24c0.15,0.46,0.31,1.08,0.46,1.54l68.26,202.3h73.97l-2.32-7.57
				C478.85,656.72,470.98,631.71,463.25,606.84z"/>
			<path class="st0" d="M504.02,459.06c-16.83,26.1-25.33,58.06-25.33,94.97c0,36.29,8.49,67.33,25.02,92.19
				c18.84,28.41,45.09,42.93,77.98,42.93h134.66v-68.56H591.43c-11.74,0-21-6.95-28.26-21.16c-7.1-13.74-10.66-30.58-10.66-50.19
				c0-18.99,3.55-35.05,10.35-47.87c7.1-13.28,16.37-19.77,28.41-19.77H716.2v-67.02H581.54
				C549.27,414.59,523.17,429.56,504.02,459.06z"/>
			<rect x="740.29" y="414.59" class="st0" width="69.95" height="274.72"/>
			<path class="st0" d="M957.11,620.59c-16.99,0-29.96-7.72-39.69-23.63c-8.65-14.21-13.13-32.12-13.13-53.28v-129.1h-69.95v128.79
				c-0.31,1.54-0.46,3.24-0.62,5.1c-0.15,2.01-0.15,4.79-0.15,8.18c0,17.91,2.16,34.75,6.49,49.88
				c6.64,23.47,18.07,42.47,34.28,56.21c20.69,17.6,48.49,26.56,82.93,26.56h110.72v-68.56H957.11V620.59z"/>
		</g>
		<g>
			<path class="st0" d="M106.07,551.25c4.17,4.79,6.02,13.59,4.02,19.61l-9.57,28.72c-2.01,6.02-8.8,12.05-14.98,13.28l-29.65,6.18
				c-6.18,1.24-14.82-1.54-18.99-6.33l-20.08-22.7c-4.17-4.79-6.02-13.59-4.02-19.61l9.57-28.72c2.01-6.02,8.8-12.05,14.98-13.28
				L67,522.22c6.18-1.24,14.82,1.54,18.99,6.33L106.07,551.25z"/>
			<path class="st0" d="M238.57,447.79c6.33,7.1,9.11,20.38,6.02,29.5l-16.52,49.88c-2.93,9.11-13.13,18.07-22.39,19.92
				l-51.58,10.66c-9.42,1.85-22.24-2.32-28.57-9.42l-35.05-39.38c-6.33-7.1-9.11-20.38-6.02-29.5l16.68-50.03
				c2.93-9.11,13.13-18.07,22.39-19.92l51.58-10.66c9.42-1.85,22.24,2.32,28.57,9.42L238.57,447.79z"/>
			<path class="st0" d="M180.19,333.67c2.16,2.32,3.09,6.79,2.01,9.88l-11.43,34.44c-0.93,3.09-4.32,6.02-7.41,6.64l-35.52,7.26
				c-3.09,0.62-7.41-0.77-9.57-3.09l-24.09-27.18c-2.16-2.32-3.09-6.79-2.01-9.88l11.43-34.44c0.93-3.09,4.32-6.02,7.41-6.64
				l35.52-7.26c3.09-0.62,7.41,0.77,9.57,3.09L180.19,333.67z"/>
		</g>
		<path class="st0" d="M373.53,607l-11.12,20.69c-0.93,1.85-2.78,2.93-4.94,3.09L334,631.55c-2.01,0-4.02-0.93-5.1-2.78
			l-12.35-19.92c-1.08-1.7-1.08-4.02-0.15-5.71l11.12-20.69c0.93-1.85,2.78-2.93,4.94-3.09l23.47-0.77c2.01,0,4.02,0.93,5.1,2.78
			l12.35,19.92C374.46,602.98,374.46,605.15,373.53,607z"/>
	</g>
	<g>
		<path class="st0" d="M845.25,734.19h-0.25c-1.47-2.38-3.61-4.4-6.41-6.07c-2.8-1.67-6.24-2.51-10.32-2.51
			c-3.45,0-6.62,0.64-9.51,1.91c-2.89,1.27-5.39,2.99-7.52,5.14c-2.12,2.15-3.78,4.66-4.97,7.52c-1.19,2.86-1.78,5.88-1.78,9.04
			c0,2.27,0.35,4.36,1.06,6.29c0.71,1.93,1.73,3.58,3.06,4.97c1.33,1.39,2.96,2.46,4.88,3.23c1.92,0.76,4.13,1.15,6.62,1.15
			c4.25,0,8.24-0.93,11.98-2.8c3.74-1.87,7.39-4.84,10.96-8.92h0.25l-5.86,20.13c-2.77,1.92-5.93,3.4-9.47,4.42
			c-3.54,1.02-7.12,1.53-10.74,1.53c-4.36,0-8.27-0.71-11.72-2.12c-3.45-1.41-6.4-3.42-8.83-6.03c-2.44-2.6-4.29-5.76-5.56-9.47
			c-1.27-3.71-1.91-7.83-1.91-12.36c0-4.98,1.06-9.75,3.19-14.31c2.12-4.56,5-8.58,8.62-12.06c3.62-3.48,7.87-6.26,12.74-8.32
			c4.87-2.07,10.05-3.1,15.54-3.1c8.83,0,15.77,1.95,20.81,5.86L845.25,734.19z"/>
		<path class="st0" d="M863.42,712.53h14.86l-11.04,51.98h28.54l-2.89,13.59h-43.4L863.42,712.53z"/>
		<path class="st0" d="M927.46,712.53l-8.41,39.41c-0.11,0.62-0.23,1.37-0.34,2.25c-0.11,0.88-0.17,1.71-0.17,2.51
			c0,2.78,0.85,4.8,2.55,6.07c1.7,1.27,3.79,1.91,6.29,1.91c1.7,0,3.37-0.25,5.01-0.76c1.64-0.51,3.16-1.27,4.54-2.29
			c1.39-1.02,2.6-2.33,3.65-3.95c1.05-1.61,1.8-3.52,2.25-5.73l8.41-39.41h14.86l-8.58,40.26c-0.96,4.64-2.44,8.64-4.42,11.98
			c-1.98,3.34-4.32,6.09-7.01,8.24c-2.69,2.15-5.68,3.74-8.96,4.76c-3.29,1.02-6.71,1.53-10.28,1.53c-3.4,0-6.54-0.41-9.43-1.23
			c-2.89-0.82-5.38-2.08-7.47-3.78c-2.1-1.7-3.74-3.86-4.93-6.5c-1.19-2.63-1.78-5.76-1.78-9.39c0-0.68,0.06-1.44,0.17-2.29
			c0.11-0.85,0.25-1.67,0.42-2.46l8.75-41.11H927.46z"/>
		<path class="st0" d="M1019.79,727.31c0,3.06-1.01,5.97-3.02,8.75c-2.01,2.77-4.83,4.98-8.45,6.62c2.72,1.36,4.76,3.26,6.12,5.69
			c1.36,2.43,2.04,5.27,2.04,8.49c0,3.11-0.74,5.97-2.21,8.58c-1.47,2.61-3.5,4.84-6.07,6.71c-2.58,1.87-5.65,3.33-9.22,4.37
			c-3.57,1.05-7.45,1.57-11.64,1.57h-21.32l13.93-65.57h19.79c3.4,0,6.34,0.37,8.83,1.1c2.49,0.74,4.57,1.77,6.24,3.1
			c1.67,1.33,2.92,2.9,3.74,4.71C1019.37,723.26,1019.79,725.22,1019.79,727.31z M983.35,766.38h5.44c2.26,0,4.19-0.25,5.78-0.76
			c1.58-0.51,2.89-1.2,3.91-2.08c1.02-0.88,1.77-1.9,2.25-3.06c0.48-1.16,0.72-2.36,0.72-3.61c0-1.92-0.71-3.51-2.12-4.76
			c-1.42-1.24-3.57-1.87-6.46-1.87h-6.03L983.35,766.38z M989.13,739.46h3.99c2.09,0,3.89-0.27,5.39-0.81
			c1.5-0.54,2.73-1.24,3.69-2.12c0.96-0.88,1.66-1.88,2.08-3.01s0.64-2.26,0.64-3.4c0-1.64-0.57-3.04-1.7-4.2
			c-1.13-1.16-2.89-1.74-5.27-1.74h-5.61L989.13,739.46z"/>
		<path class="st0" d="M1032.4,764.17c2.52,1.3,5.22,1.95,8.11,1.95c2.72,0,4.8-0.67,6.24-2c1.44-1.33,2.17-3.07,2.17-5.22
			c0-0.85-0.14-1.67-0.42-2.46c-0.28-0.79-0.78-1.63-1.49-2.51c-0.71-0.88-1.64-1.81-2.8-2.8c-1.16-0.99-2.62-2.11-4.37-3.35
			c-1.87-1.3-3.41-2.59-4.63-3.86c-1.22-1.27-2.21-2.58-2.97-3.91c-0.76-1.33-1.3-2.73-1.61-4.2c-0.31-1.47-0.47-3.03-0.47-4.67
			c0-2.94,0.58-5.65,1.74-8.11c1.16-2.46,2.76-4.56,4.8-6.28c2.04-1.73,4.4-3.07,7.09-4.04c2.69-0.96,5.56-1.44,8.62-1.44
			c6.23,0,11.92,1.22,17.07,3.65l-3.23,15.12c-2.89-2.04-5.41-3.53-7.56-4.46c-2.15-0.93-4.22-1.4-6.2-1.4
			c-2.15,0-3.88,0.59-5.18,1.78c-1.3,1.19-1.95,2.61-1.95,4.25c0,0.68,0.11,1.35,0.34,2c0.23,0.65,0.68,1.36,1.36,2.12
			s1.61,1.64,2.8,2.63c1.19,0.99,2.77,2.17,4.76,3.52c1.81,1.3,3.35,2.59,4.63,3.87c1.27,1.27,2.31,2.62,3.1,4.03
			c0.79,1.42,1.36,2.93,1.7,4.54c0.34,1.61,0.51,3.35,0.51,5.22c0,3.23-0.67,6.16-2,8.79c-1.33,2.63-3.16,4.87-5.48,6.71
			c-2.32,1.84-5.07,3.27-8.24,4.29c-3.17,1.02-6.57,1.53-10.19,1.53c-3.28,0-6.29-0.31-9-0.93s-5.18-1.67-7.39-3.14l2.29-16.99h0.25
			C1027.34,760.95,1029.88,762.87,1032.4,764.17z"/>
	</g>
</g>
</svg>
