<?xml version="1.0" encoding="utf-8"?>
<!-- Generator: Adobe Illustrator 27.5.0, SVG Export Plug-In . SVG Version: 6.00 Build 0)  -->
<svg version="1.1" id="Capa_1" xmlns="http://www.w3.org/2000/svg" xmlns:xlink="http://www.w3.org/1999/xlink" x="0px" y="0px"
	 viewBox="0 0 1080 1080" style="enable-background:new 0 0 1080 1080;" xml:space="preserve">
<style type="text/css">
	.st0{fill:#FFFFFF;}
</style>
<g>
	<g>
		<g>
			<path class="st0" d="M463.27,605.7c-14.05-44.32-25.48-79.84-34.13-105.63c-16.68-49.42-21.62-59.61-23.94-62.7
				c-5.71-8.34-14.21-14.67-25.17-18.99c-10.66-4.17-22.08-6.18-34.28-6.18c-12.35,0-23.94,2.16-34.44,6.18
				c-10.96,4.32-19.46,10.66-25.48,19.15c-2.01,3.09-6.64,12.97-23.47,62.85c-11.27,33.66-22.85,69.18-34.59,105.63
				c-10.5,33.2-18.22,58.37-23.16,74.74l-2.16,7.41h75.05l67.17-201.68c0.15-0.46,0.31-0.93,0.62-1.54
				c0.15-0.46,0.46-1.24,0.62-1.85c0.15,0.46,0.31,0.93,0.46,1.24c0.15,0.46,0.31,1.08,0.46,1.54l68.26,202.3h73.97l-2.32-7.57
				C478.87,655.58,470.99,630.57,463.27,605.7z"/>
			<path class="st0" d="M504.04,457.92c-16.83,26.1-25.33,58.06-25.33,94.97c0,36.29,8.49,67.33,25.02,92.19
				c18.84,28.41,45.09,42.93,77.98,42.93h134.66v-68.56H591.44c-11.74,0-21-6.95-28.26-21.16c-7.1-13.74-10.66-30.58-10.66-50.19
				c0-18.99,3.55-35.05,10.35-47.87c7.1-13.28,16.37-19.77,28.41-19.77h124.93v-67.02H581.56
				C549.29,413.44,523.19,428.42,504.04,457.92z"/>
			<rect x="740.31" y="413.44" class="st0" width="69.95" height="274.72"/>
			<path class="st0" d="M957.12,619.45c-16.99,0-29.96-7.72-39.69-23.63c-8.65-14.21-13.13-32.12-13.13-53.28v-129.1h-69.95v128.79
				c-0.31,1.54-0.46,3.24-0.62,5.1c-0.15,2.01-0.15,4.79-0.15,8.18c0,17.91,2.16,34.75,6.49,49.88
				c6.64,23.47,18.07,42.47,34.28,56.21c20.69,17.6,48.49,26.56,82.93,26.56H1068V619.6H957.12V619.45z"/>
		</g>
		<g>
			<path class="st0" d="M106.09,550.11c4.17,4.79,6.02,13.59,4.02,19.61l-9.57,28.72c-2.01,6.02-8.8,12.05-14.98,13.28L55.9,617.9
				c-6.18,1.24-14.82-1.54-18.99-6.33l-20.08-22.7c-4.17-4.79-6.02-13.59-4.02-19.61l9.57-28.72c2.01-6.02,8.8-12.05,14.98-13.28
				l29.65-6.18c6.18-1.24,14.82,1.54,18.99,6.33L106.09,550.11z"/>
			<path class="st0" d="M238.58,446.65c6.33,7.1,9.11,20.38,6.02,29.5l-16.52,49.88c-2.93,9.11-13.13,18.07-22.39,19.92
				l-51.58,10.66c-9.42,1.85-22.24-2.32-28.57-9.42L90.49,507.8c-6.33-7.1-9.11-20.38-6.02-29.5l16.68-50.03
				c2.93-9.11,13.13-18.07,22.39-19.92l51.58-10.66c9.42-1.85,22.24,2.32,28.57,9.42L238.58,446.65z"/>
			<path class="st0" d="M180.21,332.53c2.16,2.32,3.09,6.79,2.01,9.88l-11.43,34.44c-0.93,3.09-4.32,6.02-7.41,6.64l-35.52,7.26
				c-3.09,0.62-7.41-0.77-9.57-3.09l-24.09-27.18c-2.16-2.32-3.09-6.79-2.01-9.88l11.43-34.44c0.93-3.09,4.32-6.02,7.41-6.64
				l35.52-7.26c3.09-0.62,7.41,0.77,9.57,3.09L180.21,332.53z"/>
		</g>
		<path class="st0" d="M373.55,605.86l-11.12,20.69c-0.93,1.85-2.78,2.93-4.94,3.09l-23.47,0.77c-2.01,0-4.02-0.93-5.1-2.78
			l-12.35-19.92c-1.08-1.7-1.08-4.02-0.15-5.71l11.12-20.69c0.93-1.85,2.78-2.93,4.94-3.09l23.47-0.77c2.01,0,4.02,0.93,5.1,2.78
			l12.35,19.92C374.48,601.84,374.48,604.01,373.55,605.86z"/>
	</g>
	<g>
		<path class="st0" d="M789.38,738.4c0,5.1-0.98,10.05-2.93,14.86c-1.95,4.81-4.64,9.06-8.07,12.74c-3.43,3.68-7.49,6.64-12.19,8.88
			c-4.7,2.24-9.77,3.36-15.2,3.36c-4.36,0-8.3-0.71-11.81-2.12c-3.51-1.41-6.48-3.41-8.92-5.99c-2.44-2.58-4.3-5.63-5.61-9.17
			c-1.3-3.54-1.95-7.43-1.95-11.68c0-5.44,1.02-10.54,3.06-15.33c2.04-4.78,4.83-8.93,8.37-12.44c3.54-3.51,7.64-6.29,12.32-8.32
			c4.67-2.04,9.64-3.06,14.91-3.06c4.3,0,8.2,0.68,11.68,2.04c3.48,1.36,6.43,3.29,8.83,5.78c2.41,2.49,4.26,5.46,5.56,8.92
			C788.73,730.3,789.38,734.15,789.38,738.4z M751.84,764.65c3.17,0,6.12-0.74,8.83-2.21c2.72-1.47,5.08-3.4,7.09-5.78
			c2.01-2.38,3.58-5.05,4.71-8.03c1.13-2.97,1.7-5.96,1.7-8.96c0-2.38-0.31-4.54-0.93-6.5c-0.62-1.95-1.53-3.62-2.72-5.01
			c-1.19-1.39-2.63-2.48-4.33-3.27c-1.7-0.79-3.6-1.19-5.69-1.19c-3,0-5.88,0.64-8.62,1.91c-2.75,1.27-5.15,2.99-7.22,5.14
			c-2.07,2.15-3.71,4.7-4.93,7.64c-1.22,2.94-1.83,6.06-1.83,9.34c0,2.43,0.33,4.69,0.98,6.75c0.65,2.07,1.57,3.85,2.76,5.35
			c1.19,1.5,2.65,2.68,4.37,3.52C747.75,764.22,749.69,764.65,751.84,764.65z"/>
		<path class="st0" d="M800.42,734.58h14.01l-0.93,4.5c1.36-1.07,2.63-1.98,3.82-2.72c1.19-0.74,2.34-1.33,3.44-1.78
			c1.1-0.45,2.21-0.78,3.31-0.98c1.1-0.2,2.28-0.3,3.53-0.3c3.74,0,6.6,1.06,8.58,3.19c1.98,2.12,2.97,5,2.97,8.62
			c0,0.57-0.04,1.26-0.13,2.08c-0.08,0.82-0.21,1.63-0.38,2.42l-5.86,27.35h-14.01l5.18-24.21c0.17-0.91,0.25-1.73,0.25-2.46
			c0-2.83-1.44-4.25-4.33-4.25c-1.13,0-2.19,0.2-3.18,0.59c-0.99,0.4-1.88,0.91-2.68,1.53c-1.02,0.85-1.84,1.77-2.46,2.76
			c-0.62,0.99-1.1,2.31-1.44,3.95l-4.67,22.08h-14.01L800.42,734.58z"/>
		<path class="st0" d="M877.63,776.96l11.04-51.98h-20.89l2.89-13.59h56.65l-2.89,13.59h-20.89l-11.04,51.98H877.63z"/>
		<path class="st0" d="M944.38,733.13l-9.34,43.83h-14.01l8.75-41.02L944.38,733.13z M941.07,711.9c2.15,0,3.85,0.64,5.1,1.91
			c1.25,1.27,1.87,2.99,1.87,5.14c0,1.13-0.23,2.21-0.68,3.23c-0.45,1.02-1.06,1.91-1.83,2.68c-0.76,0.76-1.66,1.36-2.68,1.78
			c-1.02,0.42-2.12,0.64-3.31,0.64c-2.21,0-3.92-0.64-5.14-1.91c-1.22-1.27-1.83-2.93-1.83-4.97c0-1.19,0.23-2.31,0.68-3.35
			c0.45-1.05,1.06-1.95,1.83-2.72c0.76-0.76,1.66-1.36,2.68-1.78C938.78,712.11,939.88,711.9,941.07,711.9z"/>
		<path class="st0" d="M1004.69,752.16c0.17-0.74,0.25-1.42,0.25-2.04c0-2.72-1.39-4.08-4.16-4.08c-2.38,0-4.39,0.91-6.03,2.72
			c-0.68,0.79-1.22,1.54-1.61,2.25c-0.4,0.71-0.74,1.63-1.02,2.76l-4.93,23.19h-14.01l5.27-24.8c0.17-0.74,0.25-1.39,0.25-1.95
			c0-2.77-1.39-4.16-4.16-4.16c-2.32,0-4.36,0.93-6.12,2.8c-0.74,0.79-1.3,1.63-1.7,2.51c-0.4,0.88-0.74,1.94-1.02,3.18l-4.76,22.42
			h-14.01l9-42.38h14.01l-0.85,4.16c1.36-1.58,3.04-2.89,5.05-3.91c2.01-1.02,4.2-1.53,6.58-1.53c2.94,0,5.36,0.62,7.26,1.87
			c1.9,1.25,3.3,2.8,4.2,4.67c1.98-1.98,4.25-3.57,6.79-4.76c2.55-1.19,5.21-1.78,7.98-1.78c4.36,0,7.6,1.1,9.72,3.31
			c2.12,2.21,3.19,5.1,3.19,8.66c0,1.02-0.14,2.18-0.42,3.48l-6.03,28.2h-14.01L1004.69,752.16z"/>
		<path class="st0" d="M1050.55,758.19c-1.87,0.45-3.95,0.89-6.24,1.32c-2.29,0.42-4.49,0.78-6.58,1.06
			c0.28,1.81,1.09,3.29,2.42,4.42c1.33,1.13,3.33,1.7,5.99,1.7c2.83,0,5.61-0.59,8.32-1.78s5.21-2.83,7.47-4.93h0.25l-4.25,14.18
			c-1.93,1.47-4.11,2.55-6.54,3.23c-2.44,0.68-4.87,1.02-7.3,1.02c-3.28,0-6.12-0.48-8.49-1.44s-4.33-2.28-5.86-3.95
			c-1.53-1.67-2.66-3.6-3.4-5.78c-0.74-2.18-1.1-4.49-1.1-6.92c0-3.23,0.76-6.45,2.29-9.68c1.53-3.23,3.58-6.13,6.16-8.71
			c2.58-2.58,5.55-4.67,8.92-6.29c3.37-1.61,6.92-2.42,10.66-2.42c4.47,0,7.81,1.06,10.02,3.19c2.21,2.12,3.31,4.83,3.31,8.11
			c0,3.23-1.27,5.97-3.82,8.24C1060.23,755.02,1056.15,756.83,1050.55,758.19z M1049.27,743.16c-1.08,0-2.19,0.31-3.35,0.93
			c-1.16,0.62-2.27,1.46-3.31,2.5c-1.05,1.05-1.98,2.29-2.8,3.74c-0.82,1.44-1.43,2.99-1.83,4.63c1.47-0.34,2.9-0.69,4.29-1.06
			c1.39-0.37,2.59-0.78,3.61-1.23c2.38-0.91,4.08-1.87,5.1-2.89s1.53-2.24,1.53-3.65C1052.5,744.15,1051.43,743.16,1049.27,743.16z"
			/>
	</g>
</g>
</svg>
