<?xml version="1.0" encoding="utf-8"?>
<!-- Generator: Adobe Illustrator 27.5.0, SVG Export Plug-In . SVG Version: 6.00 Build 0)  -->
<svg version="1.1" id="Capa_1" xmlns="http://www.w3.org/2000/svg" xmlns:xlink="http://www.w3.org/1999/xlink" x="0px" y="0px"
	 viewBox="0 0 1080 1080" style="enable-background:new 0 0 1080 1080;" xml:space="preserve">
<style type="text/css">
	.st0{fill:#FFFFFF;}
</style>
<g>
	<g>
		<g>
			<path class="st0" d="M462.69,606.2c-14.16-44.66-25.67-80.44-34.39-106.43c-16.8-49.79-21.78-60.06-24.12-63.17
				c-5.76-8.4-14.31-14.78-25.36-19.14c-10.74-4.2-22.25-6.22-34.54-6.22c-12.45,0-24.12,2.18-34.7,6.22
				c-11.05,4.36-19.6,10.74-25.67,19.29c-2.02,3.11-6.69,13.07-23.65,63.33c-11.36,33.92-23.03,69.71-34.85,106.43
				c-10.58,33.45-18.36,58.81-23.34,75.31l-2.18,7.47h75.62l67.68-203.21c0.16-0.47,0.31-0.93,0.62-1.56
				c0.16-0.47,0.47-1.24,0.62-1.87c0.16,0.47,0.31,0.93,0.47,1.24c0.16,0.47,0.31,1.09,0.47,1.56l68.77,203.83h74.53l-2.33-7.62
				C478.4,656.46,470.47,631.25,462.69,606.2z"/>
			<path class="st0" d="M503.77,457.3c-16.96,26.3-25.52,58.5-25.52,95.69c0,36.56,8.56,67.84,25.21,92.89
				c18.98,28.63,45.43,43.26,78.58,43.26h135.68v-69.08H591.83c-11.83,0-21.16-7-28.47-21.32c-7.16-13.85-10.74-30.81-10.74-50.57
				c0-19.14,3.58-35.32,10.42-48.23c7.16-13.38,16.49-19.92,28.63-19.92h125.88v-67.53H581.88
				C549.36,412.49,523.06,427.58,503.77,457.3z"/>
			<rect x="741.83" y="412.49" class="st0" width="70.48" height="276.8"/>
			<path class="st0" d="M960.28,620.05c-17.12,0-30.19-7.78-39.99-23.81c-8.71-14.31-13.23-32.36-13.23-53.68V412.49h-70.48v129.77
				c-0.31,1.56-0.47,3.27-0.62,5.13c-0.16,2.02-0.16,4.82-0.16,8.25c0,18.05,2.18,35.01,6.53,50.26
				c6.69,23.65,18.2,42.79,34.54,56.64c20.85,17.74,48.86,26.76,83.55,26.76H1072v-69.08H960.28V620.05z"/>
		</g>
		<g>
			<path class="st0" d="M102.8,550.19c4.2,4.82,6.07,13.69,4.05,19.76l-9.65,28.94c-2.02,6.07-8.87,12.14-15.09,13.38l-29.87,6.22
				c-6.22,1.24-14.94-1.56-19.14-6.38l-20.23-22.87c-4.2-4.82-6.07-13.69-4.05-19.76l9.65-28.94c2.02-6.07,8.87-12.14,15.09-13.38
				l29.87-6.22c6.22-1.24,14.94,1.56,19.14,6.38L102.8,550.19z"/>
			<path class="st0" d="M236.3,445.94c6.38,7.16,9.18,20.54,6.07,29.72l-16.65,50.26c-2.96,9.18-13.23,18.2-22.56,20.07
				l-51.97,10.74c-9.49,1.87-22.41-2.33-28.79-9.49l-35.32-39.68c-6.38-7.16-9.18-20.54-6.07-29.72l16.8-50.41
				c2.96-9.18,13.23-18.2,22.56-20.07l51.97-10.74c9.49-1.87,22.41,2.33,28.79,9.49L236.3,445.94z"/>
			<path class="st0" d="M177.48,330.95c2.18,2.33,3.11,6.85,2.02,9.96l-11.51,34.7c-0.93,3.11-4.36,6.07-7.47,6.69l-35.79,7.31
				c-3.11,0.62-7.47-0.78-9.65-3.11l-24.27-27.38c-2.18-2.33-3.11-6.85-2.02-9.96l11.51-34.7c0.93-3.11,4.36-6.07,7.47-6.69
				l35.79-7.31c3.11-0.62,7.47,0.78,9.65,3.11L177.48,330.95z"/>
		</g>
		<path class="st0" d="M372.29,606.36l-11.2,20.85c-0.93,1.87-2.8,2.96-4.98,3.11l-23.65,0.78c-2.02,0-4.05-0.93-5.13-2.8
			l-12.45-20.07c-1.09-1.71-1.09-4.05-0.16-5.76l11.2-20.85c0.93-1.87,2.8-2.96,4.98-3.11l23.65-0.78c2.02,0,4.05,0.93,5.13,2.8
			l12.45,20.07C373.22,602.31,373.22,604.49,372.29,606.36z"/>
	</g>
	<g>
		<path class="st0" d="M709.46,734.51h-0.26c-1.48-2.4-3.64-4.44-6.46-6.12c-2.82-1.68-6.29-2.52-10.4-2.52
			c-3.48,0-6.67,0.64-9.58,1.93c-2.91,1.28-5.43,3.01-7.57,5.18c-2.14,2.17-3.81,4.69-5.01,7.57c-1.2,2.88-1.8,5.92-1.8,9.11
			c0,2.28,0.36,4.39,1.07,6.33c0.71,1.94,1.74,3.61,3.08,5.01c1.34,1.4,2.98,2.48,4.92,3.25c1.94,0.77,4.16,1.16,6.67,1.16
			c4.28,0,8.3-0.94,12.07-2.82c3.77-1.88,7.45-4.88,11.04-8.99h0.26l-5.91,20.28c-2.8,1.94-5.98,3.42-9.54,4.45
			c-3.57,1.03-7.17,1.54-10.83,1.54c-4.39,0-8.33-0.71-11.81-2.14c-3.48-1.42-6.45-3.45-8.9-6.08c-2.45-2.62-4.32-5.8-5.61-9.54
			c-1.28-3.74-1.92-7.89-1.92-12.45c0-5.02,1.07-9.83,3.21-14.42c2.14-4.59,5.03-8.64,8.69-12.15c3.65-3.51,7.93-6.3,12.84-8.39
			c4.91-2.08,10.13-3.12,15.66-3.12c8.9,0,15.89,1.97,20.97,5.9L709.46,734.51z"/>
		<path class="st0" d="M727.77,712.69h14.98l-11.12,52.37h28.75l-2.91,13.69h-43.73L727.77,712.69z"/>
		<path class="st0" d="M789.56,738.54h20.45l-2.57,12.15h-20.45l-3.25,15.06h24.39l-2.74,13.01h-39.37l14.03-66.07h39.37
			l-2.74,13.09H792.3L789.56,738.54z"/>
		<path class="st0" d="M853.74,713.03l11.12-1.63l14.12,67.35h-15.75l-2.48-14.29h-24.22l-8.3,14.29h-18.14L853.74,713.03z
			 M842.61,753.34h16.69l-3.59-21.31L842.61,753.34z"/>
		<path class="st0" d="M962.17,712.69l-14.04,66.07h-11.72l-26.53-42.53l-9.07,42.53h-14.55l14.03-66.07h11.72l26.61,42.36
			l8.99-42.36H962.17z"/>
		<path class="st0" d="M986.21,738.54h20.45l-2.57,12.15h-20.45l-3.25,15.06h24.39l-2.74,13.01h-39.37l14.03-66.07h39.37
			l-2.74,13.09h-24.39L986.21,738.54z"/>
		<path class="st0" d="M1028.06,712.69h18.74c7.42,0,13.11,1.6,17.07,4.79c3.96,3.2,5.95,7.65,5.95,13.35
			c0,2.51-0.44,4.85-1.33,7.02c-0.88,2.17-2.11,4.15-3.68,5.95c-1.57,1.8-3.47,3.38-5.69,4.75c-2.22,1.37-4.71,2.51-7.44,3.42
			l15.83,26.79h-17.8l-13.52-24.56h-1.97l-5.22,24.56h-14.98L1028.06,712.69z M1036.27,744.61h0.86c2.85,0,5.35-0.3,7.49-0.9
			s3.91-1.43,5.31-2.48c1.4-1.06,2.45-2.31,3.17-3.77c0.71-1.46,1.07-3.01,1.07-4.66c0-2.51-0.87-4.38-2.61-5.61
			c-1.74-1.23-4.24-1.84-7.49-1.84h-3.68L1036.27,744.61z"/>
	</g>
</g>
</svg>
