<?xml version="1.0" encoding="utf-8"?>
<!-- Generator: Adobe Illustrator 27.5.0, SVG Export Plug-In . SVG Version: 6.00 Build 0)  -->
<svg version="1.1" id="Capa_1" xmlns="http://www.w3.org/2000/svg" xmlns:xlink="http://www.w3.org/1999/xlink" x="0px" y="0px"
	 viewBox="0 0 1080 1080" style="enable-background:new 0 0 1080 1080;" xml:space="preserve">
<style type="text/css">
	.st0{fill:#FFFFFF;}
</style>
<g>
	<g id="monitoreo_operativo_00000071521672021046680440000013415990840373917626_">
		<g>
			<path class="st0" d="M1006.68,509.23c0-149.1,0-298.2,0-447.15c0-31.13-23.21-53.86-55.16-53.86c-58.82,0-117.62,0-176.44,0
				c-110.15,0-220.46,0.16-330.61,0.16c-105.22,0-210.28-0.16-315.36-0.16C95.73,8.23,73,30.8,73,63.64
				c0.16,43.58,0.16,87.31,0.16,130.89c0,59.93,0,119.84,0,179.92c0,48.41,0,96.65,0,145.05c0,16.66,0.64,33.31,0.64,49.97
				c0,16.65-0.64,33.31-0.32,49.96c0.16,6.54,1.11,13.23,3.5,19.46c7.79,21.01,27.5,33.78,51.03,33.78c84.08,0,168.01,0,252.09,0
				c2.07,0,3.97,0,6.36,0c-0.48,1.71-0.64,2.8-0.95,3.89c-5.88,16.97-11.92,33.62-17.33,50.74c-1.75,5.29-3.97,7-9.7,7
				c-30.04-0.31-59.77-0.31-89.8-0.16c-16.85,0-27.98,12.92-25.28,29.11c2.07,12.14,12.24,19.61,27.66,19.61
				c93.78,0,187.73,0,281.5,0c62.16,0,124.14,0,186.29,0c25.28,0,50.39,0.16,75.65-0.31c12.24-0.31,21.94-10.27,22.89-21.95
				c0.79-12.45-7.31-23.04-19.55-25.37c-3.18-0.62-6.52-0.78-9.7-0.78c-32.91,0-65.49,0-98.39-0.16c-2.07,0-5.56-1.4-6.2-2.96
				c-6.84-18.99-13.35-38.14-20.19-58.21c3.34,0,5.4,0,7.63,0c86.46,0,172.94,0,259.4,0c33.86,0,56.59-22.26,56.59-55.41
				C1006.68,581.13,1006.68,545.18,1006.68,509.23z M125.63,57.57c276.1,0,551.87,0,828.29,0c0,157.51,0,314.24,0,471.88
				c-275.94,0-551.87,0-828.29,0C125.63,371.96,125.63,214.92,125.63,57.57z M807.51,750.78c-89.01,0-178.19,0-267.35,0
				c-87.58,0-175.33,0-263.06,0c87.58,0,175.33,0,263.06,0C629.34,750.78,718.51,750.78,807.51,750.78z M989.35,624.87
				c-1.27,17.28-17.33,30.82-35.61,30.98c-13.67,0.31-27.34,0-41.17,0c-118.42,0-236.83,0-355.25,0c-82.17,0-164.2,0-246.53,0
				c-61.04,0-122.07,0-183.12,0c-21.62,0-37.68-15.41-37.83-36.73c-0.16-12.45,0-24.75,0-37.67c300.1,0,599.55,0,899.65,0
				C989.51,596.39,990.47,610.71,989.35,624.87z"/>
			<g>
				<path class="st0" d="M526.82,452.27c-60.25-0.78-122.23-28.8-175.17-78.43c-21.46-20.08-39.58-42.96-54.53-67.85
					c-1.43-2.18-2.07-6.54-0.64-8.56c34.97-56.81,81.38-101.47,144.64-127c84.08-34.09,164.67-24.59,240.96,22.57
					c42.44,26.31,75.02,61.95,100.61,103.96c1.27,2.18,1.75,6.38,0.48,8.56c-35.61,57.59-83.12,101.94-147.35,127.93
					C606.29,445.73,574.02,452.11,526.82,452.27z M644.44,301.76c0.48-56.5-46.42-102.41-104.58-102.87
					c-57.39-0.47-104.43,45.76-104.74,102.87c-0.32,55.88,46.74,101.78,104.74,102.09C596.75,404.48,644.12,358.27,644.44,301.76z
					 M614.24,411.48c3.02-0.78,4.61-1.09,6.04-1.71c52.94-21.17,92.82-57.44,122.55-104.58c1.11-1.87,0.95-5.45-0.16-7.32
					c-28.61-45.76-66.59-80.92-117.14-102.72c-1.59-0.62-3.02-1.25-4.61-1.87c-1.59-0.62-3.18-0.78-6.52-2.02
					C696.57,249.01,690.05,362.16,614.24,411.48z M463.71,410.55c-37.04-27.71-57.86-63.66-57.71-109.57
					c0.16-45.76,20.98-81.55,58.02-108.94c-2.54,0.47-4.77,0.93-6.84,2.02c-51.82,21.32-90.75,57.13-120,103.49
					c-1.11,2.02-0.79,5.91,0.48,7.78c17.01,27.55,38.31,51.52,64.22,71.59C420.47,391.26,441.14,402.92,463.71,410.55z"/>
				<path class="st0" d="M586.58,273.9c0-6.85,0-13.85,0-20.7c0.32,0,0.48,0,0.64,0c1.59,17.59,3.34,35.18,4.93,54.48
					c3.18-4.2,5.56-7.32,7.95-10.27c0.64,0.31,0.95,0.62,1.59,0.78c-7.63,12.45-15.26,25.06-24,39.07
					c6.84-2.18,12.08-4.05,17.49-5.91c0.32,0.62,0.64,1.09,0.64,1.71c-15.26,6.23-30.68,12.61-47.53,19.46
					c5.25,2.02,9.06,3.27,12.72,4.67c-0.16,0.31-0.16,0.62-0.32,0.62c-14.63-3.27-28.93-6.54-45.31-10.27
					c1.91,3.42,3.02,5.29,4.29,7.47c-0.32,0.31-0.64,0.62-0.79,0.78c-8.74-9.81-17.33-19.46-27.34-30.82
					c-0.32,5.91-0.48,10.12-0.64,14.16c-0.32,0-0.64,0-0.79,0.16c-1.27-14.79-2.7-29.57-4.13-45.92c-3.02,3.27-4.93,5.29-6.84,7.47
					c-0.32-0.16-0.64-0.47-0.95-0.62c7.15-11.67,14.31-23.35,22.1-36.27c-4.61,1.09-7.63,1.87-10.65,2.65
					c-0.16-0.31-0.32-0.62-0.32-0.78c12.72-5.6,25.59-11.05,39.74-17.28c-6.36-2.18-11.45-3.89-16.37-5.6
					c0.16-0.47,0.16-0.78,0.32-1.09c15.9,3.58,31.79,7.16,49.28,11.05c-3.5-4.98-6.04-8.87-8.58-12.45
					c0.48-0.31,0.64-0.62,1.11-0.78c10.17,11.67,20.19,23.35,30.36,34.87C585.46,274.37,585.94,274.21,586.58,273.9z"/>
			</g>
		</g>
	</g>
	<g>
		<path class="st0" d="M249.99,936.35l-0.16-51.05l-19.24,43.12h-13.35l-19.08-42.96v51.05h-18.12V857.9h22.26l21.78,46.7
			l21.78-46.7h22.26v78.61h-18.12L249.99,936.35L249.99,936.35z"/>
		<path class="st0" d="M365.56,896.97c0,22.88-18.6,40.31-43.4,40.31c-24.8,0-43.24-17.28-43.24-40.31
			c0-22.88,18.6-39.85,43.24-39.85C346.97,857.28,365.56,874.24,365.56,896.97z M299.75,897.13c0,13.23,10.49,23.35,22.73,23.35
			c12.4,0,22.26-10.27,22.26-23.35s-9.86-23.19-22.26-23.19S299.75,883.89,299.75,897.13z"/>
		<path class="st0" d="M432.33,936.35l-36.88-48.25v48.25h-19.08V857.9h17.96l37.04,48.41V857.9h19.08v78.45H432.33z"/>
		<path class="st0" d="M466.19,936.35V857.9h20.35v78.45H466.19z"/>
		<path class="st0" d="M539.79,873.93v62.42h-20.51v-62.42h-23.85v-16.19h68.52v16.19H539.79z"/>
		<path class="st0" d="M649.8,896.97c0,22.88-18.6,40.31-43.4,40.31s-43.24-17.28-43.24-40.31c0-22.88,18.6-39.85,43.24-39.85
			C631.36,857.28,649.8,874.24,649.8,896.97z M583.99,897.13c0,13.23,10.49,23.35,22.73,23.35c12.4,0,22.26-10.27,22.26-23.35
			s-9.86-23.19-22.26-23.19S583.99,883.89,583.99,897.13z"/>
		<path class="st0" d="M697.01,914.25h-0.64h-15.42v22.1h-20.35V857.9h35.77c21.14,0,33.38,9.81,33.38,27.4
			c0,11.99-5.09,20.55-14.47,25.22l16.85,25.84h-23.05L697.01,914.25z M696.38,898.68c8.74,0,13.99-4.36,13.99-12.61
			c0-8.25-5.09-12.3-13.99-12.3h-15.42v25.06h15.42V898.68z"/>
		<path class="st0" d="M763.78,873.62v15.57h38.15v15.72h-38.15v15.88h43.56v15.72h-63.91V857.9h62.79v15.72L763.78,873.62
			L763.78,873.62z"/>
		<path class="st0" d="M901.92,896.97c0,22.88-18.6,40.31-43.4,40.31s-43.24-17.28-43.24-40.31c0-22.88,18.6-39.85,43.24-39.85
			C883.48,857.28,901.92,874.24,901.92,896.97z M836.11,897.13c0,13.23,10.49,23.35,22.73,23.35c12.4,0,22.26-10.27,22.26-23.35
			s-9.86-23.19-22.26-23.19S836.11,883.89,836.11,897.13z"/>
		<path class="st0" d="M282.11,1031.46c0,22.88-18.6,40.31-43.4,40.31c-24.8,0-43.24-17.28-43.24-40.31
			c0-22.88,18.6-39.85,43.24-39.85C263.67,991.76,282.11,1008.73,282.11,1031.46z M216.29,1031.61c0,13.23,10.49,23.35,22.73,23.35
			c12.4,0,22.26-10.27,22.26-23.35c0-13.07-9.86-23.19-22.26-23.19S216.29,1018.38,216.29,1031.61z"/>
		<path class="st0" d="M327.89,992.39c20.51,0,32.27,9.81,32.27,27.4c0,18.37-11.76,28.95-32.27,28.95h-14.47v22.1h-20.35v-78.45
			L327.89,992.39L327.89,992.39z M313.26,1033.17h13.51c8.9,0,14.15-4.36,14.15-12.61s-5.09-12.3-14.15-12.3h-13.51V1033.17z"/>
		<path class="st0" d="M391.16,1008.11v15.57h38.31v15.72h-38.31v15.88h43.56v15.72h-64.06v-78.45h62.79v15.72h-42.29V1008.11z"/>
		<path class="st0" d="M484.31,1048.73h-0.64h-15.42v22.1h-20.35v-78.45h35.77c21.14,0,33.38,9.81,33.38,27.4
			c0,11.99-5.09,20.55-14.47,25.22l16.85,25.84H496.4L484.31,1048.73z M483.68,1033.17c8.74,0,13.99-4.36,13.99-12.61
			s-5.09-12.3-13.99-12.3h-15.42v25.06h15.42V1033.17z"/>
		<path class="st0" d="M549.01,1056.36l-5.88,14.48h-20.98l34.5-78.45h20.98l33.7,78.45h-21.78l-5.72-14.48H549.01z M566.66,1012.31
			l-11.6,28.95h23.05L566.66,1012.31z"/>
		<path class="st0" d="M647.41,1008.42v62.42h-20.35v-62.42h-23.85v-16.19h68.52v16.19H647.41z"/>
		<path class="st0" d="M680.16,1070.84v-78.45h20.35v78.45H680.16z"/>
		<path class="st0" d="M739.62,1070.84l-31.16-78.45h21.78l20.51,57.75l20.51-57.75h20.98l-31.48,78.45H739.62L739.62,1070.84z"/>
		<path class="st0" d="M881.26,1031.46c0,22.88-18.6,40.31-43.4,40.31s-43.24-17.28-43.24-40.31c0-22.88,18.6-39.85,43.24-39.85
			C862.66,991.76,881.26,1008.73,881.26,1031.46z M815.44,1031.61c0,13.23,10.49,23.35,22.73,23.35c12.4,0,22.26-10.27,22.26-23.35
			c0-13.07-9.86-23.19-22.26-23.19S815.44,1018.38,815.44,1031.61z"/>
	</g>
</g>
</svg>
