<?xml version="1.0" encoding="UTF-8"?>
<svg id="Layer_1" data-name="Layer 1" xmlns="http://www.w3.org/2000/svg" viewBox="0 0 200 171.93">
  <defs>
    <style>
      .cls-1 {
        fill: #fff;
        stroke-width: 0px;
      }
    </style>
  </defs>
  <path class="cls-1" d="M111,106.25c2.55,2.86,5.62,4.92,9.27,6.04,1.65.51,3.39.75,5.1,1.02,1.11.17,1.13.08,1.13-1.05v-38.76c0-1.58,0-1.56-1.55-1.46-2.32.15-4.54.68-6.68,1.61-3.01,1.32-5.57,3.21-7.66,5.74-2.44,2.96-4.06,6.29-4.52,10.12-.3,2.45-.37,4.93.17,7.36.79,3.51,2.32,6.65,4.74,9.36Z"/>
  <path class="cls-1" d="M94.28,89.81c-1.25-10.48-10.66-18.04-20.37-17.69v41.34c10.96-.14,22.08-9.32,20.37-23.66Z"/>
  <path class="cls-1" d="M149.14.23l-97.66-.23L0,85.99l49.6,84.56,99.89,1.38,50.51-85.91L149.14.23ZM123.45,37.42c1.7-3.01,3.4-6.04,5.17-9.01,1.01-1.7,2.64-2.28,4.56-2.01,1.45.21,2.52,1.02,3.12,2.36.2.44.25.94.37,1.41.05.03.11.06.16.09-.48,1.11-.87,2.27-1.46,3.31-1.45,2.57-3,5.08-4.48,7.63-.29.49-.57.53-1.02.28-2.08-1.18-4.18-2.34-6.25-3.53-.12-.07-.24-.42-.17-.53ZM95.83,21.72c.07-2.18,1.19-3.52,3.45-4.04,1.86-.42,3.79.38,4.68,2.49.3.7.34,1.55.35,2.33.05,3.09.04,6.19.05,9.28,0,.9-.11.91-1.03.89-1.73-.03-3.46.04-5.2.06-.75,0-1.5,0-2.33,0,0-3.73-.08-7.37.03-11.01ZM67.82,26.26c1.86-.03,3.13,1,4.04,2.57,1.33,2.32,2.71,4.62,4.05,6.94.4.69.74,1.4,1.05,2.01-1.15.64-2.14,1.2-3.14,1.76-1.18.66-2.34,1.35-3.53,1.98-.16.09-.59,0-.66-.12-1.8-3.11-3.61-6.22-5.32-9.38-1.42-2.61.63-5.71,3.51-5.76ZM60.61,84.45c.02-3.07.6-6.11,1.4-9.1,1.36-5.13,3.7-9.78,6.94-13.97,1.69-2.19,3.6-4.19,5.75-5.97,2.43-2.01,4.99-3.82,7.82-5.18,2.11-1.01,4.29-1.92,6.53-2.58,2.15-.63,4.39-1,6.62-1.27,2.07-.26,4.19-.41,6.27-.31,3.34.16,6.63.71,9.85,1.67,4.23,1.26,8.15,3.19,11.73,5.75,2.52,1.8,4.78,3.91,6.82,6.26,2.02,2.33,3.76,4.84,5.18,7.55,1.45,2.76,2.61,5.65,3.25,8.72.35,1.67.69,3.35,1.03,5.02.01.07.01.15.01.23.08,2.41.23,4.81.24,7.22.03,12.12.02,24.24.01,36.36,0,.82-.09,1.63-.15,2.49H60.57v-.86c0-14.01-.05-28.02.04-42.03ZM42.04,57.27c-1.12-.76-1.85-1.79-1.74-3.16-.11-2.92,3.12-5.43,6.15-3.82,2.5,1.33,4.94,2.8,7.4,4.21.51.29.97.66,1.51.88.57.23.63.53.35,1.01-.85,1.47-1.69,2.94-2.54,4.41-.31.53-.64,1.05-.92,1.59-.23.45-.52.55-.96.3-2.19-1.28-4.39-2.56-6.59-3.84-.89-.52-1.81-1-2.66-1.58ZM154.76,150.22c-.1,1.26-.84,2.12-1.92,2.72-.29.16-.53.4-.79.6H48.93c-.1-.1-.19-.25-.31-.29-1.46-.38-2.6-1.85-2.58-3.15.03-1.74-.03-3.47.02-5.21.04-1.58,1.03-2.85,2.61-3.13,1.46-.26,2.97-.29,4.28-.4-.08-.58-.24-1.34-.28-2.1-.06-1.13,0-2.27-.04-3.4-.07-2.65,1.42-4.4,4.3-4.34.65.01,1.31-.01,1.96-.01,28.16,0,56.32,0,84.49.01.62,0,1.26.03,1.86.17,1.55.36,2.52,1.43,2.69,2.95.26,2.23.29,4.49-.24,6.79.76,0,1.53.02,2.3,0,3.26-.08,5.01,2.11,4.93,4.97-.03,1.27-.05,2.55-.15,3.81ZM157.95,57.37c-2.95,1.73-5.91,3.45-8.88,5.15-.18.11-.67.06-.74-.07-1.3-2.27-2.56-4.57-3.84-6.87,3.05-1.81,6.05-3.62,9.08-5.36,1.58-.9,3.23-.82,4.77.14,1.32.83,1.93,2.69,1.63,4.23-.26,1.31-.94,2.15-2.02,2.78Z"/>
</svg>