<?xml version="1.0" encoding="UTF-8"?>
<svg id="Layer_1" data-name="Layer 1" xmlns="http://www.w3.org/2000/svg" viewBox="0 0 200 171.93">
  <defs>
    <style>
      .cls-1 {
        fill: #fff;
        stroke-width: 0px;
      }
    </style>
  </defs>
  <path class="cls-1" d="M125.95,78.83c-.05-.81-.1-1.62-.16-2.43-.05-.38-.11-.76-.16-1.14,0-.11,0-.21,0-.32-.05-.22-.1-.44-.15-.65-.03-.14-.06-.29-.09-.43-.14-.67-.28-1.34-.42-2.01-.17-.91-.34-1.83-.52-2.74-.26-.82-.52-1.64-.78-2.45-.31-.81-.63-1.62-.94-2.44-.33-.83-.65-1.67-.98-2.5-.91-1.6-1.82-3.2-2.73-4.81-.38-.41-.75-.83-1.13-1.24-.33-.4-.65-.79-.98-1.19-.44-.43-.88-.87-1.32-1.3-1.43-1.27-3.11-2.08-4.9-2.72-.86-.06-1.72-.12-2.58-.17-.87.04-1.74.09-2.62.13-1.84.28-3.25,1.4-4.71,2.42-.6.54-1.2,1.09-1.8,1.63l-.94.98c-.33.43-.66.86-1,1.29-.7,1.09-1.42,2.17-2.08,3.29-.33.55-.56,1.16-.83,1.75-.33.76-.66,1.51-.99,2.27-.2.49-.41.98-.61,1.47-.01.05-.02.1-.02.14-.06.27-.13.54-.19.81-.26.87-.52,1.74-.77,2.62-.21.71-.42,1.41-.63,2.12-.02.32-.04.64-.06.96-.14.6-.28,1.2-.42,1.8-.1.81-.21,1.61-.31,2.42-.11.82-.23,1.63-.34,2.45,0,.81,0,1.61,0,2.42-.01.81-.03,1.62-.04,2.44.02.81.03,1.62.05,2.43,0,.82,0,1.63-.01,2.45.11.81.21,1.62.32,2.42.11.81.22,1.63.34,2.44.14.71.29,1.41.43,2.12.02.11.03.21.05.32.22.81.43,1.62.65,2.42.24.82.49,1.63.73,2.45.41,1.17.81,2.35,1.25,3.51.2.53.48,1.02.73,1.53.25.53.45,1.08.75,1.57.65,1.06,1.35,2.08,2.03,3.11.38.49.75.98,1.13,1.47.31.33.63.65.94.98.55.53,1.11,1.06,1.66,1.6.94.59,1.85,1.23,2.83,1.74.63.33,1.36.47,2.04.69.81.11,1.62.21,2.43.32.82-.12,1.64-.24,2.45-.36,1.85-.51,3.42-1.5,4.85-2.74.44-.42.89-.83,1.33-1.25,1.05-.65,1.37-1.92,2.33-2.7.62-.49.91-1.39,1.35-2.1.45-.84.9-1.69,1.35-2.53.63-1.57,1.26-3.14,1.89-4.71.23-.8.46-1.61.69-2.41.21-.87.41-1.74.61-2.62.06-.33.13-.67.19-1,.21-1.28.42-2.57.63-3.85.05-.82.11-1.63.16-2.45.05-.81.11-1.61.16-2.42,0-.82,0-1.63,0-2.45,0-.81,0-1.62,0-2.42-.05-.82-.11-1.63-.16-2.45ZM114,86.14l-.7,2.43c-.16.33-.32.65-.48.98-.27.43-.55.86-.82,1.29-1.08,1.06-2.15,2.12-3.23,3.18-.2.2-.44.36-.66.54-.7.37-1.41.75-2.11,1.12-.16.06-.33.12-.49.18-.75.23-1.51.46-2.26.69-.81.12-1.61.25-2.42.37-.72,0-1.24-.25-1.33-1.05l-.49-2.75c-.1-.77-.19-1.53-.29-2.3-.12-1.56-.24-3.12-.36-4.68-.01-.82-.02-1.63-.03-2.45.01-.81.02-1.61.03-2.42.05-.82.11-1.63.16-2.45.01-.32.02-.64.03-.97.04-.49.09-.98.13-1.47.11-.81.22-1.62.33-2.43.16-.81.32-1.63.48-2.44.03-.85.42-1.29,1.31-1.15.81.13,1.61.26,2.42.39.76.26,1.53.52,2.29.78.16.07.31.13.47.19.65.32,1.3.63,1.95.95,1.01.87,2.03,1.74,3.04,2.63.31.28.57.61.85.92.38.58.76,1.16,1.15,1.74.16.35.33.7.49,1.06.23.75.46,1.49.69,2.24l.17,2.45c-.1.81-.21,1.61-.31,2.42Z"/>
  <path class="cls-1" d="M149.14.23l-97.66-.23L0,85.99l49.6,84.56,99.89,1.38,50.51-85.91L149.14.23ZM154.39,59.21c.81-.49,1.63-.97,2.44-1.46.43-.22.86-.45,1.29-.67.38-.21.77-.42,1.15-.63.35-.17.73-.3,1.06-.51.66-.41,1.28-.91,1.96-1.28.63-.34,1.33-.56,2-.83.44-.26.84-.26,1.21.15.76.84,1.2,1.83,1.42,2.93-.12.21-.24.41-.36.62-1.62.99-3.24,1.99-4.86,2.98-.6.37-1.2.73-1.79,1.1-.21.12-.43.23-.64.35-1.35.78-2.7,1.55-4.04,2.34-.29.17-.56.36-.84.55-1.63.92-3.25,1.84-4.88,2.76-.56.28-1.13.54-1.68.84-1.13.63-2.25,1.28-3.37,1.93-.75.28-1.49.57-2.24.85-.59-.71-1.18-1.42-1.77-2.14-.33-1.11-.25-1.35.62-1.95.13-.09.24-.2.36-.3.27-.16.53-.33.8-.49,1.71-1.05,3.38-2.16,5.17-3.07,1.58-.93,3.17-1.86,4.75-2.78.65-.38,1.3-.76,1.96-1.14.1-.05.2-.1.3-.15ZM63.62,129.97c-.04.81-.08,1.62-.13,2.43v2.45c-.05.81-.11,1.62-.16,2.42-.12.81-.24,1.62-.36,2.43-.56,1.13-1.24,2.15-2.44,2.72-.55.26-1.07.57-1.6.86h-.81c-.75-.05-1.51-.09-2.26-.14-.17,0-.34,0-.51,0-.59.04-1.18.09-1.77.13h-1.46c-.77-.3-1.55-.6-2.32-.9l-.05-.04-.06-.03c-.16-.11-.31-.23-.47-.34-.5-.75-1-1.5-1.5-2.25l-.29-1.15c-.02-.43-.03-.86-.05-1.29l-.15-2.45v-2.42c0-.82,0-1.63,0-2.45,0-.81,0-1.62,0-2.42v-2.45c-.04-.81-.08-1.62-.12-2.43.04-.82.07-1.63.11-2.45-.05-.81-.1-1.61-.15-2.42,0-.82,0-1.63,0-2.45.02-.8.05-1.61.07-2.41-.01-.82-.02-1.63-.04-2.45v-2.44c.05-.41.11-.82.16-1.22.8,0,1.6,0,2.4,0,.82,0,1.65,0,2.47,0,.8,0,1.6,0,2.4,0,.82,0,1.64,0,2.46,0,.8,0,1.6,0,2.4,0,.82,0,1.65,0,2.47,0h1.75c0,.35,0,.61,0,.87,0,7.21.01,14.42.02,21.62,0,.21,0,.43-.01.64ZM132.98,88.59c-.05.81-.11,1.62-.16,2.42-.05.82-.11,1.63-.16,2.45-.26,1.62-.53,3.24-.79,4.86-.17.71-.33,1.42-.5,2.13-.17.86-.35,1.72-.52,2.58-.26.87-.52,1.74-.78,2.62-.09.32-.19.64-.28.96-.18.49-.36.98-.54,1.48-.28.75-.57,1.49-.85,2.24-.53,1.1-1.06,2.2-1.59,3.3-.23.47-.45.94-.67,1.41-.52.88-1,1.79-1.58,2.64-.59.86-1.28,1.66-1.93,2.49-.81.8-1.61,1.6-2.42,2.4-1.39,1.42-3,2.54-4.78,3.41l-2.45.8c-.81.11-1.62.22-2.43.34-.82-.05-1.63-.11-2.45-.16-.81-.23-1.62-.46-2.43-.69-.37-.23-.73-.47-1.11-.68-1.25-.69-2.51-1.36-3.77-2.04-1.62-.94-3.24-1.89-4.85-2.83-.29-.15-.59-.3-.88-.46-.46-.27-.92-.54-1.38-.81-.88-.53-1.75-1.06-2.63-1.58-.11-.07-.21-.13-.32-.2-.7-.38-1.4-.77-2.1-1.15-1.63-.97-3.25-1.94-4.88-2.92-.18-.14-.35-.32-.55-.42-.53-.26-1.11-.44-1.62-.74-.92-.54-1.81-1.15-2.71-1.73-.21-.12-.43-.24-.64-.36-.6-.36-1.2-.73-1.8-1.09-1.56-.94-3.11-1.87-4.67-2.81-.56-.32-1.12-.65-1.69-.96-.29-.16-.63-.24-.92-.41-.81-.49-1.59-1.01-2.39-1.52-.29-.17-.59-.34-.88-.51-.54-.04-1.09-.08-1.63-.12-.81,0-1.62,0-2.42,0h-2.45c-.81,0-1.62,0-2.42,0-.82-.03-1.64-.06-2.46-.09-.8-.02-1.61-.03-2.41-.05-1.62,0-3.25-.02-4.87-.02-.81-.01-1.62-.03-2.43-.04-.81-.1-1.63-.19-2.44-.29-.76-.27-1.53-.53-2.29-.8-1.67-.94-3.34-1.87-5.02-2.81-.21-.16-.41-.32-.62-.48-.6-.58-1.2-1.15-1.81-1.73-.22-.23-.43-.47-.65-.7-.99-1.67-1.98-3.35-2.96-5.02-.27-.76-.54-1.52-.81-2.28-.05-.31-.1-.62-.15-.92-.11-.61-.22-1.22-.32-1.83v-6.82c.15-.08.39-.13.44-.25.32-.77.59-1.56.88-2.34.92-1.62,1.85-3.24,2.77-4.85.26-.27.53-.53.79-.8.48-.49.97-.98,1.45-1.47.33-.27.65-.54.98-.81.11-.05.22-.09.33-.14.06-.07.12-.13.18-.2.1-.05.2-.1.3-.14.06-.06.12-.12.18-.18l.31-.13c.06-.07.12-.13.18-.2.1-.05.2-.1.29-.15.12-.06.24-.12.36-.18.35-.22.68-.46,1.05-.64.55-.26,1.12-.47,1.68-.7.81-.26,1.63-.51,2.44-.77.81-.11,1.62-.22,2.43-.33.81-.02,1.62-.03,2.42-.05.81-.04,1.62-.08,2.44-.12.81,0,1.63-.01,2.44-.02h9.74c.87,0,1.73.01,2.6.02.41.19.82.35,1.14-.15.44-.22.87-.44,1.31-.66.49-.28,1.01-.52,1.48-.84.39-.27.69-.7,1.09-.94.74-.43,1.54-.77,2.31-1.15,1.56-.92,3.12-1.83,4.69-2.75.59-.34,1.18-.68,1.77-1.02.22-.14.44-.29.67-.43.41-.23.83-.43,1.21-.7.56-.39,1.04-.89,1.62-1.23.63-.37,1.34-.6,2.02-.89,1.69-1.02,3.37-2.03,5.06-3.05.58-.34,1.17-.67,1.75-1.01.23-.15.45-.3.68-.45.35-.18.71-.32,1.03-.54.55-.38,1.08-.8,1.81-1.35.68.16,1.32-.54,2.04-1.03,1.62-.92,3.24-1.84,4.86-2.76.7-.39,1.39-.78,2.09-1.17.06-.04.12-.09.18-.13.81-.44,1.62-.88,2.43-1.33.81-.21,1.63-.42,2.44-.64.81,0,1.62-.01,2.43-.02.81.11,1.63.22,2.45.32.81.29,1.62.57,2.42.86,1.86.72,3.36,1.98,4.86,3.25.06.05.11.11.17.16.69.7,1.38,1.4,2.07,2.1.07.1.14.21.21.31,1.13,1.63,2.26,3.27,3.39,4.9.75,1.57,1.51,3.13,2.26,4.7.3.81.61,1.62.91,2.43.18.55.36,1.09.55,1.64.11.33.23.65.34.98.23.85.47,1.71.7,2.56.16.71.32,1.42.48,2.13.16.81.32,1.62.48,2.42.14.65.29,1.31.43,1.96.02.16.04.31.06.47.11.82.22,1.63.32,2.45.05.81.11,1.62.16,2.42.05.82.11,1.63.16,2.45.05.81.11,1.62.16,2.42,0,.82.01,1.63.02,2.45,0,.8,0,1.61.01,2.41l-.19,2.45ZM135.09,51.08c.27-.49.54-.97.81-1.46.43-.75.86-1.51,1.3-2.26.07-.18.13-.36.2-.54l1.25-1.9c.96-1.68,1.93-3.37,2.89-5.05.4-.67,1-1.26.9-1.98.31-.36.59-.61.79-.91.39-.59.73-1.21,1.09-1.82.12-.21.24-.42.37-.63l1.11-1.95c.82-1.33,1.65-2.66,2.46-4.01.3-.49.64-.83,1.26-.72.75.44,1.51.88,2.26,1.32.19.27.37.55.56.82-.33.76-.62,1.54-.99,2.28-.47.93-1.01,1.83-1.52,2.74-.16.27-.33.54-.49.81-.27.49-.54.97-.8,1.46-.48.82-.96,1.63-1.43,2.45-.07.16-.14.32-.21.48-.42.71-.84,1.41-1.25,2.12-.88,1.56-1.75,3.13-2.63,4.69-.98,1.68-1.96,3.36-2.93,5.04-.11.21-.21.42-.32.63-.38.54-.75,1.09-1.13,1.63-.43.12-.86.25-1.29.37-.27-.12-.54-.25-.8-.37-.54-.39-1.08-.77-1.63-1.16-.12-.26-.24-.52-.36-.78.18-.43.35-.86.53-1.29ZM151.93,138.06c-.75.4-1.51.79-2.26,1.19-.06.04-.12.08-.18.13h0c-.52.08-.86-.07-1.15-.58-.77-1.34-1.62-2.63-2.43-3.94-.42-.66-.83-1.32-1.25-1.98-.1-.16-.2-.32-.3-.49-.23-.46-.43-.95-.71-1.39-.38-.6-.87-1.13-1.24-1.73-.33-.54-.55-1.15-.82-1.73-.98-1.68-1.97-3.36-2.95-5.05-.34-.65-.69-1.29-1.03-1.94-.05-.1-.11-.2-.16-.3-.46-.81-.91-1.61-1.36-2.42-.35-.65-.7-1.31-1.05-1.96-.09-.17-.18-.34-.27-.5-.51-.59.05-.9.33-1.29.48-.32.96-.65,1.44-.97.37-.18.75-.35,1.12-.53.32.12.64.24.96.36.33.54.66,1.08.99,1.62.22.33.43.66.64.98.03.1.03.21.08.29.51.77,1.05,1.52,1.53,2.31.46.77.86,1.59,1.29,2.38.87,1.53,1.74,3.06,2.61,4.59.44.74.87,1.48,1.31,2.21.06.13.12.25.17.38.42.76.84,1.53,1.26,2.29.28.48.55.96.83,1.45.16.33.33.65.49.98.33.62.65,1.26,1,1.87.24.42.56.8.79,1.23.27.52.48,1.07.72,1.61-.13.31-.26.62-.4.93ZM165.17,113.45c-.23.17-.57.2-.86.29-.16-.13-.31-.27-.49-.37-1.46-.8-2.92-1.6-4.38-2.39-.33-.2-.67-.41-1-.61-.53-.29-1.07-.59-1.6-.88-.82-.46-1.63-.93-2.45-1.39-.11-.06-.21-.13-.32-.19-.62-.36-1.23-.71-1.85-1.07-1.65-.94-3.3-1.89-4.95-2.83-.76-.43-1.53-.85-2.28-1.31-.93-.57-1.85-1.16-2.78-1.74-.21-.12-.43-.24-.64-.36-.66-.61-1.74-1-1.13-2.25.43-.75.87-1.5,1.3-2.25.21-.02.43-.03.64-.05l.64.16c.54.27,1.09.54,1.64.8.82.46,1.65.93,2.47,1.39.05,0,.11,0,.16-.01.74.47,1.49.93,2.23,1.4.91.55,1.82,1.11,2.74,1.64.7.4,1.41.77,2.12,1.15.65.29,1.33.53,1.93.89,1.02.6,1.99,1.29,2.99,1.94.25.14.5.29.75.43.55.32,1.1.64,1.64.95,1.62,1.03,3.24,2.06,4.86,3.09.18.21.36.41.53.62-.37,1.16-.91,2.22-1.91,2.96ZM171.43,85.95c-.81.07-1.61.15-2.42.22h-.82c-.49-.02-.97-.03-1.46-.04-.06,0-.11.01-.17.02-.81,0-1.62,0-2.43,0-.82,0-1.63.01-2.45.02h-2.42c-.82,0-1.63-.01-2.45-.02-.81,0-1.62,0-2.43,0-.81,0-1.63,0-2.44-.01-2.43,0-4.87-.02-7.3-.03-.06-.04-.12-.08-.17-.12-1.44-.06-1.76-.41-1.78-1.89,0-.13-.01-.27-.02-.4.01-.32-.01-.64.04-.95.1-.56.16-1.18.96-1.19.32-.11.64-.22.96-.33.54.05,1.08.1,1.62.16.07,0,.13-.01.2-.02,1.02-.03,2.05-.06,3.07-.09.81,0,1.61,0,2.42,0,.82,0,1.63,0,2.45-.01h9.74c.81,0,1.61,0,2.42.01.81.04,1.63.08,2.44.11.81.01,1.63.02,2.44.04.27.05.54.1.81.15v3.9l-.82.45Z"/>
</svg>