<?xml version="1.0" encoding="UTF-8"?>
<svg id="Layer_1" data-name="Layer 1" xmlns="http://www.w3.org/2000/svg" viewBox="0 0 200 171.93">
  <defs>
    <style>
      .cls-1 {
        fill: #fff;
        stroke-width: 0px;
      }
    </style>
  </defs>
  <path class="cls-1" d="M99.85,54.9c-2.59,0-4.65,2.1-4.65,4.72,0,2.57,2.09,4.64,4.68,4.64,2.57,0,4.66-2.1,4.67-4.66,0-2.59-2.11-4.7-4.69-4.7Z"/>
  <path class="cls-1" d="M111.97,127.57c.86-.04,1.72-.01,2.58-.01,3.17,0,6.35-.03,9.52-.02.49,0,.59-.13.59-.6-.02-6.4-.01-12.8-.01-19.2,0-7.7,0-15.41,0-23.11h0c0-3.64,0-7.27,0-10.91,0-10.47,0-20.93,0-31.4,0-.47-.1-.61-.59-.61-4.25.02-8.5.02-12.74.01-9.42-.01-18.84.03-28.26-.04-2.38-.02-4.76.04-7.14.03-.44,0-.56.11-.55.55.02,2.51,0,5.03,0,7.54,0,9.89,0,19.78,0,29.66,0,9.92,0,19.84,0,29.76,0,5.92,0,11.84,0,17.76,0,.3-.07.56.43.56,4.03-.02,8.07-.02,12.1,0,.33,0,.42-.09.41-.42-.02-1.04,0-2.08,0-3.12,0-6.37,0-12.73.01-19.1,0-.47-.14-.57-.58-.56-1.62.03-3.24-.03-4.86.02-1.65.05-2.86-1.11-2.85-2.82.05-6.61.02-13.23.02-19.84,0-1.3.25-2.57.75-3.77,1.8-4.36,5.68-6.96,10.41-6.97,5.77-.01,11.54,0,17.31,0,1.19,0,2.36.15,3.51.55,2.86.99,5.05,2.75,6.45,5.45.88,1.7,1.23,3.51,1.22,5.41-.02,4.13,0,8.26-.03,12.39-.01,2.28,0,4.56.02,6.84,0,1.72-1.08,2.76-2.81,2.75-1.65,0-3.31,0-4.96-.01-.39,0-.5.11-.5.5.02,1.93,0,3.87,0,5.8,0,5.46,0,10.91,0,16.37,0,.43.1.58.54.56ZM100.01,69.27c-5.48.07-9.76-4.32-9.82-9.48-.06-5.56,4.21-9.85,9.72-9.86,5.12-.07,9.51,4.19,9.63,9.41.12,5.49-4.29,9.86-9.53,9.93Z"/>
  <path class="cls-1" d="M142.53,98.29c0,2.23,0,4.46,0,6.69,0,.34.09.46.45.45,1.49-.02,2.98,0,4.46,0,.2,0,.39-.03.58-.11.71-.31.9-.9.9-1.61,0-7.39,0-14.78,0-22.17h0c0-4.68,0-9.36,0-14.03,0-2.76,0-5.52,0-8.28,0-1.1-.56-1.63-1.66-1.63-1.42,0-2.84.02-4.27-.01-.39,0-.46.12-.46.47.01,4.82,0,9.64,0,14.46,0,8.59,0,17.19,0,25.78Z"/>
  <path class="cls-1" d="M57.5,65.14c0-2.36,0-4.73,0-7.09,0-.36-.08-.48-.46-.48-1.45.02-2.91.01-4.36,0-.64,0-1.12.27-1.42.82-.17.31-.15.67-.15,1.02,0,7.32,0,14.64,0,21.97h0c0,2.4,0,4.79,0,7.19,0,5.02-.01,10.05-.03,15.07,0,1.13.58,1.77,1.71,1.77,1.37,0,2.74-.02,4.12.01.48.01.61-.12.61-.6-.02-3.6-.01-7.2-.01-10.79,0-9.63,0-19.27,0-28.9Z"/>
  <path class="cls-1" d="M109.72,81.74c.98.31,1.69,1.24,1.71,2.32.02,1.54,0,3.07,0,4.61,0,3.39,0,6.78,0,10.17,0,.39.1.52.5.5.68-.03,1.35.02,2.03.02.78,0,.78,0,.74-.81-.01-.2,0-.4,0-.6,0-5.26,0-10.52,0-15.77,0-3.58-2.55-6.17-6.12-6.22-1.36-.02-2.71,0-4.07,0-4.43,0-8.86-.02-13.29,0-3.59.02-6.16,2.63-6.17,6.23,0,5.55,0,11.11-.01,16.66,0,.44.16.53.55.52.74-.03,1.49-.06,2.23-.02.45.02.55-.11.54-.54-.03-3.7-.03-7.41-.04-11.11,0-1.24-.02-2.48,0-3.72.04-1.46,1.42-2.57,2.86-2.32,1.3.22,2.11,1.19,2.11,2.59,0,2.55-.01,5.09,0,7.64,0,9.36,0,18.72,0,28.08,0,2.36.01,4.73,0,7.09,0,.39.11.51.5.49,1.01-.03,2.02-.04,3.03,0,.47.02.56-.14.56-.58-.01-6.75,0-13.49,0-20.24,0-.21,0-.43.02-.64.17-1.46,1.25-2.35,2.73-2.27,1.26.07,2.26,1.2,2.26,2.56,0,2.03,0,4.07,0,6.1,0,4.83,0,9.66,0,14.48,0,.43.07.61.56.58.96-.04,1.92-.01,2.88-.01q.65,0,.65-.63c0-7.13,0-14.25,0-21.38h0v-.5c0-6.96,0-13.92-.01-20.88,0-.57.15-1.08.5-1.53.67-.87,1.75-1.21,2.79-.87Z"/>
  <path class="cls-1" d="M62.49,77.16h0v29.22c0,6.89,0,13.79-.01,20.68,0,.41.14.48.51.48,2.25-.01,4.5-.02,6.75,0,.5,0,.62-.11.62-.62-.02-14.57-.01-29.13-.01-43.7s0-28.64,0-42.96c0-2.31-.01-4.63,0-6.94.01-1.48,1.12-2.6,2.51-2.59,1.44.02,2.51,1.14,2.51,2.64,0,.94.02,1.88-.01,2.83-.02.43.1.55.55.55,4.18-.02,8.37-.01,12.55-.01,9.59,0,19.18,0,28.77,0,2.33,0,4.66,0,6.99.01.35,0,.45-.1.44-.44-.02-1.02-.02-2.05,0-3.08.03-1.77,1.79-2.95,3.42-2.31,1.03.4,1.6,1.33,1.6,2.61,0,6.98-.01,13.96,0,20.93,0,15.01,0,30.03.01,45.04,0,9.16,0,18.32-.01,27.48,0,.46.13.57.58.57,2.23-.02,4.46-.03,6.7,0,.47,0,.61-.1.6-.59-.02-7.16-.01-14.32-.01-21.48,0-14.86,0-29.73,0-44.59,0-11.14,0-22.29.01-33.43,0-.51-.14-.62-.63-.62-8.2.02-16.4.01-24.6.02-10.05,0-20.1,0-30.16,0-6.35,0-12.7,0-19.05-.01-.51,0-.62.14-.62.63.02,6.78.01,13.56.01,20.34,0,9.79,0,19.58,0,29.36Z"/>
  <path class="cls-1" d="M153.53,132.52c-4.69.02-9.38.02-14.07.01-8.23,0-16.47,0-24.7,0-11.62,0-23.24,0-34.85,0-4.66,0-9.32,0-13.99,0-6.48,0-12.96,0-19.44,0-.43,0-.56.11-.55.55.03,1.29.04,2.58,0,3.87-.02.51.17.59.61.59,5.36-.02,10.71-.02,16.07-.02,5.6,0,11.21.02,16.81.02,6.84,0,13.69,0,20.53,0v-.02c4,0,8,0,12,0,7.94,0,15.87.01,23.81.02,5.95,0,11.9,0,17.85,0,.35,0,.49-.08.48-.47-.02-1.32-.03-2.65,0-3.97.01-.46-.12-.57-.57-.57Z"/>
  <path class="cls-1" d="M149.14.23l-97.66-.23L0,85.99l49.6,84.56,99.89,1.38,50.51-85.91L149.14.23ZM156.08,69.9c1.87-1.67,3.74-3.34,5.63-4.99.83-.72,1.78-.86,2.76-.38.98.48,1.45,1.32,1.4,2.42-.03.67-.33,1.25-.83,1.69-1.86,1.66-3.72,3.31-5.59,4.96-.47.42-1.03.64-1.78.63-.91,0-1.82-.63-2.2-1.59-.37-.94-.14-2.07.6-2.73ZM34.3,65.88c.39-.98,1.29-1.61,2.43-1.6.55-.01,1.1.22,1.57.64,1.85,1.64,3.71,3.28,5.55,4.93,1.07.96,1.15,2.49.21,3.55-.92,1.04-2.49,1.12-3.56.17-1.84-1.63-3.68-3.26-5.52-4.9-.82-.73-1.08-1.82-.7-2.79ZM31.09,84c-1.98-.03-3.15-2.03-2.2-3.73.46-.81,1.19-1.25,2.11-1.26,3.79-.02,7.57-.02,11.36,0,1.26,0,2.32,1.13,2.36,2.43.04,1.29-.94,2.46-2.23,2.53-1.24.07-2.48.02-3.72.03-.73,0-1.46,0-2.18,0h0c-1.84,0-3.67.02-5.51,0ZM38.29,98.13c-1.49,1.25-3.65.54-4.09-1.34-.21-.91.04-1.72.73-2.34,1.87-1.7,3.76-3.36,5.66-5.04.46-.41,1.01-.62,1.57-.59,1.14,0,2,.59,2.4,1.59.39,1,.12,2.06-.74,2.82-1.18,1.05-2.37,2.1-3.56,3.15-.65.58-1.3,1.18-1.97,1.74ZM156.38,142.5c-13.24,0-26.49,0-39.73,0-5.56,0-11.11,0-16.67,0-14.3,0-28.6,0-42.91,0-4.51,0-9.03,0-13.54,0-1.51,0-2.57-1.04-2.58-2.54-.01-3.31-.01-6.61,0-9.92,0-1.44,1.09-2.5,2.53-2.5,2.91,0,5.82.02,8.73.03,1.64,0,3.27-.03,4.91-.02.37,0,.46-.16.44-.47-.03-.49-.05-.99-.05-1.48,0-4.86,0-9.72,0-14.58,0-.45-.11-.57-.57-.57-1.77,0-3.54.13-5.3-.07-2.92-.34-5.34-2.96-5.49-5.89-.02-.33-.02-.66-.02-.99,0-7.97,0-15.94,0-23.91,0-6.75,0-13.49,0-20.24,0-2.54,1.03-4.5,3.2-5.83.98-.6,2.06-.87,3.21-.88,1.47,0,2.94,0,4.41.01.4,0,.57-.06.57-.53-.02-4.25-.02-8.5-.02-12.75,0-4.92,0-9.84,0-14.76,0-1.39.7-2.34,1.92-2.66.29-.08.59-.07.89-.07,7.49,0,14.98.01,22.47.01,11.29,0,22.59,0,33.88-.01,7.72,0,15.44,0,23.17,0,1.66,0,2.71,1.01,2.71,2.67.01,3.98.04,7.97-.02,11.95-.03,1.7,0,3.4,0,5.1,0,3.5.02,7.01,0,10.51,0,.38.09.54.52.53,1.42-.03,2.84-.01,4.26-.01,3.37,0,5.99,2.19,6.55,5.52.14.87.07,1.75.07,2.62,0,10.58,0,21.16,0,31.75,0,3.77.01,7.54,0,11.31-.01,2.73-1.23,4.74-3.66,6-.82.43-1.71.62-2.62.63-1.54.02-3.08.02-4.61,0-.4,0-.49.13-.49.51.01,5.37.01,10.75,0,16.12,0,.4.13.49.51.49,4.45-.01,8.89,0,13.34,0,1.7,0,2.71,1.01,2.71,2.72,0,3.19,0,6.38,0,9.57,0,1.66-1.03,2.68-2.7,2.68ZM165.29,97.88c-.91,1.06-2.46,1.2-3.55.26-1.91-1.65-3.79-3.34-5.66-5.03-.79-.71-.98-1.79-.58-2.77.39-.95,1.27-1.52,2.4-1.51.6-.04,1.14.22,1.61.64,1.83,1.62,3.65,3.24,5.47,4.87,1.09.97,1.21,2.5.31,3.55ZM168.98,84c-1.87.03-3.73,0-5.6,0h0c-1.83,0-3.67.01-5.5,0-1.38,0-2.42-.91-2.58-2.25-.15-1.22.67-2.36,1.93-2.69.19-.05.39-.07.59-.07,3.7,0,7.4,0,11.1,0,1.41,0,2.51,1.08,2.53,2.44.01,1.43-1.01,2.52-2.46,2.54Z"/>
</svg>