<?xml version="1.0" encoding="UTF-8"?>
<svg id="Layer_1" data-name="Layer 1" xmlns="http://www.w3.org/2000/svg" viewBox="0 0 200 171.93">
  <defs>
    <style>
      .cls-1 {
        fill: #fff;
        stroke-width: 0px;
      }
    </style>
  </defs>
  <path class="cls-1" d="M149.14.23l-97.66-.23L0,85.99l49.6,84.56,99.89,1.38,50.51-85.91L149.14.23ZM30.42,64.35c-.12-.1-.28-.36-.24-.41.11-.16.3-.31.49-.36,2.86-.73,5.73-1.42,8.58-2.15,3.6-.93,7.19-1.9,10.79-2.83,4.86-1.25,9.73-2.48,14.6-3.73,4.26-1.1,8.52-2.21,12.78-3.31,3.69-.95,7.38-1.87,11.07-2.81,3.38-.86,6.76-1.73,10.14-2.6,3.55-.91,7.09-1.83,10.64-2.75,4.4-1.14,8.8-2.3,13.21-3.42,3.37-.86,6.75-1.68,10.12-2.53.88-.22,1.75-.48,2.66-.73,2.66,10.48,5.41,20.79,7.97,31.12-1.52.36-2.77.65-4.01.96-1.96.49-3.91.98-5.87,1.49-1.94.5-3.88,1.02-5.83,1.52-3.66.93-7.33,1.83-10.99,2.77-1.94.5-3.85,1.08-5.79,1.57-2.64.67-5.29,1.27-7.93,1.94-1.43.36-2.84.82-4.27,1.19-2.43.64-4.88,1.23-7.31,1.86-2.65.69-5.28,1.41-7.93,2.09-2.19.55-4.39,1.03-6.58,1.58-2.43.61-4.85,1.26-7.27,1.9-1.95.51-3.9,1.05-5.85,1.55-.57.14-1.08.08-1.62-.33-3.13-2.39-6.31-4.71-9.46-7.07-2.28-1.71-4.51-3.47-6.8-5.16-3.33-2.46-6.71-4.87-10.04-7.32-1.77-1.31-3.51-2.67-5.25-4.02ZM47.16,99.29c-1.14.29-2.3.51-3.44.79-1.1.27-1.07.27-1.34-.79-.62-2.39-1.27-4.77-1.9-7.15-.89-3.39-1.78-6.79-2.68-10.18-.09-.35-.34-.68-.35-1.03,0-.23.23-.62.44-.68,1-.31,2.04-.54,3.06-.8.95-.24,1.91-.48,2.86-.72.57-.15.9-.09,1.05.63.38,1.79.88,3.54,1.34,5.31.77,3.01,1.53,6.02,2.3,9.02.4,1.58.82,3.15,1.24,4.81-.86.27-1.71.57-2.58.79ZM155.15,134.4c-.03-.28-.07-.57-.1-.87,0-.15,0-.31-.01-.46,0-3.45.02-6.89,0-10.34,0-1.18-.11-2.37-.17-3.55-.11-.08-.21-.17-.32-.25-4.74-.01-9.47-.03-14.21-.03-.24,0-.55.15-.72.34-1.78,2.01-3.97,3.27-6.61,3.73-4.22.74-7.76-.63-10.57-3.72-1.59-1.74-2.6-3.89-2.84-6.28-.1-1.01,0-2.03-.03-3.05,0-.23-.14-.52-.32-.66-1.87-1.48-3.76-2.92-5.63-4.39-2.6-2.02-5.17-4.07-7.78-6.08-1.62-1.25-3.46-2.27-4.89-3.7-1.21-1.22-2.23-.41-3.26-.17-2.89.66-5.74,1.48-8.61,2.23-4.89,1.28-9.78,2.56-14.67,3.81-3.71.95-7.43,1.85-11.14,2.79-.7.18-1.39.39-2.09.59-1.17.27-2.34.54-3.51.82-.46.11-.93.22-1.42.34-1.87-7.34-3.71-14.52-5.58-21.87.32.16.59.26.8.42,3.21,2.43,6.42,4.87,9.63,7.3.65.49,1.26.49,2.08.23,1.78-.59,3.64-.95,5.46-1.41,2.65-.68,5.29-1.39,7.95-2.05,3.21-.81,6.43-1.57,9.63-2.39,3.15-.81,6.29-1.67,9.44-2.49,3.26-.85,6.53-1.69,9.8-2.53,4.69-1.2,9.39-2.4,14.08-3.6,3.51-.9,7.03-1.79,10.54-2.69,2.59-.66,5.17-1.34,7.75-2.02,1.86-.49,3.71-.99,5.56-1.47.21-.05.45,0,.69,0,.81,3.31,1.61,6.57,2.41,9.82.11.44.49,1.09.33,1.26-.33.36-.92.53-1.43.66-2.88.74-5.77,1.42-8.65,2.16-3.87,1-7.74,2.04-11.61,3.05-1.64.43-3.28.81-4.92,1.23-1.09.28-1.2.67-.46,1.51,1.52,1.7,3.03,3.41,4.54,5.12,1.13,1.28,2.31,2.51,3.36,3.85.67.85,1.51.74,2.33.65,1.87-.19,3.66.08,5.39.77,3.01,1.2,5.04,3.4,6.36,6.31.09.2.06.48.19.64.18.22.46.52.7.52,4,.03,8,.02,12,.01.07,0,.15-.03.41-.1,0-2.41,0-4.86,0-7.32,0-2.49.01-4.99,0-7.48,0-.46.11-.68.59-.59.07,0,.14,0,.21,0h14v41.43h-14.68Z"/>
</svg>