<?xml version="1.0" encoding="UTF-8"?>
<svg id="Layer_1" data-name="Layer 1" xmlns="http://www.w3.org/2000/svg" viewBox="0 0 200 171.93">
  <defs>
    <style>
      .cls-1 {
        fill: #fff;
        stroke-width: 0px;
      }
    </style>
  </defs>
  <path class="cls-1" d="M119.01,72.45c-.51.01-1.03.63-1.49,1.03-.82.72-1.54,1.55-2.39,2.22-2.5,1.97-5.32,3.13-8.49,3.72-2.51.47-4.92.37-7.3-.25-4.3-1.1-7.81-3.48-10.44-7.07-2.45-3.34-3.62-7.14-3.68-11.24-.02-1.49.3-3.03.72-4.48,1.73-6.03,5.48-10.27,11.37-12.57,3.22-1.26,6.53-1.19,9.87-.73,4.37.6,7.84,2.87,10.74,6.05.47.51.81.73,1.44.73,2.2-.02,4.4,0,6.6,0h4.91c.02-.41.04-.69.04-.96,0-5.2,0-10.39,0-15.59,0-1.68-.32-1.98-2.04-1.98-16.71,0-33.42,0-50.13,0-1.57,0-1.83.24-1.83,1.78,0,34.9,0,69.8,0,104.7,0,1.67.28,1.94,1.92,1.94,16.59,0,33.18,0,49.77,0,2.1,0,2.31-.21,2.31-2.31,0-21.19,0-42.38,0-63.57v-1.49c-4.06,0-7.97-.04-11.88.05ZM113.55,111.05c-1.66,1.93-3.67,3.21-6.08,4.13,0,3.33,0,6.61,0,9.88,0,1.78-.76,3.1-2.34,3.86-2.1,1.02-4.82-.72-4.85-3.08-.04-3.2-.04-6.4,0-9.59.01-.83-.32-1.15-1.03-1.44-4.28-1.74-6.91-4.88-7.87-9.42-1.35-6.35,2.68-12.63,8.36-14.43,7.25-2.29,15.09,1.96,16.52,9.75.68,3.71-.12,7.3-2.72,10.34Z"/>
  <path class="cls-1" d="M103.69,97.52c-2.91-.08-5.45,2.73-5.37,5.43.1,3.36,2.63,5.53,5.4,5.6,2.6.06,5.9-2.48,5.42-5.53.34-3.12-2.38-5.41-5.45-5.5Z"/>
  <path class="cls-1" d="M146.17,57.07c-9.59-.02-19.18-.03-28.76.01-1.91,0-3.2-.61-4.25-2.3-2.27-3.67-7.52-5.69-11.75-4.7-6.41,1.5-9.84,7.31-8.75,13.15,1.07,5.76,6.46,10.12,12.74,9.13,3.12-.49,5.68-1.93,7.46-4.56,1.26-1.86,2.81-2.72,5.14-2.65,4.63.15,9.27.05,13.9.05h0c4.95,0,9.91-.05,14.86.01,2.65.03,5.2-3.1,3.48-6.11-.9-1.58-2.4-2.03-4.06-2.03Z"/>
  <path class="cls-1" d="M149.14.23l-97.66-.23L0,85.99l49.6,84.56,99.89,1.38,50.51-85.91L149.14.23ZM60.15,114.62c-2.75-.13-5.21-1.1-7.66-2.15-3.74-1.61-6.95-4.01-9.65-7.02-3.62-4.05-5.98-8.78-7.1-14.11-.15-.73-.32-1.46-.48-2.19v-6.96c.4-1.71.74-3.44,1.21-5.14,1.08-3.87,3.02-7.28,5.55-10.4,2.63-3.24,5.82-5.78,9.55-7.57,2.75-1.32,5.59-2.51,8.73-2.55,1.56-.02,2.96,1.07,3.28,2.46.42,1.79-.27,3.57-1.82,4.18-1.57.62-3.24.99-4.84,1.52-2.64.87-4.93,2.28-7,4.16-2.89,2.63-4.99,5.72-6.28,9.41-1.34,3.83-1.53,7.72-.79,11.68.61,3.25,1.89,6.23,3.89,8.86,3.3,4.35,7.54,7.35,12.94,8.58,1.48.34,2.93.52,3.71,2.21,1.1,2.39-.8,5.16-3.22,5.04ZM61.58,92.97c1.78.83,2.25,1.94,1.99,3.8-.24,1.71-1.71,2.94-4.38,2.94-1.22-.05-2.76-1.34-4.23-2.55-2.99-2.44-4.8-5.7-5.25-9.5-.73-6.14,1.82-12.25,7.74-15.34,1.24-.65,2.39-1.3,3.84-.69,1.14.48,2.02,1.17,2.28,2.44.33,1.57-.01,2.88-1.44,3.83-1.27.85-2.69,1.4-3.69,2.75-2.99,4.01-1.81,10.02,3.14,12.33ZM147.25,72.38c-2.99,0-5.99,0-9.17,0v1.45c0,21.26,0,42.53,0,63.79,0,2.02-.32,3.97-1.57,5.67-1.65,2.23-3.8,3.63-6.59,3.64-17.59.04-35.17.08-52.76-.02-3.31-.02-6.46-2.6-7.32-6.6-.18-.84-.15-1.74-.15-2.61,0-34.77.03-69.55-.04-104.32-.01-4.78,2.66-8.22,6.52-9.05.05-.01.08-.12.12-.18h54.69c1.38.7,2.89,1.23,4.11,2.14,2.28,1.71,2.97,4.25,2.99,6.99.02,5.4,0,10.79.01,16.19,0,.08.02.16.05.41.44,0,.9-.02,1.36,0,3.33.14,6.7-.02,9.97.49,4.5.7,8.25,5.39,8.44,9.81.15,3.53-.77,6.54-3.24,8.96-2.01,1.98-4.47,3.24-7.4,3.25Z"/>
</svg>