<?xml version="1.0" encoding="UTF-8"?>
<svg id="Layer_1" data-name="Layer 1" xmlns="http://www.w3.org/2000/svg" viewBox="0 0 200 171.93">
  <defs>
    <style>
      .cls-1 {
        fill: #fff;
        stroke-width: 0px;
      }
    </style>
  </defs>
  <path class="cls-1" d="M149.14.23l-97.66-.23L0,85.99l49.6,84.56,99.89,1.38,50.51-85.91L149.14.23ZM124.5,45.45c.28-.32,1.58-.16,2.12.21,5.7,3.89,10.28,8.84,13.79,14.81,2.8,4.77,4.57,9.9,5.66,15.26.48,2.37.55,4.82.72,7.25.22,3.11.34,6.23.51,9.44-.7.23-1.16.38-1.88.62-.21-.66-.57-1.29-.6-1.94-.16-3.85.11-7.76-.45-11.54-.63-4.23-1.64-8.49-3.15-12.48-2.3-6.03-5.97-11.3-10.82-15.64-1.6-1.43-3.36-2.68-4.99-4.08-.56-.48-1.75-.96-.91-1.91ZM127.96,71.65c-1.63-3.59-3.72-6.83-6.66-9.47-1.26-1.13-1.77-2.45-1.81-4.05.14-.14.28-.27.42-.41,1.82,1.84,3.74,3.58,5.43,5.53,3.77,4.35,6.2,9.51,6.89,15.14.71,5.78.54,11.66.75,17.5.02.5.18,1.12-.04,1.49-.31.52-.93.87-1.41,1.29-.3-.43-.86-.87-.85-1.29.03-2.95.33-5.9.27-8.85-.11-5.77-.54-11.5-2.99-16.88ZM126.25,78.68c0-2.03-.67-3.67-2.05-5.19-1.13-1.25-2.01-2.74-2.86-4.21-.19-.33.17-.99.27-1.49.55.13,1.39.08,1.59.42,1.1,1.88,2.21,3.79,3.01,5.81,1.61,4.08,1.74,8.41,2.16,12.73.6,6.04-.59,11.87-1.17,17.78-.02.19-.23.37-.35.55-.1.99-.21,1.98-.31,2.98-.04.3-.09.6-.13.9-.13-.03-.27-.05-.4-.08.09-.26.18-.51.27-.77,0-1.12,0-2.23.01-3.35-.02-8.69-.06-17.39-.05-26.08ZM117.65,53.4c-1.99-1.21-3.7-2.89-5.53-4.36.07-.13.13-.26.2-.39.98.36,2,.65,2.94,1.09,9.84,4.63,16.63,12.05,20.2,22.34.14.41-.39,1.06-.61,1.59-.5-.32-1.22-.52-1.45-.98-1.1-2.2-1.89-4.55-3.11-6.68-3.05-5.35-7.38-9.43-12.64-12.62ZM133.8,107.42c.67-3.61,1.16-7.26,1.51-10.92.29-2.99.43-6.02.32-9.02-.1-2.91-.6-5.8-.92-8.7-.09-.81-.19-1.61,1-1.71.96-.08,1.28.34,1.34,1.25.07,1.16.28,2.3.42,3.45.08,0,.15.01.23.02,0,3.9-.02,7.81,0,11.71.03,4.99-.78,9.86-1.9,14.7-.56,2.43-1.19,4.85-1.78,7.27-.05.21-.04.5-.17.63-.49.46-1.02.86-1.54,1.29-.21-.66-.72-1.38-.59-1.96.61-2.69,1.56-5.31,2.06-8.02ZM132.7,61.09c-.35-.48-.41-1.16-.6-1.75.46-.14.92-.4,1.37-.38.27,0,.58.4.79.68,3.17,4.15,5.28,8.82,6.47,13.87.69,2.92,1.07,5.92,1.59,8.88-.07.01-.15.03-.22.04,0,.06,0,.11,0,.17-.01.89.35,2.18-1,2.19-1.16,0-.96-1.22-1.04-2.1-.72-7.79-2.71-15.14-7.36-21.59ZM138.94,105.57c.56-3.19.83-6.44,1.12-9.67.22-2.49.32-4.98.47-7.55,1.53-.4,1.92.17,1.93,1.61.03,5.38-.35,10.73-1.44,16-.12.56-.97,1.45-1.35,1.39-.75-.12-.92-.76-.74-1.77ZM129.92,54.32c.36.29.59.74.93,1.18-.32.43-.58,1-.76.97-.56-.08-1.17-.26-1.61-.6-2.56-1.93-4.99-4.03-7.62-5.85-3.9-2.71-8.31-4.47-12.95-5.18-4.31-.66-8.77-.91-13.12-.67-5.09.28-9.9,2.05-14.42,4.46-.34.18-.71.5-1.03.47-.55-.07-1.06-.37-1.59-.57.26-.46.4-1.13.79-1.33,4.25-2.28,8.66-4.19,13.5-4.78,2.85-.35,5.73-.69,8.59-.65,7.7.1,14.9,2.19,21.37,6.38,2.8,1.81,5.31,4.1,7.92,6.2ZM103.51,94.92c.27,2.32.78,4.62,1.16,6.93.19,1.17-.33,1.63-1.51,1.56-1.12-.07-2.24-.02-3.36-.02h0c-1.23,0-2.47.02-3.7,0-1.27-.02-1.61-.87-1.42-1.89.48-2.68,1.17-5.33,1.55-8.02.12-.87-.22-2.03-.76-2.74-1.22-1.61-1.52-5.12.87-7.19,1.7-1.47,5.15-1.49,7.01.17,1.67,1.5,2.67,4.78.73,6.82-1.47,1.54-.73,2.93-.56,4.38ZM92.81,72.06c.74-1.25,3.12-2.4,4.08-2,.33.14.7.74.66,1.09-.03.33-.55.84-.89.87-1.24.11-2.49.04-3.85.04ZM101.9,71.97c-.33-.02-.62-.7-.92-1.07.38-.3.83-.91,1.13-.85,1.57.34,3.1.86,4.65,1.31l-.13.66c-1.58,0-3.16.06-4.73-.05ZM88.38,71.1c-1.07-2.7.98-3.46,2.55-4.05,2.22-.83,4.59-1.44,6.94-1.69,3.99-.43,7.84.17,11.43,2.26,1.45.84,2.22,1.69,1.59,3.56-7.44-5.16-14.94-5.4-22.51-.07ZM110.89,65.59c-7.44-3.92-14.93-4.13-22.44-.17-.53-2.02-.42-2.17,1.29-2.94,6.49-2.9,13-2.54,19.52-.14,1.53.56,2.33,1.52,1.63,3.24ZM89.73,59.61c2.62-3.29,2.8-3.19,6.23-3.8,3.48-.61,6.77.1,10.13.67,1.83.31,2.7,1.53,3.48,3.1-6.52-2.21-13-2.39-19.84.03ZM54.72,89.42c-.02.51-.53,1-.83,1.5-.39-.4-1.1-.8-1.11-1.22-.09-3.6-.38-7.24.02-10.79.41-3.64,1.28-7.29,2.43-10.78.95-2.88,2.56-5.55,3.96-8.28.68-1.32,1.54-1.28,2.16-.3-1.56,3.63-3.27,7-4.45,10.54-1.02,3.07-1.55,6.32-2.08,9.53-.34,2.07-.32,4.22-.36,6.33-.02,1.15.29,2.31.25,3.47ZM54.96,94.73c1.52-1.05,2.58-3.21,2.53-4.93-.1-3.65-.13-7.32,0-10.97.15-4.25,1.64-8.17,3.29-12.04,2.23-5.21,5.5-9.63,9.57-13.52.96-.92,1.97-1.79,2.98-2.65.28-.24.67-.34,1.14-.56.26.19.74.36.81.64.09.37,0,.94-.26,1.2-.93.95-1.96,1.78-2.94,2.68-5.49,5.09-9.25,11.3-11.32,18.43-1.44,4.99-2.17,10.13-1.29,15.37.57,3.39-.79,6.68-3.43,8.17-.47.26-1.24,0-1.87-.02.25-.62.33-1.48.78-1.8ZM56.38,99.35c3.54-2.11,5.84-5,5.49-9.42-.15-1.93-.25-3.87-.34-5.81-.04-.88-.09-1.83,1.16-1.94,1.5-.12,1.15.97,1.19,1.83.1,2,.32,3.99.32,5.99,0,4.8-2.25,8.37-6.21,10.93-.6.39-1.4.48-2.12.71-.67-1.03-.57-1.64.51-2.29ZM57.6,104.18c.58-.48,1.25-.86,1.89-1.26,4.42-2.82,6.99-6.75,7.07-12.07.04-2.33-.36-4.67-.3-7,.17-6.65,2.18-12.77,5.79-18.34.31-.48,1.17-.66,1.82-.82.19-.05.51.43.76.65-.17.37-.28.7-.46.97-2.34,3.53-4.4,7.27-4.95,11.47-.48,3.64-.1,7.38-.33,11.07-.16,2.5-.41,5.07-1.18,7.43-1.35,4.15-4.27,7.14-8.15,9.14-.42.22-.95.35-1.42.33-.27-.01-.65-.36-.76-.63-.09-.25.02-.74.22-.91ZM60.27,107.92c1.23-.89,2.63-1.58,3.78-2.55,1.27-1.07,2.3-2.42,3.55-3.52.37-.33,1.13-.21,1.71-.3,0,.55.24,1.28-.03,1.62-2.01,2.57-4.39,4.74-7.32,6.25-.38.2-.82.31-1.43.53-.29-.28-.83-.55-.86-.88-.04-.37.27-.92.6-1.16ZM62.86,111.74c1.85-1.42,3.94-2.57,5.65-4.14,1.73-1.59,3.11-3.56,4.67-5.4,1.15,4.11-2.05,5.94-4.34,8.12-1.4,1.33-3.18,2.28-4.88,3.24-.34.2-1.07-.27-1.62-.44.17-.47.19-1.13.52-1.39ZM66.03,115.32c2.31-1.74,4.69-3.37,7.12-5.09,1.64,2.42-.74,3.12-1.96,4.18-1.22,1.06-2.66,1.89-4.08,2.68-.33.18-1.22-.04-1.39-.34-.19-.33-.01-1.19.3-1.43ZM75.38,114.21c.57.43,1.12.85,1.83,1.4-2.43,1.87-4.78,3.68-7.24,5.57-.51-.73-.81-1.15-1.2-1.71,2.21-1.76,4.35-3.47,6.6-5.26ZM74.38,74.74c-.58,1.12-1,2.48-1.01,3.73-.03,3.91.37,7.82.22,11.72-.09,2.53-.79,5.05-1.36,7.53-.09.38-.99.58-1.52.86-.19-.56-.67-1.22-.51-1.65,1.32-3.53,1.2-7.1.84-10.77-.41-4.15.39-8.22,1.82-12.13,1.29-3.53,3.2-6.67,6.13-9.51.19,1.93-.01,3.31-1.12,4.67-1.37,1.68-2.49,3.6-3.49,5.54ZM76.01,62.19c-.04-2.9,2.76-3.35,4.14-4.96-.66,3.71-1.82,5.09-4.14,4.96ZM76.83,56.56c-3.5,2.57-6.02,6.01-8.17,9.69-1.98,3.39-3.45,7-4.12,10.92-.1.6-1.01,1.55-1.45,1.49-.72-.09-.85-.81-.69-1.8.87-5.47,3.24-10.32,6.34-14.72,3.23-4.58,7.22-8.53,12.41-11.01,1.76-.84,3.51-1.69,5.28-2.5.38-.17.83-.17,1.64-.32-1.06.83-1.68,1.36-2.33,1.83-2.96,2.14-5.95,4.24-8.9,6.4ZM90,38.01c3.1-.44,6.23-1.02,9.34-.96,7.21.14,14.26,1.36,20.77,4.67.7.36,1.14,1.23,1.7,1.86-.91.04-1.98.41-2.71.06-6.4-3.06-13.1-4.36-20.19-4.36-9.02,0-17.23,2.55-24.55,7.58-3.53,2.43-6.52,5.68-9.6,8.72-1.03,1.02-1.64,1.35-2.8-.26,2.04-2.16,3.87-4.53,6.12-6.36,2.95-2.4,6.13-4.56,9.4-6.49,3.85-2.27,8.05-3.83,12.5-4.46ZM43.03,37.47c.04-4.9,4.16-9.21,8.79-9.85,3.4-.47,6.89-.34,10.34-.4,3.03-.05,6.06,0,9.09.01v5.69c-3.28,0-6.45-.05-9.63.01-2.89.05-5.8.03-8.65.4-2.88.37-4.24,2.2-4.27,5.17-.04,5.04,0,10.09-.01,15.13,0,2.24-.01,2.25-2.17,2.24-1.18,0-2.35-.03-3.53-.05,0-6.12-.02-12.24.03-18.36ZM71.28,141.1c-.13.19-.25.38-.38.57-.09-.17-.18-.35-.28-.52-5.61,0-11.23,0-16.84,0-.11,0-.22,0-.33,0-1.35-.33-2.7-.65-4.05-.98-3.12-1.65-5.2-4.14-6.1-7.58-.09-.36-.29-.72-.29-1.07,0-6.1.02-12.21.03-18.31-.06-.1-.07-.2-.04-.31.11-.04.22-.03.32.02,1.68-.03,3.37-.07,5.05-.1.07-.12.15-.24.22-.36.03.15.07.3.11.44,0,5.49,0,10.98,0,16.47,0,3.83,2.19,6.02,5.98,5.99,5.09-.04,10.18-.07,15.27-.1l.27-.67c.13.23.27.46.4.69.26.28.75.56.76.84.03,1.66-.05,3.33-.1,5ZM75.05,123.23c-.53.17-1.14.07-1.72.09.16-.66.13-1.49.54-1.94.71-.8,1.71-1.34,2.55-2.03.98-.81,1.97-1.61,2.86-2.51.81-.81,1.56-.93,2.95.23-2.04,1.82-3.95,3.52-5.86,5.2-.41.36-.83.79-1.32.95ZM78.16,123.98c2.48-2.37,4.8-4.9,7.33-7.21.75-.68,1.98-.84,3.11-1-2.79,4.26-6.08,7.9-10.21,10.64-1.33-.81-1.19-1.5-.23-2.42ZM82.07,128.17c-.2-.2-.39-.39-.59-.59.37-.65.6-1.49,1.14-1.92,3.2-2.53,5.67-5.69,8-8.99.26-.37.75-.68,1.19-.78.36-.08.95.07,1.17.34.17.21.03.84-.17,1.14-.93,1.37-1.83,2.79-2.95,4-1.91,2.08-3.95,4.05-6,5.99-.45.43-1.19.55-1.79.81ZM88.02,129.28c-.27.25-.99,0-1.5-.03.02-.52-.17-1.26.1-1.53,3.42-3.35,6.34-7.07,9.02-11.03.42-.62,1.59-.74,2.42-1.09.08.2.17.4.25.6-2.71,4.91-6.17,9.26-10.28,13.07ZM91.81,130.48c.12-.63.02-1.47.39-1.85,3.54-3.62,6.31-7.77,8.87-12.11.33-.57,1.55-.61,2.36-.9.08.18.16.37.24.55-2.66,5.1-5.82,9.86-10,13.87-.4.38-1.23.3-1.86.44ZM99.44,130.68c-.42.29-1,.33-1.51.49,0-.65-.25-1.47.05-1.92,1.92-2.86,3.99-5.61,5.95-8.44.68-.99,1.36-2.04,1.74-3.16.55-1.62,1.5-2.17,3.62-1.52-2.86,4.45-5.63,8.8-8.44,13.13-.36.55-.87,1.05-1.41,1.42ZM104.09,130.94c-.03-.64-.31-1.43-.04-1.9.94-1.6,2.14-3.04,3.1-4.63,1.27-2.1,2.52-4.22,3.55-6.44.51-1.09,1.02-1.62,2.71-1.25-.47,1.21-.74,2.38-1.33,3.36-2.07,3.46-4.22,6.87-6.43,10.25-.25.39-1.04.42-1.57.62ZM110.46,129.57c.02-.58-.16-1.26.08-1.72,2.07-3.89,4.22-7.73,6.56-11.98.3.04,1.01.13,2.23.28-2.44,4.54-4.63,8.71-6.95,12.82-.24.43-1.26.42-1.92.61ZM119.22,126.43c-.25.44-.99.6-1.5.89-.11-.57-.49-1.25-.3-1.7,1.33-3.22,2.66-6.45,4.25-9.54.45-.88,1.76-1.32,2.68-1.96.1.07.19.14.29.21-.81,2.1-1.53,4.23-2.44,6.28-.88,1.99-1.9,3.93-2.98,5.82ZM125.13,123.85c-.29-.13-.57-.26-.86-.39.13-.8.15-1.63.4-2.38,1.21-3.64,2.58-7.24,3.71-10.91.7-2.28,1.04-4.68,1.62-7.01.1-.41.59-.72.91-1.07.36.44,1.09.93,1.04,1.3-.38,2.46-.74,4.96-1.46,7.33-1.13,3.73-2.49,7.4-3.85,11.06-.29.77-.98,1.38-1.49,2.07ZM156.82,114.57c-.07,5.44.14,10.9-.31,16.31-.5,6.05-5.37,9.67-10.7,10.25-.12,0-.23,0-.35,0-5.28,0-10.55,0-15.83,0-.12,0-.23,0-.35,0-.33-.33-.93-.65-.96-1-.11-1.55-.05-3.11-.05-4.81h17.88c.12-.07.24-.14.36-.21,2.32-.59,3.79-2.02,4.29-4.4-.16-.11-.32-.22-.48-.33.21-.11.41-.23.62-.34.05-4.88.1-9.76.14-14.64,0-.82,0-1.64,0-2.54h5.73c0,.52,0,1.12,0,1.71ZM155.51,55.9c-1.39-.09-2.79-.02-4.28-.02-.05-.49-.12-.86-.12-1.22-.01-5-.03-10-.01-15,.01-4.43-2.35-6.67-6.78-6.72-4.72-.05-9.44-.01-14.15-.01h-1.84v-5.67h-.01c.17-.22.34-.44.51-.66.16.18.32.36.47.55,4.54.02,9.08.17,13.62.02,5.16-.16,9.43,1.32,12.39,5.76.93,2.42,1.59,4.87,1.54,7.52-.07,4.58.03,9.15.06,13.73.04.08.09.16.12.25,0,.02-.08.06-.12.1-.02.9-.29,1.46-1.38,1.38Z"/>
</svg>