<?xml version="1.0" encoding="UTF-8"?>
<svg id="Layer_1" data-name="Layer 1" xmlns="http://www.w3.org/2000/svg" viewBox="0 0 200 171.93">
  <defs>
    <style>
      .cls-1 {
        fill: #fff;
        stroke-width: 0px;
      }
    </style>
  </defs>
  <path class="cls-1" d="M106.72,58.87c-.97-.52-1.85-.12-2.71.34-.14.08-.28.15-.41.25-2.39,1.85-3.79,4.27-4.05,7.29-.09,1.02.04,2.09,1.05,2.67.97.56,1.93.17,2.77-.39,2.69-1.8,4.06-4.39,4.39-7.11.04-1.72-.32-2.67-1.04-3.06Z"/>
  <path class="cls-1" d="M102.28,87.89c.35-.1.71-.25,1.02-.45,2.75-1.82,4.15-4.45,4.5-7.69-.02-.24-.02-.48-.05-.71-.25-1.82-1.45-2.5-3.14-1.78-.47.2-.9.45-1.29.77-1.88,1.54-3.06,3.51-3.6,5.86-.18.78-.24,1.57-.07,2.37.3,1.41,1.26,2.03,2.64,1.63Z"/>
  <path class="cls-1" d="M89.64,85.93c-.58.21-1.1.53-1.57.92-1.84,1.53-2.98,3.49-3.52,5.8-.2.86-.26,1.73-.02,2.6.34,1.19,1.21,1.73,2.42,1.44.38-.09.77-.24,1.1-.45,2.81-1.8,4.2-4.44,4.61-7.58-.05-.43-.06-.75-.12-1.06-.31-1.63-1.35-2.23-2.9-1.67Z"/>
  <path class="cls-1" d="M103.2,50.81c.07-.04.14-.07.21-.12,2.65-1.85,4.04-4.42,4.42-7.58-.06-.41-.08-.81-.17-1.2-.33-1.36-1.31-1.92-2.64-1.5-.28.09-.56.19-.8.34-2.89,1.84-4.49,4.5-4.64,7.9-.11,2.41,1.51,3.29,3.63,2.15Z"/>
  <path class="cls-1" d="M85.5,59.85c.96.52,1.85.09,2.71-.38.09-.05.18-.12.26-.18,2.19-1.58,3.48-3.75,4.04-6.36.17-.79.18-1.58-.04-2.37-.33-1.24-1.26-1.78-2.49-1.43-.38.1-.77.26-1.09.47-2.76,1.82-4.15,4.45-4.52,7.49.07,1.18.12,2.21,1.13,2.76Z"/>
  <path class="cls-1" d="M136.97,39.1c.02,5.52.04,11.04.04,16.57,0,.55.06.75.64.41,3.88-2.26,7.76-4.5,11.65-6.73.39-.23.54-.48.54-.95-.03-4.17-.03-8.34-.04-12.51,0-1.53,0-3.07,0-4.7-.27.09-.35.1-.41.14-4,2.31-8,4.62-12.01,6.91-.37.21-.41.49-.41.85Z"/>
  <path class="cls-1" d="M66.62,50.53c.43.25.72.13,1.09-.08,8.98-5.19,17.97-10.38,26.95-15.57,5.08-2.93,10.15-5.86,15.35-8.86-.32-.2-.53-.35-.76-.48-2.52-1.47-5.09-2.87-7.56-4.42-1.32-.83-2.46-.71-3.71.02-13.46,7.78-26.93,15.55-40.4,23.33-.19.11-.46.15-.5.45.07.06.12.12.18.16,3.12,1.82,6.24,3.62,9.35,5.46Z"/>
  <path class="cls-1" d="M51.1,54.12c3.06,1.76,6.12,3.52,9.16,5.32.51.3.63.18.75-.35.59-2.52,1.82-4.69,3.66-6.5.45-.45.36-.6-.14-.88-3.06-1.76-6.11-3.54-9.16-5.32-.16-.09-.32-.17-.5-.26-.19.13-.38.24-.53.37-2.02,1.79-3.27,4.01-3.73,6.68-.08.48.09.72.48.95Z"/>
  <path class="cls-1" d="M63.78,116.3c-.59-10.74-1.17-21.48-1.77-32.21-.39-7.08-.79-14.16-1.17-21.24-.03-.51-.19-.81-.64-1.06-2.9-1.66-5.79-3.35-8.69-5.03-.22-.13-.45-.42-.7-.28-.25.15-.09.49-.08.74.38,7.16.77,14.32,1.17,21.48.62,11.19,1.24,22.38,1.86,33.56.39,7.13.79,14.26,1.17,21.4.03.59.21.96.76,1.25,1.26.67,2.49,1.43,3.73,2.14,1.83,1.06,3.66,2.12,5.62,3.26,0-.48.01-.79,0-1.11-.42-7.64-.84-15.27-1.26-22.91Z"/>
  <path class="cls-1" d="M125.93,46.38h.03c0,3.61,0,7.22,0,10.83,0,.62.12.76.69.42,1.25-.75,2.51-1.49,3.8-2.18.49-.26.65-.57.65-1.12-.03-2.92,0-5.84-.04-8.76,0-.63.15-1.01.74-1.31,1.04-.53,2.02-1.17,3.05-1.72.47-.25.62-.57.6-1.08-.04-1.01,0-2.02-.03-3.03-.02-.61.23-.98.75-1.27,1.9-1.07,3.77-2.18,5.66-3.25.42-.24.6-.5.59-1-.03-2.18-.02-4.35-.02-6.53,0-.85-.01-.86-.73-.44-5.01,2.89-10.01,5.8-15.03,8.67-.54.31-.7.66-.7,1.26.03,3.5.01,7.01.01,10.51Z"/>
  <path class="cls-1" d="M89.62,129.33c-.03-.56-.25-.46-.58-.25-1.03.67-2.14,1.17-3.34,1.47-3.68.94-6.7-.77-7.79-4.41-.51-1.69-.58-3.41-.3-5.13.96-5.99,3.84-10.91,8.45-14.81,1.31-1.11,2.79-1.93,4.46-2.38,3.64-.98,6.9.82,7.98,4.42.38,1.26.45,2.56.42,3.86,0,.2-.13.46.05.6.21.15.39-.08.56-.18,3.5-2.01,6.98-4.04,10.49-6.04.5-.29.68-.62.71-1.19.33-7.48.69-14.96,1.04-22.44.41-8.81.82-17.61,1.23-26.42.4-8.59.79-17.19,1.18-25.78.05-1.05.03-2.15-.99-2.78-1.06-.67-2.06-.12-2.98.42-14.05,8.11-28.09,16.23-42.13,24.33-1.54.89-2.7,2.11-3.65,3.59-1.45,2.26-1.64,4.71-1.47,7.34.65,10.57,1.2,21.15,1.78,31.73.93,17.02,1.86,34.04,2.8,51.06.05.9.01,1.81.24,2.69.35,1.34,1.27,1.85,2.6,1.46.51-.15.97-.43,1.43-.69,7.47-4.31,14.94-8.62,22.41-12.94.24-.14.54-.22.72-.57-.38-.23-.75-.49-1.15-.67-2.69-1.24-3.99-3.39-4.14-6.29ZM98.07,47.52c.57-3.22,2.11-5.86,4.8-7.78.13-.09.27-.18.4-.26,3.22-1.84,6.06-.18,6.06,4.02-.37,3.41-2.04,6.54-5.41,8.67-.45.28-.96.46-1.48.58-2,.48-3.68-.5-4.24-2.47-.26-.91-.3-1.84-.14-2.76ZM107.22,67.42c-.94,1.41-2.13,2.58-3.69,3.31-2.8,1.33-5.25-.09-5.51-3.18-.02-.24,0-.48,0-.72.36-3.84,2.02-6.92,5.32-9.03.61-.39,1.3-.6,2.02-.7,1.88-.27,3.49.95,3.85,2.98.49,2.75-.51,5.12-1.98,7.34ZM102.85,76.46c.71-.52,1.52-.86,2.41-.99,1.79-.25,3.26.67,3.8,2.41.56,1.82.23,3.57-.45,5.29-.79,2.01-1.99,3.74-3.71,5.08-.27.21-.56.41-.86.58-1.36.74-2.79,1.15-4.23.3-1.48-.87-1.79-2.34-1.83-4.17.33-3.39,1.91-6.34,4.87-8.5ZM88.91,97.55c-.42.28-.89.46-1.38.6-2.3.63-4.16-.55-4.58-2.9-.31-1.74.06-3.38.74-4.97.93-2.17,2.27-4.03,4.32-5.27,1.35-.82,2.8-1.25,4.3-.42,1.53.86,1.84,2.36,1.9,4.23-.4,3.54-2.04,6.6-5.29,8.72ZM88.29,48.15c.4-.25.87-.41,1.32-.52,2.24-.54,3.95.55,4.43,2.81.09.41.11.84.18,1.43-.39,3.77-2.01,7.01-5.47,9.05-3.11,1.84-6.04.09-5.89-3.56.16-3.97,2.04-7.08,5.43-9.21ZM88.31,66.49c.33-.21.72-.35,1.1-.46,2.35-.7,4.31.51,4.67,2.94.44,2.93-.7,5.41-2.37,7.7-.76,1.04-1.69,1.91-2.81,2.55-3.25,1.83-6.06.19-6.06-4.02.38-3.44,2.06-6.6,5.48-8.72ZM69.93,59.84c.79-1.14,1.77-2.13,2.99-2.82,1.37-.78,2.82-1.2,4.3-.34,1.49.87,1.78,2.35,1.82,4.35-.48,3.61-2.14,6.93-5.86,8.84-2.68,1.38-5.08.03-5.43-2.96-.31-2.65.71-4.95,2.18-7.07ZM67.79,83.25c.66-3.42,2.33-6.18,5.36-8.01.46-.28.96-.45,1.48-.56,1.95-.42,3.55.5,4.15,2.41.19.61.25,1.25.27,2.2-.43,3.54-2.08,6.66-5.45,8.74-.5.31-1.06.49-1.63.6-1.83.37-3.4-.54-3.99-2.32-.33-1-.38-2.04-.18-3.07ZM73.45,106.46c-.34.2-.72.33-1.11.44-2.25.62-4.14-.54-4.54-2.85-.47-2.74.52-5.12,2-7.34.79-1.18,1.76-2.2,3-2.93,1.35-.8,2.78-1.26,4.3-.48,1.24.64,1.89,1.99,1.93,4.35-.38,3.5-2.07,6.7-5.58,8.8Z"/>
  <path class="cls-1" d="M149.14.23l-97.66-.23L0,85.99l49.6,84.56,99.89,1.38,50.51-85.91L149.14.23ZM125.19,33.62c5.73-3.29,11.45-6.6,17.18-9.9,1.08-.62,1.57-.33,1.57.92,0,2.36,0,4.73.01,7.09,0,.91,0,.91.77.47,1.7-.98,3.4-1.97,5.1-2.94.96-.55,1.48-.27,1.48.82.03,6.32.04,12.64.07,18.96,0,.63-.22,1.02-.78,1.34-4.56,2.61-9.11,5.25-13.66,7.88-.95.55-1.45.25-1.47-.85-.01-.77-.03-1.54,0-2.31.03-.67-.17-.71-.71-.4-2.77,1.62-5.55,3.23-8.34,4.82-.5.29-1.01.86-1.66.44-.6-.38-.37-1.06-.37-1.62-.01-3.82,0-7.65,0-11.47h-.03c0-3.93.02-7.86-.01-11.79,0-.7.23-1.11.84-1.46ZM137.7,68.93c-.62-.02-.98-.38-1.03-1-.04-.55.42-1.02,1.06-1.05.53.04.93.32.99.95.06.58-.43,1.11-1.01,1.09ZM138.74,72.72c-.04.55-.37.92-.99.97-.57.05-1.1-.47-1.06-1.05.04-.62.4-.97,1.03-.98.58-.01,1.01.43,1.02,1.07ZM137.68,64.19c-.57,0-1.08-.49-1.04-1.06.05-.61.4-.96,1.02-.99.58-.02,1.06.48,1.04,1.05-.01.53-.49.99-1.03.99ZM137.56,81.05c.62.01.97.35,1.02.99-.04.62-.35.98-.99,1.02-.59.04-1.11-.46-1.06-1.03.05-.6.39-.99,1.03-.98ZM137.63,78.43c-.63-.08-.95-.48-.89-1.1.05-.62.46-.92,1.05-.94.63.1.98.45.97,1.08,0,.59-.54,1.04-1.13.96ZM134.48,84.42c-.08.6-.36,1-1.01,1-.64,0-.98-.37-1.04-.98-.06-.56.48-1.1,1.05-1.06.63.04.93.43,1,1.03ZM130.36,86.82c-.09.59-.39.99-1.03.98-.63,0-.99-.34-1.01-.98-.03-.59.46-1.09,1.04-1.05.63.04.93.44,1,1.04ZM125.25,88.14c.6.06.94.42.99.97-.01.63-.51,1.11-1.08,1.07-.63-.04-.94-.42-.97-1.03-.03-.58.49-1.07,1.06-1.02ZM121.05,90.52c.56-.05,1.1.48,1.06,1.05-.04.62-.42.94-1.05,1.01-.6-.06-.97-.4-.98-1.02,0-.62.36-.98.98-1.04ZM141.37,116.61c-12.07,6.87-24.06,13.86-36.08,20.81-.92.53-1.88.98-2.93,1.22-1.59.36-3.13.22-4.52-.67-.53-.34-.92-.29-1.44.01-7.88,4.57-15.76,9.12-23.65,13.67-.57.33-1.16.65-1.8.84-1.26.37-2.45.26-3.6-.42-3.82-2.24-7.64-4.5-11.51-6.67-1.69-.95-2.44-2.36-2.54-4.21-.6-10.92-1.2-21.85-1.8-32.77-.67-12.2-1.35-24.39-2.03-36.59-.3-5.41-.59-10.82-.91-16.23-.31-5.38,1.92-9.41,6.55-12.09,13.71-7.94,27.45-15.85,41.17-23.78.69-.4,1.37-.82,2.14-1.06,1.36-.42,2.64-.33,3.9.42,3.72,2.21,7.44,4.42,11.22,6.53,2.02,1.13,2.81,2.79,2.72,4.99-.16,3.93-.35,7.85-.53,11.78-.54,11.72-1.09,23.45-1.63,35.17-.41,8.75-.81,17.51-1.21,26.26-.01.28-.1.57.08.93.86-.49,1.7-.96,2.55-1.45,6.78-3.92,13.56-7.84,20.34-11.75,1.04-.6,2.14-1.06,3.33-1.25,1.39-.23,2.69,0,3.91.7,1.6.94,3.19,1.9,4.82,2.8,2.33,1.28,3.33,3.32,3.52,5.86.13,1.85-.15,3.66-.74,5.41-1.69,4.99-4.66,8.88-9.33,11.54Z"/>
  <path class="cls-1" d="M92.36,112.36c-.33-.19-.67-.31-1.13-.31-.96.07-1.79.58-2.54,1.24-1.82,1.6-3.07,3.58-3.82,5.87-.22.68-.37,1.39-.33,2.11.05.95.35,1.77,1.22,2.29,1.19.7,2.39,1.38,3.57,2.09.37.22.52.21.63-.27.94-4.04,2.93-7.49,5.96-10.32.3-.28.4-.43-.05-.67-1.19-.65-2.34-1.35-3.52-2.03Z"/>
  <path class="cls-1" d="M97.37,112.24c.06-1.36-.03-2.71-.52-4-.88-2.34-2.94-3.47-5.4-2.95-.44.09-.88.22-1.3.38-2.52.99-4.47,2.74-6.15,4.79-2.93,3.58-4.8,7.61-4.99,12.31,0,1.07.1,2.13.44,3.15.79,2.39,2.62,3.58,5.05,3.29,1.26-.15,2.4-.65,3.48-1.3.39-.23.44-.39,0-.63-.93-.51-1.82-1.1-2.76-1.58-2.02-1.04-2.87-2.74-2.66-4.92.4-4.21,2.41-7.54,5.9-9.91,1.72-1.17,3.55-1.26,5.37-.05.95.63,1.97,1.15,2.95,1.73.41.25.55.15.57-.31Z"/>
  <path class="cls-1" d="M70.29,86.92c.94.55,1.85.14,2.7-.32.21-.11.41-.25.59-.4,2.05-1.63,3.31-3.75,3.8-6.32.13-.71.13-1.42-.03-2.13-.29-1.27-1.24-1.86-2.5-1.53-.38.1-.76.25-1.09.46-2.79,1.82-4.18,4.47-4.55,7.52.06,1.17.13,2.16,1.08,2.71Z"/>
  <path class="cls-1" d="M145.03,95.57c-.96.14-1.83.54-2.66,1.02-12.21,7.05-24.41,14.1-36.62,21.14-4.68,2.7-7.3,6.82-8.4,12-.33,1.54-.34,3.12.23,4.64.68,1.83,2.19,2.67,4.1,2.3.9-.18,1.72-.54,2.5-1,3.19-1.85,6.39-3.69,9.58-5.54,9.26-5.35,18.59-10.6,27.77-16.09,4.97-2.97,7.3-7.73,7.9-13.38-.02-.91-.11-1.78-.39-2.62-.61-1.86-2.07-2.74-4.01-2.46Z"/>
  <path class="cls-1" d="M104.27,116.22c10.03-5.94,20.17-11.68,30.26-17.5.87-.5,1.73-1.01,2.71-1.59-.97-.57-1.85-1.04-2.68-1.59-.54-.36-.95-.32-1.51,0-10.93,6.34-21.86,12.67-32.81,18.97-2.26,1.3-4.13,2.98-5.56,5.14-1.94,2.94-3.2,6.11-2.99,9.72.14,2.32,1.33,3.83,3.58,4.59-.07-.86-.27-1.7-.19-2.54.62-6.54,3.49-11.82,9.19-15.2Z"/>
</svg>