<?xml version="1.0" encoding="UTF-8"?>
<svg id="Layer_1" data-name="Layer 1" xmlns="http://www.w3.org/2000/svg" viewBox="0 0 483.87 373.71">
  <defs>
    <style>
      .cls-1 {
        fill: #e05b19;
      }

      .cls-1, .cls-2 {
        stroke-width: 0px;
      }

      .cls-2 {
        fill: #f5a214;
      }
    </style>
  </defs>
  <polygon class="cls-1" points="164.74 61.31 54.91 61.31 0 156.43 54.91 251.54 164.74 251.54 219.66 156.43 164.74 61.31"/>
  <polygon class="cls-1" points="449.77 0 381.57 0 347.47 59.06 381.57 118.13 449.77 118.13 483.87 59.06 449.77 0"/>
  <g>
    <path class="cls-2" d="M231.96,188.46h4.28l1.07,4.15c.03.12,3.48,13.13,11.67,25.84,10.45,16.21,23.42,24.43,38.56,24.43s28.11-8.22,38.56-24.43c8.19-12.71,11.64-25.72,11.67-25.85l1.08-4.14h4.28c1.58,0,4.49-5.3,4.49-13.96s-2.91-13.95-4.49-13.95h-5.53v-4.13c-6.87,7.35-21.38,17.07-50.06,17.07s-43.18-9.72-50.05-17.07v4.13h-5.53c-1.58,0-4.49,5.3-4.49,13.95s2.91,13.95,4.49,13.95Z"/>
    <path class="cls-2" d="M314.96,124.08c8.33,2.18,19.02,5.1,20.8,14.9.75-5.09-2.53-9.76-6.36-12.77-18.24-13.22-49.73-13.33-70.56-6.71-8.53,2.89-20.48,8.82-19.5,19.48,3.56-21.21,59.68-19.02,75.62-14.9Z"/>
    <path class="cls-2" d="M378.16,57.1l-180.09-.43-94.93,158.57,91.47,155.93,184.19,2.55,93.14-158.43-93.78-158.19ZM287.54,79.61c113.72,0,77.4,51.35,61.12,65.3v5.92c6.17,3.2,10.03,11.93,10.03,23.68,0,12.48-4.35,21.54-11.19,24.21-1.64,5.09-5.38,15.24-11.93,25.47-12.46,19.47-29.07,29.76-48.03,29.76s-35.57-10.29-48.03-29.76c-6.55-10.23-10.29-20.38-11.92-25.47-6.84-2.66-11.19-11.73-11.19-24.21,0-11.75,3.86-20.48,10.03-23.68v-5.92c-16.28-13.95-52.6-65.3,61.12-65.3ZM395.83,330.54c-4.25,3.71-9.31,6.01-14.49,8.09-7.42,2.97-15.15,4.81-22.95,6.36-4.92.98-9.88,1.8-14.84,2.53-3.59.53-7.21.82-10.83,1.17-3.58.34-7.16.64-10.75.92-3.32.26-6.64.43-9.96.68-11.63.87-23.28.28-34.92.44-1.52.02-3.05.07-4.57,0-4.16-.19-8.32-.41-12.47-.66-4.62-.28-9.24-.51-13.85-.93-5.17-.47-10.33-1.08-15.48-1.7-3.02-.36-6.05-.71-9.03-1.31-5.25-1.05-10.55-2.02-15.68-3.52-5.68-1.66-11.26-3.73-16.77-5.9-3.87-1.52-7.35-3.84-10.52-6.58-4.78-4.14-6.84-9.52-7.33-15.7-.34-4.29,1.07-8.19,2.31-12.14,3.03-9.62,7.24-18.66,13.51-26.64,7.45-9.49,17.11-15.19,29.06-16.9,3.34-.48,6.7-.83,10.06-1.14,3.16-.3,6.33-.42,9.49-.72,2.57-.24,5.13-.61,7.68-.99.64-.09,1.01,0,1.26.61,2.59,6.01,6.78,10.94,10.92,15.85,6.06,7.2,12.39,14.17,18.61,21.24.77.88,1.54,1.77,2.54,2.93.79-2.94,1.5-5.54,2.18-8.14.99-3.83,1.98-7.66,2.91-11.5.1-.42-.06-1.13-.36-1.38-2.5-2.04-3.56-4.78-3.98-7.85-.13-.93-.18-1.88-.26-2.82-.05-.56.15-.81.78-.81,6.47.02,12.95.01,19.55.01.17,4.24-.6,8.12-3.82,11.16-.64.6-.81,1.13-.59,1.99,1.51,5.74,2.96,11.49,4.43,17.24.14.55.34,1.08.58,1.81.44-.39.79-.65,1.08-.97,8.72-9.58,17.55-19.08,25.42-29.4,2.2-2.88,4.17-5.92,5.39-9.37.3-.86.7-1.04,1.62-.8,3.05.81,6.17,1.1,9.34,1.25,8.58.4,17.13,1.09,25.43,3.58,7.6,2.28,13.78,6.68,19.04,12.5,6.11,6.77,10.35,14.67,13.58,23.11,1.55,4.04,3.07,8.16,3.96,12.37,1.83,8.64-.56,16.14-7.3,22.02Z"/>
  </g>
</svg>