<?xml version="1.0" encoding="UTF-8"?>
<svg id="Layer_1" data-name="Layer 1" xmlns="http://www.w3.org/2000/svg" viewBox="0 0 451.6 396.46">
  <defs>
    <style>
      .cls-1 {
        fill: #e05b19;
      }

      .cls-1, .cls-2 {
        stroke-width: 0px;
      }

      .cls-2 {
        fill: #f5a214;
      }
    </style>
  </defs>
  <polygon class="cls-1" points="396.68 0 286.85 0 231.94 95.12 286.85 190.23 396.68 190.23 451.6 95.12 396.68 0"/>
  <polygon class="cls-1" points="102.3 36.05 34.1 36.05 0 95.12 34.1 154.18 102.3 154.18 136.4 95.12 102.3 36.05"/>
  <g>
    <path class="cls-2" d="M282.09,79.84l-180.09-.43L7.06,237.98l91.47,155.93,184.19,2.55,93.14-158.43-93.78-158.19ZM118.83,202.23c.08-4.46.53-8.83,3.64-12.41,2.19-2.53,4.85-4.4,8.01-5.49,1.21-.42,1.67-1.02,1.65-2.39-.09-6.21-.12-12.43-.04-18.65.2-15.31,5.81-28.33,16.83-38.93,9.58-9.22,21.07-14.64,34.26-16.27,20.81-2.57,38.75,3.49,53.41,18.56,7.59,7.8,12.04,17.33,13.89,28.04.37,2.16.48,4.38.5,6.57.06,7.05.04,14.11,0,21.16,0,.92.31,1.39,1.1,1.73,1.22.52,2.46,1.04,3.61,1.69,5.24,2.97,7.91,7.63,8.26,13.52.25,4.18.12,8.39.05,12.58-.17,10.02-7.33,15.85-15.51,16.98-.72.1-1.45.3-2.15.22-1.47-.18-2.18.56-2.83,1.75-2.65,4.92-5.23,9.9-8.13,14.68-3.78,6.21-8.27,11.93-13.85,16.63-6.93,5.83-14.65,10.17-23.7,11.94-6.33,1.24-12.33.07-18.21-2.05-8.7-3.14-15.72-8.74-21.89-15.49-4.67-5.11-8.55-10.79-12.04-16.77-.94-1.61-2.25-3.06-3.59-4.38-1.82-1.78-3.79-3.42-5.79-5-.83-.66-1.86-1.2-2.89-1.47-4.9-1.26-9.02-3.63-11.9-7.9-1.8-2.66-2.74-5.58-2.71-8.83,0-3.34-.05-6.68.01-10.02ZM299.75,348.11c-4.25,3.71-9.31,6.01-14.49,8.09-7.42,2.97-15.15,4.81-22.95,6.36-4.92.98-9.88,1.8-14.84,2.53-3.59.53-7.21.82-10.83,1.17-3.58.34-7.16.64-10.74.92-3.32.26-6.64.43-9.96.68-11.63.87-23.28.28-34.92.44-1.52.02-3.05.07-4.57,0-4.16-.19-8.32-.41-12.47-.66-4.62-.28-9.24-.51-13.84-.93-5.17-.47-10.33-1.08-15.48-1.7-3.02-.36-6.05-.71-9.03-1.31-5.25-1.05-10.55-2.02-15.68-3.52-5.68-1.66-11.26-3.73-16.77-5.9-3.87-1.52-7.35-3.84-10.52-6.58-4.78-4.14-6.84-9.52-7.33-15.7-.34-4.29,1.07-8.19,2.31-12.14,3.03-9.62,7.24-18.65,13.51-26.64,7.45-9.49,17.11-15.19,29.06-16.9,3.34-.48,6.7-.83,10.06-1.14,3.16-.3,6.33-.42,9.48-.72,2.57-.24,5.13-.61,7.68-.99.64-.09,1.01.01,1.26.61,2.59,6.01,6.78,10.94,10.92,15.85,6.06,7.2,12.39,14.17,18.61,21.24.77.88,1.54,1.77,2.54,2.93.79-2.94,1.5-5.53,2.18-8.14.99-3.83,1.98-7.66,2.91-11.5.1-.42-.06-1.13-.36-1.38-2.5-2.04-3.56-4.78-3.98-7.85-.13-.93-.18-1.88-.26-2.82-.05-.56.15-.81.78-.81,6.47.02,12.95.01,19.55.01.17,4.24-.6,8.12-3.82,11.16-.64.6-.81,1.13-.59,1.99,1.51,5.74,2.96,11.49,4.43,17.24.14.55.34,1.08.58,1.81.44-.39.79-.65,1.08-.97,8.73-9.58,17.55-19.08,25.42-29.4,2.2-2.88,4.17-5.92,5.39-9.37.3-.86.7-1.04,1.62-.8,3.05.81,6.17,1.1,9.34,1.25,8.58.4,17.13,1.09,25.43,3.58,7.6,2.28,13.78,6.68,19.04,12.5,6.11,6.77,10.35,14.67,13.59,23.11,1.55,4.04,3.07,8.16,3.96,12.37,1.83,8.64-.56,16.14-7.3,22.02Z"/>
    <path class="cls-2" d="M178.89,127.92c8.94-1.31,17.82-1.29,26.71.39,8.95,1.69,17.2,5.05,24.78,10.18-3.62-5.02-8.04-9.13-13.22-12.38-9.31-5.83-19.62-7.43-30.39-6.73-11.93.78-21.77,6.05-30.11,14.4-1.07,1.07-2.18,2.12-2.95,3.43.1.17.21.34.31.51,7.56-5.2,15.82-8.47,24.86-9.8Z"/>
    <path class="cls-2" d="M144.69,218.95c.05,1.97.68,2.48,2.63,2.25.62-.07.95.08,1.2.71,1.33,3.36,2.66,6.72,4.12,10.02.37.84,1.12,1.71,1.93,2.11,7.37,3.7,15.28,5.49,23.43,6.32.39.04.95-.12,1.21-.4,1.83-1.98,4.05-3.11,6.76-3.08,3.8.05,7.65-.16,11.38.39,5,.74,7.49,6.24,5.22,10.75-1.48,2.94-4.06,4.15-7.18,4.25-3.16.1-6.32.01-9.49,0-2.67,0-4.86-.99-6.64-3.02-.46-.52-1.22-.95-1.9-1.07-4.14-.75-8.31-1.38-12.46-2.1-1.24-.22-2.46-.6-3.92-.96.23.41.3.58.41.72,3.34,4.5,7.26,8.45,11.91,11.58,6.54,4.41,13.59,7.16,21.7,6.35,4.35-.44,8.41-1.7,12.24-3.76,5.86-3.15,10.6-7.62,14.87-12.67,6.25-7.39,10.89-15.67,13.9-24.86.52-1.59.52-1.6,2.16-1.05.08,0,.17-.02.25-.02h0c.05-.09.11-.18.16-.27,0-.36,0-.72,0-1.09v-.28c0-6.9.03-13.8,0-20.7-.01-2.36.14-4.78-.34-7.06-1.45-6.98-5.64-11.92-12.02-15.03-4.98-2.42-10.09-2.26-15.37-1.05-4.47,1.03-9.01,1.92-13.57,2.36-4.3.42-8.67.24-12.93-.74-3.74-.86-7.45-1.74-11.36-1.51-3.19.18-6.3.56-9.21,1.88-2.42,1.1-4.76,2.39-7.14,3.58-.44.22-.9.37-1.66.67.76-2.18,1.4-4.01,2.07-5.92-1.45.19-2.1.66-3.18,1.93-4.06,4.78-6.42,10.39-8.06,16.36-.48,1.75-1.04,3.53-1.12,5.32-.17,3.96-.05,7.93-.05,11.89,0,2.4-.03,4.81.03,7.21Z"/>
  </g>
</svg>