<?xml version="1.0" encoding="UTF-8"?>
<svg id="Layer_1" data-name="Layer 1" xmlns="http://www.w3.org/2000/svg" viewBox="0 0 451.6 519.81">
  <defs>
    <style>
      .cls-1 {
        fill: #e05b19;
      }

      .cls-1, .cls-2 {
        stroke-width: 0px;
      }

      .cls-2 {
        fill: #f5a214;
      }
    </style>
  </defs>
  <polygon class="cls-1" points="396.68 0 286.85 0 231.94 95.12 286.85 190.23 396.68 190.23 451.6 95.12 396.68 0"/>
  <polygon class="cls-1" points="102.3 401.68 34.1 401.68 0 460.75 34.1 519.81 102.3 519.81 136.4 460.75 102.3 401.68"/>
  <g>
    <path class="cls-2" d="M113.92,216.21v-3c-10.23,3.28-20.15,6.46-30.07,9.64-.13.12-.26.25-.39.37-.02,2.09-.07,4.18-.07,6.27.02,20.04.05,40.08.07,60.12.13.13.26.27.39.4.16.02.34.09.48.04,8.99-2.94,17.94-6.03,27-8.74,2.35-.7,2.64-1.75,2.63-3.81-.06-20.43-.04-40.87-.04-61.3Z"/>
    <path class="cls-2" d="M119.78,338.62v20.57c0,7.18,0,14.36,0,21.54,0,1.08-.31,2.46,1.47,2.47,3.93.03,7.86,0,11.91,0v-47.39h-13.38v2.81Z"/>
    <path class="cls-2" d="M178.9,272.82c-4.94,5.49-5.15,14.53-1.42,19.71,4.36,7.51,14.33,10.24,22.34,5.31,5.24-3.22,8.02-8.13,8.05-14.14.02-5.35-2.31-9.92-6.79-13.17-8.28-5.35-16.88-3.6-22.17,2.28Z"/>
    <path class="cls-2" d="M163.28,299.96c-.42-.82-.91-1.49-1.13-2.24-.79-2.66-2.37-3.88-5.23-3.39-1.08.18-2.24-.12-3.37-.12-7.97.03-15.95.04-23.92.22-.72.02-1.85,1-2.06,1.75-1.09,3.84-1.97,7.73-2.87,11.62-.9,3.85-1.73,7.72-2.68,11.94,4.24,0,8.17-.09,12.1.04,1.71.06,2.53-.56,3.32-2.04,3.65-6.84,9.04-11.92,16.28-14.8,3.06-1.22,6.31-1.98,9.56-2.97Z"/>
    <path class="cls-2" d="M130.09,277.97h0c-.05-.1-.1-.2-.13-.3.03.1.08.2.13.3Z"/>
    <path class="cls-2" d="M130.21,277.82s-.08.1-.12.15h29.2c3.17-15.35,15.59-27.17,33.21-26.6,14.91.48,28.12,11.16,30.76,26.76.75.04,1.55.12,2.34.12,8.39,0,16.78.01,25.17,0,.7,0,1.39-.18,2.09-.27-.03-.12-.07-.23-.07-.35,0-.04.11-.08.16-.12.02-10.95.07-21.89.07-32.84,0-11.35-.05-22.7-.08-34.04-.13-.13-.26-.25-.39-.38-.56-.03-1.13-.08-1.69-.08-39.59,0-79.18,0-118.77,0-.56,0-1.13.05-1.69.08-.13.12-.26.25-.39.37-.03,1.53-.08,3.05-.08,4.58.02,20.77.05,41.53.07,62.3.07.1.16.2.21.32Z"/>
    <path class="cls-2" d="M297.3,222.3c-2.02-.54-4.02-1.14-6.01-1.78-7.33-2.35-14.65-4.72-22.02-7.11-.11.37-.24.59-.24.81-.01,21.62-.03,43.25.05,64.87,0,.62.87,1.57,1.53,1.8,5.38,1.86,10.8,3.61,16.23,5.35,4.07,1.3,8.16,2.52,12.25,3.77.13-.13.26-.26.39-.39.02-12.18.05-24.36.07-36.55.01-9.2-.07-18.4.06-27.59.03-1.91-.64-2.73-2.31-3.18Z"/>
    <path class="cls-2" d="M232.99,329.6c-2.13-8.44-9.24-13.35-17.53-13.35-16,0-31.99-.02-47.99.02-1.81,0-3.66.16-5.43.54-6.49,1.41-12.72,8.62-12.73,14.77-.02,13.89.05,27.78.1,41.67,0,.62.08,1.24.13,1.94h9.43v-2.49c0-9.21.02-18.42,0-27.63-.01-6.79,6.34-8.92,11.3-6.9,3.7,1.51,4.68,4.91,4.68,8.6.02,25.61,0,51.21,0,76.82v2.58h8.63c0-13.52.03-26.91-.02-40.31-.02-4.74,5.46-7.85,8.87-6.85,5.23,1.53,7.03,3.83,7.03,9.41,0,11.71,0,23.43,0,35.14v2.61h8.49v-2.74c0-26.09-.04-52.18.03-78.27.02-6.98,5.99-8.92,11.17-7,3.65,1.36,4.78,4.62,4.79,8.26.03,8.72,0,17.45,0,26.17v2.64h9.42c.06-.53.13-.84.13-1.15,0-13.25.02-26.5-.02-39.74,0-1.59-.13-3.22-.51-4.75Z"/>
    <path class="cls-2" d="M263.15,338.34c0-.79-.07-1.57-.12-2.45h-13.36v47.31c3.69,0,7.15-.15,10.58.05,2.43.14,2.96-.8,2.94-3.05-.09-13.95-.04-27.91-.05-41.86Z"/>
    <path class="cls-2" d="M282.09,138.95l-180.09-.43L7.06,297.09l91.47,155.93,184.19,2.55,93.14-158.43-93.78-158.19ZM306.8,308.96c-3.94-.81-7.83-1.98-11.68-3.18-7.68-2.39-15.32-4.91-23.17-7.44,1.49,6.06,2.97,11.85,4.33,17.67,1,4.28,2.56,8.58,2.62,12.89.28,20.35.08,40.7.17,61.05.03,5.75-4.25,9.48-9.35,9.39-14.37-.26-28.75-.09-43.13-.09h-2.63c0,11.17-.12,22,.05,32.81.08,4.96-1.87,8.31-6.38,10.24h-52.84c-4.28-1.8-6.03-4.9-5.92-9.65.25-10.25.08-20.5.08-30.76v-2.65c-1.23,0-2.11,0-2.99,0-14.86-.01-29.71.02-44.57-.06-4.37-.02-7.51-3.39-7.5-7.74,0-21.39.01-42.79.03-64.18,0-.53.12-1.06.24-1.58,1.39-5.93,2.81-11.86,4.2-17.8.73-3.14,1.43-6.28,2.17-9.56-11.03,3.52-21.71,7-32.45,10.31-2.67.82-5.56.98-7.83-1.14-1.15-1.08-1.94-2.54-2.9-3.83v-88.7c1.34-3.16,3.75-4.86,7.03-5.88,12.15-3.77,24.24-7.73,36.35-11.64,4.7-1.51,9.22-3.41,14.36-3.38,39.63.26,79.26.38,118.89.54,5.57.02,11.15-.05,16.72.04,1.63.03,3.33.24,4.87.73,14.33,4.57,28.64,9.18,42.93,13.85,4.88,1.59,7.01,3.78,7.02,10.03.03,24.23.01,48.46.01,72.68,0,2.75-.03,5.49,0,8.24.07,4.99-3.62,9.82-8.76,8.77Z"/>
    <path class="cls-2" d="M260.56,319.72c-.2-1.14-.32-2.08-.54-3-1.67-6.99-3.33-13.99-5.1-20.96-.15-.57-1.09-1.33-1.69-1.35-6.52-.19-13.05-.29-19.57-.32-3.38-.02-6.76.14-10.14.28-.58.03-1.48.25-1.67.66-.86,1.76-1.51,3.62-2.23,5.43,1.97.42,3.77.73,5.53,1.18,9.45,2.43,16.21,8.21,20.76,16.74.31.59,1.14,1.26,1.74,1.28,4.26.11,8.52.06,12.91.06Z"/>
  </g>
</svg>