<?xml version="1.0" encoding="UTF-8"?>
<svg id="Layer_1" data-name="Layer 1" xmlns="http://www.w3.org/2000/svg" viewBox="0 0 200 171.93">
  <defs>
    <style>
      .cls-1 {
        fill: #fff;
        stroke-width: 0px;
      }
    </style>
  </defs>
  <path class="cls-1" d="M142.53,85.66c-1.23-.27-1.5-.06-1.52,1.18,0,.42,0,.83,0,1.25,0,0,0,0,0,0,0,.64,0,1.29,0,1.93,0,.44.2.67.69.71,1.35.11,2.61-.89,2.8-2.28.18-1.25-.72-2.5-1.99-2.78Z"/>
  <path class="cls-1" d="M158.92,54.81c-17.16,0-34.32,0-51.47,0q-1.47,0-1.47,1.51c0,12.86,0,25.72,0,38.58,0,12.97.01,25.95-.02,38.92,0,1,.25,1.29,1.27,1.28,6.73-.04,13.47-.04,20.2,0,.96,0,1.24-.31,1.23-1.24-.04-3.77-.04-7.53,0-11.3.01-.92-.28-1.53-1-2.13-4-3.31-7.41-7.1-9.15-12.13-.2-.59-.6-.58-1.07-.58-2.63-.03-4.9.89-6.93,2.52-.53.42-1.1.88-1.67.17-.59-.74-.04-1.24.52-1.7,1.4-1.14,2.97-1.97,4.72-2.46,2.47-.69,4.99-.41,7.49-.45,2.62-.03,2.58,0,2.66-2.62.03-.95-.23-1.48-1.11-1.95-3.01-1.6-4.67-4.17-4.96-7.57-.06-.74-.22-1-1.03-1.07-2.97-.26-4.81-2.2-4.32-4.98.28-1.58-.1-2.89-.41-4.3-.11-.52-.2-1.05-.26-1.57-.57-4.87,2.04-9.58,6.95-10.52.55-.11.74-.43.89-.88.74-2.29,2.31-3.81,4.47-4.73,3.13-1.32,6.42-1.64,9.73-1,9.2,1.77,14.89,11.4,12.1,20.36-.17.54-.28,1.05-.1,1.65.91,3.12-.73,5.61-3.94,5.93-.89.09-1.19.35-1.27,1.27-.27,3.17-1.81,5.69-4.58,7.2-1.3.71-1.55,1.5-1.49,2.78.1,1.99.05,1.97,2.02,2,2.58.05,5.18-.25,7.73.33,5.86,1.34,9.71,6.47,9.74,12.97.02,4.98.02,9.97-.01,14.95,0,.8.23,1.07,1.04,1.03,1.21-.06,2.44-.1,3.65.01,1.19.11,1.44-.33,1.44-1.47-.03-25.76-.03-51.51-.03-77.27q0-1.55-1.55-1.55Z"/>
  <path class="cls-1" d="M152.43,118.28c-.09-5.78-4.86-10.53-10.45-10.59-.76,0-1.25.12-1.49.98-.25.9-.7,1.76-1.15,2.6-1.99,3.71-4.81,6.72-8.06,9.34-.51.41-.8.83-.79,1.52.03,3.95.03,7.91,0,11.86,0,.83.24,1.12,1.11,1.11,3.27-.05,6.54-.02,9.81-.02,3.31,0,6.61-.02,9.92.02.82,0,1.14-.2,1.13-1.08-.03-5.24.05-10.49-.03-15.73Z"/>
  <path class="cls-1" d="M129.59,102.37c-.84,0-1.68.04-2.51-.01-.66-.04-.99.14-.96.87.04,1.1-.02,2.21.02,3.31.05,1.42,1.21,2.24,3.23,2.33,1.93.09,3.44-.77,3.63-2.06.01-.07.01-.15.01-.23,0-1.14-.02-2.28,0-3.42.01-.57-.18-.83-.79-.8-.87.04-1.75.01-2.62.01Z"/>
  <path class="cls-1" d="M117.17,85.6c-1.34.06-2.41.99-2.58,2.29-.15,1.12.66,2.3,1.85,2.68,1.37.44,1.69.21,1.69-1.24,0-.38,0-.76,0-1.14h0c0-.57-.03-1.14,0-1.71.04-.72-.3-.91-.97-.88Z"/>
  <path class="cls-1" d="M119.38,83.28c2.22-1.75,3.61-3.89,3.36-6.84-.04-.48-.16-1.02.36-1.35.54-.34,1.02-.09,1.48.22.25.17.5.34.76.5,5,2.95,10.11,5.08,15.94,2.28.52-.25,1-.07,1.24.46.25.54.03,1.04-.48,1.24-1.72.68-.99,2.13-.98,3.25.01,1.13,1.16.43,1.73.72.23.12.52.13.76.25.79.4,1.01.05,1.2-.7,1.94-7.78-4.32-17.3-13.44-17.08-2.03,0-3.75.26-5.41.86-2.19.8-3.92,2.12-4.29,4.57-.15.99-.61,1.27-1.48,1.34-1.58.13-2.94.75-4.05,1.89-2.45,2.53-2.48,6.03-1.63,8.87.15.51.44.53.86.35.93-.4,1.91-.48,2.91-.43.44.02.8-.11,1.15-.39Z"/>
  <path class="cls-1" d="M82.39,128.29c-.01-4.98,0-9.97,0-14.95,0-5.17,0-10.35,0-15.52,0-.45,0-.93-.13-1.35-.36-1.21-1.64-2-2.83-1.81-1.28.2-2.2,1.25-2.21,2.65-.03,3.77,0,7.53-.01,11.3,0,.41.06.84-.14,1.23-.21.4-.48.72-.97.63-.44-.09-.75-.38-.8-.85-.03-.34-.02-.68-.02-1.03,0-7.38,0-14.76,0-22.14,0-.38.02-.77-.04-1.14-.22-1.31-1.25-2.22-2.5-2.25-1.31-.03-2.29.75-2.64,2.07-.15.56-.14,1.13-.14,1.7,0,7.27,0,14.53,0,21.8,0,.34,0,.69-.02,1.03-.03.57-.42.81-.92.8-.45-.01-.8-.25-.84-.76-.02-.34-.02-.68-.02-1.03,0-8.83,0-17.65,0-26.48,0-.57-.02-1.15-.14-1.7-.27-1.25-1.31-2.11-2.49-2.13-1.17-.02-2.28.82-2.59,2.03-.11.43-.09.9-.09,1.36,0,9.06,0,18.11,0,27.17,0,.71.02,1.53-.91,1.54-.97,0-1.02-.83-1.03-1.59,0-.15,0-.3,0-.46,0-6.66,0-13.32,0-19.97,0-.99.03-1.98-.02-2.97-.08-1.49-1.28-2.5-2.77-2.4-1.5.1-2.39,1.21-2.39,3.03,0,9.97,0,19.94,0,29.9,0,1.35-.19,2.66-.72,3.9-.78,1.84-2.99,2.14-4.25.57-.65-.81-1.08-1.73-1.37-2.74-.73-2.56-1.47-5.11-2.23-7.67-.46-1.54-1.69-2.34-2.98-1.95-1.35.41-1.94,1.62-1.55,3.21.77,3.1,1.55,6.19,2.32,9.29,1.11,4.5,2.02,9.06,4.21,13.22,2.25,4.27,5.62,7.11,10.33,8.3,2.96.75,5.99.47,8.98.42,7.61-.12,13.91-6.66,13.9-14.26Z"/>
  <path class="cls-1" d="M81.18,39.48c-6.13-.02-11.01,4.8-11.01,10.86,0,5.93,4.93,10.84,10.95,10.88,5.83.04,10.82-4.97,10.84-10.87.02-5.95-4.85-10.86-10.77-10.88ZM80.99,55.52c-2.87,0-5.19-2.36-5.18-5.25,0-2.82,2.43-5.21,5.26-5.21,2.82,0,5.23,2.41,5.26,5.23.03,2.87-2.38,5.23-5.34,5.23Z"/>
  <path class="cls-1" d="M127.69,100.5c1.22,0,2.44,0,3.65,0,4.45-.02,7.78-3.34,7.8-7.79,0-1.67,0-3.35,0-5.02,0-1.48,0-2.97,0-4.45q0-2.18-2.1-1.97c-.26.03-.53.03-.8.03-3.81.06-7.23-1.22-10.5-3.03-.46-.25-1.01-.82-1.19.28-.41,2.53-1.78,4.5-3.77,6.04-.58.44-.8.92-.79,1.63.04,2.21,0,4.41.01,6.62.02,4.32,3.36,7.65,7.68,7.67Z"/>
  <path class="cls-1" d="M149.14.23l-97.66-.23L0,85.99l49.6,84.56,99.89,1.38,50.51-85.91L149.14.23ZM46.69,82.92c.5-.58,1.08-1,1.73-.4.64.59.14,1.15-.29,1.67-3.5,4.24-3.47,10.39.06,14.59.45.53.84,1.11.19,1.68-.66.59-1.2.1-1.64-.41-2.15-2.47-3.08-5.37-3.05-8.63-.02-3.17.89-6.04,3-8.49ZM41.23,80.34c.21-.26.44-.52.7-.74.39-.33.84-.4,1.25-.06.46.38.41.88.12,1.33-.18.28-.45.52-.66.78-4.33,5.29-4.28,14.46.09,19.72.46.56,1.29,1.19.47,1.92-.87.78-1.46-.12-1.94-.71-2.66-3.22-3.69-7-3.71-11.91.01-3.32,1.05-7.09,3.68-10.33ZM153.78,144.49c-14.19.06-28.39.02-42.58.02-.39,0-.75-.04-1.09-.25-.33-.21-.45-.52-.41-.88.04-.37.27-.66.63-.72.41-.07.83-.07,1.25-.07,14.04,0,28.08,0,42.12,0,3.03,0,5.45-1.67,6.44-4.39.4-1.11.3-1.28-.84-1.28-17.39,0-34.78,0-52.17-.02-.88,0-1.27.23-1.17,1.15.06.56.01,1.14.01,1.71,0,2.98-1.74,4.74-4.75,4.75-6.62.02-13.24.03-19.86,0-3.99-.02-7.98.04-11.98-.07-2.42-.06-4.86.17-7.29-.02-7.41-.59-12.33-4.56-15.34-11.22-1.65-3.64-2.45-7.51-3.43-11.33-.9-3.5-1.8-7-2.6-10.52-.72-3.18,1.96-5.81,5.12-5.07,1.77.41,2.74,1.66,3.23,3.36.7,2.45,1.41,4.89,2.1,7.35.22.78.51,1.52,1.01,2.16.46.58.88.56,1.16-.17.31-.82.49-1.67.49-2.56-.01-9.97,0-19.94,0-29.91,0-4.17,2.47-6.08,6.44-4.92.74.22.62-.22.67-.63.36-2.55,1.6-3.99,3.78-4.39,2.67-.5,5.16,1.48,5.25,4.19.02.72-.02,1.13.97.75,3.25-1.22,6.19.87,6.27,4.4.05,2.17.03,4.34,0,6.51-.01.81.16.95.97.67,3.27-1.11,6.14.96,6.14,4.42.01,10.39.09,20.78-.03,31.16-.06,5.55-2.68,9.88-7.19,13.08-.26.19-.64.25-.81.85.52,0,.93,0,1.35,0,7.76,0,15.52,0,23.29,0,2.34,0,3.23-.88,3.23-3.25,0-34.59,0-69.18,0-103.76,0-2.49-.87-3.33-3.38-3.33-13.17,0-26.33,0-39.5,0-2.43,0-3.24.8-3.24,3.19,0,13.66,0,27.32,0,40.98,0,.78.18,1.85-.94,1.87-1.26.03-.99-1.12-.99-1.91-.01-13.62-.01-27.24,0-40.87,0-3.57,1.71-5.18,5.28-5.18,13.2.02,26.41.03,39.61-.03,3.4-.01,5.13,2.33,5.03,4.88-.15,3.72-.03,7.46-.05,11.19,0,.88.06,1.34,1.09.77,1.26-.69,2.69-.81,4.1-.81,14.08,0,28.16.04,42.24-.02,5.5-.03,9.08,4.15,9.06,9.12-.09,26.75-.04,53.5-.05,80.25,0,5.11-3.5,8.79-8.62,8.81ZM93.14,81.13c-.45-.51-.73-1.05-.13-1.58.6-.53,1.13-.16,1.57.32,2.56,2.82,3.78,6.22,4.05,9.94.34,4.61-.59,8.92-3.54,12.63-.17.21-.34.41-.52.61-.46.51-1.03.75-1.59.24-.54-.49-.28-1.01.15-1.49,2.62-2.97,3.63-6.51,3.68-10.39-.07-3.84-1.06-7.35-3.67-10.28ZM81.13,63.11c-7.23-.09-12.81-5.55-12.86-12.83-.04-7.08,5.76-12.73,12.71-12.72,7.03,0,12.85,5.66,12.83,12.46-.02,7.36-5.58,13.1-12.68,13.09ZM88,84.07c-.44-.51-.75-1.07-.16-1.58.62-.54,1.17-.16,1.65.38,2.18,2.46,3.04,5.38,3.07,7.84,0,3.78-.82,6.53-2.72,8.92-.12.15-.23.3-.36.44-.47.49-.99.98-1.64.37-.57-.54-.26-1.12.18-1.6,1.22-1.36,2.01-2.95,2.37-4.73.76-3.7.11-7.09-2.39-10.02Z"/>
  <path class="cls-1" d="M107.58,52.86c8.48.03,16.96.02,25.45.02,8.67,0,17.34,0,26.02,0,1.14,0,1.25-.16.7-1.13-1.28-2.28-3.27-3.51-5.86-3.51-14.42-.03-28.83-.02-43.25,0-1.48,0-2.83.49-4.04,1.37-1.07.77-.64,1.9-.55,2.84.09.84,1.01.43,1.54.43Z"/>
  <path class="cls-1" d="M81.18,46.99c-1.78-.07-3.38,1.44-3.45,3.24-.07,1.82,1.39,3.32,3.28,3.37,1.82.05,3.37-1.44,3.4-3.26.03-1.72-1.48-3.29-3.23-3.35Z"/>
  <path class="cls-1" d="M138.23,109.2c.68-1.46.68-1.46-.87-1.5-.65-.02-1.29.03-1.94,0-.43-.01-.71.14-.89.55-1.39,3.14-7.6,3.38-9.46.65-.72-1.05-1.45-1.41-2.37-1.22-.42,0-.61,0-.8,0-1.69,0-1.72.05-.97,1.62,1.85,3.89,4.66,6.99,7.94,9.71.49.41.86.44,1.38.02,3.3-2.76,6.15-5.88,7.98-9.83Z"/>
</svg>