<?xml version="1.0" encoding="utf-8"?>
<!-- Generator: Adobe Illustrator 27.5.0, SVG Export Plug-In . SVG Version: 6.00 Build 0)  -->
<svg version="1.1" id="Capa_1" xmlns="http://www.w3.org/2000/svg" xmlns:xlink="http://www.w3.org/1999/xlink" x="0px" y="0px"
	 viewBox="0 0 1080 1080" style="enable-background:new 0 0 1080 1080;" xml:space="preserve">
<style type="text/css">
	.st0{fill:#D44F00;}
	.st1{fill:#FFFFFF;}
</style>
<g>
	<path class="st0" d="M1035,580.3H45.7c-19.9,0-36-16.1-36-36v-8.6c0-19.9,16.1-36,36-36H1035c19.9,0,36,16.1,36,36v8.6
		C1071,564.2,1054.9,580.3,1035,580.3z"/>
	<g>
		<path class="st1" d="M131.5,559.5c-3.5,0-7.7-1.1-10.8-2.9l0.9-6.1c2.7,1.8,6.8,3,9.7,3c3.5,0,5.8-2,5.8-4.6
			c0-7-15.6-6.5-15.6-17.7c0-7,5.2-10.9,11.7-10.9c3.9,0,7.3,1.1,9.7,2.4l-1.1,6.1c-2.3-1.5-5.1-2.4-8.1-2.4c-3,0-5.4,1.3-5.4,3.9
			c0,6,15.9,5.9,15.9,17.6C144.4,554.8,139.1,559.5,131.5,559.5z"/>
		<path class="st1" d="M150.5,521.2h22v6.5h-14.8v8.2h11.9v6.3h-11.9v10.1h15.1v6.5h-22.3V521.2z"/>
		<path class="st1" d="M179.6,558.7v-37.5H192c6.8,0,12.3,2.3,12.3,10.6c0,4.3-2.5,8.7-8.7,9.8c2.2,0.8,3.1,1.6,4.3,3.6l3.9,6.9
			c0.8,1.4,1.5,1.9,2.6,1.9h1.6v4.7c-1.2,0.4-3.5,0.5-4.6,0.5c-2.6,0-4.4-1.3-5.8-3.8l-5.5-10c-1.1-1.9-2-2.1-3.5-2.1h-1.8v15.4
			L179.6,558.7L179.6,558.7z M186.8,537.1h4.5c4.7,0,5.7-2.5,5.7-5.1c0-3.8-2.4-4.4-6.2-4.4h-4V537.1z"/>
		<path class="st1" d="M225.7,546.7l9.5-25.5h7.4l-14.8,37.5h-4.4l-14.7-37.5h7.4L225.7,546.7z"/>
		<path class="st1" d="M247.6,521.2h7.2v37.5h-7.2V521.2z"/>
		<path class="st1" d="M261.3,540.4c0-13.5,7.7-20,18.8-20c3.8,0,7.8,0.9,10.4,2.3l-1.1,6.2c-2.4-1.3-5.5-2.3-8.9-2.3
			c-8.9,0-11.8,6.3-11.8,13.2c0,7.8,3.6,13.4,12.3,13.4c3.6,0,6.9-1.2,9-2.4l1,6c-2.8,1.7-7.5,2.6-11,2.6
			C268.5,559.5,261.3,552.5,261.3,540.4z"/>
		<path class="st1" d="M297.1,521.2h7.2v37.5h-7.2V521.2z"/>
		<path class="st1" d="M310.8,539.9c0-11,5.4-19.5,17.2-19.5c12.1,0,17.4,8.7,17.4,19.5c0,11.2-5.5,19.6-17.4,19.6
			C316.1,559.5,310.8,550.9,310.8,539.9z M338.1,539.9c0-9-3.4-13.2-10.1-13.2c-6.8,0-10,4.8-10,13.3c0,8.4,3.1,13.3,10,13.3
			C334.7,553.2,338.1,549.2,338.1,539.9z"/>
		<path class="st1" d="M364.8,521.2h22v6.5H372v8.2h11.9v6.3H372v10.1h15.1v6.5h-22.3V521.2z"/>
		<path class="st1" d="M394,521.2h7.7l15.7,22.5v-22.5h7v37.5h-5.1l-18.2-26.6v26.6H394L394,521.2L394,521.2z"/>
		<path class="st1" d="M474.6,521.2v6.5h-11.8v31h-7.2v-31h-11.8v-6.5H474.6z"/>
		<path class="st1" d="M477,539.9c0-11,5.4-19.5,17.2-19.5c12.1,0,17.4,8.7,17.4,19.5c0,11.2-5.5,19.6-17.4,19.6
			C482.3,559.5,477,550.9,477,539.9z M504.4,539.9c0-9-3.4-13.2-10.1-13.2c-6.8,0-10,4.8-10,13.3c0,8.4,3.1,13.3,10,13.3
			C501,553.2,504.4,549.2,504.4,539.9z"/>
		<path class="st1" d="M518.2,521.2h13.2c14.1,0,19,7.6,19,18.7c0,9.7-4.7,18.8-17.9,18.8h-14.2L518.2,521.2L518.2,521.2z
			 M525.3,552.2h5.2c8.8,0,12.3-4.9,12.3-12.3c0-6.4-2.3-12.2-12-12.2h-5.4L525.3,552.2L525.3,552.2z"/>
		<path class="st1" d="M576,549.6H563l-3.6,9.1H552l15.3-37.5h4.4l15.2,37.5h-7.3L576,549.6z M565.2,543.9h8.6l-4.2-10.8
			L565.2,543.9z"/>
		<path class="st1" d="M604.9,521.2h7.2v31h15.3v6.5h-22.5V521.2z"/>
		<path class="st1" d="M654.6,549.6h-13.1l-3.6,9.1h-7.3l15.3-37.5h4.4l15.2,37.5h-7.3L654.6,549.6z M643.8,543.9h8.6l-4.2-10.8
			L643.8,543.9z"/>
		<path class="st1" d="M683.5,558.7v-37.5h12.4c6.8,0,12.3,2.3,12.3,10.6c0,4.3-2.5,8.7-8.7,9.8c2.2,0.8,3.1,1.6,4.3,3.6l3.9,6.9
			c0.8,1.4,1.5,1.9,2.6,1.9h1.6v4.7c-1.2,0.4-3.5,0.5-4.6,0.5c-2.6,0-4.4-1.3-5.8-3.8l-5.5-10c-1.1-1.9-2-2.1-3.5-2.1h-1.8v15.4
			L683.5,558.7L683.5,558.7z M690.7,537.1h4.5c4.7,0,5.7-2.5,5.7-5.1c0-3.8-2.3-4.4-6.2-4.4h-4V537.1z"/>
		<path class="st1" d="M717.9,521.2h22v6.5h-14.8v8.2H737v6.3h-11.9v10.1h15.1v6.5h-22.3L717.9,521.2L717.9,521.2z"/>
		<path class="st1" d="M747.1,558.7v-37.5h12.7c7.3,0,12.2,3,12.2,10.5c0,7-4.3,12-14.3,12h-3.3v15L747.1,558.7L747.1,558.7z
			 M754.3,537.5h3.4c5.8,0,6.9-2.8,6.9-5.7c0-3.5-2.4-4.2-5.6-4.2h-4.8L754.3,537.5L754.3,537.5z"/>
		<path class="st1" d="M778.1,545.3v-24.1h7.2V544c0,4.7,1.8,9,8.3,9c6,0,8.5-3.8,8.5-8.5v-23.3h7.2v24.6c0,8.8-7,13.7-15.8,13.7
			C785.4,559.5,778.1,555.2,778.1,545.3z"/>
		<g>
			<path class="st1" d="M791.7,515.8l3.6-10.2l8,1.8l-8.7,9.7L791.7,515.8z"/>
		</g>
		<path class="st1" d="M817.2,521.2h11.9c7.8,0,12.3,2.7,12.3,9.4c0,3.9-2.5,6.8-5.8,7.8c5.3,0.9,8,4.2,8,9.2
			c0,7.3-4.9,11.1-12.8,11.1h-13.5L817.2,521.2L817.2,521.2z M824.4,536h3.2c4.1,0,6.4-1.6,6.4-4.4s-1.8-3.9-4.8-3.9h-4.8V536z
			 M824.4,552.2h4.8c5.2,0,6.8-2.1,6.8-5.1c0-3.7-2.6-5.2-7.8-5.2h-3.8L824.4,552.2L824.4,552.2z"/>
		<path class="st1" d="M849.8,521.2h7.2v31h15.3v6.5h-22.5V521.2z"/>
		<path class="st1" d="M878.6,521.2h7.2v37.5h-7.2V521.2z"/>
		<path class="st1" d="M892.3,540.4c0-13.5,7.7-20,18.8-20c3.8,0,7.8,0.9,10.4,2.3l-1.1,6.2c-2.3-1.3-5.5-2.3-8.9-2.3
			c-8.9,0-11.8,6.3-11.8,13.2c0,7.8,3.6,13.4,12.3,13.4c3.6,0,6.9-1.2,9-2.4l1,6c-2.8,1.7-7.5,2.6-11,2.6
			C899.4,559.5,892.3,552.5,892.3,540.4z"/>
		<path class="st1" d="M949,549.6h-13.1l-3.6,9.1H925l15.3-37.5h4.4l15.2,37.5h-7.3L949,549.6z M938.2,543.9h8.6l-4.2-10.8
			L938.2,543.9z"/>
	</g>
</g>
</svg>
