<?xml version="1.0" encoding="UTF-8"?>
<svg id="Fondo" xmlns="http://www.w3.org/2000/svg" xmlns:xlink="http://www.w3.org/1999/xlink" viewBox="0 0 619.3 142.02">
  <defs>
    <style>
      .cls-1 {
        fill: #42c453;
      }

      .cls-1, .cls-2, .cls-3 {
        stroke-width: 0px;
      }

      .cls-2 {
        fill: url(#linear-gradient);
      }

      .cls-3 {
        fill: #fff;
      }
    </style>
    <linearGradient id="linear-gradient" x1="379.4" y1="123.17" x2="379.4" y2="18.85" gradientUnits="userSpaceOnUse">
      <stop offset="1" stop-color="#42c453"/>
      <stop offset="1" stop-color="#42c453"/>
      <stop offset="1" stop-color="#42c453"/>
    </linearGradient>
  </defs>
  <path class="cls-1" d="M152.26,57.8l-22.6-39.17-3.12-5.41c-1.35-2.34-3.02-4.42-4.95-6.2-4.82-4.45-11.21-7.02-17.95-7.02h-51.47c-7.53,0-14.59,3.2-19.53,8.64-1.27,1.39-2.39,2.92-3.35,4.58L3.54,57.8c-4.72,8.17-4.72,18.25,0,26.42l21.92,37.94.99,1.72,2.84,4.92c4.72,8.18,13.44,13.22,22.88,13.22h51.47c9.44,0,18.18-5.04,22.9-13.22l.45-.78,2.93-5.07,12.07-20.93,10.27-17.8c4.72-8.17,4.72-18.25,0-26.42ZM95.36,113.07c-6.94,2.84-14.23,3.97-21.95,3.17-5.84-.61-11.39-2.22-16.56-5-.98-.51-1.88-.12-2.72.02-1.65.29-3.23.94-4.86,1.39-2.66.75-5.33,1.47-7.99,2.18-1.32.35-2.65.69-3.99,1.03-1.77.46-3.58.91-5.42,1.4,1.28-4.65,2.51-9.13,3.74-13.62.66-2.33,1.28-4.67,1.95-7.01.23-.84.47-1.67.72-2.51.12-.41.02-.67-.16-.96-2.9-5.12-4.78-10.58-5.48-16.4-.33-2.69-.45-5.34-.36-7.92,0-.42.03-.83.06-1.25,0-.08,0-.16.02-.23.02-.43.06-.87.1-1.3,0-.09,0-.17.02-.25.05-.47.1-.93.16-1.39.18-1.47.44-2.92.78-4.35.08-.33.15-.65.24-.97.1-.42.21-.84.34-1.25.15-.53.31-1.05.49-1.58,0-.04.03-.09.04-.13.18-.52.36-1.04.56-1.56.19-.52.4-1.03.61-1.53.04-.1.08-.21.14-.31.17-.42.36-.84.56-1.26.04-.1.1-.21.15-.32.19-.4.39-.8.6-1.19.1-.21.2-.41.33-.62.23-.45.47-.88.73-1.32.28-.5.58-.99.9-1.49.04-.07.08-.13.12-.19.3-.47.61-.94.93-1.41.02-.04.05-.08.08-.11.35-.51.71-1.01,1.08-1.51,7.03-9.45,16.39-15.46,27.95-17.64,9.4-1.78,18.26-.94,26.46,2.56,3.68,1.57,7.23,3.67,10.63,6.32,8.99,6.99,14.69,16.18,16.75,27.39,2.49,13.71-.55,26.19-9.15,37.22-.33.42-.66.83-.99,1.23-1.22,1.47-2.52,2.87-3.98,4.1-2.67,2.24-5.37,4.45-8.45,6.11-1.71.93-3.43,1.75-5.18,2.46Z"/>
  <path class="cls-3" d="M123.11,62.11c-2.06-11.21-7.76-20.4-16.75-27.39-10.97-8.54-23.47-11.46-37.09-8.87-11.56,2.17-20.92,8.19-27.96,17.63-7.43,9.93-10.17,21.18-8.68,33.44.71,5.82,2.59,11.28,5.49,16.4.18.29.27.55.16.96-.94,3.17-1.78,6.35-2.66,9.52-1.23,4.49-2.47,8.97-3.74,13.62,3.23-.84,6.33-1.61,9.4-2.43,2.66-.71,5.33-1.43,7.99-2.17,1.63-.45,3.21-1.1,4.86-1.39.84-.14,1.74-.53,2.72-.02,5.17,2.78,10.72,4.39,16.56,5,9.66,1,18.65-1.02,27.13-5.62,3.08-1.67,5.78-3.88,8.44-6.11,1.86-1.57,3.47-3.41,4.98-5.33,8.6-11.03,11.64-23.51,9.15-37.22ZM116.1,73.59c-.37,6.27-2.29,12.15-5.7,17.48-1.7,2.7-3.78,5.05-6.03,7.33-2.02,2.02-4.27,3.7-6.62,5.19-1.98,1.25-4.15,2.23-6.41,3.04-6.03,2.16-12.21,2.82-18.55,1.96-2.51-.33-4.96-1-7.37-1.76-2.8-.9-5.33-2.31-7.82-3.8-.33-.2-.61-.12-.92-.04-3.86,1.02-7.72,2.02-11.58,3.04-.71.2-1.37.49-2.29.51,1.1-3.92,2.16-7.74,3.19-11.54.2-.72.37-1.45.53-2.19.1-.45-.2-.82-.43-1.18-4.84-7.46-6.8-15.65-5.94-24.47,1.04-10.79,5.94-19.59,14.42-26.31,13.01-10.29,31.15-11.05,44.79-1.63,11.93,8.23,17.55,19.87,16.73,34.38Z"/>
  <path class="cls-1" d="M99.37,39.2c-13.64-9.42-31.78-8.66-44.79,1.63-8.48,6.72-13.38,15.52-14.42,26.31-.86,8.82,1.1,17.01,5.94,24.47.24.35.53.72.43,1.18-.16.74-.33,1.47-.53,2.19-1.04,3.8-2.1,7.62-3.19,11.54.92-.02,1.59-.31,2.29-.51,3.86-1.02,7.72-2.02,11.58-3.04.31-.08.59-.16.92.04,2.49,1.49,5.02,2.9,7.82,3.8,2.41.76,4.86,1.43,7.37,1.76,6.35.86,12.52.2,18.55-1.96,2.25-.8,4.43-1.78,6.41-3.04,2.35-1.49,4.6-3.17,6.62-5.19,2.25-2.27,4.33-4.62,6.03-7.33,3.41-5.33,5.33-11.21,5.7-17.48.82-14.52-4.8-26.15-16.73-34.38ZM92.76,92.61c-2.25.29-4.41.12-6.56-.47-3.72-1.02-7.39-2.17-10.78-4.07-4.68-2.61-8.52-6.19-11.91-10.27-2.94-3.53-5.74-7.17-7.52-11.5-.82-2-1.27-4.07-1.21-5.94.06-4.04,1.65-7.05,4.29-9.58,1.74-1.68,3.9-1.27,5.98-.96.72.12,1.18.84,1.45,1.51,1.29,3.08,2.57,6.15,3.84,9.21.24.59.12,1.14-.12,1.68-.65,1.47-1.74,2.59-2.78,3.74-1.04,1.14-1.1,1.49-.33,2.76,3.7,6.21,8.86,10.74,15.61,13.4.96.39,1.74.29,2.41-.55,1.14-1.45,2.35-2.86,3.47-4.33.63-.82,1.35-1.06,2.27-.69,3.31,1.37,6.48,3.02,9.7,4.62.63.33.8.86.82,1.55.12,4.84-3.78,9.27-8.62,9.87Z"/>
  <path class="cls-3" d="M101.38,82.74c.12,4.84-3.78,9.27-8.62,9.87-2.25.29-4.41.12-6.56-.47-3.72-1.02-7.39-2.17-10.78-4.07-4.68-2.61-8.52-6.19-11.91-10.27-2.94-3.53-5.74-7.17-7.52-11.5-.82-2-1.27-4.07-1.21-5.94.06-4.04,1.65-7.05,4.29-9.58,1.74-1.68,3.9-1.27,5.98-.96.72.12,1.18.84,1.45,1.51,1.29,3.08,2.57,6.15,3.84,9.21.24.59.12,1.14-.12,1.68-.65,1.47-1.74,2.59-2.78,3.74-1.04,1.14-1.1,1.49-.33,2.76,3.7,6.21,8.86,10.74,15.61,13.4.96.39,1.74.29,2.41-.55,1.14-1.45,2.35-2.86,3.47-4.33.63-.82,1.35-1.06,2.27-.69,3.31,1.37,6.48,3.02,9.7,4.62.63.33.8.86.82,1.55Z"/>
  <path class="cls-2" d="M619.3,71.01c0,28.69-23.48,52.16-52.17,52.16H139.75l9.93-17.21,11.5-19.93c5.29-9.16,5.29-20.44,0-29.6l-21.68-37.58h427.63c14.35,0,27.39,5.87,36.84,15.32,9.46,9.45,15.33,22.49,15.33,36.84Z"/>
  <g>
    <path class="cls-3" d="M187.87,84.31c-2.71-1.46-4.84-3.48-6.39-6.06-1.55-2.58-2.33-5.51-2.33-8.77s.78-6.18,2.33-8.77c1.55-2.58,3.68-4.61,6.39-6.06,2.71-1.46,5.76-2.19,9.14-2.19,2.85,0,5.43.5,7.73,1.5s4.24,2.44,5.8,4.32l-4.89,4.51c-2.22-2.57-4.98-3.85-8.27-3.85-2.04,0-3.85.45-5.45,1.34-1.6.89-2.84,2.14-3.74,3.74s-1.34,3.42-1.34,5.45.45,3.85,1.34,5.45c.89,1.6,2.14,2.84,3.74,3.74,1.6.89,3.41,1.34,5.45,1.34,3.29,0,6.05-1.3,8.27-3.9l4.89,4.51c-1.57,1.91-3.51,3.37-5.83,4.37-2.32,1-4.9,1.5-7.75,1.5-3.35,0-6.38-.73-9.09-2.19Z"/>
    <path class="cls-3" d="M221.67,84.29c-2.74-1.47-4.89-3.5-6.44-6.09s-2.33-5.49-2.33-8.72.78-6.13,2.33-8.72,3.7-4.61,6.44-6.09c2.74-1.47,5.82-2.21,9.24-2.21s6.49.74,9.21,2.21,4.87,3.5,6.44,6.09c1.57,2.58,2.35,5.49,2.35,8.72s-.78,6.13-2.35,8.72c-1.57,2.58-3.71,4.61-6.44,6.09-2.73,1.47-5.8,2.21-9.21,2.21s-6.49-.74-9.24-2.21ZM236.17,78.67c1.57-.89,2.8-2.14,3.69-3.74.89-1.6,1.34-3.42,1.34-5.45s-.45-3.85-1.34-5.45c-.89-1.6-2.12-2.84-3.69-3.74-1.57-.89-3.32-1.34-5.26-1.34s-3.7.45-5.26,1.34c-1.57.89-2.8,2.14-3.69,3.74-.89,1.6-1.34,3.42-1.34,5.45s.45,3.85,1.34,5.45c.89,1.6,2.12,2.84,3.69,3.74s3.32,1.34,5.26,1.34,3.7-.45,5.26-1.34Z"/>
    <path class="cls-3" d="M284.81,53.03v32.9h-6.25l-16.4-19.98v19.98h-7.52v-32.9h6.3l16.36,19.98v-19.98h7.52Z"/>
    <path class="cls-3" d="M299.43,59.24h-10.53v-6.2h28.67v6.2h-10.53v26.7h-7.61v-26.7Z"/>
    <path class="cls-3" d="M341.68,78.88h-15.27l-2.91,7.05h-7.8l14.66-32.9h7.52l14.71,32.9h-7.99l-2.91-7.05ZM339.28,73.1l-5.22-12.6-5.22,12.6h10.43ZM336.18,43.58h7.9l-8.51,6.77h-5.73l6.35-6.77Z"/>
    <path class="cls-3" d="M362.2,84.31c-2.71-1.46-4.84-3.48-6.39-6.06-1.55-2.58-2.33-5.51-2.33-8.77s.78-6.18,2.33-8.77c1.55-2.58,3.68-4.61,6.39-6.06,2.71-1.46,5.76-2.19,9.14-2.19,2.85,0,5.43.5,7.73,1.5s4.24,2.44,5.8,4.32l-4.89,4.51c-2.22-2.57-4.98-3.85-8.27-3.85-2.04,0-3.85.45-5.45,1.34-1.6.89-2.84,2.14-3.74,3.74s-1.34,3.42-1.34,5.45.45,3.85,1.34,5.45c.89,1.6,2.14,2.84,3.74,3.74,1.6.89,3.41,1.34,5.45,1.34,3.29,0,6.05-1.3,8.27-3.9l4.89,4.51c-1.57,1.91-3.51,3.37-5.83,4.37-2.32,1-4.9,1.5-7.75,1.5-3.35,0-6.38-.73-9.09-2.19Z"/>
    <path class="cls-3" d="M396.48,59.24h-10.53v-6.2h28.67v6.2h-10.53v26.7h-7.61v-26.7Z"/>
    <path class="cls-3" d="M438.74,78.88h-15.27l-2.91,7.05h-7.8l14.66-32.9h7.52l14.71,32.9h-7.99l-2.91-7.05ZM436.34,73.1l-5.22-12.6-5.22,12.6h10.43Z"/>
    <path class="cls-3" d="M483.25,53.03v32.9h-6.25l-16.4-19.98v19.98h-7.52v-32.9h6.3l16.36,19.98v-19.98h7.52Z"/>
    <path class="cls-3" d="M497.75,84.29c-2.74-1.47-4.89-3.5-6.44-6.09s-2.33-5.49-2.33-8.72.78-6.13,2.33-8.72,3.7-4.61,6.44-6.09c2.74-1.47,5.82-2.21,9.23-2.21s6.49.74,9.21,2.21,4.87,3.5,6.44,6.09c1.57,2.58,2.35,5.49,2.35,8.72s-.78,6.13-2.35,8.72c-1.57,2.58-3.71,4.61-6.44,6.09-2.73,1.47-5.8,2.21-9.21,2.21s-6.49-.74-9.23-2.21ZM512.24,78.67c1.57-.89,2.8-2.14,3.69-3.74.89-1.6,1.34-3.42,1.34-5.45s-.45-3.85-1.34-5.45c-.89-1.6-2.12-2.84-3.69-3.74-1.57-.89-3.32-1.34-5.26-1.34s-3.7.45-5.26,1.34c-1.57.89-2.8,2.14-3.69,3.74s-1.34,3.42-1.34,5.45.45,3.85,1.34,5.45c.89,1.6,2.12,2.84,3.69,3.74s3.32,1.34,5.26,1.34,3.7-.45,5.26-1.34Z"/>
    <path class="cls-3" d="M533.98,85.44c-2.43-.71-4.38-1.62-5.85-2.75l2.59-5.73c1.41,1.03,3.09,1.87,5.03,2.49,1.94.63,3.88.94,5.83.94,2.16,0,3.76-.32,4.79-.96,1.03-.64,1.55-1.5,1.55-2.56,0-.78-.3-1.43-.92-1.95-.61-.52-1.39-.93-2.35-1.25-.96-.31-2.25-.66-3.88-1.03-2.51-.6-4.56-1.19-6.16-1.79-1.6-.59-2.97-1.55-4.11-2.87-1.14-1.32-1.71-3.07-1.71-5.26,0-1.91.52-3.64,1.55-5.19,1.03-1.55,2.59-2.78,4.68-3.69,2.08-.91,4.63-1.36,7.64-1.36,2.1,0,4.15.25,6.16.75s3.76,1.22,5.26,2.16l-2.35,5.78c-3.04-1.72-6.08-2.58-9.12-2.58-2.13,0-3.71.35-4.72,1.03-1.02.69-1.53,1.6-1.53,2.73s.59,1.97,1.76,2.51c1.17.55,2.97,1.09,5.38,1.62,2.51.6,4.56,1.19,6.16,1.79,1.6.59,2.97,1.54,4.11,2.82,1.14,1.29,1.71,3.02,1.71,5.22,0,1.88-.53,3.59-1.57,5.15-1.05,1.55-2.62,2.78-4.72,3.69-2.1.91-4.65,1.36-7.66,1.36-2.6,0-5.12-.35-7.54-1.06Z"/>
  </g>
</svg>