<?xml version="1.0" encoding="UTF-8"?>
<svg id="Layer_1" data-name="Layer 1" xmlns="http://www.w3.org/2000/svg" viewBox="0 0 390.23 403.78">
  <defs>
    <style>
      .cls-1 {
        fill: #50493f;
      }

      .cls-1, .cls-2, .cls-3 {
        stroke-width: 0px;
      }

      .cls-2 {
        fill: #dd5b19;
      }

      .cls-3 {
        fill: #fff;
      }
    </style>
  </defs>
  <g>
    <g>
      <path class="cls-1" d="M75.1,222.41v2.55h-12.29v-16.39h11.97v2.55h-8.92v4.26h7.92v2.5h-7.92v4.52h9.25Z"/>
      <path class="cls-1" d="M78.21,207.59h2.93v17.38h-2.93v-17.38Z"/>
      <path class="cls-1" d="M103.15,219.65h-9.81c.17.92.62,1.65,1.35,2.19.73.54,1.63.81,2.7.81,1.37,0,2.51-.45,3.4-1.36l1.57,1.8c-.56.67-1.27,1.18-2.13,1.52-.86.34-1.83.52-2.9.52-1.37,0-2.58-.27-3.63-.82-1.05-.55-1.85-1.31-2.42-2.28-.57-.98-.85-2.08-.85-3.31s.28-2.31.83-3.29c.55-.98,1.32-1.74,2.31-2.28.98-.55,2.09-.82,3.32-.82s2.31.27,3.27.81c.96.54,1.71,1.3,2.25,2.27s.81,2.1.81,3.38c0,.2-.02.49-.05.87ZM94.5,215.49c-.65.55-1.04,1.29-1.18,2.21h7.1c-.12-.91-.51-1.64-1.15-2.2-.64-.56-1.44-.84-2.39-.84s-1.73.28-2.38.83Z"/>
      <path class="cls-1" d="M118.23,212.46v17.05h-2.93v-6.07c-.98,1.12-2.32,1.69-4,1.69-1.22,0-2.31-.27-3.27-.8-.96-.53-1.71-1.28-2.25-2.25s-.81-2.09-.81-3.37.27-2.38.82-3.35c.55-.97,1.3-1.72,2.25-2.25.95-.53,2.04-.8,3.25-.8.86,0,1.64.15,2.35.44.71.3,1.31.74,1.79,1.33v-1.64h2.79ZM114.29,221.55c.7-.72,1.05-1.66,1.05-2.83s-.35-2.12-1.05-2.83c-.7-.72-1.59-1.08-2.67-1.08s-1.96.36-2.66,1.08c-.69.72-1.04,1.66-1.04,2.83s.35,2.12,1.04,2.83c.69.72,1.58,1.08,2.66,1.08s1.97-.36,2.67-1.08Z"/>
      <path class="cls-1" d="M134.17,212.46v12.5h-2.79v-1.59c-.47.56-1.05,1-1.76,1.3-.7.3-1.46.46-2.27.46-1.67,0-2.99-.46-3.95-1.39s-1.44-2.31-1.44-4.13v-7.14h2.93v6.74c0,1.12.25,1.96.76,2.52.51.55,1.23.83,2.17.83,1.05,0,1.88-.32,2.49-.97.62-.65.93-1.58.93-2.8v-6.32h2.93Z"/>
      <path class="cls-1" d="M138.15,209.9c-.36-.34-.54-.75-.54-1.25s.18-.92.54-1.25c.36-.33.8-.5,1.33-.5s.98.16,1.33.48c.36.32.54.72.54,1.21,0,.52-.18.95-.53,1.3-.35.35-.8.53-1.35.53s-.98-.17-1.33-.5ZM138.01,212.46h2.93v12.5h-2.93v-12.5Z"/>
      <path class="cls-1" d="M154.98,213.12c.96.53,1.71,1.28,2.26,2.25.55.97.82,2.08.82,3.35s-.27,2.38-.82,3.36c-.55.98-1.3,1.73-2.26,2.26-.96.53-2.05.8-3.27.8-1.69,0-3.02-.56-4-1.69v6.07h-2.93v-17.05h2.79v1.64c.48-.59,1.08-1.04,1.79-1.33.71-.3,1.49-.44,2.35-.44,1.22,0,2.31.27,3.27.8ZM154.04,221.55c.69-.72,1.04-1.66,1.04-2.83s-.35-2.12-1.04-2.83c-.69-.72-1.58-1.08-2.66-1.08-.7,0-1.33.16-1.9.48s-1.01.78-1.33,1.37c-.33.59-.49,1.28-.49,2.06s.16,1.47.49,2.06c.33.59.77,1.05,1.33,1.37.56.32,1.19.48,1.9.48,1.08,0,1.96-.36,2.66-1.08Z"/>
      <path class="cls-1" d="M163.05,224.31c-1.01-.55-1.81-1.31-2.38-2.28-.57-.98-.85-2.08-.85-3.31s.28-2.33.85-3.3c.57-.97,1.36-1.72,2.38-2.27s2.15-.82,3.42-.82,2.43.27,3.44.82c1.01.55,1.81,1.3,2.38,2.27s.85,2.07.85,3.3-.29,2.34-.85,3.31-1.36,1.74-2.38,2.28c-1.02.55-2.16.82-3.44.82s-2.4-.27-3.42-.82ZM169.13,221.55c.7-.72,1.05-1.66,1.05-2.83s-.35-2.12-1.05-2.83c-.7-.72-1.59-1.08-2.67-1.08s-1.96.36-2.66,1.08c-.69.72-1.04,1.66-1.04,2.83s.35,2.12,1.04,2.83c.69.72,1.58,1.08,2.66,1.08s1.97-.36,2.67-1.08Z"/>
      <path class="cls-1" d="M183.3,224.73c-.97-.26-1.74-.6-2.32-1.01l1.12-2.22c.56.38,1.24.68,2.03.9.79.23,1.56.34,2.33.34,1.75,0,2.62-.46,2.62-1.38,0-.44-.22-.74-.67-.91-.44-.17-1.16-.33-2.14-.49-1.03-.16-1.87-.34-2.52-.54-.65-.2-1.21-.56-1.69-1.07-.48-.51-.71-1.21-.71-2.12,0-1.19.5-2.13,1.49-2.84.99-.71,2.33-1.07,4.02-1.07.86,0,1.72.1,2.58.29.86.2,1.56.46,2.11.79l-1.12,2.22c-1.06-.62-2.26-.94-3.58-.94-.86,0-1.51.13-1.96.39s-.67.6-.67,1.02c0,.47.24.8.71,1,.48.2,1.21.38,2.21.55,1,.16,1.82.34,2.46.54.64.2,1.19.55,1.65,1.03.46.48.69,1.17.69,2.06,0,1.17-.51,2.11-1.52,2.81-1.02.7-2.4,1.05-4.15,1.05-1.01,0-2.01-.13-2.97-.4Z"/>
      <path class="cls-1" d="M206.18,219.65h-9.81c.17.92.62,1.65,1.35,2.19.73.54,1.63.81,2.7.81,1.37,0,2.51-.45,3.4-1.36l1.57,1.8c-.56.67-1.27,1.18-2.13,1.52-.86.34-1.83.52-2.9.52-1.37,0-2.58-.27-3.63-.82-1.05-.55-1.85-1.31-2.42-2.28-.57-.98-.85-2.08-.85-3.31s.28-2.31.83-3.29c.55-.98,1.32-1.74,2.31-2.28.98-.55,2.09-.82,3.32-.82s2.31.27,3.27.81c.96.54,1.71,1.3,2.25,2.27s.81,2.1.81,3.38c0,.2-.02.49-.05.87ZM197.53,215.49c-.65.55-1.04,1.29-1.18,2.21h7.1c-.12-.91-.51-1.64-1.15-2.2-.64-.56-1.44-.84-2.39-.84s-1.73.28-2.38.83Z"/>
      <path class="cls-1" d="M221.01,212.5c.73-.29,1.56-.43,2.49-.43v4c-.41-.05-.74-.07-1.01-.07-.95,0-1.7.26-2.24.77-.54.51-.81,1.3-.81,2.36v5.83h-4.45v-12.69h4.24v1.52c.45-.58,1.04-1.01,1.77-1.3Z"/>
      <path class="cls-1" d="M238.12,219.74h-9.23c.19.66.55,1.16,1.09,1.51.54.35,1.21.53,2.03.53.61,0,1.14-.09,1.58-.26s.89-.45,1.35-.84l2.34,2.44c-1.23,1.37-3.04,2.06-5.41,2.06-1.48,0-2.79-.28-3.91-.84-1.12-.56-1.99-1.34-2.61-2.34s-.92-2.13-.92-3.4.3-2.37.9-3.36,1.43-1.77,2.49-2.33c1.06-.56,2.26-.84,3.58-.84s2.41.26,3.44.78c1.03.52,1.85,1.28,2.45,2.27s.9,2.17.9,3.52c0,.03-.02.4-.07,1.1ZM229.7,215.81c-.46.39-.75.92-.88,1.59h5.2c-.12-.67-.42-1.2-.88-1.59-.46-.39-1.03-.58-1.72-.58s-1.26.2-1.72.58Z"/>
      <path class="cls-1" d="M252.32,213.47c.96.94,1.44,2.35,1.44,4.24v7.26h-4.45v-6.53c0-1.73-.69-2.6-2.08-2.6-.77,0-1.38.25-1.84.75-.46.5-.69,1.25-.69,2.25v6.13h-4.45v-12.69h4.24v1.38c.5-.51,1.09-.91,1.78-1.18.69-.27,1.44-.41,2.25-.41,1.58,0,2.85.47,3.81,1.41Z"/>
      <path class="cls-1" d="M269.89,212.27v12.69h-4.24v-1.36c-.47.52-1.03.91-1.69,1.17-.66.27-1.35.4-2.08.4-1.64,0-2.95-.48-3.92-1.45-.98-.97-1.46-2.42-1.46-4.36v-7.09h4.45v6.37c0,.95.18,1.65.54,2.08.36.44.88.66,1.57.66s1.28-.25,1.72-.74.67-1.25.67-2.26v-6.11h4.45Z"/>
      <path class="cls-1" d="M285.65,219.74h-9.23c.19.66.55,1.16,1.09,1.51.54.35,1.21.53,2.03.53.61,0,1.14-.09,1.58-.26s.89-.45,1.35-.84l2.34,2.44c-1.23,1.37-3.04,2.06-5.41,2.06-1.48,0-2.79-.28-3.91-.84-1.12-.56-1.99-1.34-2.61-2.34s-.92-2.13-.92-3.4.3-2.37.9-3.36,1.43-1.77,2.49-2.33c1.06-.56,2.26-.84,3.58-.84s2.41.26,3.44.78c1.03.52,1.85,1.28,2.45,2.27s.9,2.17.9,3.52c0,.03-.02.4-.07,1.1ZM277.24,215.81c-.46.39-.75.92-.88,1.59h5.2c-.12-.67-.42-1.2-.88-1.59-.46-.39-1.03-.58-1.72-.58s-1.26.2-1.72.58Z"/>
      <path class="cls-1" d="M300.92,212.27l-5.25,12.69h-4.59l-5.22-12.69h4.57l3.04,7.75,3.21-7.75h4.24Z"/>
      <path class="cls-1" d="M311.86,213.5c1.11.96,1.66,2.43,1.66,4.41v7.05h-4.15v-1.64c-.64,1.23-1.89,1.85-3.75,1.85-.98,0-1.83-.17-2.55-.52-.72-.34-1.26-.81-1.63-1.39-.37-.59-.55-1.25-.55-2,0-1.2.46-2.13,1.38-2.8.92-.66,2.34-1,4.26-1h2.53c-.08-1.34-.98-2.01-2.69-2.01-.61,0-1.23.1-1.85.29-.62.2-1.16.46-1.59.81l-1.5-3.02c.7-.47,1.56-.83,2.56-1.09,1.01-.26,2.02-.39,3.03-.39,2.11,0,3.72.48,4.82,1.44ZM308.23,221.99c.39-.25.67-.62.84-1.1v-1.1h-1.92c-1.3,0-1.94.43-1.94,1.29,0,.39.15.7.44.94.3.23.7.35,1.22.35s.97-.12,1.36-.37Z"/>
      <path class="cls-1" d="M176.75,252.41c-1.03-.55-1.83-1.31-2.41-2.28-.58-.98-.87-2.08-.87-3.31s.29-2.33.87-3.3c.58-.97,1.38-1.72,2.4-2.27s2.19-.82,3.5-.82c1.23,0,2.31.25,3.24.75.93.5,1.63,1.22,2.1,2.15l-2.25,1.31c-.36-.58-.81-1.01-1.35-1.3s-1.13-.43-1.77-.43c-1.09,0-2,.36-2.72,1.07-.72.71-1.08,1.66-1.08,2.85s.35,2.13,1.07,2.84c.71.71,1.62,1.07,2.73,1.07.64,0,1.23-.14,1.77-.43s.99-.72,1.35-1.3l2.25,1.31c-.48.94-1.19,1.66-2.12,2.17-.93.51-2,.76-3.22.76-1.3,0-2.46-.27-3.49-.82Z"/>
      <path class="cls-1" d="M197.11,241.74c.98.88,1.46,2.21,1.46,3.99v7.33h-2.76v-1.52c-.36.55-.87.96-1.53,1.25-.66.29-1.46.43-2.4.43s-1.76-.16-2.46-.48c-.7-.32-1.25-.76-1.63-1.33-.38-.57-.57-1.21-.57-1.93,0-1.12.42-2.03,1.25-2.7.83-.68,2.15-1.02,3.95-1.02h3.23v-.19c0-.87-.26-1.55-.78-2.01-.52-.47-1.3-.7-2.33-.7-.7,0-1.39.11-2.07.33s-1.25.52-1.72.91l-1.15-2.13c.66-.5,1.44-.88,2.37-1.15.92-.26,1.9-.4,2.93-.4,1.84,0,3.25.44,4.23,1.32ZM194.44,250.59c.57-.33.97-.82,1.21-1.44v-1.45h-3.02c-1.69,0-2.53.55-2.53,1.66,0,.53.21.95.63,1.26.42.31,1.01.47,1.76.47s1.39-.17,1.96-.5Z"/>
      <path class="cls-1" d="M214.68,235.69v17.38h-2.81v-1.62c-.48.59-1.08,1.04-1.79,1.33-.71.3-1.49.45-2.35.45-1.2,0-2.28-.27-3.24-.8-.96-.53-1.71-1.28-2.26-2.26-.55-.98-.82-2.1-.82-3.36s.27-2.38.82-3.35c.55-.97,1.3-1.72,2.26-2.25.96-.53,2.04-.8,3.24-.8.83,0,1.58.14,2.27.42.69.28,1.27.7,1.76,1.26v-6.42h2.93ZM209.97,250.24c.56-.32,1.01-.78,1.33-1.37.33-.59.49-1.28.49-2.06s-.16-1.47-.49-2.06c-.33-.59-.77-1.05-1.33-1.37s-1.19-.48-1.9-.48-1.33.16-1.9.48-1.01.78-1.33,1.37c-.33.59-.49,1.28-.49,2.06s.16,1.47.49,2.06c.33.59.77,1.05,1.33,1.37.56.32,1.19.48,1.9.48s1.33-.16,1.9-.48Z"/>
      <path class="cls-1" d="M227.52,241.74c.98.88,1.46,2.21,1.46,3.99v7.33h-2.76v-1.52c-.36.55-.87.96-1.53,1.25-.66.29-1.46.43-2.4.43s-1.76-.16-2.46-.48c-.7-.32-1.25-.76-1.63-1.33-.38-.57-.57-1.21-.57-1.93,0-1.12.42-2.03,1.25-2.7.83-.68,2.15-1.02,3.95-1.02h3.23v-.19c0-.87-.26-1.55-.78-2.01-.52-.47-1.3-.7-2.33-.7-.7,0-1.39.11-2.07.33s-1.25.52-1.72.91l-1.15-2.13c.66-.5,1.44-.88,2.37-1.15.92-.26,1.9-.4,2.93-.4,1.84,0,3.25.44,4.23,1.32ZM224.85,250.59c.57-.33.97-.82,1.21-1.44v-1.45h-3.02c-1.69,0-2.53.55-2.53,1.66,0,.53.21.95.63,1.26.42.31,1.01.47,1.76.47s1.39-.17,1.96-.5Z"/>
      <path class="cls-1" d="M248.75,244.99c.8.84,1.19,1.9,1.19,3.16,0,.95-.24,1.82-.73,2.6-.48.78-1.21,1.4-2.19,1.86-.98.46-2.17.69-3.57.69-1.17,0-2.3-.17-3.38-.5-1.09-.33-2.01-.8-2.77-1.39l1.31-2.37c.59.5,1.31.89,2.17,1.18.85.29,1.73.43,2.63.43,1.08,0,1.92-.22,2.54-.67.62-.45.92-1.05.92-1.82s-.29-1.36-.88-1.79c-.59-.43-1.48-.64-2.68-.64h-1.5v-2.08l3.72-4.43h-7.45v-2.55h11.17v2.04l-3.98,4.73c1.51.19,2.67.7,3.47,1.54Z"/>
      <path class="cls-1" d="M268.29,241.74c.98.88,1.46,2.21,1.46,3.99v7.33h-2.76v-1.52c-.36.55-.87.96-1.53,1.25-.66.29-1.46.43-2.4.43s-1.76-.16-2.46-.48c-.7-.32-1.25-.76-1.63-1.33-.38-.57-.57-1.21-.57-1.93,0-1.12.42-2.03,1.25-2.7.83-.68,2.15-1.02,3.95-1.02h3.23v-.19c0-.87-.26-1.55-.78-2.01-.52-.47-1.3-.7-2.33-.7-.7,0-1.39.11-2.07.33s-1.25.52-1.72.91l-1.15-2.13c.66-.5,1.44-.88,2.37-1.15.92-.26,1.9-.4,2.93-.4,1.84,0,3.25.44,4.23,1.32ZM265.62,250.59c.57-.33.97-.82,1.21-1.44v-1.45h-3.02c-1.69,0-2.53.55-2.53,1.66,0,.53.21.95.63,1.26.42.31,1.01.47,1.76.47s1.39-.17,1.96-.5Z"/>
      <path class="cls-1" d="M284.39,241.8c.95.92,1.43,2.29,1.43,4.1v7.17h-2.93v-6.79c0-1.09-.26-1.92-.77-2.47-.52-.55-1.25-.83-2.2-.83-1.08,0-1.93.32-2.55.97-.62.65-.94,1.58-.94,2.8v6.32h-2.93v-12.5h2.79v1.62c.48-.58,1.09-1.01,1.83-1.31.73-.3,1.56-.44,2.48-.44,1.58,0,2.84.46,3.79,1.38ZM280.33,238.62c-.29-.16-.64-.39-1.07-.7-.25-.2-.46-.36-.62-.46-.16-.1-.32-.15-.48-.15-.33,0-.6.13-.81.38-.21.25-.32.59-.34,1.03h-1.57c.02-.95.25-1.71.71-2.28.46-.57,1.07-.85,1.81-.85.39,0,.73.08,1.02.23s.64.39,1.07.7c.25.2.46.36.62.46.16.1.32.15.48.15.33,0,.6-.12.81-.35s.32-.56.34-.98h1.57c-.03.92-.27,1.66-.73,2.22-.45.56-1.05.84-1.8.84-.39,0-.73-.08-1.02-.23Z"/>
      <path class="cls-1" d="M291.86,252.41c-1.01-.55-1.81-1.31-2.38-2.28-.57-.98-.85-2.08-.85-3.31s.28-2.33.85-3.3c.57-.97,1.36-1.72,2.38-2.27s2.15-.82,3.42-.82,2.43.27,3.44.82c1.01.55,1.81,1.3,2.38,2.27s.85,2.07.85,3.3-.29,2.34-.85,3.31-1.36,1.74-2.38,2.28c-1.02.55-2.16.82-3.44.82s-2.4-.27-3.42-.82ZM297.95,249.65c.7-.72,1.05-1.66,1.05-2.83s-.35-2.12-1.05-2.83c-.7-.72-1.59-1.08-2.67-1.08s-1.96.36-2.66,1.08c-.69.72-1.04,1.66-1.04,2.83s.35,2.12,1.04,2.83c.69.72,1.58,1.08,2.66,1.08s1.97-.36,2.67-1.08Z"/>
      <path class="cls-1" d="M305.65,252.83c-.97-.26-1.74-.6-2.32-1.01l1.12-2.22c.56.38,1.24.68,2.03.9.79.23,1.56.34,2.33.34,1.75,0,2.62-.46,2.62-1.38,0-.44-.22-.74-.67-.91-.44-.17-1.16-.33-2.14-.49-1.03-.16-1.87-.34-2.52-.54-.65-.2-1.21-.56-1.69-1.07-.48-.51-.71-1.21-.71-2.12,0-1.19.5-2.13,1.49-2.84.99-.71,2.33-1.07,4.02-1.07.86,0,1.72.1,2.58.29.86.2,1.56.46,2.11.79l-1.12,2.22c-1.06-.62-2.26-.94-3.58-.94-.86,0-1.51.13-1.96.39s-.67.6-.67,1.02c0,.47.24.8.71,1,.48.2,1.21.38,2.21.55,1,.16,1.82.34,2.46.54.64.2,1.19.55,1.65,1.03.46.48.69,1.17.69,2.06,0,1.17-.51,2.11-1.52,2.81-1.02.7-2.4,1.05-4.15,1.05-1.01,0-2.01-.13-2.97-.4Z"/>
    </g>
    <g>
      <g>
        <path class="cls-2" d="M383.7,225.93c.91,2.61,1.54,5.35,1.72,8.18.13,2.82-.11,5.69-.76,8.51-.72,2.8-1.82,5.52-3.29,8.08-1.52,2.53-3.43,4.85-5.63,6.91-4.48,4.03-10.21,6.87-16.43,7.75-6.21.93-12.81-.06-18.67-2.88l4.89-8.7c3.75,2.59,8.39,4.1,13.19,4.12,1.2,0,2.4-.08,3.61-.25,1.21-.16,2.38-.5,3.58-.8,2.33-.75,4.64-1.75,6.73-3.16,2.07-1.43,4-3.13,5.65-5.13,1.61-2.02,2.96-4.28,4-6.71.98-2.46,1.61-5.07,1.89-7.77.23-2.7.03-5.44-.47-8.17Z"/>
        <polygon class="cls-2" points="356.53 250.9 330.43 243.17 336.78 269.64 356.53 250.9"/>
      </g>
      <g>
        <path class="cls-2" d="M329.89,238.4c-.88-2.55-1.54-5.24-1.71-8.01-.13-2.76.01-5.58.67-8.34.67-2.74,1.65-5.45,3.09-7.96,1.46-2.48,3.21-4.85,5.35-6.89,4.27-4.06,9.8-6.99,15.83-8.1,6.03-1.14,12.52-.47,18.39,2l-4.43,8.89c-3.8-2.36-8.39-3.64-13.09-3.49-4.71.12-9.47,1.71-13.52,4.52-2.04,1.41-3.82,3.18-5.43,5.14-1.58,1.98-2.82,4.24-3.82,6.63-.98,2.4-1.52,4.98-1.8,7.62-.24,2.64,0,5.33.47,8Z"/>
        <polygon class="cls-2" points="356.2 213.44 382.66 219.86 374.99 193.74 356.2 213.44"/>
      </g>
    </g>
  </g>
  <g>
    <path class="cls-2" d="M95.36,28.92c-1.93-1.02-3.44-2.45-4.54-4.27s-1.65-3.89-1.65-6.2.55-4.38,1.65-6.2,2.61-3.25,4.54-4.27c1.92-1.02,4.1-1.53,6.52-1.53,2.11,0,4.01.37,5.71,1.12,1.69.75,3.1,1.83,4.22,3.23l-4.16,3.76c-1.5-1.8-3.31-2.71-5.44-2.71-1.25,0-2.37.28-3.35.83-.98.55-1.74,1.33-2.28,2.33s-.81,2.15-.81,3.45.27,2.45.81,3.45,1.3,1.78,2.28,2.33c.98.55,2.1.83,3.35.83,2.13,0,3.95-.9,5.44-2.71l4.16,3.76c-1.12,1.41-2.53,2.49-4.22,3.23-1.69.75-3.6,1.12-5.71,1.12-2.42,0-4.59-.51-6.52-1.53Z"/>
    <path class="cls-2" d="M129.79,25.51h-9.77l-1.81,4.49h-6.67l10.2-23.1h6.44l10.23,23.1h-6.8l-1.81-4.49ZM126.16,0h6.27l-6.2,5.02h-4.49l4.42-5.02ZM127.88,20.69l-2.97-7.39-2.97,7.39h5.94Z"/>
    <path class="cls-2" d="M161.11,30l-.07-12.24-5.94,9.97h-2.9l-5.91-9.64v11.91h-6.04V6.9h5.38l8.12,13.33,7.92-13.33h5.38l.07,23.1h-6.01Z"/>
    <path class="cls-2" d="M187.21,25.51h-9.77l-1.81,4.49h-6.67l10.2-23.1h6.44l10.23,23.1h-6.8l-1.81-4.49ZM185.3,20.69l-2.97-7.39-2.97,7.39h5.94Z"/>
    <path class="cls-2" d="M207.77,23.86h-3.56v6.14h-6.53V6.9h10.56c2.09,0,3.9.35,5.45,1.04,1.54.69,2.73,1.68,3.56,2.97s1.25,2.8,1.25,4.54-.39,3.13-1.17,4.37c-.78,1.24-1.9,2.22-3.35,2.92l4.98,7.26h-7l-4.19-6.14ZM210.87,12.94c-.68-.59-1.69-.89-3.04-.89h-3.63v6.77h3.63c1.34,0,2.35-.29,3.04-.88s1.02-1.41,1.02-2.49-.34-1.91-1.02-2.51Z"/>
    <path class="cls-2" d="M237.57,25.51h-9.77l-1.81,4.49h-6.67l10.2-23.1h6.43l10.23,23.1h-6.8l-1.81-4.49ZM235.66,20.69l-2.97-7.39-2.97,7.39h5.94Z"/>
    <path class="cls-2" d="M250.7,29.77c-1.76-.46-3.19-1.08-4.29-1.85l2.14-4.82c1.03.68,2.23,1.23,3.6,1.65s2.71.63,4.03.63c2.51,0,3.76-.63,3.76-1.88,0-.66-.36-1.15-1.07-1.47-.71-.32-1.86-.65-3.45-1.01-1.74-.37-3.19-.78-4.36-1.21s-2.17-1.12-3-2.06c-.84-.95-1.25-2.22-1.25-3.83,0-1.41.38-2.68,1.16-3.81.77-1.13,1.92-2.03,3.45-2.69s3.4-.99,5.63-.99c1.52,0,3.01.17,4.49.51,1.47.34,2.77.84,3.89,1.5l-2.01,4.85c-2.2-1.19-4.33-1.78-6.4-1.78-1.3,0-2.24.19-2.84.58-.59.38-.89.89-.89,1.5s.35,1.08,1.06,1.39c.7.31,1.84.63,3.4.96,1.76.37,3.22.78,4.37,1.2,1.15.43,2.16,1.11,3,2.05.85.94,1.27,2.21,1.27,3.81,0,1.39-.39,2.64-1.16,3.76-.77,1.12-1.92,2.02-3.46,2.69-1.54.67-3.41,1.01-5.61,1.01-1.87,0-3.68-.23-5.44-.69Z"/>
  </g>
  <g>
    <g>
      <path class="cls-1" d="M18.59,330.98l-7.02,16.39h-4.57l-7-16.39h5.01l4.45,10.68,4.54-10.68h4.59Z"/>
      <path class="cls-1" d="M19.95,332.6c-.5-.45-.75-1.01-.75-1.69s.25-1.23.75-1.69c.5-.45,1.16-.68,1.97-.68s1.47.21,1.97.64c.5.43.75.98.75,1.65s-.25,1.28-.75,1.75c-.5.46-1.16.69-1.97.69s-1.47-.23-1.97-.68ZM19.69,334.68h4.45v12.69h-4.45v-12.69Z"/>
      <path class="cls-1" d="M28.5,347.22c-1.03-.24-1.86-.56-2.48-.95l1.33-3.04c.58.36,1.26.64,2.06.85s1.58.32,2.37.32c.72,0,1.23-.07,1.53-.22.3-.15.46-.36.46-.64s-.18-.48-.55-.6c-.37-.12-.95-.23-1.74-.34-1.01-.12-1.88-.29-2.59-.49-.71-.2-1.32-.58-1.84-1.12s-.77-1.31-.77-2.29c0-.81.24-1.53.73-2.17s1.19-1.13,2.12-1.5c.93-.37,2.04-.55,3.34-.55.92,0,1.83.09,2.74.28.91.19,1.66.45,2.27.8l-1.33,3.02c-1.12-.62-2.34-.94-3.65-.94-.7,0-1.22.08-1.55.25-.33.16-.49.38-.49.64,0,.3.18.5.54.62.36.12.95.24,1.78.36,1.05.16,1.91.34,2.6.54s1.28.57,1.79,1.11c.51.54.76,1.29.76,2.26,0,.8-.24,1.51-.73,2.14-.48.63-1.2,1.13-2.14,1.49-.94.36-2.08.54-3.41.54-1.06,0-2.11-.12-3.14-.36Z"/>
      <path class="cls-1" d="M53.18,334.68v12.69h-4.24v-1.36c-.47.52-1.03.91-1.69,1.17-.66.27-1.35.4-2.08.4-1.64,0-2.95-.48-3.92-1.45-.98-.97-1.46-2.42-1.46-4.36v-7.09h4.45v6.37c0,.95.18,1.65.54,2.08.36.44.88.66,1.57.66s1.28-.25,1.72-.74.67-1.25.67-2.26v-6.11h4.45Z"/>
      <path class="cls-1" d="M66.27,335.91c1.11.96,1.66,2.43,1.66,4.41v7.05h-4.15v-1.64c-.64,1.23-1.89,1.85-3.75,1.85-.98,0-1.83-.17-2.55-.52-.72-.34-1.26-.81-1.63-1.39-.37-.59-.55-1.25-.55-2,0-1.2.46-2.13,1.38-2.8.92-.66,2.34-1,4.26-1h2.53c-.08-1.34-.98-2.01-2.69-2.01-.61,0-1.23.1-1.85.29-.62.2-1.16.46-1.59.81l-1.5-3.02c.7-.47,1.56-.83,2.56-1.09,1.01-.26,2.02-.39,3.03-.39,2.11,0,3.72.48,4.82,1.44ZM62.64,344.4c.39-.25.67-.62.84-1.1v-1.1h-1.92c-1.3,0-1.94.43-1.94,1.29,0,.39.15.7.44.94.3.23.7.35,1.22.35s.97-.12,1.36-.37Z"/>
      <path class="cls-1" d="M70.74,330h4.45v17.38h-4.45v-17.38Z"/>
      <path class="cls-1" d="M78.33,332.6c-.5-.45-.75-1.01-.75-1.69s.25-1.23.75-1.69c.5-.45,1.16-.68,1.97-.68s1.47.21,1.97.64c.5.43.75.98.75,1.65s-.25,1.28-.75,1.75c-.5.46-1.16.69-1.97.69s-1.47-.23-1.97-.68ZM78.07,334.68h4.45v12.69h-4.45v-12.69Z"/>
      <path class="cls-1" d="M96.45,344.05v3.33h-11.71v-2.62l5.88-6.77h-5.71v-3.3h11.31v2.6l-5.88,6.77h6.11Z"/>
      <path class="cls-1" d="M108.65,335.91c1.11.96,1.66,2.43,1.66,4.41v7.05h-4.15v-1.64c-.64,1.23-1.89,1.85-3.75,1.85-.98,0-1.83-.17-2.55-.52-.72-.34-1.26-.81-1.63-1.39-.37-.59-.55-1.25-.55-2,0-1.2.46-2.13,1.38-2.8.92-.66,2.34-1,4.26-1h2.53c-.08-1.34-.98-2.01-2.69-2.01-.61,0-1.23.1-1.85.29-.62.2-1.16.46-1.59.81l-1.5-3.02c.7-.47,1.56-.83,2.56-1.09,1.01-.26,2.02-.39,3.03-.39,2.11,0,3.72.48,4.82,1.44ZM105.02,344.4c.39-.25.67-.62.84-1.1v-1.1h-1.92c-1.3,0-1.94.43-1.94,1.29,0,.39.15.7.44.94.3.23.7.35,1.22.35s.97-.12,1.36-.37Z"/>
      <path class="cls-1" d="M116.03,346.74c-1.11-.56-1.97-1.34-2.59-2.34s-.92-2.13-.92-3.4.31-2.39.92-3.38,1.48-1.76,2.59-2.32c1.11-.55,2.37-.83,3.77-.83s2.68.31,3.72.92c1.05.62,1.79,1.47,2.22,2.56l-3.44,1.76c-.58-1.14-1.42-1.71-2.53-1.71-.8,0-1.46.27-1.98.8-.52.53-.78,1.26-.78,2.2s.26,1.7.78,2.24c.52.54,1.18.81,1.98.81,1.11,0,1.95-.57,2.53-1.71l3.44,1.76c-.44,1.09-1.18,1.95-2.22,2.56-1.05.62-2.29.92-3.72.92s-2.66-.28-3.77-.84Z"/>
      <path class="cls-1" d="M127.69,332.6c-.5-.45-.75-1.01-.75-1.69s.25-1.23.75-1.69c.5-.45,1.16-.68,1.97-.68s1.47.21,1.97.64c.5.43.75.98.75,1.65s-.25,1.28-.75,1.75c-.5.46-1.16.69-1.97.69s-1.47-.23-1.97-.68ZM127.43,334.68h4.45v12.69h-4.45v-12.69Z"/>
      <path class="cls-1" d="M137.45,346.74c-1.09-.56-1.95-1.34-2.56-2.34s-.92-2.13-.92-3.4.31-2.37.92-3.37,1.47-1.78,2.55-2.33c1.08-.55,2.31-.83,3.69-.83s2.61.28,3.7.83c1.09.55,1.94,1.33,2.55,2.32s.91,2.12.91,3.38-.3,2.4-.91,3.4-1.46,1.78-2.55,2.34c-1.09.56-2.33.84-3.7.84s-2.58-.28-3.68-.84ZM143.05,343.24c.5-.54.75-1.28.75-2.24s-.25-1.67-.75-2.2c-.5-.53-1.14-.8-1.92-.8s-1.42.27-1.92.8c-.5.53-.75,1.26-.75,2.2s.25,1.7.75,2.24c.5.54,1.14.81,1.92.81s1.42-.27,1.92-.81ZM141.92,329.6h4.45l-4.4,3.56h-3.18l3.14-3.56Z"/>
      <path class="cls-1" d="M162.43,335.88c.96.94,1.44,2.35,1.44,4.24v7.26h-4.45v-6.53c0-1.73-.69-2.6-2.08-2.6-.77,0-1.38.25-1.84.75-.46.5-.69,1.25-.69,2.25v6.13h-4.45v-12.69h4.24v1.38c.5-.51,1.09-.91,1.78-1.18.69-.27,1.44-.41,2.25-.41,1.58,0,2.85.47,3.81,1.41Z"/>
      <path class="cls-1" d="M186.2,330v17.38h-2.81v-1.62c-.48.59-1.08,1.04-1.79,1.33-.71.3-1.49.45-2.35.45-1.2,0-2.28-.27-3.24-.8-.96-.53-1.71-1.28-2.26-2.26-.55-.98-.82-2.1-.82-3.36s.27-2.38.82-3.35c.55-.97,1.3-1.72,2.26-2.25.96-.53,2.04-.8,3.24-.8.83,0,1.58.14,2.27.42.69.28,1.27.7,1.76,1.26v-6.42h2.93ZM181.5,344.55c.56-.32,1.01-.78,1.33-1.37.33-.59.49-1.28.49-2.06s-.16-1.47-.49-2.06c-.33-.59-.77-1.05-1.33-1.37s-1.19-.48-1.9-.48-1.33.16-1.9.48-1.01.78-1.33,1.37c-.33.59-.49,1.28-.49,2.06s.16,1.47.49,2.06c.33.59.77,1.05,1.33,1.37.56.32,1.19.48,1.9.48s1.33-.16,1.9-.48Z"/>
      <path class="cls-1" d="M201.75,342.06h-9.81c.17.92.62,1.65,1.35,2.19.73.54,1.63.81,2.7.81,1.37,0,2.51-.45,3.4-1.36l1.57,1.8c-.56.67-1.27,1.18-2.13,1.52-.86.34-1.83.52-2.9.52-1.37,0-2.58-.27-3.63-.82-1.05-.55-1.85-1.31-2.42-2.28-.57-.98-.85-2.08-.85-3.31s.28-2.31.83-3.29c.55-.98,1.32-1.74,2.31-2.28.98-.55,2.09-.82,3.32-.82s2.31.27,3.27.81c.96.54,1.71,1.3,2.25,2.27s.81,2.1.81,3.38c0,.2-.02.49-.05.87ZM193.1,337.9c-.65.55-1.04,1.29-1.18,2.21h7.1c-.12-.91-.51-1.64-1.15-2.2-.64-.56-1.44-.84-2.39-.84s-1.73.28-2.38.83Z"/>
      <path class="cls-1" d="M213.3,346.74c-1.11-.56-1.97-1.34-2.59-2.34s-.92-2.13-.92-3.4.31-2.39.92-3.38,1.48-1.76,2.59-2.32c1.11-.55,2.37-.83,3.77-.83s2.68.31,3.72.92c1.05.62,1.79,1.47,2.22,2.56l-3.44,1.76c-.58-1.14-1.42-1.71-2.53-1.71-.8,0-1.46.27-1.98.8-.52.53-.78,1.26-.78,2.2s.26,1.7.78,2.24c.52.54,1.18.81,1.98.81,1.11,0,1.95-.57,2.53-1.71l3.44,1.76c-.44,1.09-1.18,1.95-2.22,2.56-1.05.62-2.29.92-3.72.92s-2.66-.28-3.77-.84Z"/>
      <path class="cls-1" d="M234.93,335.91c1.11.96,1.66,2.43,1.66,4.41v7.05h-4.15v-1.64c-.64,1.23-1.89,1.85-3.75,1.85-.98,0-1.83-.17-2.55-.52-.72-.34-1.26-.81-1.63-1.39-.37-.59-.55-1.25-.55-2,0-1.2.46-2.13,1.38-2.8.92-.66,2.34-1,4.26-1h2.53c-.08-1.34-.98-2.01-2.69-2.01-.61,0-1.23.1-1.85.29-.62.2-1.16.46-1.59.81l-1.5-3.02c.7-.47,1.56-.83,2.56-1.09,1.01-.26,2.02-.39,3.03-.39,2.11,0,3.72.48,4.82,1.44ZM231.3,344.4c.39-.25.67-.62.84-1.1v-1.1h-1.92c-1.3,0-1.94.43-1.94,1.29,0,.39.15.7.44.94.3.23.7.35,1.22.35s.97-.12,1.36-.37ZM231.44,329.6h4.45l-4.4,3.56h-3.18l3.14-3.56Z"/>
      <path class="cls-1" d="M259.67,335.88c.93.94,1.39,2.35,1.39,4.24v7.26h-4.45v-6.53c0-.89-.17-1.55-.5-1.97-.34-.42-.81-.63-1.42-.63-.67,0-1.21.23-1.62.7-.41.47-.61,1.18-.61,2.13v6.3h-4.45v-6.53c0-1.73-.64-2.6-1.92-2.6-.69,0-1.23.23-1.64.7-.41.47-.61,1.18-.61,2.13v6.3h-4.45v-12.69h4.24v1.33c.47-.51,1.03-.9,1.67-1.16.65-.26,1.35-.39,2.12-.39.89,0,1.69.16,2.39.49.7.33,1.27.83,1.71,1.5.5-.64,1.13-1.13,1.9-1.48.76-.34,1.6-.51,2.51-.51,1.56,0,2.81.47,3.73,1.41Z"/>
      <path class="cls-1" d="M274.11,335.91c1.11.96,1.66,2.43,1.66,4.41v7.05h-4.15v-1.64c-.64,1.23-1.89,1.85-3.75,1.85-.98,0-1.83-.17-2.55-.52-.72-.34-1.26-.81-1.63-1.39-.37-.59-.55-1.25-.55-2,0-1.2.46-2.13,1.38-2.8.92-.66,2.34-1,4.26-1h2.53c-.08-1.34-.98-2.01-2.69-2.01-.61,0-1.23.1-1.85.29-.62.2-1.16.46-1.59.81l-1.5-3.02c.7-.47,1.56-.83,2.56-1.09,1.01-.26,2.02-.39,3.03-.39,2.11,0,3.72.48,4.82,1.44ZM270.48,344.4c.39-.25.67-.62.84-1.1v-1.1h-1.92c-1.3,0-1.94.43-1.94,1.29,0,.39.15.7.44.94.3.23.7.35,1.22.35s.97-.12,1.36-.37Z"/>
      <path class="cls-1" d="M284.59,334.9c.73-.29,1.56-.43,2.49-.43v4c-.41-.05-.74-.07-1.01-.07-.95,0-1.7.26-2.24.77-.54.51-.81,1.3-.81,2.36v5.83h-4.45v-12.69h4.24v1.52c.45-.58,1.04-1.01,1.77-1.3Z"/>
      <path class="cls-1" d="M299.05,335.91c1.11.96,1.66,2.43,1.66,4.41v7.05h-4.15v-1.64c-.64,1.23-1.89,1.85-3.75,1.85-.98,0-1.83-.17-2.55-.52-.72-.34-1.26-.81-1.63-1.39-.37-.59-.55-1.25-.55-2,0-1.2.46-2.13,1.38-2.8.92-.66,2.34-1,4.26-1h2.53c-.08-1.34-.98-2.01-2.69-2.01-.61,0-1.23.1-1.85.29-.62.2-1.16.46-1.59.81l-1.5-3.02c.7-.47,1.56-.83,2.56-1.09,1.01-.26,2.02-.39,3.03-.39,2.11,0,3.72.48,4.82,1.44ZM295.42,344.4c.39-.25.67-.62.84-1.1v-1.1h-1.92c-1.3,0-1.94.43-1.94,1.29,0,.39.15.7.44.94.3.23.7.35,1.22.35s.97-.12,1.36-.37Z"/>
      <path class="cls-1" d="M305,347.22c-1.03-.24-1.86-.56-2.48-.95l1.33-3.04c.58.36,1.26.64,2.06.85s1.58.32,2.37.32c.72,0,1.23-.07,1.53-.22.3-.15.46-.36.46-.64s-.18-.48-.55-.6c-.37-.12-.95-.23-1.74-.34-1.01-.12-1.88-.29-2.59-.49-.71-.2-1.32-.58-1.84-1.12s-.77-1.31-.77-2.29c0-.81.24-1.53.73-2.17s1.19-1.13,2.12-1.5c.93-.37,2.04-.55,3.34-.55.92,0,1.83.09,2.74.28.91.19,1.66.45,2.27.8l-1.33,3.02c-1.12-.62-2.34-.94-3.65-.94-.7,0-1.22.08-1.55.25-.33.16-.49.38-.49.64,0,.3.18.5.54.62.36.12.95.24,1.78.36,1.05.16,1.91.34,2.6.54s1.28.57,1.79,1.11c.51.54.76,1.29.76,2.26,0,.8-.24,1.51-.73,2.14-.48.63-1.2,1.13-2.14,1.49-.94.36-2.08.54-3.41.54-1.06,0-2.11-.12-3.14-.36Z"/>
      <path class="cls-1" d="M84.04,358.1v17.38h-2.81v-1.62c-.48.59-1.08,1.04-1.79,1.33-.71.3-1.49.45-2.35.45-1.2,0-2.28-.27-3.24-.8-.96-.53-1.71-1.28-2.26-2.26-.55-.98-.82-2.1-.82-3.36s.27-2.38.82-3.35c.55-.97,1.3-1.72,2.26-2.25.96-.53,2.04-.8,3.24-.8.83,0,1.58.14,2.27.42.69.28,1.27.7,1.76,1.26v-6.42h2.93ZM79.33,372.65c.56-.32,1.01-.78,1.33-1.37.33-.59.49-1.28.49-2.06s-.16-1.47-.49-2.06c-.33-.59-.77-1.05-1.33-1.37s-1.19-.48-1.9-.48-1.33.16-1.9.48-1.01.78-1.33,1.37c-.33.59-.49,1.28-.49,2.06s.16,1.47.49,2.06c.33.59.77,1.05,1.33,1.37.56.32,1.19.48,1.9.48s1.33-.16,1.9-.48Z"/>
      <path class="cls-1" d="M99.59,370.16h-9.81c.17.92.62,1.65,1.35,2.19.73.54,1.63.81,2.7.81,1.37,0,2.51-.45,3.4-1.36l1.57,1.8c-.56.67-1.27,1.18-2.13,1.52-.86.34-1.83.52-2.9.52-1.37,0-2.58-.27-3.63-.82-1.05-.55-1.85-1.31-2.42-2.28-.57-.98-.85-2.08-.85-3.31s.28-2.31.83-3.29c.55-.98,1.32-1.74,2.31-2.28.98-.55,2.09-.82,3.32-.82s2.31.27,3.27.81c.96.54,1.71,1.3,2.25,2.27s.81,2.1.81,3.38c0,.2-.02.49-.05.87ZM90.94,366c-.65.55-1.04,1.29-1.18,2.21h7.1c-.12-.91-.51-1.64-1.15-2.2-.64-.56-1.44-.84-2.39-.84s-1.73.28-2.38.83Z"/>
      <path class="cls-1" d="M103.34,375.24c-.97-.26-1.74-.6-2.32-1.01l1.12-2.22c.56.38,1.24.68,2.03.9.79.23,1.56.34,2.33.34,1.75,0,2.62-.46,2.62-1.38,0-.44-.22-.74-.67-.91-.44-.17-1.16-.33-2.14-.49-1.03-.16-1.87-.34-2.52-.54-.65-.2-1.21-.56-1.69-1.07-.48-.51-.71-1.21-.71-2.12,0-1.19.5-2.13,1.49-2.84.99-.71,2.33-1.07,4.02-1.07.86,0,1.72.1,2.58.29.86.2,1.56.46,2.11.79l-1.12,2.22c-1.06-.62-2.26-.94-3.58-.94-.86,0-1.51.13-1.96.39s-.67.6-.67,1.02c0,.47.24.8.71,1,.48.2,1.21.38,2.21.55,1,.16,1.82.34,2.46.54.64.2,1.19.55,1.65,1.03.46.48.69,1.17.69,2.06,0,1.17-.51,2.11-1.52,2.81-1.02.7-2.4,1.05-4.15,1.05-1.01,0-2.01-.13-2.97-.4Z"/>
      <path class="cls-1" d="M126.75,358.1v17.38h-2.81v-1.62c-.48.59-1.08,1.04-1.79,1.33-.71.3-1.49.45-2.35.45-1.2,0-2.28-.27-3.24-.8-.96-.53-1.71-1.28-2.26-2.26-.55-.98-.82-2.1-.82-3.36s.27-2.38.82-3.35c.55-.97,1.3-1.72,2.26-2.25.96-.53,2.04-.8,3.24-.8.83,0,1.58.14,2.27.42.69.28,1.27.7,1.76,1.26v-6.42h2.93ZM122.05,372.65c.56-.32,1.01-.78,1.33-1.37.33-.59.49-1.28.49-2.06s-.16-1.47-.49-2.06c-.33-.59-.77-1.05-1.33-1.37s-1.19-.48-1.9-.48-1.33.16-1.9.48-1.01.78-1.33,1.37c-.33.59-.49,1.28-.49,2.06s.16,1.47.49,2.06c.33.59.77,1.05,1.33,1.37.56.32,1.19.48,1.9.48s1.33-.16,1.9-.48Z"/>
      <path class="cls-1" d="M142.3,370.16h-9.81c.17.92.62,1.65,1.35,2.19.73.54,1.63.81,2.7.81,1.37,0,2.51-.45,3.4-1.36l1.57,1.8c-.56.67-1.27,1.18-2.13,1.52-.86.34-1.83.52-2.9.52-1.37,0-2.58-.27-3.63-.82-1.05-.55-1.85-1.31-2.42-2.28-.57-.98-.85-2.08-.85-3.31s.28-2.31.83-3.29c.55-.98,1.32-1.74,2.31-2.28.98-.55,2.09-.82,3.32-.82s2.31.27,3.27.81c.96.54,1.71,1.3,2.25,2.27s.81,2.1.81,3.38c0,.2-.02.49-.05.87ZM133.65,366c-.65.55-1.04,1.29-1.18,2.21h7.1c-.12-.91-.51-1.64-1.15-2.2-.64-.56-1.44-.84-2.39-.84s-1.73.28-2.38.83Z"/>
      <path class="cls-1" d="M151.62,358.1h2.93v17.38h-2.93v-17.38Z"/>
      <path class="cls-1" d="M167.39,364.15c.98.88,1.46,2.21,1.46,3.99v7.33h-2.76v-1.52c-.36.55-.87.96-1.53,1.25-.66.29-1.46.43-2.4.43s-1.76-.16-2.46-.48c-.7-.32-1.25-.76-1.63-1.33-.38-.57-.57-1.21-.57-1.93,0-1.12.42-2.03,1.25-2.7.83-.68,2.15-1.02,3.95-1.02h3.23v-.19c0-.87-.26-1.55-.78-2.01-.52-.47-1.3-.7-2.33-.7-.7,0-1.39.11-2.07.33s-1.25.52-1.72.91l-1.15-2.13c.66-.5,1.44-.88,2.37-1.15.92-.26,1.9-.4,2.93-.4,1.84,0,3.25.44,4.23,1.32ZM164.72,373c.57-.33.97-.82,1.21-1.44v-1.45h-3.02c-1.69,0-2.53.55-2.53,1.66,0,.53.21.95.63,1.26.42.31,1.01.47,1.76.47s1.39-.17,1.96-.5Z"/>
      <path class="cls-1" d="M181.31,374.82c-1.03-.55-1.83-1.31-2.41-2.28-.58-.98-.87-2.08-.87-3.31s.29-2.33.87-3.3c.58-.97,1.38-1.72,2.4-2.27s2.19-.82,3.5-.82c1.23,0,2.31.25,3.24.75.93.5,1.63,1.22,2.1,2.15l-2.25,1.31c-.36-.58-.81-1.01-1.35-1.3s-1.13-.43-1.77-.43c-1.09,0-2,.36-2.72,1.07-.72.71-1.08,1.66-1.08,2.85s.35,2.13,1.07,2.84c.71.71,1.62,1.07,2.73,1.07.64,0,1.23-.14,1.77-.43s.99-.72,1.35-1.3l2.25,1.31c-.48.94-1.19,1.66-2.12,2.17-.93.51-2,.76-3.22.76-1.3,0-2.46-.27-3.49-.82Z"/>
      <path class="cls-1" d="M194.68,374.82c-1.01-.55-1.81-1.31-2.38-2.28-.57-.98-.85-2.08-.85-3.31s.28-2.33.85-3.3c.57-.97,1.36-1.72,2.38-2.27s2.15-.82,3.42-.82,2.43.27,3.44.82c1.01.55,1.81,1.3,2.38,2.27s.85,2.07.85,3.3-.29,2.34-.85,3.31-1.36,1.74-2.38,2.28c-1.02.55-2.16.82-3.44.82s-2.4-.27-3.42-.82ZM200.77,372.05c.7-.72,1.05-1.66,1.05-2.83s-.35-2.12-1.05-2.83c-.7-.72-1.59-1.08-2.67-1.08s-1.96.36-2.66,1.08c-.69.72-1.04,1.66-1.04,2.83s.35,2.12,1.04,2.83c.69.72,1.58,1.08,2.66,1.08s1.97-.36,2.67-1.08Z"/>
      <path class="cls-1" d="M227.11,364.2c.92.91,1.38,2.28,1.38,4.11v7.17h-2.93v-6.79c0-1.09-.24-1.92-.73-2.47-.48-.55-1.18-.83-2.08-.83-.98,0-1.77.32-2.37.97-.59.65-.89,1.57-.89,2.78v6.35h-2.93v-6.79c0-1.09-.24-1.92-.73-2.47-.48-.55-1.18-.83-2.08-.83-1,0-1.79.32-2.38.96-.58.64-.88,1.57-.88,2.79v6.35h-2.93v-12.5h2.79v1.59c.47-.56,1.05-.99,1.76-1.29.7-.3,1.48-.44,2.34-.44.94,0,1.77.17,2.49.53.73.35,1.3.87,1.72,1.56.52-.66,1.18-1.17,1.99-1.53.81-.37,1.71-.55,2.69-.55,1.58,0,2.83.46,3.75,1.37Z"/>
      <path class="cls-1" d="M234.56,374.82c-1.01-.55-1.81-1.31-2.38-2.28-.57-.98-.85-2.08-.85-3.31s.28-2.33.85-3.3c.57-.97,1.36-1.72,2.38-2.27s2.15-.82,3.42-.82,2.43.27,3.44.82c1.01.55,1.81,1.3,2.38,2.27s.85,2.07.85,3.3-.29,2.34-.85,3.31-1.36,1.74-2.38,2.28c-1.02.55-2.16.82-3.44.82s-2.4-.27-3.42-.82ZM240.65,372.05c.7-.72,1.05-1.66,1.05-2.83s-.35-2.12-1.05-2.83c-.7-.72-1.59-1.08-2.67-1.08s-1.96.36-2.66,1.08c-.69.72-1.04,1.66-1.04,2.83s.35,2.12,1.04,2.83c.69.72,1.58,1.08,2.66,1.08s1.97-.36,2.67-1.08Z"/>
      <path class="cls-1" d="M259.71,358.1v17.38h-2.81v-1.62c-.48.59-1.08,1.04-1.79,1.33-.71.3-1.49.45-2.35.45-1.2,0-2.28-.27-3.24-.8-.96-.53-1.71-1.28-2.26-2.26-.55-.98-.82-2.1-.82-3.36s.27-2.38.82-3.35c.55-.97,1.3-1.72,2.26-2.25.96-.53,2.04-.8,3.24-.8.83,0,1.58.14,2.27.42.69.28,1.27.7,1.76,1.26v-6.42h2.93ZM255,372.65c.56-.32,1.01-.78,1.33-1.37.33-.59.49-1.28.49-2.06s-.16-1.47-.49-2.06c-.33-.59-.77-1.05-1.33-1.37s-1.19-.48-1.9-.48-1.33.16-1.9.48-1.01.78-1.33,1.37c-.33.59-.49,1.28-.49,2.06s.16,1.47.49,2.06c.33.59.77,1.05,1.33,1.37.56.32,1.19.48,1.9.48s1.33-.16,1.9-.48Z"/>
      <path class="cls-1" d="M263.69,360.4c-.36-.34-.54-.75-.54-1.25s.18-.92.54-1.25c.36-.33.8-.5,1.33-.5s.98.16,1.33.48c.36.32.54.72.54,1.21,0,.52-.18.95-.53,1.3-.35.35-.8.53-1.35.53s-.98-.17-1.33-.5ZM263.55,362.97h2.93v12.5h-2.93v-12.5Z"/>
      <path class="cls-1" d="M282.56,358.1v17.38h-2.81v-1.62c-.48.59-1.08,1.04-1.79,1.33-.71.3-1.49.45-2.35.45-1.2,0-2.28-.27-3.24-.8-.96-.53-1.71-1.28-2.26-2.26-.55-.98-.82-2.1-.82-3.36s.27-2.38.82-3.35c.55-.97,1.3-1.72,2.26-2.25.96-.53,2.04-.8,3.24-.8.83,0,1.58.14,2.27.42.69.28,1.27.7,1.76,1.26v-6.42h2.93ZM277.86,372.65c.56-.32,1.01-.78,1.33-1.37.33-.59.49-1.28.49-2.06s-.16-1.47-.49-2.06c-.33-.59-.77-1.05-1.33-1.37s-1.19-.48-1.9-.48-1.33.16-1.9.48-1.01.78-1.33,1.37c-.33.59-.49,1.28-.49,2.06s.16,1.47.49,2.06c.33.59.77,1.05,1.33,1.37.56.32,1.19.48,1.9.48s1.33-.16,1.9-.48Z"/>
      <path class="cls-1" d="M295.41,364.15c.98.88,1.46,2.21,1.46,3.99v7.33h-2.76v-1.52c-.36.55-.87.96-1.53,1.25-.66.29-1.46.43-2.4.43s-1.76-.16-2.46-.48c-.7-.32-1.25-.76-1.63-1.33-.38-.57-.57-1.21-.57-1.93,0-1.12.42-2.03,1.25-2.7.83-.68,2.15-1.02,3.95-1.02h3.23v-.19c0-.87-.26-1.55-.78-2.01-.52-.47-1.3-.7-2.33-.7-.7,0-1.39.11-2.07.33s-1.25.52-1.72.91l-1.15-2.13c.66-.5,1.44-.88,2.37-1.15.92-.26,1.9-.4,2.93-.4,1.84,0,3.25.44,4.23,1.32ZM292.74,373c.57-.33.97-.82,1.21-1.44v-1.45h-3.02c-1.69,0-2.53.55-2.53,1.66,0,.53.21.95.63,1.26.42.31,1.01.47,1.76.47s1.39-.17,1.96-.5Z"/>
      <path class="cls-1" d="M312.98,358.1v17.38h-2.81v-1.62c-.48.59-1.08,1.04-1.79,1.33-.71.3-1.49.45-2.35.45-1.2,0-2.28-.27-3.24-.8-.96-.53-1.71-1.28-2.26-2.26-.55-.98-.82-2.1-.82-3.36s.27-2.38.82-3.35c.55-.97,1.3-1.72,2.26-2.25.96-.53,2.04-.8,3.24-.8.83,0,1.58.14,2.27.42.69.28,1.27.7,1.76,1.26v-6.42h2.93ZM308.27,372.65c.56-.32,1.01-.78,1.33-1.37.33-.59.49-1.28.49-2.06s-.16-1.47-.49-2.06c-.33-.59-.77-1.05-1.33-1.37s-1.19-.48-1.9-.48-1.33.16-1.9.48-1.01.78-1.33,1.37c-.33.59-.49,1.28-.49,2.06s.16,1.47.49,2.06c.33.59.77,1.05,1.33,1.37.56.32,1.19.48,1.9.48s1.33-.16,1.9-.48Z"/>
      <path class="cls-1" d="M174.66,386.2v17.38h-2.81v-1.62c-.48.59-1.08,1.04-1.79,1.33-.71.3-1.49.45-2.35.45-1.2,0-2.28-.27-3.24-.8-.96-.53-1.71-1.28-2.26-2.26-.55-.98-.82-2.1-.82-3.36s.27-2.38.82-3.35c.55-.97,1.3-1.72,2.26-2.25.96-.53,2.04-.8,3.24-.8.83,0,1.58.14,2.27.42.69.28,1.27.7,1.76,1.26v-6.42h2.93ZM169.95,400.75c.56-.32,1.01-.78,1.33-1.37.33-.59.49-1.28.49-2.06s-.16-1.47-.49-2.06c-.33-.59-.77-1.05-1.33-1.37s-1.19-.48-1.9-.48-1.33.16-1.9.48-1.01.78-1.33,1.37c-.33.59-.49,1.28-.49,2.06s.16,1.47.49,2.06c.33.59.77,1.05,1.33,1.37.56.32,1.19.48,1.9.48s1.33-.16,1.9-.48Z"/>
      <path class="cls-1" d="M190.21,398.26h-9.81c.17.92.62,1.65,1.35,2.19.73.54,1.63.81,2.7.81,1.37,0,2.51-.45,3.4-1.36l1.57,1.8c-.56.67-1.27,1.18-2.13,1.52-.86.34-1.83.52-2.9.52-1.37,0-2.58-.27-3.63-.82-1.05-.55-1.85-1.31-2.42-2.28-.57-.98-.85-2.08-.85-3.31s.28-2.31.83-3.29c.55-.98,1.32-1.74,2.31-2.28.98-.55,2.09-.82,3.32-.82s2.31.27,3.27.81c.96.54,1.71,1.3,2.25,2.27s.81,2.1.81,3.38c0,.2-.02.49-.05.87ZM181.56,394.1c-.65.55-1.04,1.29-1.18,2.21h7.1c-.12-.91-.51-1.64-1.15-2.2-.64-.56-1.44-.84-2.39-.84s-1.73.28-2.38.83Z"/>
      <path class="cls-1" d="M207.05,402.89c-.34.28-.76.49-1.25.63s-1.01.21-1.56.21c-1.37,0-2.44-.36-3.18-1.08-.75-.72-1.12-1.76-1.12-3.14v-6.02h-2.06v-2.34h2.06v-2.86h2.93v2.86h3.35v2.34h-3.35v5.95c0,.61.15,1.07.45,1.39.3.32.73.48,1.29.48.66,0,1.2-.17,1.64-.51l.82,2.08Z"/>
      <path class="cls-1" d="M221.56,391.07v12.5h-2.79v-1.59c-.47.56-1.05,1-1.76,1.3-.7.3-1.46.46-2.27.46-1.67,0-2.99-.46-3.95-1.39s-1.44-2.31-1.44-4.13v-7.14h2.93v6.74c0,1.12.25,1.96.76,2.52.51.55,1.23.83,2.17.83,1.05,0,1.88-.32,2.49-.97.62-.65.93-1.58.93-2.8v-6.32h2.93Z"/>
      <path class="cls-1" d="M234.09,402.94c-1.11-.56-1.97-1.34-2.59-2.34s-.92-2.13-.92-3.4.31-2.39.92-3.38,1.48-1.76,2.59-2.32c1.11-.55,2.37-.83,3.77-.83s2.68.31,3.72.92c1.05.62,1.79,1.47,2.22,2.56l-3.44,1.76c-.58-1.14-1.42-1.71-2.53-1.71-.8,0-1.46.27-1.98.8-.52.53-.78,1.26-.78,2.2s.26,1.7.78,2.24c.52.54,1.18.81,1.98.81,1.11,0,1.95-.57,2.53-1.71l3.44,1.76c-.44,1.09-1.18,1.95-2.22,2.56-1.05.62-2.29.92-3.72.92s-2.66-.28-3.77-.84Z"/>
      <path class="cls-1" d="M258.26,398.35h-9.23c.19.66.55,1.16,1.09,1.51.54.35,1.21.53,2.03.53.61,0,1.14-.09,1.58-.26s.89-.45,1.35-.84l2.34,2.44c-1.23,1.37-3.04,2.06-5.41,2.06-1.48,0-2.79-.28-3.91-.84-1.12-.56-1.99-1.34-2.61-2.34s-.92-2.13-.92-3.4.3-2.37.9-3.36,1.43-1.77,2.49-2.33c1.06-.56,2.26-.84,3.58-.84s2.41.26,3.44.78c1.03.52,1.85,1.28,2.45,2.27s.9,2.17.9,3.52c0,.03-.02.4-.07,1.1ZM249.84,394.42c-.46.39-.75.92-.88,1.59h5.2c-.12-.67-.42-1.2-.88-1.59-.46-.39-1.03-.58-1.72-.58s-1.26.2-1.72.58Z"/>
      <path class="cls-1" d="M260.39,386.2h4.45v17.38h-4.45v-17.38Z"/>
      <path class="cls-1" d="M281.06,390.88v12.69h-4.24v-1.36c-.47.52-1.03.91-1.69,1.17-.66.27-1.35.4-2.08.4-1.64,0-2.95-.48-3.92-1.45-.98-.97-1.46-2.42-1.46-4.36v-7.09h4.45v6.37c0,.95.18,1.65.54,2.08.36.44.88.66,1.57.66s1.28-.25,1.72-.74.67-1.25.67-2.26v-6.11h4.45Z"/>
      <path class="cls-1" d="M283.92,386.2h4.45v17.38h-4.45v-17.38Z"/>
      <path class="cls-1" d="M301.48,392.11c1.11.96,1.66,2.43,1.66,4.41v7.05h-4.15v-1.64c-.64,1.23-1.89,1.85-3.75,1.85-.98,0-1.83-.17-2.55-.52-.72-.34-1.26-.81-1.63-1.39-.37-.59-.55-1.25-.55-2,0-1.2.46-2.13,1.38-2.8.92-.66,2.34-1,4.26-1h2.53c-.08-1.34-.98-2.01-2.69-2.01-.61,0-1.23.1-1.85.29-.62.2-1.16.46-1.59.81l-1.5-3.02c.7-.47,1.56-.83,2.56-1.09,1.01-.26,2.02-.39,3.03-.39,2.11,0,3.72.48,4.82,1.44ZM297.85,400.6c.39-.25.67-.62.84-1.1v-1.1h-1.92c-1.3,0-1.94.43-1.94,1.29,0,.39.15.7.44.94.3.23.7.35,1.22.35s.97-.12,1.36-.37Z"/>
      <path class="cls-1" d="M311.96,391.1c.73-.29,1.56-.43,2.49-.43v4c-.41-.05-.74-.07-1.01-.07-.95,0-1.7.26-2.24.77-.54.51-.81,1.3-.81,2.36v5.83h-4.45v-12.69h4.24v1.52c.45-.58,1.04-1.01,1.77-1.3Z"/>
    </g>
    <g>
      <path class="cls-2" d="M373.46,337.27h-31.65c-1.21,0-2.19.98-2.19,2.19v58.39c0,1.21.98,2.19,2.19,2.19h31.65c1.21,0,2.19-.98,2.19-2.19v-58.39c0-1.21-.98-2.19-2.19-2.19ZM374.96,394.08c0,1.21-.98,2.19-2.19,2.19h-30.27c-1.21,0-2.19-.98-2.19-2.19v-51.08c0-1.21.98-2.18,2.19-2.18h30.27c1.21,0,2.19.97,2.19,2.18v51.08Z"/>
      <path class="cls-2" d="M374.13,344.12v48.84c0,1.2-.96,2.17-2.14,2.17h-28.7c-1.18,0-2.14-.97-2.14-2.17v-48.84c0-1.2.96-2.17,2.14-2.17h28.7c1.18,0,2.14.97,2.14,2.17Z"/>
      <circle class="cls-3" cx="358.02" cy="392.1" r="2.2"/>
      <circle class="cls-3" cx="358.02" cy="343.18" r=".51"/>
    </g>
  </g>
  <g>
    <g>
      <path class="cls-1" d="M38.46,108.15c-1.37-.73-2.44-1.74-3.22-3.03-.78-1.29-1.17-2.76-1.17-4.4s.39-3.11,1.17-4.4,1.85-2.31,3.22-3.03c1.37-.73,2.91-1.09,4.62-1.09,1.5,0,2.85.27,4.05.8,1.2.53,2.2,1.3,3,2.29l-2.95,2.67c-1.06-1.28-2.35-1.92-3.86-1.92-.89,0-1.68.2-2.38.58-.69.39-1.23.94-1.62,1.65-.38.71-.57,1.53-.57,2.45s.19,1.74.57,2.45c.38.71.92,1.26,1.62,1.65.69.39,1.49.58,2.38.58,1.51,0,2.8-.64,3.86-1.92l2.95,2.67c-.8,1-1.8,1.76-3,2.29-1.2.53-2.55.8-4.05.8-1.72,0-3.26-.36-4.62-1.09Z"/>
      <path class="cls-1" d="M62.17,97.45c1.11.96,1.66,2.43,1.66,4.41v7.05h-4.15v-1.64c-.64,1.23-1.89,1.85-3.75,1.85-.98,0-1.83-.17-2.55-.52-.72-.34-1.26-.81-1.63-1.39-.37-.59-.55-1.25-.55-2,0-1.2.46-2.13,1.38-2.8.92-.66,2.34-1,4.26-1h2.53c-.08-1.34-.98-2.01-2.69-2.01-.61,0-1.23.1-1.85.29-.62.2-1.16.46-1.59.81l-1.5-3.02c.7-.47,1.56-.83,2.56-1.09,1.01-.26,2.02-.39,3.03-.39,2.11,0,3.72.48,4.82,1.44ZM58.54,105.94c.39-.25.67-.62.84-1.1v-1.1h-1.92c-1.3,0-1.94.43-1.94,1.29,0,.39.15.7.44.94.3.23.7.35,1.22.35s.97-.12,1.36-.37Z"/>
      <path class="cls-1" d="M77.78,96.82c.94.54,1.69,1.3,2.25,2.29.55.99.83,2.14.83,3.45s-.28,2.46-.83,3.45c-.55.99-1.3,1.76-2.25,2.29-.94.54-1.99.81-3.15.81-1.48,0-2.66-.45-3.54-1.33v5.67h-4.45v-17.23h4.24v1.26c.83-.98,2.08-1.47,3.75-1.47,1.15,0,2.2.27,3.15.81ZM75.61,104.78c.5-.54.75-1.28.75-2.21s-.25-1.67-.75-2.21c-.5-.54-1.14-.81-1.92-.81s-1.42.27-1.92.81c-.5.54-.75,1.28-.75,2.21s.25,1.67.75,2.21c.5.54,1.14.81,1.92.81s1.42-.27,1.92-.81Z"/>
      <path class="cls-1" d="M92.87,97.45c1.11.96,1.66,2.43,1.66,4.41v7.05h-4.15v-1.64c-.64,1.23-1.89,1.85-3.75,1.85-.98,0-1.83-.17-2.55-.52-.72-.34-1.26-.81-1.63-1.39-.37-.59-.55-1.25-.55-2,0-1.2.46-2.13,1.38-2.8.92-.66,2.34-1,4.26-1h2.53c-.08-1.34-.98-2.01-2.69-2.01-.61,0-1.23.1-1.85.29-.62.2-1.16.46-1.59.81l-1.5-3.02c.7-.47,1.56-.83,2.56-1.09,1.01-.26,2.02-.39,3.03-.39,2.11,0,3.72.48,4.82,1.44ZM89.24,105.94c.39-.25.67-.62.84-1.1v-1.1h-1.92c-1.3,0-1.94.43-1.94,1.29,0,.39.15.7.44.94.3.23.7.35,1.22.35s.97-.12,1.36-.37Z"/>
      <path class="cls-1" d="M100.24,108.28c-1.11-.56-1.97-1.34-2.59-2.34s-.92-2.13-.92-3.4.31-2.39.92-3.38,1.48-1.76,2.59-2.32c1.11-.55,2.37-.83,3.77-.83s2.68.31,3.72.92c1.05.62,1.79,1.47,2.22,2.56l-3.44,1.76c-.58-1.14-1.42-1.71-2.53-1.71-.8,0-1.46.27-1.98.8-.52.53-.78,1.26-.78,2.2s.26,1.7.78,2.24c.52.54,1.18.81,1.98.81,1.11,0,1.95-.57,2.53-1.71l3.44,1.76c-.44,1.09-1.18,1.95-2.22,2.56-1.05.62-2.29.92-3.72.92s-2.66-.28-3.77-.84Z"/>
      <path class="cls-1" d="M111.91,94.14c-.5-.45-.75-1.01-.75-1.69s.25-1.23.75-1.69c.5-.45,1.16-.68,1.97-.68s1.47.21,1.97.64c.5.43.75.98.75,1.65s-.25,1.28-.75,1.75c-.5.46-1.16.69-1.97.69s-1.47-.23-1.97-.68ZM111.65,96.22h4.45v12.69h-4.45v-12.69Z"/>
      <path class="cls-1" d="M132.46,91.54v17.38h-4.24v-1.26c-.83.98-2.07,1.48-3.72,1.48-1.16,0-2.21-.27-3.16-.81-.95-.54-1.71-1.31-2.26-2.31s-.83-2.15-.83-3.47.28-2.46.83-3.45,1.31-1.75,2.26-2.28c.95-.53,2.01-.8,3.16-.8,1.51,0,2.69.44,3.51,1.31v-5.78h4.45ZM127.34,104.78c.5-.54.75-1.28.75-2.24s-.25-1.67-.74-2.2c-.49-.53-1.13-.8-1.91-.8s-1.42.27-1.92.8c-.5.53-.75,1.26-.75,2.2s.25,1.7.75,2.24c.5.54,1.14.81,1.92.81s1.4-.27,1.9-.81Z"/>
      <path class="cls-1" d="M145.55,97.45c1.11.96,1.66,2.43,1.66,4.41v7.05h-4.15v-1.64c-.64,1.23-1.89,1.85-3.75,1.85-.98,0-1.83-.17-2.55-.52-.72-.34-1.26-.81-1.63-1.39-.37-.59-.55-1.25-.55-2,0-1.2.46-2.13,1.38-2.8.92-.66,2.34-1,4.26-1h2.53c-.08-1.34-.98-2.01-2.69-2.01-.61,0-1.23.1-1.85.29-.62.2-1.16.46-1.59.81l-1.5-3.02c.7-.47,1.56-.83,2.56-1.09,1.01-.26,2.02-.39,3.03-.39,2.11,0,3.72.48,4.82,1.44ZM141.92,105.94c.39-.25.67-.62.84-1.1v-1.1h-1.92c-1.3,0-1.94.43-1.94,1.29,0,.39.15.7.44.94.3.23.7.35,1.22.35s.97-.12,1.36-.37Z"/>
      <path class="cls-1" d="M163.7,91.54v17.38h-4.24v-1.26c-.83.98-2.07,1.48-3.72,1.48-1.16,0-2.21-.27-3.16-.81-.95-.54-1.71-1.31-2.26-2.31s-.83-2.15-.83-3.47.28-2.46.83-3.45,1.31-1.75,2.26-2.28c.95-.53,2.01-.8,3.16-.8,1.51,0,2.69.44,3.51,1.31v-5.78h4.45ZM158.57,104.78c.5-.54.75-1.28.75-2.24s-.25-1.67-.74-2.2c-.49-.53-1.13-.8-1.91-.8s-1.42.27-1.92.8c-.5.53-.75,1.26-.75,2.2s.25,1.7.75,2.24c.5.54,1.14.81,1.92.81s1.4-.27,1.9-.81Z"/>
      <path class="cls-1" d="M184.06,97.06c.96.53,1.71,1.28,2.26,2.25.55.97.82,2.08.82,3.35s-.27,2.38-.82,3.36c-.55.98-1.3,1.73-2.26,2.26-.96.53-2.05.8-3.27.8-1.69,0-3.02-.56-4-1.69v6.07h-2.93v-17.05h2.79v1.64c.48-.59,1.08-1.04,1.79-1.33.71-.3,1.49-.44,2.35-.44,1.22,0,2.31.27,3.27.8ZM183.12,105.49c.69-.72,1.04-1.66,1.04-2.83s-.35-2.12-1.04-2.83c-.69-.72-1.58-1.08-2.66-1.08-.7,0-1.33.16-1.9.48s-1.01.78-1.33,1.37c-.33.59-.49,1.28-.49,2.06s.16,1.47.49,2.06c.33.59.77,1.05,1.33,1.37.56.32,1.19.48,1.9.48,1.08,0,1.96-.36,2.66-1.08Z"/>
      <path class="cls-1" d="M198.77,97.59c.98.88,1.46,2.21,1.46,3.99v7.33h-2.76v-1.52c-.36.55-.87.96-1.53,1.25-.66.29-1.46.43-2.4.43s-1.76-.16-2.46-.48c-.7-.32-1.25-.76-1.63-1.33-.38-.57-.57-1.21-.57-1.93,0-1.12.42-2.03,1.25-2.7.83-.68,2.15-1.02,3.95-1.02h3.23v-.19c0-.87-.26-1.55-.78-2.01-.52-.47-1.3-.7-2.33-.7-.7,0-1.39.11-2.07.33s-1.25.52-1.72.91l-1.15-2.13c.66-.5,1.44-.88,2.37-1.15.92-.26,1.9-.4,2.93-.4,1.84,0,3.25.44,4.23,1.32ZM196.1,106.44c.57-.33.97-.82,1.21-1.44v-1.45h-3.02c-1.69,0-2.53.55-2.53,1.66,0,.53.21.95.63,1.26.42.31,1.01.47,1.76.47s1.39-.17,1.96-.5Z"/>
      <path class="cls-1" d="M211.21,96.27v2.79c-.25-.05-.48-.07-.68-.07-1.14,0-2.03.33-2.67,1-.64.66-.96,1.62-.96,2.87v6.06h-2.93v-12.5h2.79v1.83c.84-1.31,2.33-1.97,4.45-1.97Z"/>
      <path class="cls-1" d="M222.63,97.59c.98.88,1.46,2.21,1.46,3.99v7.33h-2.76v-1.52c-.36.55-.87.96-1.53,1.25-.66.29-1.46.43-2.4.43s-1.76-.16-2.46-.48c-.7-.32-1.25-.76-1.63-1.33-.38-.57-.57-1.21-.57-1.93,0-1.12.42-2.03,1.25-2.7.83-.68,2.15-1.02,3.95-1.02h3.23v-.19c0-.87-.26-1.55-.78-2.01-.52-.47-1.3-.7-2.33-.7-.7,0-1.39.11-2.07.33s-1.25.52-1.72.91l-1.15-2.13c.66-.5,1.44-.88,2.37-1.15.92-.26,1.9-.4,2.93-.4,1.84,0,3.25.44,4.23,1.32ZM219.96,106.44c.57-.33.97-.82,1.21-1.44v-1.45h-3.02c-1.69,0-2.53.55-2.53,1.66,0,.53.21.95.63,1.26.42.31,1.01.47,1.76.47s1.39-.17,1.96-.5Z"/>
      <path class="cls-1" d="M247.46,96.22v10.37c0,2.36-.64,4.12-1.92,5.3-1.28,1.18-3.12,1.77-5.53,1.77-1.25,0-2.42-.14-3.51-.42s-2.02-.69-2.79-1.24l1.62-3.11c.52.42,1.17.75,1.96,1,.79.24,1.56.36,2.33.36,1.17,0,2.03-.26,2.58-.77.55-.51.82-1.28.82-2.29v-.42c-.86,1-2.12,1.5-3.77,1.5-1.12,0-2.16-.25-3.11-.76-.95-.51-1.71-1.22-2.27-2.15-.56-.93-.84-2-.84-3.22s.28-2.27.84-3.2,1.32-1.65,2.27-2.15c.95-.51,1.99-.76,3.11-.76,1.81,0,3.14.58,3.98,1.76v-1.54h4.24ZM242.27,104c.52-.48.78-1.11.78-1.87s-.26-1.38-.77-1.86c-.52-.48-1.18-.71-1.99-.71s-1.48.24-2,.71c-.52.48-.78,1.1-.78,1.86s.27,1.39.8,1.87c.53.48,1.19.73,1.99.73s1.46-.24,1.98-.73Z"/>
      <path class="cls-1" d="M256.32,96.44c.73-.29,1.56-.43,2.49-.43v4c-.41-.05-.74-.07-1.01-.07-.95,0-1.7.26-2.24.77-.54.51-.81,1.3-.81,2.36v5.83h-4.45v-12.69h4.24v1.52c.45-.58,1.04-1.01,1.77-1.3Z"/>
      <path class="cls-1" d="M270.78,97.45c1.11.96,1.66,2.43,1.66,4.41v7.05h-4.15v-1.64c-.64,1.23-1.89,1.85-3.75,1.85-.98,0-1.83-.17-2.55-.52-.72-.34-1.26-.81-1.63-1.39-.37-.59-.55-1.25-.55-2,0-1.2.46-2.13,1.38-2.8.92-.66,2.34-1,4.26-1h2.53c-.08-1.34-.98-2.01-2.69-2.01-.61,0-1.23.1-1.85.29-.62.2-1.16.46-1.59.81l-1.5-3.02c.7-.47,1.56-.83,2.56-1.09,1.01-.26,2.02-.39,3.03-.39,2.11,0,3.72.48,4.82,1.44ZM267.15,105.94c.39-.25.67-.62.84-1.1v-1.1h-1.92c-1.3,0-1.94.43-1.94,1.29,0,.39.15.7.44.94.3.23.7.35,1.22.35s.97-.12,1.36-.37Z"/>
      <path class="cls-1" d="M286.39,96.81c.94.53,1.69,1.29,2.25,2.28.55.99.83,2.14.83,3.45s-.28,2.47-.83,3.47c-.55,1-1.3,1.77-2.25,2.31-.94.54-1.99.81-3.15.81-1.67,0-2.92-.49-3.75-1.48v1.26h-4.24v-17.38h4.45v5.78c.86-.87,2.04-1.31,3.54-1.31,1.15,0,2.2.27,3.15.8ZM284.23,104.78c.5-.54.75-1.28.75-2.24s-.25-1.67-.75-2.2c-.5-.53-1.14-.8-1.92-.8s-1.42.27-1.92.8c-.5.53-.75,1.26-.75,2.2s.25,1.7.75,2.24c.5.54,1.14.81,1.92.81s1.42-.27,1.92-.81Z"/>
      <path class="cls-1" d="M301.48,97.45c1.11.96,1.66,2.43,1.66,4.41v7.05h-4.15v-1.64c-.64,1.23-1.89,1.85-3.75,1.85-.98,0-1.83-.17-2.55-.52-.72-.34-1.26-.81-1.63-1.39-.37-.59-.55-1.25-.55-2,0-1.2.46-2.13,1.38-2.8.92-.66,2.34-1,4.26-1h2.53c-.08-1.34-.98-2.01-2.69-2.01-.61,0-1.23.1-1.85.29-.62.2-1.16.46-1.59.81l-1.5-3.02c.7-.47,1.56-.83,2.56-1.09,1.01-.26,2.02-.39,3.03-.39,2.11,0,3.72.48,4.82,1.44ZM297.85,105.94c.39-.25.67-.62.84-1.1v-1.1h-1.92c-1.3,0-1.94.43-1.94,1.29,0,.39.15.7.44.94.3.23.7.35,1.22.35s.97-.12,1.36-.37Z"/>
      <path class="cls-1" d="M311.96,96.44c.73-.29,1.56-.43,2.49-.43v4c-.41-.05-.74-.07-1.01-.07-.95,0-1.7.26-2.24.77-.54.51-.81,1.3-.81,2.36v5.83h-4.45v-12.69h4.24v1.52c.45-.58,1.04-1.01,1.77-1.3Z"/>
      <path class="cls-1" d="M22.78,119.64v17.38h-2.81v-1.62c-.48.59-1.08,1.04-1.79,1.33-.71.3-1.49.45-2.35.45-1.2,0-2.28-.27-3.24-.8-.96-.53-1.71-1.28-2.26-2.26-.55-.98-.82-2.1-.82-3.36s.27-2.38.82-3.35c.55-.97,1.3-1.72,2.26-2.25.96-.53,2.04-.8,3.24-.8.83,0,1.58.14,2.27.42.69.28,1.27.7,1.76,1.26v-6.42h2.93ZM18.08,134.19c.56-.32,1.01-.78,1.33-1.37.33-.59.49-1.28.49-2.06s-.16-1.47-.49-2.06c-.33-.59-.77-1.05-1.33-1.37s-1.19-.48-1.9-.48-1.33.16-1.9.48-1.01.78-1.33,1.37c-.33.59-.49,1.28-.49,2.06s.16,1.47.49,2.06c.33.59.77,1.05,1.33,1.37.56.32,1.19.48,1.9.48s1.33-.16,1.9-.48Z"/>
      <path class="cls-1" d="M38.73,124.51v12.5h-2.79v-1.59c-.47.56-1.05,1-1.76,1.3-.7.3-1.46.46-2.27.46-1.67,0-2.99-.46-3.95-1.39s-1.44-2.31-1.44-4.13v-7.14h2.93v6.74c0,1.12.25,1.96.76,2.52.51.55,1.23.83,2.17.83,1.05,0,1.88-.32,2.49-.97.62-.65.93-1.58.93-2.8v-6.32h2.93Z"/>
      <path class="cls-1" d="M49.81,124.37v2.79c-.25-.05-.48-.07-.68-.07-1.14,0-2.03.33-2.67,1-.64.66-.96,1.62-.96,2.87v6.06h-2.93v-12.5h2.79v1.83c.84-1.31,2.33-1.97,4.45-1.97Z"/>
      <path class="cls-1" d="M61.22,125.69c.98.88,1.46,2.21,1.46,3.99v7.33h-2.76v-1.52c-.36.55-.87.96-1.53,1.25-.66.29-1.46.43-2.4.43s-1.76-.16-2.46-.48c-.7-.32-1.25-.76-1.63-1.33-.38-.57-.57-1.21-.57-1.93,0-1.12.42-2.03,1.25-2.7.83-.68,2.15-1.02,3.95-1.02h3.23v-.19c0-.87-.26-1.55-.78-2.01-.52-.47-1.3-.7-2.33-.7-.7,0-1.39.11-2.07.33s-1.25.52-1.72.91l-1.15-2.13c.66-.5,1.44-.88,2.37-1.15.92-.26,1.9-.4,2.93-.4,1.84,0,3.25.44,4.23,1.32ZM58.55,134.54c.57-.33.97-.82,1.21-1.44v-1.45h-3.02c-1.69,0-2.53.55-2.53,1.66,0,.53.21.95.63,1.26.42.31,1.01.47,1.76.47s1.39-.17,1.96-.5Z"/>
      <path class="cls-1" d="M77.32,125.75c.95.92,1.43,2.29,1.43,4.1v7.17h-2.93v-6.79c0-1.09-.26-1.92-.77-2.47-.52-.55-1.25-.83-2.2-.83-1.08,0-1.93.32-2.55.97-.62.65-.94,1.58-.94,2.8v6.32h-2.93v-12.5h2.79v1.62c.48-.58,1.09-1.01,1.83-1.31.73-.3,1.56-.44,2.48-.44,1.58,0,2.84.46,3.79,1.38Z"/>
      <path class="cls-1" d="M89.99,136.33c-.34.28-.76.49-1.25.63s-1.01.21-1.56.21c-1.37,0-2.44-.36-3.18-1.08-.75-.72-1.12-1.76-1.12-3.14v-6.02h-2.06v-2.34h2.06v-2.86h2.93v2.86h3.35v2.34h-3.35v5.95c0,.61.15,1.07.45,1.39.3.32.73.48,1.29.48.66,0,1.2-.17,1.64-.51l.82,2.08Z"/>
      <path class="cls-1" d="M103.69,131.7h-9.81c.17.92.62,1.65,1.35,2.19.73.54,1.63.81,2.7.81,1.37,0,2.51-.45,3.4-1.36l1.57,1.8c-.56.67-1.27,1.18-2.13,1.52-.86.34-1.83.52-2.9.52-1.37,0-2.58-.27-3.63-.82-1.05-.55-1.85-1.31-2.42-2.28-.57-.98-.85-2.08-.85-3.31s.28-2.31.83-3.29c.55-.98,1.32-1.74,2.31-2.28.98-.55,2.09-.82,3.32-.82s2.31.27,3.27.81c.96.54,1.71,1.3,2.25,2.27s.81,2.1.81,3.38c0,.2-.02.49-.05.87ZM95.03,127.54c-.65.55-1.04,1.29-1.18,2.21h7.1c-.12-.91-.51-1.64-1.15-2.2-.64-.56-1.44-.84-2.39-.84s-1.73.28-2.38.83Z"/>
      <path class="cls-1" d="M123.41,128.85c.73.84,1.09,1.85,1.09,3.03,0,.97-.26,1.87-.78,2.69-.52.83-1.32,1.5-2.39,2-1.07.51-2.39.76-3.97.76-1.16,0-2.3-.14-3.43-.42-1.13-.28-2.11-.68-2.94-1.19l1.69-3.49c.64.44,1.36.77,2.17,1.01.8.23,1.6.35,2.38.35s1.43-.15,1.9-.44c.47-.3.7-.72.7-1.26,0-1.06-.84-1.59-2.51-1.59h-1.94v-2.93l2.93-3.16h-6.46v-3.58h11.85v2.9l-3.4,3.65c1.36.28,2.4.84,3.13,1.67Z"/>
      <path class="cls-1" d="M129.49,136.33c-1.09-.67-1.95-1.65-2.56-2.94-.62-1.29-.92-2.81-.92-4.58s.31-3.29.92-4.58c.62-1.29,1.47-2.27,2.56-2.94,1.09-.67,2.34-1.01,3.75-1.01s2.63.34,3.72,1.01c1.09.67,1.95,1.65,2.56,2.94.62,1.29.92,2.81.92,4.58s-.31,3.29-.92,4.58c-.62,1.29-1.47,2.27-2.56,2.94-1.09.67-2.33,1.01-3.72,1.01s-2.65-.34-3.75-1.01ZM135.1,132.41c.46-.76.69-1.96.69-3.59s-.23-2.84-.69-3.59c-.46-.76-1.08-1.14-1.86-1.14s-1.42.38-1.88,1.14c-.46.76-.69,1.96-.69,3.59s.23,2.84.69,3.59c.46.76,1.09,1.14,1.88,1.14s1.4-.38,1.86-1.14Z"/>
      <path class="cls-1" d="M162.98,119.64v17.38h-4.24v-1.26c-.83.98-2.07,1.48-3.72,1.48-1.16,0-2.21-.27-3.16-.81-.95-.54-1.71-1.31-2.26-2.31s-.83-2.15-.83-3.47.28-2.46.83-3.45,1.31-1.75,2.26-2.28c.95-.53,2.01-.8,3.16-.8,1.51,0,2.69.44,3.51,1.31v-5.78h4.45ZM157.85,132.88c.5-.54.75-1.28.75-2.24s-.25-1.67-.74-2.2c-.49-.53-1.13-.8-1.91-.8s-1.42.27-1.92.8c-.5.53-.75,1.26-.75,2.2s.25,1.7.75,2.24c.5.54,1.14.81,1.92.81s1.4-.27,1.9-.81Z"/>
      <path class="cls-1" d="M168.9,119.24h4.45l-4.4,3.56h-3.18l3.14-3.56ZM165.83,124.32h4.45v12.69h-4.45v-12.69Z"/>
      <path class="cls-1" d="M183.4,125.55c1.11.96,1.66,2.43,1.66,4.41v7.05h-4.15v-1.64c-.64,1.23-1.89,1.85-3.75,1.85-.98,0-1.83-.17-2.55-.52-.72-.34-1.26-.81-1.63-1.39-.37-.59-.55-1.25-.55-2,0-1.2.46-2.13,1.38-2.8.92-.66,2.34-1,4.26-1h2.53c-.08-1.34-.98-2.01-2.69-2.01-.61,0-1.23.1-1.85.29-.62.2-1.16.46-1.59.81l-1.5-3.02c.7-.47,1.56-.83,2.56-1.09,1.01-.26,2.02-.39,3.03-.39,2.11,0,3.72.48,4.82,1.44ZM179.77,134.04c.39-.25.67-.62.84-1.1v-1.1h-1.92c-1.3,0-1.94.43-1.94,1.29,0,.39.15.7.44.94.3.23.7.35,1.22.35s.97-.12,1.36-.37Z"/>
      <path class="cls-1" d="M189.34,136.86c-1.03-.24-1.86-.56-2.48-.95l1.33-3.04c.58.36,1.26.64,2.06.85s1.58.32,2.37.32c.72,0,1.23-.07,1.53-.22.3-.15.46-.36.46-.64s-.18-.48-.55-.6c-.37-.12-.95-.23-1.74-.34-1.01-.12-1.88-.29-2.59-.49-.71-.2-1.32-.58-1.84-1.12s-.77-1.31-.77-2.29c0-.81.24-1.53.73-2.17s1.19-1.13,2.12-1.5c.93-.37,2.04-.55,3.34-.55.92,0,1.83.09,2.74.28.91.19,1.66.45,2.27.8l-1.33,3.02c-1.12-.62-2.34-.94-3.65-.94-.7,0-1.22.08-1.55.25-.33.16-.49.38-.49.64,0,.3.18.5.54.62.36.12.95.24,1.78.36,1.05.16,1.91.34,2.6.54s1.28.57,1.79,1.11c.51.54.76,1.29.76,2.26,0,.8-.24,1.51-.73,2.14-.48.63-1.2,1.13-2.14,1.49-.94.36-2.08.54-3.41.54-1.06,0-2.11-.12-3.14-.36Z"/>
      <path class="cls-1" d="M208.87,136.78c-.97-.26-1.74-.6-2.32-1.01l1.12-2.22c.56.38,1.24.68,2.03.9.79.23,1.56.34,2.33.34,1.75,0,2.62-.46,2.62-1.38,0-.44-.22-.74-.67-.91-.44-.17-1.16-.33-2.14-.49-1.03-.16-1.87-.34-2.52-.54-.65-.2-1.21-.56-1.69-1.07-.48-.51-.71-1.21-.71-2.12,0-1.19.5-2.13,1.49-2.84.99-.71,2.33-1.07,4.02-1.07.86,0,1.72.1,2.58.29.86.2,1.56.46,2.11.79l-1.12,2.22c-1.06-.62-2.26-.94-3.58-.94-.86,0-1.51.13-1.96.39s-.67.6-.67,1.02c0,.47.24.8.71,1,.48.2,1.21.38,2.21.55,1,.16,1.82.34,2.46.54.64.2,1.19.55,1.65,1.03.46.48.69,1.17.69,2.06,0,1.17-.51,2.11-1.52,2.81-1.02.7-2.4,1.05-4.15,1.05-1.01,0-2.01-.13-2.97-.4Z"/>
      <path class="cls-1" d="M231.75,131.7h-9.81c.17.92.62,1.65,1.35,2.19.73.54,1.63.81,2.7.81,1.37,0,2.51-.45,3.4-1.36l1.57,1.8c-.56.67-1.27,1.18-2.13,1.52-.86.34-1.83.52-2.9.52-1.37,0-2.58-.27-3.63-.82-1.05-.55-1.85-1.31-2.42-2.28-.57-.98-.85-2.08-.85-3.31s.28-2.31.83-3.29c.55-.98,1.32-1.74,2.31-2.28.98-.55,2.09-.82,3.32-.82s2.31.27,3.27.81c.96.54,1.71,1.3,2.25,2.27s.81,2.1.81,3.38c0,.2-.02.49-.05.87ZM223.1,127.54c-.65.55-1.04,1.29-1.18,2.21h7.1c-.12-.91-.51-1.64-1.15-2.2-.64-.56-1.44-.84-2.39-.84s-1.73.28-2.38.83Z"/>
      <path class="cls-1" d="M247.02,124.51v10.61c0,4.4-2.25,6.6-6.74,6.6-1.2,0-2.34-.15-3.42-.46s-1.97-.75-2.67-1.32l1.31-2.2c.55.45,1.24.82,2.07,1.09.83.27,1.68.41,2.54.41,1.37,0,2.38-.31,3.02-.94.64-.62.96-1.58.96-2.86v-.66c-.5.55-1.11.96-1.83,1.24s-1.51.42-2.36.42c-1.19,0-2.26-.25-3.22-.76-.96-.51-1.72-1.22-2.27-2.14-.55-.92-.83-1.97-.83-3.16s.28-2.24.83-3.15c.55-.91,1.31-1.62,2.27-2.12.96-.5,2.03-.75,3.22-.75.91,0,1.73.15,2.47.44.74.3,1.36.75,1.86,1.36v-1.66h2.79ZM243.07,132.97c.71-.66,1.07-1.53,1.07-2.59s-.36-1.9-1.07-2.55c-.71-.66-1.62-.98-2.73-.98s-2.04.33-2.75.98c-.71.66-1.07,1.51-1.07,2.55s.35,1.92,1.07,2.59c.71.66,1.63,1,2.75,1s2.02-.33,2.73-1Z"/>
      <path class="cls-1" d="M262.96,124.51v12.5h-2.79v-1.59c-.47.56-1.05,1-1.76,1.3-.7.3-1.46.46-2.27.46-1.67,0-2.99-.46-3.95-1.39s-1.44-2.31-1.44-4.13v-7.14h2.93v6.74c0,1.12.25,1.96.76,2.52.51.55,1.23.83,2.17.83,1.05,0,1.88-.32,2.49-.97.62-.65.93-1.58.93-2.8v-6.32h2.93Z"/>
      <path class="cls-1" d="M266.94,121.94c-.36-.34-.54-.75-.54-1.25s.18-.92.54-1.25c.36-.33.8-.5,1.33-.5s.98.16,1.33.48c.36.32.54.72.54,1.21,0,.52-.18.95-.53,1.3-.35.35-.8.53-1.35.53s-.98-.17-1.33-.5ZM266.8,124.51h2.93v12.5h-2.93v-12.5Z"/>
      <path class="cls-1" d="M285.82,119.64v17.38h-2.81v-1.62c-.48.59-1.08,1.04-1.79,1.33-.71.3-1.49.45-2.35.45-1.2,0-2.28-.27-3.24-.8-.96-.53-1.71-1.28-2.26-2.26-.55-.98-.82-2.1-.82-3.36s.27-2.38.82-3.35c.55-.97,1.3-1.72,2.26-2.25.96-.53,2.04-.8,3.24-.8.83,0,1.58.14,2.27.42.69.28,1.27.7,1.76,1.26v-6.42h2.93ZM281.11,134.19c.56-.32,1.01-.78,1.33-1.37.33-.59.49-1.28.49-2.06s-.16-1.47-.49-2.06c-.33-.59-.77-1.05-1.33-1.37s-1.19-.48-1.9-.48-1.33.16-1.9.48-1.01.78-1.33,1.37c-.33.59-.49,1.28-.49,2.06s.16,1.47.49,2.06c.33.59.77,1.05,1.33,1.37.56.32,1.19.48,1.9.48s1.33-.16,1.9-.48Z"/>
      <path class="cls-1" d="M291.86,136.36c-1.01-.55-1.81-1.31-2.38-2.28-.57-.98-.85-2.08-.85-3.31s.28-2.33.85-3.3c.57-.97,1.36-1.72,2.38-2.27s2.15-.82,3.42-.82,2.43.27,3.44.82c1.01.55,1.81,1.3,2.38,2.27s.85,2.07.85,3.3-.29,2.34-.85,3.31-1.36,1.74-2.38,2.28c-1.02.55-2.16.82-3.44.82s-2.4-.27-3.42-.82ZM297.95,133.59c.7-.72,1.05-1.66,1.05-2.83s-.35-2.12-1.05-2.83c-.7-.72-1.59-1.08-2.67-1.08s-1.96.36-2.66,1.08c-.69.72-1.04,1.66-1.04,2.83s.35,2.12,1.04,2.83c.69.72,1.58,1.08,2.66,1.08s1.97-.36,2.67-1.08Z"/>
      <path class="cls-1" d="M305.65,136.78c-.97-.26-1.74-.6-2.32-1.01l1.12-2.22c.56.38,1.24.68,2.03.9.79.23,1.56.34,2.33.34,1.75,0,2.62-.46,2.62-1.38,0-.44-.22-.74-.67-.91-.44-.17-1.16-.33-2.14-.49-1.03-.16-1.87-.34-2.52-.54-.65-.2-1.21-.56-1.69-1.07-.48-.51-.71-1.21-.71-2.12,0-1.19.5-2.13,1.49-2.84.99-.71,2.33-1.07,4.02-1.07.86,0,1.72.1,2.58.29.86.2,1.56.46,2.11.79l-1.12,2.22c-1.06-.62-2.26-.94-3.58-.94-.86,0-1.51.13-1.96.39s-.67.6-.67,1.02c0,.47.24.8.71,1,.48.2,1.21.38,2.21.55,1,.16,1.82.34,2.46.54.64.2,1.19.55,1.65,1.03.46.48.69,1.17.69,2.06,0,1.17-.51,2.11-1.52,2.81-1.02.7-2.4,1.05-4.15,1.05-1.01,0-2.01-.13-2.97-.4Z"/>
    </g>
    <g>
      <path class="cls-2" d="M367.57,108.72v14.85c0,2.3-1.87,4.16-4.16,4.16h-17.38c.23-.33.38-.71.44-1.11,0-.05.02-.09.02-.14.01-.09.02-.18.02-.28v-20.11c0-.06,0-.11,0-.17,0-.04,0-.08,0-.11,0-.05-.01-.09-.02-.14-.06-.41-.21-.79-.44-1.11h17.38c2.16,0,3.95,1.66,4.15,3.77h0c0,.13.02.26.02.39Z"/>
      <path class="cls-2" d="M333.29,104.56c-2.88,0-5.22,1.87-5.22,4.16v14.85c0,2.3,2.34,4.16,5.22,4.16h5.93v-23.18h-5.93ZM337.76,119.56c0,1.55-1.26,2.82-2.82,2.82h-2.19c-1.55,0-2.81-1.26-2.81-2.82v-5.42c0-1.55,1.26-2.81,2.81-2.81h2.19c1.55,0,2.82,1.26,2.82,2.81v5.42Z"/>
      <path class="cls-2" d="M336.58,114.14v5.42c0,.9-.73,1.63-1.63,1.63h-2.19c-.89,0-1.62-.73-1.62-1.63v-5.42c0-.89.73-1.62,1.62-1.62h2.19c.9,0,1.63.73,1.63,1.62Z"/>
      <path class="cls-2" d="M345.31,106.09v20.11c0,.83-.92,1.53-2.01,1.53h-2.89v-23.18h2.89c1.09,0,2.01.7,2.01,1.53Z"/>
      <path class="cls-2" d="M390.23,119.85v.88c0,1.11-.91,2.02-2.02,2.02h-19.06v-11.81h12.18c4.91,0,8.91,3.99,8.91,8.9Z"/>
    </g>
  </g>
</svg>