<?xml version="1.0" encoding="UTF-8"?>
<svg id="Capa_1" data-name="Capa 1" xmlns="http://www.w3.org/2000/svg" xmlns:xlink="http://www.w3.org/1999/xlink" version="1.1" viewBox="0 0 1080 1080">
  <defs>
    <style>
      .cls-1 {
        fill: #e25b19;
        filter: url(#drop-shadow-1);
      }

      .cls-1, .cls-2, .cls-3 {
        stroke-width: 0px;
      }

      .cls-2 {
        fill: #fff;
      }

      .cls-3 {
        fill: #601b00;
      }
    </style>
    <filter id="drop-shadow-1" filterUnits="userSpaceOnUse">
      <feOffset dx="8.2" dy="8.2"/>
      <feGaussianBlur result="blur" stdDeviation="2.9"/>
      <feFlood flood-color="#000" flood-opacity=".8"/>
      <feComposite in2="blur" operator="in"/>
      <feComposite in="SourceGraphic"/>
    </filter>
  </defs>
  <rect class="cls-1" x="27" y="439.2" width="1028" height="227.7" rx="102.1" ry="102.1"/>
  <path class="cls-3" d="M129.1,666.8c-56.4,1.9-104.6-45.2-105.3-101.5,0-2.8-.3-19.6-.3-22.8-1.3-38.2,20.1-75.7,53.5-94.5,16.5-9.6,35.8-14.5,54.9-14.2,154.5-1.1,338.2-1.1,492.7.1,109.4,1,219.1,2.3,328.5,5.2-263.8,6.6-538.7,6.9-802.9,5.5-10.3,0-25.6-.7-35.6.9-22.9,3.3-44.5,15.2-59.7,32.7-15.4,17.7-24.1,40.7-24.2,64.3,0,3.2-.3,19.9-.3,22.8-.8,54.5,44.4,100.4,98.8,101.5h0Z"/>
  <g>
    <path class="cls-2" d="M67.5,537.5c1.9,1.9,2.9,4.1,2.9,6.8s-1,4.9-2.9,6.7c-1.9,1.8-4.4,2.7-7.4,2.7s-5.5-.9-7.5-2.7c-2-1.8-2.9-4-2.9-6.7s1-4.9,2.9-6.8c1.9-1.9,4.4-2.8,7.5-2.8s5.5.9,7.4,2.8ZM70.4,599.1h-20.7l3.4-40.3h13.8l3.5,40.3Z"/>
    <path class="cls-2" d="M94,582.1c-5.3-2.8-9.5-6.8-12.6-11.8-3-5.1-4.6-10.8-4.6-17.2s1.5-12.1,4.6-17.2c3-5.1,7.2-9,12.6-11.8,5.3-2.8,11.3-4.2,18-4.2s11.1,1,15.8,3.1c4.7,2.1,8.6,5.1,11.7,9l-11.5,10.4c-4.1-5-9.2-7.5-15.1-7.5s-6.6.8-9.3,2.3c-2.7,1.5-4.8,3.7-6.3,6.4-1.5,2.8-2.2,6-2.2,9.5s.7,6.8,2.2,9.5c1.5,2.8,3.6,4.9,6.3,6.4,2.7,1.5,5.8,2.3,9.3,2.3,5.9,0,10.9-2.5,15.1-7.5l11.5,10.4c-3.1,3.9-7,6.9-11.7,9-4.7,2.1-10,3.1-15.8,3.1s-12.7-1.4-18-4.2Z"/>
    <path class="cls-2" d="M160.2,582c-5.4-2.9-9.6-6.8-12.7-11.9-3.1-5.1-4.6-10.8-4.6-17.1s1.5-12,4.6-17.1c3.1-5.1,7.3-9,12.7-11.9,5.4-2.9,11.5-4.3,18.2-4.3s12.8,1.4,18.2,4.3c5.4,2.9,9.6,6.8,12.7,11.9,3.1,5.1,4.6,10.8,4.6,17.1s-1.5,12-4.6,17.1c-3.1,5.1-7.3,9-12.7,11.9-5.4,2.9-11.5,4.3-18.2,4.3s-12.8-1.4-18.2-4.3ZM187.3,569.1c2.6-1.5,4.7-3.7,6.2-6.4,1.5-2.8,2.3-6,2.3-9.5s-.8-6.8-2.3-9.5c-1.5-2.8-3.6-4.9-6.2-6.4-2.6-1.5-5.5-2.3-8.8-2.3s-6.2.8-8.8,2.3c-2.6,1.5-4.7,3.7-6.2,6.4-1.5,2.8-2.3,6-2.3,9.5s.8,6.8,2.3,9.5c1.5,2.8,3.6,4.9,6.2,6.4,2.6,1.5,5.5,2.3,8.8,2.3s6.2-.8,8.8-2.3Z"/>
    <path class="cls-2" d="M284.4,521.1v64h-14.9l-28.2-34.1v34.1h-17.7v-64h14.9l28.2,34.1v-34.1h17.7Z"/>
    <path class="cls-2" d="M310.8,535.4h-19.6v-14.3h57.3v14.3h-19.6v49.6h-18.1v-49.6Z"/>
    <path class="cls-2" d="M383.2,568.1h-9.9v17h-18.1v-64h29.2c5.8,0,10.8,1,15.1,2.9,4.3,1.9,7.6,4.7,9.9,8.2,2.3,3.6,3.5,7.8,3.5,12.6s-1.1,8.7-3.2,12.1c-2.2,3.4-5.3,6.1-9.3,8.1l13.8,20.1h-19.4l-11.6-17ZM391.8,537.8c-1.9-1.6-4.7-2.5-8.4-2.5h-10.1v18.7h10.1c3.7,0,6.5-.8,8.4-2.4,1.9-1.6,2.8-3.9,2.8-6.9s-.9-5.3-2.8-6.9Z"/>
    <path class="cls-2" d="M465.7,572.6h-27l-5,12.4h-18.5l28.2-64h17.8l28.3,64h-18.8l-5-12.4ZM460.4,559.3l-8.2-20.5-8.2,20.5h16.4Z"/>
    <path class="cls-2" d="M505.1,535.4h-19.6v-14.3h57.3v14.3h-19.6v49.6h-18.1v-49.6Z"/>
    <path class="cls-2" d="M589.1,572.6h-27l-5,12.4h-18.5l28.2-64h17.8l28.3,64h-18.8l-5-12.4ZM583.8,559.3l-8.2-20.5-8.2,20.5h16.4Z"/>
    <path class="cls-2" d="M687.6,572.6h-27l-5,12.4h-18.5l28.2-64h17.8l28.3,64h-18.8l-5-12.4ZM682.3,559.3l-8.2-20.5-8.2,20.5h16.4Z"/>
    <path class="cls-2" d="M777.4,521.1v64h-18.1v-24.9h-24.7v24.9h-18.1v-64h18.1v24h24.7v-24h18.1Z"/>
    <path class="cls-2" d="M804.2,582c-5.4-2.9-9.6-6.8-12.7-11.9-3.1-5.1-4.6-10.8-4.6-17.1s1.5-12,4.6-17.1c3.1-5.1,7.3-9,12.7-11.9,5.4-2.9,11.5-4.3,18.2-4.3s12.8,1.4,18.2,4.3c5.4,2.9,9.6,6.8,12.7,11.9,3.1,5.1,4.6,10.8,4.6,17.1s-1.5,12-4.6,17.1c-3.1,5.1-7.3,9-12.7,11.9-5.4,2.9-11.5,4.3-18.2,4.3s-12.8-1.4-18.2-4.3ZM831.2,569.1c2.6-1.5,4.7-3.7,6.2-6.4,1.5-2.8,2.3-6,2.3-9.5s-.8-6.8-2.3-9.5c-1.5-2.8-3.6-4.9-6.2-6.4-2.6-1.5-5.5-2.3-8.8-2.3s-6.2.8-8.8,2.3c-2.6,1.5-4.7,3.7-6.2,6.4-1.5,2.8-2.3,6-2.3,9.5s.8,6.8,2.3,9.5c1.5,2.8,3.6,4.9,6.2,6.4,2.6,1.5,5.5,2.3,8.8,2.3s6.2-.8,8.8-2.3Z"/>
    <path class="cls-2" d="M895.5,568.1h-9.9v17h-18.1v-64h29.2c5.8,0,10.8,1,15.1,2.9,4.3,1.9,7.6,4.7,9.9,8.2,2.3,3.6,3.5,7.8,3.5,12.6s-1.1,8.7-3.2,12.1c-2.2,3.4-5.3,6.1-9.3,8.1l13.8,20.1h-19.4l-11.6-17ZM904,537.8c-1.9-1.6-4.7-2.5-8.4-2.5h-10.1v18.7h10.1c3.7,0,6.5-.8,8.4-2.4,1.9-1.6,2.8-3.9,2.8-6.9s-.9-5.3-2.8-6.9Z"/>
    <path class="cls-2" d="M978,572.6h-27l-5,12.4h-18.5l28.2-64h17.8l28.3,64h-18.8l-5-12.4ZM972.7,559.3l-8.2-20.5-8.2,20.5h16.4Z"/>
    <path class="cls-2" d="M1006.8,583.1c-2-1.9-2.9-4.1-2.9-6.8s1-5,2.9-6.8c1.9-1.8,4.4-2.6,7.5-2.6s5.5.9,7.4,2.6c1.9,1.8,2.9,4,2.9,6.8s-1,5-2.9,6.8c-2,1.9-4.4,2.8-7.4,2.8s-5.5-.9-7.5-2.8ZM1004,521.1h20.7l-3.5,40.7h-13.8l-3.4-40.7Z"/>
  </g>
</svg>