<?xml version="1.0" encoding="UTF-8"?>
<svg id="Layer_1" data-name="Layer 1" xmlns="http://www.w3.org/2000/svg" xmlns:xlink="http://www.w3.org/1999/xlink" viewBox="0 0 505.26 79.07">
  <defs>
    <style>
      .cls-1 {
        fill: url(#linear-gradient);
      }

      .cls-1, .cls-2 {
        stroke-width: 0px;
      }

      .cls-2 {
        fill: #fff;
      }
    </style>
    <linearGradient id="linear-gradient" x1="252.63" y1="79.07" x2="252.63" y2="0" gradientUnits="userSpaceOnUse">
      <stop offset="0" stop-color="#f5a214"/>
      <stop offset="1" stop-color="#e05b19"/>
    </linearGradient>
  </defs>
  <rect class="cls-1" x="0" y="0" width="505.26" height="79.07" rx="39.53" ry="39.53"/>
  <g>
    <path class="cls-2" d="M204.23,47.19v6.14h-25.61V20.26h24.99v6.14h-17.38v7.18h15.35v5.95h-15.35v7.65h18Z"/>
    <path class="cls-2" d="M232.88,30.37c1.94,1.89,2.91,4.69,2.91,8.41v14.55h-7.37v-13.42c0-2.02-.44-3.52-1.32-4.51-.88-.99-2.16-1.49-3.83-1.49-1.86,0-3.34.57-4.44,1.72-1.1,1.15-1.65,2.86-1.65,5.13v12.57h-7.37v-25.42h7.04v2.98c.98-1.07,2.19-1.9,3.64-2.48,1.45-.58,3.04-.87,4.77-.87,3.15,0,5.69.94,7.63,2.83Z"/>
    <path class="cls-2" d="M267.21,27.91l-10.72,25.42h-7.61l-10.68-25.42h7.61l7.04,17.29,7.28-17.29h7.09Z"/>
    <path class="cls-2" d="M270.61,23.19c-.85-.79-1.28-1.76-1.28-2.93s.42-2.14,1.28-2.93c.85-.79,1.95-1.18,3.31-1.18s2.46.38,3.31,1.13,1.28,1.7,1.28,2.83c0,1.23-.42,2.24-1.28,3.05-.85.8-1.95,1.2-3.31,1.2s-2.46-.39-3.31-1.18ZM270.23,27.91h7.37v25.42h-7.37v-25.42Z"/>
    <path class="cls-2" d="M303.77,30.34c2.11,1.87,3.17,4.7,3.17,8.48v14.5h-6.9v-3.17c-1.39,2.36-3.97,3.54-7.75,3.54-1.95,0-3.65-.33-5.08-.99-1.43-.66-2.53-1.57-3.28-2.74-.76-1.17-1.13-2.49-1.13-3.97,0-2.36.89-4.22,2.67-5.57,1.78-1.35,4.53-2.03,8.24-2.03h5.86c0-1.61-.49-2.84-1.46-3.71-.98-.87-2.44-1.3-4.39-1.3-1.35,0-2.69.21-3.99.64-1.31.42-2.42,1-3.33,1.72l-2.65-5.15c1.39-.98,3.05-1.73,4.98-2.27,1.94-.54,3.93-.8,5.98-.8,3.94,0,6.96.94,9.07,2.81ZM297.49,47.87c.98-.58,1.67-1.44,2.08-2.57v-2.6h-5.05c-3.02,0-4.54.99-4.54,2.98,0,.94.37,1.69,1.11,2.24.74.55,1.75.83,3.05.83s2.38-.29,3.35-.87Z"/>
    <path class="cls-2" d="M324.2,28.48c1.5-.63,3.22-.94,5.17-.94v6.8c-.82-.06-1.37-.09-1.65-.09-2.11,0-3.76.59-4.96,1.77-1.2,1.18-1.79,2.95-1.79,5.31v12h-7.37v-25.42h7.04v3.35c.88-1.23,2.07-2.16,3.57-2.79Z"/>
  </g>
</svg>