<?xml version="1.0" encoding="UTF-8"?>
<svg id="Capa_1" data-name="Capa 1" xmlns="http://www.w3.org/2000/svg" viewBox="0 0 1838.67 1598.79">
  <defs>
    <style>
      .cls-1 {
        fill: #f34e00;
        stroke-width: 0px;
      }
    </style>
  </defs>
  <path class="cls-1" d="m1376.78.4H498.94c-11.71,0-23.81-.89-35.49,0-.51.04-1.04,0-1.55,0-1.75,0-3.44.95-4.32,2.48-15.3,26.55-30.6,53.11-45.89,79.66-36.54,63.43-73.09,126.86-109.63,190.29-44.27,76.84-88.54,153.67-132.8,230.51-37.99,65.93-75.97,131.87-113.96,197.8-12.42,21.56-24.84,43.12-37.26,64.68-5.68,9.86-12.49,19.67-17.28,30-2.82,6.08,3.09,12.53,6.13,17.8,9.42,16.35,18.84,32.69,28.25,49.04,34.46,59.81,68.91,119.61,103.37,179.42,44.04,76.45,88.09,152.89,132.13,229.34,39.62,68.78,79.25,137.56,118.87,206.33,21.68,37.63,43.36,75.26,65.04,112.89,1.01,1.76,2.03,3.52,3.04,5.28.88,1.52,2.56,2.48,4.32,2.48h877.85c11.71,0,23.81.89,35.49,0,.51-.04,1.04,0,1.55,0,1.75,0,3.44-.95,4.32-2.48,15.3-26.55,30.6-53.11,45.89-79.66,36.54-63.43,73.09-126.86,109.63-190.29,44.27-76.84,88.54-153.67,132.8-230.51,37.99-65.93,75.97-131.87,113.96-197.8,12.42-21.56,24.84-43.12,37.26-64.68,5.68-9.86,12.49-19.67,17.28-30,2.82-6.08-3.09-12.53-6.13-17.8-9.42-16.35-18.84-32.69-28.25-49.04-34.46-59.81-68.91-119.61-103.37-179.42-44.04-76.45-88.09-152.89-132.13-229.34-39.62-68.78-79.25-137.56-118.87-206.33-21.68-37.63-43.36-75.26-65.04-112.89-1.01-1.76-2.03-3.52-3.04-5.28-3.21-5.57-11.86-.54-8.63,5.05,15.2,26.39,30.4,52.77,45.61,79.16,36.49,63.34,72.99,126.69,109.48,190.03,43.97,76.32,87.94,152.64,131.91,228.96,38.01,65.98,76.03,131.96,114.04,197.95,12.58,21.83,25.16,43.66,37.73,65.5,3.9,6.76,7.79,13.52,11.69,20.28,1.87,3.25,3.61,8.04,6.21,10.78.33.34.53.93.77,1.34v-5.05c-15.2,26.39-30.4,52.77-45.61,79.16-36.49,63.34-72.99,126.69-109.48,190.03-43.97,76.32-87.94,152.64-131.91,228.96-38.01,65.98-76.03,131.96-114.04,197.95-12.58,21.83-25.16,43.66-37.73,65.5-3.9,6.76-7.79,13.52-11.69,20.28-1.87,3.24-5.16,7.16-6.21,10.78-.13.45-.53.93-.77,1.34l4.32-2.48H475.89c-3.76,0-8.78-.89-12.45,0-.46.11-1.07,0-1.55,0l4.32,2.48c-15.2-26.39-30.4-52.77-45.61-79.16-36.49-63.34-72.99-126.69-109.48-190.03-43.97-76.32-87.94-152.64-131.91-228.96-38.01-65.98-76.03-131.96-114.04-197.95-12.58-21.83-25.16-43.66-37.73-65.5-3.9-6.76-7.79-13.52-11.69-20.28-1.87-3.25-3.61-8.04-6.21-10.78-.33-.34-.53-.93-.77-1.34v5.05c15.2-26.39,30.4-52.77,45.61-79.16,36.49-63.34,72.99-126.69,109.48-190.03,43.97-76.32,87.94-152.64,131.91-228.96,38.01-65.98,76.03-131.96,114.04-197.95,12.58-21.83,25.16-43.66,37.73-65.5l11.69-20.28c1.87-3.24,5.16-7.16,6.21-10.78.13-.45.53-.93.77-1.34l-4.32,2.48h877.85c11.71,0,23.81.89,35.49,0,.51-.04,1.04,0,1.55,0,6.43,0,6.45-10,0-10Z"/>
</svg>