<?xml version="1.0" encoding="UTF-8"?>
<svg id="Layer_1" data-name="Layer 1" xmlns="http://www.w3.org/2000/svg" viewBox="0 0 146.81 118.97">
  <defs>
    <style>
      .cls-1 {
        fill: #fff;
        stroke-width: 0px;
      }
    </style>
  </defs>
  <path class="cls-1" d="M102.83,56.05c-3.84,11.52-7.5,22.45-11.15,33.39-3.08,9.24-6.17,18.48-9.21,27.74-.39,1.18-.84,1.78-2.26,1.76-6.58-.09-13.15-.06-19.73-.02-1.27,0-1.88-.04-1.38-1.67,7.22-23.72,14.82-47.31,23.02-70.71,2.46-7.02,7.37-10.56,14.25-12.04,6.04-1.3,11.96-.88,17.69,1.48,4.16,1.71,7.17,4.56,8.82,8.83,5.14,13.28,9.33,26.87,13.68,40.42,3.38,10.52,6.6,21.08,10,31.59.61,1.88.15,2.15-1.63,2.12-6.09-.1-12.19-.15-18.28.02-2.07.06-2.79-.71-3.4-2.54-6.47-19.39-13.02-38.74-19.56-58.1-.19-.57-.42-1.13-.85-2.27Z"/>
  <path class="cls-1" d="M72.19,51.32c-.01.18.06.91-.15,1.55-1.82,5.58-3.53,11.19-5.59,16.68-1.15,3.06-3.7,4.96-6.96,5.66-5.13,1.1-10.27,2.22-15.43,3.17-3.57.66-6.74-.4-9.21-3.11-3.49-3.83-6.94-7.71-10.34-11.62-2.4-2.76-3.15-6-2.08-9.48,1.59-5.14,3.3-10.25,5.1-15.32,1.2-3.36,3.73-5.48,7.2-6.25,5.13-1.13,10.28-2.13,15.44-3.12,3.71-.72,6.85.47,9.35,3.21,3.32,3.62,6.52,7.35,9.81,10.99,1.84,2.04,2.87,4.37,2.86,7.64Z"/>
  <path class="cls-1" d="M30.63,81.27c-.32,2.27-1.69,4.75-2.27,7.43-1,4.64-3.84,6.92-8.49,7.36-2.05.2-4.05.84-6.09,1.2-2.41.42-4.53-.24-6.19-2.07-2.05-2.25-4.09-4.5-6.05-6.83-1.54-1.82-1.88-4-1.22-6.24.86-2.91,1.84-5.78,2.88-8.63.81-2.21,2.42-3.67,4.77-4.19,2.97-.65,5.93-1.33,8.92-1.87,2.4-.43,4.53.27,6.19,2.11,1.95,2.15,3.87,4.33,5.81,6.49,1.21,1.35,1.76,2.94,1.74,5.24Z"/>
  <path class="cls-1" d="M52.69,11.6c-.3,2.27-1.22,4.37-1.95,6.51-2.61,7.7-1.17,6.39-9.31,8.11-1.55.33-3.14.54-4.66.98-1.91.54-3.33.02-4.59-1.46-2.02-2.37-4.09-4.69-6.21-6.97-1.34-1.43-1.56-2.96-.93-4.77,1.05-3,2.05-6.01,3.01-9.04.51-1.62,1.54-2.52,3.2-2.85,3.19-.62,6.36-1.31,9.54-1.98,1.69-.36,3.1,0,4.28,1.37,2.12,2.47,4.3,4.87,6.47,7.29.72.8,1.24,1.66,1.15,2.8Z"/>
  <path class="cls-1" d="M104.01,84.39h-2.37c-2.19,0-4.22,1.17-5.31,3.07l-1.19,2.05c-1.1,1.9-1.1,4.24,0,6.13l1.19,2.05c1.1,1.9,3.12,3.07,5.31,3.07h2.37c2.19,0,4.22-1.17,5.31-3.07l1.19-2.05c1.1-1.9,1.1-4.24,0-6.13l-1.19-2.05c-1.1-1.9-3.12-3.07-5.31-3.07Z"/>
</svg>