<?xml version="1.0" encoding="UTF-8"?>
<svg id="Layer_1" data-name="Layer 1" xmlns="http://www.w3.org/2000/svg" viewBox="0 0 541.41 240.1">
  <defs>
    <style>
      .cls-1 {
        fill: #dd5b19;
      }

      .cls-1, .cls-2, .cls-3 {
        stroke-width: 0px;
      }

      .cls-2 {
        fill: #f19e12;
      }

      .cls-3 {
        fill: #e05b19;
      }
    </style>
  </defs>
  <g>
    <path class="cls-1" d="M166.65,77.8c-5.34,15.99-10.41,31.16-15.47,46.35-4.28,12.83-8.56,25.65-12.79,38.5-.54,1.64-1.16,2.48-3.14,2.45-9.13-.13-18.26-.08-27.39-.03-1.76,0-2.61-.06-1.92-2.32,10.02-32.92,20.58-65.66,31.95-98.15,3.41-9.75,10.22-14.66,19.78-16.71,8.39-1.8,16.6-1.22,24.56,2.05,5.78,2.37,9.95,6.33,12.24,12.25,7.13,18.43,12.95,37.3,18.99,56.1,4.69,14.6,9.16,29.27,13.88,43.85.84,2.61.21,2.98-2.27,2.94-8.46-.13-16.92-.2-25.37.03-2.88.08-3.87-.99-4.72-3.52-8.98-26.91-18.08-53.77-27.15-80.65-.27-.79-.58-1.56-1.18-3.15Z"/>
    <path class="cls-1" d="M293.4,165.04c-8.26,0-16.53-.1-24.79.02-15.4.22-26.87-6.55-35.03-19.36-5.41-8.5-8.37-17.85-9.44-27.8-1.71-16.04-.22-31.64,7.28-46.21,5.64-10.97,13.59-19.49,25.98-22.88,3.54-.97,7.17-1.36,10.82-1.37,18.06-.03,36.13.02,54.19-.06,2.23-.01,2.94.52,2.9,2.85-.15,7.68-.15,15.37,0,23.05.05,2.37-.57,3.06-2.99,3.04-16.14-.11-32.28.08-48.42-.12-6.81-.08-11.28,2.94-14.29,8.73-3.81,7.3-4.57,15.17-4.27,23.21.25,6.79,1.61,13.33,4.92,19.34,2.95,5.37,7.12,8.29,13.68,8.17,16.14-.28,32.28-.04,48.42-.15,2.45-.02,3,.71,2.95,3.05-.15,7.78-.2,15.56.02,23.33.08,2.81-.91,3.26-3.4,3.23-9.51-.13-19.02-.05-28.54-.05Z"/>
    <path class="cls-1" d="M405.62,79.46c.31,8.68-.6,19.36.48,29.99.77,7.61,3.2,14.61,8.48,20.36,3.57,3.88,8.07,5.74,13.35,5.74,14.89,0,29.79.08,44.68-.07,2.67-.03,3.14.78,3.1,3.22-.15,7.97-.1,15.94-.03,23.91.02,1.78-.34,2.51-2.36,2.49-16.53-.12-33.06.12-49.58-.2-24.78-.48-42.83-16.35-47.05-40.77-1.37-7.9-1.27-15.81-1.14-23.79.27-16.51.16-33.04,0-49.56-.03-2.84.77-3.49,3.51-3.43,7.97.19,15.95.16,23.92.01,2.22-.04,2.72.64,2.69,2.76-.12,9.12-.05,18.25-.05,29.34Z"/>
    <path class="cls-1" d="M365.48,106.45c0,18.53-.04,37.06.06,55.6.01,2.37-.55,3.1-2.99,3.05-8.16-.15-16.33-.14-24.49,0-2.23.04-2.69-.67-2.69-2.76.06-37.45.07-74.9-.01-112.34,0-2.32.83-2.63,2.84-2.61,8.16.1,16.33.14,24.5-.02,2.35-.04,2.84.71,2.83,2.91-.08,18.72-.05,37.45-.05,56.17Z"/>
    <path class="cls-2" d="M124.12,71.23c-.02.25.08,1.26-.21,2.15-2.52,7.74-4.89,15.54-7.76,23.15-1.6,4.25-5.13,6.89-9.66,7.86-7.13,1.53-14.25,3.09-21.42,4.4-4.96.91-9.36-.55-12.78-4.31-4.85-5.32-9.63-10.7-14.35-16.13-3.33-3.83-4.38-8.33-2.88-13.16,2.21-7.13,4.57-14.22,7.08-21.26,1.66-4.67,5.17-7.61,9.99-8.67,7.12-1.57,14.28-2.95,21.43-4.33,5.14-.99,9.5.66,12.98,4.45,4.6,5.02,9.05,10.2,13.61,15.25,2.55,2.83,3.98,6.06,3.97,10.6Z"/>
    <path class="cls-1" d="M66.44,112.8c-.44,3.16-2.34,6.59-3.15,10.32-1.39,6.44-5.34,9.6-11.79,10.22-2.84.27-5.62,1.17-8.45,1.67-3.35.58-6.28-.34-8.59-2.88-2.84-3.12-5.68-6.25-8.4-9.47-2.14-2.53-2.62-5.56-1.69-8.67,1.2-4.03,2.55-8.03,4-11.98,1.13-3.07,3.36-5.1,6.62-5.81,4.12-.91,8.23-1.85,12.38-2.59,3.33-.6,6.28.38,8.6,2.92,2.71,2.98,5.37,6.01,8.06,9.01,1.67,1.87,2.45,4.08,2.42,7.27Z"/>
    <path class="cls-1" d="M97.05,16.1c-.42,3.15-1.7,6.06-2.71,9.04-3.63,10.69-1.62,8.87-12.92,11.26-2.16.46-4.36.75-6.47,1.35-2.65.76-4.62.03-6.37-2.03-2.8-3.29-5.68-6.51-8.62-9.67-1.85-1.99-2.17-4.11-1.29-6.62,1.46-4.16,2.85-8.35,4.18-12.55.71-2.25,2.13-3.5,4.45-3.95,4.42-.86,8.83-1.81,13.24-2.75,2.35-.5,4.3,0,5.94,1.9,2.94,3.42,5.97,6.76,8.98,10.12,1,1.11,1.72,2.31,1.6,3.89Z"/>
    <path class="cls-1" d="M170.71,117.14h-8.14c-1.54,0-2.97.82-3.74,2.16l-4.07,7.05c-.77,1.34-.77,2.98,0,4.32l4.07,7.05c.77,1.34,2.2,2.16,3.74,2.16h8.14c1.54,0,2.97-.82,3.74-2.16l4.07-7.05c.77-1.34.77-2.98,0-4.32l-4.07-7.05c-.77-1.34-2.2-2.16-3.74-2.16Z"/>
  </g>
  <g>
    <path class="cls-3" d="M10.61,237.47c-3.3-1.75-5.89-4.2-7.78-7.33-1.89-3.13-2.83-6.68-2.83-10.64s.94-7.51,2.83-10.64c1.89-3.13,4.48-5.57,7.78-7.33,3.3-1.75,7.03-2.63,11.18-2.63,3.62,0,6.88.64,9.79,1.92,2.9,1.28,5.32,3.13,7.24,5.54l-7.13,6.45c-2.57-3.09-5.68-4.64-9.34-4.64-2.15,0-4.07.47-5.74,1.41-1.68.94-2.98,2.27-3.9,3.99-.92,1.72-1.39,3.69-1.39,5.91s.46,4.2,1.39,5.91c.92,1.72,2.23,3.05,3.9,3.99,1.68.94,3.59,1.41,5.74,1.41,3.66,0,6.77-1.55,9.34-4.64l7.13,6.45c-1.92,2.42-4.34,4.26-7.24,5.55-2.91,1.28-6.17,1.92-9.79,1.92-4.15,0-7.88-.88-11.18-2.63Z"/>
    <path class="cls-3" d="M51.63,237.44c-3.34-1.77-5.96-4.22-7.87-7.36-1.91-3.13-2.86-6.66-2.86-10.58s.95-7.45,2.86-10.58c1.9-3.13,4.53-5.58,7.87-7.36,3.34-1.77,7.1-2.66,11.29-2.66s7.95.89,11.29,2.66c3.34,1.77,5.96,4.23,7.87,7.36,1.9,3.13,2.86,6.66,2.86,10.58s-.95,7.45-2.86,10.58c-1.91,3.13-4.53,5.58-7.87,7.36-3.34,1.77-7.1,2.66-11.29,2.66s-7.95-.89-11.29-2.66ZM68.36,229.4c1.62-.94,2.9-2.27,3.85-3.99.94-1.72,1.42-3.69,1.42-5.91s-.47-4.2-1.42-5.91c-.94-1.72-2.23-3.05-3.85-3.99-1.62-.94-3.43-1.41-5.43-1.41s-3.81.47-5.43,1.41c-1.62.94-2.91,2.27-3.85,3.99-.94,1.72-1.41,3.69-1.41,5.91s.47,4.2,1.41,5.91c.94,1.72,2.23,3.05,3.85,3.99,1.62.94,3.43,1.41,5.43,1.41s3.81-.47,5.43-1.41Z"/>
    <path class="cls-3" d="M90.82,199.69h18.73c4.34,0,8.19.81,11.54,2.43,3.36,1.62,5.96,3.92,7.81,6.9,1.85,2.98,2.77,6.47,2.77,10.47s-.92,7.49-2.77,10.47c-1.85,2.98-4.45,5.28-7.81,6.9-3.36,1.62-7.21,2.43-11.54,2.43h-18.73v-39.61ZM109.1,230.36c3.4,0,6.12-.96,8.18-2.89,2.06-1.92,3.08-4.58,3.08-7.98s-1.03-6.05-3.08-7.98c-2.06-1.92-4.78-2.89-8.18-2.89h-7.07v21.73h7.07Z"/>
    <path class="cls-3" d="M137.56,199.69h11.2v39.61h-11.2v-39.61Z"/>
    <path class="cls-3" d="M183.28,218.65h9.9v16.41c-2.26,1.62-4.87,2.87-7.81,3.73-2.94.87-5.89,1.3-8.83,1.3-4.15,0-7.88-.88-11.2-2.63-3.32-1.75-5.92-4.2-7.81-7.33-1.89-3.13-2.83-6.68-2.83-10.64s.94-7.51,2.83-10.64c1.89-3.13,4.51-5.57,7.87-7.33,3.36-1.75,7.15-2.63,11.37-2.63,3.7,0,7.02.62,9.96,1.87s5.39,3.04,7.36,5.38l-7.13,6.45c-2.68-2.94-5.88-4.41-9.62-4.41-3.4,0-6.13,1.03-8.2,3.08-2.08,2.06-3.11,4.8-3.11,8.23,0,2.19.47,4.14,1.41,5.86.94,1.72,2.26,3.06,3.96,4.02,1.7.96,3.64,1.44,5.83,1.44s4.17-.43,6.05-1.3v-10.86Z"/>
    <path class="cls-3" d="M209,237.44c-3.34-1.77-5.96-4.22-7.87-7.36-1.91-3.13-2.86-6.66-2.86-10.58s.95-7.45,2.86-10.58c1.9-3.13,4.53-5.58,7.87-7.36,3.34-1.77,7.1-2.66,11.29-2.66s7.95.89,11.29,2.66c3.34,1.77,5.96,4.23,7.87,7.36,1.9,3.13,2.86,6.66,2.86,10.58s-.95,7.45-2.86,10.58c-1.91,3.13-4.53,5.58-7.87,7.36-3.34,1.77-7.1,2.66-11.29,2.66s-7.95-.89-11.29-2.66ZM225.72,229.4c1.62-.94,2.9-2.27,3.85-3.99.94-1.72,1.42-3.69,1.42-5.91s-.47-4.2-1.42-5.91c-.94-1.72-2.23-3.05-3.85-3.99-1.62-.94-3.43-1.41-5.43-1.41s-3.81.47-5.43,1.41c-1.62.94-2.91,2.27-3.85,3.99-.94,1.72-1.41,3.69-1.41,5.91s.47,4.2,1.41,5.91c.94,1.72,2.23,3.05,3.85,3.99,1.62.94,3.43,1.41,5.43,1.41s3.81-.47,5.43-1.41Z"/>
    <path class="cls-3" d="M264.65,199.69h18.73c4.34,0,8.19.81,11.54,2.43,3.36,1.62,5.96,3.92,7.81,6.9,1.85,2.98,2.77,6.47,2.77,10.47s-.92,7.49-2.77,10.47c-1.85,2.98-4.45,5.28-7.81,6.9-3.36,1.62-7.21,2.43-11.54,2.43h-18.73v-39.61ZM282.93,230.36c3.4,0,6.12-.96,8.18-2.89,2.06-1.92,3.08-4.58,3.08-7.98s-1.03-6.05-3.08-7.98c-2.06-1.92-4.78-2.89-8.18-2.89h-7.07v21.73h7.07Z"/>
    <path class="cls-3" d="M343.19,230.65v8.66h-31.8v-39.61h31.07v8.66h-19.97v6.68h17.6v8.37h-17.6v7.24h20.71Z"/>
    <path class="cls-3" d="M397.68,230.65v8.66h-31.8v-39.61h31.07v8.66h-19.97v6.68h17.6v8.37h-17.6v7.24h20.71ZM383.48,187.87h10.75l-10.64,8.6h-7.7l7.58-8.6Z"/>
    <path class="cls-3" d="M412.34,208.58h-12.17v-8.88h35.48v8.88h-12.11v30.73h-11.2v-30.73Z"/>
    <path class="cls-3" d="M439.84,199.69h11.2v39.61h-11.2v-39.61Z"/>
    <path class="cls-3" d="M467.59,237.47c-3.3-1.75-5.9-4.2-7.78-7.33-1.89-3.13-2.83-6.68-2.83-10.64s.94-7.51,2.83-10.64c1.89-3.13,4.48-5.57,7.78-7.33,3.3-1.75,7.03-2.63,11.18-2.63,3.62,0,6.88.64,9.79,1.92,2.9,1.28,5.32,3.13,7.24,5.54l-7.13,6.45c-2.57-3.09-5.68-4.64-9.34-4.64-2.15,0-4.07.47-5.74,1.41-1.68.94-2.98,2.27-3.9,3.99-.92,1.72-1.39,3.69-1.39,5.91s.46,4.2,1.39,5.91c.92,1.72,2.22,3.05,3.9,3.99,1.68.94,3.59,1.41,5.74,1.41,3.66,0,6.77-1.55,9.34-4.64l7.13,6.45c-1.92,2.42-4.34,4.26-7.24,5.55-2.91,1.28-6.17,1.92-9.79,1.92-4.15,0-7.88-.88-11.18-2.63Z"/>
    <path class="cls-3" d="M526.64,231.61h-16.75l-3.11,7.7h-11.43l17.48-39.61h11.04l17.54,39.61h-11.66l-3.11-7.7ZM523.36,223.35l-5.09-12.68-5.09,12.68h10.19Z"/>
  </g>
</svg>