<?xml version="1.0" encoding="UTF-8"?>
<svg id="Capa_1" data-name="Capa 1" xmlns="http://www.w3.org/2000/svg" xmlns:xlink="http://www.w3.org/1999/xlink" version="1.1" viewBox="0 0 1080 1080">
  <defs>
    <style>
      .cls-1 {
        fill: #fff;
        filter: url(#drop-shadow-1);
      }

      .cls-1, .cls-2 {
        stroke-width: 0px;
      }

      .cls-3 {
        fill: #e25b19;
        font-family: Montserrat-ExtraBold, Montserrat;
        font-size: 91.4px;
        font-weight: 700;
      }

      .cls-2 {
        fill: #601b00;
      }
    </style>
    <filter id="drop-shadow-1" filterUnits="userSpaceOnUse">
      <feOffset dx="8.2" dy="8.2"/>
      <feGaussianBlur result="blur" stdDeviation="2.9"/>
      <feFlood flood-color="#000" flood-opacity=".8"/>
      <feComposite in2="blur" operator="in"/>
      <feComposite in="SourceGraphic"/>
    </filter>
  </defs>
  <rect class="cls-1" x="27" y="439.2" width="1028" height="227.7" rx="102.1" ry="102.1"/>
  <path class="cls-2" d="M129.1,666.8c-56.4,1.9-104.6-45.2-105.3-101.5,0-2.8-.3-19.6-.3-22.8-1.3-38.2,20.1-75.7,53.5-94.5,16.5-9.6,35.8-14.5,54.9-14.2,154.5-1.1,338.2-1.1,492.7.1,109.4,1,219.1,2.3,328.5,5.2-263.8,6.6-538.7,6.9-802.9,5.5-10.3,0-25.6-.7-35.6.9-22.9,3.3-44.5,15.2-59.7,32.7-15.4,17.7-24.1,40.7-24.2,64.3,0,3.2-.3,19.9-.3,22.8-.8,54.5,44.4,100.4,98.8,101.5h0Z"/>
  <text class="cls-3" transform="translate(62.4 585.1)"><tspan x="0" y="0">PORTAL DE SOCIOS</tspan></text>
</svg>