<?xml version="1.0" encoding="UTF-8"?>
<svg id="Capa_1" data-name="Capa 1" xmlns="http://www.w3.org/2000/svg" xmlns:xlink="http://www.w3.org/1999/xlink" viewBox="0 0 1049.97 252.35">
  <defs>
    <style>
      .cls-1 {
        fill: #e25b19;
        filter: url(#drop-shadow-1);
      }

      .cls-1, .cls-2, .cls-3 {
        stroke-width: 0px;
      }

      .cls-2 {
        fill: #fff;
      }

      .cls-3 {
        fill: #601b00;
      }
    </style>
    <filter id="drop-shadow-1" filterUnits="userSpaceOnUse">
      <feOffset dx="8.19" dy="8.19"/>
      <feGaussianBlur result="blur" stdDeviation="2.89"/>
      <feFlood flood-color="#000" flood-opacity=".79"/>
      <feComposite in2="blur" operator="in"/>
      <feComposite in="SourceGraphic"/>
    </filter>
  </defs>
  <rect class="cls-1" x="3.63" y="6.18" width="1028" height="227.67" rx="102.07" ry="102.07"/>
  <path class="cls-3" d="M105.7,233.85C49.29,235.71,1.11,188.66.38,132.36c-.04-2.82-.3-19.61-.33-22.83C-1.21,71.34,20.14,33.81,53.54,15.01,70.04,5.44,89.31.52,108.41.82c154.51-1.13,338.25-1.09,492.7.11,109.38,1.02,219.12,2.29,328.46,5.25-263.77,6.61-538.69,6.94-802.91,5.47-10.27.06-25.58-.68-35.64.88-22.93,3.28-44.54,15.15-59.65,32.75C15.97,62.96,7.23,85.99,7.21,109.53c-.05,3.19-.29,19.86-.3,22.79-.85,54.51,44.42,100.36,98.79,101.52h0Z"/>
  <g>
    <path class="cls-2" d="M89.79,90.97c4.26,1.92,7.55,4.66,9.87,8.22,2.31,3.56,3.47,7.75,3.47,12.57s-1.16,8.99-3.47,12.52c-2.32,3.53-5.61,6.26-9.87,8.18-4.27,1.92-9.29,2.88-15.08,2.88h-11.15v16.72h-18.09v-63.97h29.24c5.79,0,10.81.96,15.08,2.88ZM82.02,118.66c1.89-1.61,2.83-3.91,2.83-6.9s-.95-5.3-2.83-6.95c-1.89-1.65-4.69-2.47-8.41-2.47h-10.05v18.73h10.05c3.71,0,6.52-.81,8.41-2.42Z"/>
    <path class="cls-2" d="M126.85,149.05c-5.39-2.86-9.63-6.82-12.7-11.88-3.08-5.06-4.61-10.75-4.61-17.09s1.54-12.03,4.61-17.09c3.08-5.06,7.31-9.02,12.7-11.88,5.39-2.86,11.47-4.29,18.23-4.29s12.84,1.43,18.23,4.29c5.39,2.86,9.62,6.82,12.7,11.88,3.08,5.06,4.61,10.75,4.61,17.09s-1.54,12.03-4.61,17.09c-3.08,5.06-7.31,9.02-12.7,11.88-5.39,2.86-11.47,4.29-18.23,4.29s-12.84-1.43-18.23-4.29ZM153.85,136.07c2.62-1.52,4.69-3.67,6.21-6.44,1.52-2.77,2.28-5.95,2.28-9.55s-.76-6.78-2.28-9.55c-1.52-2.77-3.6-4.92-6.21-6.44-2.62-1.52-5.54-2.28-8.77-2.28s-6.15.76-8.77,2.28c-2.62,1.52-4.69,3.67-6.21,6.44-1.52,2.77-2.28,5.96-2.28,9.55s.76,6.78,2.28,9.55c1.52,2.77,3.59,4.92,6.21,6.44,2.62,1.52,5.54,2.29,8.77,2.29s6.15-.76,8.77-2.29Z"/>
    <path class="cls-2" d="M218.09,135.07h-9.87v17h-18.09v-63.97h29.24c5.79,0,10.81.96,15.08,2.88,4.26,1.92,7.55,4.66,9.87,8.22,2.31,3.56,3.47,7.75,3.47,12.57s-1.08,8.67-3.24,12.11c-2.16,3.44-5.25,6.14-9.28,8.09l13.8,20.1h-19.37l-11.61-17ZM226.68,104.82c-1.89-1.65-4.69-2.47-8.41-2.47h-10.05v18.73h10.05c3.71,0,6.52-.81,8.41-2.42,1.89-1.61,2.83-3.91,2.83-6.9s-.95-5.3-2.83-6.95Z"/>
    <path class="cls-2" d="M270.45,102.44h-19.65v-14.35h57.3v14.35h-19.56v49.62h-18.09v-49.62Z"/>
    <path class="cls-2" d="M354.52,139.64h-27.05l-5.03,12.43h-18.46l28.24-63.97h17.82l28.33,63.97h-18.82l-5.03-12.43ZM349.22,126.29l-8.22-20.47-8.22,20.47h16.45Z"/>
    <path class="cls-2" d="M383.49,88.1h18.09v49.62h30.52v14.35h-48.62v-63.97Z"/>
    <path class="cls-2" d="M465.82,88.1h30.25c7,0,13.22,1.31,18.64,3.93,5.42,2.62,9.63,6.34,12.61,11.15,2.98,4.81,4.48,10.45,4.48,16.91s-1.49,12.09-4.48,16.91c-2.98,4.81-7.19,8.53-12.61,11.15-5.42,2.62-11.64,3.93-18.64,3.93h-30.25v-63.97ZM495.34,137.63c5.48,0,9.88-1.55,13.2-4.66,3.32-3.11,4.98-7.4,4.98-12.88s-1.66-9.78-4.98-12.88c-3.32-3.11-7.72-4.66-13.2-4.66h-11.42v35.09h11.42Z"/>
    <path class="cls-2" d="M592.66,138.08v13.98h-51.36v-63.97h50.17v13.98h-32.26v10.78h28.42v13.52h-28.42v11.7h33.45Z"/>
    <path class="cls-2" d="M636.7,151.42c-4.88-1.28-8.83-2.98-11.88-5.12l5.94-13.34c2.86,1.89,6.18,3.41,9.96,4.57,3.78,1.16,7.49,1.74,11.15,1.74,6.95,0,10.42-1.74,10.42-5.21,0-1.83-.99-3.18-2.97-4.07-1.98-.88-5.16-1.81-9.55-2.79-4.81-1.04-8.83-2.15-12.06-3.34-3.23-1.19-6-3.09-8.32-5.71-2.32-2.62-3.47-6.15-3.47-10.6,0-3.9,1.07-7.42,3.2-10.55,2.13-3.14,5.31-5.62,9.55-7.45,4.23-1.83,9.43-2.74,15.58-2.74,4.2,0,8.35.47,12.43,1.42,4.08.95,7.68,2.33,10.78,4.16l-5.57,13.43c-6.09-3.29-12-4.93-17.73-4.93-3.6,0-6.21.53-7.86,1.6-1.64,1.07-2.47,2.45-2.47,4.16s.97,2.99,2.92,3.84c1.95.85,5.09,1.74,9.41,2.65,4.87,1.04,8.91,2.15,12.11,3.34,3.2,1.19,5.97,3.08,8.32,5.67,2.34,2.59,3.52,6.11,3.52,10.55,0,3.84-1.07,7.31-3.2,10.42-2.13,3.11-5.33,5.59-9.6,7.45-4.26,1.86-9.44,2.79-15.53,2.79-5.18,0-10.21-.64-15.08-1.92Z"/>
    <path class="cls-2" d="M702.45,149.05c-5.39-2.86-9.63-6.82-12.7-11.88-3.08-5.06-4.61-10.75-4.61-17.09s1.54-12.03,4.61-17.09c3.08-5.06,7.31-9.02,12.7-11.88,5.39-2.86,11.47-4.29,18.23-4.29s12.84,1.43,18.23,4.29c5.39,2.86,9.62,6.82,12.7,11.88,3.08,5.06,4.62,10.75,4.62,17.09s-1.54,12.03-4.62,17.09c-3.08,5.06-7.31,9.02-12.7,11.88-5.39,2.86-11.47,4.29-18.23,4.29s-12.84-1.43-18.23-4.29ZM729.46,136.07c2.62-1.52,4.69-3.67,6.21-6.44,1.52-2.77,2.29-5.95,2.29-9.55s-.76-6.78-2.29-9.55c-1.52-2.77-3.59-4.92-6.21-6.44-2.62-1.52-5.54-2.28-8.77-2.28s-6.15.76-8.77,2.28c-2.62,1.52-4.69,3.67-6.21,6.44-1.52,2.77-2.28,5.96-2.28,9.55s.76,6.78,2.28,9.55c1.52,2.77,3.59,4.92,6.21,6.44,2.62,1.52,5.54,2.29,8.77,2.29s6.15-.76,8.77-2.29Z"/>
    <path class="cls-2" d="M779.58,149.09c-5.33-2.83-9.52-6.78-12.57-11.83-3.05-5.06-4.57-10.78-4.57-17.18s1.52-12.12,4.57-17.18c3.05-5.06,7.23-9,12.57-11.83,5.33-2.83,11.35-4.25,18.05-4.25,5.85,0,11.12,1.04,15.81,3.11,4.69,2.07,8.59,5.06,11.7,8.96l-11.51,10.42c-4.14-4.99-9.17-7.49-15.08-7.49-3.47,0-6.57.76-9.28,2.28-2.71,1.52-4.81,3.67-6.31,6.44-1.49,2.77-2.24,5.96-2.24,9.55s.75,6.78,2.24,9.55c1.49,2.77,3.59,4.92,6.31,6.44,2.71,1.52,5.8,2.29,9.28,2.29,5.91,0,10.93-2.5,15.08-7.49l11.51,10.42c-3.11,3.9-7.01,6.88-11.7,8.96-4.69,2.07-9.96,3.11-15.81,3.11-6.7,0-12.72-1.42-18.05-4.25Z"/>
    <path class="cls-2" d="M833.17,88.1h18.09v63.97h-18.09v-63.97Z"/>
    <path class="cls-2" d="M878.18,149.05c-5.39-2.86-9.63-6.82-12.7-11.88-3.08-5.06-4.61-10.75-4.61-17.09s1.54-12.03,4.61-17.09c3.08-5.06,7.31-9.02,12.7-11.88,5.39-2.86,11.47-4.29,18.23-4.29s12.84,1.43,18.23,4.29c5.39,2.86,9.62,6.82,12.7,11.88,3.08,5.06,4.62,10.75,4.62,17.09s-1.54,12.03-4.62,17.09c-3.08,5.06-7.31,9.02-12.7,11.88-5.39,2.86-11.47,4.29-18.23,4.29s-12.84-1.43-18.23-4.29ZM905.18,136.07c2.62-1.52,4.69-3.67,6.21-6.44,1.52-2.77,2.29-5.95,2.29-9.55s-.76-6.78-2.29-9.55c-1.52-2.77-3.59-4.92-6.21-6.44-2.62-1.52-5.54-2.28-8.77-2.28s-6.15.76-8.77,2.28c-2.62,1.52-4.69,3.67-6.21,6.44-1.52,2.77-2.28,5.96-2.28,9.55s.76,6.78,2.28,9.55c1.52,2.77,3.59,4.92,6.21,6.44,2.62,1.52,5.54,2.29,8.77,2.29s6.15-.76,8.77-2.29Z"/>
    <path class="cls-2" d="M948.86,151.42c-4.88-1.28-8.83-2.98-11.88-5.12l5.94-13.34c2.86,1.89,6.18,3.41,9.96,4.57,3.78,1.16,7.49,1.74,11.15,1.74,6.95,0,10.42-1.74,10.42-5.21,0-1.83-.99-3.18-2.97-4.07-1.98-.88-5.16-1.81-9.55-2.79-4.81-1.04-8.83-2.15-12.06-3.34-3.23-1.19-6-3.09-8.32-5.71-2.32-2.62-3.47-6.15-3.47-10.6,0-3.9,1.07-7.42,3.2-10.55,2.13-3.14,5.31-5.62,9.55-7.45,4.23-1.83,9.43-2.74,15.58-2.74,4.2,0,8.35.47,12.43,1.42,4.08.95,7.68,2.33,10.78,4.16l-5.57,13.43c-6.09-3.29-12-4.93-17.73-4.93-3.6,0-6.21.53-7.86,1.6-1.64,1.07-2.47,2.45-2.47,4.16s.97,2.99,2.92,3.84c1.95.85,5.09,1.74,9.41,2.65,4.87,1.04,8.91,2.15,12.11,3.34,3.2,1.19,5.97,3.08,8.32,5.67,2.34,2.59,3.52,6.11,3.52,10.55,0,3.84-1.07,7.31-3.2,10.42-2.13,3.11-5.33,5.59-9.6,7.45-4.26,1.86-9.44,2.79-15.53,2.79-5.18,0-10.21-.64-15.08-1.92Z"/>
  </g>
</svg>