<?xml version="1.0" encoding="UTF-8"?>
<svg id="Layer_1" data-name="Layer 1" xmlns="http://www.w3.org/2000/svg" viewBox="0 0 37.49 34.17">
  <defs>
    <style>
      .cls-1 {
        fill: #fff;
        stroke-width: 0px;
      }
    </style>
  </defs>
  <path class="cls-1" d="M25.32,24.4c-3.18-4.62-6.36-9.25-9.55-13.87-.49-.71-.98-1.43-1.47-2.14-.02-.03-.03-.05-.06-.07h-2.76c4.27,6.2,8.53,12.39,12.78,18.58h2.65s.04,0,.07,0c.01,0,.03,0,.04-.02-.01-.02-.03-.05-.05-.07-.55-.8-1.1-1.6-1.65-2.4Z"/>
  <path class="cls-1" d="M36.63,13.9l-6.19-10.73c-1.14-1.97-3.24-3.18-5.51-3.18h-12.38c-2.27,0-4.37,1.21-5.51,3.18L.85,13.9c-1.14,1.97-1.14,4.39,0,6.36l6.19,10.73c1.14,1.97,3.23,3.18,5.51,3.18h12.38c2.27,0,4.37-1.21,5.51-3.18l6.19-10.73c1.14-1.97,1.14-4.39,0-6.36ZM29.67,28.29h-6.14s-.03-.05-.04-.07c-1.61-2.34-3.22-4.69-4.84-7.03-.27-.4-.55-.8-.82-1.19-.02-.02-.03-.05-.06-.07-.02.02-.03.03-.05.05-.24.28-.48.56-.72.84-1.02,1.19-2.04,2.37-3.06,3.56-.92,1.07-1.83,2.13-2.75,3.2-.21.24-.41.48-.62.72h-1.75s.03-.05.05-.08c.33-.39.66-.77.99-1.16.91-1.06,1.83-2.13,2.74-3.19.97-1.13,1.95-2.27,2.92-3.4.46-.54.93-1.08,1.4-1.62.02-.02.04-.04.06-.08-.02-.03-.04-.06-.06-.09-2.11-3.07-4.23-6.14-6.34-9.21-.57-.82-1.13-1.64-1.7-2.47-.02-.03-.03-.05-.05-.08h6.14s.05.07.07.1c1.29,1.88,2.58,3.75,3.87,5.63.47.69.95,1.38,1.42,2.06.02.03.03.05.06.07.02-.02.04-.04.06-.06.17-.2.34-.4.52-.6.92-1.07,1.83-2.13,2.75-3.2.92-1.07,1.84-2.14,2.76-3.2.21-.25.43-.49.64-.74.02-.02.04-.03.04-.06h1.79c-.11.13-.23.27-.34.4-1.19,1.39-2.38,2.77-3.57,4.16-.91,1.06-1.83,2.12-2.74,3.18-.35.41-.7.81-1.05,1.22-.02.02-.03.04-.05.07.02.03.04.05.05.08,1.81,2.63,3.62,5.26,5.44,7.9.97,1.41,1.95,2.83,2.92,4.24.02.03.05.06.07.09v.03Z"/>
</svg>