<?xml version="1.0" encoding="UTF-8"?>
<svg id="Layer_1" data-name="Layer 1" xmlns="http://www.w3.org/2000/svg" viewBox="0 0 116.16 866.29">
  <defs>
    <style>
      .cls-1 {
        fill: #e05b19;
        stroke-width: 0px;
      }
    </style>
  </defs>
  <path class="cls-1" d="M11.03,13.08c-1.09,0-2.19-.4-3.06-1.2L3.57,7.8c-1.82-1.69-1.93-4.54-.25-6.36,1.69-1.82,4.54-1.93,6.36-.25l4.4,4.08c1.82,1.69,1.93,4.54.25,6.36-.89.96-2.09,1.44-3.3,1.44Z"/>
  <path class="cls-1" d="M96.57,92.26c-1.09,0-2.19-.4-3.06-1.2l-8.55-7.92c-1.82-1.69-1.93-4.54-.25-6.36,1.69-1.82,4.54-1.93,6.36-.25l8.55,7.92c1.82,1.69,1.93,4.54.25,6.36-.89.96-2.09,1.44-3.3,1.44ZM79.46,76.42c-1.09,0-2.19-.4-3.06-1.2l-8.55-7.92c-1.82-1.69-1.93-4.54-.25-6.36,1.69-1.82,4.54-1.93,6.36-.25l8.55,7.92c1.82,1.69,1.93,4.54.25,6.36-.89.96-2.09,1.44-3.3,1.44ZM62.35,60.59c-1.09,0-2.19-.4-3.06-1.2l-8.55-7.92c-1.82-1.69-1.93-4.54-.25-6.36,1.69-1.82,4.54-1.93,6.36-.25l8.55,7.92c1.82,1.69,1.93,4.54.25,6.36-.89.96-2.09,1.44-3.3,1.44ZM45.25,44.75c-1.09,0-2.19-.4-3.06-1.2l-8.55-7.92c-1.82-1.69-1.93-4.54-.25-6.36,1.69-1.82,4.54-1.93,6.36-.25l8.55,7.92c1.82,1.69,1.93,4.54.25,6.36-.89.96-2.09,1.44-3.3,1.44ZM28.14,28.91c-1.09,0-2.19-.4-3.06-1.2l-8.55-7.92c-1.82-1.69-1.93-4.54-.25-6.36,1.69-1.82,4.54-1.93,6.36-.25l8.55,7.92c1.82,1.69,1.93,4.54.25,6.36-.89.96-2.09,1.44-3.3,1.44Z"/>
  <path class="cls-1" d="M105.13,108.33c-1.21,0-2.42-.49-3.3-1.44-1.69-1.82-1.58-4.67.25-6.36l.84-.77-.84-.77c-1.82-1.69-1.93-4.54-.25-6.36,1.69-1.82,4.54-1.93,6.36-.25l7.97,7.38-7.97,7.38c-.87.8-1.96,1.2-3.06,1.2Z"/>
  <path class="cls-1" d="M19.58,187.52c-1.21,0-2.42-.49-3.3-1.44-1.69-1.82-1.58-4.67.25-6.36l8.55-7.92c1.82-1.69,4.67-1.58,6.36.25,1.69,1.82,1.58,4.67-.25,6.36l-8.55,7.92c-.87.8-1.96,1.2-3.06,1.2ZM36.69,171.68c-1.21,0-2.42-.49-3.3-1.44-1.69-1.82-1.58-4.67.25-6.36l8.55-7.92c1.82-1.69,4.67-1.58,6.36.25,1.69,1.82,1.58,4.67-.25,6.36l-8.55,7.92c-.87.8-1.96,1.2-3.06,1.2ZM53.8,155.84c-1.21,0-2.42-.49-3.3-1.44-1.69-1.82-1.58-4.67.25-6.36l8.55-7.92c1.82-1.69,4.67-1.58,6.36.25,1.69,1.82,1.58,4.67-.25,6.36l-8.55,7.92c-.87.8-1.96,1.2-3.06,1.2ZM70.91,140c-1.21,0-2.42-.49-3.3-1.44-1.69-1.82-1.58-4.67.25-6.36l8.55-7.92c1.82-1.69,4.67-1.58,6.36.25,1.69,1.82,1.58,4.67-.25,6.36l-8.55,7.92c-.87.8-1.96,1.2-3.06,1.2ZM88.02,124.17c-1.21,0-2.42-.49-3.3-1.44-1.69-1.82-1.58-4.67.25-6.36l8.55-7.92c1.82-1.69,4.67-1.58,6.36.25,1.69,1.82,1.58,4.67-.25,6.36l-8.55,7.92c-.87.8-1.96,1.2-3.06,1.2Z"/>
  <path class="cls-1" d="M11.03,203.59c-1.09,0-2.19-.4-3.06-1.2l-7.97-7.38,7.97-7.38c1.82-1.69,4.67-1.58,6.36.25,1.69,1.82,1.58,4.67-.25,6.36l-.84.77.84.77c1.82,1.69,1.93,4.54.25,6.36-.89.96-2.09,1.44-3.3,1.44Z"/>
  <path class="cls-1" d="M96.57,282.77c-1.09,0-2.19-.4-3.06-1.2l-8.55-7.92c-1.82-1.69-1.93-4.54-.25-6.36s4.53-1.93,6.36-.25l8.55,7.92c1.82,1.69,1.93,4.54.25,6.36-.89.96-2.09,1.44-3.3,1.44ZM79.46,266.93c-1.09,0-2.19-.4-3.06-1.2l-8.55-7.92c-1.82-1.69-1.93-4.54-.25-6.36,1.69-1.82,4.54-1.93,6.36-.25l8.55,7.92c1.82,1.69,1.93,4.54.25,6.36-.89.96-2.09,1.44-3.3,1.44ZM62.35,251.1c-1.09,0-2.19-.4-3.06-1.2l-8.55-7.92c-1.82-1.69-1.93-4.54-.25-6.36,1.69-1.82,4.54-1.93,6.36-.25l8.55,7.92c1.82,1.69,1.93,4.54.25,6.36-.89.96-2.09,1.44-3.3,1.44ZM45.25,235.26c-1.09,0-2.19-.4-3.06-1.2l-8.55-7.92c-1.82-1.69-1.93-4.54-.25-6.36s4.54-1.93,6.36-.25l8.55,7.92c1.82,1.69,1.93,4.54.25,6.36-.89.96-2.09,1.44-3.3,1.44ZM28.14,219.42c-1.09,0-2.19-.4-3.06-1.2l-8.55-7.92c-1.82-1.69-1.93-4.54-.25-6.36,1.69-1.82,4.54-1.93,6.36-.25l8.55,7.92c1.82,1.69,1.93,4.54.25,6.36-.89.96-2.09,1.44-3.3,1.44Z"/>
  <path class="cls-1" d="M105.13,298.84c-1.21,0-2.42-.49-3.3-1.44-1.69-1.82-1.58-4.67.25-6.36l.84-.77-.84-.77c-1.82-1.69-1.93-4.54-.25-6.36,1.69-1.82,4.54-1.93,6.36-.25l7.97,7.38-7.97,7.38c-.87.8-1.96,1.2-3.06,1.2Z"/>
  <path class="cls-1" d="M19.58,378.03c-1.21,0-2.42-.48-3.3-1.44-1.69-1.82-1.58-4.67.25-6.36l8.55-7.92c1.82-1.69,4.67-1.58,6.36.25,1.69,1.82,1.58,4.67-.25,6.36l-8.55,7.92c-.87.8-1.96,1.2-3.06,1.2ZM36.69,362.19c-1.21,0-2.42-.48-3.3-1.44-1.69-1.82-1.58-4.67.25-6.36l8.55-7.92c1.82-1.69,4.67-1.58,6.36.25,1.69,1.82,1.58,4.67-.25,6.36l-8.55,7.92c-.87.8-1.96,1.2-3.06,1.2ZM53.8,346.35c-1.21,0-2.42-.48-3.3-1.44-1.69-1.82-1.58-4.67.25-6.36l8.55-7.92c1.82-1.69,4.67-1.58,6.36.25,1.69,1.82,1.58,4.67-.25,6.36l-8.55,7.92c-.87.8-1.96,1.2-3.06,1.2ZM70.91,330.51c-1.21,0-2.42-.48-3.3-1.44-1.69-1.82-1.58-4.67.25-6.36l8.55-7.92c1.82-1.69,4.67-1.58,6.36.25,1.69,1.82,1.58,4.67-.25,6.36l-8.55,7.92c-.87.8-1.96,1.2-3.06,1.2ZM88.02,314.68c-1.21,0-2.42-.48-3.3-1.44-1.69-1.82-1.58-4.67.25-6.36l8.55-7.92c1.82-1.69,4.67-1.58,6.36.25,1.69,1.82,1.58,4.67-.25,6.36l-8.55,7.92c-.87.8-1.96,1.2-3.06,1.2Z"/>
  <path class="cls-1" d="M11.03,394.09c-1.09,0-2.19-.4-3.06-1.2l-7.97-7.38,7.97-7.38c1.82-1.69,4.67-1.58,6.36.25,1.69,1.82,1.58,4.67-.25,6.36l-.84.77.84.77c1.82,1.69,1.93,4.54.25,6.36-.89.96-2.09,1.44-3.3,1.44Z"/>
  <path class="cls-1" d="M96.57,473.28c-1.09,0-2.19-.4-3.06-1.2l-8.55-7.92c-1.82-1.69-1.93-4.54-.25-6.36,1.69-1.82,4.53-1.93,6.36-.25l8.55,7.92c1.82,1.69,1.93,4.54.25,6.36-.89.96-2.09,1.44-3.3,1.44ZM79.46,457.44c-1.09,0-2.19-.4-3.06-1.2l-8.55-7.92c-1.82-1.69-1.93-4.54-.25-6.36,1.69-1.82,4.54-1.93,6.36-.25l8.55,7.92c1.82,1.69,1.93,4.54.25,6.36-.89.96-2.09,1.44-3.3,1.44ZM62.35,441.61c-1.09,0-2.19-.4-3.06-1.2l-8.55-7.92c-1.82-1.69-1.93-4.54-.25-6.36,1.69-1.82,4.54-1.93,6.36-.25l8.55,7.92c1.82,1.69,1.93,4.54.25,6.36-.89.96-2.09,1.44-3.3,1.44ZM45.25,425.77c-1.09,0-2.19-.4-3.06-1.2l-8.55-7.92c-1.82-1.69-1.93-4.54-.25-6.36,1.69-1.82,4.54-1.93,6.36-.25l8.55,7.92c1.82,1.69,1.93,4.54.25,6.36-.89.96-2.09,1.44-3.3,1.44ZM28.14,409.93c-1.09,0-2.19-.4-3.06-1.2l-8.55-7.92c-1.82-1.69-1.93-4.54-.25-6.36,1.69-1.82,4.54-1.93,6.36-.25l8.55,7.92c1.82,1.69,1.93,4.54.25,6.36-.89.96-2.09,1.44-3.3,1.44Z"/>
  <path class="cls-1" d="M105.13,489.35c-1.21,0-2.42-.48-3.3-1.44-1.69-1.82-1.58-4.67.25-6.36l.84-.77-.84-.77c-1.82-1.69-1.93-4.54-.25-6.36,1.69-1.82,4.54-1.93,6.36-.25l7.97,7.38-7.97,7.38c-.87.8-1.96,1.2-3.06,1.2Z"/>
  <path class="cls-1" d="M19.58,568.53c-1.21,0-2.42-.48-3.3-1.44-1.69-1.82-1.58-4.67.25-6.36l8.55-7.92c1.82-1.69,4.67-1.58,6.36.25,1.69,1.82,1.58,4.67-.25,6.36l-8.55,7.92c-.87.8-1.96,1.2-3.06,1.2ZM36.69,552.7c-1.21,0-2.42-.48-3.3-1.44-1.69-1.82-1.58-4.67.25-6.36l8.55-7.92c1.82-1.69,4.67-1.58,6.36.25,1.69,1.82,1.58,4.67-.25,6.36l-8.55,7.92c-.87.8-1.96,1.2-3.06,1.2ZM53.8,536.86c-1.21,0-2.42-.48-3.3-1.44-1.69-1.82-1.58-4.67.25-6.36l8.55-7.92c1.82-1.69,4.67-1.58,6.36.25,1.69,1.82,1.58,4.67-.25,6.36l-8.55,7.92c-.87.8-1.96,1.2-3.06,1.2ZM70.91,521.02c-1.21,0-2.42-.48-3.3-1.44-1.69-1.82-1.58-4.67.25-6.36l8.55-7.92c1.82-1.69,4.67-1.58,6.36.25,1.69,1.82,1.58,4.67-.25,6.36l-8.55,7.92c-.87.8-1.96,1.2-3.06,1.2ZM88.02,505.19c-1.21,0-2.42-.48-3.3-1.44-1.69-1.82-1.58-4.67.25-6.36l8.55-7.92c1.82-1.69,4.67-1.58,6.36.25,1.69,1.82,1.58,4.67-.25,6.36l-8.55,7.92c-.87.8-1.96,1.2-3.06,1.2Z"/>
  <path class="cls-1" d="M11.03,584.6c-1.09,0-2.19-.4-3.06-1.2l-7.97-7.38,7.97-7.38c1.82-1.69,4.67-1.58,6.36.25,1.69,1.82,1.58,4.67-.25,6.36l-.84.77.84.77c1.82,1.69,1.93,4.54.25,6.36-.89.96-2.09,1.44-3.3,1.44Z"/>
  <path class="cls-1" d="M96.57,663.79c-1.09,0-2.19-.4-3.06-1.2l-8.55-7.92c-1.82-1.69-1.93-4.54-.25-6.36,1.69-1.82,4.53-1.93,6.36-.25l8.55,7.92c1.82,1.69,1.93,4.54.25,6.36-.89.96-2.09,1.44-3.3,1.44ZM79.46,647.95c-1.09,0-2.19-.4-3.06-1.2l-8.55-7.92c-1.82-1.69-1.93-4.54-.25-6.36,1.69-1.82,4.54-1.93,6.36-.25l8.55,7.92c1.82,1.69,1.93,4.54.25,6.36-.89.96-2.09,1.44-3.3,1.44ZM62.35,632.11c-1.09,0-2.19-.4-3.06-1.2l-8.55-7.92c-1.82-1.69-1.93-4.54-.25-6.36,1.69-1.82,4.54-1.93,6.36-.25l8.55,7.92c1.82,1.69,1.93,4.54.25,6.36-.89.96-2.09,1.44-3.3,1.44ZM45.25,616.28c-1.09,0-2.19-.4-3.06-1.2l-8.55-7.92c-1.82-1.69-1.93-4.54-.25-6.36,1.69-1.82,4.54-1.93,6.36-.25l8.55,7.92c1.82,1.69,1.93,4.54.25,6.36-.89.96-2.09,1.44-3.3,1.44ZM28.14,600.44c-1.09,0-2.19-.4-3.06-1.2l-8.55-7.92c-1.82-1.69-1.93-4.54-.25-6.36,1.69-1.82,4.54-1.93,6.36-.25l8.55,7.92c1.82,1.69,1.93,4.54.25,6.36-.89.96-2.09,1.44-3.3,1.44Z"/>
  <path class="cls-1" d="M105.13,679.86c-1.21,0-2.42-.48-3.3-1.44-1.69-1.82-1.58-4.67.25-6.36l.84-.77-.84-.77c-1.82-1.69-1.93-4.54-.25-6.36,1.69-1.82,4.54-1.93,6.36-.25l7.97,7.38-7.97,7.38c-.87.8-1.96,1.2-3.06,1.2Z"/>
  <path class="cls-1" d="M19.58,759.04c-1.21,0-2.42-.48-3.3-1.44-1.69-1.82-1.58-4.67.25-6.36l8.55-7.92c1.82-1.69,4.67-1.58,6.36.25,1.69,1.82,1.58,4.67-.25,6.36l-8.55,7.92c-.87.8-1.96,1.2-3.06,1.2ZM36.69,743.21c-1.21,0-2.42-.48-3.3-1.44-1.69-1.82-1.58-4.67.25-6.36l8.55-7.92c1.82-1.69,4.67-1.58,6.36.25,1.69,1.82,1.58,4.67-.25,6.36l-8.55,7.92c-.87.8-1.96,1.2-3.06,1.2ZM53.8,727.37c-1.21,0-2.42-.48-3.3-1.44-1.69-1.82-1.58-4.67.25-6.36l8.55-7.92c1.82-1.69,4.67-1.58,6.36.25,1.69,1.82,1.58,4.67-.25,6.36l-8.55,7.92c-.87.8-1.96,1.2-3.06,1.2ZM70.91,711.53c-1.21,0-2.42-.48-3.3-1.44-1.69-1.82-1.58-4.67.25-6.36l8.55-7.92c1.82-1.69,4.67-1.58,6.36.25,1.69,1.82,1.58,4.67-.25,6.36l-8.55,7.92c-.87.8-1.96,1.2-3.06,1.2ZM88.02,695.7c-1.21,0-2.42-.48-3.3-1.44-1.69-1.82-1.58-4.67.25-6.36l8.55-7.92c1.82-1.69,4.67-1.58,6.36.25,1.69,1.82,1.58,4.67-.25,6.36l-8.55,7.92c-.87.8-1.96,1.2-3.06,1.2Z"/>
  <path class="cls-1" d="M11.03,775.11c-1.09,0-2.19-.4-3.06-1.2l-7.97-7.38,7.97-7.38c1.82-1.69,4.67-1.58,6.36.25,1.69,1.82,1.58,4.67-.25,6.36l-.84.77.84.77c1.82,1.69,1.93,4.54.25,6.36-.89.96-2.09,1.44-3.3,1.44Z"/>
  <path class="cls-1" d="M96.57,854.3c-1.09,0-2.19-.4-3.06-1.2l-8.55-7.92c-1.82-1.69-1.93-4.54-.25-6.36s4.54-1.93,6.36-.25l8.55,7.92c1.82,1.69,1.93,4.54.25,6.36-.89.96-2.09,1.44-3.3,1.44ZM79.46,838.46c-1.09,0-2.19-.4-3.06-1.2l-8.55-7.92c-1.82-1.69-1.93-4.54-.25-6.36,1.69-1.82,4.54-1.93,6.36-.25l8.55,7.92c1.82,1.69,1.93,4.54.25,6.36-.89.96-2.09,1.44-3.3,1.44ZM62.35,822.62c-1.09,0-2.19-.4-3.06-1.2l-8.55-7.92c-1.82-1.69-1.93-4.54-.25-6.36,1.69-1.82,4.54-1.93,6.36-.25l8.55,7.92c1.82,1.69,1.93,4.54.25,6.36-.89.96-2.09,1.44-3.3,1.44ZM45.25,806.79c-1.09,0-2.19-.4-3.06-1.2l-8.55-7.92c-1.82-1.69-1.93-4.54-.25-6.36,1.69-1.82,4.54-1.93,6.36-.25l8.55,7.92c1.82,1.69,1.93,4.54.25,6.36-.89.96-2.09,1.44-3.3,1.44ZM28.14,790.95c-1.09,0-2.19-.4-3.06-1.2l-8.55-7.92c-1.82-1.69-1.93-4.54-.25-6.36,1.69-1.82,4.54-1.93,6.36-.25l8.55,7.92c1.82,1.69,1.93,4.54.25,6.36-.89.96-2.09,1.44-3.3,1.44Z"/>
  <path class="cls-1" d="M109.53,866.29c-1.09,0-2.19-.4-3.06-1.2l-4.4-4.08c-1.82-1.69-1.93-4.54-.25-6.36,1.69-1.82,4.54-1.93,6.36-.25l4.4,4.08c1.82,1.69,1.93,4.54.25,6.36-.89.96-2.09,1.44-3.3,1.44Z"/>
</svg>