<?xml version="1.0" encoding="utf-8"?>
<!-- Generator: Adobe Illustrator 27.5.0, SVG Export Plug-In . SVG Version: 6.00 Build 0)  -->
<svg version="1.1" id="Capa_1" xmlns="http://www.w3.org/2000/svg" xmlns:xlink="http://www.w3.org/1999/xlink" x="0px" y="0px"
	 viewBox="0 0 1080 1080" style="enable-background:new 0 0 1080 1080;" xml:space="preserve">
<style type="text/css">
	.st0{fill:#FFFFFF;}
</style>
<g>
	<g>
		<g>
			<path class="st0" d="M462.98,605.82c-14.11-44.49-25.58-80.14-34.26-106.03c-16.74-49.6-21.7-59.83-24.03-62.93
				c-5.74-8.37-14.26-14.73-25.27-19.07c-10.7-4.19-22.17-6.2-34.41-6.2c-12.4,0-24.03,2.17-34.57,6.2
				c-11.01,4.34-19.53,10.7-25.58,19.22c-2.02,3.1-6.67,13.02-23.56,63.09c-11.32,33.79-22.94,69.44-34.72,106.03
				c-10.54,33.33-18.29,58.59-23.25,75.02l-2.17,7.44h75.33l67.43-202.44c0.15-0.47,0.31-0.93,0.62-1.55
				c0.15-0.47,0.47-1.24,0.62-1.86c0.16,0.47,0.31,0.93,0.47,1.24c0.16,0.47,0.31,1.09,0.47,1.55l68.51,203.06h74.25l-2.33-7.6
				C478.64,655.89,470.73,630.78,462.98,605.82z"/>
			<path class="st0" d="M503.9,457.48c-16.9,26.2-25.42,58.28-25.42,95.33c0,36.43,8.53,67.58,25.11,92.54
				c18.91,28.52,45.26,43.09,78.28,43.09h135.17v-68.82h-125.4c-11.78,0-21.08-6.98-28.37-21.24c-7.13-13.8-10.7-30.69-10.7-50.38
				c0-19.07,3.57-35.19,10.39-48.05c7.13-13.33,16.43-19.84,28.52-19.84h125.4v-67.27H581.72
				C549.32,412.83,523.12,427.87,503.9,457.48z"/>
			<rect x="741.07" y="412.83" class="st0" width="70.22" height="275.76"/>
			<path class="st0" d="M958.7,619.62c-17.05,0-30.07-7.75-39.84-23.72c-8.68-14.26-13.18-32.24-13.18-53.48V412.83h-70.22v129.28
				c-0.31,1.55-0.47,3.26-0.62,5.12c-0.15,2.02-0.15,4.81-0.15,8.22c0,17.98,2.17,34.88,6.51,50.07
				c6.67,23.56,18.14,42.63,34.41,56.42c20.77,17.67,48.67,26.66,83.24,26.66H1070v-68.82H958.7V619.62z"/>
		</g>
		<g>
			<path class="st0" d="M104.44,550.02c4.19,4.81,6.05,13.64,4.03,19.69l-9.61,28.83c-2.02,6.05-8.84,12.09-15.04,13.33l-29.76,6.2
				c-6.2,1.24-14.88-1.55-19.07-6.36l-20.15-22.79c-4.19-4.81-6.05-13.64-4.03-19.69l9.61-28.83c2.02-6.05,8.84-12.09,15.04-13.33
				l29.76-6.2c6.2-1.24,14.88,1.55,19.07,6.36L104.44,550.02z"/>
			<path class="st0" d="M237.44,446.16c6.36,7.13,9.15,20.46,6.05,29.61l-16.59,50.07c-2.95,9.15-13.18,18.14-22.48,20l-51.77,10.7
				c-9.46,1.86-22.32-2.33-28.68-9.46l-35.19-39.53c-6.36-7.13-9.15-20.46-6.05-29.61l16.74-50.22c2.95-9.15,13.18-18.14,22.48-20
				l51.77-10.7c9.46-1.86,22.32,2.33,28.68,9.46L237.44,446.16z"/>
			<path class="st0" d="M178.85,331.61c2.17,2.33,3.1,6.82,2.02,9.92l-11.47,34.57c-0.93,3.1-4.34,6.05-7.44,6.67l-35.65,7.29
				c-3.1,0.62-7.44-0.78-9.61-3.1l-24.18-27.28c-2.17-2.33-3.1-6.82-2.02-9.92l11.47-34.57c0.93-3.1,4.34-6.05,7.44-6.67l35.65-7.29
				c3.1-0.62,7.44,0.78,9.61,3.1L178.85,331.61z"/>
		</g>
		<path class="st0" d="M372.92,605.98l-11.16,20.77c-0.93,1.86-2.79,2.95-4.96,3.1l-23.56,0.78c-2.02,0-4.03-0.93-5.12-2.79
			l-12.4-20c-1.09-1.71-1.09-4.03-0.16-5.74l11.16-20.77c0.93-1.86,2.79-2.95,4.96-3.1l23.56-0.78c2.02,0,4.03,0.93,5.12,2.79
			l12.4,20C373.85,601.95,373.85,604.12,372.92,605.98z"/>
	</g>
	<g>
		<path class="st0" d="M801.23,771.85c-3.75,2.27-7.59,4.01-11.51,5.2c-3.92,1.19-7.82,1.79-11.68,1.79c-4.55,0-8.61-0.67-12.19-2
			c-3.58-1.34-6.64-3.25-9.17-5.76c-2.53-2.5-4.46-5.53-5.8-9.08c-1.34-3.55-2-7.52-2-11.89c0-4.89,0.97-9.68,2.9-14.37
			c1.93-4.69,4.66-8.88,8.18-12.57c3.52-3.69,7.79-6.68,12.79-8.95c5-2.27,10.54-3.41,16.63-3.41c8.24,0,15.29,1.76,21.14,5.29
			l-4.86,16.37h-0.26c-1.36-2.22-3.48-4.11-6.35-5.67c-2.87-1.56-6.3-2.34-10.27-2.34c-3.58,0-6.88,0.64-9.89,1.92
			c-3.01,1.28-5.58,3.07-7.71,5.37c-2.13,2.3-3.8,5.02-4.99,8.14c-1.19,3.13-1.79,6.54-1.79,10.23c0,4.72,1.32,8.47,3.96,11.25
			c2.64,2.79,6.47,4.18,11.47,4.18c3.12,0,5.66-0.65,7.59-1.96l3.75-17.56h15.6L801.23,771.85z"/>
		<path class="st0" d="M839.85,711.91l-8.44,39.56c-0.12,0.63-0.23,1.38-0.34,2.26c-0.12,0.88-0.17,1.72-0.17,2.51
			c0,2.79,0.85,4.82,2.56,6.1c1.7,1.28,3.81,1.92,6.31,1.92c1.71,0,3.38-0.26,5.03-0.77c1.65-0.51,3.17-1.28,4.56-2.3
			c1.39-1.02,2.61-2.34,3.67-3.96c1.05-1.62,1.8-3.54,2.26-5.76l8.44-39.56h14.92l-8.61,40.41c-0.97,4.66-2.44,8.67-4.43,12.02
			c-1.99,3.35-4.33,6.11-7.03,8.27c-2.7,2.16-5.7,3.75-8.99,4.77c-3.3,1.02-6.73,1.53-10.31,1.53c-3.41,0-6.57-0.41-9.46-1.24
			c-2.9-0.82-5.4-2.09-7.5-3.79c-2.1-1.71-3.75-3.88-4.95-6.52c-1.19-2.64-1.79-5.78-1.79-9.42c0-0.68,0.06-1.45,0.17-2.3
			c0.11-0.85,0.26-1.68,0.43-2.47l8.78-41.26H839.85z"/>
		<path class="st0" d="M913.09,712.25l11.08-1.62l14.07,67.1h-15.69l-2.47-14.24h-24.13l-8.27,14.24h-18.07L913.09,712.25z
			 M902,752.41h16.62l-3.58-21.23L902,752.41z"/>
		<path class="st0" d="M959.47,711.91h18.67c7.39,0,13.06,1.59,17.01,4.77c3.95,3.18,5.92,7.62,5.92,13.3c0,2.5-0.44,4.83-1.32,6.99
			c-0.88,2.16-2.1,4.14-3.67,5.92c-1.56,1.79-3.45,3.37-5.67,4.73c-2.22,1.36-4.69,2.5-7.42,3.41l15.77,26.68h-17.73l-13.47-24.47
			h-1.96l-5.2,24.47h-14.92L959.47,711.91z M967.65,743.71h0.85c2.84,0,5.33-0.3,7.46-0.89s3.89-1.42,5.29-2.47
			c1.39-1.05,2.44-2.3,3.15-3.75c0.71-1.45,1.07-3,1.07-4.65c0-2.5-0.87-4.36-2.6-5.58c-1.73-1.22-4.22-1.83-7.46-1.83h-3.67
			L967.65,743.71z"/>
		<path class="st0" d="M1005.67,777.73l13.98-65.82h18.5c5.12,0,9.64,0.68,13.56,2.05c3.92,1.36,7.19,3.3,9.8,5.8
			c2.61,2.5,4.59,5.49,5.92,8.95c1.34,3.47,2,7.3,2,11.51c0,5.51-0.95,10.57-2.86,15.18c-1.9,4.6-4.7,8.56-8.4,11.85
			c-3.7,3.3-8.23,5.87-13.6,7.72c-5.37,1.85-11.55,2.77-18.54,2.77H1005.67z M1023.49,764.09h5.29c4.09,0,7.69-0.58,10.79-1.75
			c3.1-1.16,5.71-2.78,7.84-4.86c2.13-2.07,3.74-4.56,4.82-7.46c1.08-2.9,1.62-6.08,1.62-9.55c0-2.1-0.34-4.06-1.02-5.88
			c-0.68-1.82-1.69-3.41-3.03-4.77c-1.34-1.36-3.01-2.43-5.03-3.2c-2.02-0.77-4.39-1.15-7.12-1.15h-5.97L1023.49,764.09z"/>
	</g>
</g>
</svg>
