<?xml version="1.0" encoding="utf-8"?>
<!-- Generator: Adobe Illustrator 27.5.0, SVG Export Plug-In . SVG Version: 6.00 Build 0)  -->
<svg version="1.1" id="Capa_1" xmlns="http://www.w3.org/2000/svg" xmlns:xlink="http://www.w3.org/1999/xlink" x="0px" y="0px"
	 viewBox="0 0 1080 1080" style="enable-background:new 0 0 1080 1080;" xml:space="preserve">
<style type="text/css">
	.st0{fill:#FFFFFF;}
</style>
<g>
	<g>
		<g>
			<path class="st0" d="M463.13,604.52c-13.8-43.52-25.02-78.4-33.51-103.72c-16.38-48.53-21.23-58.53-23.5-61.57
				c-5.61-8.19-13.95-14.41-24.72-18.65c-10.46-4.09-21.68-6.07-33.66-6.07c-12.13,0-23.5,2.12-33.82,6.07
				c-10.77,4.25-19.11,10.46-25.02,18.8c-1.97,3.03-6.52,12.74-23.05,61.72c-11.07,33.06-22.44,67.93-33.97,103.72
				c-10.31,32.6-17.89,57.32-22.75,73.39l-2.12,7.28h73.7l65.96-198.04c0.15-0.45,0.3-0.91,0.61-1.52c0.15-0.45,0.45-1.21,0.61-1.82
				c0.15,0.45,0.3,0.91,0.45,1.21c0.15,0.45,0.3,1.06,0.45,1.52l67.03,198.65h72.64l-2.27-7.43
				C478.45,653.5,470.72,628.93,463.13,604.52z"/>
			<path class="st0" d="M503.17,459.4c-16.53,25.63-24.87,57.02-24.87,93.26c0,35.64,8.34,66.12,24.57,90.53
				c18.5,27.9,44.28,42.16,76.58,42.16h132.23v-67.33H589c-11.52,0-20.62-6.82-27.75-20.77c-6.98-13.5-10.46-30.02-10.46-49.28
				c0-18.65,3.49-34.42,10.16-47.01c6.98-13.04,16.07-19.41,27.9-19.41h122.68v-65.81H579.29
				C547.6,415.73,521.97,430.44,503.17,459.4z"/>
			<rect x="735.18" y="415.73" class="st0" width="68.69" height="269.77"/>
			<path class="st0" d="M948.08,618.02c-16.68,0-29.42-7.58-38.97-23.2c-8.49-13.95-12.89-31.54-12.89-52.32V415.73h-68.69V542.2
				c-0.3,1.52-0.45,3.18-0.61,5c-0.15,1.97-0.15,4.7-0.15,8.04c0,17.59,2.12,34.12,6.37,48.98c6.52,23.05,17.74,41.7,33.66,55.2
				c20.32,17.29,47.62,26.08,81.43,26.08h108.73v-67.33H948.08V618.02z"/>
		</g>
		<g>
			<path class="st0" d="M112.39,549.93c4.09,4.7,5.91,13.34,3.94,19.26l-9.4,28.21c-1.97,5.91-8.64,11.83-14.71,13.04l-29.12,6.07
				c-6.07,1.21-14.56-1.52-18.65-6.22l-19.71-22.29c-4.09-4.7-5.91-13.34-3.94-19.26l9.4-28.21c1.97-5.91,8.64-11.83,14.71-13.04
				l29.12-6.07c6.07-1.21,14.56,1.52,18.65,6.22L112.39,549.93z"/>
			<path class="st0" d="M242.5,448.33c6.22,6.98,8.95,20.02,5.91,28.96l-16.23,48.98c-2.88,8.95-12.89,17.74-21.99,19.56
				l-50.65,10.46c-9.25,1.82-21.84-2.27-28.05-9.25l-34.42-38.67c-6.22-6.98-8.95-20.02-5.91-28.96l16.38-49.13
				c2.88-8.95,12.89-17.74,21.99-19.56l50.65-10.46c9.25-1.82,21.84,2.27,28.05,9.25L242.5,448.33z"/>
			<path class="st0" d="M185.18,336.27c2.12,2.27,3.03,6.67,1.97,9.71l-11.22,33.82c-0.91,3.03-4.25,5.91-7.28,6.52l-34.88,7.13
				c-3.03,0.61-7.28-0.76-9.4-3.03l-23.66-26.69c-2.12-2.27-3.03-6.67-1.97-9.7l11.22-33.82c0.91-3.03,4.25-5.91,7.28-6.52
				l34.88-7.13c3.03-0.61,7.28,0.76,9.4,3.03L185.18,336.27z"/>
		</g>
		<path class="st0" d="M375.03,604.67l-10.92,20.32c-0.91,1.82-2.73,2.88-4.85,3.03l-23.05,0.76c-1.97,0-3.94-0.91-5-2.73
			l-12.13-19.56c-1.06-1.67-1.06-3.94-0.15-5.61l10.92-20.32c0.91-1.82,2.73-2.88,4.85-3.03l23.05-0.76c1.97,0,3.94,0.91,5,2.73
			l12.13,19.56C375.94,600.73,375.94,602.85,375.03,604.67z"/>
	</g>
	<g>
		<path class="st0" d="M696.21,713.25l-2.73,16.98c-4.4-4.09-7.73-6.07-15.01-6.07c-8.49,0-16.98,6.98-18.65,16.53
			c-1.52,9.4,4.85,16.53,13.34,16.53c7.28,0,11.22-2.12,16.98-6.22l-2.73,16.98c-4.85,3.64-10.92,5.61-17.44,5.61
			c-17.14,0-31.54-11.98-28.36-32.91c3.34-20.93,21.53-32.91,38.67-32.91C687.11,707.79,692.57,709.61,696.21,713.25z"/>
		<path class="st0" d="M762.78,740.69c-3.34,20.93-20.77,32.91-37.91,32.91s-30.78-11.98-27.6-32.91
			c3.34-20.93,20.77-32.91,37.91-32.91C752.46,707.79,766.11,719.77,762.78,740.69z M715.46,740.69
			c-1.52,9.4,3.49,16.53,11.98,16.53s15.62-6.98,17.29-16.53c1.52-9.4-3.49-16.53-11.98-16.53S716.98,731.14,715.46,740.69z"/>
		<path class="st0" d="M817.82,773.14l-28.66-31.84l-4.85,30.93h-17.59l10.16-63.99h6.22l28.81,32.45l5-31.54h17.29l-10.16,63.99
			H817.82z"/>
		<path class="st0" d="M876.35,724.62l-7.58,47.16h-17.59l7.58-47.16h-18.5l2.58-15.47h54.74l-2.58,15.47H876.35z"/>
		<path class="st0" d="M895.92,772.08l10.01-62.93h17.59l-10.01,62.93H895.92z"/>
		<path class="st0" d="M982.2,763.74c-6.98,6.07-16.98,9.86-26.54,9.86c-17.14,0-31.54-11.98-28.21-32.91
			c3.34-20.93,21.53-32.91,38.67-32.91c6.52,0,12.13,1.97,15.77,5.61l-2.73,16.98c-4.4-4.09-7.73-6.07-15.01-6.07
			c-8.49,0-16.98,6.98-18.65,16.53c-1.52,9.4,4.85,16.53,13.34,16.53c4.09,0,7.58-1.21,9.4-2.88l2.58-14.56h15.16L982.2,763.74z"/>
		<path class="st0" d="M1059.54,740.69c-3.34,20.93-20.77,32.91-37.91,32.91s-30.78-11.98-27.6-32.91
			c3.34-20.93,20.77-32.91,37.91-32.91C1049.07,707.79,1062.72,719.77,1059.54,740.69z M1012.07,740.69
			c-1.52,9.4,3.49,16.53,11.98,16.53c8.49,0,15.62-6.98,17.29-16.53c1.52-9.4-3.49-16.53-11.98-16.53S1013.74,731.14,1012.07,740.69
			z"/>
	</g>
</g>
</svg>
