<?xml version="1.0" encoding="utf-8"?>
<!-- Generator: Adobe Illustrator 27.5.0, SVG Export Plug-In . SVG Version: 6.00 Build 0)  -->
<svg version="1.1" id="Capa_1" xmlns="http://www.w3.org/2000/svg" xmlns:xlink="http://www.w3.org/1999/xlink" x="0px" y="0px"
	 viewBox="0 0 1080 1080" style="enable-background:new 0 0 1080 1080;" xml:space="preserve">
<style type="text/css">
	.st0{fill:#FFFFFF;}
</style>
<g>
	<g id="Capa_10_00000103982468989975128950000003291529445862784180_">
		<g>
			<g>
				<path class="st0" d="M534.49,528.61c-3.87-1.15-8.08-1.98-11.96-3.46c-29.81-10.39-45.65-41.89-35.37-71.41
					c0.84-2.64,0.51-4.62-1.01-6.93c-19.71-28.86-39.25-57.72-58.95-86.42c-4.21-6.27-9.77-11.71-11.45-19.3
					c-0.17-0.82-2.69-1.65-4.04-1.65c-13.31-0.16-26.44,0.16-39.75-0.16c-13.98-0.33-25.27-6.1-31.16-18.97
					c-2.02-4.45-3.03-9.73-3.03-14.51c-0.17-65.8-0.17-131.77-0.17-197.58c0-19.63,14.15-33.48,34.19-33.48
					c55.08-0.16,109.99-0.16,165.07,0c17.18,0,29.48,10.72,31.83,27.21c0.34,2.47,0.51,4.95,0.51,7.59c0,64.98,0,129.79,0,194.77
					c0,11.05-2.69,20.62-11.62,28.04c-6.23,5.11-13.47,6.93-21.39,6.93c-10.95,0.16-22.06,0.16-33.01,0c-3.03,0-4.04,0.82-5.56,3.63
					c-3.03,6.27-7.07,12.2-10.95,18.8c2.53,2.8,5.9,6.76,9.43,10.56c11.96,13.36,24.09,26.88,36.04,40.41
					c1.68,1.98,3.54,2.64,6.06,2.64c17.85-1.15,33.01,4.78,45.31,16.99c2.36,2.47,4.21,2.64,7.41,1.65
					c40.26-12.04,80.51-23.75,120.77-35.46c1.35-0.49,2.69-0.66,4.38-1.15c0,7.75,0,15.34,0,22.76c0,11.38-0.17,22.76,0.17,34.14
					c0.17,3.63-1.18,4.78-4.55,5.61c-36.72,9.07-73.44,18.47-110.16,27.87c-1.85,0.49-4.04,1.98-4.88,3.63
					c-8.93,20.95-24.59,33.31-47.67,36.61c-0.51,0-0.84,0.33-1.18,0.49C542.91,528.61,538.7,528.61,534.49,528.61z M538.2,324.11
					c5.22,0.33,9.6-1.81,11.62-6.1c1.85-3.63,3.2-8.08,3.2-12.2c0.17-65.64,0.17-131.44,0.17-197.08c0-12.86-6.06-18.64-19.03-18.64
					c-53.56,0-106.96,0-160.69,0c-14.49,0-21.05,6.43-21.05,20.45c0,64.49,0,128.97,0,193.46c0,1.48,0,2.97,0.17,4.45
					c0.67,8.08,6.91,14.35,15.33,15.34c0-2.47-0.17-4.95,0-7.42c0.67-16.99,13.14-29.36,30.32-29.52c36.38-0.33,73.1-0.33,109.48,0
					c15.66,0.16,27.62,10.88,29.81,26.22C537.86,316.68,537.86,320.48,538.2,324.11z M600.52,472.37
					c33.01-8.25,66.19-16.66,99.38-24.9c0-10.06,0-19.46,0-29.19c-35.2,10.23-69.9,20.62-104.43,30.68
					C597.15,456.7,598.66,464.13,600.52,472.37z M517.14,419.76c-14.32-16-28.63-32.16-43.29-48.32c-0.51-0.66-1.68-1.32-2.69-1.32
					c-6.06-0.16-12.3,0-19.2,0c15.33,22.43,29.98,44.03,44.47,65.14C503.16,430.15,509.9,425.04,517.14,419.76z M481.6,340.1
					c-16.84,0-33.35,0-50.19,0c3.54,9.57,14.49,15.34,26.95,14.68C470.65,353.96,479.75,348.35,481.6,340.1z"/>
				<path class="st0" d="M452.97,279.08c-51.04,0.16-92.64-40.41-92.64-90.54c-0.17-49.97,41.43-90.71,92.47-90.71
					c51.04-0.16,92.64,40.41,92.64,90.54C545.44,238.35,504.17,278.92,452.97,279.08z M452.97,113c-42.61,0-76.97,33.64-77.14,75.37
					c-0.17,41.89,34.7,75.86,77.48,75.7c42.78-0.16,76.97-33.97,76.81-75.7C529.94,146.65,495.41,113,452.97,113z"/>
				<path class="st0" d="M530.11,112.84c-4.04,0.16-7.58-3.13-7.75-7.09c-0.17-4.29,3.03-7.75,7.41-7.75
					c4.21-0.16,7.92,3.3,7.92,7.42C537.69,109.21,534.32,112.67,530.11,112.84z"/>
				<path class="st0" d="M391.32,188.54c0-33.48,27.62-60.53,61.82-60.53c34.02,0.16,61.48,27.05,61.48,60.36
					c0,33.48-27.62,60.53-61.82,60.53C418.61,248.9,391.32,221.85,391.32,188.54z M414.23,187.55c-0.17,4.29,2.69,7.75,6.57,8.08
					c4.55,0.49,7.75-1.81,8.59-6.6c0.34-1.32,0.51-2.64,0.51-3.96c0.67-5.94,3.37-11.38,8.59-14.35c4.55-2.64,9.94-3.79,14.99-5.28
					c4.72-1.32,7.07-4.12,6.57-8.41c-0.51-3.96-3.87-6.6-8.25-6.43C431.58,151.27,414.73,167.59,414.23,187.55z"/>
			</g>
			<g>
				<path class="st0" d="M1003.08,522.18c0-152.22,0-304.61,0-456.67c0-31.83-23.75-54.92-56.26-54.92c-60.13,0-120.09,0-180.22,0
					c-112.51,0-225.2,0.16-337.71,0.16c-107.46,0-214.75-0.16-322.05-0.16c-34.02,0-57.27,23.09-57.27,56.73
					c0.17,44.53,0.17,89.22,0.17,133.75c0,61.19,0,122.37,0,183.89c0,49.31,0,98.79,0,148.1c0,16.99,0.51,33.97,0.51,50.96
					c0,16.99-0.67,33.97-0.34,50.96c0.17,6.76,1.18,13.52,3.54,19.79c8.08,21.44,28.13,34.47,52.05,34.47c85.9,0,171.63,0,257.37,0
					c2.02,0,4.04,0,6.57,0c-0.51,1.65-0.51,2.8-1.01,3.96c-5.9,17.32-12.13,34.47-17.69,51.79c-1.68,5.44-4.04,7.09-9.94,7.09
					c-30.66-0.33-61.14-0.33-91.63-0.16c-17.18,0-28.63,13.19-25.77,29.69c2.02,12.37,12.46,19.96,28.3,19.96
					c95.84,0,191.68,0,287.35,0c63.33,0,126.83,0,190.16,0c25.77,0,51.37,0.16,77.31-0.33c12.46-0.33,22.4-10.39,23.24-22.43
					c0.84-12.7-7.41-23.58-20.04-25.89c-3.2-0.49-6.74-0.82-9.94-0.82c-33.52,0-66.87,0-100.39-0.16c-2.19,0-5.73-1.48-6.23-2.97
					c-7.07-19.46-13.64-38.92-20.72-59.54c3.37,0,5.56,0,7.92,0c88.26,0,176.69,0,264.95,0c34.53,0,57.77-22.76,57.77-56.73
					C1003.08,595.4,1003.08,558.79,1003.08,522.18z M103.13,60.89c281.96,0,563.58,0,846.04,0c0,160.8,0,320.94,0,481.91
					c-281.96,0-563.58,0-846.04,0C103.13,381.83,103.13,221.52,103.13,60.89z M799.61,768.74c-90.95,0-182.08,0-273.03,0
					c-89.44,0-179.21,0-268.65,0c89.44,0,179.21,0,268.65,0C617.7,768.74,708.82,768.74,799.61,768.74z M985.39,640.26
					c-1.35,17.65-17.69,31.34-36.38,31.67c-13.98,0.33-27.96,0-41.94,0c-120.94,0-241.87,0-362.81,0c-83.88,0-167.76,0-251.64,0
					c-62.32,0-124.64,0-186.96,0c-22.23,0-38.4-15.67-38.57-37.6c-0.17-12.7,0-25.23,0-38.59c306.55,0,612.26,0,918.81,0
					C985.56,611.24,986.4,625.75,985.39,640.26z"/>
			</g>
		</g>
	</g>
	<g>
		<path class="st0" d="M167.07,951.39l-0.18-44.49l-16.7,37.58H138.7L122,906.9v44.49h-15.95v-68.46h19.48l18.92,40.86l18.92-40.86
			h19.28v68.46H167.07z"/>
		<path class="st0" d="M267.78,917.07c0,19.98-16.12,35.05-37.83,35.05c-21.51,0-37.83-15.07-37.83-35.05s16.12-34.68,37.83-34.68
			S267.78,897.09,267.78,917.07z M210.47,917.07c0,11.62,9.09,20.52,19.85,20.52c10.76,0,19.28-8.9,19.28-20.52
			s-8.54-20.15-19.28-20.15C219.36,896.9,210.47,905.62,210.47,917.07z"/>
		<path class="st0" d="M326.01,951.39l-32.09-42.13v42.13h-16.7v-68.46h15.77l32.27,42.31v-42.31h16.5v68.46H326.01z"/>
		<path class="st0" d="M355.67,951.39v-68.46h17.8v68.46H355.67z"/>
		<path class="st0" d="M419.83,896.9v54.47h-17.8V896.9h-20.95v-14.17h59.71v14.17H419.83z"/>
		<path class="st0" d="M515.71,917.07c0,19.98-16.12,35.05-37.83,35.05c-21.51,0-37.83-15.07-37.83-35.05s16.12-34.68,37.83-34.68
			C499.57,882.38,515.71,897.09,515.71,917.07z M458.41,917.07c0,11.62,9.09,20.52,19.85,20.52c10.76,0,19.28-8.9,19.28-20.52
			s-8.54-20.15-19.28-20.15C467.3,896.9,458.41,905.62,458.41,917.07z"/>
		<path class="st0" d="M556.87,932.12h-0.55h-13.35v19.24h-17.8v-68.46h31.34c18.55,0,29.11,8.53,29.11,23.78
			c0,10.54-4.45,17.97-12.62,21.96l14.65,22.52h-20.2L556.87,932.12z M556.5,918.32c7.61,0,12.24-3.82,12.24-11.08
			c0-7.08-4.45-10.71-12.24-10.71h-13.54v21.79H556.5z"/>
		<path class="st0" d="M615.3,896.53v13.63h33.37v13.63H615.3v13.8h38.02v13.63H597.5v-68.46h54.7v13.63h-36.9V896.53z"/>
		<path class="st0" d="M735.64,917.07c0,19.98-16.12,35.05-37.83,35.05c-21.51,0-37.65-15.07-37.65-35.05s16.12-34.68,37.65-34.68
			C719.52,882.38,735.64,897.09,735.64,917.07z M678.34,917.07c0,11.62,9.09,20.52,19.85,20.52s19.28-8.9,19.28-20.52
			s-8.54-20.15-19.28-20.15C687.25,896.9,678.34,905.62,678.34,917.07z"/>
		<path class="st0" d="M829.1,893.81l-10.19,11.99c-4.63-5.44-11.31-8.9-17.62-8.9c-11.12,0-19.48,8.53-19.48,19.78
			c0,11.45,8.34,20.15,19.48,20.15c5.93,0,12.62-3.09,17.62-7.99l10.39,10.71c-7.41,7.45-18.55,12.53-28.94,12.53
			c-21.13,0-36.72-15.07-36.72-35.22c0-19.78,16.12-34.68,37.28-34.68C811.3,882.38,822.06,886.73,829.1,893.81z"/>
		<path class="st0" d="M907.18,917.07c0,19.98-16.12,35.05-37.83,35.05c-21.51,0-37.65-15.07-37.65-35.05s16.12-34.68,37.65-34.68
			C890.86,882.38,907.18,897.09,907.18,917.07z M849.7,917.07c0,11.62,9.09,20.52,19.85,20.52s19.28-8.9,19.28-20.52
			s-8.54-20.15-19.28-20.15C858.78,896.9,849.7,905.62,849.7,917.07z"/>
		<path class="st0" d="M965.23,951.39l-32.09-42.13v42.13h-16.7v-68.46h15.77l32.27,42.31v-42.31h16.5v68.46H965.23z"/>
		<path class="st0" d="M37.08,1068.68L10,1000.22h18.92l17.8,50.3l17.8-50.3h18.35l-27.44,68.46H37.08z"/>
		<path class="st0" d="M89.74,1068.68v-68.46h17.8v68.46H89.74z"/>
		<path class="st0" d="M151.67,1000.22c21.88,0,37.1,13.8,37.1,34.14c0,20.15-15.4,34.14-37.83,34.14h-29.29v-68.46h30.04v0.17
			H151.67z M139.45,1054.69h12.62c10.94,0,18.73-8.16,18.73-20.15c0-12.16-8.16-20.52-19.48-20.52h-11.87V1054.69z"/>
		<path class="st0" d="M215.85,1013.84v13.63h33.37v13.63h-33.37v13.8h38.02v13.63h-55.82v-68.46h54.7v13.63h-36.9V1013.84z"/>
		<path class="st0" d="M336.37,1034.36c0,19.98-16.12,35.05-37.83,35.05c-21.51,0-37.83-15.07-37.83-35.05
			c0-19.98,16.12-34.68,37.83-34.68C320.25,999.68,336.37,1014.39,336.37,1034.36z M279.09,1034.36c0,11.62,9.09,20.52,19.85,20.52
			c10.76,0,19.28-8.9,19.28-20.52s-8.54-20.15-19.28-20.15C287.98,1014.21,279.09,1022.92,279.09,1034.36z"/>
		<path class="st0" d="M364.94,1068.68l-27.08-68.46h18.92l17.8,50.3l17.8-50.3h18.35l-27.44,68.46H364.94z"/>
		<path class="st0" d="M435.41,1013.84v13.63h33.37v13.63h-33.37v13.8h38.02v13.63h-55.82v-68.46h54.7v13.63h-36.9V1013.84z"/>
		<path class="st0" d="M516.64,1049.44h-0.55h-13.54v19.24h-17.8v-68.46h31.34c18.55,0,29.11,8.53,29.11,23.78
			c0,10.54-4.45,17.97-12.62,21.96l14.65,22.52h-20.2L516.64,1049.44z M516.07,1035.64c7.61,0,12.24-3.82,12.24-11.08
			c0-7.08-4.45-10.71-12.24-10.71h-13.54v21.79H516.07z"/>
		<path class="st0" d="M557.07,1068.68v-68.46h17.8v68.46H557.07z"/>
		<path class="st0" d="M606.57,1013.84v15.79h31.34v13.63h-31.34v25.25h-17.8v-68.46h51.74v13.63h-33.94V1013.84z"/>
		<path class="st0" d="M649.22,1068.68v-68.46h17.8v68.46H649.22z"/>
		<path class="st0" d="M741.77,1011.12l-10.19,11.99c-4.63-5.44-11.31-8.9-17.62-8.9c-11.12,0-19.48,8.53-19.48,19.78
			c0,11.45,8.34,20.15,19.48,20.15c5.93,0,12.62-3.09,17.62-7.99l10.39,10.71c-7.41,7.45-18.55,12.53-28.94,12.53
			c-21.13,0-36.72-15.07-36.72-35.22c0-19.78,16.12-34.68,37.28-34.68C723.95,999.68,734.72,1004.04,741.77,1011.12z"/>
		<path class="st0" d="M765.13,1055.96l-5.01,12.53h-18.35l30.22-68.46h18.35l29.49,68.46h-19.1l-5.01-12.53H765.13z
			 M780.53,1017.47l-10.19,25.25h20.2L780.53,1017.47z"/>
		<path class="st0" d="M885.12,1011.12l-10.19,11.99c-4.63-5.44-11.31-8.9-17.62-8.9c-11.12,0-19.48,8.53-19.48,19.78
			c0,11.45,8.34,20.15,19.48,20.15c5.93,0,12.62-3.09,17.62-7.99l10.39,10.71c-7.41,7.45-18.55,12.53-28.94,12.53
			c-21.13,0-36.72-15.07-36.72-35.22c0-19.78,16.12-34.68,37.28-34.68C867.3,999.68,878.06,1004.04,885.12,1011.12z"/>
		<path class="st0" d="M893.28,1068.68v-68.46h17.8v68.46H893.28z"/>
		<path class="st0" d="M996,1034.36c0,19.98-16.12,35.05-37.83,35.05c-21.51,0-37.65-15.07-37.65-35.05
			c0-19.98,16.12-34.68,37.65-34.68C979.88,999.68,996,1014.39,996,1034.36z M938.7,1034.36c0,11.62,9.09,20.52,19.85,20.52
			s19.28-8.9,19.28-20.52s-8.54-20.15-19.28-20.15C947.61,1014.21,938.7,1022.92,938.7,1034.36z M962.08,994.23h-13.17l10.57-16.35
			l15.57,5.44L962.08,994.23z"/>
		<path class="st0" d="M1054.23,1068.68l-32.09-42.13v42.13h-16.7v-68.46h15.77l32.27,42.31v-42.31H1070v68.46H1054.23z"/>
	</g>
</g>
</svg>
