<?xml version="1.0" encoding="UTF-8"?>
<svg id="Layer_1" data-name="Layer 1" xmlns="http://www.w3.org/2000/svg" viewBox="0 0 200 171.93">
  <defs>
    <style>
      .cls-1 {
        fill: #fff;
        stroke-width: 0px;
      }
    </style>
  </defs>
  <path class="cls-1" d="M149.14.23l-97.66-.23L0,85.99l49.6,84.56,99.89,1.38,50.51-85.91L149.14.23ZM126.03,67.63h10.14v39.81h-10.14v-39.81ZM32.11,58.52l1.66-4.99c.13-.45.63-.87,1.07-.96l5.15-1.05c.45-.09,1.07.11,1.39.45l3.49,3.94c.31.34.45.98.29,1.43l-1.66,4.99c-.13.45-.63.87-1.07.96l-5.15,1.05c-.45.09-1.07-.11-1.39-.45l-3.49-3.94c-.31-.34-.45-.98-.29-1.43ZM34.7,90.27l-1.39,4.16c-.29.87-1.28,1.75-2.17,1.92l-4.3.9c-.9.18-2.15-.22-2.75-.92l-2.91-3.29c-.6-.69-.87-1.97-.58-2.84l1.39-4.16c.29-.87,1.28-1.75,2.17-1.92l4.3-.9c.9-.18,2.15.22,2.75.92l2.91,3.29c.6.69.87,1.97.58,2.84ZM36.94,87.01l-5.08-5.71c-.92-1.03-1.32-2.95-.87-4.27l2.42-7.25c.43-1.32,1.9-2.62,3.24-2.89l7.47-1.54c1.36-.27,3.22.34,4.14,1.37l5.06,5.73c.92,1.03,1.32,2.95.87,4.27l-2.39,7.23c-.43,1.32-1.9,2.62-3.24,2.89l-7.47,1.54c-1.37.27-3.22-.34-4.14-1.36ZM72.88,95.51l-1.61,3c-.13.27-.4.43-.72.45l-3.4.11c-.29,0-.58-.13-.74-.4l-1.79-2.89c-.16-.25-.16-.58-.02-.83l1.61-3c.13-.27.4-.43.72-.45l3.4-.11c.29,0,.58.13.74.4l1.79,2.89c.16.25.16.56.02.83ZM78.9,107.44l-9.89-29.32c-.02-.07-.04-.16-.07-.22-.02-.04-.04-.11-.07-.18-.02.09-.07.2-.09.27-.04.09-.07.16-.09.22l-9.73,29.23h-10.88l.31-1.07c.72-2.37,1.83-6.02,3.36-10.83,1.7-5.28,3.38-10.43,5.01-15.31,2.44-7.23,3.11-8.66,3.4-9.11.87-1.23,2.1-2.15,3.69-2.77,1.52-.58,3.2-.9,4.99-.9s3.42.29,4.97.9c1.59.63,2.82,1.54,3.65,2.75.34.45,1.05,1.92,3.47,9.09,1.25,3.74,2.91,8.88,4.95,15.31,1.12,3.6,2.26,7.23,3.4,10.85l.34,1.1h-10.72ZM91.74,101.19c-2.39-3.6-3.63-8.1-3.63-13.36s1.23-9.98,3.67-13.76c2.77-4.27,6.56-6.44,11.23-6.44h19.51v9.71h-18.1c-1.75,0-3.09.94-4.12,2.86-.98,1.86-1.5,4.18-1.5,6.94s.51,5.28,1.54,7.27c1.05,2.06,2.39,3.07,4.1,3.07h18.1v9.94h-19.51c-4.77,0-8.57-2.1-11.3-6.22ZM118.89,113.94h-.04c-.21-.34-.52-.64-.93-.88s-.91-.36-1.5-.36c-.5,0-.96.09-1.38.28-.42.19-.78.43-1.09.75s-.55.67-.72,1.09c-.17.42-.26.85-.26,1.31,0,.33.05.63.15.91.1.28.25.52.44.72.19.2.43.36.71.47.28.11.6.17.96.17.62,0,1.19-.14,1.74-.41.54-.27,1.07-.7,1.59-1.29h.04l-.85,2.92c-.4.28-.86.49-1.37.64-.51.15-1.03.22-1.56.22-.63,0-1.2-.1-1.7-.31-.5-.21-.93-.5-1.28-.87-.35-.38-.62-.83-.81-1.37-.18-.54-.28-1.13-.28-1.79,0-.72.15-1.41.46-2.07.31-.66.72-1.24,1.25-1.75.52-.5,1.14-.91,1.85-1.21.71-.3,1.46-.45,2.25-.45,1.28,0,2.28.28,3.01.85l-.7,2.45ZM129.11,116.87c-.28.7-.67,1.31-1.17,1.85-.5.53-1.09.96-1.77,1.29-.68.32-1.42.49-2.2.49-.63,0-1.2-.1-1.71-.31s-.94-.49-1.29-.87c-.35-.37-.62-.82-.81-1.33s-.28-1.08-.28-1.69c0-.79.15-1.53.44-2.22.29-.69.7-1.29,1.21-1.8s1.11-.91,1.79-1.21c.68-.3,1.4-.44,2.16-.44.62,0,1.19.1,1.69.29.5.2.93.48,1.28.84.35.36.62.79.81,1.29.19.5.28,1.06.28,1.67,0,.74-.14,1.46-.42,2.15ZM138.91,120.31h-1.69l-3.82-6.12-1.3,6.12h-2.09l2.02-9.5h1.69l3.83,6.09,1.29-6.09h2.09l-2.02,9.5ZM146.98,112.77l-1.6,7.53h-2.15l1.6-7.53h-3.03l.42-1.97h8.21l-.42,1.97h-3.03ZM151.86,120.31h-2.15l2.02-9.5h2.15l-2.02,9.5ZM157.12,117.94c.38.4.93.6,1.66.6.45,0,.82-.09,1.1-.28l.54-2.54h2.25l-.8,3.73c-.54.33-1.1.58-1.66.75-.57.17-1.13.26-1.69.26-.66,0-1.24-.1-1.76-.29-.52-.19-.96-.47-1.32-.83-.37-.36-.64-.8-.84-1.31-.19-.51-.29-1.08-.29-1.72,0-.71.14-1.4.42-2.07.28-.68.67-1.28,1.18-1.82s1.12-.96,1.85-1.29c.72-.33,1.52-.49,2.4-.49,1.19,0,2.21.25,3.05.76l-.7,2.36h-.04c-.2-.32-.5-.59-.92-.82-.41-.23-.91-.34-1.48-.34-.52,0-.99.09-1.43.28-.44.18-.81.44-1.11.78-.31.33-.55.72-.72,1.18-.17.45-.26.94-.26,1.48,0,.68.19,1.22.57,1.62ZM172.96,116.87c-.28.7-.67,1.31-1.17,1.85-.5.53-1.09.96-1.77,1.29-.68.32-1.42.49-2.2.49-.63,0-1.2-.1-1.71-.31s-.94-.49-1.29-.87c-.35-.37-.62-.82-.81-1.33s-.28-1.08-.28-1.69c0-.79.15-1.53.44-2.22.29-.69.7-1.29,1.21-1.8s1.11-.91,1.79-1.21c.68-.3,1.4-.44,2.16-.44.62,0,1.19.1,1.69.29.5.2.93.48,1.28.84.35.36.62.79.81,1.29.19.5.28,1.06.28,1.67,0,.74-.14,1.46-.42,2.15ZM157.47,107.44c-4.99,0-9.02-1.3-12.02-3.85-2.35-1.99-4.01-4.74-4.97-8.15-.63-2.19-.94-4.63-.94-7.23,0-.49,0-.9.02-1.19.02-.27.04-.51.09-.74v-18.66h10.14v18.71c0,3.07.65,5.66,1.9,7.72,1.41,2.3,3.29,3.42,5.75,3.42v.02h16.07v9.94h-16.05Z"/>
  <path class="cls-1" d="M170.65,113.23c-.17-.2-.38-.36-.63-.47s-.52-.17-.82-.17c-.44,0-.85.09-1.25.28-.4.18-.75.43-1.05.75-.3.31-.54.68-.71,1.11s-.26.88-.26,1.35c0,.35.05.68.14.98.09.3.23.56.4.78.17.22.38.39.63.51.25.12.53.18.84.18.46,0,.89-.11,1.28-.32.39-.21.74-.49,1.03-.84.29-.34.52-.73.68-1.16.16-.43.25-.86.25-1.3,0-.34-.05-.66-.14-.94-.09-.28-.22-.53-.39-.73Z"/>
  <path class="cls-1" d="M126.8,113.23c-.17-.2-.38-.36-.63-.47s-.52-.17-.82-.17c-.44,0-.85.09-1.25.28-.4.18-.75.43-1.05.75-.3.31-.54.68-.71,1.11s-.26.88-.26,1.35c0,.35.05.68.14.98.09.3.23.56.4.78.17.22.38.39.63.51.25.12.53.18.84.18.46,0,.89-.11,1.28-.32.39-.21.74-.49,1.03-.84.29-.34.52-.73.68-1.16.16-.43.25-.86.25-1.3,0-.34-.05-.66-.14-.94-.09-.28-.22-.53-.39-.73Z"/>
</svg>