<?xml version="1.0" encoding="UTF-8"?>
<svg id="Layer_1" data-name="Layer 1" xmlns="http://www.w3.org/2000/svg" viewBox="0 0 200 171.93">
  <defs>
    <style>
      .cls-1 {
        fill: #fff;
        stroke-width: 0px;
      }
    </style>
  </defs>
  <path class="cls-1" d="M162.63,116.27h-.87l-.5,2.34h.79c.33,0,.61-.04.84-.11.23-.07.42-.17.57-.3.15-.13.26-.27.33-.44.07-.17.11-.34.11-.52,0-.28-.1-.51-.31-.69s-.52-.27-.93-.27Z"/>
  <path class="cls-1" d="M163.37,112.49h-.81l-.47,2.21h.58c.3,0,.56-.04.78-.12.22-.08.4-.18.54-.31.14-.13.24-.27.3-.44s.09-.33.09-.49c0-.24-.08-.44-.25-.61s-.42-.25-.76-.25Z"/>
  <path class="cls-1" d="M149.14.23l-97.66-.23L0,85.99l49.6,84.56,99.89,1.38,50.51-85.91L149.14.23ZM32.11,58.52l1.66-4.99c.13-.45.63-.87,1.07-.96l5.15-1.05c.45-.09,1.07.11,1.39.45l3.49,3.94c.31.34.45.98.29,1.43l-1.66,4.99c-.13.45-.63.87-1.07.96l-5.15,1.05c-.45.09-1.07-.11-1.39-.45l-3.49-3.94c-.31-.34-.45-.98-.29-1.43ZM34.7,90.27l-1.39,4.16c-.29.87-1.28,1.75-2.17,1.92l-4.3.9c-.9.18-2.15-.22-2.75-.92l-2.91-3.29c-.6-.69-.87-1.97-.58-2.84l1.39-4.16c.29-.87,1.28-1.75,2.17-1.92l4.3-.9c.9-.18,2.15.22,2.75.92l2.91,3.29c.6.69.87,1.97.58,2.84ZM36.94,87.01l-5.08-5.71c-.92-1.03-1.32-2.95-.87-4.27l2.42-7.25c.43-1.32,1.9-2.62,3.24-2.89l7.47-1.54c1.36-.27,3.22.34,4.14,1.37l5.06,5.73c.92,1.03,1.32,2.95.87,4.27l-2.39,7.23c-.43,1.32-1.9,2.62-3.24,2.89l-7.47,1.54c-1.37.27-3.22-.34-4.14-1.36ZM72.88,95.51l-1.61,3c-.13.27-.4.43-.72.45l-3.4.11c-.29,0-.58-.13-.74-.4l-1.79-2.89c-.16-.25-.16-.58-.02-.83l1.61-3c.13-.27.4-.43.72-.45l3.4-.11c.29,0,.58.13.74.4l1.79,2.89c.16.25.16.56.02.83ZM78.9,107.44l-9.89-29.32c-.02-.07-.04-.16-.07-.22-.02-.04-.04-.11-.07-.18-.02.09-.07.2-.09.27-.04.09-.07.16-.09.22l-9.73,29.23h-10.88l.31-1.07c.72-2.37,1.83-6.02,3.36-10.83,1.7-5.28,3.38-10.43,5.01-15.31,2.44-7.23,3.11-8.66,3.4-9.11.87-1.23,2.1-2.15,3.69-2.77,1.52-.58,3.2-.9,4.99-.9s3.42.29,4.97.9c1.59.63,2.82,1.54,3.65,2.75.34.45,1.05,1.92,3.47,9.09,1.25,3.74,2.91,8.88,4.95,15.31,1.12,3.6,2.26,7.23,3.4,10.85l.34,1.1h-10.72ZM122.56,107.42h-19.51c-4.77,0-8.57-2.1-11.3-6.22-2.39-3.6-3.63-8.1-3.63-13.36s1.23-9.98,3.67-13.76c2.77-4.27,6.56-6.44,11.23-6.44h19.51v9.71h-18.1c-1.75,0-3.09.94-4.12,2.86-.98,1.86-1.5,4.18-1.5,6.94s.51,5.28,1.54,7.27c1.05,2.06,2.39,3.07,4.1,3.07h18.1v9.94ZM126.03,67.63h10.14v39.81h-10.14v-39.81ZM141.2,113.94c-.21-.34-.52-.64-.93-.88s-.91-.36-1.5-.36c-.5,0-.96.09-1.38.28-.42.19-.78.43-1.09.75s-.55.67-.72,1.09c-.17.42-.26.85-.26,1.31,0,.33.05.63.15.91.1.28.25.52.44.72.19.2.43.36.71.47.28.11.6.17.96.17.62,0,1.19-.14,1.74-.41.54-.27,1.07-.7,1.59-1.29h.04l-.85,2.92c-.4.28-.86.49-1.37.64-.51.15-1.03.22-1.56.22-.63,0-1.2-.1-1.7-.31-.5-.21-.93-.5-1.28-.87-.35-.38-.62-.83-.81-1.37-.18-.54-.28-1.13-.28-1.79,0-.72.15-1.41.46-2.07.31-.66.72-1.24,1.25-1.75.52-.5,1.14-.91,1.85-1.21.71-.3,1.46-.45,2.25-.45,1.28,0,2.28.28,3.01.85l-.7,2.45h-.04ZM148.14,120.31h-6.29l2.02-9.5h2.15l-1.6,7.53h4.14l-.42,1.97ZM145.45,103.59c-2.35-1.99-4.01-4.74-4.97-8.15-.63-2.19-.94-4.63-.94-7.23,0-.49,0-.9.02-1.19.02-.27.04-.51.09-.74v-18.66h10.14v18.71c0,3.07.65,5.66,1.9,7.72,1.41,2.3,3.29,3.42,5.75,3.42v.02h16.07v9.94h-16.05c-4.99,0-9.02-1.3-12.02-3.85ZM156.87,118.37c-.29.48-.62.88-1.01,1.19-.39.31-.82.54-1.3.69-.48.15-.97.22-1.49.22s-.95-.06-1.37-.18c-.42-.12-.78-.3-1.08-.55s-.54-.56-.71-.94c-.17-.38-.26-.83-.26-1.36,0-.1,0-.21.02-.33.02-.12.04-.24.06-.36l1.27-5.96h2.15l-1.22,5.71c-.02.09-.03.2-.05.33s-.02.25-.02.36c0,.4.12.7.37.88s.55.28.91.28c.25,0,.49-.04.73-.11s.46-.18.66-.33c.2-.15.38-.34.53-.57.15-.23.26-.51.33-.83l1.22-5.71h2.15l-1.24,5.83c-.14.67-.35,1.25-.64,1.74ZM166.09,114.21c-.29.4-.7.72-1.22.96.39.2.69.47.89.83.2.35.29.76.29,1.23s-.11.87-.32,1.24c-.21.38-.51.7-.88.97-.37.27-.82.48-1.33.63-.52.15-1.08.23-1.69.23h-3.09l2.02-9.5h2.87c.49,0,.92.05,1.28.16s.66.26.91.45c.24.19.42.42.54.68.12.26.18.55.18.85,0,.44-.15.87-.44,1.27ZM170.28,113.65c.03.09.1.2.2.31.1.11.23.24.41.38.17.14.4.31.69.51.26.19.49.38.67.56s.33.38.45.58c.12.21.2.42.25.66.05.23.07.49.07.76,0,.47-.1.89-.29,1.27-.19.38-.46.71-.79.97-.34.27-.73.47-1.19.62-.46.15-.95.22-1.48.22-.48,0-.91-.04-1.3-.13-.39-.09-.75-.24-1.07-.46l.33-2.46h.04c.37.37.74.65,1.1.84s.76.28,1.17.28c.39,0,.7-.1.91-.29.21-.19.31-.44.31-.76,0-.12-.02-.24-.06-.36s-.11-.24-.21-.36c-.1-.13-.24-.26-.41-.41-.17-.14-.38-.31-.63-.49-.27-.19-.5-.38-.67-.56-.18-.18-.32-.37-.43-.57-.11-.19-.19-.4-.23-.61-.04-.21-.07-.44-.07-.68,0-.43.08-.82.25-1.18.17-.36.4-.66.7-.91.3-.25.64-.45,1.03-.58.39-.14.81-.21,1.25-.21.9,0,1.73.18,2.47.53l-.47,2.19c-.42-.29-.78-.51-1.09-.65-.31-.14-.61-.2-.9-.2-.31,0-.56.09-.75.26-.19.17-.28.38-.28.62,0,.1.02.2.05.29Z"/>
</svg>