<?xml version="1.0" encoding="UTF-8"?>
<svg id="Layer_1" data-name="Layer 1" xmlns="http://www.w3.org/2000/svg" xmlns:xlink="http://www.w3.org/1999/xlink" viewBox="0 0 133.09 121.32">
  <defs>
    <style>
      .cls-1 {
        fill: url(#linear-gradient);
      }

      .cls-1, .cls-2, .cls-3 {
        stroke-width: 0px;
      }

      .cls-2 {
        fill: url(#linear-gradient-2);
      }

      .cls-3 {
        fill: #fff;
      }
    </style>
    <linearGradient id="linear-gradient" x1="6.15" y1="60.66" x2="126.95" y2="60.66" gradientUnits="userSpaceOnUse">
      <stop offset="0" stop-color="#f5a214"/>
      <stop offset="1" stop-color="#e05b19"/>
    </linearGradient>
    <linearGradient id="linear-gradient-2" x1="37.13" y1="60.35" x2="96.23" y2="60.35" xlink:href="#linear-gradient"/>
  </defs>
  <path class="cls-3" d="M130.07,71.94l-8.77,15.21-10.32,17.89-2.5,4.32-.38.67c-4.04,6.98-11.5,11.29-19.57,11.29h-43.97c-8.06,0-15.51-4.31-19.54-11.29l-2.43-4.21-.84-1.47L3.02,71.94c-4.03-6.98-4.03-15.59,0-22.57L25.02,11.29c.82-1.42,1.78-2.73,2.86-3.91C32.1,2.73,38.13,0,44.56,0h43.97c5.76,0,11.22,2.19,15.34,5.99,1.65,1.52,3.07,3.3,4.23,5.3l2.66,4.62,19.31,33.46c4.03,6.98,4.03,15.59,0,22.57Z"/>
  <path class="cls-1" d="M124.2,50.41c3.66,6.34,3.66,14.16,0,20.49l-7.96,13.8-9.37,16.24-2.26,3.92-.35.61c-3.66,6.34-10.44,10.25-17.76,10.25h-39.91c-7.32,0-14.08-3.91-17.74-10.25l-2.2-3.82-.77-1.33-16.99-29.42c-3.66-6.33-3.66-14.15,0-20.49L28.85,15.85c.75-1.29,1.62-2.48,2.6-3.55,3.83-4.22,9.31-6.7,15.14-6.7h39.91c5.23,0,10.18,1.99,13.92,5.44,1.5,1.38,2.79,2.99,3.84,4.81l2.42,4.19,17.52,30.37Z"/>
  <path class="cls-3" d="M101.6,53.63c-1.6-8.69-6.02-15.81-12.99-21.24-8.51-6.62-18.2-8.89-28.76-6.88-8.96,1.69-16.22,6.35-21.68,13.67-5.76,7.7-7.88,16.42-6.73,25.93.55,4.51,2.01,8.75,4.25,12.72.14.23.21.43.12.74-.73,2.46-1.38,4.92-2.07,7.38-.96,3.48-1.91,6.96-2.9,10.56,2.51-.65,4.91-1.25,7.29-1.88,2.07-.55,4.13-1.11,6.2-1.69,1.26-.35,2.49-.85,3.77-1.08.65-.11,1.35-.41,2.11-.02,4.01,2.16,8.31,3.4,12.84,3.87,7.49.77,14.46-.79,21.04-4.36,2.39-1.29,4.48-3.01,6.55-4.74,1.44-1.22,2.69-2.64,3.86-4.13,6.67-8.55,9.02-18.23,7.09-28.86ZM96.17,62.53c-.29,4.86-1.78,9.42-4.42,13.55-1.32,2.1-2.93,3.92-4.68,5.68-1.56,1.56-3.31,2.87-5.13,4.03-1.53.97-3.22,1.73-4.97,2.35-4.68,1.67-9.46,2.19-14.39,1.52-1.94-.26-3.84-.77-5.71-1.37-2.17-.7-4.13-1.79-6.06-2.95-.26-.15-.47-.09-.71-.03-2.99.79-5.99,1.56-8.98,2.35-.55.15-1.06.38-1.78.39.85-3.04,1.67-6,2.48-8.95.15-.56.29-1.12.41-1.7.08-.35-.15-.64-.33-.91-3.75-5.79-5.27-12.14-4.6-18.97.81-8.37,4.6-15.19,11.18-20.4,10.09-7.98,24.15-8.57,34.73-1.26,9.25,6.38,13.61,15.4,12.97,26.66Z"/>
  <path class="cls-2" d="M83.19,35.87c-10.57-7.31-24.64-6.71-34.73,1.26-6.58,5.21-10.38,12.03-11.18,20.4-.67,6.84.85,13.19,4.6,18.97.18.27.41.56.33.91-.12.58-.26,1.14-.41,1.7-.81,2.95-1.63,5.91-2.48,8.95.71-.02,1.23-.24,1.78-.39,2.99-.79,5.99-1.56,8.98-2.35.24-.06.46-.12.71.03,1.93,1.15,3.89,2.25,6.06,2.95,1.87.59,3.77,1.11,5.71,1.37,4.92.67,9.71.15,14.39-1.52,1.75-.62,3.43-1.38,4.97-2.35,1.82-1.15,3.57-2.46,5.13-4.03,1.75-1.76,3.36-3.59,4.68-5.68,2.64-4.13,4.13-8.69,4.42-13.55.64-11.26-3.72-20.28-12.97-26.66ZM78.07,77.28c-1.75.23-3.42.09-5.09-.36-2.89-.79-5.73-1.69-8.36-3.16-3.63-2.02-6.61-4.8-9.24-7.96-2.28-2.73-4.45-5.56-5.83-8.92-.64-1.55-.99-3.16-.94-4.6.05-3.13,1.28-5.47,3.33-7.43,1.35-1.31,3.02-.99,4.63-.74.56.09.91.65,1.12,1.17,1,2.38,1.99,4.77,2.98,7.14.18.46.09.88-.09,1.31-.5,1.14-1.35,2.01-2.16,2.9-.81.88-.85,1.15-.26,2.14,2.87,4.82,6.87,8.32,12.11,10.39.74.3,1.35.23,1.87-.43.88-1.12,1.82-2.22,2.69-3.36.49-.64,1.05-.82,1.76-.53,2.57,1.06,5.03,2.34,7.52,3.59.49.26.62.67.64,1.2.09,3.75-2.93,7.19-6.68,7.66Z"/>
  <path class="cls-3" d="M84.76,69.63c.09,3.75-2.93,7.19-6.68,7.66-1.75.23-3.42.09-5.09-.36-2.89-.79-5.73-1.69-8.36-3.16-3.63-2.02-6.61-4.8-9.24-7.96-2.28-2.73-4.45-5.56-5.83-8.92-.64-1.55-.99-3.16-.94-4.6.05-3.13,1.28-5.47,3.33-7.43,1.35-1.31,3.02-.99,4.63-.74.56.09.91.65,1.12,1.17,1,2.38,1.99,4.77,2.98,7.14.18.46.09.88-.09,1.31-.5,1.14-1.35,2.01-2.16,2.9-.81.88-.85,1.15-.26,2.14,2.87,4.82,6.87,8.32,12.11,10.39.74.3,1.35.23,1.87-.43.88-1.12,1.82-2.22,2.69-3.36.49-.64,1.05-.82,1.76-.53,2.57,1.06,5.03,2.34,7.52,3.59.49.26.62.67.64,1.2Z"/>
</svg>