<?xml version="1.0" encoding="utf-8"?>
<!-- Generator: Adobe Illustrator 27.5.0, SVG Export Plug-In . SVG Version: 6.00 Build 0)  -->
<svg version="1.1" id="Capa_1" xmlns="http://www.w3.org/2000/svg" xmlns:xlink="http://www.w3.org/1999/xlink" x="0px" y="0px"
	 viewBox="0 0 1080 1080" style="enable-background:new 0 0 1080 1080;" xml:space="preserve">
<style type="text/css">
	.st0{fill:#E25B19;}
</style>
<g>
	<path class="st0" d="M550,793.46c15.34-12.35,27.83-22.9,40.96-32.58c2.87-2.12,8.06-1.46,12.18-1.46
		c142.73-0.07,285.47-0.06,428.2-0.06c4.49,0,8.98,0,14.91,0c0-4.73,0-8.46,0-12.2c0-190.2,0-380.39-0.01-570.58
		c0-19.88-4.92-24.73-25.01-24.73c-320.98-0.01-641.95-0.01-962.93,0c-19.43,0-24.57,5.03-24.57,24.11
		c-0.01,190.55-0.01,381.09-0.01,571.64c0,3.44,0,6.87,0,11.76c5.08,0,9.16,0,13.24,0c90.7,0,181.41,0.11,272.11-0.17
		c7.82-0.03,13.18,2.02,17.86,8.27c6.08,8.11,13.01,15.58,21.06,25.08H35.77c-6.87,28.29,5.11,34.74,23.66,34.62
		c97.38-0.63,194.76-0.29,292.15-0.29h12.81v33.72h-9.8c-99.49,0-198.98,0.01-298.48,0c-35.78-0.01-56.09-20.36-56.09-56.24
		C0,594.47,0,384.58,0.01,174.7c0-36.52,20.17-56.58,56.81-56.59c322.03,0,644.06,0,966.09,0c37.21,0,57.08,19.96,57.08,57.38
		c0.01,209.18,0.01,418.36,0,627.54c0,37.93-19.77,57.56-57.94,57.56c-130.43,0-260.86,0-391.29,0h-14.15v67.52
		c10.78,0,21.53,0,32.27,0c10.55,0,21.09-0.12,31.64,0.01c12.29,0.15,19.86,6.8,19.72,17.07c-0.13,10.25-7.6,16.52-20.16,16.63
		c-13.71,0.12-27.42,0.03-41.13,0.03c-78.4-0.01-156.8-0.01-235.2-0.02c-2.46,0-4.93,0.12-7.38-0.07
		c-9.94-0.8-16.73-7.75-16.64-16.93c0.08-9.18,6.91-16.44,16.92-16.61c21.09-0.35,42.18-0.11,63.28-0.11c3.77,0,7.53,0,12.58,0
		c0-19.34,0.26-37.52-0.14-55.69c-0.14-6.54,1.95-10.72,6.76-15.32c5.93-5.67,11.99-12.66,14.37-20.22
		c2.95-9.41,7.93-10.18,16.11-10.17c170.16,0.2,340.31,0.15,510.47,0.15c2.11,0,4.22,0.05,6.33-0.02
		c13.19-0.39,19.41-6.43,19.82-19.34c0.14-4.2,0.02-8.4,0.02-14.06H550V793.46z M581.86,861.48h-74.91v65.75h74.91V861.48z"/>
	<path class="st0" d="M596.42,484.17c18,15.42,23.72,33.11,16.2,54.7c-0.73,2.11,0.55,6.19,2.32,7.71
		c17.98,15.48,20.05,34.18,11.96,55.24c0.27,0.58,0.39,1.46,0.89,1.79c27.09,18.19,28.07,53.62,2.07,76.21
		c-43.18,37.53-83.39,78.58-133.1,108.04c-9.06,5.37-18.36,10.41-27,16.39c-2.52,1.74-3.27,6.17-4.6,9.46
		c-2.34,5.82-2.95,13.35-7.06,17.25c-9.61,9.15-20.7,16.81-31.5,24.65c-8.6,6.24-18.63,4.78-24.32-2.87
		c-5.82-7.83-4.37-17.12,4.05-24.15c5.37-4.48,11-8.65,17.89-14.04c-40.97-47.23-81.58-94.03-123.23-142.03
		c-7.89,6.15-16.01,12.56-24.22,18.85c-10.44,8-20.71,7.81-26.98-0.39c-6.3-8.24-4.07-18.1,6.21-26.34
		c9.87-7.91,19.5-16.2,29.95-23.25c7.39-4.99,15.97-8.2,27.66-14.02c9.73-29.57,21.04-63.87,32.29-98.19
		c6.99-21.34,13.43-42.88,21.07-63.98c3.06-8.44,7.94-16.5,13.28-23.79c9.7-13.24,22.67-21.5,39.83-18.15
		c17.97,3.51,30.67,14.31,35.46,32.17c2.68,10.02,2.79,20.73,4.25,32.69c2.9-2.4,5.96-4.73,8.79-7.3
		c35.86-32.62,71.61-65.36,107.56-97.88c14.57-13.18,31.42-15.63,48.85-6.98c16.96,8.43,25.03,23.15,24.58,42.07
		c-0.29,12.14-5.4,22.4-14.36,30.64C622.55,460.3,609.85,471.88,596.42,484.17 M426.89,480.84c-0.56-0.23-1.12-0.45-1.68-0.68
		c-0.48-4.52-0.11-9.37-1.68-13.47c-1.36-3.55-4.48-8.08-7.62-8.82c-2.74-0.64-7.95,2.59-9.66,5.52
		c-4.75,8.12-9.16,16.67-12.1,25.59c-18.04,54.7-35.52,109.58-53.53,164.29c-2.13,6.47-1.55,10.76,3.04,15.98
		c29.92,34.06,59.71,68.25,88.96,102.9c6.21,7.35,10.47,7.99,18.95,3.43c59.57-32.01,108.43-77.51,157.36-123.02
		c5.91-5.5,9.26-11.35,2.83-17.97s-11.9-1.95-17.14,2.86c-15.54,14.25-31,28.61-46.94,42.41c-10.68,9.25-24.57,5.16-28.49-7.75
		c-2.55-8.39,0.26-14.92,6.63-20.66c21.68-19.52,43.11-39.31,64.78-58.84c6.12-5.51,10.51-11.49,3.84-18.77
		c-6.29-6.86-11.86-2.04-17.08,2.73c-22.29,20.36-44.54,40.75-67.07,60.85c-8.29,7.39-17.93,6.98-24.5-0.07
		c-6.9-7.4-6.21-17.4,2.13-25.17c12.84-11.96,25.88-23.72,38.86-35.52c16.63-15.13,33.48-30.03,49.79-45.5
		c2.87-2.72,4.94-7.84,4.75-11.72c-0.14-2.81-4.72-7.71-7.16-7.6c-4.31,0.18-9.27,2.58-12.6,5.57
		c-27.72,24.83-55.11,50.04-82.65,75.07c-11.22,10.2-21.86,11.1-29.63,2.73c-7.55-8.12-5.67-17.7,5.59-28
		c14.52-13.29,29.08-26.52,43.63-39.78c36.9-33.62,73.79-67.23,110.69-100.84c4.57-4.16,8.87-8.37,5.35-15.36
		c-3.86-7.66-10.52-7.84-18.84-0.27c-51.75,47.06-103.45,94.16-155.21,141.21c-9.04,8.22-16.06,9.09-24.46,3.3
		c-9.2-6.35-7.38-14.33-4.37-23.39C417.27,515.18,421.87,497.94,426.89,480.84"/>
	<path class="st0" d="M540.28,194.06c139.56,0,279.11-0.01,418.67,0.01c27.76,0,47.02,13.45,52.34,36.56
		c0.78,3.39,1.15,6.95,1.15,10.43c0.07,78.74,0.22,157.48-0.25,236.22c-0.04,5.86-3.15,13.46-7.48,17.17
		c-9.97,8.56-24.83,0.74-25.79-12.95c-0.59-8.4-0.16-16.86-0.16-25.3c-0.01-69.6,0-139.21-0.04-208.81
		c-0.01-15.1-4.11-19.43-19.31-19.55c-26.01-0.2-52.02-0.07-78.04-0.07c-250.29,0-500.57,0-750.86,0c-3.52,0-7.03-0.08-10.54,0.03
		c-14.51,0.47-18.68,4.67-18.69,19.15c-0.03,128.31-0.03,256.62-0.04,384.92c0,3.52,0.2,7.06-0.16,10.54
		c-0.99,9.44-7.78,15.61-16.77,15.56c-9.09-0.05-15.64-6.12-16.66-15.7c-0.33-3.13-0.15-6.32-0.15-9.48
		c0-128.66,0-257.32,0.01-385.98c0-33.69,19.09-52.74,53.05-52.75C260.46,194.03,400.37,194.06,540.28,194.06"/>
	<path class="st0" d="M737.71,398.04c6.99-0.48,13.99-1.37,20.99-1.35c9.91,0.04,17.1,6.93,17.51,15.96
		c0.42,9.14-6,16.63-15.92,17.55c-16.41,1.53-32.85,2.83-49.31,3.71c-10.76,0.57-18.33-6.01-19.02-15.46
		c-0.7-9.65,5.63-16.92,16.38-18.1c9.76-1.07,19.57-1.6,29.36-2.37C737.71,398.01,737.71,398.02,737.71,398.04"/>
	<path class="st0" d="M632.22,302.62c0,8.41,0.42,16.84-0.1,25.22c-0.72,11.51-7.98,18.51-17.71,18.03
		c-9.87-0.49-16.07-7.83-15.92-19.54c0.18-15.07,0.54-30.14,1.17-45.19c0.52-12.58,7.12-19.78,17.26-19.58
		c10.51,0.21,16.66,8.07,16.55,21.1c-0.05,6.66-0.01,13.31-0.01,19.97C633.04,302.62,632.63,302.62,632.22,302.62"/>
	<path class="st0" d="M736.15,319.77c-3.41,5.83-5.16,10.56-8.34,13.94c-10.09,10.74-20.57,21.13-31.19,31.36
		c-8.23,7.94-18.38,8.11-25.24,0.99c-6.66-6.92-6.6-16.45,1.03-24.47c10.64-11.19,21.66-22.03,32.75-32.79
		c5.56-5.39,12.77-7.39,19.24-2.98C729.09,309.02,732.07,314.76,736.15,319.77"/>
	<path class="st0" d="M1012.45,548.55c-0.07,9.16-7.53,16.61-16.68,16.68c-9.56,0.07-17.33-7.92-16.96-17.46
		c0.35-9.14,8.1-16.43,17.19-16.17C1005.16,531.87,1012.52,539.45,1012.45,548.55"/>
</g>
</svg>
