<svg version="1.1" id="Capa_1" xmlns="http://www.w3.org/2000/svg" x="0" y="0" viewBox="0 0 1080 1080" xml:space="preserve"><style/><linearGradient id="SVGID_1_" gradientUnits="userSpaceOnUse" x1="-59.353" y1="33.822" x2="1123.067" y2="932.461"><stop offset="0" stop-color="#d44f00"/><stop offset="1" stop-color="#dc9d00"/></linearGradient><path d="M550 793.46c15.34-12.35 27.83-22.9 40.96-32.58 2.87-2.12 8.06-1.46 12.18-1.46 142.73-.07 285.47-.06 428.2-.06h14.91v-12.2c0-190.2 0-380.39-.01-570.58 0-19.88-4.92-24.73-25.01-24.73-320.98-.01-641.95-.01-962.93 0-19.43 0-24.57 5.03-24.57 24.11-.01 190.55-.01 381.09-.01 571.64v11.76h13.24c90.7 0 181.41.11 272.11-.17 7.82-.03 13.18 2.02 17.86 8.27 6.08 8.11 13.01 15.58 21.06 25.08H35.77c-6.87 28.29 5.11 34.74 23.66 34.62 97.38-.63 194.76-.29 292.15-.29h12.81v33.72h-9.8c-99.49 0-198.98.01-298.48 0C20.33 860.58.02 840.23.02 804.35 0 594.47 0 384.58.01 174.7c0-36.52 20.17-56.58 56.81-56.59h966.09c37.21 0 57.08 19.96 57.08 57.38.01 209.18.01 418.36 0 627.54 0 37.93-19.77 57.56-57.94 57.56H616.61v67.52h32.27c10.55 0 21.09-.12 31.64.01 12.29.15 19.86 6.8 19.72 17.07-.13 10.25-7.6 16.52-20.16 16.63-13.71.12-27.42.03-41.13.03-78.4-.01-156.8-.01-235.2-.02-2.46 0-4.93.12-7.38-.07-9.94-.8-16.73-7.75-16.64-16.93.08-9.18 6.91-16.44 16.92-16.61 21.09-.35 42.18-.11 63.28-.11h12.58c0-19.34.26-37.52-.14-55.69-.14-6.54 1.95-10.72 6.76-15.32 5.93-5.67 11.99-12.66 14.37-20.22 2.95-9.41 7.93-10.18 16.11-10.17 170.16.2 340.31.15 510.47.15 2.11 0 4.22.05 6.33-.02 13.19-.39 19.41-6.43 19.82-19.34.14-4.2.02-8.4.02-14.06H550zm31.86 68.02h-74.91v65.75h74.91v-65.75z" fill="url(#SVGID_1_)"/><linearGradient id="SVGID_00000002363426010572613370000016158840289954610588_" gradientUnits="userSpaceOnUse" x1="-129.171" y1="125.688" x2="1053.249" y2="1024.326"><stop offset="0" stop-color="#d44f00"/><stop offset="1" stop-color="#dc9d00"/></linearGradient><path d="M596.42 484.17c18 15.42 23.72 33.11 16.2 54.7-.73 2.11.55 6.19 2.32 7.71 17.98 15.48 20.05 34.18 11.96 55.24.27.58.39 1.46.89 1.79 27.09 18.19 28.07 53.62 2.07 76.21-43.18 37.53-83.39 78.58-133.1 108.04-9.06 5.37-18.36 10.41-27 16.39-2.52 1.74-3.27 6.17-4.6 9.46-2.34 5.82-2.95 13.35-7.06 17.25-9.61 9.15-20.7 16.81-31.5 24.65-8.6 6.24-18.63 4.78-24.32-2.87-5.82-7.83-4.37-17.12 4.05-24.15 5.37-4.48 11-8.65 17.89-14.04-40.97-47.23-81.58-94.03-123.23-142.03-7.89 6.15-16.01 12.56-24.22 18.85-10.44 8-20.71 7.81-26.98-.39-6.3-8.24-4.07-18.1 6.21-26.34 9.87-7.91 19.5-16.2 29.95-23.25 7.39-4.99 15.97-8.2 27.66-14.02 9.73-29.57 21.04-63.87 32.29-98.19 6.99-21.34 13.43-42.88 21.07-63.98 3.06-8.44 7.94-16.5 13.28-23.79 9.7-13.24 22.67-21.5 39.83-18.15 17.97 3.51 30.67 14.31 35.46 32.17 2.68 10.02 2.79 20.73 4.25 32.69 2.9-2.4 5.96-4.73 8.79-7.3 35.86-32.62 71.61-65.36 107.56-97.88 14.57-13.18 31.42-15.63 48.85-6.98 16.96 8.43 25.03 23.15 24.58 42.07-.29 12.14-5.4 22.4-14.36 30.64-12.66 11.63-25.36 23.21-38.79 35.5m-169.53-3.33c-.56-.23-1.12-.45-1.68-.68-.48-4.52-.11-9.37-1.68-13.47-1.36-3.55-4.48-8.08-7.62-8.82-2.74-.64-7.95 2.59-9.66 5.52-4.75 8.12-9.16 16.67-12.1 25.59-18.04 54.7-35.52 109.58-53.53 164.29-2.13 6.47-1.55 10.76 3.04 15.98 29.92 34.06 59.71 68.25 88.96 102.9 6.21 7.35 10.47 7.99 18.95 3.43 59.57-32.01 108.43-77.51 157.36-123.02 5.91-5.5 9.26-11.35 2.83-17.97-6.43-6.62-11.9-1.95-17.14 2.86-15.54 14.25-31 28.61-46.94 42.41-10.68 9.25-24.57 5.16-28.49-7.75-2.55-8.39.26-14.92 6.63-20.66 21.68-19.52 43.11-39.31 64.78-58.84 6.12-5.51 10.51-11.49 3.84-18.77-6.29-6.86-11.86-2.04-17.08 2.73-22.29 20.36-44.54 40.75-67.07 60.85-8.29 7.39-17.93 6.98-24.5-.07-6.9-7.4-6.21-17.4 2.13-25.17 12.84-11.96 25.88-23.72 38.86-35.52 16.63-15.13 33.48-30.03 49.79-45.5 2.87-2.72 4.94-7.84 4.75-11.72-.14-2.81-4.72-7.71-7.16-7.6-4.31.18-9.27 2.58-12.6 5.57-27.72 24.83-55.11 50.04-82.65 75.07-11.22 10.2-21.86 11.1-29.63 2.73-7.55-8.12-5.67-17.7 5.59-28 14.52-13.29 29.08-26.52 43.63-39.78 36.9-33.62 73.79-67.23 110.69-100.84 4.57-4.16 8.87-8.37 5.35-15.36-3.86-7.66-10.52-7.84-18.84-.27-51.75 47.06-103.45 94.16-155.21 141.21-9.04 8.22-16.06 9.09-24.46 3.3-9.2-6.35-7.38-14.33-4.37-23.39 5.61-16.9 10.21-34.14 15.23-51.24" fill="url(#SVGID_00000002363426010572613370000016158840289954610588_)"/><linearGradient id="SVGID_00000009581454243434699810000000817888027951757985_" gradientUnits="userSpaceOnUse" x1="-32.63" y1="-1.34" x2="1149.79" y2="897.299"><stop offset="0" stop-color="#d44f00"/><stop offset="1" stop-color="#dc9d00"/></linearGradient><path d="M540.28 194.06c139.56 0 279.11-.01 418.67.01 27.76 0 47.02 13.45 52.34 36.56.78 3.39 1.15 6.95 1.15 10.43.07 78.74.22 157.48-.25 236.22-.04 5.86-3.15 13.46-7.48 17.17-9.97 8.56-24.83.74-25.79-12.95-.59-8.4-.16-16.86-.16-25.3-.01-69.6 0-139.21-.04-208.81-.01-15.1-4.11-19.43-19.31-19.55-26.01-.2-52.02-.07-78.04-.07H130.51c-3.52 0-7.03-.08-10.54.03-14.51.47-18.68 4.67-18.69 19.15-.03 128.31-.03 256.62-.04 384.92 0 3.52.2 7.06-.16 10.54-.99 9.44-7.78 15.61-16.77 15.56-9.09-.05-15.64-6.12-16.66-15.7-.33-3.13-.15-6.32-.15-9.48 0-128.66 0-257.32.01-385.98 0-33.69 19.09-52.74 53.05-52.75 139.9-.03 279.81 0 419.72 0" fill="url(#SVGID_00000009581454243434699810000000817888027951757985_)"/><linearGradient id="SVGID_00000019639861381224300980000014057904145854049178_" gradientUnits="userSpaceOnUse" x1="47.33" y1="-106.55" x2="1229.75" y2="792.088"><stop offset="0" stop-color="#d44f00"/><stop offset="1" stop-color="#dc9d00"/></linearGradient><path d="M737.71 398.04c6.99-.48 13.99-1.37 20.99-1.35 9.91.04 17.1 6.93 17.51 15.96.42 9.14-6 16.63-15.92 17.55-16.41 1.53-32.85 2.83-49.31 3.71-10.76.57-18.33-6.01-19.02-15.46-.7-9.65 5.63-16.92 16.38-18.1 9.76-1.07 19.57-1.6 29.36-2.37.01.03.01.04.01.06" fill="url(#SVGID_00000019639861381224300980000014057904145854049178_)"/><linearGradient id="SVGID_00000084488766785760971320000005051778260787902883_" gradientUnits="userSpaceOnUse" x1="57.849" y1="-120.391" x2="1240.269" y2="778.248"><stop offset="0" stop-color="#d44f00"/><stop offset="1" stop-color="#dc9d00"/></linearGradient><path d="M632.22 302.62c0 8.41.42 16.84-.1 25.22-.72 11.51-7.98 18.51-17.71 18.03-9.87-.49-16.07-7.83-15.92-19.54.18-15.07.54-30.14 1.17-45.19.52-12.58 7.12-19.78 17.26-19.58 10.51.21 16.66 8.07 16.55 21.1-.05 6.66-.01 13.31-.01 19.97-.42-.01-.83-.01-1.24-.01" fill="url(#SVGID_00000084488766785760971320000005051778260787902883_)"/><linearGradient id="SVGID_00000134211108161659905800000008880500386567167897_" gradientUnits="userSpaceOnUse" x1="72.286" y1="-139.387" x2="1254.705" y2="759.252"><stop offset="0" stop-color="#d44f00"/><stop offset="1" stop-color="#dc9d00"/></linearGradient><path d="M736.15 319.77c-3.41 5.83-5.16 10.56-8.34 13.94-10.09 10.74-20.57 21.13-31.19 31.36-8.23 7.94-18.38 8.11-25.24.99-6.66-6.92-6.6-16.45 1.03-24.47 10.64-11.19 21.66-22.03 32.75-32.79 5.56-5.39 12.77-7.39 19.24-2.98 4.69 3.2 7.67 8.94 11.75 13.95" fill="url(#SVGID_00000134211108161659905800000008880500386567167897_)"/><linearGradient id="SVGID_00000111912476006645619820000010897421459560300179_" gradientUnits="userSpaceOnUse" x1="78.992" y1="-148.21" x2="1261.411" y2="750.428"><stop offset="0" stop-color="#d44f00"/><stop offset="1" stop-color="#dc9d00"/></linearGradient><path d="M1012.45 548.55c-.07 9.16-7.53 16.61-16.68 16.68-9.56.07-17.33-7.92-16.96-17.46.35-9.14 8.1-16.43 17.19-16.17 9.16.27 16.52 7.85 16.45 16.95" fill="url(#SVGID_00000111912476006645619820000010897421459560300179_)"/></svg>