<?xml version="1.0" encoding="utf-8"?>
<!-- Generator: Adobe Illustrator 27.5.0, SVG Export Plug-In . SVG Version: 6.00 Build 0)  -->
<svg version="1.1" id="Capa_1" xmlns="http://www.w3.org/2000/svg" xmlns:xlink="http://www.w3.org/1999/xlink" x="0px" y="0px"
	 viewBox="0 0 1080 1080" style="enable-background:new 0 0 1080 1080;" xml:space="preserve">
<style type="text/css">
	.st0{fill:#7F953F;}
	.st1{fill:#E3E1D1;}
	.st2{fill:#DAFDFB;}
	.st3{fill:#2E262C;}
	.st4{opacity:0.69;fill:#E1F9F6;enable-background:new    ;}
	.st5{fill:#1C1C1A;}
	.st6{fill:#83C7F1;}
	.st7{opacity:0.48;}
	.st8{fill:#333333;}
	.st9{fill:#7B5F52;}
	.st10{fill:#53403C;}
	.st11{fill:#5D5155;}
	.st12{fill:#362B3E;}
	.st13{fill:#FCFFFC;}
	.st14{fill:#2E2B32;}
	.st15{opacity:0.48;fill:#4F4F4F;}
	.st16{fill:#ECEBDC;}
	.st17{fill:#787670;}
	.st18{fill:#7B6152;}
	.st19{fill:#34312B;}
	.st20{fill:#7A6455;}
	.st21{fill:#513E3A;}
	.st22{fill:#433E42;}
	.st23{fill:#7BB3EB;}
	.st24{opacity:0.87;fill:#9CE0F5;enable-background:new    ;}
	.st25{fill:#73B0EC;}
	.st26{fill:#594336;}
	.st27{fill:#222C32;}
	.st28{fill:#6E9EC1;}
	.st29{opacity:0.66;fill:#91DEF7;enable-background:new    ;}
	.st30{fill:#998379;}
	.st31{fill:#FBF8FF;}
	.st32{fill:#E4E4E4;}
	.st33{opacity:0.48;fill:#333333;}
</style>
<g>
	<ellipse class="st0" cx="540" cy="782.6" rx="538.9" ry="57"/>
	<rect x="277.3" y="478.9" class="st1" width="404.6" height="280.8"/>
	<ellipse class="st0" cx="513.3" cy="786.5" rx="492.4" ry="19.1"/>
	<rect x="275" y="315.9" class="st2" width="393.5" height="150.6"/>
	<g>
		<rect x="291" y="316.2" class="st3" width="5.9" height="144.5"/>
		<polygon class="st3" points="519.5,327 274.7,327 274.7,321 513,321 		"/>
		<polygon class="st3" points="539.5,341.3 274.7,341.3 274.7,335.2 539.5,335.1 		"/>
		<rect x="274.7" y="349.5" class="st3" width="281.2" height="6.1"/>
		<rect x="274.7" y="363.7" class="st3" width="292.7" height="6.1"/>
		<rect x="274.7" y="378" class="st3" width="310.4" height="6.1"/>
		<rect x="274.7" y="392.2" class="st3" width="326.1" height="6.1"/>
		<rect x="274.7" y="406.5" class="st3" width="340.5" height="6.1"/>
		<rect x="274.7" y="420.7" class="st3" width="356.2" height="6.1"/>
		<rect x="274.7" y="435" class="st3" width="371.9" height="6.1"/>
		<rect x="274.7" y="449.2" class="st3" width="387" height="6.1"/>
	</g>
	<rect x="305.1" y="315.9" class="st4" width="41.9" height="144.5"/>
	<rect x="355.5" y="315.9" class="st4" width="11.1" height="144.5"/>
	<rect x="447.5" y="316.2" class="st3" width="5.9" height="144.5"/>
	<rect x="459" y="315.9" class="st4" width="41.9" height="144.5"/>
	<rect x="427.5" y="315.9" class="st4" width="11.1" height="144.5"/>
	<polygon class="st1" points="937.3,460.7 688.5,460.7 519.5,306.8 519.5,254.1 937.3,254.1 	"/>
	<g>
		<rect x="683.9" y="279.8" class="st5" width="156.5" height="161.4"/>
		<rect x="689.8" y="287.9" class="st6" width="68.8" height="147.2"/>
		<rect x="764.4" y="287.9" class="st6" width="68.8" height="147.2"/>
		<rect x="721.2" y="287.9" class="st5" width="2.6" height="147.2"/>
		<rect x="797.8" y="287.9" class="st5" width="2.6" height="147.2"/>
	</g>
	<g class="st7">
		<polygon class="st8" points="937.3,261.5 625.9,349.5 885.6,441.1 673.5,441.1 525.4,306.1 525.4,261.5 		"/>
	</g>
	<rect x="234.2" y="557.6" class="st9" width="455.7" height="7.4"/>
	<rect x="238.5" y="552.2" class="st10" width="447.2" height="5.4"/>
	<rect x="28.5" y="759.8" class="st11" width="969.7" height="24.3"/>
	<rect x="28.5" y="784.1" class="st12" width="969.7" height="5.4"/>
	<rect x="702.2" y="478.9" class="st13" width="241" height="280.8"/>
	<rect x="681.9" y="385.8" class="st14" width="3.9" height="55.4"/>
	<polygon class="st15" points="319.2,618 348.3,759.7 319.2,759.8 	"/>
	<rect x="56.6" y="618" class="st16" width="262.6" height="141.8"/>
	<rect x="82.2" y="632.2" class="st17" width="210.2" height="12.8"/>
	<rect x="94.6" y="645" class="st18" width="185.3" height="144.5"/>
	<rect x="94.6" y="650.4" class="st19" width="185.3" height="2"/>
	<rect x="94.6" y="669.3" class="st19" width="185.3" height="2"/>
	<rect x="94.6" y="688.2" class="st19" width="185.3" height="2"/>
	<rect x="94.6" y="707.1" class="st19" width="185.3" height="2"/>
	<rect x="94.6" y="726" class="st19" width="185.3" height="2"/>
	<rect x="94.6" y="747" class="st12" width="185.3" height="42.5"/>
	<g>
		<rect x="49.8" y="590.7" class="st20" width="275" height="21.6"/>
		<rect x="49.8" y="612.3" class="st21" width="275" height="8.1"/>
	</g>
	<polygon class="st15" points="446.2,759.8 446.2,673 362.1,759.7 	"/>
	<rect x="446.2" y="604.5" class="st22" width="100.8" height="155.3"/>
	<rect x="425.9" y="591" class="st20" width="138.8" height="13.5"/>
	<rect x="454.7" y="607.9" class="st23" width="83.8" height="145.8"/>
	<polygon class="st24" points="454.7,649.8 509.1,607.9 524.3,607.9 454.7,662.9 	"/>
	<polygon class="st24" points="538.5,607.9 454.7,684.4 454.7,715.6 538.6,637.7 	"/>
	<polygon class="st24" points="538.5,646.4 454.7,722.9 454.7,730.4 538.6,652.6 	"/>
	<polygon class="st24" points="459.5,753.7 538.7,684.5 538.5,699.2 476.9,753.8 	"/>
	<rect x="500.6" y="672.7" class="st22" width="4.6" height="25.7"/>
	<rect x="487.5" y="672.7" class="st22" width="4.6" height="25.7"/>
	<rect x="495.3" y="607.9" class="st22" width="3.3" height="145.8"/>
	<g>
		<rect x="711.4" y="485" class="st25" width="57" height="134.3"/>
		<rect x="872.5" y="485" class="st25" width="64.8" height="134.3"/>
		<rect x="774.2" y="485" class="st25" width="91.7" height="134.3"/>
		<rect x="711.4" y="625.4" class="st25" width="57" height="134.4"/>
		<rect x="872.5" y="625.4" class="st25" width="64.8" height="134.4"/>
		<rect x="774.2" y="625.4" class="st25" width="91.7" height="134.4"/>
	</g>
	<rect x="792.9" y="557.6" class="st24" width="144" height="201.9"/>
	<polygon class="st26" points="691.7,759.8 702,759.8 702,478.9 952,478.9 952,471.9 694,471.9 	"/>
	<polygon class="st26" points="525.4,306.1 519.9,301 519.9,255.8 977.1,255.8 973.3,261.5 525.4,261.5 	"/>
	<polygon class="st27" points="711.4,485 711.4,759.8 722.8,759.8 722.8,496.1 937.3,496.1 937.3,485 	"/>
	<rect x="701.9" y="619" class="st13" width="239" height="7.4"/>
	<rect x="768" y="482.6" class="st13" width="6.5" height="276.8"/>
	<rect x="866.2" y="482.6" class="st13" width="6.5" height="276.8"/>
	<polygon class="st28" points="983.4,441.1 983.4,385.8 612.2,385.8 672.8,441.1 	"/>
	<polygon class="st29" points="954.4,385.8 926.7,441.1 964.8,441.1 981.5,409.7 980.8,385.4 	"/>
	<polygon class="st29" points="858.2,385.8 830.5,441.1 868.5,441.1 885.2,409.7 884.6,385.4 	"/>
	<polygon class="st29" points="758,385.8 730.3,441.1 768.4,441.1 785.7,409.7 786.4,385.4 	"/>
	<polygon class="st29" points="670.9,385.8 658.7,428 673.1,441.5 681.3,441.1 683.6,409.7 682.9,385.4 	"/>
	<polygon class="st30" points="202,298 503.8,298 503.8,240.4 987.9,240.4 973.3,261.5 525.4,261.5 525.4,306.1 689.1,455.3 
		952,455.3 952,478.9 702,478.9 702,759.8 681.9,759.8 681.9,478.9 271.3,478.9 271.3,460.7 665.6,460.7 507.8,316.2 217.1,316.2 	
		"/>
	<polygon class="st26" points="271.1,470.2 685.9,470.2 508.1,306.5 208.7,306.5 217.1,316.2 507.8,316.2 665.6,460.7 271.3,460.7 	
		"/>
	<polygon class="st14" points="607.6,381 612.8,385.8 987.9,385.8 987.9,381 	"/>
	<polygon class="st14" points="985.7,385.8 981.8,385.8 981.8,441.1 889.5,441.1 889.5,385.8 885.6,385.8 885.6,441.1 790,441.1 
		790,385.8 786,385.8 786,441.1 673.5,441.1 689.1,455.3 987.9,455.3 987.9,441.1 985.7,441.1 	"/>
	<g>
		<rect x="430.8" y="759.4" class="st31" width="132.3" height="16.2"/>
		<rect x="423.6" y="775.7" class="st31" width="146.7" height="16.2"/>
		<rect x="417.7" y="791.8" class="st31" width="158.4" height="21.6"/>
	</g>
	<rect x="430.8" y="768.2" class="st32" width="132.3" height="7.4"/>
	<rect x="423.6" y="783.8" class="st32" width="146.7" height="8.1"/>
	<rect x="417.7" y="801.3" class="st32" width="158.4" height="12.2"/>
	<polygon class="st33" points="291.4,479 611.5,521.8 446.2,673 446.2,759.8 681.9,759.8 681.9,478.9 	"/>
</g>
</svg>
