<svg version="1.1" id="Capa_1" xmlns="http://www.w3.org/2000/svg" x="0" y="0" viewBox="0 0 1395.88 1395.88" xml:space="preserve"><style>.st0{fill:#fff}</style><path class="st0" d="M780.92 612.35c35.14-15.52 71-20.15 107.23-20.65 59.82-.83 119.67-.36 179.5-.09 132.21.59 240.36 84.44 274.5 202.68 7.58 26.26 11.46 54.36 12.06 81.72 1.62 73.51.33 147.08.83 220.62.07 9.91-3.92 12.94-12.32 15.53-71.52 22.08-144.06 40.25-218.2 50.24-53.95 7.27-108.46 10.32-164.84 15.44 0-7.17.09-11.68-.01-16.18-.83-38 .63-76.23-3.14-113.94-4.77-47.79-27.85-87.55-63.37-120.12-24.92-22.85-53.76-38.23-86.43-47.22 89.6-81.64 64.5-215.02-25.81-268.03zm-166.22.02c-91 54.16-114.18 186.88-25.7 267.83-60.51 17.52-105.53 53.7-133.04 110.6-13.33 27.57-19.58 56.97-19.7 87.6-.12 31.98-.03 63.96-.03 98.03-36.76-2.55-72.58-3.24-107.86-7.91-53.86-7.13-107.66-15.52-160.92-26.23-39.4-7.92-77.89-20.42-116.81-30.78-7.22-1.92-9.74-5.87-9.7-13.67.33-75.24-.7-150.5.42-225.73 2.02-135.13 96.17-248.21 228.3-274.69 20.35-4.08 41.49-5.41 62.3-5.68 57.68-.75 115.38-.85 173.06-.07 37.1.5 73.85 4.61 109.68 20.7zm363.03-35.46c-125.4-.17-229.89-105.34-220.47-237.4 8.22-115.18 103.79-207.98 227.46-204.74 117.39 3.08 223.66 102.26 213.25 239.39-8.56 112.67-102.13 202.2-220.24 202.75zm-559.75-.08c-123.31-.73-221.18-99.55-220.85-221.93.32-120.37 98.08-221.22 223-220.26 121.35.94 224.36 100.87 218.72 231.93-4.88 113.54-98.61 209.86-220.87 210.26z"/><path class="st0" d="M464.55 1221.41c0-53.64-2.4-105.89.55-157.85 4.71-83.03 71-152.42 148.62-158.59 57.57-4.58 116.02-3.84 173.7.13 62.14 4.28 123.62 64.3 138.5 128.61 3.41 14.76 5.02 30.21 5.26 45.38.69 43.15 0 86.32.45 129.47.08 8.04-2.34 12.24-9.61 15.45-42.34 18.69-86.63 30.75-132.6 33.79-43.73 2.89-87.84 4.7-131.54 2.38-65.85-3.49-130.08-17.87-193.33-38.77zm370.16-466.14c-.91 77.52-61.02 137.12-137.64 136.46-76.37-.65-137.29-62.37-136.28-138.07 1-75.15 63.54-136.58 137.96-135.52 75.94 1.09 136.83 62.5 135.96 137.13z"/></svg>