<?xml version="1.0" encoding="utf-8"?>
<!-- Generator: Adobe Illustrator 27.5.0, SVG Export Plug-In . SVG Version: 6.00 Build 0)  -->
<svg version="1.1" id="Capa_1" xmlns="http://www.w3.org/2000/svg" xmlns:xlink="http://www.w3.org/1999/xlink" x="0px" y="0px"
	 viewBox="0 0 1422 916" style="enable-background:new 0 0 1422 916;" xml:space="preserve">
<style type="text/css">
	.st0{fill:#FFFFFF;}
	.st1{fill:#D44F00;}
	.st2{fill-rule:evenodd;clip-rule:evenodd;fill:#3A9243;}
</style>
<g>
	<g>
		<path class="st0" d="M1281.2,562.5H140.8c-57.72,0-104.5-46.79-104.5-104.5v0c0-57.72,46.79-104.5,104.5-104.5h1140.4
			c57.72,0,104.5,46.79,104.5,104.5v0C1385.71,515.72,1338.92,562.5,1281.2,562.5z"/>
		<path class="st1" d="M1281.2,569.8H140.8C79.15,569.8,29,519.65,29,458s50.15-111.8,111.8-111.8H1281.2
			c61.65,0,111.8,50.15,111.8,111.8S1342.85,569.8,1281.2,569.8z M140.8,360.79c-53.6,0-97.21,43.61-97.21,97.21
			s43.61,97.21,97.21,97.21H1281.2c53.6,0,97.21-43.61,97.21-97.21s-43.61-97.21-97.21-97.21H140.8z"/>
	</g>
	<g>
		<g>
			<g id="WA_Logo_2_">
				<g>
					<path class="st2" d="M261.11,413.08c-11.85-11.86-27.62-18.4-44.41-18.41c-34.61,0-62.77,28.15-62.78,62.76
						c0,11.06,2.89,21.86,8.38,31.38l-8.91,32.52l33.28-8.73c9.17,5,19.49,7.64,30,7.64h0.03c0,0,0,0,0,0
						c34.6,0,62.77-28.16,62.78-62.76C279.49,440.71,272.96,424.94,261.11,413.08z M216.7,509.64h-0.02
						c-9.36,0-18.55-2.52-26.56-7.27l-1.91-1.13l-19.75,5.18l5.27-19.25l-1.24-1.97c-5.22-8.31-7.98-17.91-7.98-27.76
						c0.01-28.76,23.42-52.16,52.2-52.16c13.94,0.01,27.04,5.44,36.89,15.3c9.85,9.86,15.28,22.97,15.27,36.91
						C268.87,486.24,245.46,509.64,216.7,509.64z M245.32,470.57c-1.57-0.78-9.28-4.58-10.72-5.1c-1.44-0.52-2.48-0.78-3.53,0.79
						c-1.05,1.57-4.05,5.1-4.97,6.15c-0.92,1.05-1.83,1.18-3.4,0.39c-1.57-0.78-6.62-2.44-12.62-7.78
						c-4.66-4.16-7.81-9.29-8.73-10.86c-0.92-1.57-0.1-2.42,0.69-3.2c0.71-0.7,1.57-1.83,2.35-2.75c0.78-0.92,1.05-1.57,1.57-2.62
						c0.52-1.05,0.26-1.96-0.13-2.75c-0.39-0.78-3.53-8.5-4.84-11.64c-1.27-3.06-2.57-2.64-3.53-2.69
						c-0.91-0.05-1.96-0.06-3.01-0.06c-1.05,0-2.75,0.39-4.18,1.96c-1.44,1.57-5.49,5.36-5.49,13.08c0,7.72,5.62,15.18,6.41,16.22
						s11.06,16.89,26.8,23.68c3.74,1.62,6.66,2.58,8.94,3.3c3.76,1.19,7.18,1.02,9.88,0.62c3.01-0.45,9.28-3.79,10.59-7.46
						c1.31-3.66,1.31-6.8,0.91-7.46C247.94,471.75,246.89,471.36,245.32,470.57z"/>
				</g>
			</g>
		</g>
		<g>
			<path class="st1" d="M357.36,458.92c0-24.61,13.99-36.56,34.21-36.56c6.84,0,14.3,1.63,18.89,4.29l-2.04,11.34
				c-4.29-2.35-10.01-4.29-16.24-4.29c-16.24,0-21.55,11.54-21.55,24.1c0,14.19,6.64,24.51,22.47,24.51
				c6.64,0,12.66-2.14,16.44-4.39l1.84,10.93c-5.11,3.17-13.58,4.8-20.02,4.8C370.43,493.64,357.36,480.98,357.36,458.92z"/>
			<path class="st1" d="M418.83,468.11c0-17.16,8.17-26.35,23.59-26.35c15.52,0,23.79,9.09,23.79,26.04
				c0,18.28-9.5,25.84-23.79,25.84C428.32,493.64,418.83,485.47,418.83,468.11z M453.45,468.01c0-10.21-3.68-16.03-10.93-16.03
				c-7.45,0-10.93,6.13-10.93,16.03c0,8.78,3.27,15.42,10.93,15.42C450.38,483.43,453.45,476.38,453.45,468.01z"/>
			<path class="st1" d="M488.57,492.21h-12.46v-48l12.46-2.45v7.15c4.08-4.6,10.21-7.15,16.13-7.15c10.52,0,15.42,7.35,15.42,16.95
				v33.5h-12.46v-30.33c0-5.62-2.76-8.68-7.66-8.68c-4.39,0-8.37,2.65-11.44,5.82V492.21z"/>
			<path class="st1" d="M527.88,443.19h7.15l6.02-12.15h6.33v12.15h13.27v9.5h-13.27v25.32c0,2.86,1.22,4.9,3.88,4.9
				c2.96,0,6.64-1.12,8.68-1.84l1.43,9.19c-2.65,1.74-7.86,3.37-12.36,3.37c-8.68,0-13.99-4.08-13.99-14.6v-26.35h-7.15V443.19z"/>
			<path class="st1" d="M570.26,447.58c7.15-4.09,16.34-5.82,21.24-5.82c12.87,0,17.05,5.72,17.05,15.22v27.27
				c0,2.04,0.92,2.55,2.96,2.55h2.76v5.31c-2.14,0.41-6.74,1.12-10.72,1.12c-4.8,0-6.84-1.53-7.45-6.23
				c-3.27,3.68-9.09,6.64-15.01,6.64c-7.35,0-12.56-4.08-12.56-11.03c0-13.38,18.18-16.65,27.57-18.28v-5.31
				c0-4.39-1.94-6.13-7.66-6.13c-4.19,0-11.34,1.74-16.24,3.78L570.26,447.58z M596.1,471.28c-6.43,1.12-14.7,4.08-14.7,9.29
				c0,2.35,1.63,3.98,4.08,3.98c2.86,0,7.66-2.25,10.62-6.02V471.28z"/>
			<path class="st1" d="M619.38,467.7c0-16.85,10.42-25.94,23.08-25.94c6.43,0,11.95,1.94,15.52,4.39l-2.35,9.19
				c-3.06-1.43-7.05-2.76-11.13-2.76c-8.48,0-12.36,6.43-12.36,15.11c0,9.7,3.68,15.11,12.56,15.11c4.49,0,8.37-1.12,12.25-3.17
				l1.94,9.29c-3.27,2.45-9.91,4.7-16.14,4.7C630,493.64,619.38,485.88,619.38,467.7z"/>
			<path class="st1" d="M664,443.19h7.15l6.02-12.15h6.33v12.15h13.27v9.5h-13.27v25.32c0,2.86,1.22,4.9,3.88,4.9
				c2.96,0,6.64-1.12,8.68-1.84l1.43,9.19c-2.65,1.74-7.86,3.37-12.36,3.37c-8.68,0-13.99-4.08-13.99-14.6v-26.35H664V443.19z"/>
			<path class="st1" d="M706.38,447.58c7.15-4.09,16.34-5.82,21.24-5.82c12.87,0,17.05,5.72,17.05,15.22v27.27
				c0,2.04,0.92,2.55,2.96,2.55h2.76v5.31c-2.14,0.41-6.74,1.12-10.72,1.12c-4.8,0-6.84-1.53-7.45-6.23
				c-3.27,3.68-9.09,6.64-15.01,6.64c-7.35,0-12.56-4.08-12.56-11.03c0-13.38,18.18-16.65,27.57-18.28v-5.31
				c0-4.39-1.94-6.13-7.66-6.13c-4.19,0-11.34,1.74-16.24,3.78L706.38,447.58z M732.21,471.28c-6.43,1.12-14.7,4.08-14.7,9.29
				c0,2.35,1.63,3.98,4.08,3.98c2.86,0,7.66-2.25,10.62-6.02V471.28z"/>
			<path class="st1" d="M781.74,447.58c7.15-4.09,16.34-5.82,21.24-5.82c12.87,0,17.05,5.72,17.05,15.22v27.27
				c0,2.04,0.92,2.55,2.96,2.55h2.76v5.31c-2.14,0.41-6.74,1.12-10.72,1.12c-4.8,0-6.84-1.53-7.45-6.23
				c-3.27,3.68-9.09,6.64-15.01,6.64c-7.35,0-12.56-4.08-12.56-11.03c0-13.38,18.18-16.65,27.57-18.28v-5.31
				c0-4.39-1.94-6.13-7.66-6.13c-4.19,0-11.34,1.74-16.24,3.78L781.74,447.58z M807.57,471.28c-6.43,1.12-14.7,4.08-14.7,9.29
				c0,2.35,1.63,3.98,4.08,3.98c2.86,0,7.66-2.25,10.62-6.02V471.28z"/>
			<path class="st1" d="M888.14,487.1c-4.08,4.19-10.01,6.54-15.62,6.54c-10.52,0-15.42-7.35-15.42-16.95v-33.5h12.46v30.84
				c0,5.62,2.45,8.68,7.35,8.68c4.49,0,8.27-2.76,11.23-5.72v-33.8h12.46v49.02h-12.46V487.1z"/>
			<path class="st1" d="M925.72,492.21h-12.46v-48l12.46-2.45v7.15c4.08-4.6,10.21-7.15,16.13-7.15c10.52,0,15.42,7.35,15.42,16.95
				v33.5h-12.46v-30.33c0-5.62-2.76-8.68-7.66-8.68c-4.39,0-8.37,2.65-11.44,5.82V492.21z"/>
			<path class="st1" d="M991.78,447.58c7.15-4.09,16.34-5.82,21.24-5.82c12.87,0,17.05,5.72,17.05,15.22v27.27
				c0,2.04,0.92,2.55,2.96,2.55h2.76v5.31c-2.14,0.41-6.74,1.12-10.72,1.12c-4.8,0-6.84-1.53-7.45-6.23
				c-3.27,3.68-9.09,6.64-15.01,6.64c-7.35,0-12.56-4.08-12.56-11.03c0-13.38,18.18-16.65,27.57-18.28v-5.31
				c0-4.39-1.94-6.13-7.66-6.13c-4.19,0-11.34,1.74-16.24,3.78L991.78,447.58z M1017.62,471.28c-6.43,1.12-14.7,4.08-14.7,9.29
				c0,2.35,1.63,3.98,4.08,3.98c2.86,0,7.66-2.25,10.62-6.02V471.28z"/>
			<path class="st1" d="M1059.59,493.64c-6.03,0-13.79-1.94-18.18-4.49l2.45-9.8c3.88,2.25,10.93,4.29,16.14,4.29
				c3.68,0,6.33-1.43,6.33-4.19c0-3.47-2.14-4.6-10.52-7.86c-7.86-3.06-12.97-5.82-12.97-14.5c0-9.91,8.07-15.32,18.59-15.32
				c5.92,0,12.15,1.84,15.62,3.78l-2.45,9.7c-2.65-1.33-8.17-2.86-12.36-2.86c-4.6,0-6.74,1.43-6.74,4.09
				c0,2.65,3.37,3.88,9.19,6.02c9.09,3.37,14.19,7.86,14.19,15.83C1078.89,488.43,1069.8,493.64,1059.59,493.64z"/>
			<path class="st1" d="M1098.8,469.64v0.1c0,8.37,4.7,13.17,13.38,13.17c5.21,0,11.54-2.04,15.52-4.19l1.94,9.29
				c-3.37,2.55-11.95,5.62-19.3,5.62c-13.27,0-24.3-7.15-24.3-24.51c0-16.95,9.09-27.37,25.02-27.37c11.23,0,18.69,6.23,18.69,18.38
				c0,3.27-0.61,7.66-1.23,9.5H1098.8z M1099.41,461.37h17.36c0.1-0.31,0.1-1.94,0.1-2.55c0-5.31-3.47-6.54-6.74-6.54
				C1105.84,452.28,1101.45,454.22,1099.41,461.37z"/>
			<path class="st1" d="M1155.06,493.64c-6.03,0-13.79-1.94-18.18-4.49l2.45-9.8c3.88,2.25,10.93,4.29,16.14,4.29
				c3.68,0,6.33-1.43,6.33-4.19c0-3.47-2.14-4.6-10.52-7.86c-7.86-3.06-12.97-5.82-12.97-14.5c0-9.91,8.07-15.32,18.59-15.32
				c5.92,0,12.15,1.84,15.62,3.78l-2.45,9.7c-2.65-1.33-8.17-2.86-12.36-2.86c-4.6,0-6.74,1.43-6.74,4.09
				c0,2.65,3.37,3.88,9.19,6.02c9.09,3.37,14.19,7.86,14.19,15.83C1174.36,488.43,1165.27,493.64,1155.06,493.64z"/>
			<path class="st1" d="M1181.51,468.11c0-17.16,8.17-26.35,23.59-26.35c15.52,0,23.79,9.09,23.79,26.04
				c0,18.28-9.5,25.84-23.79,25.84C1191,493.64,1181.51,485.47,1181.51,468.11z M1216.13,468.01c0-10.21-3.68-16.03-10.93-16.03
				c-7.45,0-10.93,6.13-10.93,16.03c0,8.78,3.27,15.42,10.93,15.42C1213.06,483.43,1216.13,476.38,1216.13,468.01z"/>
			<path class="st1" d="M1267.18,453.91c-0.72-0.2-1.74-0.31-2.55-0.31c-4.39,0-9.4,5-13.38,9.4v29.21h-12.46v-48l12.46-2.45v9.7
				c2.45-3.47,7.05-9.7,12.87-9.7c1.84,0,3.88,0.82,4.49,1.43L1267.18,453.91z"/>
		</g>
	</g>
</g>
</svg>
