<svg xmlns="http://www.w3.org/2000/svg" viewBox="0 0 1080 1080"><path d="M779.55 360.12V223.88c-75.4-9.74-150.81-24.2-223.08 11.9-72.82 36.38-97.82 102.26-100.76 179.02-1.6 41.77-.29 83.66-.29 128.55H320.4v158.5h133.59v378.14C229.61 1051.29-8.37 839.92.23 526.94 8.31 232.43 257.51-5.35 545.06.09c307.1 5.81 543.67 261.58 534.7 561.09-8.76 292.59-242.95 495.39-454.15 518.06V702.52h124.62c8.13-53.84 15.78-104.45 23.79-157.48h-152.4c3.04-47.39 2.87-92.93 9.89-137.32 4.7-29.71 30.61-44.92 59.89-47.14 28.45-2.15 57.2-.46 88.15-.46z" fill="#fff"/></svg>