<svg xmlns="http://www.w3.org/2000/svg" viewBox="0 0 1080 1080"><path d="M279.69 92.55c168.09-8.83 343.92-17.05 520.53-21.7 47.24 75.63 93.41 151.92 139.61 228.16 47.39 77.51 93.82 155.65 140.17 233.78-44.57 79.45-88.77 159.19-134.26 238.11L819.49 991.8l-10.26 17.94-20.67-.09-254.43-1.07c-91.11-.07-182.29-1.52-273.41-2.75-44.43-79.25-88.97-158.48-132.39-238.3C85.42 689.37 42.37 611.25.52 532.49 92.86 381.83 187.96 233.68 279.69 92.55zm0 0C199.83 248.2 122.79 397.88 43.86 543.99v-21.48c89.31 144.27 177.1 289.46 263.67 435.36l-27.84-16.07c84.81-1.16 169.62-2.42 254.43-2.49l254.43-1.07-30.92 17.85L885.81 736.3c42.45-73.42 86.06-146.17 129.41-219.08v32.06c-83.08-147.92-164.87-296.56-245.19-446.03l18.52 10.69c-166.01-4.7-334.17-12.76-508.86-21.39z" fill="#d44f00"/></svg>