<svg version="1.1" id="Capa_1" xmlns="http://www.w3.org/2000/svg" x="0" y="0" viewBox="0 0 1080 1080" xml:space="preserve"><style>.st0{fill:#fff}</style><path class="st0" d="M540.09 0c297.17.32 539.66 242.87 539.9 540.04.25 297.07-242.46 540.04-539.37 539.95C241.18 1079.91-.4 838.32 0 539.36.4 241.81 242.86-.32 540.09 0zm.35 204.3c-53.48 0-107.05-2.04-160.41.46-89.87 4.2-158.27 60.24-171.04 148.74-17.71 122.76-16.54 247.16-.9 369.92 11.6 91.09 78.32 148.28 170.68 151.56 108.4 3.84 217.16 3.84 325.54-.32 94.27-3.62 165.66-72.6 169.82-166.31 4.94-111.44 4.56-223.39.18-334.88-3.41-86.81-61.88-150.59-147.67-163.9-61.19-9.5-186.14-7.74-186.2-5.27z"/><path class="st0" d="M539.21 813.78c-54.24 0-108.79 3.6-162.65-.92-65.93-5.53-107.55-46.2-109.77-111.66-3.67-108.31-3.2-216.92.34-325.25 1.96-60.15 45.74-105.5 105.78-107.68 110.76-4.02 221.87-4.18 332.64-.32 61.4 2.14 105.13 47.77 107.07 109.1 3.4 107.54 3.96 215.36.3 322.88-2.28 67-43.43 107.33-111.04 113.05-53.86 4.55-108.41.92-162.65.92-.01-.04-.01-.08-.02-.12zm.94-447.16c-98.21-.04-174.27 75.72-174.5 173.83-.23 96.57 78.73 175.28 174.94 174.37 96.37-.91 173.1-77.78 173.29-173.6.19-98.1-75.88-174.56-173.73-174.6zm221.34-7.03c.13-23.42-17.21-40.86-40.6-40.79-22.68.06-41.52 18.83-41.09 40.94.4 20.66 19.35 39.74 40.11 40.39 22.31.68 41.45-17.98 41.58-40.54z"/><path class="st0" d="M540.63 653.5c-61.44.44-112.81-49.81-114.24-111.74-1.42-61.52 51.56-114.96 113.74-114.75 61.29.21 113 51.93 113.01 113.04.01 61.47-51.11 113.01-112.51 113.45z"/></svg>