<svg xmlns="http://www.w3.org/2000/svg" viewBox="0 0 1395.88 1395.88"><path d="M917.21 872.27c-6.3.32-11.24.78-16.18.79-113.96.04-227.92-.28-341.87.4-15.01.09-19.43-4.91-19.78-18.86-1.9-75.12-5.61-150.22-6.11-225.34-.27-40.13 4.66-80.29 7.29-121.08H916.9c13.59 121.17 13.45 242.18.31 364.09zm-464.8-363.75c-12.06 121.72-11.79 242.1-.14 363.5-6.37.42-11.26 1.02-16.15 1.02-106.2.05-212.4-.13-318.6.28-11.95.05-17.32-2.84-20.64-15.4-29.68-112.08-29.64-223.88.49-335.79 2.32-8.62 3.96-15.09 15.72-15.04 110.13.45 220.27.29 330.4.34 2.16 0 4.32.51 8.92 1.09zm554.52 363.2c11.04-121.05 11.22-241.42-.24-364.38h17.69c96.04 0 192.08.22 288.12-.27 12.34-.06 17.16 3.58 20.38 15.77 29.62 112.01 29.65 223.76-.38 335.64-2.37 8.82-4.24 14.91-15.84 14.86-99.97-.45-199.94-.27-299.91-.33-2.67-.01-5.33-.69-9.82-1.29zM553.4 416.9c21.82-114.71 47.84-226.73 117.61-322.78 9.41-12.96 21.74-24.3 34.36-34.31 16.95-13.43 31.66-12.42 49.23.37 27.02 19.68 45.17 46.8 60.89 75.38 47.29 86 71.36 179.59 88.2 275.42.27 1.56-.28 3.26-.54 5.91-116.06.01-232.05.01-349.75.01zm.51 546.55h351.9c-6.52 30.84-11.93 60.39-19.07 89.51-19.96 81.42-46.03 160.52-95.77 229.44-9.72 13.47-22.02 25.5-34.76 36.26-19.03 16.07-36.66 17.26-54.08-.7-21.63-22.3-42.76-46.43-58.13-73.2-49.75-86.62-72.41-182.47-90.09-281.31zm-416.1-.27h326c21.67 122.32 50.52 242.18 116.85 350.09-137.35 3.56-393.7-198.95-442.85-350.09zM581.03 66.63c-33.46 54.5-58.46 110.71-74.95 170.18-16.28 58.7-29.78 118.17-45.07 179.56H139.1C170.36 280.86 428.92 74.99 581.03 66.63zm710.17 350.2H995.05C973.87 298.08 945.82 180.88 882.8 74.61c141.41 16.41 373.92 211.32 408.4 342.22zm-408.87 889.85c63.5-107.22 91.52-224 112.75-343.41h295.68c-21.39 120.06-251.34 314.05-408.43 343.41z" fill="#fff"/></svg>