<svg xmlns="http://www.w3.org/2000/svg" viewBox="0 0 1080 1080"><path d="M1080 539.15c.16 298.91-240.46 540.55-538.57 540.85C242.81 1080.3.05 838.95 0 541.74-.05 241.18 240.37.01 540.06 0 838.98-.01 1079.84 240.49 1080 539.15zM456.16 834.74c37.86 0 72.93-1.09 107.88.43 19.01.83 24.74-4.52 24.3-23.97-1.4-62.29-1.27-124.63-.54-186.94.23-19.78 2.01-40.09 6.91-59.16 8.86-34.43 37.75-52.23 76.99-50.81 32.19 1.16 52.21 18.72 59.47 54.82 3.27 16.29 4.2 33.26 4.33 49.93.49 64.71.63 129.44-.05 194.15-.17 16.28 4.28 22.66 21.61 21.92 31.11-1.33 62.32-.66 93.48-.24 11.29.15 18.12-2 17.87-15.54-1.74-95.77 1.56-191.9-5.7-287.24-8.17-107.29-80.58-144.41-184.86-131.14-38.92 4.95-67.51 29.4-94.83 63.14-1.13-21.72-1.97-37.8-2.79-53.66H456.15c.01 141.5.01 281.09.01 424.31zm-215.46.06c35.54 0 69.7-1.18 103.73.44 20.52.98 27.74-4.41 27.55-26.19-1.06-125.28-.62-250.58-.82-375.87-.01-7.61-1.14-15.22-1.76-22.98H240.7v424.6zm-11.64-560.37c.24 42.8 35.33 76.7 78.51 75.87 40.51-.78 75.97-37.47 75.12-77.73-.87-41.48-35.4-75.38-77.04-75.66-43.12-.29-76.83 33.83-76.59 77.52z" fill="#fff"/></svg>