<svg version="1.1" id="Capa_1" xmlns="http://www.w3.org/2000/svg" x="0" y="0" viewBox="0 0 1080 1080" xml:space="preserve"><style>.st0{fill:#fff}</style><path class="st0" d="M1080 811.27c-1.4 3.69-3.12 7.28-4.15 11.07-16.45 60.31-61.25 96.39-123.68 96.48-275.01.41-550.03.53-825.04-.07C53.89 918.59.48 863.9.3 790.71-.1 623.56-.11 456.4.3 289.25c.18-73.24 53.54-127.83 126.86-128 275.01-.6 550.03-.5 825.04-.06 65.18.1 101.11 31.47 127.79 107.54.01 180.85.01 361.7.01 542.54zm-541.37 57.65c134.32 0 268.64.02 402.96-.01 57.66-.01 88.41-28.75 88.6-85.7.55-162.37.58-324.74-.03-487.1-.21-55.98-31-84.99-86.87-85-268.64-.03-537.28-.03-805.93 0-56.15.01-87.17 28.87-87.38 84.5-.61 163.17-.65 326.34.03 489.5.23 54.48 31.46 83.78 85.64 83.8 134.33.04 268.65.01 402.98.01z"/><path class="st0" d="M659.49 543.02c101.53 75.93 200.01 149.62 298.55 223.23 26.34 19.68 33.12 34.07 19.79 47.51-18.95 19.1-34.58 4.1-50.03-7.43-103.01-76.89-206.05-153.73-312.16-232.88-51.22 58.33-104.82 63.44-156.8-.22-75.31 56.79-147.92 111.54-220.52 166.3-31.26 23.57-62.46 47.22-93.77 70.72-20.19 15.15-37.12 16.28-45.64 1.98-11.23-18.85-.47-30.52 14.48-41.73 99.7-74.74 199.04-149.96 301.23-227.07-16.46-12.93-31.62-25.11-47.07-36.93-84.39-64.57-168.86-129.05-253.29-193.58-2.54-1.94-4.85-4.19-7.45-6.03-14.98-10.66-23-24.63-9.99-40.38 11.76-14.24 26.43-10.11 40.16.5 37.93 29.31 76.31 58.06 114.38 87.2 90.08 68.96 180.08 138.03 270.16 207 4.4 3.37 9.26 6.15 15.51 10.27 65.1-48.55 130.34-97.18 195.55-145.85 69.78-52.08 139.6-104.1 209.24-156.37 12.34-9.26 24.59-16.07 38.7-4.41 14.05 11.61 11.01 29.45-7.85 43.63-68.96 51.86-138.12 103.45-207.2 155.15-34.41 25.76-68.79 51.53-105.98 79.39z"/></svg>