<?xml version="1.0" encoding="utf-8"?>
<!-- Generator: Adobe Illustrator 27.5.0, SVG Export Plug-In . SVG Version: 6.00 Build 0)  -->
<svg version="1.1" id="Capa_1" xmlns="http://www.w3.org/2000/svg" xmlns:xlink="http://www.w3.org/1999/xlink" x="0px" y="0px"
	 viewBox="0 0 1080 1080" style="enable-background:new 0 0 1080 1080;" xml:space="preserve">
<style type="text/css">
	.st0{fill:#DB4E00;}
</style>
<g>
	<path class="st0" d="M1015.7,327.2H64.3c-30.3,0-54.9-24.6-54.9-54.9v0c0-30.3,24.6-54.9,54.9-54.9h951.5
		c30.3,0,54.9,24.6,54.9,54.9v0C1070.7,302.6,1046.1,327.2,1015.7,327.2z"/>
	<path class="st0" d="M1015.7,505.7H64.3c-30.3,0-54.9-24.6-54.9-54.9v0c0-30.3,24.6-54.9,54.9-54.9h951.5
		c30.3,0,54.9,24.6,54.9,54.9v0C1070.7,481.1,1046.1,505.7,1015.7,505.7z"/>
	<path class="st0" d="M1015.7,684.2H64.3c-30.3,0-54.9-24.6-54.9-54.9v0c0-30.3,24.6-54.9,54.9-54.9h951.5
		c30.3,0,54.9,24.6,54.9,54.9v0C1070.7,659.6,1046.1,684.2,1015.7,684.2z"/>
	<path class="st0" d="M1015.7,862.7H64.3c-30.3,0-54.9-24.6-54.9-54.9v0c0-30.3,24.6-54.9,54.9-54.9h951.5
		c30.3,0,54.9,24.6,54.9,54.9v0C1070.7,838.1,1046.1,862.7,1015.7,862.7z"/>
</g>
</svg>
