<?xml version="1.0" encoding="utf-8"?>
<!-- Generator: Adobe Illustrator 27.5.0, SVG Export Plug-In . SVG Version: 6.00 Build 0)  -->
<svg version="1.1" id="Capa_1" xmlns="http://www.w3.org/2000/svg" xmlns:xlink="http://www.w3.org/1999/xlink" x="0px" y="0px"
	 viewBox="0 0 1080 1080" style="enable-background:new 0 0 1080 1080;" xml:space="preserve">
<style type="text/css">
	.st0{fill:#7F953F;}
	.st1{fill:#D1B59C;}
	.st2{fill:#5D422B;}
	.st3{fill:#503117;}
	.st4{fill:#73B0EC;}
	.st5{opacity:0.87;fill:#9CE0F5;enable-background:new    ;}
	.st6{fill:#462F35;}
	.st7{fill:#2F2024;}
	.st8{fill:#472F34;}
	.st9{fill:#483036;}
	.st10{fill:#4C372B;}
	.st11{fill:#D9C5B4;}
	.st12{fill:#4D7731;}
	.st13{fill:#548724;}
	.st14{fill:#70A837;}
	.st15{fill:#71A33D;}
	.st16{fill:#598A25;}
	.st17{fill:#74AC41;}
	.st18{fill:#FFFFFF;}
	.st19{fill:#DC9D00;}
	.st20{fill:#482F1C;}
	.st21{fill:#412B1B;}
	.st22{fill:#392529;}
	.st23{opacity:0.16;fill:#5E5E5E;enable-background:new    ;}
	.st24{fill:#8A7066;}
	.st25{fill:#F4DCC6;}
	.st26{fill:#6A4F46;}
	.st27{fill:#E3C5AB;}
	.st28{fill:#222C32;}
	.st29{fill:#CFCDC2;}
	.st30{fill:#E25B19;}
	.st31{fill:#FCFCFC;}
</style>
<g>
	<g>
		<ellipse class="st0" cx="540" cy="962.4" rx="540" ry="65.4"/>
		<ellipse class="st0" cx="540" cy="962.4" rx="417.8" ry="50.6"/>
	</g>
	<rect x="194.7" y="436.6" class="st1" width="696.3" height="486"/>
	<rect x="226.7" y="589.4" class="st2" width="383.7" height="230.2"/>
	<rect x="643.7" y="590.1" class="st3" width="208.9" height="332.5"/>
	<rect x="652.3" y="595.8" class="st4" width="191.8" height="318.3"/>
	<g>
		<polygon class="st5" points="844.1,595.8 792.8,595.8 652.3,784.8 652.3,861.1 844.1,599 		"/>
		<polygon class="st5" points="844.1,754 725.1,914.1 780.8,914.1 844.1,827.6 		"/>
	</g>
	<rect x="743.2" y="595.8" class="st3" width="8.5" height="318.3"/>
	<rect x="759.5" y="732.9" class="st3" width="4.3" height="45.5"/>
	<rect x="729.7" y="732.9" class="st3" width="4.3" height="45.5"/>
	<rect x="236.6" y="596.5" class="st4" width="366.6" height="213.2"/>
	<g>
		<polygon class="st5" points="379.3,597.2 236.4,810.4 326.2,810.4 468.9,597.2 		"/>
		<polygon class="st5" points="602.5,597.2 599.2,597.2 456.5,810.4 481.1,810.4 602.5,629 		"/>
	</g>
	<polygon class="st2" points="603.2,715.9 356,715.9 356,596.5 347.5,596.5 347.5,809.6 356,809.6 356,725.8 603.2,725.8 	"/>
	<polygon class="st2" points="229.5,846.6 610.3,846.6 615.1,823.9 222.8,823.9 	"/>
	<g>
		<rect x="196.8" y="412.5" class="st6" width="683.5" height="24.9"/>
		<rect x="196.8" y="412.5" class="st7" width="683.5" height="7.1"/>
		<rect x="179.8" y="387.6" class="st6" width="717.6" height="25.6"/>
	</g>
	<rect x="233.8" y="100.5" class="st1" width="605.4" height="287"/>
	<rect x="280.7" y="127.5" class="st3" width="517.3" height="233"/>
	<rect x="287.8" y="136.1" class="st4" width="503" height="216"/>
	<rect x="196.8" y="76.4" class="st8" width="683.5" height="24.2"/>
	<rect x="196.8" y="76.4" class="st7" width="683.5" height="7.1"/>
	<rect x="179.8" y="52.2" class="st9" width="716.2" height="24.2"/>
	<path class="st7" d="M233.8,151.7h-165c-2-3.4-5.6-5.7-9.8-5.7c-6.3,0-11.4,5.1-11.4,11.4s5.1,11.4,11.4,11.4
		c4.2,0,7.9-2.3,9.8-5.7h164.9L233.8,151.7L233.8,151.7z"/>
	<rect x="73.2" y="204.3" class="st10" width="136.4" height="92.4"/>
	<rect x="81.6" y="210" class="st11" width="119.6" height="81"/>
	<rect x="191.1" y="163.1" class="st7" width="2.8" height="41.2"/>
	<rect x="91.7" y="163.1" class="st7" width="2.8" height="41.2"/>
	<g>
		<path class="st12" d="M338.2,784.8c0,0-1.4-15.6,7.1-14.2s9.3,14.2,9.3,14.2s19.1-18.5,24.8,8.5c0,0,21.1,1.4,21.9,29.8H286.6
			c0,0-1-28.4,20.4-21.3C307,801.8,309.8,767.7,338.2,784.8z"/>
		<path class="st13" d="M225.9,821.7c0,0-4.3-18.3,15.6-19.1c0,0,1.4-23.5,17.1-23.5s18.5,17,18.5,17s12.8-5.7,15.6,7.1
			c0,0,26.9,0,27.6,19.9L225.9,821.7z"/>
		<path class="st14" d="M241.6,823.1c0,0,4.3-15.6,27-7.1c0,0,18.1-17,39.6,7.1H241.6z"/>
		<path class="st13" d="M455.5,803.3c0,0,0.5-25.7,17.6-24.2s18.5,15.6,18.5,15.6s4.3-1.4,7.1-1.4c2.8,0,8.7,4.4,8.6,10
			c0,0,19.7-4.3,18.3,19.8h-99.5C426.2,823.1,430.8,794.9,455.5,803.3z"/>
		<path class="st15" d="M468.9,823.1h-91.8c0,0,7.9-28.4,36.4-17c0,0,1.4-7.1,8.5-7.1s10,7.1,10,7.1s14-8.5,21.9,5
			C453.9,811.1,467.5,808.9,468.9,823.1z"/>
		<path class="st16" d="M611,821.7c0,0,5.7-28.4-18.5-28.4c0,0-2.8-24.2-22.7-8.5c0,0-0.3-14.3-9.4-14.3c-9.1,0-9.1,14.3-9.1,14.3
			s-22.9-20.1-29.9,17c0,0-17.8-2.7-11,21.4L611,821.7z"/>
		<path class="st17" d="M602.5,821.7c0,0-10.8-5.8-15.3-5c0,0-0.3-23.4-28.7-13.4c0,0-7.1-18.5-22.7,0c0,0-33.2-10-38.6,19.9
			L602.5,821.7z"/>
		<path class="st12" d="M522.9,823.1c0,0-5.6-14.2-21.3-8.5c0,0-1.4-7.1-12.8-5.7c-11.4,1.4-8.4,7-8.4,7s-21.2-7-24.9,7.2H522.9z"/>
		<g>
			<g>
				<g>
					<path class="st18" d="M248.5,799.4c0,0,6.4,0.9,10-3.5C258.6,795.9,254.1,794.5,248.5,799.4z"/>
				</g>
				<g>
					<path class="st18" d="M249.6,790.8c0,0,3.3,5.6,9,5.7C258.5,796.5,256.9,792.1,249.6,790.8z"/>
				</g>
				<g>
					<path class="st18" d="M257,786.2c0,0-2.4,6,1,10.6C258.1,796.8,260.5,792.8,257,786.2z"/>
				</g>
				<g>
					<path class="st18" d="M265.2,789.3c0,0-6.2,1.8-7.7,7.4C257.5,796.6,262.2,796.1,265.2,789.3z"/>
				</g>
				<g>
					<path class="st18" d="M267.9,797.6c0,0-5.3-3.8-10.5-1.5C257.3,796.1,260.6,799.4,267.9,797.6z"/>
				</g>
				<g>
					<path class="st18" d="M263,804.8c0,0-0.3-6.5-5.3-9.2C257.6,795.6,257.1,800.2,263,804.8z"/>
				</g>
				<g>
					<path class="st18" d="M254.2,805.4c0,0,4.9-4.3,3.9-9.9C258.2,795.5,254.2,798,254.2,805.4z"/>
				</g>
			</g>
			<circle class="st19" cx="258" cy="796.1" r="1.7"/>
		</g>
		<g>
			<g>
				<g>
					<path class="st18" d="M315.3,803.7c0,0,6.5,0.9,10-3.5C325.4,800.2,320.9,798.8,315.3,803.7z"/>
				</g>
				<g>
					<path class="st18" d="M316.4,795c0,0,3.3,5.6,9,5.7C325.3,800.7,323.7,796.4,316.4,795z"/>
				</g>
				<g>
					<path class="st18" d="M323.8,790.5c0,0-2.4,6,1,10.6C324.9,801.1,327.3,797.1,323.8,790.5z"/>
				</g>
				<g>
					<path class="st18" d="M332,793.5c0,0-6.2,1.8-7.7,7.4C324.3,800.9,329,800.3,332,793.5z"/>
				</g>
				<g>
					<path class="st18" d="M334.6,801.9c0,0-5.3-3.8-10.5-1.5C324.1,800.4,327.4,803.7,334.6,801.9z"/>
				</g>
				<g>
					<path class="st18" d="M329.7,809.1c0,0-0.3-6.5-5.3-9.2C324.4,799.9,323.9,804.5,329.7,809.1z"/>
				</g>
				<g>
					<path class="st18" d="M321,809.7c0,0,4.9-4.3,3.9-9.9C325,799.8,321,802.2,321,809.7z"/>
				</g>
			</g>
			<circle class="st19" cx="324.8" cy="800.4" r="1.7"/>
		</g>
		<g>
			<g>
				<g>
					<path class="st18" d="M353.7,798c0,0,6.5,0.9,10-3.5C363.7,794.5,359.3,793.1,353.7,798z"/>
				</g>
				<g>
					<path class="st18" d="M354.7,789.3c0,0,3.3,5.6,9,5.7C363.7,795.1,362.1,790.7,354.7,789.3z"/>
				</g>
				<g>
					<path class="st18" d="M362.2,784.8c0,0-2.4,6,1,10.6C363.2,795.4,365.7,791.4,362.2,784.8z"/>
				</g>
				<g>
					<path class="st18" d="M370.4,787.9c0,0-6.2,1.8-7.7,7.4C362.7,795.2,367.3,794.7,370.4,787.9z"/>
				</g>
				<g>
					<path class="st18" d="M373,796.2c0,0-5.3-3.8-10.5-1.5C362.5,794.7,365.8,798,373,796.2z"/>
				</g>
				<g>
					<path class="st18" d="M368.1,803.4c0,0-0.3-6.5-5.3-9.2C362.8,794.2,362.2,798.8,368.1,803.4z"/>
				</g>
				<g>
					<path class="st18" d="M359.4,804c0,0,4.9-4.3,3.9-9.9C363.3,794.1,359.4,796.5,359.4,804z"/>
				</g>
			</g>
			<circle class="st19" cx="363.2" cy="794.7" r="1.7"/>
		</g>
		<g>
			<g>
				<g>
					<path class="st18" d="M335.2,813.6c0,0,6.5,0.9,10-3.5C345.3,810.1,340.8,808.7,335.2,813.6z"/>
				</g>
				<g>
					<path class="st18" d="M336.3,805c0,0,3.3,5.6,9,5.7C345.2,810.7,343.6,806.3,336.3,805z"/>
				</g>
				<g>
					<path class="st18" d="M343.7,800.4c0,0-2.4,6,1,10.6C344.8,811,347.2,807,343.7,800.4z"/>
				</g>
				<g>
					<path class="st18" d="M351.9,803.5c0,0-6.2,1.8-7.7,7.4C344.2,810.8,348.8,810.3,351.9,803.5z"/>
				</g>
				<g>
					<path class="st18" d="M354.5,811.8c0,0-5.3-3.8-10.5-1.5C344,810.3,347.3,813.6,354.5,811.8z"/>
				</g>
				<g>
					<path class="st18" d="M349.6,819c0,0-0.3-6.5-5.3-9.2C344.3,809.8,343.7,814.5,349.6,819z"/>
				</g>
				<g>
					<path class="st18" d="M340.9,819.6c0,0,4.9-4.3,3.9-9.9C344.9,809.7,340.9,812.2,340.9,819.6z"/>
				</g>
			</g>
			<circle class="st19" cx="344.7" cy="810.3" r="1.7"/>
		</g>
		<g>
			<g>
				<g>
					<path class="st18" d="M392.1,817.9c0,0,6.5,0.9,10-3.5C402.1,814.4,397.7,813,392.1,817.9z"/>
				</g>
				<g>
					<path class="st18" d="M393.1,809.2c0,0,3.3,5.6,9,5.7C402.1,815,400.4,810.6,393.1,809.2z"/>
				</g>
				<g>
					<path class="st18" d="M400.6,804.7c0,0-2.4,6,1,10.6C401.6,815.3,404,811.3,400.6,804.7z"/>
				</g>
				<g>
					<path class="st18" d="M408.7,807.8c0,0-6.2,1.8-7.7,7.4C401,815.1,405.7,814.5,408.7,807.8z"/>
				</g>
				<g>
					<path class="st18" d="M411.4,816.1c0,0-5.3-3.8-10.5-1.5C400.8,814.6,404.1,817.9,411.4,816.1z"/>
				</g>
				<g>
					<path class="st18" d="M406.5,823.3c0,0-0.3-6.5-5.3-9.2C401.1,814.1,400.6,818.7,406.5,823.3z"/>
				</g>
				<g>
					<path class="st18" d="M397.8,823.9c0,0,4.9-4.3,3.9-9.9C401.7,814,397.7,816.4,397.8,823.9z"/>
				</g>
			</g>
			<circle class="st19" cx="401.5" cy="814.6" r="1.7"/>
		</g>
		<g>
			<g>
				<g>
					<path class="st18" d="M466,798c0,0,6.5,0.9,10-3.5C476,794.5,471.5,793.1,466,798z"/>
				</g>
				<g>
					<path class="st18" d="M467,789.3c0,0,3.3,5.6,9,5.7C476,795.1,474.3,790.7,467,789.3z"/>
				</g>
				<g>
					<path class="st18" d="M474.5,784.8c0,0-2.4,6,1,10.6C475.5,795.4,477.9,791.4,474.5,784.8z"/>
				</g>
				<g>
					<path class="st18" d="M482.6,787.9c0,0-6.2,1.8-7.7,7.4C475,795.2,479.6,794.7,482.6,787.9z"/>
				</g>
				<g>
					<path class="st18" d="M485.3,796.2c0,0-5.3-3.8-10.5-1.5C474.7,794.7,478,798,485.3,796.2z"/>
				</g>
				<g>
					<path class="st18" d="M480.4,803.4c0,0-0.3-6.5-5.3-9.2C475,794.2,474.5,798.8,480.4,803.4z"/>
				</g>
				<g>
					<path class="st18" d="M471.7,804c0,0,4.9-4.3,3.9-9.9C475.6,794.1,471.6,796.5,471.7,804z"/>
				</g>
			</g>
			<circle class="st19" cx="475.4" cy="794.7" r="1.7"/>
		</g>
		<g>
			<g>
				<g>
					<path class="st18" d="M521.4,813.6c0,0,6.5,0.9,10-3.5C531.4,810.1,527,808.7,521.4,813.6z"/>
				</g>
				<g>
					<path class="st18" d="M522.4,805c0,0,3.3,5.6,9,5.7C531.4,810.7,529.8,806.3,522.4,805z"/>
				</g>
				<g>
					<path class="st18" d="M529.9,800.4c0,0-2.4,6,1,10.6C530.9,811,533.3,807,529.9,800.4z"/>
				</g>
				<g>
					<path class="st18" d="M538,803.5c0,0-6.2,1.8-7.7,7.4C530.4,810.8,535,810.3,538,803.5z"/>
				</g>
				<g>
					<path class="st18" d="M540.7,811.8c0,0-5.3-3.8-10.5-1.5C530.2,810.3,533.5,813.6,540.7,811.8z"/>
				</g>
				<g>
					<path class="st18" d="M535.8,819c0,0-0.3-6.5-5.3-9.2C530.5,809.8,529.9,814.5,535.8,819z"/>
				</g>
				<g>
					<path class="st18" d="M527.1,819.6c0,0,4.9-4.3,3.9-9.9C531,809.7,527,812.2,527.1,819.6z"/>
				</g>
			</g>
			<circle class="st19" cx="530.9" cy="810.3" r="1.7"/>
		</g>
		<g>
			<g>
				<g>
					<path class="st18" d="M561.2,817.9c0,0,6.5,0.9,10-3.5C571.2,814.4,566.8,813,561.2,817.9z"/>
				</g>
				<g>
					<path class="st18" d="M562.2,809.2c0,0,3.3,5.6,9,5.7C571.2,815,569.5,810.6,562.2,809.2z"/>
				</g>
				<g>
					<path class="st18" d="M569.7,804.7c0,0-2.4,6,1,10.6C570.7,815.3,573.1,811.3,569.7,804.7z"/>
				</g>
				<g>
					<path class="st18" d="M577.8,807.8c0,0-6.2,1.8-7.7,7.4C570.2,815.1,574.8,814.5,577.8,807.8z"/>
				</g>
				<g>
					<path class="st18" d="M580.5,816.1c0,0-5.3-3.8-10.5-1.5C570,814.6,573.2,817.9,580.5,816.1z"/>
				</g>
				<g>
					<path class="st18" d="M575.6,823.3c0,0-0.3-6.5-5.3-9.2C570.2,814.1,569.7,818.7,575.6,823.3z"/>
				</g>
				<g>
					<path class="st18" d="M566.9,823.9c0,0,4.9-4.3,3.9-9.9C570.8,814,566.8,816.4,566.9,823.9z"/>
				</g>
			</g>
			<circle class="st19" cx="570.7" cy="814.6" r="1.7"/>
		</g>
		<g>
			<g>
				<g>
					<path class="st18" d="M574,793.7c0,0,6.5,0.9,10-3.5C584,790.2,579.5,788.8,574,793.7z"/>
				</g>
				<g>
					<path class="st18" d="M575,785.1c0,0,3.3,5.6,9,5.7C584,790.8,582.3,786.4,575,785.1z"/>
				</g>
				<g>
					<path class="st18" d="M582.5,780.5c0,0-2.4,6,1,10.6C583.5,791.1,585.9,787.1,582.5,780.5z"/>
				</g>
				<g>
					<path class="st18" d="M590.6,783.6c0,0-6.2,1.8-7.7,7.4C583,791,587.6,790.4,590.6,783.6z"/>
				</g>
				<g>
					<path class="st18" d="M593.3,791.9c0,0-5.3-3.8-10.5-1.5C582.7,790.4,586,793.7,593.3,791.9z"/>
				</g>
				<g>
					<path class="st18" d="M588.4,799.1c0,0-0.3-6.5-5.3-9.2C583,789.9,582.5,794.6,588.4,799.1z"/>
				</g>
				<g>
					<path class="st18" d="M579.7,799.7c0,0,4.9-4.3,3.9-9.9C583.6,789.8,579.6,792.3,579.7,799.7z"/>
				</g>
			</g>
			<circle class="st19" cx="583.4" cy="790.4" r="1.7"/>
		</g>
	</g>
	<rect x="216.7" y="819.6" class="st20" width="403.6" height="4.3"/>
	<g>
		<rect x="122.9" y="921.9" class="st21" width="835.6" height="35.5"/>
		<rect x="122.9" y="957.4" class="st22" width="835.6" height="10"/>
	</g>
	<polygon class="st23" points="891,922.6 225.9,526.1 891,436.6 194.7,436.6 194.7,922.6 205.3,922.6 	"/>
	<g>
		<polygon class="st24" points="194.7,436.6 148.5,453 201.9,453 236.6,436.6 		"/>
		<polygon class="st25" points="255.1,453 201.9,453 236.6,436.6 277,436.6 		"/>
		<polygon class="st24" points="307.1,453 255.1,453 277,436.6 326.5,436.6 		"/>
		<polygon class="st25" points="360.9,453 307.1,453 326.5,436.6 372.8,436.6 		"/>
		<polygon class="st24" points="414.1,453 360.9,453 372.8,436.6 421.6,436.6 		"/>
		<polygon class="st25" points="467.3,453 414.1,453 421.6,436.6 475.3,436.6 		"/>
		<polygon class="st24" points="520.5,453 467.3,453 475.3,436.6 520.5,436.6 		"/>
		<polygon class="st25" points="573,453 520.5,453 520.5,436.6 566.8,436.6 		"/>
		<polygon class="st24" points="626.9,453 573,453 566.8,436.6 619.3,436.6 		"/>
		<polygon class="st25" points="679.4,453 626.9,453 619.3,436.6 666.9,436.6 		"/>
		<polygon class="st24" points="733.2,453 679.4,453 666.9,436.6 713.2,436.6 		"/>
		<polygon class="st25" points="785.8,453 733.2,453 713.2,436.6 763.3,436.6 		"/>
		<polygon class="st24" points="839.6,453 785.8,453 763.3,436.6 804,436.6 		"/>
		<polygon class="st25" points="891,453 839.6,453 804,436.6 847.5,436.6 		"/>
		<polygon class="st24" points="944.8,453 891,453 847.5,436.6 891,436.6 		"/>
		<path class="st26" d="M148.5,471.2V453h53.4v20.2c-1.8,2.5-5.2,6.5-10.8,9.6c-7.1,4-13.9,4.3-17.1,4.3c-2.1,0.1-12.3,0.4-19.9-7.1
			C151.1,476.9,149.4,473.5,148.5,471.2z"/>
		<path class="st27" d="M255.1,453v19.9c0,0-7,14.2-27.7,14.2s-25.5-13.9-25.5-13.9V453H255.1L255.1,453z"/>
		<path class="st26" d="M307.1,453v19.9c0,0-4.3,14.2-26.8,14.2s-25.2-14.2-25.2-14.2V453H307.1L307.1,453z"/>
		<path class="st27" d="M360.9,453v20.9c0,0-9.7,13.3-27.2,13.3S307.1,473,307.1,473v-20H360.9L360.9,453z"/>
		<path class="st26" d="M414.1,453l0.1,18.5c0,0-3.3,15.7-25.8,15.7s-27.5-13.3-27.5-13.3V453H414.1L414.1,453z"/>
		<path class="st27" d="M467.3,453l-0.5,19.9c0,0-5,14.2-26,14.2s-26.6-15.7-26.6-15.7l-0.1-18.5L467.3,453L467.3,453z"/>
		<path class="st26" d="M520.5,453v19.3c0,0-3.8,14.8-26.6,14.8c-22.8,0-27.1-14.2-27.1-14.2l0.5-19.9L520.5,453L520.5,453z"/>
		<path class="st27" d="M573,453v19.6c0,0-3.2,14.5-26.3,14.5s-26.3-14.8-26.3-14.8V453H573L573,453z"/>
		<path class="st26" d="M626.9,453v19.9c0,0-6.2,14.2-27.7,14.2S573,472.6,573,472.6V453H626.9L626.9,453z"/>
		<path class="st27" d="M679.4,453v18.5c0,0-1,15.7-25.8,15.7S626.8,473,626.8,473v-20H679.4L679.4,453z"/>
		<path class="st26" d="M733.2,453v19.3c0,0-6,14.8-28.9,14.8c-20.1,0-24.9-15.7-24.9-15.7V453H733.2L733.2,453z"/>
		<path class="st27" d="M785.8,453v19.5c0,0-4.7,14.6-26.1,14.6s-26.4-14.8-26.4-14.8V453H785.8L785.8,453z"/>
		<path class="st26" d="M839.6,453v18.6c0,0-4.1,15.5-27.1,15.5c-23.1,0-26.7-14.6-26.7-14.6V453H839.6z"/>
		<path class="st27" d="M891,453v21.4c0,0-5.3,12.7-24.3,12.7c-23.3,0-27.1-15.5-27.1-15.5V453H891L891,453z"/>
		<path class="st26" d="M944.8,453v18.6c0,0-0.3,15.6-24.6,15.5c-27.1,0-29.2-12.7-29.2-12.7V453H944.8L944.8,453z"/>
	</g>
	<polygon class="st28" points="287.8,136.1 790.8,136.1 790.8,146 298.7,146 298.7,352.1 287.8,352.1 	"/>
	<polygon class="st5" points="421.6,146 298.7,352.1 395.2,352.1 511.5,146 	"/>
	<polygon class="st5" points="701.5,146.7 578.6,352.8 675.2,352.8 791.4,146.7 	"/>
	<polygon class="st5" points="595,146.7 472,352.8 490.4,352.8 606.7,146.7 	"/>
	<polygon class="st23" points="234.5,101.2 787,232.7 234.5,388.3 839.8,388.3 839.8,101.2 	"/>
	<rect x="229.5" y="846.6" class="st29" width="380.8" height="5.8"/>
</g>
<g>
	<polygon class="st30" points="156,213.5 125.4,213.5 103.7,235.2 103.7,265.8 125.4,287.5 156,287.5 177.7,265.8 177.7,235.2 	"/>
	<g>
		<path class="st18" d="M166.7,269c0,0.2-0.2,0.2-0.3,0.3c-0.1,0-0.3,0-0.4,0c-1.8,0-3.6,0-5.4,0c-0.6,0-1.2,0-1.7,0
			c-0.2,0-0.3,0-0.5,0c-0.3,0-0.5-0.2-0.6-0.4c-0.1-0.2-0.2-0.3-0.2-0.5c-0.4-1.2-0.8-2.3-1.2-3.5c-1.2-3.6-2.4-7.3-3.7-10.9
			c-0.9-2.7-1.8-5.4-2.7-8.1c-0.1-0.3-0.2-0.5-0.3-0.8c0,0,0,0,0-0.1c0,0.1,0,0.1-0.1,0.2c-0.7,2-1.4,4.1-2,6.1
			c-1.5,4.6-3.1,9.2-4.6,13.7c-0.4,1.2-0.8,2.4-1.2,3.6c0,0.1-0.1,0.2-0.1,0.3c-0.1,0.3-0.3,0.4-0.6,0.4c-0.1,0-0.3,0-0.4,0
			c-0.7,0-1.5,0-2.2,0c-0.7,0-1.4,0-2.1,0c-1,0-2,0-3.1,0c-0.1,0-0.2,0-0.3,0c-0.2,0-0.2-0.1-0.2-0.3c0-0.1,0-0.2,0.1-0.3
			c0.3-0.9,0.5-1.8,0.8-2.7c1.3-4.1,2.5-8.1,3.9-12.2c1.4-4.2,2.8-8.4,4.3-12.6c0.3-0.8,0.7-1.5,1.2-2.2c0.7-0.9,1.6-1.5,2.7-2
			c0.7-0.3,1.4-0.5,2.2-0.6c0.8-0.1,1.5-0.2,2.3-0.2c1.4,0,2.7,0.3,4,0.8c0.7,0.3,1.3,0.6,1.8,1.1c0.8,0.6,1.3,1.4,1.7,2.4
			c0.8,2,1.5,4.1,2.2,6.2c1,3.1,2,6.2,3,9.3c1,3.3,2.1,6.6,3.1,9.8c0.3,0.9,0.5,1.7,0.8,2.6c0,0.1,0.1,0.3,0.1,0.4
			C166.7,268.9,166.7,269,166.7,269z"/>
		<path class="st18" d="M137.8,243.1c0,0.3-0.1,0.6-0.2,0.9c-0.5,1.4-0.9,2.9-1.4,4.3c-0.2,0.6-0.4,1.2-0.6,1.8
			c-0.4,1.2-1.2,1.9-2.4,2.2c-0.4,0.1-0.9,0.2-1.3,0.3c-1.4,0.3-2.8,0.6-4.2,0.9c-0.3,0.1-0.7,0.1-1,0.2c-1.1,0.2-2.2-0.1-3-0.9
			c-0.3-0.3-0.6-0.6-0.8-0.9c-0.9-1-1.8-2.1-2.8-3.1c-0.3-0.3-0.5-0.6-0.8-0.9c-0.4-0.5-0.8-1.1-0.9-1.8c-0.1-0.6-0.1-1.2,0.1-1.8
			c0.2-0.8,0.5-1.6,0.7-2.3c0.4-1.2,0.8-2.4,1.2-3.7c0.2-0.5,0.5-1,0.9-1.4c0.5-0.5,1.1-0.8,1.8-1c0.9-0.2,1.8-0.4,2.7-0.6
			c1.1-0.2,2.3-0.4,3.4-0.7c1.3-0.2,2.4,0.1,3.3,1c0.3,0.3,0.6,0.6,0.9,0.9c1.1,1.2,2.2,2.4,3.2,3.6c0.5,0.6,0.9,1.3,1,2.1
			C137.7,242.5,137.8,242.8,137.8,243.1z"/>
		<path class="st18" d="M116.8,249.3c0.7,0,1.3,0.3,1.8,0.8c0.4,0.5,0.9,1,1.3,1.4c0.3,0.4,0.7,0.8,1,1.1c0.4,0.4,0.6,1,0.7,1.5
			c0.1,0.5-0.1,1-0.2,1.4c-0.1,0.3-0.2,0.7-0.4,1c-0.1,0.4-0.2,0.7-0.3,1.1c-0.1,0.3-0.2,0.5-0.3,0.8c-0.4,0.9-1.1,1.5-2.1,1.8
			c-0.3,0.1-0.6,0.1-1,0.2c-0.5,0-1,0.2-1.4,0.3c-0.3,0.1-0.7,0.2-1.1,0.2c-0.9,0.1-1.6-0.2-2.2-0.8c-0.3-0.3-0.5-0.5-0.7-0.8
			c-0.5-0.6-1.1-1.2-1.6-1.8c-0.4-0.4-0.6-1-0.6-1.5c0-0.3,0-0.6,0.1-0.9c0.3-1.2,0.7-2.3,1.1-3.4c0.3-0.9,0.9-1.4,1.8-1.6
			c1.1-0.2,2.2-0.5,3.3-0.7C116.4,249.3,116.6,249.3,116.8,249.3z"/>
		<path class="st18" d="M126,223.2c0.5,0,0.9,0.2,1.2,0.6c0.3,0.3,0.6,0.7,0.9,1c0.5,0.6,1.1,1.2,1.6,1.8c0.1,0.1,0.2,0.2,0.3,0.3
			c0.2,0.3,0.3,0.6,0.2,1c-0.1,0.4-0.2,0.9-0.4,1.3c-0.3,0.8-0.6,1.7-0.9,2.5c-0.1,0.2-0.1,0.4-0.2,0.6c-0.1,0.3-0.4,0.6-0.7,0.7
			c-0.3,0.1-0.7,0.2-1.1,0.2c-0.9,0.2-1.8,0.4-2.7,0.5c-0.2,0-0.3,0.1-0.5,0.1c-0.5,0.1-0.9,0-1.3-0.4c-0.1-0.1-0.3-0.3-0.4-0.4
			c-0.8-0.8-1.5-1.7-2.3-2.5c-0.2-0.2-0.4-0.5-0.5-0.8c-0.1-0.3,0-0.7,0.1-1c0.2-0.5,0.4-1.1,0.5-1.6c0.2-0.6,0.4-1.3,0.6-1.9
			c0-0.1,0-0.1,0.1-0.2c0.2-0.6,0.6-0.9,1.2-1c1-0.2,2-0.4,3-0.6c0.2,0,0.5-0.1,0.7-0.1C125.7,223.2,125.9,223.2,126,223.2z"/>
		<path class="st18" d="M149.6,262.3c-0.5,0-1,0-1.5,0c-0.2,0-0.3-0.1-0.4-0.2c-0.5-0.9-1-1.8-1.5-2.7c-0.1-0.2-0.1-0.3,0-0.5
			c0.5-0.9,1-1.8,1.6-2.7c0.1-0.2,0.2-0.2,0.4-0.2c1,0,2.1,0,3.1,0c0.2,0,0.3,0.1,0.4,0.2c0.5,0.9,1,1.8,1.6,2.7
			c0.1,0.2,0.1,0.3,0,0.5c-0.5,0.9-1,1.8-1.6,2.7c-0.1,0.2-0.2,0.2-0.4,0.2C150.7,262.2,150.2,262.3,149.6,262.3z"/>
	</g>
	<g>
		<g>
			<path class="st18" d="M120.1,277l-0.2,0.5h-0.4l1-2.3h0.4l1,2.3h-0.4l-0.2-0.5H120.1z M120.7,275.6l-0.4,1h0.9L120.7,275.6z"/>
			<path class="st18" d="M124,275.6l-0.2,0.3c-0.2-0.2-0.4-0.3-0.6-0.3c-0.5,0-0.8,0.4-0.8,0.8s0.4,0.8,0.8,0.8
				c0.2,0,0.5-0.1,0.6-0.3l0.2,0.3c-0.2,0.2-0.6,0.4-0.9,0.4c-0.7,0-1.2-0.5-1.2-1.2c0-0.7,0.5-1.2,1.2-1.2
				C123.5,275.2,123.8,275.3,124,275.6z"/>
			<path class="st18" d="M124.4,277.5v-2.3h0.4v2.3H124.4z"/>
			<path class="st18" d="M126.8,277.2v0.4h-1.4v-2.3h0.4v1.9H126.8z"/>
			<path class="st18" d="M129.6,275.4l-0.2,0.3c-0.2-0.2-0.5-0.2-0.7-0.2c-0.2,0-0.4,0.1-0.4,0.2c0,0.5,1.2,0.2,1.2,1.1
				c0,0.4-0.4,0.7-0.9,0.7c-0.4,0-0.7-0.1-0.9-0.4l0.2-0.3c0.2,0.2,0.5,0.3,0.8,0.3c0.3,0,0.4-0.1,0.4-0.3c0-0.5-1.2-0.2-1.2-1
				c0-0.4,0.3-0.6,0.8-0.6C129.1,275.2,129.4,275.3,129.6,275.4z"/>
			<path class="st18" d="M130.5,275.6v0.6h1.1v0.3h-1.1v0.6h1.3v0.3h-1.7v-2.3h1.6v0.3H130.5z"/>
			<path class="st18" d="M134.1,276.4v0.8c-0.2,0.2-0.6,0.3-0.9,0.3c-0.7,0-1.2-0.5-1.2-1.2c0-0.7,0.5-1.2,1.2-1.2
				c0.3,0,0.7,0.1,0.9,0.3l-0.2,0.3c-0.2-0.2-0.4-0.3-0.7-0.3c-0.5,0-0.8,0.4-0.8,0.8c0,0.5,0.4,0.8,0.8,0.8c0.2,0,0.4-0.1,0.5-0.2
				v-0.6H134.1z"/>
			<path class="st18" d="M136.6,276.6c0,0.6-0.4,1-1,1c-0.6,0-1-0.4-1-1v-1.3h0.4v1.3c0,0.4,0.2,0.6,0.6,0.6c0.4,0,0.6-0.2,0.6-0.6
				v-1.3h0.4V276.6z"/>
			<path class="st18" d="M138.2,276.8c0,0-0.1,0-0.1,0h-0.5v0.7h-0.4v-2.3h0.9c0.6,0,0.9,0.3,0.9,0.8c0,0.4-0.2,0.6-0.5,0.7l0.5,0.8
				h-0.4L138.2,276.8z M138.1,276.5c0.4,0,0.6-0.2,0.6-0.5c0-0.3-0.2-0.4-0.6-0.4h-0.5v0.9H138.1z"/>
			<path class="st18" d="M139.6,277.5v-2.3h0.4v2.3H139.6z"/>
			<path class="st18" d="M141.5,275.2c0.7,0,1.2,0.5,1.2,1.1c0,0.7-0.5,1.1-1.2,1.1h-0.9v-2.3H141.5z M140.9,277.2h0.6
				c0.4,0,0.8-0.3,0.8-0.8c0-0.5-0.4-0.8-0.8-0.8h-0.5V277.2z"/>
			<path class="st18" d="M143.4,277l-0.2,0.5h-0.4l1-2.3h0.4l1,2.3h-0.4l-0.2-0.5H143.4z M143.9,275.6l-0.4,1h0.9L143.9,275.6z"/>
			<path class="st18" d="M146.4,275.2c0.7,0,1.2,0.5,1.2,1.1c0,0.7-0.5,1.1-1.2,1.1h-0.9v-2.3H146.4z M145.8,277.2h0.6
				c0.4,0,0.8-0.3,0.8-0.8c0-0.5-0.4-0.8-0.8-0.8h-0.5V277.2z"/>
			<path class="st18" d="M150.4,275.4l-0.2,0.3c-0.2-0.2-0.5-0.2-0.7-0.2c-0.2,0-0.4,0.1-0.4,0.2c0,0.5,1.2,0.2,1.2,1.1
				c0,0.4-0.4,0.7-0.9,0.7c-0.4,0-0.7-0.1-0.9-0.4l0.2-0.3c0.2,0.2,0.5,0.3,0.8,0.3c0.3,0,0.4-0.1,0.4-0.3c0-0.5-1.2-0.2-1.2-1
				c0-0.4,0.3-0.6,0.8-0.6C149.9,275.2,150.2,275.3,150.4,275.4z"/>
			<path class="st18" d="M150.9,277.5v-2.3h0.4v2.3H150.9z"/>
			<path class="st18" d="M153.9,277.5l0-1.7l-0.7,1.5H153l-0.7-1.5v1.7h-0.4v-2.3h0.5l0.8,1.5l0.8-1.5h0.5v2.3H153.9z"/>
			<path class="st18" d="M155.8,275.2c0.6,0,0.9,0.3,0.9,0.8c0,0.5-0.3,0.8-0.9,0.8h-0.5v0.7h-0.4v-2.3H155.8z M155.3,276.5h0.5
				c0.4,0,0.6-0.2,0.6-0.5c0-0.3-0.2-0.4-0.6-0.4h-0.5V276.5z"/>
			<path class="st18" d="M158.5,277.2v0.4h-1.4v-2.3h0.4v1.9H158.5z"/>
			<path class="st18" d="M159.2,275.6v0.6h1.1v0.3h-1.1v0.6h1.3v0.3h-1.7v-2.3h1.6v0.3H159.2z"/>
		</g>
		<g>
			<path class="st18" d="M120.1,277l-0.2,0.5h-0.4l1-2.3h0.4l1,2.3h-0.4l-0.2-0.5H120.1z M120.7,275.6l-0.4,1h0.9L120.7,275.6z"/>
			<path class="st18" d="M124,275.5l-0.2,0.3c-0.2-0.2-0.4-0.3-0.6-0.3c-0.5,0-0.8,0.4-0.8,0.8s0.4,0.8,0.8,0.8
				c0.2,0,0.5-0.1,0.6-0.3l0.2,0.3c-0.2,0.2-0.6,0.4-0.9,0.4c-0.7,0-1.2-0.5-1.2-1.2c0-0.7,0.5-1.2,1.2-1.2
				C123.5,275.2,123.8,275.3,124,275.5z"/>
			<path class="st18" d="M124.4,277.5v-2.3h0.4v2.3H124.4z"/>
			<path class="st18" d="M126.8,277.1v0.4h-1.4v-2.3h0.4v1.9H126.8z"/>
			<path class="st18" d="M129.6,275.4l-0.2,0.3c-0.2-0.2-0.5-0.2-0.7-0.2c-0.2,0-0.4,0.1-0.4,0.2c0,0.5,1.2,0.2,1.2,1.1
				c0,0.4-0.4,0.7-0.9,0.7c-0.4,0-0.7-0.1-0.9-0.4l0.2-0.3c0.2,0.2,0.5,0.3,0.8,0.3c0.3,0,0.4-0.1,0.4-0.3c0-0.5-1.2-0.2-1.2-1
				c0-0.4,0.3-0.6,0.8-0.6C129.1,275.2,129.4,275.3,129.6,275.4z"/>
			<path class="st18" d="M130.5,275.5v0.6h1.1v0.3h-1.1v0.6h1.3v0.3h-1.7v-2.3h1.6v0.3H130.5z"/>
			<path class="st18" d="M134.1,276.4v0.8c-0.2,0.2-0.6,0.3-0.9,0.3c-0.7,0-1.2-0.5-1.2-1.2c0-0.7,0.5-1.2,1.2-1.2
				c0.3,0,0.7,0.1,0.9,0.3l-0.2,0.3c-0.2-0.2-0.4-0.3-0.7-0.3c-0.5,0-0.8,0.4-0.8,0.8c0,0.5,0.4,0.8,0.8,0.8c0.2,0,0.4-0.1,0.5-0.2
				v-0.6H134.1z"/>
			<path class="st18" d="M136.6,276.5c0,0.6-0.4,1-1,1c-0.6,0-1-0.4-1-1v-1.3h0.4v1.3c0,0.4,0.2,0.6,0.6,0.6c0.4,0,0.6-0.2,0.6-0.6
				v-1.3h0.4V276.5z"/>
			<path class="st18" d="M138.2,276.8c0,0-0.1,0-0.1,0h-0.5v0.7h-0.4v-2.3h0.9c0.6,0,0.9,0.3,0.9,0.8c0,0.4-0.2,0.6-0.5,0.7l0.5,0.8
				h-0.4L138.2,276.8z M138.1,276.5c0.4,0,0.6-0.2,0.6-0.5c0-0.3-0.2-0.4-0.6-0.4h-0.5v0.9H138.1z"/>
			<path class="st18" d="M139.6,277.5v-2.3h0.4v2.3H139.6z"/>
			<path class="st18" d="M141.5,275.2c0.7,0,1.2,0.5,1.2,1.1c0,0.7-0.5,1.1-1.2,1.1h-0.9v-2.3H141.5z M140.9,277.1h0.6
				c0.4,0,0.8-0.3,0.8-0.8c0-0.5-0.4-0.8-0.8-0.8h-0.5V277.1z"/>
			<path class="st18" d="M143.4,277l-0.2,0.5h-0.4l1-2.3h0.4l1,2.3h-0.4l-0.2-0.5H143.4z M143.9,275.6l-0.4,1h0.9L143.9,275.6z"/>
			<path class="st18" d="M146.4,275.2c0.7,0,1.2,0.5,1.2,1.1c0,0.7-0.5,1.1-1.2,1.1h-0.9v-2.3H146.4z M145.8,277.1h0.6
				c0.4,0,0.8-0.3,0.8-0.8c0-0.5-0.4-0.8-0.8-0.8h-0.5V277.1z"/>
			<path class="st18" d="M150.4,275.4l-0.2,0.3c-0.2-0.2-0.5-0.2-0.7-0.2c-0.2,0-0.4,0.1-0.4,0.2c0,0.5,1.2,0.2,1.2,1.1
				c0,0.4-0.4,0.7-0.9,0.7c-0.4,0-0.7-0.1-0.9-0.4l0.2-0.3c0.2,0.2,0.5,0.3,0.8,0.3c0.3,0,0.4-0.1,0.4-0.3c0-0.5-1.2-0.2-1.2-1
				c0-0.4,0.3-0.6,0.8-0.6C149.9,275.2,150.2,275.3,150.4,275.4z"/>
			<path class="st18" d="M150.9,277.5v-2.3h0.4v2.3H150.9z"/>
			<path class="st18" d="M153.9,277.5l0-1.7l-0.7,1.5H153l-0.7-1.5v1.7h-0.4v-2.3h0.5l0.8,1.5l0.8-1.5h0.5v2.3H153.9z"/>
			<path class="st18" d="M155.8,275.2c0.6,0,0.9,0.3,0.9,0.8c0,0.5-0.3,0.8-0.9,0.8h-0.5v0.7h-0.4v-2.3H155.8z M155.3,276.5h0.5
				c0.4,0,0.6-0.2,0.6-0.5c0-0.3-0.2-0.4-0.6-0.4h-0.5V276.5z"/>
			<path class="st18" d="M158.5,277.1v0.4h-1.4v-2.3h0.4v1.9H158.5z"/>
			<path class="st18" d="M159.2,275.5v0.6h1.1v0.3h-1.1v0.6h1.3v0.3h-1.7v-2.3h1.6v0.3H159.2z"/>
		</g>
		<g>
			<path class="st31" d="M146.1,280.6c0,0.2-0.2,0.5-0.4,0.7l-0.4,0.5h0.9v0.4h-1.6v-0.4l0.8-0.8c0.1-0.1,0.2-0.3,0.2-0.4
				c0-0.1-0.1-0.2-0.2-0.2c-0.2,0-0.4,0.1-0.6,0.3l-0.2-0.4c0.3-0.2,0.6-0.3,0.9-0.3C145.7,280,146.1,280.2,146.1,280.6z"/>
			<g>
				<path class="st31" d="M130.7,280.5v0.3h0.2c0.5,0,0.8,0.3,0.8,0.7c0,0.5-0.3,0.7-0.9,0.7c-0.3,0-0.6-0.1-0.8-0.3l0.2-0.4
					c0.2,0.2,0.4,0.3,0.6,0.3c0.2,0,0.3-0.1,0.3-0.3c0-0.2-0.1-0.3-0.3-0.3c-0.1,0-0.5,0-0.6,0V280h1.4v0.4H130.7z"/>
				<path class="st31" d="M132.5,280.5v0.3h0.2c0.5,0,0.8,0.3,0.8,0.7c0,0.5-0.3,0.7-0.9,0.7c-0.3,0-0.6-0.1-0.8-0.3l0.2-0.4
					c0.2,0.2,0.4,0.3,0.6,0.3c0.2,0,0.3-0.1,0.3-0.3c0-0.2-0.1-0.3-0.3-0.3c-0.1,0-0.5,0-0.6,0V280h1.4v0.4H132.5z"/>
				<path class="st31" d="M135.1,280.5v0.3h0.2c0.5,0,0.8,0.3,0.8,0.7c0,0.5-0.3,0.7-0.9,0.7c-0.3,0-0.6-0.1-0.8-0.3l0.2-0.4
					c0.2,0.2,0.4,0.3,0.6,0.3c0.2,0,0.3-0.1,0.3-0.3c0-0.2-0.1-0.3-0.3-0.3c-0.1,0-0.5,0-0.6,0V280h1.4v0.4H135.1z"/>
				<path class="st31" d="M137.3,280.9c0.3,0,0.5,0.3,0.5,0.6c0,0.4-0.3,0.7-0.8,0.7c-0.3,0-0.6-0.1-0.8-0.3l0.2-0.4
					c0.2,0.2,0.3,0.3,0.5,0.3c0.2,0,0.3-0.1,0.3-0.3c0-0.2-0.1-0.3-0.3-0.3h-0.3v-0.3l0.5-0.5h-0.8V280h1.4v0.3l-0.5,0.6
					L137.3,280.9z"/>
				<path class="st31" d="M139.7,280.2l-0.2,0.4c-0.1-0.1-0.3-0.1-0.5-0.1c-0.3,0-0.5,0.2-0.5,0.6c0.1-0.1,0.3-0.2,0.5-0.2
					c0.4,0,0.7,0.3,0.7,0.7c0,0.5-0.3,0.7-0.8,0.7c-0.6,0-0.9-0.4-0.9-1.1c0-0.7,0.4-1.1,1-1.1C139.3,280,139.5,280.1,139.7,280.2z
					 M138.6,281.5c0,0.2,0.1,0.3,0.3,0.3c0.2,0,0.3-0.1,0.3-0.3c0-0.2-0.1-0.3-0.3-0.3C138.7,281.2,138.6,281.3,138.6,281.5z"/>
				<path class="st31" d="M140.8,282.2h-0.6l0.8-1.7h-0.6v0.3H140V280h1.7v0.4L140.8,282.2z"/>
				<path class="st31" d="M143.5,281.3v-0.5h0.5v0.5h0.3v0.4H144v0.5h-0.5v-0.5h-1v-0.4l0.7-1.3h0.5l-0.6,1.3H143.5z"/>
				<path class="st31" d="M146.1,280.6c0,0.2-0.2,0.5-0.4,0.7l-0.4,0.5h0.9v0.4h-1.6v-0.4l0.8-0.8c0.1-0.1,0.2-0.3,0.2-0.4
					c0-0.1-0.1-0.2-0.2-0.2c-0.2,0-0.4,0.1-0.6,0.3l-0.2-0.4c0.3-0.2,0.6-0.3,0.9-0.3C145.7,280,146.1,280.2,146.1,280.6z"/>
				<path class="st31" d="M146.4,282l0.2-0.4c0.1,0.1,0.3,0.1,0.5,0.1c0.3,0,0.5-0.2,0.5-0.6c-0.1,0.1-0.3,0.2-0.5,0.2
					c-0.4,0-0.7-0.3-0.7-0.7c0-0.5,0.3-0.7,0.8-0.7c0.6,0,0.9,0.4,0.9,1.1c0,0.7-0.4,1.1-1,1.1C146.8,282.2,146.5,282.1,146.4,282z
					 M147.5,280.7c0-0.2-0.1-0.3-0.3-0.3c-0.2,0-0.3,0.1-0.3,0.3c0,0.2,0.1,0.3,0.3,0.3C147.3,281,147.5,280.9,147.5,280.7z"/>
				<path class="st31" d="M149.9,280.6c0,0.2-0.1,0.4-0.3,0.4c0.2,0.1,0.4,0.3,0.4,0.5c0,0.4-0.3,0.6-0.9,0.6
					c-0.5,0-0.9-0.2-0.9-0.6c0-0.2,0.2-0.5,0.4-0.6c-0.2-0.1-0.3-0.3-0.3-0.5c0-0.3,0.3-0.6,0.8-0.6
					C149.6,280,149.9,280.2,149.9,280.6z M148.8,281.5c0,0.2,0.1,0.3,0.4,0.3c0.2,0,0.4-0.1,0.4-0.3c0-0.2-0.1-0.3-0.4-0.3
					C148.9,281.2,148.8,281.3,148.8,281.5z M148.9,280.6c0,0.2,0.1,0.2,0.3,0.2c0.2,0,0.3-0.1,0.3-0.2c0-0.2-0.1-0.3-0.3-0.3
					C149,280.4,148.9,280.4,148.9,280.6z"/>
			</g>
		</g>
	</g>
</g>
</svg>
