<?xml version="1.0" encoding="utf-8"?>
<!-- Generator: Adobe Illustrator 27.5.0, SVG Export Plug-In . SVG Version: 6.00 Build 0)  -->
<svg version="1.1" id="Capa_1" xmlns="http://www.w3.org/2000/svg" xmlns:xlink="http://www.w3.org/1999/xlink" x="0px" y="0px"
	 viewBox="0 0 1080 1080" style="enable-background:new 0 0 1080 1080;" xml:space="preserve">
<style type="text/css">
	.st0{fill:#E25B19;}
</style>
<g>
	<path class="st0" d="M872.46,683.39c0.32,0.2,0.64,0.4,0.96,0.6l1.08,0.68c114.19,71.98,170.97,178.64,173.29,325.75
		c-117.52-0.18-236.71-0.21-352.12-0.24c-72.58-0.02-145.16-0.04-217.74-0.09c-0.63,0-1.61,0-2.53-0.02
		c-50.15-33.05-93.16-65.15-114.35-117.21c-6.32-15.52-11.02-31.24-14.18-47.48h115.47h17.99l8.9-15.64l1.18-2.08l1.18-2.08
		l11.59-20.38l-16.48-16.67l-20.01-20.24l-53.03-53.63c8.71-7.01,17.17-13.64,25.79-19.64c5.28-3.68,11.98-8.34,16.48-11.06
		c4.05,3.06,10.06,8.2,15.55,12.9l0.34,0.29c52.55,44.96,120.84,69.72,192.3,69.72c38.16,0,75.34-6.93,110.5-20.59
		c36.54-14.2,69.09-35,96.74-61.83C871.72,684.11,872.09,683.75,872.46,683.39 M869.84,648.16c-5.45,0-10.09,4.47-20.02,14.1
		c-50.45,48.95-118.07,73.69-185.7,73.69c-61.74,0-123.49-20.63-172.19-62.29c-17.51-14.98-25.98-22.28-35.2-22.28
		c-8.48,0-17.6,6.19-34.95,18.26c-18.31,12.74-35.23,27.49-54.17,42.45c34.1,34.48,65.6,66.34,97.09,98.2
		c-0.79,1.39-1.58,2.78-2.37,4.16c-49.58,0-99.17,0-150.6,0c2.2,32.57,9.16,61.81,20.67,90.08c25.22,61.95,76.39,98.86,129.52,133.7
		c4.17,2.74,10.6,2.79,15.99,2.8c194.36,0.14,388.72,0.04,583.09,0.35c0.03,0,0.07,0,0.1,0c12.63,0,17.59-3.83,17.69-16.94
		c1.09-154.76-52.99-280.97-187.78-365.94C880.32,651.78,874.75,648.16,869.84,648.16L869.84,648.16z"/>
	<path class="st0" d="M664.02,216.57L664.02,216.57h0.58c119.86,0.33,217.3,98.16,217.22,218.09
		c-0.09,119.28-97.2,216.44-216.48,216.57h-0.26c-58.78,0-113.56-22.49-154.26-63.32c-40.74-40.86-63.19-95.9-63.22-154.98
		c-0.03-57.14,22.65-111.3,63.86-152.49C552.65,239.25,606.84,216.57,664.02,216.57 M664.02,185.63
		c-135.28,0-247.43,112.05-247.36,247.32c0.07,139.19,109.77,249.21,248.41,249.21c0.1,0,0.2,0,0.31,0
		C801.77,682,912.65,571.07,912.75,434.68c0.1-137.13-111.01-248.67-248.06-249.04C664.46,185.64,664.24,185.63,664.02,185.63
		L664.02,185.63z"/>
	<path class="st0" d="M328.91,69.55c34.44,0,68.98,11.58,97.24,32.62c25.45,18.94,45.07,45,56.04,74.15
		c-82.53,44.47-130.71,119.35-143.31,222.83c-3.46,0.2-6.92,0.31-10.34,0.31c-43.36,0-84.14-16.33-114.83-45.99
		c-31.01-29.97-49.15-71.17-51.08-116.01c-1.82-42.42,14.03-83.44,44.64-115.5c31.65-33.15,75.79-52.26,121.12-52.41L328.91,69.55
		L328.91,69.55 M328.91,38.62c-0.21,0-0.43,0-0.64,0C217.83,39,127.09,131.4,131.71,238.79c4.72,109.66,90.99,191.61,196.81,191.61
		c5.99,0,12.07-0.26,18.17-0.8c14.54-1.28,20.54-5.35,22.25-21.25c10.14-94.11,51.4-168.45,139.81-210.84
		c10.72-5.14,8.96-11.72,6.36-20.31C490.48,95.73,413.82,38.62,328.91,38.62L328.91,38.62z"/>
	<path class="st0" d="M163.78,438.79c45.98,42.53,100.4,64.08,161.91,64.08c10.54,0,21.39-0.65,32.37-1.93
		c2.44,11.24,5.18,22.3,7.88,33.13c-25.26,15.25-47.55,33.49-67.42,55.19c-6.89-6.96-13.81-13.8-20.59-20.5
		c-12.02-11.88-24.44-24.16-36.01-36.46c-5.24-5.57-17.52-18.63-36.55-18.63c-19.02,0-31.72,13.38-35.89,17.78
		c-31.69,33.4-64.36,65.23-94.99,94.68c-0.64,0.33-1.76,0.7-2.32,0.75c-4.51,0.25-9.48,0.37-15.18,0.37
		c-5.88,0-11.75-0.12-17.96-0.25c-0.79-0.02-1.58-0.03-2.37-0.05C56.62,544.17,98.37,482.41,163.78,438.79 M165.94,403.91
		c-3.67,0-7.51,1.55-12.08,4.44C67.43,463.07,20.55,543.27,1.78,642.01c-2.32,12.19,2.55,15.69,13.43,15.69c0.17,0,0.35,0,0.52,0
		c1.35-0.01,2.7-0.02,4.05-0.02c12.4,0,24.82,0.51,37.21,0.51c5.63,0,11.25-0.11,16.87-0.41c7.42-0.4,16.3-3.79,21.58-8.86
		c32.73-31.47,65.24-63.23,96.48-96.16c5.32-5.61,9.49-8.14,13.45-8.14c4.47,0,8.69,3.22,14.02,8.89
		c22.37,23.78,46.36,46.04,68.95,69.63c4.29,4.48,7.82,6.74,11.26,6.74c3.57,0,7.04-2.46,11.12-7.44
		c24.79-30.27,54.7-54.46,90.95-72.78c-5.4-22.56-11.56-44.9-15.89-67.6c-1.99-10.43-5.96-13.94-13.78-13.94
		c-1.99,0-4.24,0.23-6.76,0.63c-13.49,2.13-26.67,3.2-39.53,3.2c-55.07,0-104.25-19.72-146.32-61.02
		C174.5,406.14,170.34,403.91,165.94,403.91L165.94,403.91z"/>
	<path class="st0" d="M191.42,621.75c55.53,53.14,109.33,104.63,166.45,159.29c-29.07,0-53.67,0.31-78.26-0.12
		c-14.38-0.25-19.77,5.95-18.85,20.17c3.86,59.97,14.89,117.88,51.07,167.69c12.24,16.86,27.45,31.59,41.72,46.92
		c5.92,6.36,12.92,11.73,18.41,18.74c-110.7-24.49-197.03-79.42-237.55-191.03c-5.45-15-9.26-30.73-12.34-46.41
		c-2.26-11.5-8.14-16.04-19.25-15.97c-24.33,0.16-48.67,0.05-78.02,0.05C81.54,726.81,135.72,675.01,191.42,621.75z"/>
</g>
</svg>
