<svg version="1.1" id="Capa_1" xmlns="http://www.w3.org/2000/svg" x="0" y="0" viewBox="0 0 1080 1080" xml:space="preserve"><style/><linearGradient id="SVGID_1_" gradientUnits="userSpaceOnUse" x1="-22.44" y1="-10.408" x2="1083.122" y2="1071.506"><stop offset="0" stop-color="#d44f00"/><stop offset="1" stop-color="#dc9d00"/></linearGradient><path d="M495.7 0h88.59c23.53 7.67 33.42 24.49 34.05 48.59.4 15.41 2.38 30.81 4.22 46.14.32 2.65 3.03 6.51 5.39 7.18 23.52 6.75 47.19 12.95 71.48 19.48 11.64-15.59 23.44-31.74 35.61-47.6 16.01-20.88 36.65-24.77 59.29-11.21 18.67 11.19 37.21 22.59 55.66 34.13 22.89 14.32 28.59 34.37 16.79 58.78-7.63 15.79-15.33 31.56-23.42 47.12-2.57 4.95-1.94 7.96 1.99 11.81 10.28 10.07 20.33 20.41 29.94 31.12 4.16 4.63 7.49 5.75 13.35 2.88 15.12-7.39 30.58-14.1 45.96-20.95 26.12-11.63 45.6-5.46 59.68 19.02 10.5 18.25 20.87 36.59 31.12 54.98 13.81 24.8 9.17 44.68-14.2 61.08-14.09 9.88-28.44 19.39-42.31 29.57-2.42 1.77-4.82 6.4-4.21 9.02 3.93 17.07 8.48 34.02 13.43 50.83.7 2.38 4.48 5.13 7.11 5.44 15.34 1.85 30.73 3.83 46.15 4.23 24.11.62 40.95 10.52 48.63 34.05v88.59c-7.68 23.53-24.52 33.43-48.63 34.05-15.42.4-30.83 2.26-46.13 4.31-2.95.4-6.86 4.29-7.8 7.35-6.24 20.44-11.49 41.17-17.75 61.6-1.8 5.87-.37 8.71 4.27 12.02 14.55 10.44 28.94 21.12 43.09 32.1 19.82 15.38 23.74 36.12 10.9 57.73-11.48 19.31-23.24 38.46-35.22 57.47-13.64 21.64-34.03 27.37-57.29 16.26-15.83-7.56-31.6-15.27-47.11-23.44-5.7-3.01-9.16-2.2-13.56 2.35-9.99 10.35-20.45 20.29-31.11 29.95-4.05 3.67-4.81 6.63-2.43 11.63 7.39 15.52 14.32 31.25 21.31 46.96 11.66 26.21 5.53 45.52-19.06 59.66a4564.82 4564.82 0 01-54.98 31.12c-24.79 13.8-44.66 9.14-61.07-14.25-9.88-14.09-19.35-28.47-29.61-42.28-1.85-2.5-7.02-4.54-10-3.87-16.41 3.68-32.69 8.01-48.82 12.78-2.71.8-6.02 4.66-6.37 7.45-1.95 15.32-3.87 30.72-4.27 46.14-.63 24.1-10.53 40.92-34.05 48.59H495.7c-23.53-7.67-33.42-24.5-34.05-48.6-.4-15.42-2.38-30.81-4.22-46.15-.32-2.65-3.03-6.5-5.39-7.18-23.51-6.75-47.19-12.95-71.48-19.48-11.65 15.59-23.45 31.74-35.61 47.6-16.03 20.9-36.6 24.76-59.26 11.18a3482.262 3482.262 0 01-55.68-34.11c-22.88-14.3-28.58-34.34-16.79-58.78 7.62-15.8 15.32-31.56 23.42-47.12 2.58-4.95 1.93-7.96-2-11.81a781.852 781.852 0 01-30.67-31.88c-3.66-4.03-6.6-4.87-11.62-2.47-15.51 7.4-31.24 14.35-46.94 21.34-26.18 11.66-45.56 5.52-59.69-19.05-10.5-18.25-20.87-36.59-31.12-54.98-13.81-24.8-9.17-44.68 14.2-61.08 14.08-9.88 28.44-19.4 42.31-29.57 2.42-1.77 4.81-6.4 4.21-9.02-3.93-17.07-8.48-34.01-13.43-50.82-.7-2.38-4.47-5.13-7.1-5.45-15.34-1.84-30.73-3.83-46.14-4.23-24.13-.57-40.97-10.47-48.65-34v-88.6c7.68-23.54 24.52-33.43 48.63-34.05 15.42-.4 30.83-2.26 46.13-4.31 2.95-.4 6.87-4.3 7.8-7.35 6.24-20.44 11.49-41.18 17.75-61.6 1.8-5.88.37-8.71-4.27-12.02-14.28-10.22-28.35-20.73-42.28-31.44-20.87-16.04-24.72-36.6-11.12-59.29 11.19-18.67 22.57-37.22 34.11-55.68 14.25-22.8 34.41-28.51 58.82-16.71 15.48 7.48 30.89 15.1 46.17 22.97 4.97 2.56 8.4 2.98 12.78-1.6 10.2-10.64 20.93-20.8 31.85-30.7 4.08-3.7 4.73-6.68 2.38-11.65-7.38-15.53-14.32-31.25-21.31-46.96-11.64-26.16-5.47-45.5 19.12-59.65 17.95-10.33 35.98-20.51 54.05-30.63 25.93-14.53 45.37-9.93 62.56 14.72 9.64 13.83 18.94 27.9 29.01 41.41 1.86 2.5 7.03 4.54 10.01 3.87 16.4-3.69 32.68-8.04 48.8-12.84 2.71-.8 6.03-4.66 6.38-7.45 1.95-15.32 3.87-30.73 4.27-46.14.64-24.1 10.53-40.93 34.06-48.6m378.92 288.21c-4.03-3.02-9.1-5.94-13.07-9.95-16.31-16.47-32.16-33.38-48.41-49.91-9.71-9.88-10.86-14.58-4.74-27.07 9.72-19.86 19.4-39.75 29.48-59.43 4.2-8.18 2.78-13.63-5.18-18.36-18.12-10.76-36.14-21.7-53.86-33.1-8.38-5.39-13.88-3.68-19.44 4.03-13.15 18.24-26.83 36.1-40.15 54.22-6.28 8.55-13.73 10.27-23.95 7.17a2537.61 2537.61 0 00-86.94-24.65c-9.82-2.6-15.43-7.29-16.29-17.62-1.86-22.41-3.95-44.8-6.03-67.19-1.12-12.09-3.67-14.42-15.87-14.46-19.69-.07-39.37-.05-59.06-.01-13.96.03-16.11 2.2-17.33 16.35-1.88 21.7-4.07 43.38-5.81 65.09-.83 10.34-6.24 15.38-16.11 17.79-24.52 5.99-48.98 12.27-73.24 19.23-10.73 3.08-18.21.88-24.43-8.36-12.56-18.65-25.69-36.91-38.24-55.57-5.16-7.68-10.74-8.86-18.65-4.23-18.19 10.63-36.48 21.11-55 31.15-8.73 4.73-9.84 10.33-5.74 18.97 9.32 19.66 18.03 39.61 26.9 59.48 5.94 13.3 4.76 17.44-6.01 27.63-16.33 15.44-32.54 31.02-48.52 46.82-10.73 10.61-14.91 11.61-28.78 4.78-19.21-9.45-38.53-18.7-57.51-28.6-9.15-4.78-14.82-2.75-19.89 5.9-10.12 17.27-20.85 34.18-31.27 51.27-7.03 11.53-6.63 13.69 4.01 21.65 17.44 13.05 34.82 26.2 52.45 39 8.9 6.47 11.09 13.89 7.81 24.64-8.78 28.81-16.92 57.82-24.62 86.94-2.61 9.87-7.52 15.27-17.79 16.11-21.71 1.79-43.39 3.94-65.09 5.83-14.23 1.24-16.33 3.32-16.36 17.32-.04 18.63-.02 37.26-.01 55.89.01 16.54 1.69 18.03 18.67 19.4 21.01 1.69 41.98 3.94 62.98 5.68 10.35.86 15.24 6.44 17.64 16.3 5.96 24.52 12.28 48.98 19.24 73.24 3.1 10.81.57 18.18-8.6 24.34-18.36 12.35-36.31 25.32-54.72 37.61-7.94 5.3-9.8 10.87-4.8 19.35 10.69 18.15 21.08 36.49 31.18 54.98 4.43 8.1 9.77 9.87 18.12 5.96 20.02-9.38 40.23-18.36 60.41-27.4 12.88-5.77 17.25-4.63 26.86 5.48 15.72 16.55 31.52 33.03 47.55 49.28 10.23 10.37 11.38 14.92 5.01 27.89-9.59 19.53-19.08 39.13-29.05 58.46-4.39 8.5-3.23 14.2 5.26 19.2 17.86 10.5 35.57 21.29 52.96 32.54 8.67 5.61 14.38 4.2 20.26-4.04 12.86-18.01 26.4-35.54 39.52-53.38 6.5-8.84 14.23-10.71 24.84-7.48 28.48 8.67 57.12 16.87 85.93 24.36 10.32 2.68 15.99 7.5 16.86 18.27 1.72 21.36 3.91 42.69 5.72 64.04 1.26 14.95 3.22 17.01 17.75 17.04 19.33.03 38.67.04 58.01-.01 13.26-.04 15.51-2.29 16.7-15.87 1.91-21.7 4.07-43.38 5.8-65.09.85-10.76 6.4-15.9 16.78-18.37 24.2-5.78 48.32-12.06 72.2-19.02 11.18-3.26 18.79-.88 25.22 8.75 12.29 18.4 25.33 36.31 37.61 54.72 5.46 8.18 11.22 9.15 19.47 4.3 17.86-10.5 35.87-20.76 54.07-30.64 8.45-4.59 10.54-9.92 6.31-18.82-9.18-19.34-17.73-38.97-26.48-58.51-6.67-14.9-5.68-18.52 5.84-29.4 16.35-15.43 32.49-31.06 48.49-46.84 10.22-10.08 14.65-11.09 27.97-4.54 19.21 9.45 38.5 18.75 57.5 28.62 8.84 4.59 14.8 3.62 20.05-5.35a1473.06 1473.06 0 0132.49-53c5.28-8.22 4.14-13.9-3.7-19.54-17.96-12.94-35.66-26.25-53.35-39.55-10.79-8.11-11.61-12.8-7.87-25.38 8.39-28.2 16.75-56.44 23.95-84.96 2.86-11.35 8.24-16.96 19.79-17.82 21.72-1.63 43.4-3.74 65.1-5.72 12.28-1.12 14.63-3.6 14.69-15.66.08-19.69.04-39.37.01-59.06-.02-14.14-2.15-16.33-16.13-17.54-21-1.81-41.98-4.02-63-5.48-12.01-.84-17.85-6.45-20.55-18.32-5.34-23.58-11.94-46.88-18.35-70.2-3.82-13.91-2.63-18.11 9.55-26.59 17.88-12.45 35.69-25 53.76-37.15 7.57-5.09 9.19-10.56 4.49-18.58-10.63-18.19-21.09-36.49-31.13-55-4.66-8.6-10.13-10.17-18.9-6.01-19.97 9.48-40.23 18.35-60.43 27.35-3.48 1.56-7.21 2.51-12.81 4.41" fill="url(#SVGID_1_)"/><linearGradient id="SVGID_00000098942286598108743170000015004062531218646431_" gradientUnits="userSpaceOnUse" x1="-20.698" y1="-12.188" x2="1084.864" y2="1069.726"><stop offset="0" stop-color="#d44f00"/><stop offset="1" stop-color="#dc9d00"/></linearGradient><path d="M763.03 770.62c-16.26-6.17-30.52-13.01-45.55-16.96-26.76-7.04-53.93-12.55-81.05-18.08-3.33-.68-7.84 1.75-11.1 3.84-22.28 14.33-46.37 22.7-72.9 24.83-33.72 2.7-64.91-4.59-93.42-22.46-8.23-5.16-14.83-6.4-24.84-3.66-25.67 7.03-52.2 10.87-78.08 17.23-11.66 2.86-22.59 8.68-33.86 13.16-.28 1.47-.57 2.93-.86 4.4 19.52 14 38.99 28.09 58.62 41.93 4.57 3.22 9.82 5.45 14.6 8.4 9.91 6.1 12.91 14.64 8.28 22.9-4.76 8.49-13.89 11.15-23.68 4.91-21.28-13.57-43.35-26.4-62.63-42.49-68.68-57.36-109.45-131.32-121.51-219.73-12.58-92.23 8.25-177.32 62.6-253.39 44.94-62.9 104.52-106.78 178.04-130.18 85.73-27.28 170.6-22.77 252.7 14.57 82.09 37.33 141.33 98.18 177.7 180.55 26.42 59.83 34.54 122.74 25.66 187.55-10.29 75.08-41.84 140.46-94.19 194.94-55.77 58.03-123.95 93.41-204 105.17-38.97 5.72-77.73 4.24-116.41-2.35-11.22-1.91-17.38-8.98-16.17-18.35 1.23-9.51 8.26-14.32 20.29-13.22 16.07 1.47 32.06 4.19 48.16 4.88 87.8 3.76 164.08-24.78 229.48-83.09.77-.71 1.3-1.66 4.12-5.3m20.73-20.63c111.52-125.47 109.65-330.7-33.23-453.24-131.96-113.18-335.6-102.17-453.26 39.54-113.88 137.15-82.64 318.43.93 407.39 20.85-7.68 40.11-16.03 60.12-21.77 18.15-5.2 37.34-6.73 55.65-11.47 10.22-2.65 21.06-6.79 29.06-13.37 16.26-13.38 15.21-39.34-.32-53.02-18.3-16.12-31.8-35.72-39.48-58.76-2.8-8.39-6.64-10.35-14.85-10.37-27.83-.08-43.18-15.36-43.66-42.91-.35-20.38-.2-40.78-.01-61.17.14-14.81 4.94-27.35 17.73-36.28 2.53-1.77 4.39-6.14 4.54-9.41 2.92-62.08 30.81-110.82 81.95-144.54 46.57-30.71 97.23-39.04 150.17-14.97 11.86 5.4 16.24 13.81 12.12 23.04-3.94 8.82-13.24 11.91-24.41 6.29-56.49-28.48-131.55 4.06-160.52 52.42 20.89 20.89 38.14 45.65 65 60.65 52.96 29.58 107.34 37.99 164.41 12.83 8.49-3.74 15.54-2.93 21.72 4.33 1.26 1.48 3.54 2.08 6.69 3.84-.43-3.24-.43-4.61-.8-5.87-10.26-34.69-24.42-67.31-49.88-93.92-.97-1.01-1.85-2.12-2.72-3.22-6.63-8.47-6.61-17.54.04-23.56 6.85-6.2 15.67-5.62 23.46 2.14 28.35 28.24 45.49 62.82 56.92 100.72 2.87 9.52 6.5 18.56-.74 27.64 11.82 8.05 19.23 18.08 19.44 31.76.38 24.24.42 48.5.03 72.75-.22 13.59-7.07 23.75-18.21 31.55-3.23 2.27-6.32 6.4-7.14 10.18-5.41 25.07-23.87 42.89-48.96 47.61-13.81 2.6-23.26 14.15-28.31 24.58-10.88 22.45 3.55 48.97 27.51 56.64 4 1.28 8.19 1.94 12.3 2.87 40.12 9.1 82.75 10.44 116.71 39.08m-185.7-119.15c-.04-.99-.07-1.98-.11-2.97h-13.16c-10.54-.01-21.09.3-31.61-.13-11.78-.48-18.16-6.58-18-16.27.16-9.34 6.24-14.84 17.5-15.72 2.44-.19 4.91-.09 7.37-.09 15.46-.01 30.91 0 46.36 0 28.77 0 32.32-2.86 38.7-31.23.15-.69.32-1.38.33-2.08.79-33.62 1.57-67.23 2.28-100.85.01-.47-.85-.97-1.84-2.02-68.14 18.68-130.74 4.42-188.48-35.16-9.27 6.25-18.47 12.01-27.07 18.55-2.22 1.69-3.59 5.83-3.62 8.87-.25 28.8-.86 57.62.05 86.4 1.46 46.22 23.35 80.43 65.03 100.28 36.42 17.32 72.22 12.78 106.27-7.58m-6.1 41.68c-17.27 2.77-34.78 7.58-52.35 7.84-17.51.27-35.09-4.03-51.68-6.2-4.18 12.8-8.54 26.18-13.01 39.87 38.07 25.68 99.38 25.31 129.77-.23-4.48-14.51-8.74-28.32-12.73-41.28M393.87 541.68v-81.27c-16.15-1.01-16.9-.33-16.92 15.06-.03 17.52-.03 35.05 0 52.57.04 14.71 1.71 16.06 16.92 13.64m287.21.43c16.01 1.35 17.21.33 17.23-13.81.03-17.86.03-35.71 0-53.57-.02-14.49-1.97-16.07-17.23-13.58v80.96zM407.64 377.67l-9.02 42.73c.86.58 1.71 1.16 2.57 1.74 9.96-5.95 19.93-11.9 30.97-18.5-8.39-8.89-15.45-16.37-24.52-25.97" fill="url(#SVGID_00000098942286598108743170000015004062531218646431_)"/></svg>