<?xml version="1.0" encoding="utf-8"?>
<!-- Generator: Adobe Illustrator 27.5.0, SVG Export Plug-In . SVG Version: 6.00 Build 0)  -->
<svg version="1.1" id="Capa_1" xmlns="http://www.w3.org/2000/svg" xmlns:xlink="http://www.w3.org/1999/xlink" x="0px" y="0px"
	 viewBox="0 0 1080 1080" style="enable-background:new 0 0 1080 1080;" xml:space="preserve">
<style type="text/css">
	.st0{fill:#E25B19;stroke:url(#SVGID_1_);stroke-width:0.5;stroke-miterlimit:10;}
	
		.st1{fill:#E25B19;stroke:url(#SVGID_00000034048622877516088400000017780460792226351022_);stroke-width:0.5;stroke-miterlimit:10;}
	
		.st2{fill:#E25B19;stroke:url(#SVGID_00000078025017200238750050000011784234583967436203_);stroke-width:0.5;stroke-miterlimit:10;}
	.st3{fill:#E25B19;stroke:url(#SVGID_00000018198095241397059240000012536559419084294822_);stroke-miterlimit:10;}
	
		.st4{fill:#E25B19;stroke:url(#SVGID_00000098222831481376858040000011191038063444393918_);stroke-width:0.5;stroke-miterlimit:10;}
</style>
<g>
	
		<linearGradient id="SVGID_1_" gradientUnits="userSpaceOnUse" x1="111.7512" y1="650.2452" x2="968.2465" y2="650.2452" gradientTransform="matrix(1 0 0 -1 0 1080)">
		<stop  offset="0" style="stop-color:#D44F00"/>
		<stop  offset="1" style="stop-color:#DC9D00"/>
	</linearGradient>
	<path class="st0" d="M289.78,103.7c-0.8-29.18,27.51-48.11,53.64-35.16c22.91,11.35,48-1.26,54.28-24.39
		c7.54-27.79,39.44-36.79,60.91-17.61c9.77,8.73,20.54,13.05,33.53,11.08c9.79-1.49,17.57-6.61,23.28-14.55
		c4.91-6.83,9.85-13.23,17.74-17.12c17.95-8.85,38.35-1.39,47.61,13.34c3.01,4.79,6.27,9.73,10.47,13.4
		c13.51,11.83,33.3,11.76,47.21,0.09c12.46-10.45,26.08-13.4,41.16-6.97c12.21,5.21,18.76,15.05,21.61,27.79
		c3.03,13.53,11.4,22.61,24.4,27.19c9.62,3.39,19.04,2.07,28.33-1.91c11.37-4.86,22.68-4.25,33.25,2.2
		c13.05,7.98,19.34,19.88,18.06,35.17c-2.12,25.26,16.62,44.02,41.92,41.56c29.26-2.84,49.74,23.89,38.82,51.44
		c-6.88,17.37-0.91,36.23,12.65,44.96c5,3.22,11,5.29,16.83,6.72c20.74,5.11,33.33,24.39,28.15,45.12
		c-1.43,5.71-4.78,11.24-8.33,16.06c-10.93,14.86-11.39,32.47,0.15,46.7c3.33,4.11,7.98,7.46,12.62,10.13
		c25.36,14.54,26.82,47.88,2.62,64.33c-18.2,12.37-22.83,34.79-10.71,52.35c1.65,2.39,3.68,4.54,5.69,6.65
		c14.93,15.7,13.91,40.38-2.74,54.18c-4.06,3.36-9.24,5.79-14.3,7.45c-23.7,7.79-33.88,31.53-22.71,53.74
		c13.52,26.88-3.83,55.1-33.99,55.29c-16.61,0.1-29.99,9.05-35.67,23.97c-2.46,6.48-3.24,13.2-1.67,19.99
		c6.35,27.5-19.42,53.3-49.77,43.18c-18.26-6.09-37.88,3.39-44.93,21.07c-1.36,3.42-2.23,7.12-2.72,10.78
		c-3.87,29.27-34.59,43.67-58.65,26.69c-19.82-13.98-47.08-6.49-56.94,16.12c-11.59,26.57-45.17,30.45-63.48,7.91
		c-16.26-20-41.14-20.8-58.67-1.87c-20.46,22.08-52.26,16.37-63.67-11.44c-9.6-23.39-33.64-31.34-55.51-18.36
		c-22.25,13.21-49.57,2.8-55.91-21.44c-1.17-4.46-1.27-9.2-2.13-13.75c-3.88-20.56-23.56-33.7-44.01-29.18
		c-8.84,1.95-17.49,2.96-26.21-0.43c-17.86-6.94-26.94-24.73-22.61-44.44c3.87-17.61-3.06-34.06-18.47-41.83
		c-4.95-2.49-10.81-3.84-16.37-4.3c-12.72-1.03-23.25-5.68-30.36-16.46c-8.63-13.09-8.84-26.72-1.05-40.28
		c7.37-12.83,7.97-25.69,0.67-38.64c-4.56-8.1-11.55-13.41-20.31-16.44c-9.15-3.17-16.35-8.78-21.02-17.34
		c-8.45-15.48-5.59-33.29,7.53-45.49c7.85-7.3,12.91-15.87,13.36-26.71c0.57-13.67-5.06-24.35-15.98-32.52
		c-14.21-10.63-19.13-28.43-12.41-44.46c3.94-9.41,10.96-15.74,20.12-20.05c11.18-5.27,18.22-14.11,20.59-26.26
		c2.15-11.01-0.53-20.99-7.13-30.12c-10.76-14.89-10.12-32.76,1.58-46.74c6.07-7.26,14.1-11.14,23.39-12.46
		c24.95-3.54,38.68-25.85,30.81-49.96c-4.62-14.16-2.46-27.17,7.81-38.2c9.09-9.76,20.49-13.11,33.71-11.18
		c18.18,2.66,33.62-5.26,40.55-21.18c2.32-5.35,2.97-11.42,4.38-17.17C290.44,103.86,290.11,103.78,289.78,103.7z M208.08,429.12
		c0.4,185.53,149.1,328.74,324.56,332.32c185.37,3.78,338.9-144.47,339.15-331.4c0.24-183.07-147.04-330.68-329.2-332.17
		C360.13,96.37,208.94,243.09,208.08,429.12z"/>
	
		<linearGradient id="SVGID_00000152244905168909307990000012400289588336221102_" gradientUnits="userSpaceOnUse" x1="557.4238" y1="149.1613" x2="873.7578" y2="149.1613" gradientTransform="matrix(1 0 0 -1 0 1080)">
		<stop  offset="0" style="stop-color:#D44F00"/>
		<stop  offset="1" style="stop-color:#DC9D00"/>
	</linearGradient>
	
		<path style="fill:#E25B19;stroke:url(#SVGID_00000152244905168909307990000012400289588336221102_);stroke-width:0.5;stroke-miterlimit:10;" d="
		M557.87,875.16c14.52,7.31,28.86,9.28,43.8,5.76c19.94-4.7,34.09-16.6,42.79-35.04c3.33-7.05,7.05-9.89,13.31-8.9
		c2.49,0.39,4.98,1.78,7.14,3.21c24.93,16.53,56.01,14.25,77.95-6.05c10.93-10.12,17.23-22.76,19.21-37.55
		c1.07-8.03,3.75-11.61,9.88-12.65c2.01-0.34,4.21,0.09,6.27,0.45c5.87,1.02,11.68,2.44,17.58,3.17c2.54,0.32,2.92,1.84,3.59,3.5
		c9.4,23.43,18.77,46.86,28.17,70.29c14.84,36.98,29.71,73.96,44.55,110.94c4.52,11.26-2.4,21.83-13.89,20.94
		c-2.82-0.22-5.62-1.5-8.31-2.57c-41.95-16.76-83.89-33.57-125.83-50.36c-0.85-0.34-1.73-0.63-3.01-1.09
		c-2.11,4.58-4.23,9.1-6.3,13.64c-17.49,38.46-35.01,76.91-52.42,115.41c-2.75,6.07-7.06,9.68-13.77,9.6
		c-6.92-0.07-11.18-3.98-13.7-10.29c-19.68-49.21-39.43-98.39-59.16-147.57c-5.59-13.93-11.18-27.86-16.76-41.78
		C558.69,877.51,558.45,876.78,557.87,875.16z"/>
	
		<linearGradient id="SVGID_00000125566063417333274650000000576320538031537812_" gradientUnits="userSpaceOnUse" x1="206.0582" y1="155.185" x2="531.429" y2="155.185" gradientTransform="matrix(1 0 0 -1 0 1080)">
		<stop  offset="0" style="stop-color:#D44F00"/>
		<stop  offset="1" style="stop-color:#DC9D00"/>
	</linearGradient>
	
		<path style="fill:#E25B19;stroke:url(#SVGID_00000125566063417333274650000000576320538031537812_);stroke-width:0.5;stroke-miterlimit:10;" d="
		M358.91,939.09c-10.52,4.21-20.73,8.32-30.96,12.38c-19.63,7.79-39.3,15.49-58.91,23.34c-13.92,5.57-27.8,11.25-41.65,16.98
		c-6.25,2.58-12.01,2.28-16.91-2.66c-4.9-4.94-5.1-10.7-2.58-16.96c25.88-64.33,51.71-128.68,77.56-193.03
		c0.99-2.46,1.92-4.94,2.86-7.36c5.41,0.77,8.64,4.13,9.11,9.91c0.93,11.45,3.84,22.21,10.12,31.96
		c18.13,28.15,55.39,36.97,84.25,19.98c2.58-1.52,5.45-2.94,8.35-3.46c5.07-0.91,9.71,2.55,12,8.47
		c4.58,11.84,11.81,21.58,22.07,29.14c24.24,17.87,59.71,15.09,80.73-6.44c1.77-1.81,3.47-3.68,5.25-5.47
		c2.96-2.97,6.48-3.77,10.89-2.68c-3.29,8.21-6.48,16.21-9.69,24.2c-19.26,47.94-38.52,95.89-57.77,143.83
		c-6.18,15.38-12.39,30.75-18.45,46.19c-2.48,6.31-6.66,10.29-13.58,10.46c-6.91,0.17-11.24-3.59-14.04-9.78
		c-19.02-42-38.14-83.96-57.23-125.93C359.93,941.3,359.54,940.46,358.91,939.09z"/>
	
		<linearGradient id="SVGID_00000077309031694709971810000003056159405883139255_" gradientUnits="userSpaceOnUse" x1="230.5049" y1="650.3593" x2="849.5098" y2="650.3593" gradientTransform="matrix(1 0 0 -1 0 1080)">
		<stop  offset="0" style="stop-color:#D44F00"/>
		<stop  offset="1" style="stop-color:#DC9D00"/>
	</linearGradient>
	<path style="fill:#E25B19;stroke:url(#SVGID_00000077309031694709971810000003056159405883139255_);stroke-miterlimit:10;" d="
		M540.22,120.67c170.14-0.05,310.71,138.45,308.77,312.62c-1.89,169.9-140.22,305.84-309.5,305.32
		c-172.75-0.52-310.14-140.27-308.47-312.45C232.64,257.83,369.65,120.57,540.22,120.67z M539.27,726.69
		c163.34,0.28,294.74-131.15,297.71-291.39c3.13-168.3-134.83-305.53-302.25-302.65c-159.26,2.73-292.95,133.6-291.76,299.82
		C244.14,594.49,377.7,726.78,539.27,726.69z"/>
	
		<linearGradient id="SVGID_00000172400325173719548540000000379322912422041473_" gradientUnits="userSpaceOnUse" x1="346.5702" y1="624.2226" x2="733.5587" y2="624.2226" gradientTransform="matrix(1 0 0 -1 0 1080)">
		<stop  offset="0" style="stop-color:#D44F00"/>
		<stop  offset="1" style="stop-color:#DC9D00"/>
	</linearGradient>
	
		<path style="fill:#E25B19;stroke:url(#SVGID_00000172400325173719548540000000379322912422041473_);stroke-width:0.5;stroke-miterlimit:10;" d="
		M500.85,528.74c3.01-4.13,5.81-7.97,8.61-11.8c10.4-14.23,20.87-28.41,31.18-42.7c32.42-44.92,64.78-89.88,97.17-134.82
		c8.94-12.4,17.76-24.89,26.91-37.13c10.62-14.21,29.32-19.29,45.33-12.01c23.45,10.65,29.51,37.28,16.62,55.83
		c-15.85,22.81-32.4,45.13-48.68,67.65c-36.83,50.96-73.69,101.9-110.53,152.85c-9.73,13.46-19.41,26.97-29.19,40.4
		c-11.23,15.43-29.26,21.52-46.44,14.95c-5.55-2.12-11.06-5.56-15.27-9.73c-39.39-38.99-78.51-78.26-117.68-117.47
		c-11.02-11.03-14.76-24.27-10.09-39.14c4.62-14.72,15.1-23.57,30.33-26.09c12.12-2.01,23.19,1.17,31.95,9.85
		c26.53,26.31,52.78,52.89,79.18,79.33C493.58,522.05,497.11,525.21,500.85,528.74z"/>
</g>
</svg>
