<svg version="1.1" id="Capa_1" xmlns="http://www.w3.org/2000/svg" x="0" y="0" viewBox="0 0 1080 1080" xml:space="preserve"><style>.st0{fill:#fff}</style><path class="st0" d="M404.56 1005.91h-20.38V74.3l516.56.04c62.96.03 105.26 42.31 105.26 105.22l-.02 304.68c0 10.76-.18 21.5-.33 32.24-.15 11.73-.33 23.47-.31 35.2l.64 350.78c.04 29.35-10.21 55.8-28.86 74.52-18.59 18.59-44.82 28.84-73.9 28.86l-498.66.07zm2.25-908.98v886.34l496.41-.07c23.36 0 43.38-7.69 57.88-22.23 14.59-14.63 22.3-34.85 22.25-58.47l-.64-350.78c-.02-11.87.15-23.71.33-35.58.15-10.63.31-21.28.31-31.93l.02-304.66c0-50.92-31.67-82.56-82.63-82.58l-493.93-.04zm286.16 775.34h-.18c-35.03-.13-61.41-24.93-61.39-57.66 0-15.65 5.99-30.25 16.86-41.08 10.7-10.67 24.99-16.53 40.26-16.53h.22c15.47.04 29.92 6.06 40.64 16.93 10.76 10.89 16.6 25.46 16.44 40.97-.32 30.61-25.01 57.37-52.85 57.37zm-4.42-92.63c-9.26 0-17.88 3.51-24.31 9.92-6.59 6.56-10.21 15.47-10.21 25.06-.02 19.89 16.68 34.94 38.85 35.03h.09c15.36 0 30.03-16.97 30.23-34.98.09-9.44-3.43-18.25-9.9-24.84-6.47-6.54-15.23-10.17-24.62-10.19h-.13zm-166.38 92.02c-.44 0-.91-.02-1.35-.02-31.34-.75-56.46-26.89-56-58.3.24-15.45 6.36-29.75 17.22-40.26 11.01-10.63 25.81-16.22 41.55-16.11 30.58.53 56.11 26.94 55.73 57.68-.2 15.58-6.47 30.14-17.7 40.97-10.75 10.36-24.71 16.04-39.45 16.04zm-34.72-57.97c-.29 19.03 14.92 34.87 33.9 35.31 8.24-.22 17.83-3.2 24.55-9.68 6.85-6.61 10.67-15.47 10.78-24.95.24-18.54-15.12-34.47-33.5-34.78-9.79-.13-18.76 3.29-25.39 9.75-6.52 6.29-10.19 14.96-10.34 24.35zm367.79 57.83h-1.19c-15.29-.31-29.5-6.52-40-17.48-10.7-11.16-16.38-25.97-16.02-41.7.73-30.72 26.54-55.31 57.77-55.31h1.06c31.12.55 56 26.43 55.47 57.7-.27 15.78-6.47 30.34-17.5 40.99-10.6 10.21-24.63 15.8-39.59 15.8zm.51-91.86c-19.29 0-34.65 14.45-35.09 33.21-.22 9.68 3.23 18.74 9.72 25.52 6.32 6.59 14.87 10.32 24.11 10.5 9.48.29 18.1-3.18 24.62-9.46 6.67-6.45 10.43-15.34 10.59-25.06v-.02c.31-18.81-14.59-34.36-33.24-34.7-.25.01-.47.01-.71.01zm-167.27-71.49c-31.51 0-56.53-24.79-57.06-56.66-.46-31.25 24.42-57.17 55.47-57.81 14.89-.13 30.65 5.39 41.68 16.04 11.01 10.65 17.17 25.19 17.39 40.97.2 14.94-5.57 29.17-16.22 40.07-10.87 11.09-25.35 17.28-40.79 17.39h-.47zm-34.43-57.02c.31 19.42 16.26 34.21 34.72 34.39 9.37-.07 18.19-3.85 24.79-10.61 6.43-6.54 9.88-15.03 9.77-23.91-.13-9.7-3.85-18.59-10.5-24.99-6.65-6.45-15.56-9.88-25.5-9.7-18.63.37-33.56 15.99-33.28 34.82zm-131.77 56.97c-15.23 0-29.52-5.77-40.35-16.31-10.98-10.67-17.08-25.02-17.22-40.35-.31-31.96 24.88-57.32 57.32-57.7 14.72-.15 29.19 5.55 39.98 16.09 11.03 10.81 17.19 25.3 17.35 40.88.33 31.09-24.79 56.84-56 57.39h-1.08zm.02-91.73c-20.11.24-35.14 15.23-34.96 34.87.09 9.26 3.76 17.9 10.36 24.33 6.72 6.56 15.49 10.08 25.26 9.9 18.5-.33 33.97-16.13 33.77-34.52-.09-9.52-3.85-18.39-10.54-24.95-6.46-6.31-14.5-9.08-23.89-9.63zm332.48 91.73h-.77c-31.05-.42-56.13-26.12-55.98-57.32.09-15.62 6.14-30.12 17.06-40.84 10.89-10.7 25.39-16.77 40.97-16.29 31.8.42 56.53 25.79 56.29 57.77-.11 15.45-6.1 29.77-16.91 40.35-10.76 10.54-25.17 16.33-40.66 16.33zm.55-91.82c-9.28 0-17.92 3.47-24.38 9.79-6.59 6.47-10.23 15.29-10.3 24.84-.11 18.81 14.98 34.32 33.63 34.56 9.7-.49 18.7-3.38 25.3-9.86 6.45-6.34 10.05-14.98 10.12-24.35.15-19.69-14.43-34.74-33.94-34.98h-.43zM517.9 545.21c-12.93 0-25.48-5.33-35.34-15.03-11.2-11.03-17.66-26.5-17.7-42.43-.04-15.49 5.79-29.92 16.49-40.62 10.74-10.78 25.28-16.71 40.97-16.71h.04c15.6.02 30.12 6.1 40.91 17.15 10.56 10.81 16.2 25.13 15.87 40.26-.8 34.41-24.57 56.93-60.6 57.37-.2.01-.42.01-.64.01zm4.42-92.15c-9.64 0-18.5 3.58-24.95 10.05-6.41 6.41-9.9 15.14-9.88 24.57.02 9.94 4.02 19.56 10.94 26.36 5.7 5.59 12.77 7.91 19.82 8.53 24.15-.31 37.74-12.82 38.25-35.25.2-9.02-3.14-17.52-9.41-23.93-6.5-6.67-15.29-10.34-24.73-10.34-.02.01-.02.01-.04.01zm332.74 91.66c-15.18 0-29.46-5.86-40.22-16.55-10.83-10.72-16.8-25.04-16.82-40.29-.04-31.93 24.77-57.19 56.55-57.52h.57c15.36 0 29.66 5.79 40.35 16.33 10.87 10.72 16.88 25.24 16.95 40.91.13 31.31-25.46 56.93-57.04 57.13-.09-.01-.23-.01-.34-.01zm.09-91.73h-.35c-19.18.2-34.19 15.51-34.14 34.85.02 9.19 3.6 17.81 10.12 24.26 6.56 6.5 14.67 10.7 24.51 9.99 19.14-.11 34.63-15.56 34.54-34.41-.04-9.59-3.67-18.41-10.21-24.88-6.43-6.34-15.12-9.81-24.47-9.81zm-165.36 91.69c-.8 0-1.57-.02-2.36-.04-33.48-1.41-55.95-24.66-55.93-57.9.02-15.14 5.94-29.33 16.68-39.89 10.96-10.81 25.72-16.8 41.1-16.4 31.62.44 57.02 26.21 56.6 57.44-.2 16.02-6.59 30.78-17.99 41.59-10.41 9.85-23.87 15.2-38.1 15.2zm-1.33-91.6c-9.28 0-17.92 3.49-24.42 9.88-6.39 6.3-9.92 14.74-9.92 23.78-.02 21.19 12.77 34.39 34.23 35.27 9.02.35 17.48-2.81 23.98-8.97 6.92-6.56 10.78-15.6 10.92-25.46.24-19.07-14.81-34.23-34.28-34.5h-.51zm169.94-98.65c-6.43 0-12.84 0-19.25-.02l-338.44-.04c-25.15 0-35.91-10.7-35.98-35.78-.07-25.19-.07-50.36 0-75.56.07-22.81 11.49-34.36 33.99-34.36l381.85-.09c18.96 0 31.38 11.87 31.65 30.25.42 28.62.38 57.24.07 85.85-.2 17.9-12.51 29.55-31.36 29.68-7.52.07-15.04.07-22.53.07zm22.17-123.22l-381.85.09c-9.33 0-11.34 1.02-11.36 11.78-.07 25.15-.07 50.32 0 75.47.02 12.57.66 13.19 13.35 13.19l338.49.04c13.86.04 27.69.09 41.55-.04 8.15-.07 8.86-3.34 8.91-7.31.31-28.4.35-56.84-.07-85.26-.07-5.29-1.49-7.96-9.02-7.96z"/><path class="st0" d="M236.25 1074.63c-20.95 0-41.9-.13-62.85-.33-46.89-.4-84.62-28.29-96.11-71.07-2.01-7.47-2.94-15.96-2.94-26.72l-.04-301.23c.02-190.23.02-380.48-.31-570.7-.11-54.96 41.44-97.32 96.68-98.52 44.42-.93 83.87-.93 120.68 0 55.49 1.41 96.99 44.2 96.55 99.56-.8 104.26-.66 208.55-.51 312.81l.15 480.01c0 8.09-.09 16.18-.2 24.29-.2 17.15-.42 34.32.33 51.45 1.17 26.12-7.76 50.61-25.08 68.99-18.28 19.36-44.9 30.72-73.08 31.12-17.73.23-35.5.34-53.27.34zM233.82 27.98c-19.84 0-40.64.22-62.65.71-43.29.93-74.63 32.84-74.54 75.84.33 190.25.33 380.5.31 570.75l.04 301.23c0 8.71.69 15.34 2.17 20.84 8.8 32.68 38.01 54.01 74.45 54.32 38.54.38 77.08.49 115.62-.02 22.08-.31 42.83-9.06 56.93-24.02 13.28-14.08 19.84-32.22 18.94-52.44-.77-17.57-.55-35.16-.35-52.75.11-8 .2-16 .2-24l-.13-474.38c-.15-106.21-.33-212.41.49-318.62.35-43.38-30.98-75.64-74.5-76.75-18.24-.48-37.14-.71-56.98-.71z"/></svg>