<?xml version="1.0" encoding="utf-8"?>
<!-- Generator: Adobe Illustrator 27.5.0, SVG Export Plug-In . SVG Version: 6.00 Build 0)  -->
<svg version="1.1" id="Capa_1" xmlns="http://www.w3.org/2000/svg" xmlns:xlink="http://www.w3.org/1999/xlink" x="0px" y="0px"
	 viewBox="0 0 1080 1080" style="enable-background:new 0 0 1080 1080;" xml:space="preserve">
<style type="text/css">
	.st0{fill:#E25B19;}
</style>
<g>
	<path class="st0" d="M1078.65,479.57c-3.27,8.17-11.72,15.31-16.78,21.4c-10.41,12.51-20.8,25.03-31.21,37.54
		c-20.47,24.61-40.96,49.19-61.57,73.67c-20.5,24.35-31.19,24.1-51.3-0.03c-32.73-39.28-66.01-78.12-97.65-118.27
		c-6.38-8.09-10.78-22.56-7.93-31.47c2.03-6.32,17.55-10.61,27.47-11.61c18.07-1.82,36.45-0.52,57-0.52
		c-18.91-83.48-58.49-152.4-119.28-208.19C556.63,39.46,209.89,127.63,111.93,410.72C16.53,686.4,248.26,977.41,538.27,945.87
		c133.13-14.48,235.3-79.35,308.16-191.24c2.18-3.35,4.21-6.79,6.48-10.07c15.5-22.46,40.88-28.92,62.36-15.93
		c21.29,12.87,27.87,39.36,14.05,62.92c-40.31,68.71-93.88,125.08-161.33,167.52C461.15,1152.12,65.09,973.29,6.43,615.45
		c-1.91-11.63-3.9-23.24-5.86-34.86c0-27.18,0-54.36,0-81.54c2.95-16.3,5.98-32.59,8.83-48.91C47.33,233.07,237.23,58.8,452.68,43.4
		C687.4,26.62,897.37,161.99,969.41,376.87c8.01,23.88,14.35,48.33,21.7,73.33c16.25,0,32.53-1.23,48.77-0.23
		c12.22,0.76,32.84,3.52,38.66,16.44C1080.63,471.06,1080.3,475.45,1078.65,479.57z"/>
	<path class="st0" d="M543.81,331.16c0,41.53-0.72,83.08,0.53,124.57c0.39,12.96,7.97,22.29,14.69,32.61
		c7.96,12.23,10.84,26.24,17.72,38.61c6.24,11.23,20.62,18.01,31.3,24.02c40.3,22.68,80.36,45.8,120.28,69.13
		c28.36,16.58,37.39,42.54,23.63,65.82c-13.74,23.25-40.55,28.08-69.22,11.74c-44.33-25.26-88.08-51.57-132.88-75.97
		c-9.26-5.04-22.51-6.56-33.06-4.71c-33.81,5.92-67.54-7.41-84.65-36.05c-17.73-29.67-15.33-68.83,8.85-93.11
		c11.55-11.6,14.12-23.16,14.04-38.14c-0.44-82.26-0.63-164.52,0.02-246.78c0.3-38.37,34.9-61.32,64.8-41.56
		c11.73,7.75,21.78,26.25,22.76,40.53c2.95,42.92,1.06,86.18,1.06,129.31C543.72,331.16,543.76,331.16,543.81,331.16z M533.15,539.2
		c-0.3-17.54-16.1-33.68-33.31-34.03c-18.19-0.38-34.6,16.53-34.28,35.32c0.3,17.81,15.77,33.64,33.2,33.98
		C516.92,574.83,533.47,557.86,533.15,539.2z"/>
</g>
</svg>
