<svg version="1.1" id="Capa_1" xmlns="http://www.w3.org/2000/svg" x="0" y="0" viewBox="0 0 1080 1080" xml:space="preserve"><style/><linearGradient id="SVGID_1_" gradientUnits="userSpaceOnUse" x1="-13.136" y1="-25.956" x2="999.899" y2="1092.33"><stop offset="0" stop-color="#d44f00"/><stop offset="1" stop-color="#dc9d00"/></linearGradient><path d="M1078.65 479.57c-3.27 8.17-11.72 15.31-16.78 21.4-10.41 12.51-20.8 25.03-31.21 37.54-20.47 24.61-40.96 49.19-61.57 73.67-20.5 24.35-31.19 24.1-51.3-.03-32.73-39.28-66.01-78.12-97.65-118.27-6.38-8.09-10.78-22.56-7.93-31.47 2.03-6.32 17.55-10.61 27.47-11.61 18.07-1.82 36.45-.52 57-.52-18.91-83.48-58.49-152.4-119.28-208.19C556.63 39.46 209.89 127.63 111.93 410.72 16.53 686.4 248.26 977.41 538.27 945.87c133.13-14.48 235.3-79.35 308.16-191.24 2.18-3.35 4.21-6.79 6.48-10.07 15.5-22.46 40.88-28.92 62.36-15.93 21.29 12.87 27.87 39.36 14.05 62.92-40.31 68.71-93.88 125.08-161.33 167.52-306.84 193.05-702.9 14.22-761.56-343.62-1.91-11.63-3.9-23.24-5.86-34.86v-81.54c2.95-16.3 5.98-32.59 8.83-48.91C47.33 233.07 237.23 58.8 452.68 43.4 687.4 26.62 897.37 161.99 969.41 376.87c8.01 23.88 14.35 48.33 21.7 73.33 16.25 0 32.53-1.23 48.77-.23 12.22.76 32.84 3.52 38.66 16.44 2.09 4.65 1.76 9.04.11 13.16z" fill="url(#SVGID_1_)"/><linearGradient id="SVGID_00000084508559956230014040000014554201800565422518_" gradientUnits="userSpaceOnUse" x1="57.832" y1="-90.245" x2="1070.867" y2="1028.041"><stop offset="0" stop-color="#d44f00"/><stop offset="1" stop-color="#dc9d00"/></linearGradient><path d="M543.81 331.16c0 41.53-.72 83.08.53 124.57.39 12.96 7.97 22.29 14.69 32.61 7.96 12.23 10.84 26.24 17.72 38.61 6.24 11.23 20.62 18.01 31.3 24.02 40.3 22.68 80.36 45.8 120.28 69.13 28.36 16.58 37.39 42.54 23.63 65.82-13.74 23.25-40.55 28.08-69.22 11.74-44.33-25.26-88.08-51.57-132.88-75.97-9.26-5.04-22.51-6.56-33.06-4.71-33.81 5.92-67.54-7.41-84.65-36.05-17.73-29.67-15.33-68.83 8.85-93.11 11.55-11.6 14.12-23.16 14.04-38.14-.44-82.26-.63-164.52.02-246.78.3-38.37 34.9-61.32 64.8-41.56 11.73 7.75 21.78 26.25 22.76 40.53 2.95 42.92 1.06 86.18 1.06 129.31.04-.02.08-.02.13-.02zM533.15 539.2c-.3-17.54-16.1-33.68-33.31-34.03-18.19-.38-34.6 16.53-34.28 35.32.3 17.81 15.77 33.64 33.2 33.98 18.16.36 34.71-16.61 34.39-35.27z" fill="url(#SVGID_00000084508559956230014040000014554201800565422518_)"/></svg>