<svg xmlns="http://www.w3.org/2000/svg" viewBox="0 0 1080 1080"><path d="M0 539.88C.32 238.67 241.36-.55 543.98 0 841.85.54 1080.5 243.55 1080 545.8c-.49 294.5-244.84 534.84-543.12 534.2C240.4 1079.36-.31 837.19 0 539.88zm556.57-347.22v44.72c0 143.11.39 286.22-.19 429.33-.21 53.04-41.47 95.7-94.25 100.18-46.78 3.97-96.36-35.79-104.72-83.98-8.65-49.9 21.51-97.59 72.81-111.36 17.09-4.59 35.75-3.35 54.72-4.85V450.92c-3.55-1.63-4.9-2.7-6.37-2.87-108.22-12.56-211.41 60.09-236.99 166.77-25.2 105.1 33 218.63 131.72 256.92 148.16 57.47 302.83-47.19 304.14-206.15.59-71.15.09-142.31.2-213.47.01-6.69.86-13.38 1.47-22.34 7.34 3.88 12.22 6.23 16.88 8.96 39.31 23.02 81.77 36.2 127.16 38.51 6.86.35 20.07-6.71 20.25-10.81 1.62-35.55.93-71.21.93-103.6-96.65-22.99-157.79-72.59-169.77-170.21-39.06.03-76.52.03-117.99.03z" fill="#fff"/></svg>