<svg xmlns="http://www.w3.org/2000/svg" viewBox="0 0 1080 1080"><path d="M541.05 0c299.08 1.22 540.2 244.25 538.95 543.24-1.24 297.55-245.59 537.9-545.69 536.75C238.59 1078.86-1.42 835.3.01 537.81 1.44 239.13 243.23-1.21 541.05 0zm-322 789.16c4.12 3.82 5.52 5.62 7.34 6.72 6.16 3.7 12.3 7.5 18.75 10.64 109.04 53.03 221.12 59.77 334.61 17.61C732.8 767.27 833.68 618.4 837.74 446.27c.35-14.91 4.55-24.6 15.98-34.53 19.05-16.54 35.68-35.87 53.33-54.02-.89-1.1-1.78-2.21-2.67-3.31-22.29 5.93-44.57 11.87-66.86 17.8 21.08-23.34 42.65-43.73 49.8-75.03-19.32 7.91-37.13 14.9-54.69 22.47-19.68 8.5-34.83 6.5-53.62-7.87-79.25-60.6-194-21.62-221.44 74.56-6.37 22.34-5.49 46.74-8.16 72.24-116.53-8.04-212.04-59.02-291.18-149.48-33.86 75.31-18.81 136.61 35.42 191.89-17.41-4.71-34.81-9.42-54.46-14.74 3.42 70.52 40.59 113.6 102.02 141.8h-52.13c23.6 61.23 67.17 91.3 128.46 100.46-46.57 40.18-104.79 57.88-198.49 60.65z" fill="#fff"/></svg>