<svg version="1.1" id="Capa_1" xmlns="http://www.w3.org/2000/svg" x="0" y="0" viewBox="0 0 1080 1080" xml:space="preserve"><style>.st0{fill:#fff}</style><path class="st0" d="M520.74 3.44c189.32-.05 335.99 115.96 374.89 281.79 21.93 93.46 9.04 182.29-38.43 265.46-76.76 134.5-154.5 268.44-231.81 402.63-20.85 36.18-41.72 72.35-62.46 108.59-5.13 8.96-12.21 14.59-22.8 14.65-10.83.06-18.06-5.58-23.34-14.76-66.84-116.13-133.78-232.19-200.66-348.3-32.78-56.91-66.48-113.31-97.99-170.91-77.35-141.41-51.08-318.16 63.3-432.17C352.78 39.33 439.29 4.61 520.74 3.44zm19.15 1000.23c16.09-27.91 31.38-54.42 46.66-80.92 74.8-129.8 149.44-259.68 224.45-389.36 39.81-68.82 54.74-142.02 40.54-220.6-29.66-163.98-180.81-277.9-346.17-258.17-127.75 15.25-215.53 86.03-261.92 205.04-35.85 91.97-26.36 182.7 22.51 268.26 87.37 152.97 175.75 305.35 263.71 457.98 3.2 5.56 6.39 11.12 10.22 17.77z"/><path class="st0" d="M710.64 369.19c.24 93.63-76.07 170.65-169.27 170.84-95.5.19-171.99-75.43-172.26-170.29-.26-94.27 76.02-171.02 170.2-171.23 94.67-.21 171.09 75.92 171.33 170.68zm-292.6.49c.14 66.32 55.3 121.58 121.3 121.52 67.49-.06 122.48-55.01 122.38-122.28-.1-66.85-55.2-121.47-122.51-121.45-66.33.02-121.31 55.47-121.17 122.21z"/></svg>